<svg clip-rule="evenodd" fill-rule="evenodd" viewBox="0 0 228 316" xmlns="http://www.w3.org/2000/svg"><path d="m6927.61-2424.37c0-5.87-4.76-10.63-10.63-10.63h-201.96c-5.87 0-10.63 4.76-10.63 10.63v290.55c0 5.87 4.76 10.63 10.63 10.63h201.96c5.87 0 10.63-4.76 10.63-10.63z" fill="#fff" stroke="#bfbfbf" transform="translate(-6702.328 2437.059)"/><g fill="#d40000" fill-rule="nonzero"><path d="m9.68532732 15.89132444h3.110873646v31.506740424h-3.110873646z" stroke-width=".301062"/><path d="m4838.82-1456.38c-9.95 0-17.95 8.93-17.95 20.01v64.64c0 11.08 8 20.01 17.95 20.01h5.79c9.95 0 17.96-8.93 17.96-20.01v-64.64c0-11.08-8.01-20.01-17.96-20.01zm2.99 9.9c5.87 0 10.6 4.44 10.6 9.97v65.51c0 5.53-4.73 9.98-10.6 9.98-5.88 0-10.6-4.45-10.6-9.98v-65.51c0-5.53 4.72-9.97 10.6-9.97z" transform="matrix(.301062 0 0 .301062 -1434.768 454.352)"/><path d="m3799.25 1636.12h20.5v207.625h-20.5z" transform="matrix(-.151748 0 0 -.151748 794.182 548.307)"/><path d="m3880.5 1636.12c-19.73 0-35.59 17.71-35.59 39.69v128.25c0 21.99 15.86 39.69 35.59 39.69h11.5c19.73 0 35.62-17.7 35.62-39.69v-128.25c0-21.98-15.89-39.69-35.62-39.69zm5.94 19.63c11.65 0 21.03 8.81 21.03 19.78v129.97c0 10.97-9.38 19.81-21.03 19.81-11.66 0-21.03-8.84-21.03-19.81v-129.97c0-10.97 9.37-19.78 21.03-19.78z" transform="matrix(-.151748 0 0 -.151748 794.182 548.307)"/><path d="m2029.04 544.076c-1.59-3.472-1.76-9.405 2.97-10.208 3.56-.458 5.01 1.199 5.3 3.742.14.743.56.789.69-.058.21-2.61 2.79-4.133 4.81-3.75 5.52.945 5.2 7.028 3.4 11.155-2.74 5.48-5.6 8.938-8.25 14.452-3.04-5.741-6.51-10.405-8.92-15.333z" transform="translate(-2018.458 -481.882)"/><path d="m2063.54 512.26c7.14-.474 10.87 5.627 11.59 10.436.44.764.67.549.84-.042.35-6.174 5.87-11.22 10.99-10.53 8.33.108 13.39 9.375 11.97 17.219-1.74 9.581-6.9 15.351-10.81 21.293-4.42 6.152-10.37 15.039-12.29 19.317 0 0-6.05-9.205-13.92-20.03-5.26-7.238-9.47-15.082-9.86-21.835-.45-7.716 2.72-14.632 11.49-15.828z" transform="translate(-2018.458 -481.882)"/><path d="m2119.72 544.925c7.14-.474 10.87 5.628 11.6 10.437.43.764.67.548.83-.043.35-6.174 5.88-11.22 10.99-10.53 8.33.109 13.39 9.376 11.97 17.219-1.74 9.582-6.9 15.351-10.81 21.293-4.42 6.153-10.37 15.04-12.29 19.317 0 0-6.04-9.205-13.91-20.03-5.27-7.238-9.48-15.082-9.87-21.835-.45-7.715 2.72-14.632 11.49-15.828z" transform="translate(-2018.458 -481.882)"/><path d="m2175.07 512.26c7.14-.474 10.87 5.627 11.59 10.436.44.764.68.549.84-.042.35-6.174 5.88-11.22 10.99-10.53 8.33.108 13.39 9.375 11.97 17.219-1.74 9.581-6.9 15.351-10.81 21.293-4.42 6.152-10.37 15.039-12.29 19.317 0 0-6.04-9.205-13.91-20.03-5.27-7.238-9.48-15.082-9.87-21.835-.45-7.716 2.72-14.632 11.49-15.828z" transform="translate(-2018.458 -481.882)"/><path d="m2175.07 577.591c7.14-.475 10.87 5.627 11.59 10.436.44.764.68.549.84-.042.35-6.174 5.88-11.22 10.99-10.53 8.33.108 13.39 9.375 11.97 17.218-1.74 9.582-6.9 15.351-10.81 21.293-4.42 6.153-10.37 15.04-12.29 19.317 0 0-6.04-9.204-13.91-20.029-5.27-7.239-9.48-15.083-9.87-21.836-.45-7.715 2.72-14.631 11.49-15.827z" transform="translate(-2018.458 -481.882)"/><path d="m2063.54 577.591c7.14-.475 10.87 5.627 11.59 10.436.44.764.67.549.84-.042.35-6.174 5.87-11.22 10.99-10.53 8.33.108 13.39 9.375 11.97 17.218-1.74 9.582-6.9 15.351-10.81 21.293-4.42 6.153-10.37 15.04-12.29 19.317 0 0-6.05-9.204-13.92-20.029-5.26-7.239-9.47-15.083-9.86-21.836-.45-7.715 2.72-14.631 11.49-15.827z" transform="translate(-2018.458 -481.882)"/><path d="m2175.07 701.981c7.14.474 10.87-5.628 11.59-10.437.44-.764.68-.548.84.043.35 6.174 5.88 11.22 10.99 10.53 8.33-.108 13.39-9.376 11.97-17.219-1.74-9.582-6.9-15.351-10.81-21.293-4.42-6.152-10.37-15.04-12.29-19.317 0 0-6.04 9.205-13.91 20.03-5.27 7.238-9.48 15.082-9.87 21.835-.45 7.716 2.72 14.632 11.49 15.828z" transform="translate(-2018.458 -481.882)"/><path d="m2175.07 767.086c7.14.475 10.87-5.627 11.59-10.436.44-.764.68-.549.84.042.35 6.174 5.88 11.22 10.99 10.53 8.33-.108 13.39-9.375 11.97-17.218-1.74-9.582-6.9-15.352-10.81-21.294-4.42-6.152-10.37-15.039-12.29-19.316 0 0-6.04 9.204-13.91 20.029-5.27 7.239-9.48 15.083-9.87 21.836-.45 7.715 2.72 14.631 11.49 15.827z" transform="translate(-2018.458 -481.882)"/><path d="m2119.25 734.534c7.15.474 10.87-5.628 11.6-10.437.43-.764.67-.549.83.042.35 6.175 5.88 11.221 11 10.531 8.33-.109 13.39-9.376 11.96-17.219-1.73-9.582-6.9-15.351-10.8-21.293-4.43-6.153-10.38-15.04-12.29-19.317 0 0-6.05 9.204-13.92 20.029-5.26 7.239-9.47 15.083-9.87 21.836-.44 7.715 2.72 14.632 11.49 15.827z" transform="translate(-2018.458 -481.882)"/><path d="m2063.54 701.981c7.14.474 10.87-5.628 11.59-10.437.44-.764.67-.548.84.043.35 6.174 5.87 11.22 10.99 10.53 8.33-.108 13.39-9.376 11.97-17.219-1.74-9.582-6.9-15.351-10.81-21.293-4.42-6.152-10.37-15.04-12.29-19.317 0 0-6.05 9.205-13.92 20.03-5.26 7.238-9.47 15.082-9.86 21.835-.45 7.716 2.72 14.632 11.49 15.828z" transform="translate(-2018.458 -481.882)"/><path d="m2063.54 767.086c7.14.475 10.87-5.627 11.59-10.436.44-.764.67-.549.84.042.35 6.174 5.87 11.22 10.99 10.53 8.33-.108 13.39-9.375 11.97-17.218-1.74-9.582-6.9-15.352-10.81-21.294-4.42-6.152-10.37-15.039-12.29-19.316 0 0-6.05 9.204-13.92 20.029-5.26 7.239-9.47 15.083-9.86 21.836-.45 7.715 2.72 14.631 11.49 15.827z" transform="translate(-2018.458 -481.882)"/><path d="m2217.85 734.934c-1.58 3.472-1.76 9.405 2.97 10.208 3.56.458 5.01-1.198 5.3-3.742.14-.743.56-.788.7.058.2 2.61 2.78 4.133 4.8 3.75 5.53-.945 5.21-7.028 3.4-11.155-2.73-5.48-5.6-8.938-8.24-14.452-3.04 5.741-6.51 10.405-8.93 15.333z" transform="translate(-2018.458 -481.882)"/></g></svg>