<svg clip-rule="evenodd" fill-rule="evenodd" viewBox="0 0 228 316" xmlns="http://www.w3.org/2000/svg"><path d="m6481.16-2736.18c0-5.87-4.77-10.63-10.63-10.63h-201.97c-5.87 0-10.63 4.76-10.63 10.63v290.55c0 5.87 4.76 10.63 10.63 10.63h201.97c5.86 0 10.63-4.76 10.63-10.63z" fill="#fff" stroke="#bfbfbf" transform="translate(-6255.878 2748.869)"/><g fill="#d40000" fill-rule="nonzero" transform="matrix(.301062 0 0 .301062 -576.014 799.069)"><path d="m2217.34-2458.17c32.95-32.16 54.6-67.22 75.29-100.94 18.15 37.1 44.2 69.56 72.37 100.94-30.14 31.12-53.5 64.39-72.28 99.37-20.82-35.86-42.73-68.33-75.38-99.37z"/><path d="m2217.34-1797.82c32.95-32.15 54.6-67.22 75.29-100.94 18.15 37.11 44.2 69.57 72.37 100.94-30.14 31.12-53.5 64.4-72.28 99.38-20.82-35.86-42.73-68.33-75.38-99.38z"/><path d="m2572.81-1819.92c13.5-13.18 22.37-27.54 30.85-41.35 7.43 15.19 18.1 28.49 29.64 41.35-12.35 12.74-21.91 26.37-29.61 40.7-8.53-14.69-17.5-27.99-30.88-40.7z"/><path d="m1949.27-2438.64c13.5-13.17 22.37-27.54 30.85-41.35 7.43 15.2 18.1 28.5 29.64 41.35-12.35 12.75-21.91 26.38-29.61 40.71-8.53-14.69-17.5-27.99-30.88-40.71z"/><path d="m1947.7-2492.42.55-6.71c1.69-20.72 6.23-27.72 31.96-49.34 12.49-10.49 16.59-15.67 17.16-21.68 1.63-14.15-11.13-18.57-19.44-18.64-10.77-.1-22.95 6.35-17.15 21.3l-12.08 3.55c-2.43-13.95.06-27.05 11.38-32.86 15.1-7.57 34.48-4.6 44.26 7.33 6.57 8.02 8.06 19.09 4.54 27.75-10.3 22.16-45.24 31.91-48.13 57.53h38.63v-14.26h11.38v26.26z"/><path d="m2633.97-1766.53-.55 6.7c-1.69 20.73-6.23 27.73-31.96 49.35-12.49 10.49-16.59 15.66-17.17 21.67-1.63 14.15 11.14 18.57 19.45 18.65 10.77.1 22.95-6.35 17.14-21.31l12.08-3.54c2.44 13.95-.05 27.04-11.37 32.86-15.1 7.57-34.48 4.6-44.26-7.33-6.57-8.02-8.06-19.09-4.54-27.76 10.3-22.16 45.24-31.9 48.13-57.53h-38.63v14.27h-11.38v-26.26z"/></g></svg>