<?xml version="1.0" encoding="UTF-8" standalone="no"?>
<!DOCTYPE svg PUBLIC "-//W3C//DTD SVG 1.1//EN" "http://www.w3.org/Graphics/SVG/1.1/DTD/svg11.dtd">
<svg width="100%" height="100%" viewBox="0 0 228 316" version="1.1" xmlns="http://www.w3.org/2000/svg" xmlns:xlink="http://www.w3.org/1999/xlink" xml:space="preserve" xmlns:serif="http://www.serif.com/" style="fill-rule:evenodd;clip-rule:evenodd;">
    <g transform="matrix(1,0,0,1,-258.378,-368.221)">
        <g id="_3H" serif:id="3H">
            <g id="rect6351" transform="matrix(1,0,0,1,-6220.72,3117.09)">
                <path d="M6704.39,-2736.18C6704.39,-2742.05 6699.62,-2746.81 6693.76,-2746.81L6491.79,-2746.81C6485.92,-2746.81 6481.16,-2742.05 6481.16,-2736.18L6481.16,-2445.63C6481.16,-2439.76 6485.92,-2435 6491.79,-2435L6693.76,-2435C6699.62,-2435 6704.39,-2439.76 6704.39,-2445.63L6704.39,-2736.18Z" style="fill:white;stroke:rgb(191,191,191);stroke-width:1px;"/>
            </g>
            <g id="path7102" transform="matrix(0.301062,0,0,0.301062,-585.13,1168.13)">
                <path d="M2836.66,-2519.89L2845.12,-2526C2852.48,-2514.26 2860.69,-2506.53 2873.24,-2507.86C2892.09,-2509.13 2899.89,-2528.52 2895.95,-2543.14C2892.14,-2556.25 2876.53,-2562.64 2864.13,-2555.64C2861.21,-2553.99 2857.83,-2551.95 2857.83,-2551.95L2853.41,-2559.15L2882.52,-2593.01L2850.93,-2593.01L2850.93,-2579L2838.81,-2579L2838.81,-2604.12L2900.56,-2604.12L2900.56,-2595.6C2900.56,-2595.6 2884.02,-2578.76 2878.54,-2569.53C2892.01,-2569.04 2902.87,-2560.66 2906.75,-2547.41C2909.03,-2540.44 2908.01,-2524.49 2905.03,-2517.62C2900.07,-2506.16 2886.49,-2496.87 2874.07,-2496.33C2853.24,-2494.95 2842.18,-2509.29 2836.66,-2519.89Z" style="fill:rgb(212,0,0);fill-rule:nonzero;"/>
            </g>
            <g id="path7118" transform="matrix(0.301062,0,0,0.301062,-585.13,1168.13)">
                <path d="M3522.01,-1744.69L3513.54,-1738.58C3506.19,-1750.31 3497.98,-1758.05 3485.43,-1756.72C3466.58,-1755.45 3458.78,-1736.06 3462.72,-1721.43C3466.53,-1708.33 3482.14,-1701.94 3494.54,-1708.94C3497.46,-1710.59 3500.84,-1712.31 3500.84,-1712.31L3506.07,-1705.56L3476.15,-1671.57L3507.74,-1671.57L3507.74,-1685.58L3519.86,-1685.58L3519.86,-1660.46L3458.11,-1660.46L3458.11,-1668.98C3458.11,-1668.98 3474.65,-1685.82 3480.12,-1695.05C3466.66,-1695.54 3455.8,-1703.91 3451.92,-1717.17C3449.64,-1724.14 3450.66,-1740.09 3453.63,-1746.95C3458.6,-1758.42 3472.18,-1767.71 3484.6,-1768.25C3505.42,-1769.63 3516.49,-1755.29 3522.01,-1744.69Z" style="fill:rgb(212,0,0);fill-rule:nonzero;"/>
            </g>
            <g id="path8630" transform="matrix(1,0,0,1,-1536.85,198.15)">
                <path d="M1807.03,232.79C1805.44,229.318 1805.27,223.385 1810,222.582C1813.56,222.124 1815.01,223.78 1815.3,226.324C1815.44,227.067 1815.86,227.113 1815.99,226.266C1816.19,223.656 1818.78,222.133 1820.8,222.516C1826.32,223.461 1826,229.544 1824.2,233.671C1821.47,239.151 1818.6,242.609 1815.95,248.123C1812.91,242.382 1809.44,237.718 1807.03,232.79L1807.03,232.79Z" style="fill:rgb(212,0,0);fill-rule:nonzero;"/>
            </g>
            <g id="path8516" transform="matrix(1,0,0,1,-1536.85,198.15)">
                <path d="M1896.78,200.863C1903.93,200.388 1907.65,206.49 1908.38,211.299C1908.81,212.063 1909.05,211.848 1909.22,211.257C1909.57,205.083 1915.09,200.037 1920.21,200.727C1928.54,200.835 1933.6,210.102 1932.17,217.946C1930.44,227.527 1925.28,233.297 1921.37,239.239C1916.94,245.391 1910.99,254.278 1909.08,258.555C1909.08,258.555 1903.03,249.351 1895.16,238.526C1889.9,231.287 1885.69,223.444 1885.29,216.69C1884.85,208.975 1888.01,202.059 1896.78,200.863L1896.78,200.863Z" style="fill:rgb(212,0,0);fill-rule:nonzero;"/>
            </g>
            <g id="path8518" transform="matrix(1,0,0,1,-1536.85,198.15)">
                <path d="M1896.85,299.285C1903.99,298.81 1907.72,304.912 1908.44,309.721C1908.88,310.485 1909.11,310.27 1909.28,309.679C1909.63,303.505 1915.15,298.459 1920.27,299.149C1928.6,299.257 1933.66,308.524 1932.24,316.367C1930.5,325.949 1925.34,331.718 1921.43,337.66C1917.01,343.813 1911.06,352.7 1909.14,356.977C1909.14,356.977 1903.09,347.773 1895.22,336.948C1889.96,329.709 1885.75,321.865 1885.36,315.112C1884.91,307.397 1888.08,300.481 1896.85,299.285L1896.85,299.285Z" style="fill:rgb(212,0,0);fill-rule:nonzero;"/>
            </g>
            <g id="path8652" transform="matrix(1,0,0,1,-1536.85,198.15)">
                <path d="M1994.01,424.002C1992.43,427.474 1992.26,433.408 1996.98,434.21C2000.55,434.669 2002,433.012 2002.28,430.468C2002.42,429.725 2002.85,429.68 2002.98,430.527C2003.18,433.136 2005.77,434.659 2007.78,434.277C2013.31,433.331 2012.99,427.248 2011.18,423.121C2008.45,417.642 2005.58,414.183 2002.94,408.669C1999.9,414.41 1996.43,419.074 1994.01,424.002L1994.01,424.002Z" style="fill:rgb(212,0,0);fill-rule:nonzero;"/>
            </g>
            <g id="path8582" transform="matrix(1,0,0,1,-1536.85,198.15)">
                <path d="M1896.78,455.459C1903.93,455.934 1907.65,449.832 1908.38,445.023C1908.81,444.259 1909.05,444.474 1909.22,445.065C1909.57,451.239 1915.09,456.285 1920.21,455.595C1928.54,455.487 1933.6,446.22 1932.17,438.376C1930.44,428.795 1925.28,423.025 1921.37,417.083C1916.94,410.931 1910.99,402.044 1909.08,397.766C1909.08,397.766 1903.03,406.971 1895.16,417.796C1889.9,425.035 1885.69,432.878 1885.29,439.631C1884.85,447.347 1888.01,454.263 1896.78,455.459L1896.78,455.459Z" style="fill:rgb(212,0,0);fill-rule:nonzero;"/>
            </g>
        </g>
    </g>
</svg>
