<?xml version="1.0" encoding="UTF-8" standalone="no"?>
<!DOCTYPE svg PUBLIC "-//W3C//DTD SVG 1.1//EN" "http://www.w3.org/Graphics/SVG/1.1/DTD/svg11.dtd">
<svg width="100%" height="100%" viewBox="0 0 228 316" version="1.1" xmlns="http://www.w3.org/2000/svg" xmlns:xlink="http://www.w3.org/1999/xlink" xml:space="preserve" xmlns:serif="http://www.serif.com/" style="fill-rule:evenodd;clip-rule:evenodd;">
    <g transform="matrix(1,0,0,1,-258.378,-368.221)">
        <g id="_4C" serif:id="4C">
            <g id="rect6353-4" transform="matrix(1,0,0,1,-6443.95,3117.09)">
                <path d="M6927.61,-2736.18C6927.61,-2742.05 6922.85,-2746.81 6916.98,-2746.81L6715.02,-2746.81C6709.15,-2746.81 6704.39,-2742.05 6704.39,-2736.18L6704.39,-2445.63C6704.39,-2439.76 6709.15,-2435 6715.02,-2435L6916.98,-2435C6922.85,-2435 6927.61,-2439.76 6927.61,-2445.63L6927.61,-2736.18Z" style="fill:white;stroke:rgb(191,191,191);stroke-width:1px;"/>
            </g>
            <g id="path7104-3" transform="matrix(0.301062,0,0,0.301062,-820.083,1167.42)">
                <path d="M3650.17,-2493.73L3650.17,-2503.07L3658.76,-2503.07L3658.76,-2518.47L3615.83,-2518.47L3615.83,-2529.34L3662.28,-2599.42L3669.87,-2599.39L3669.87,-2529.34L3683,-2529.34L3683,-2518.47L3669.87,-2518.47L3669.62,-2503.07L3676.82,-2503.07L3676.82,-2493.73L3650.17,-2493.73ZM3658.76,-2573.77L3629.27,-2529.34L3658.76,-2529.34L3658.76,-2573.77Z" style="fill-rule:nonzero;"/>
            </g>
            <g id="path7159-2" transform="matrix(0.301062,0,0,0.301062,-820.083,1167.42)">
                <path d="M4273.16,-1766.09L4273.16,-1756.75L4264.57,-1756.75L4264.57,-1741.35L4307.5,-1741.35L4307.5,-1730.49L4261.05,-1660.41L4253.46,-1660.43L4253.46,-1730.49L4240.33,-1730.49L4240.33,-1741.35L4253.46,-1741.35L4253.71,-1756.75L4246.51,-1756.75L4246.51,-1766.09L4273.16,-1766.09ZM4264.57,-1686.05L4294.06,-1730.49L4264.57,-1730.49L4264.57,-1686.05Z" style="fill-rule:nonzero;"/>
            </g>
            <g id="path3251" transform="matrix(1,0,0,1,-1383.42,92.1351)">
                <path d="M1797.66,361.522C1800.54,355.746 1802.63,349.821 1803.01,343.485C1803.35,341.153 1801.93,341.114 1801.72,342.756C1797.64,358.349 1775.96,354.127 1776.7,339.46C1777.31,327.565 1789.12,325.006 1795.28,328.895C1797.72,330.328 1797.58,329.47 1796.25,327.983C1787.1,317.772 1792.64,304.622 1805.01,304.381C1818.39,305.174 1821.86,319.251 1813.66,327.529C1812.64,328.524 1810.37,331.721 1813.78,329.486C1822.07,323.598 1833.57,329.928 1833.33,339.006C1832.9,355.745 1812.49,356.994 1808.13,343.012C1807.71,341.462 1806.5,340.683 1806.83,343.316C1807.44,348.083 1808.69,355.27 1812.27,361.522L1797.66,361.522Z" style="fill-rule:nonzero;"/>
            </g>
            <g id="path3253" transform="matrix(1,0,0,1,-1383.42,92.1351)">
                <path d="M1698.13,361.522C1701.01,355.746 1703.1,349.821 1703.47,343.485C1703.82,341.153 1702.4,341.114 1702.19,342.756C1698.11,358.349 1676.42,354.127 1677.17,339.46C1677.77,327.565 1689.59,325.006 1695.75,328.895C1698.18,330.328 1698.05,329.47 1696.72,327.983C1687.56,317.772 1693.11,304.622 1705.48,304.381C1718.86,305.174 1722.33,319.251 1714.12,327.529C1713.1,328.524 1710.84,331.721 1714.25,329.486C1722.53,323.598 1734.03,329.928 1733.8,339.006C1733.37,355.745 1712.96,356.994 1708.6,343.012C1708.18,341.462 1706.97,340.683 1707.3,343.316C1707.91,348.083 1709.16,355.27 1712.74,361.522L1698.13,361.522Z" style="fill-rule:nonzero;"/>
            </g>
            <g id="path3401" transform="matrix(1,0,0,1,-1383.42,92.1351)">
                <path d="M1812.36,503.228C1809.48,509.003 1807.38,514.929 1807.01,521.265C1806.67,523.597 1808.09,523.636 1808.3,521.994C1812.38,506.401 1834.06,510.623 1833.32,525.29C1832.71,537.185 1820.9,539.744 1814.74,535.855C1812.3,534.422 1812.44,535.28 1813.77,536.767C1822.92,546.978 1817.38,560.128 1805.01,560.369C1791.63,559.576 1788.15,545.499 1796.36,537.221C1797.38,536.226 1799.64,533.029 1796.24,535.264C1787.95,541.152 1776.45,534.822 1776.69,525.744C1777.12,509.005 1797.53,507.756 1801.89,521.738C1802.31,523.288 1803.52,524.066 1803.18,521.434C1802.58,516.667 1801.33,509.48 1797.75,503.228L1812.36,503.228Z" style="fill-rule:nonzero;"/>
            </g>
            <g id="path3403" transform="matrix(1,0,0,1,-1383.42,92.1351)">
                <path d="M1712.83,503.228C1709.95,509.003 1707.85,514.929 1707.48,521.265C1707.14,523.597 1708.55,523.636 1708.77,521.994C1712.84,506.401 1734.53,510.623 1733.79,525.29C1733.18,537.185 1721.37,539.744 1715.2,535.855C1712.77,534.422 1712.91,535.28 1714.24,536.767C1723.39,546.978 1717.85,560.128 1705.47,560.369C1692.09,559.576 1688.62,545.499 1696.83,537.221C1697.85,536.226 1700.11,533.029 1696.71,535.264C1688.42,541.152 1676.92,534.822 1677.15,525.744C1677.59,509.005 1697.99,507.756 1702.36,521.738C1702.78,523.288 1703.99,524.066 1703.65,521.434C1703.05,516.667 1701.8,509.48 1698.21,503.228L1712.83,503.228Z" style="fill-rule:nonzero;"/>
            </g>
            <g id="path3458" transform="matrix(1,0,0,1,-1383.42,92.1351)">
                <path d="M1657.81,353.563C1659.01,351.117 1660.17,348.842 1660.8,346.162C1661.22,343.634 1660.36,344.573 1659.87,346.23C1659.15,348.527 1657.15,349.574 1655.29,349.599C1651.92,349.644 1650.24,346.994 1650.35,344.145C1649.98,341.146 1653.02,339.025 1655.31,339.188C1657.03,339.311 1658.53,340.24 1659.44,340.963C1660.04,341.278 1660.67,341.418 1659.78,340.605C1658.11,338.772 1656.71,337.641 1656.74,334.894C1656.77,332.315 1658.97,329.626 1661.89,329.71C1665.55,329.816 1667.21,332.6 1667.2,335.191C1667.19,337.079 1666.24,338.817 1664.79,339.893C1663.84,340.659 1664.11,341.233 1665.18,340.508C1666.22,339.616 1667.45,339.226 1668.73,339.198C1672.22,339.144 1673.58,342.16 1673.38,344.962C1673.2,347.588 1670.96,350.291 1668.01,349.985C1665.38,349.683 1664,347.475 1663.21,345.208C1662.95,344.513 1662.53,344.325 1662.55,345.361C1663.15,350.418 1665.04,353.565 1665.05,353.562L1657.81,353.563Z" style="fill-rule:nonzero;"/>
            </g>
            <g id="path3482" transform="matrix(1,0,0,1,-1383.42,92.1351)">
                <path d="M1853.12,514.821C1851.93,517.266 1850.77,519.541 1850.14,522.222C1849.72,524.749 1850.58,523.81 1851.06,522.153C1851.78,519.856 1853.79,518.81 1855.64,518.784C1859.01,518.739 1860.69,521.389 1860.59,524.238C1860.96,527.237 1857.92,529.359 1855.63,529.195C1853.91,529.072 1852.4,528.143 1851.5,527.42C1850.9,527.105 1850.26,526.965 1851.15,527.778C1852.83,529.611 1854.23,530.743 1854.2,533.489C1854.17,536.068 1851.96,538.757 1849.04,538.673C1845.39,538.568 1843.73,535.783 1843.74,533.192C1843.75,531.304 1844.69,529.566 1846.15,528.49C1847.09,527.724 1846.83,527.15 1845.75,527.875C1844.72,528.767 1843.49,529.158 1842.21,529.185C1838.72,529.24 1837.35,526.223 1837.55,523.421C1837.74,520.795 1839.98,518.092 1842.92,518.398C1845.55,518.7 1846.93,520.908 1847.73,523.175C1847.99,523.87 1848.4,524.058 1848.39,523.022C1847.78,517.965 1845.9,514.818 1845.88,514.821L1853.12,514.821Z" style="fill-rule:nonzero;"/>
            </g>
        </g>
    </g>
</svg>
