<?xml version="1.0" encoding="UTF-8" standalone="no"?>
<!DOCTYPE svg PUBLIC "-//W3C//DTD SVG 1.1//EN" "http://www.w3.org/Graphics/SVG/1.1/DTD/svg11.dtd">
<svg width="100%" height="100%" viewBox="0 0 228 316" version="1.1" xmlns="http://www.w3.org/2000/svg" xmlns:xlink="http://www.w3.org/1999/xlink" xml:space="preserve" xmlns:serif="http://www.serif.com/" style="fill-rule:evenodd;clip-rule:evenodd;">
    <g transform="matrix(1,0,0,1,-258.378,-368.221)">
        <g id="_4H" serif:id="4H">
            <g id="rect6353" transform="matrix(1,0,0,1,-6443.95,3117.09)">
                <path d="M6927.61,-2736.18C6927.61,-2742.05 6922.85,-2746.81 6916.98,-2746.81L6715.02,-2746.81C6709.15,-2746.81 6704.39,-2742.05 6704.39,-2736.18L6704.39,-2445.63C6704.39,-2439.76 6709.15,-2435 6715.02,-2435L6916.98,-2435C6922.85,-2435 6927.61,-2439.76 6927.61,-2445.63L6927.61,-2736.18Z" style="fill:white;stroke:rgb(191,191,191);stroke-width:1px;"/>
            </g>
            <g id="path7104" transform="matrix(0.301062,0,0,0.301062,-820.66,1167.42)">
                <path d="M3650.17,-2493.73L3650.17,-2503.07L3658.76,-2503.07L3658.76,-2518.47L3615.83,-2518.47L3615.83,-2529.34L3662.28,-2599.42L3669.87,-2599.39L3669.87,-2529.34L3683,-2529.34L3683,-2518.47L3669.87,-2518.47L3669.62,-2503.07L3676.82,-2503.07L3676.82,-2493.73L3650.17,-2493.73ZM3658.76,-2573.77L3629.27,-2529.34L3658.76,-2529.34L3658.76,-2573.77Z" style="fill:rgb(212,0,0);fill-rule:nonzero;"/>
            </g>
            <g id="path7159" transform="matrix(0.301062,0,0,0.301062,-820.66,1167.42)">
                <path d="M4273.16,-1766.09L4273.16,-1756.75L4264.57,-1756.75L4264.57,-1741.35L4307.5,-1741.35L4307.5,-1730.49L4261.05,-1660.41L4253.46,-1660.43L4253.46,-1730.49L4240.33,-1730.49L4240.33,-1741.35L4253.46,-1741.35L4253.71,-1756.75L4246.51,-1756.75L4246.51,-1766.09L4273.16,-1766.09ZM4264.57,-1686.05L4294.06,-1730.49L4264.57,-1730.49L4264.57,-1686.05Z" style="fill:rgb(212,0,0);fill-rule:nonzero;"/>
            </g>
            <g id="path8638" transform="matrix(1,0,0,1,-1760.08,198.15)">
                <path d="M2029.27,233.121C2027.68,229.648 2027.51,223.715 2032.24,222.913C2035.8,222.454 2037.25,224.111 2037.54,226.654C2037.68,227.397 2038.1,227.443 2038.23,226.596C2038.44,223.987 2041.02,222.464 2043.04,222.846C2048.57,223.792 2048.24,229.875 2046.44,234.002C2043.71,239.481 2040.84,242.939 2038.19,248.454C2035.15,242.713 2031.68,238.048 2029.27,233.121L2029.27,233.121Z" style="fill:rgb(212,0,0);fill-rule:nonzero;"/>
            </g>
            <g id="path8520" transform="matrix(1,0,0,1,-1760.08,198.15)">
                <path d="M2065.51,198.19C2072.65,197.716 2076.38,203.817 2077.1,208.627C2077.54,209.39 2077.77,209.175 2077.94,208.584C2078.29,202.41 2083.82,197.364 2088.93,198.054C2097.26,198.162 2102.32,207.429 2100.9,215.273C2099.16,224.854 2094,230.624 2090.09,236.566C2085.67,242.718 2079.72,251.605 2077.8,255.883C2077.8,255.883 2071.75,246.678 2063.88,235.853C2058.62,228.615 2054.41,220.771 2054.02,214.018C2053.57,206.302 2056.74,199.386 2065.51,198.19L2065.51,198.19Z" style="fill:rgb(212,0,0);fill-rule:nonzero;"/>
            </g>
            <g id="path8522" transform="matrix(1,0,0,1,-1760.08,198.15)">
                <path d="M2175.04,198.19C2182.18,197.716 2185.91,203.817 2186.64,208.627C2187.07,209.39 2187.31,209.175 2187.47,208.584C2187.82,202.41 2193.35,197.364 2198.47,198.054C2206.79,198.162 2211.86,207.429 2210.43,215.273C2208.69,224.854 2203.53,230.624 2199.62,236.566C2195.2,242.718 2189.25,251.605 2187.33,255.883C2187.33,255.883 2181.28,246.678 2173.42,235.853C2168.16,228.615 2163.94,220.771 2163.55,214.018C2163.1,206.302 2166.27,199.386 2175.04,198.19L2175.04,198.19Z" style="fill:rgb(212,0,0);fill-rule:nonzero;"/>
            </g>
            <g id="path8584" transform="matrix(1,0,0,1,-1760.08,198.15)">
                <path d="M2065.51,454.53C2072.65,455.005 2076.38,448.903 2077.1,444.094C2077.54,443.33 2077.77,443.545 2077.94,444.136C2078.29,450.31 2083.82,455.356 2088.93,454.666C2097.26,454.558 2102.32,445.291 2100.9,437.448C2099.16,427.866 2094,422.097 2090.09,416.155C2085.67,410.002 2079.72,401.115 2077.8,396.838C2077.8,396.838 2071.75,406.042 2063.88,416.867C2058.62,424.106 2054.41,431.95 2054.02,438.703C2053.57,446.418 2056.74,453.334 2065.51,454.53L2065.51,454.53Z" style="fill:rgb(212,0,0);fill-rule:nonzero;"/>
            </g>
            <g id="path8586" transform="matrix(1,0,0,1,-1760.08,198.15)">
                <path d="M2175.04,454.53C2182.18,455.005 2185.91,448.903 2186.64,444.094C2187.07,443.33 2187.31,443.545 2187.47,444.136C2187.82,450.31 2193.35,455.356 2198.47,454.666C2206.79,454.558 2211.86,445.291 2210.43,437.448C2208.69,427.866 2203.53,422.097 2199.62,416.155C2195.2,410.002 2189.25,401.115 2187.33,396.838C2187.33,396.838 2181.28,406.042 2173.42,416.867C2168.16,424.106 2163.94,431.95 2163.55,438.703C2163.1,446.418 2166.27,453.334 2175.04,454.53L2175.04,454.53Z" style="fill:rgb(212,0,0);fill-rule:nonzero;"/>
            </g>
            <g id="path8654" transform="matrix(1,0,0,1,-1760.08,198.15)">
                <path d="M2216.49,423.233C2214.9,426.705 2214.73,432.639 2219.46,433.441C2223.02,433.9 2224.47,432.243 2224.76,429.699C2224.9,428.956 2225.32,428.911 2225.45,429.758C2225.66,432.367 2228.24,433.89 2230.26,433.508C2235.78,432.562 2235.46,426.479 2233.66,422.352C2230.93,416.873 2228.05,413.414 2225.41,407.9C2222.37,413.641 2218.9,418.305 2216.49,423.233L2216.49,423.233Z" style="fill:rgb(212,0,0);fill-rule:nonzero;"/>
            </g>
        </g>
    </g>
</svg>
