<?xml version="1.0" encoding="UTF-8" standalone="no"?>
<!DOCTYPE svg PUBLIC "-//W3C//DTD SVG 1.1//EN" "http://www.w3.org/Graphics/SVG/1.1/DTD/svg11.dtd">
<svg width="100%" height="100%" viewBox="0 0 228 316" version="1.1" xmlns="http://www.w3.org/2000/svg" xmlns:xlink="http://www.w3.org/1999/xlink" xml:space="preserve" xmlns:serif="http://www.serif.com/" style="fill-rule:evenodd;clip-rule:evenodd;">
    <g transform="matrix(1,0,0,1,-258.378,-368.221)">
        <g id="_5C" serif:id="5C">
            <g id="rect6355-5" transform="matrix(1,0,0,1,-6667.18,3117.09)">
                <path d="M7150.84,-2736.18C7150.84,-2742.05 7146.08,-2746.81 7140.21,-2746.81L6938.24,-2746.81C6932.38,-2746.81 6927.61,-2742.05 6927.61,-2736.18L6927.61,-2445.63C6927.61,-2439.76 6932.38,-2435 6938.24,-2435L7140.21,-2435C7146.08,-2435 7150.84,-2439.76 7150.84,-2445.63L7150.84,-2736.18Z" style="fill:white;stroke:rgb(191,191,191);stroke-width:1px;"/>
            </g>
            <g id="path7106-7" transform="matrix(0.301062,0,0,0.301062,-1104.52,1169.27)">
                <path d="M4561.23,-2529.25L4571.92,-2529.34C4573.96,-2522.89 4578.47,-2516.3 4584.6,-2514.49C4601.91,-2510.42 4613.06,-2520.09 4616.73,-2531.25C4621.18,-2544.78 4616.63,-2563.78 4604.71,-2570.53C4594.83,-2576.13 4580.15,-2571.41 4573.42,-2559.45L4565.92,-2564.03L4569.94,-2608.61L4618.87,-2608.61L4618.87,-2598.07L4579.22,-2598.07L4578.6,-2579.5C4587.12,-2585.49 4600.25,-2585.43 4608.78,-2581.23C4624.93,-2573.53 4632.44,-2556.01 4629.29,-2535.36C4624.94,-2514.82 4615.35,-2503.18 4593.69,-2501.51C4569.63,-2501.3 4561.13,-2517.85 4561.23,-2529.25L4561.23,-2529.25Z" style="fill-rule:nonzero;"/>
            </g>
            <g id="path7122-6" transform="matrix(0.301062,0,0,0.301062,-1104.52,1169.27)">
                <path d="M5248.36,-1742.91L5237.66,-1742.82C5235.63,-1749.28 5231.11,-1755.86 5224.99,-1757.68C5207.68,-1761.75 5196.53,-1752.08 5192.86,-1740.92C5188.41,-1727.39 5192.96,-1708.38 5204.87,-1701.63C5214.76,-1696.03 5229.44,-1700.75 5236.17,-1712.72L5243.67,-1708.14L5239.64,-1663.56L5190.72,-1663.56L5190.72,-1674.09L5230.37,-1674.09L5230.99,-1692.66C5222.47,-1686.68 5209.34,-1686.74 5200.81,-1690.94C5184.65,-1698.64 5177.15,-1716.15 5180.29,-1736.81C5184.65,-1757.35 5194.23,-1768.98 5215.89,-1770.65C5239.96,-1770.86 5248.46,-1754.32 5248.36,-1742.92L5248.36,-1742.91Z" style="fill-rule:nonzero;"/>
            </g>
            <g id="path3245" transform="matrix(1,0,0,1,-1607.15,92.1351)">
                <path d="M1971.85,462.642C1974.73,456.867 1976.83,450.941 1977.2,444.605C1977.54,442.273 1976.12,442.234 1975.91,443.876C1971.83,459.469 1950.15,455.247 1950.89,440.58C1951.5,428.685 1963.31,426.126 1969.48,430.015C1971.91,431.448 1971.77,430.59 1970.44,429.103C1961.29,418.892 1966.83,405.742 1979.21,405.501C1992.59,406.294 1996.06,420.371 1987.85,428.649C1986.83,429.644 1984.57,432.841 1987.97,430.606C1996.26,424.718 2007.76,431.048 2007.53,440.126C2007.09,456.865 1986.69,458.114 1982.32,444.132C1981.9,442.582 1980.69,441.803 1981.03,444.436C1981.63,449.203 1982.88,456.39 1986.46,462.642L1971.85,462.642Z" style="fill-rule:nonzero;"/>
            </g>
            <g id="path3247" transform="matrix(1,0,0,1,-1607.15,92.1351)">
                <path d="M2021.09,363.38C2023.97,357.604 2026.07,351.679 2026.44,345.343C2026.78,343.011 2025.37,342.972 2025.15,344.614C2021.08,360.207 1999.39,355.984 2000.14,341.317C2000.74,329.423 2012.56,326.864 2018.72,330.753C2021.15,332.186 2021.02,331.327 2019.69,329.841C2010.53,319.63 2016.08,306.479 2028.45,306.239C2041.83,307.032 2045.3,321.109 2037.09,329.387C2036.07,330.382 2033.81,333.578 2037.22,331.343C2045.5,325.455 2057,331.786 2056.77,340.864C2056.34,357.603 2035.93,358.851 2031.57,344.87C2031.14,343.32 2029.93,342.541 2030.27,345.174C2030.87,349.941 2032.13,357.128 2035.71,363.38L2021.09,363.38Z" style="fill-rule:nonzero;"/>
            </g>
            <g id="path3249" transform="matrix(1,0,0,1,-1607.15,92.1351)">
                <path d="M1922.41,363.38C1925.29,357.604 1927.39,351.679 1927.76,345.343C1928.1,343.011 1926.69,342.972 1926.47,344.614C1922.4,360.207 1900.71,355.984 1901.45,341.317C1902.06,329.423 1913.88,326.864 1920.04,330.753C1922.47,332.186 1922.33,331.327 1921.01,329.841C1911.85,319.63 1917.39,306.479 1929.77,306.239C1943.15,307.032 1946.62,321.109 1938.41,329.387C1937.39,330.382 1935.13,333.578 1938.53,331.343C1946.82,325.455 1958.32,331.786 1958.09,340.864C1957.65,357.603 1937.25,358.851 1932.88,344.87C1932.46,343.32 1931.25,342.541 1931.59,345.174C1932.19,349.941 1933.44,357.128 1937.03,363.38L1922.41,363.38Z" style="fill-rule:nonzero;"/>
            </g>
            <g id="path3397" transform="matrix(1,0,0,1,-1607.15,92.1351)">
                <path d="M2035.8,502.89C2032.92,508.666 2030.82,514.591 2030.45,520.927C2030.11,523.259 2031.52,523.298 2031.74,521.656C2035.81,506.063 2057.5,510.286 2056.75,524.952C2056.15,536.847 2044.33,539.406 2038.17,535.517C2035.74,534.084 2035.87,534.942 2037.2,536.429C2046.36,546.64 2040.81,559.791 2028.44,560.031C2015.06,559.238 2011.59,545.161 2019.8,536.883C2020.82,535.888 2023.08,532.692 2019.67,534.927C2011.39,540.815 1999.89,534.484 2000.12,525.406C2000.55,508.667 2020.96,507.419 2025.32,521.4C2025.74,522.95 2026.95,523.729 2026.62,521.096C2026.02,516.329 2024.76,509.142 2021.18,502.89L2035.8,502.89Z" style="fill-rule:nonzero;"/>
            </g>
            <g id="path3399" transform="matrix(1,0,0,1,-1607.15,92.1351)">
                <path d="M1937.11,502.89C1934.24,508.666 1932.14,514.591 1931.77,520.927C1931.42,523.259 1932.84,523.298 1933.05,521.656C1937.13,506.063 1958.82,510.286 1958.07,524.952C1957.47,536.847 1945.65,539.406 1939.49,535.517C1937.06,534.084 1937.19,534.942 1938.52,536.429C1947.68,546.64 1942.13,559.791 1929.76,560.031C1916.38,559.238 1912.91,545.161 1921.12,536.883C1922.14,535.888 1924.4,532.692 1920.99,534.927C1912.71,540.815 1901.2,534.484 1901.44,525.406C1901.87,508.667 1922.28,507.419 1926.64,521.4C1927.06,522.95 1928.27,523.729 1927.94,521.096C1927.33,516.329 1926.08,509.142 1922.5,502.89L1937.11,502.89Z" style="fill-rule:nonzero;"/>
            </g>
            <g id="path3460" transform="matrix(1,0,0,1,-1607.15,92.1351)">
                <path d="M1881.8,353.165C1882.99,350.72 1884.15,348.444 1884.78,345.764C1885.2,343.236 1884.34,344.175 1883.86,345.832C1883.14,348.13 1881.13,349.176 1879.28,349.201C1875.91,349.247 1874.22,346.597 1874.33,343.747C1873.96,340.749 1877,338.627 1879.29,338.79C1881.01,338.913 1882.52,339.842 1883.42,340.565C1884.02,340.881 1884.66,341.02 1883.77,340.207C1882.09,338.374 1880.69,337.243 1880.72,334.496C1880.75,331.917 1882.96,329.228 1885.88,329.312C1889.53,329.418 1891.19,332.203 1891.18,334.793C1891.17,336.681 1890.23,338.419 1888.77,339.496C1887.83,340.262 1888.09,340.835 1889.17,340.11C1890.2,339.218 1891.43,338.828 1892.71,338.801C1896.2,338.746 1897.57,341.762 1897.37,344.565C1897.18,347.19 1894.94,349.893 1892,349.587C1889.37,349.285 1887.99,347.077 1887.19,344.81C1886.93,344.115 1886.52,343.927 1886.53,344.963C1887.14,350.021 1889.02,353.168 1889.03,353.165L1881.8,353.165Z" style="fill-rule:nonzero;"/>
            </g>
            <g id="path3480" transform="matrix(1,0,0,1,-1607.15,92.1351)">
                <path d="M2076.6,515.168C2075.4,517.613 2074.24,519.889 2073.61,522.569C2073.19,525.097 2074.05,524.158 2074.54,522.501C2075.26,520.203 2077.26,519.157 2079.12,519.132C2082.49,519.086 2084.17,521.736 2084.06,524.586C2084.43,527.584 2081.39,529.706 2079.1,529.543C2077.38,529.42 2075.88,528.491 2074.97,527.767C2074.37,527.452 2073.74,527.313 2074.62,528.126C2076.3,529.959 2077.7,531.09 2077.67,533.837C2077.64,536.415 2075.44,539.105 2072.51,539.021C2068.86,538.915 2067.2,536.13 2067.21,533.54C2067.22,531.652 2068.16,529.914 2069.62,528.837C2070.57,528.071 2070.3,527.498 2069.22,528.222C2068.19,529.115 2066.96,529.505 2065.68,529.532C2062.19,529.587 2060.82,526.571 2061.03,523.768C2061.21,521.143 2063.45,518.44 2066.39,518.746C2069.03,519.047 2070.41,521.256 2071.2,523.523C2071.46,524.218 2071.88,524.406 2071.86,523.37C2071.26,518.312 2069.37,515.165 2069.36,515.168L2076.6,515.168Z" style="fill-rule:nonzero;"/>
            </g>
        </g>
    </g>
</svg>
