<?xml version="1.0" encoding="UTF-8" standalone="no"?>
<!DOCTYPE svg PUBLIC "-//W3C//DTD SVG 1.1//EN" "http://www.w3.org/Graphics/SVG/1.1/DTD/svg11.dtd">
<svg width="100%" height="100%" viewBox="0 0 228 316" version="1.1" xmlns="http://www.w3.org/2000/svg" xmlns:xlink="http://www.w3.org/1999/xlink" xml:space="preserve" xmlns:serif="http://www.serif.com/" style="fill-rule:evenodd;clip-rule:evenodd;">
    <g transform="matrix(1,0,0,1,-258.378,-368.221)">
        <g id="_5H" serif:id="5H">
            <g id="rect6355" transform="matrix(1,0,0,1,-6667.18,3117.09)">
                <path d="M7150.84,-2736.18C7150.84,-2742.05 7146.08,-2746.81 7140.21,-2746.81L6938.24,-2746.81C6932.38,-2746.81 6927.61,-2742.05 6927.61,-2736.18L6927.61,-2445.63C6927.61,-2439.76 6932.38,-2435 6938.24,-2435L7140.21,-2435C7146.08,-2435 7150.84,-2439.76 7150.84,-2445.63L7150.84,-2736.18Z" style="fill:white;stroke:rgb(191,191,191);stroke-width:1px;"/>
            </g>
            <g id="path7106" transform="matrix(0.301062,0,0,0.301062,-1104.6,1169.27)">
                <path d="M4561.23,-2529.25L4571.92,-2529.34C4573.96,-2522.89 4578.47,-2516.3 4584.6,-2514.49C4601.91,-2510.42 4613.06,-2520.09 4616.73,-2531.25C4621.18,-2544.78 4616.63,-2563.78 4604.71,-2570.53C4594.83,-2576.13 4580.15,-2571.41 4573.42,-2559.45L4565.92,-2564.03L4569.94,-2608.61L4618.87,-2608.61L4618.87,-2598.07L4579.22,-2598.07L4578.6,-2579.5C4587.12,-2585.49 4600.25,-2585.43 4608.78,-2581.23C4624.93,-2573.53 4632.44,-2556.01 4629.29,-2535.36C4624.94,-2514.82 4615.35,-2503.18 4593.69,-2501.51C4569.63,-2501.3 4561.13,-2517.85 4561.23,-2529.25L4561.23,-2529.25Z" style="fill:rgb(212,0,0);fill-rule:nonzero;"/>
            </g>
            <g id="path7122" transform="matrix(0.301062,0,0,0.301062,-1104.6,1169.27)">
                <path d="M5248.36,-1742.91L5237.66,-1742.82C5235.63,-1749.28 5231.11,-1755.86 5224.99,-1757.68C5207.68,-1761.75 5196.53,-1752.08 5192.86,-1740.92C5188.41,-1727.39 5192.96,-1708.38 5204.87,-1701.63C5214.76,-1696.03 5229.44,-1700.75 5236.17,-1712.72L5243.67,-1708.14L5239.64,-1663.56L5190.72,-1663.56L5190.72,-1674.09L5230.37,-1674.09L5230.99,-1692.66C5222.47,-1686.68 5209.34,-1686.74 5200.81,-1690.94C5184.65,-1698.64 5177.15,-1716.15 5180.29,-1736.81C5184.65,-1757.35 5194.23,-1768.98 5215.89,-1770.65C5239.96,-1770.86 5248.46,-1754.32 5248.36,-1742.92L5248.36,-1742.91Z" style="fill:rgb(212,0,0);fill-rule:nonzero;"/>
            </g>
            <g id="path8640" transform="matrix(1,0,0,1,-1983.31,198.15)">
                <path d="M2253.25,232.723C2251.67,229.251 2251.49,223.318 2256.22,222.515C2259.78,222.056 2261.23,223.713 2261.52,226.257C2261.66,227 2262.08,227.045 2262.22,226.198C2262.42,223.589 2265,222.066 2267.02,222.449C2272.55,223.394 2272.23,229.477 2270.42,233.604C2267.69,239.083 2264.82,242.542 2262.18,248.056C2259.14,242.315 2255.67,237.651 2253.25,232.723L2253.25,232.723Z" style="fill:rgb(212,0,0);fill-rule:nonzero;"/>
            </g>
            <g id="path8524" transform="matrix(1,0,0,1,-1983.31,198.15)">
                <path d="M2287.79,200.048C2294.94,199.573 2298.66,205.675 2299.39,210.484C2299.82,211.248 2300.06,211.033 2300.23,210.442C2300.58,204.268 2306.1,199.222 2311.22,199.912C2319.55,200.02 2324.61,209.287 2323.18,217.131C2321.45,226.712 2316.29,232.482 2312.38,238.424C2307.96,244.576 2302.01,253.463 2300.09,257.741C2300.09,257.741 2294.04,248.536 2286.17,237.711C2280.91,230.472 2276.7,222.629 2276.3,215.876C2275.86,208.16 2279.03,201.244 2287.79,200.048L2287.79,200.048Z" style="fill:rgb(212,0,0);fill-rule:nonzero;"/>
            </g>
            <g id="path8526" transform="matrix(1,0,0,1,-1983.31,198.15)">
                <path d="M2398.48,200.048C2405.62,199.573 2409.34,205.675 2410.07,210.484C2410.5,211.248 2410.74,211.033 2410.91,210.442C2411.26,204.268 2416.78,199.222 2421.9,199.912C2430.23,200.02 2435.29,209.287 2433.87,217.131C2432.13,226.712 2426.97,232.482 2423.06,238.424C2418.64,244.576 2412.69,253.463 2410.77,257.741C2410.77,257.741 2404.72,248.536 2396.85,237.711C2391.59,230.472 2387.38,222.629 2386.99,215.876C2386.54,208.16 2389.71,201.244 2398.48,200.048L2398.48,200.048Z" style="fill:rgb(212,0,0);fill-rule:nonzero;"/>
            </g>
            <g id="path8528" transform="matrix(1,0,0,1,-1983.31,198.15)">
                <path d="M2343.3,299.285C2350.45,298.81 2354.17,304.912 2354.9,309.721C2355.33,310.485 2355.57,310.27 2355.74,309.679C2356.09,303.505 2361.61,298.459 2366.73,299.149C2375.06,299.257 2380.12,308.524 2378.69,316.367C2376.96,325.949 2371.8,331.718 2367.89,337.66C2363.47,343.813 2357.51,352.7 2355.6,356.977C2355.6,356.977 2349.55,347.773 2341.68,336.948C2336.42,329.709 2332.21,321.865 2331.81,315.112C2331.37,307.397 2334.53,300.481 2343.3,299.285L2343.3,299.285Z" style="fill:rgb(212,0,0);fill-rule:nonzero;"/>
            </g>
            <g id="path8588" transform="matrix(1,0,0,1,-1983.31,198.15)">
                <path d="M2287.79,454.193C2294.94,454.667 2298.66,448.565 2299.39,443.756C2299.82,442.992 2300.06,443.208 2300.23,443.798C2300.58,449.973 2306.1,455.019 2311.22,454.329C2319.55,454.22 2324.61,444.953 2323.18,437.11C2321.45,427.528 2316.29,421.759 2312.38,415.817C2307.96,409.664 2302.01,400.777 2300.09,396.5C2300.09,396.5 2294.04,405.704 2286.17,416.53C2280.91,423.768 2276.7,431.612 2276.3,438.365C2275.86,446.08 2279.03,452.997 2287.79,454.193L2287.79,454.193Z" style="fill:rgb(212,0,0);fill-rule:nonzero;"/>
            </g>
            <g id="path8590" transform="matrix(1,0,0,1,-1983.31,198.15)">
                <path d="M2398.48,454.193C2405.62,454.667 2409.34,448.565 2410.07,443.756C2410.5,442.992 2410.74,443.208 2410.91,443.798C2411.26,449.973 2416.78,455.019 2421.9,454.329C2430.23,454.22 2435.29,444.953 2433.87,437.11C2432.13,427.528 2426.97,421.759 2423.06,415.817C2418.64,409.664 2412.69,400.777 2410.77,396.5C2410.77,396.5 2404.72,405.704 2396.85,416.53C2391.59,423.768 2387.38,431.612 2386.99,438.365C2386.54,446.08 2389.71,452.997 2398.48,454.193L2398.48,454.193Z" style="fill:rgb(212,0,0);fill-rule:nonzero;"/>
            </g>
            <g id="path8656" transform="matrix(1,0,0,1,-1983.31,198.15)">
                <path d="M2439.96,423.581C2438.38,427.053 2438.2,432.986 2442.93,433.789C2446.49,434.247 2447.94,432.59 2448.23,430.047C2448.37,429.304 2448.79,429.258 2448.92,430.105C2449.13,432.714 2451.71,434.238 2453.73,433.855C2459.26,432.91 2458.93,426.827 2457.13,422.699C2454.4,417.22 2451.53,413.762 2448.88,408.248C2445.85,413.989 2442.38,418.653 2439.96,423.581L2439.96,423.581Z" style="fill:rgb(212,0,0);fill-rule:nonzero;"/>
            </g>
        </g>
    </g>
</svg>
