<?xml version="1.0" encoding="UTF-8" standalone="no"?>
<!DOCTYPE svg PUBLIC "-//W3C//DTD SVG 1.1//EN" "http://www.w3.org/Graphics/SVG/1.1/DTD/svg11.dtd">
<svg width="100%" height="100%" viewBox="0 0 228 316" version="1.1" xmlns="http://www.w3.org/2000/svg" xmlns:xlink="http://www.w3.org/1999/xlink" xml:space="preserve" xmlns:serif="http://www.serif.com/" style="fill-rule:evenodd;clip-rule:evenodd;">
    <g transform="matrix(1,0,0,1,-258.378,-368.221)">
        <g id="_6D" serif:id="6D">
            <g id="rect6357-41" transform="matrix(1,0,0,1,-6890.41,3117.09)">
                <path d="M7374.07,-2736.18C7374.07,-2742.05 7369.31,-2746.81 7363.44,-2746.81L7161.47,-2746.81C7155.61,-2746.81 7150.84,-2742.05 7150.84,-2736.18L7150.84,-2445.63C7150.84,-2439.76 7155.61,-2435 7161.47,-2435L7363.44,-2435C7369.31,-2435 7374.07,-2439.76 7374.07,-2445.63L7374.07,-2736.18Z" style="fill:white;stroke:rgb(191,191,191);stroke-width:1px;"/>
            </g>
            <g id="path3429" transform="matrix(0.301062,0,0,0.301062,-61.1327,821.807)">
                <path d="M1180.25,-1309.32C1213.2,-1341.48 1234.84,-1376.54 1255.54,-1410.26C1273.69,-1373.16 1299.73,-1340.7 1327.9,-1309.32C1297.76,-1278.2 1274.41,-1244.93 1255.63,-1209.95C1234.81,-1245.8 1212.89,-1278.28 1180.25,-1309.32Z" style="fill:rgb(212,0,0);fill-rule:nonzero;"/>
            </g>
            <g id="path3431" transform="matrix(0.301062,0,0,0.301062,-61.1327,821.807)">
                <path d="M1180.25,-980.837C1213.2,-1013 1234.84,-1048.06 1255.54,-1081.78C1273.69,-1044.67 1299.73,-1012.22 1327.9,-980.837C1297.76,-949.719 1274.41,-916.444 1255.63,-881.463C1234.81,-917.322 1212.89,-949.793 1180.25,-980.837Z" style="fill:rgb(212,0,0);fill-rule:nonzero;"/>
            </g>
            <g id="path3433" transform="matrix(0.301062,0,0,0.301062,-61.1327,821.807)">
                <path d="M1180.25,-653.334C1213.2,-685.492 1234.84,-720.554 1255.54,-754.274C1273.69,-717.171 1299.73,-684.712 1327.9,-653.334C1297.76,-622.216 1274.41,-588.941 1255.63,-553.96C1234.81,-589.819 1212.89,-622.29 1180.25,-653.334Z" style="fill:rgb(212,0,0);fill-rule:nonzero;"/>
            </g>
            <g id="path3439" transform="matrix(0.301062,0,0,0.301062,-61.1327,821.807)">
                <path d="M1550.71,-1309.32C1583.66,-1341.48 1605.3,-1376.54 1626,-1410.26C1644.15,-1373.16 1670.2,-1340.7 1698.37,-1309.32C1668.23,-1278.2 1644.87,-1244.93 1626.09,-1209.95C1605.27,-1245.8 1583.36,-1278.28 1550.71,-1309.32Z" style="fill:rgb(212,0,0);fill-rule:nonzero;"/>
            </g>
            <g id="path3441" transform="matrix(0.301062,0,0,0.301062,-61.1327,821.807)">
                <path d="M1550.71,-980.837C1583.66,-1013 1605.3,-1048.06 1626,-1081.78C1644.15,-1044.67 1670.2,-1012.22 1698.37,-980.837C1668.23,-949.719 1644.87,-916.444 1626.09,-881.463C1605.27,-917.322 1583.36,-949.793 1550.71,-980.837Z" style="fill:rgb(212,0,0);fill-rule:nonzero;"/>
            </g>
            <g id="path3443" transform="matrix(0.301062,0,0,0.301062,-61.1327,821.807)">
                <path d="M1550.71,-653.334C1583.66,-685.492 1605.3,-720.554 1626,-754.274C1644.15,-717.171 1670.2,-684.712 1698.37,-653.334C1668.23,-622.216 1644.87,-588.941 1626.09,-553.96C1605.27,-589.819 1583.36,-622.29 1550.71,-653.334Z" style="fill:rgb(212,0,0);fill-rule:nonzero;"/>
            </g>
            <g id="path3722" transform="matrix(0.301062,0,0,0.301062,-61.1327,821.807)">
                <path d="M1722.56,-676.617C1736.06,-689.79 1744.93,-704.153 1753.41,-717.965C1760.84,-702.767 1771.51,-689.47 1783.05,-676.617C1770.7,-663.869 1761.14,-650.238 1753.44,-635.909C1744.91,-650.598 1735.94,-663.9 1722.56,-676.617Z" style="fill:rgb(212,0,0);fill-rule:nonzero;"/>
            </g>
            <g id="path3724" transform="matrix(0.301062,0,0,0.301062,-61.1327,821.807)">
                <path d="M1095.4,-1293.96C1108.9,-1307.13 1117.76,-1321.49 1126.24,-1335.31C1133.68,-1320.11 1144.35,-1306.81 1155.89,-1293.96C1143.54,-1281.21 1133.97,-1267.58 1126.28,-1253.25C1117.75,-1267.94 1108.77,-1281.24 1095.4,-1293.96Z" style="fill:rgb(212,0,0);fill-rule:nonzero;"/>
            </g>
            <g id="path7108-3" transform="matrix(0.301062,0,0,0.301062,-61.1327,821.807)">
                <path d="M1095.47,-1380.22C1094.12,-1389.34 1094.14,-1412.92 1095.25,-1419.88C1098.67,-1441.24 1106.99,-1451 1120.91,-1454.21C1134.42,-1457.31 1153.42,-1453.85 1157.59,-1436L1146.28,-1435.79C1140.16,-1447.86 1124.7,-1444.63 1116,-1439.38C1109.04,-1435.19 1105.9,-1417.73 1107.25,-1416.65C1107.24,-1416.65 1120.39,-1426.21 1130.75,-1425.5C1152.9,-1423.24 1162.03,-1404.39 1161.26,-1386.58C1160.56,-1365.16 1153.64,-1348.04 1130.16,-1346.9C1107.85,-1347.74 1097.62,-1359.69 1095.47,-1380.22ZM1150.51,-1385.88C1150.64,-1400.75 1143.76,-1411.87 1130.75,-1413.09C1117.75,-1414.32 1104.63,-1401.86 1105.54,-1386.71C1106.45,-1371.51 1112.44,-1358.7 1128.21,-1358.78C1145.17,-1358.85 1150.43,-1375.3 1150.51,-1385.88Z" style="fill:rgb(212,0,0);fill-rule:nonzero;"/>
            </g>
            <g id="path7161-9" transform="matrix(0.301062,0,0,0.301062,-61.1327,821.807)">
                <path d="M1782.2,-583.67C1783.56,-574.545 1783.54,-550.969 1782.42,-544.003C1779.01,-522.65 1770.69,-512.883 1756.77,-509.682C1743.26,-506.574 1724.26,-510.034 1720.09,-527.891L1731.4,-528.1C1737.52,-516.032 1752.98,-519.258 1761.68,-524.506C1768.63,-528.698 1771.78,-546.161 1770.43,-547.236C1770.44,-547.236 1757.29,-537.68 1746.93,-538.384C1724.78,-540.649 1715.65,-559.496 1716.42,-577.309C1717.12,-598.732 1724.04,-615.847 1747.51,-616.99C1769.83,-616.148 1780.06,-604.202 1782.2,-583.67ZM1727.16,-578.007C1727.04,-563.142 1733.92,-552.023 1746.93,-550.795C1759.93,-549.568 1773.05,-562.028 1772.14,-577.177C1771.23,-592.379 1765.23,-605.184 1749.46,-605.113C1732.5,-605.037 1727.25,-588.584 1727.16,-578.007Z" style="fill:rgb(212,0,0);fill-rule:nonzero;"/>
            </g>
        </g>
    </g>
</svg>
