<?xml version="1.0" encoding="UTF-8" standalone="no"?>
<!DOCTYPE svg PUBLIC "-//W3C//DTD SVG 1.1//EN" "http://www.w3.org/Graphics/SVG/1.1/DTD/svg11.dtd">
<svg width="100%" height="100%" viewBox="0 0 228 316" version="1.1" xmlns="http://www.w3.org/2000/svg" xmlns:xlink="http://www.w3.org/1999/xlink" xml:space="preserve" xmlns:serif="http://www.serif.com/" style="fill-rule:evenodd;clip-rule:evenodd;">
    <g transform="matrix(1,0,0,1,-258.378,-368.221)">
        <g id="_6h" serif:id="6h">
            <g id="rect6357" transform="matrix(1,0,0,1,-6890.41,3117.09)">
                <path d="M7374.07,-2736.18C7374.07,-2742.05 7369.31,-2746.81 7363.44,-2746.81L7161.47,-2746.81C7155.61,-2746.81 7150.84,-2742.05 7150.84,-2736.18L7150.84,-2445.63C7150.84,-2439.76 7155.61,-2435 7161.47,-2435L7363.44,-2435C7369.31,-2435 7374.07,-2439.76 7374.07,-2445.63L7374.07,-2736.18Z" style="fill:white;stroke:rgb(191,191,191);stroke-width:1px;"/>
            </g>
            <g id="path7108" transform="matrix(0.301062,0,0,0.301062,-61.1327,821.807)">
                <path d="M1095.47,-1380.22C1094.12,-1389.34 1094.14,-1412.92 1095.25,-1419.88C1098.67,-1441.24 1106.99,-1451 1120.91,-1454.21C1134.42,-1457.31 1153.42,-1453.85 1157.59,-1436L1146.28,-1435.79C1140.16,-1447.86 1124.7,-1444.63 1116,-1439.38C1109.04,-1435.19 1105.9,-1417.73 1107.25,-1416.65C1107.24,-1416.65 1120.39,-1426.21 1130.75,-1425.5C1152.9,-1423.24 1162.03,-1404.39 1161.26,-1386.58C1160.56,-1365.16 1153.64,-1348.04 1130.16,-1346.9C1107.85,-1347.74 1097.62,-1359.69 1095.47,-1380.22ZM1150.51,-1385.88C1150.64,-1400.75 1143.76,-1411.87 1130.75,-1413.09C1117.75,-1414.32 1104.63,-1401.86 1105.54,-1386.71C1106.45,-1371.51 1112.44,-1358.7 1128.21,-1358.78C1145.17,-1358.85 1150.43,-1375.3 1150.51,-1385.88Z" style="fill:rgb(212,0,0);fill-rule:nonzero;"/>
            </g>
            <g id="path7161" transform="matrix(0.301062,0,0,0.301062,-61.1327,821.807)">
                <path d="M1782.2,-583.67C1783.56,-574.545 1783.54,-550.969 1782.42,-544.003C1779.01,-522.65 1770.69,-512.883 1756.77,-509.682C1743.26,-506.574 1724.26,-510.034 1720.09,-527.891L1731.4,-528.1C1737.52,-516.032 1752.98,-519.258 1761.68,-524.506C1768.63,-528.698 1771.78,-546.161 1770.43,-547.236C1770.44,-547.236 1757.29,-537.68 1746.93,-538.384C1724.78,-540.649 1715.65,-559.496 1716.42,-577.309C1717.12,-598.732 1724.04,-615.847 1747.51,-616.99C1769.83,-616.148 1780.06,-604.202 1782.2,-583.67ZM1727.16,-578.007C1727.04,-563.142 1733.92,-552.023 1746.93,-550.795C1759.93,-549.568 1773.05,-562.028 1772.14,-577.177C1771.23,-592.379 1765.23,-605.184 1749.46,-605.113C1732.5,-605.037 1727.25,-588.584 1727.16,-578.007Z" style="fill:rgb(212,0,0);fill-rule:nonzero;"/>
            </g>
            <g id="path8642" transform="matrix(1,0,0,1,-2206.53,198.15)">
                <path d="M2475.62,231.5C2474.03,228.027 2473.86,222.094 2478.59,221.292C2482.15,220.833 2483.6,222.49 2483.89,225.034C2484.03,225.777 2484.45,225.822 2484.58,224.975C2484.79,222.366 2487.37,220.843 2489.39,221.225C2494.92,222.171 2494.59,228.254 2492.79,232.381C2490.06,237.86 2487.19,241.318 2484.54,246.833C2481.51,241.092 2478.04,236.428 2475.62,231.5L2475.62,231.5Z" style="fill:rgb(212,0,0);fill-rule:nonzero;"/>
            </g>
            <g id="path8530" transform="matrix(1,0,0,1,-2206.53,198.15)">
                <path d="M2510.91,200.489C2518.05,200.014 2521.77,206.116 2522.5,210.925C2522.93,211.689 2523.17,211.474 2523.34,210.883C2523.69,204.709 2529.21,199.663 2534.33,200.353C2542.66,200.461 2547.72,209.728 2546.3,217.571C2544.56,227.153 2539.4,232.922 2535.49,238.865C2531.07,245.017 2525.12,253.904 2523.2,258.181C2523.2,258.181 2517.15,248.977 2509.28,238.152C2504.02,230.913 2499.81,223.069 2499.42,216.316C2498.97,208.601 2502.14,201.685 2510.91,200.489L2510.91,200.489Z" style="fill:rgb(212,0,0);fill-rule:nonzero;"/>
            </g>
            <g id="path8532" transform="matrix(1,0,0,1,-2206.53,198.15)">
                <path d="M2622.44,200.489C2629.58,200.014 2633.31,206.116 2634.03,210.925C2634.47,211.689 2634.7,211.474 2634.87,210.883C2635.22,204.709 2640.75,199.663 2645.86,200.353C2654.19,200.461 2659.25,209.728 2657.83,217.571C2656.09,227.153 2650.93,232.922 2647.02,238.865C2642.6,245.017 2636.65,253.904 2634.73,258.181C2634.73,258.181 2628.68,248.977 2620.82,238.152C2615.55,230.913 2611.34,223.069 2610.95,216.316C2610.5,208.601 2613.67,201.685 2622.44,200.489L2622.44,200.489Z" style="fill:rgb(212,0,0);fill-rule:nonzero;"/>
            </g>
            <g id="path8534" transform="matrix(1,0,0,1,-2206.53,198.15)">
                <path d="M2622.44,299.382C2629.58,298.908 2633.31,305.01 2634.03,309.819C2634.47,310.583 2634.7,310.367 2634.87,309.776C2635.22,303.602 2640.75,298.556 2645.86,299.246C2654.19,299.355 2659.25,308.622 2657.83,316.465C2656.09,326.047 2650.93,331.816 2647.02,337.758C2642.6,343.911 2636.65,352.798 2634.73,357.075C2634.73,357.075 2628.68,347.87 2620.82,337.045C2615.55,329.807 2611.34,321.963 2610.95,315.21C2610.5,307.495 2613.67,300.578 2622.44,299.382L2622.44,299.382Z" style="fill:rgb(212,0,0);fill-rule:nonzero;"/>
            </g>
            <g id="path8536" transform="matrix(1,0,0,1,-2206.53,198.15)">
                <path d="M2510.91,299.382C2518.05,298.908 2521.77,305.01 2522.5,309.819C2522.93,310.583 2523.17,310.367 2523.34,309.776C2523.69,303.602 2529.21,298.556 2534.33,299.246C2542.66,299.355 2547.72,308.622 2546.3,316.465C2544.56,326.047 2539.4,331.816 2535.49,337.758C2531.07,343.911 2525.12,352.798 2523.2,357.075C2523.2,357.075 2517.15,347.87 2509.28,337.045C2504.02,329.807 2499.81,321.963 2499.42,315.21C2498.97,307.495 2502.14,300.578 2510.91,299.382L2510.91,299.382Z" style="fill:rgb(212,0,0);fill-rule:nonzero;"/>
            </g>
            <g id="path8592" transform="matrix(1,0,0,1,-2206.53,198.15)">
                <path d="M2510.91,455.474C2518.05,455.949 2521.77,449.847 2522.5,445.038C2522.93,444.274 2523.17,444.489 2523.34,445.08C2523.69,451.254 2529.21,456.3 2534.33,455.61C2542.66,455.502 2547.72,446.235 2546.3,438.392C2544.56,428.81 2539.4,423.04 2535.49,417.098C2531.07,410.946 2525.12,402.059 2523.2,397.782C2523.2,397.782 2517.15,406.986 2509.28,417.811C2504.02,425.05 2499.81,432.894 2499.42,439.647C2498.97,447.362 2502.14,454.278 2510.91,455.474L2510.91,455.474Z" style="fill:rgb(212,0,0);fill-rule:nonzero;"/>
            </g>
            <g id="path8594" transform="matrix(1,0,0,1,-2206.53,198.15)">
                <path d="M2622.44,455.474C2629.58,455.949 2633.31,449.847 2634.03,445.038C2634.47,444.274 2634.7,444.489 2634.87,445.08C2635.22,451.254 2640.75,456.3 2645.86,455.61C2654.19,455.502 2659.25,446.235 2657.83,438.392C2656.09,428.81 2650.93,423.04 2647.02,417.098C2642.6,410.946 2636.65,402.059 2634.73,397.782C2634.73,397.782 2628.68,406.986 2620.82,417.811C2615.55,425.05 2611.34,432.894 2610.95,439.647C2610.5,447.362 2613.67,454.278 2622.44,455.474L2622.44,455.474Z" style="fill:rgb(212,0,0);fill-rule:nonzero;"/>
            </g>
            <g id="path8658" transform="matrix(1,0,0,1,-2206.53,198.15)">
                <path d="M2664.43,422.357C2662.85,425.83 2662.68,431.763 2667.4,432.565C2670.97,433.024 2672.42,431.367 2672.7,428.824C2672.85,428.08 2673.27,428.035 2673.4,428.882C2673.6,431.491 2676.19,433.014 2678.2,432.632C2683.73,431.686 2683.41,425.603 2681.6,421.476C2678.87,415.997 2676,412.539 2673.36,407.024C2670.32,412.765 2666.85,417.429 2664.43,422.357L2664.43,422.357Z" style="fill:rgb(212,0,0);fill-rule:nonzero;"/>
            </g>
        </g>
    </g>
</svg>
