<?xml version="1.0" encoding="UTF-8" standalone="no"?>
<!DOCTYPE svg PUBLIC "-//W3C//DTD SVG 1.1//EN" "http://www.w3.org/Graphics/SVG/1.1/DTD/svg11.dtd">
<svg width="100%" height="100%" viewBox="0 0 228 316" version="1.1" xmlns="http://www.w3.org/2000/svg" xmlns:xlink="http://www.w3.org/1999/xlink" xml:space="preserve" xmlns:serif="http://www.serif.com/" style="fill-rule:evenodd;clip-rule:evenodd;">
    <g transform="matrix(1,0,0,1,-258.378,-368.221)">
        <g id="_6S" serif:id="6S">
            <g id="rect6357-6" transform="matrix(1,0,0,1,-6890.41,3117.09)">
                <path d="M7374.07,-2736.18C7374.07,-2742.05 7369.31,-2746.81 7363.44,-2746.81L7161.47,-2746.81C7155.61,-2746.81 7150.84,-2742.05 7150.84,-2736.18L7150.84,-2445.63C7150.84,-2439.76 7155.61,-2435 7161.47,-2435L7363.44,-2435C7369.31,-2435 7374.07,-2439.76 7374.07,-2445.63L7374.07,-2736.18Z" style="fill:white;stroke:rgb(191,191,191);stroke-width:1px;"/>
            </g>
            <g id="path7108-6" transform="matrix(0.301062,0,0,0.301062,-61.1327,821.807)">
                <path d="M1095.47,-1380.22C1094.12,-1389.34 1094.14,-1412.92 1095.25,-1419.88C1098.67,-1441.24 1106.99,-1451 1120.91,-1454.21C1134.42,-1457.31 1153.42,-1453.85 1157.59,-1436L1146.28,-1435.79C1140.16,-1447.86 1124.7,-1444.63 1116,-1439.38C1109.04,-1435.19 1105.9,-1417.73 1107.25,-1416.65C1107.24,-1416.65 1120.39,-1426.21 1130.75,-1425.5C1152.9,-1423.24 1162.03,-1404.39 1161.26,-1386.58C1160.56,-1365.16 1153.64,-1348.04 1130.16,-1346.9C1107.85,-1347.74 1097.62,-1359.69 1095.47,-1380.22ZM1150.51,-1385.88C1150.64,-1400.75 1143.76,-1411.87 1130.75,-1413.09C1117.75,-1414.32 1104.63,-1401.86 1105.54,-1386.71C1106.45,-1371.51 1112.44,-1358.7 1128.21,-1358.78C1145.17,-1358.85 1150.43,-1375.3 1150.51,-1385.88Z" style="fill-rule:nonzero;"/>
            </g>
            <g id="path7161-6" transform="matrix(0.301062,0,0,0.301062,-61.1327,821.807)">
                <path d="M1782.2,-583.67C1783.56,-574.545 1783.54,-550.969 1782.42,-544.003C1779.01,-522.65 1770.69,-512.883 1756.77,-509.682C1743.26,-506.574 1724.26,-510.034 1720.09,-527.891L1731.4,-528.1C1737.52,-516.032 1752.98,-519.258 1761.68,-524.506C1768.63,-528.698 1771.78,-546.161 1770.43,-547.236C1770.44,-547.236 1757.29,-537.68 1746.93,-538.384C1724.78,-540.649 1715.65,-559.496 1716.42,-577.309C1717.12,-598.732 1724.04,-615.847 1747.51,-616.99C1769.83,-616.148 1780.06,-604.202 1782.2,-583.67ZM1727.16,-578.007C1727.04,-563.142 1733.92,-552.023 1746.93,-550.795C1759.93,-549.568 1773.05,-562.028 1772.14,-577.177C1771.23,-592.379 1765.23,-605.184 1749.46,-605.113C1732.5,-605.037 1727.25,-588.584 1727.16,-578.007Z" style="fill-rule:nonzero;"/>
            </g>
            <g id="path3208" transform="matrix(1,0,0,1,-1830.45,92.1351)">
                <path d="M2144.73,346.701C2144.75,344.675 2143.15,344.636 2143.17,346.115C2143.03,353.544 2136.75,357.201 2132.18,356.334C2125.15,354.996 2122.9,348.012 2122.97,343.898C2123.18,331.202 2135.96,321.84 2147.49,305.564C2155.94,320.254 2169.89,331.793 2170.71,343.149C2171.81,358.247 2152.7,363.879 2149.98,346.282C2149.8,345.039 2148.34,344.481 2148.45,346.217C2148.87,351.04 2148.28,353.048 2153.72,364.936L2139.49,364.936C2142.64,359.382 2144.52,352.562 2144.73,346.701L2144.73,346.701Z" style="fill-rule:nonzero;"/>
            </g>
            <g id="path3210" transform="matrix(1,0,0,1,-1830.45,92.1351)">
                <path d="M2256.27,346.701C2256.28,344.675 2254.68,344.636 2254.7,346.115C2254.56,353.544 2248.28,357.201 2243.72,356.334C2236.68,354.996 2234.44,348.012 2234.5,343.898C2234.71,331.202 2247.49,321.84 2259.02,305.564C2267.47,320.254 2281.42,331.793 2282.25,343.149C2283.34,358.247 2264.24,363.879 2261.51,346.282C2261.33,345.039 2259.87,344.481 2259.98,346.217C2260.4,351.04 2259.81,353.048 2265.25,364.936L2251.03,364.936C2254.18,359.382 2256.05,352.562 2256.27,346.701L2256.27,346.701Z" style="fill-rule:nonzero;"/>
            </g>
            <g id="path3268" transform="matrix(1,0,0,1,-1830.45,92.1351)">
                <path d="M2144.74,422.719C2144.76,424.744 2143.16,424.783 2143.18,423.304C2143.04,415.876 2136.76,412.218 2132.2,413.086C2125.16,414.423 2122.91,421.408 2122.98,425.521C2123.19,438.217 2135.97,447.579 2147.5,463.856C2155.95,449.165 2169.9,437.626 2170.72,426.27C2171.82,411.172 2152.72,405.54 2149.99,423.137C2149.81,424.38 2148.35,424.938 2148.46,423.202C2148.88,418.38 2148.29,416.371 2153.73,404.483L2139.51,404.483C2142.66,410.038 2144.53,416.857 2144.74,422.719L2144.74,422.719Z" style="fill-rule:nonzero;"/>
            </g>
            <g id="path3270" transform="matrix(1,0,0,1,-1830.45,92.1351)">
                <path d="M2256.28,422.719C2256.29,424.744 2254.69,424.783 2254.71,423.304C2254.58,415.876 2248.29,412.218 2243.73,413.086C2236.69,414.423 2234.45,421.408 2234.51,425.521C2234.72,438.217 2247.5,447.579 2259.03,463.856C2267.48,449.165 2281.43,437.626 2282.26,426.27C2283.36,411.172 2264.25,405.54 2261.52,423.137C2261.34,424.38 2259.88,424.938 2259.99,423.202C2260.41,418.38 2259.82,416.371 2265.26,404.483L2251.04,404.483C2254.19,410.038 2256.06,416.857 2256.28,422.719L2256.28,422.719Z" style="fill-rule:nonzero;"/>
            </g>
            <g id="path3272" transform="matrix(1,0,0,1,-1830.45,92.1351)">
                <path d="M2256.28,521.317C2256.29,523.343 2254.69,523.382 2254.71,521.903C2254.58,514.474 2248.29,510.817 2243.73,511.684C2236.69,513.022 2234.45,520.006 2234.51,524.12C2234.72,536.816 2247.5,546.178 2259.03,562.454C2267.48,547.763 2281.43,536.225 2282.26,524.868C2283.36,509.77 2264.25,504.139 2261.52,521.736C2261.34,522.979 2259.88,523.537 2259.99,521.801C2260.41,516.978 2259.82,514.969 2265.26,503.081L2251.04,503.081C2254.19,508.636 2256.06,515.456 2256.28,521.317L2256.28,521.317Z" style="fill-rule:nonzero;"/>
            </g>
            <g id="path3274" transform="matrix(1,0,0,1,-1830.45,92.1351)">
                <path d="M2144.74,521.317C2144.76,523.343 2143.16,523.382 2143.18,521.903C2143.04,514.474 2136.76,510.817 2132.2,511.684C2125.16,513.022 2122.91,520.006 2122.98,524.12C2123.19,536.816 2135.97,546.178 2147.5,562.454C2155.95,547.763 2169.9,536.225 2170.72,524.868C2171.82,509.77 2152.72,504.139 2149.99,521.736C2149.81,522.979 2148.35,523.537 2148.46,521.801C2148.88,516.978 2148.29,514.969 2153.73,503.081L2139.51,503.081C2142.66,508.636 2144.53,515.456 2144.74,521.317L2144.74,521.317Z" style="fill-rule:nonzero;"/>
            </g>
            <g id="path3326" transform="matrix(1,0,0,1,-1830.45,92.1351)">
                <path d="M2107.78,346.57C2107.79,345.699 2106.89,346.106 2106.76,346.38C2105.6,348.366 2103.9,348.828 2102.22,348.112C2100.55,347.403 2099.61,345.832 2099.76,343.59C2100.07,340.152 2102.8,336.39 2104.12,334.264C2105.37,332.334 2106.75,330.041 2108.19,327.109C2109.89,330.473 2110.75,331.43 2112.6,334.501C2114.23,337.205 2116.49,339.854 2116.67,343.123C2116.67,345.608 2115.62,347.955 2113.27,348.383C2111.94,348.625 2110.69,347.941 2109.76,346.346C2109.48,345.939 2108.91,346.151 2108.93,346.708C2109.09,348.801 2109.88,350.691 2111.75,352.919L2104.87,352.919C2106.28,351.343 2107.72,349.216 2107.78,346.57L2107.78,346.57Z" style="fill-rule:nonzero;"/>
            </g>
            <g id="path3340" transform="matrix(1,0,0,1,-1830.45,92.1351)">
                <path d="M2296.6,519.316C2296.61,520.188 2295.7,519.781 2295.58,519.506C2294.42,517.521 2292.72,517.059 2291.03,517.774C2289.36,518.484 2288.43,520.055 2288.58,522.297C2288.89,525.734 2291.61,529.496 2292.93,531.623C2294.18,533.553 2295.56,535.845 2297.01,538.777C2298.71,535.414 2299.57,534.456 2301.41,531.385C2303.04,528.681 2305.31,526.032 2305.48,522.763C2305.48,520.278 2304.44,517.931 2302.08,517.504C2300.75,517.262 2299.5,517.945 2298.58,519.541C2298.3,519.947 2297.73,519.735 2297.74,519.179C2297.91,517.085 2298.7,515.195 2300.57,512.967L2293.68,512.967C2295.09,514.543 2296.53,516.671 2296.6,519.316Z" style="fill-rule:nonzero;"/>
            </g>
        </g>
    </g>
</svg>
