<?xml version="1.0" encoding="UTF-8" standalone="no"?>
<!DOCTYPE svg PUBLIC "-//W3C//DTD SVG 1.1//EN" "http://www.w3.org/Graphics/SVG/1.1/DTD/svg11.dtd">
<svg width="100%" height="100%" viewBox="0 0 228 316" version="1.1" xmlns="http://www.w3.org/2000/svg" xmlns:xlink="http://www.w3.org/1999/xlink" xml:space="preserve" xmlns:serif="http://www.serif.com/" style="fill-rule:evenodd;clip-rule:evenodd;">
    <g transform="matrix(1,0,0,1,-258.378,-368.221)">
        <g id="_7C" serif:id="7C">
            <g id="rect6359-7" transform="matrix(1,0,0,1,-5774.27,2805.28)">
                <path d="M6257.93,-2424.37C6257.93,-2430.24 6253.17,-2435 6247.3,-2435L6045.33,-2435C6039.46,-2435 6034.7,-2430.24 6034.7,-2424.37L6034.7,-2133.82C6034.7,-2127.95 6039.46,-2123.19 6045.33,-2123.19L6247.3,-2123.19C6253.17,-2123.19 6257.93,-2127.95 6257.93,-2133.82L6257.93,-2424.37Z" style="fill:white;stroke:rgb(191,191,191);stroke-width:1px;"/>
            </g>
            <g id="path7110-2" transform="matrix(0.301062,0,0,0.301062,-324.979,824.393)">
                <path d="M1984.51,-1353.9C1991.59,-1390.73 1999.15,-1418.37 2018.99,-1448.39L1978.68,-1448.39L1978.68,-1435.47L1967.97,-1435.47L1967.97,-1459.82L2026.94,-1459.82L2034.21,-1448.39C2013.15,-1425.81 1993.86,-1352.83 1997.28,-1353.9L1984.51,-1353.9Z" style="fill-rule:nonzero;"/>
            </g>
            <g id="path7126-7" transform="matrix(0.301062,0,0,0.301062,-324.979,824.393)">
                <path d="M2643.99,-627.171C2636.91,-590.335 2629.34,-562.698 2609.51,-532.679L2649.82,-532.679L2649.82,-545.601L2660.53,-545.601L2660.53,-521.251L2601.56,-521.251L2594.29,-532.679C2615.35,-555.256 2634.64,-628.235 2631.22,-627.171L2643.99,-627.171Z" style="fill-rule:nonzero;"/>
            </g>
            <g id="path3319" transform="matrix(1,0,0,1,-714.605,-219.676)">
                <path d="M1130.16,677.076C1133.04,671.301 1135.14,665.375 1135.51,659.039C1135.85,656.707 1134.44,656.668 1134.22,658.31C1130.15,673.903 1108.46,669.681 1109.21,655.014C1109.81,643.119 1121.62,640.56 1127.79,644.449C1130.22,645.882 1130.08,645.024 1128.76,643.537C1119.6,633.326 1125.15,620.176 1137.52,619.935C1150.9,620.728 1154.37,634.805 1146.16,643.083C1145.14,644.078 1142.88,647.275 1146.29,645.04C1154.57,639.152 1166.07,645.482 1165.84,654.56C1165.4,671.299 1145,672.548 1140.63,658.566C1140.21,657.016 1139.01,656.237 1139.34,658.87C1139.94,663.637 1141.2,670.824 1144.78,677.076L1130.16,677.076Z" style="fill-rule:nonzero;"/>
            </g>
            <g id="path3321" transform="matrix(1,0,0,1,-714.605,-219.676)">
                <path d="M1130.16,777.324C1133.04,771.549 1135.14,765.623 1135.51,759.287C1135.85,756.955 1134.44,756.916 1134.22,758.559C1130.15,774.151 1108.46,769.929 1109.21,755.262C1109.81,743.367 1121.62,740.808 1127.79,744.698C1130.22,746.13 1130.08,745.272 1128.76,743.786C1119.6,733.574 1125.15,720.424 1137.52,720.183C1150.9,720.977 1154.37,735.053 1146.16,743.332C1145.14,744.326 1142.88,747.523 1146.29,745.288C1154.57,739.4 1166.07,745.731 1165.84,754.809C1165.4,771.548 1145,772.796 1140.63,758.814C1140.21,757.264 1139.01,756.486 1139.34,759.119C1139.94,763.885 1141.2,771.072 1144.78,777.324L1130.16,777.324Z" style="fill-rule:nonzero;"/>
            </g>
            <g id="path3323" transform="matrix(1,0,0,1,-714.605,-219.676)">
                <path d="M1028.63,777.324C1031.51,771.549 1033.61,765.623 1033.98,759.287C1034.32,756.955 1032.9,756.916 1032.69,758.559C1028.61,774.151 1006.93,769.929 1007.67,755.262C1008.28,743.367 1020.09,740.808 1026.26,744.698C1028.69,746.13 1028.55,745.272 1027.22,743.786C1018.07,733.574 1023.61,720.424 1035.99,720.183C1049.36,720.977 1052.84,735.053 1044.63,743.332C1043.61,744.326 1041.35,747.523 1044.75,745.288C1053.04,739.4 1064.54,745.731 1064.31,754.809C1063.87,771.548 1043.46,772.796 1039.1,758.814C1038.68,757.264 1037.47,756.486 1037.81,759.119C1038.41,763.885 1039.66,771.072 1043.24,777.324L1028.63,777.324Z" style="fill-rule:nonzero;"/>
            </g>
            <g id="path3325" transform="matrix(1,0,0,1,-714.605,-219.676)">
                <path d="M1079.06,727.2C1081.94,721.425 1084.04,715.499 1084.41,709.163C1084.75,706.831 1083.34,706.792 1083.12,708.434C1079.05,724.027 1057.36,719.805 1058.11,705.138C1058.71,693.243 1070.53,690.684 1076.69,694.573C1079.12,696.006 1078.99,695.148 1077.66,693.662C1068.5,683.45 1074.05,670.3 1086.42,670.059C1099.8,670.853 1103.27,684.929 1095.06,693.207C1094.04,694.202 1091.78,697.399 1095.19,695.164C1103.47,689.276 1114.97,695.607 1114.74,704.684C1114.31,721.423 1093.9,722.672 1089.54,708.69C1089.12,707.14 1087.91,706.362 1088.24,708.995C1088.85,713.761 1090.1,720.948 1093.68,727.2L1079.06,727.2Z" style="fill-rule:nonzero;"/>
            </g>
            <g id="path3327" transform="matrix(1,0,0,1,-714.605,-219.676)">
                <path d="M1028.63,677.076C1031.51,671.301 1033.61,665.375 1033.98,659.039C1034.32,656.707 1032.9,656.668 1032.69,658.31C1028.61,673.903 1006.93,669.681 1007.67,655.014C1008.28,643.119 1020.09,640.56 1026.26,644.449C1028.69,645.882 1028.55,645.024 1027.22,643.537C1018.07,633.326 1023.61,620.176 1035.99,619.935C1049.36,620.728 1052.84,634.805 1044.63,643.083C1043.61,644.078 1041.35,647.275 1044.75,645.04C1053.04,639.152 1064.54,645.482 1064.31,654.56C1063.87,671.299 1043.46,672.548 1039.1,658.566C1038.68,657.016 1037.47,656.237 1037.81,658.87C1038.41,663.637 1039.66,670.824 1043.24,677.076L1028.63,677.076Z" style="fill-rule:nonzero;"/>
            </g>
            <g id="path3381" transform="matrix(1,0,0,1,-714.605,-219.676)">
                <path d="M1144.87,818.782C1141.99,824.557 1139.89,830.483 1139.52,836.819C1139.17,839.151 1140.59,839.19 1140.81,837.548C1144.88,821.955 1166.57,826.177 1165.82,840.844C1165.22,852.739 1153.4,855.298 1147.24,851.409C1144.81,849.976 1144.94,850.834 1146.27,852.321C1155.43,862.532 1149.88,875.682 1137.51,875.923C1124.13,875.13 1120.66,861.053 1128.87,852.775C1129.89,851.78 1132.15,848.583 1128.74,850.818C1120.46,856.706 1108.96,850.376 1109.19,841.298C1109.62,824.559 1130.03,823.31 1134.39,837.292C1134.81,838.842 1136.02,839.621 1135.69,836.988C1135.08,832.221 1133.83,825.034 1130.25,818.782L1144.87,818.782Z" style="fill-rule:nonzero;"/>
            </g>
            <g id="path3383" transform="matrix(1,0,0,1,-714.605,-219.676)">
                <path d="M1043.33,818.782C1040.45,824.557 1038.36,830.483 1037.98,836.819C1037.64,839.151 1039.06,839.19 1039.27,837.548C1043.35,821.955 1065.04,826.177 1064.29,840.844C1063.68,852.739 1051.87,855.298 1045.71,851.409C1043.27,849.976 1043.41,850.834 1044.74,852.321C1053.89,862.532 1048.35,875.682 1035.98,875.923C1022.6,875.13 1019.13,861.053 1027.33,852.775C1028.35,851.78 1030.62,848.583 1027.21,850.818C1018.92,856.706 1007.42,850.376 1007.66,841.298C1008.09,824.559 1028.5,823.31 1032.86,837.292C1033.28,838.842 1034.49,839.621 1034.16,836.988C1033.55,832.221 1032.3,825.034 1028.72,818.782L1043.33,818.782Z" style="fill-rule:nonzero;"/>
            </g>
            <g id="path3470" transform="matrix(1,0,0,1,-714.605,-219.676)">
                <path d="M988.2,666.339C989.393,663.894 990.553,661.618 991.185,658.938C991.604,656.41 990.746,657.349 990.26,659.006C989.538,661.304 987.537,662.35 985.68,662.375C982.308,662.421 980.627,659.771 980.732,656.921C980.364,653.923 983.403,651.801 985.693,651.964C987.416,652.087 988.917,653.017 989.826,653.74C990.423,654.055 991.06,654.194 990.171,653.381C988.494,651.548 987.095,650.417 987.125,647.67C987.154,645.092 989.359,642.402 992.281,642.487C995.932,642.592 997.593,645.377 997.584,647.967C997.574,649.855 996.63,651.593 995.172,652.67C994.228,653.436 994.493,654.01 995.57,653.285C996.605,652.393 997.837,652.002 999.115,651.975C1002.61,651.92 1003.97,654.936 1003.77,657.739C1003.58,660.364 1001.35,663.067 998.401,662.761C995.77,662.46 994.388,660.251 993.596,657.984C993.334,657.289 992.92,657.101 992.931,658.137C993.539,663.195 995.423,666.342 995.437,666.339L988.2,666.339Z" style="fill-rule:nonzero;"/>
            </g>
            <g id="path3494" transform="matrix(1,0,0,1,-714.605,-219.676)">
                <path d="M1185.11,828.342C1183.91,830.787 1182.75,833.063 1182.12,835.743C1181.7,838.271 1182.56,837.332 1183.05,835.675C1183.77,833.377 1185.77,832.331 1187.63,832.306C1191,832.26 1192.68,834.91 1192.57,837.76C1192.94,840.758 1189.9,842.88 1187.61,842.717C1185.89,842.594 1184.39,841.665 1183.48,840.941C1182.88,840.626 1182.25,840.487 1183.13,841.3C1184.81,843.133 1186.21,844.264 1186.18,847.011C1186.15,849.589 1183.95,852.279 1181.03,852.195C1177.37,852.089 1175.71,849.304 1175.72,846.714C1175.73,844.826 1176.67,843.088 1178.13,842.011C1179.08,841.245 1178.81,840.672 1177.74,841.396C1176.7,842.289 1175.47,842.679 1174.19,842.706C1170.7,842.761 1169.34,839.745 1169.54,836.942C1169.72,834.317 1171.96,831.614 1174.9,831.92C1177.54,832.221 1178.92,834.43 1179.71,836.697C1179.97,837.392 1180.38,837.58 1180.37,836.544C1179.77,831.486 1177.88,828.339 1177.87,828.342L1185.11,828.342Z" style="fill-rule:nonzero;"/>
            </g>
        </g>
    </g>
</svg>
