<?xml version="1.0" encoding="UTF-8" standalone="no"?>
<!DOCTYPE svg PUBLIC "-//W3C//DTD SVG 1.1//EN" "http://www.w3.org/Graphics/SVG/1.1/DTD/svg11.dtd">
<svg width="100%" height="100%" viewBox="0 0 228 316" version="1.1" xmlns="http://www.w3.org/2000/svg" xmlns:xlink="http://www.w3.org/1999/xlink" xml:space="preserve" xmlns:serif="http://www.serif.com/" style="fill-rule:evenodd;clip-rule:evenodd;">
    <g transform="matrix(1,0,0,1,-258.378,-368.221)">
        <g id="_7D" serif:id="7D">
            <g id="rect6359-77" transform="matrix(1,0,0,1,-5774.27,2805.28)">
                <path d="M6257.93,-2424.37C6257.93,-2430.24 6253.17,-2435 6247.3,-2435L6045.33,-2435C6039.46,-2435 6034.7,-2430.24 6034.7,-2424.37L6034.7,-2133.82C6034.7,-2127.95 6039.46,-2123.19 6045.33,-2123.19L6247.3,-2123.19C6253.17,-2123.19 6257.93,-2127.95 6257.93,-2133.82L6257.93,-2424.37Z" style="fill:white;stroke:rgb(191,191,191);stroke-width:1px;"/>
            </g>
            <g id="path3397-3" transform="matrix(0.301062,0,0,0.301062,-324.685,824.393)">
                <path d="M2053.16,-1313.11C2086.11,-1345.27 2107.75,-1380.33 2128.45,-1414.05C2146.6,-1376.95 2172.65,-1344.49 2200.82,-1313.11C2170.68,-1281.99 2147.32,-1248.72 2128.54,-1213.74C2107.72,-1249.6 2085.8,-1282.07 2053.16,-1313.11Z" style="fill:rgb(212,0,0);fill-rule:nonzero;"/>
            </g>
            <g id="path3399-5" transform="matrix(0.301062,0,0,0.301062,-324.685,824.393)">
                <path d="M2053.16,-980.13C2086.11,-1012.29 2107.75,-1047.35 2128.45,-1081.07C2146.6,-1043.97 2172.65,-1011.51 2200.82,-980.13C2170.68,-949.011 2147.32,-915.737 2128.54,-880.756C2107.72,-916.614 2085.8,-949.086 2053.16,-980.13Z" style="fill:rgb(212,0,0);fill-rule:nonzero;"/>
            </g>
            <g id="path3401-9" transform="matrix(0.301062,0,0,0.301062,-324.685,824.393)">
                <path d="M2053.16,-652.627C2086.11,-684.785 2107.75,-719.847 2128.45,-753.566C2146.6,-716.464 2172.65,-684.005 2200.82,-652.627C2170.68,-621.509 2147.32,-588.234 2128.54,-553.253C2107.72,-589.112 2085.8,-621.583 2053.16,-652.627Z" style="fill:rgb(212,0,0);fill-rule:nonzero;"/>
            </g>
            <g id="path3403-9" transform="matrix(0.301062,0,0,0.301062,-324.685,824.393)">
                <path d="M2240.61,-1146.62C2273.56,-1178.78 2295.2,-1213.84 2315.9,-1247.56C2334.05,-1210.46 2360.1,-1178 2388.26,-1146.62C2358.13,-1115.5 2334.77,-1082.23 2315.99,-1047.25C2295.17,-1083.11 2273.25,-1115.58 2240.61,-1146.62Z" style="fill:rgb(212,0,0);fill-rule:nonzero;"/>
            </g>
            <g id="path3407-8" transform="matrix(0.301062,0,0,0.301062,-324.685,824.393)">
                <path d="M2423.62,-1313.11C2456.58,-1345.27 2478.22,-1380.33 2498.91,-1414.05C2517.07,-1376.95 2543.11,-1344.49 2571.28,-1313.11C2541.14,-1281.99 2517.78,-1248.72 2499.01,-1213.74C2478.19,-1249.6 2456.27,-1282.07 2423.62,-1313.11Z" style="fill:rgb(212,0,0);fill-rule:nonzero;"/>
            </g>
            <g id="path3409" transform="matrix(0.301062,0,0,0.301062,-324.685,824.393)">
                <path d="M2423.62,-980.13C2456.58,-1012.29 2478.22,-1047.35 2498.91,-1081.07C2517.07,-1043.97 2543.11,-1011.51 2571.28,-980.13C2541.14,-949.011 2517.78,-915.737 2499.01,-880.756C2478.19,-916.614 2456.27,-949.086 2423.62,-980.13Z" style="fill:rgb(212,0,0);fill-rule:nonzero;"/>
            </g>
            <g id="path3411" transform="matrix(0.301062,0,0,0.301062,-324.685,824.393)">
                <path d="M2423.62,-652.627C2456.58,-684.785 2478.22,-719.847 2498.91,-753.566C2517.07,-716.464 2543.11,-684.005 2571.28,-652.627C2541.14,-621.509 2517.78,-588.234 2499.01,-553.253C2478.19,-589.112 2456.27,-621.583 2423.62,-652.627Z" style="fill:rgb(212,0,0);fill-rule:nonzero;"/>
            </g>
            <g id="path3718" transform="matrix(0.301062,0,0,0.301062,-324.685,824.393)">
                <path d="M2598.56,-676.617C2612.06,-689.79 2620.93,-704.153 2629.41,-717.965C2636.84,-702.767 2647.51,-689.47 2659.05,-676.617C2646.7,-663.869 2637.14,-650.238 2629.44,-635.909C2620.91,-650.598 2611.94,-663.9 2598.56,-676.617Z" style="fill:rgb(212,0,0);fill-rule:nonzero;"/>
            </g>
            <g id="path3720" transform="matrix(0.301062,0,0,0.301062,-324.685,824.393)">
                <path d="M1971.4,-1293.96C1984.9,-1307.13 1993.76,-1321.49 2002.24,-1335.31C2009.68,-1320.11 2020.35,-1306.81 2031.89,-1293.96C2019.54,-1281.21 2009.97,-1267.58 2002.28,-1253.25C1993.75,-1267.94 1984.77,-1281.24 1971.4,-1293.96Z" style="fill:rgb(212,0,0);fill-rule:nonzero;"/>
            </g>
            <g id="path7110-1" transform="matrix(0.301062,0,0,0.301062,-324.685,824.393)">
                <path d="M1984.51,-1353.9C1991.59,-1390.73 1999.15,-1418.37 2018.99,-1448.39L1978.68,-1448.39L1978.68,-1435.47L1967.97,-1435.47L1967.97,-1459.82L2026.94,-1459.82L2034.21,-1448.39C2013.15,-1425.81 1993.86,-1352.83 1997.28,-1353.9L1984.51,-1353.9Z" style="fill:rgb(212,0,0);fill-rule:nonzero;"/>
            </g>
            <g id="path7126-8" transform="matrix(0.301062,0,0,0.301062,-324.685,824.393)">
                <path d="M2643.99,-627.171C2636.91,-590.335 2629.34,-562.698 2609.51,-532.679L2649.82,-532.679L2649.82,-545.601L2660.53,-545.601L2660.53,-521.251L2601.56,-521.251L2594.29,-532.679C2615.35,-555.256 2634.64,-628.235 2631.22,-627.171L2643.99,-627.171Z" style="fill:rgb(212,0,0);fill-rule:nonzero;"/>
            </g>
        </g>
    </g>
</svg>
