<?xml version="1.0" encoding="UTF-8" standalone="no"?>
<!DOCTYPE svg PUBLIC "-//W3C//DTD SVG 1.1//EN" "http://www.w3.org/Graphics/SVG/1.1/DTD/svg11.dtd">
<svg width="100%" height="100%" viewBox="0 0 228 316" version="1.1" xmlns="http://www.w3.org/2000/svg" xmlns:xlink="http://www.w3.org/1999/xlink" xml:space="preserve" xmlns:serif="http://www.serif.com/" style="fill-rule:evenodd;clip-rule:evenodd;">
    <g transform="matrix(1,0,0,1,-258.378,-368.221)">
        <g id="_7H" serif:id="7H">
            <g id="rect6359" transform="matrix(1,0,0,1,-5774.27,2805.28)">
                <path d="M6257.93,-2424.37C6257.93,-2430.24 6253.17,-2435 6247.3,-2435L6045.33,-2435C6039.46,-2435 6034.7,-2430.24 6034.7,-2424.37L6034.7,-2133.82C6034.7,-2127.95 6039.46,-2123.19 6045.33,-2123.19L6247.3,-2123.19C6253.17,-2123.19 6257.93,-2127.95 6257.93,-2133.82L6257.93,-2424.37Z" style="fill:white;stroke:rgb(191,191,191);stroke-width:1px;"/>
            </g>
            <g id="path7110" transform="matrix(0.301062,0,0,0.301062,-324.685,824.393)">
                <path d="M1984.51,-1353.9C1991.59,-1390.73 1999.15,-1418.37 2018.99,-1448.39L1978.68,-1448.39L1978.68,-1435.47L1967.97,-1435.47L1967.97,-1459.82L2026.94,-1459.82L2034.21,-1448.39C2013.15,-1425.81 1993.86,-1352.83 1997.28,-1353.9L1984.51,-1353.9Z" style="fill:rgb(212,0,0);fill-rule:nonzero;"/>
            </g>
            <g id="path7126" transform="matrix(0.301062,0,0,0.301062,-324.685,824.393)">
                <path d="M2643.99,-627.171C2636.91,-590.335 2629.34,-562.698 2609.51,-532.679L2649.82,-532.679L2649.82,-545.601L2660.53,-545.601L2660.53,-521.251L2601.56,-521.251L2594.29,-532.679C2615.35,-555.256 2634.64,-628.235 2631.22,-627.171L2643.99,-627.171Z" style="fill:rgb(212,0,0);fill-rule:nonzero;"/>
            </g>
            <g id="path8632" transform="matrix(1,0,0,1,-1090.39,-113.661)">
                <path d="M1359.65,545.897C1358.07,542.425 1357.9,536.492 1362.62,535.689C1366.19,535.231 1367.64,536.887 1367.92,539.431C1368.07,540.174 1368.49,540.219 1368.62,539.373C1368.82,536.763 1371.41,535.24 1373.42,535.623C1378.95,536.568 1378.63,542.651 1376.82,546.778C1374.09,552.258 1371.22,555.716 1368.58,561.23C1365.54,555.489 1362.07,550.825 1359.65,545.897L1359.65,545.897Z" style="fill:rgb(212,0,0);fill-rule:nonzero;"/>
            </g>
            <g id="path8538" transform="matrix(1,0,0,1,-1090.39,-113.661)">
                <path d="M1394.01,513.744C1401.16,513.27 1404.88,519.371 1405.61,524.181C1406.04,524.944 1406.28,524.729 1406.44,524.138C1406.79,517.964 1412.32,512.918 1417.44,513.608C1425.77,513.716 1430.83,522.983 1429.4,530.827C1427.66,540.408 1422.5,546.178 1418.6,552.12C1414.17,558.272 1408.22,567.159 1406.31,571.437C1406.31,571.437 1400.26,562.232 1392.39,551.407C1387.13,544.169 1382.91,536.325 1382.52,529.572C1382.08,521.856 1385.24,514.94 1394.01,513.744L1394.01,513.744Z" style="fill:rgb(212,0,0);fill-rule:nonzero;"/>
            </g>
            <g id="path8540" transform="matrix(1,0,0,1,-1090.39,-113.661)">
                <path d="M1505.55,513.744C1512.69,513.27 1516.41,519.371 1517.14,524.181C1517.57,524.944 1517.81,524.729 1517.98,524.138C1518.33,517.964 1523.85,512.918 1528.97,513.608C1537.3,513.716 1542.36,522.983 1540.94,530.827C1539.2,540.408 1534.04,546.178 1530.13,552.12C1525.71,558.272 1519.76,567.159 1517.84,571.437C1517.84,571.437 1511.79,562.232 1503.92,551.407C1498.66,544.169 1494.45,536.325 1494.06,529.572C1493.61,521.856 1496.78,514.94 1505.55,513.744L1505.55,513.744Z" style="fill:rgb(212,0,0);fill-rule:nonzero;"/>
            </g>
            <g id="path8542" transform="matrix(1,0,0,1,-1090.39,-113.661)">
                <path d="M1450.45,563.868C1457.59,563.394 1461.32,569.496 1462.04,574.305C1462.48,575.069 1462.71,574.853 1462.88,574.262C1463.23,568.088 1468.75,563.042 1473.87,563.732C1482.2,563.841 1487.26,573.108 1485.84,580.951C1484.1,590.533 1478.94,596.302 1475.03,602.244C1470.61,608.397 1464.66,617.284 1462.74,621.561C1462.74,621.561 1456.69,612.356 1448.82,601.531C1443.56,594.293 1439.35,586.449 1438.96,579.696C1438.51,571.981 1441.68,565.064 1450.45,563.868L1450.45,563.868Z" style="fill:rgb(212,0,0);fill-rule:nonzero;"/>
            </g>
            <g id="path8544" transform="matrix(1,0,0,1,-1090.39,-113.661)">
                <path d="M1394.01,613.993C1401.16,613.518 1404.88,619.62 1405.61,624.429C1406.04,625.193 1406.28,624.978 1406.44,624.387C1406.79,618.213 1412.32,613.166 1417.44,613.856C1425.77,613.965 1430.83,623.232 1429.4,631.075C1427.66,640.657 1422.5,646.426 1418.6,652.368C1414.17,658.521 1408.22,667.408 1406.31,671.685C1406.31,671.685 1400.26,662.481 1392.39,651.656C1387.13,644.417 1382.91,636.573 1382.52,629.82C1382.08,622.105 1385.24,615.188 1394.01,613.993L1394.01,613.993Z" style="fill:rgb(212,0,0);fill-rule:nonzero;"/>
            </g>
            <g id="path8546" transform="matrix(1,0,0,1,-1090.39,-113.661)">
                <path d="M1505.55,613.993C1512.69,613.518 1516.41,619.62 1517.14,624.429C1517.57,625.193 1517.81,624.978 1517.98,624.387C1518.33,618.213 1523.85,613.166 1528.97,613.856C1537.3,613.965 1542.36,623.232 1540.94,631.075C1539.2,640.657 1534.04,646.426 1530.13,652.368C1525.71,658.521 1519.76,667.408 1517.84,671.685C1517.84,671.685 1511.79,662.481 1503.92,651.656C1498.66,644.417 1494.45,636.573 1494.06,629.82C1493.61,622.105 1496.78,615.188 1505.55,613.993L1505.55,613.993Z" style="fill:rgb(212,0,0);fill-rule:nonzero;"/>
            </g>
            <g id="path8666" transform="matrix(1,0,0,1,-1090.39,-113.661)">
                <path d="M1548.47,736.755C1546.88,740.227 1546.71,746.16 1551.44,746.963C1555,747.421 1556.45,745.764 1556.74,743.221C1556.88,742.478 1557.3,742.432 1557.43,743.279C1557.64,745.888 1560.22,747.412 1562.24,747.029C1567.77,746.084 1567.44,740.001 1565.64,735.874C1562.91,730.394 1560.04,726.936 1557.39,721.422C1554.36,727.163 1550.89,731.827 1548.47,736.755L1548.47,736.755Z" style="fill:rgb(212,0,0);fill-rule:nonzero;"/>
            </g>
            <g id="path8620" transform="matrix(1,0,0,1,-1090.39,-113.661)">
                <path d="M1505.55,770.084C1512.69,770.559 1516.41,764.457 1517.14,759.648C1517.57,758.884 1517.81,759.099 1517.98,759.69C1518.33,765.864 1523.85,770.91 1528.97,770.22C1537.3,770.112 1542.36,760.845 1540.94,753.002C1539.2,743.42 1534.04,737.651 1530.13,731.709C1525.71,725.556 1519.76,716.669 1517.84,712.392C1517.84,712.392 1511.79,721.596 1503.92,732.421C1498.66,739.66 1494.45,747.504 1494.06,754.257C1493.61,761.972 1496.78,768.889 1505.55,770.084L1505.55,770.084Z" style="fill:rgb(212,0,0);fill-rule:nonzero;"/>
            </g>
            <g id="path8622" transform="matrix(1,0,0,1,-1090.39,-113.661)">
                <path d="M1394.01,770.084C1401.16,770.559 1404.88,764.457 1405.61,759.648C1406.04,758.884 1406.28,759.099 1406.44,759.69C1406.79,765.864 1412.32,770.91 1417.44,770.22C1425.77,770.112 1430.83,760.845 1429.4,753.002C1427.66,743.42 1422.5,737.651 1418.6,731.709C1414.17,725.556 1408.22,716.669 1406.31,712.392C1406.31,712.392 1400.26,721.596 1392.39,732.421C1387.13,739.66 1382.91,747.504 1382.52,754.257C1382.08,761.972 1385.24,768.889 1394.01,770.084L1394.01,770.084Z" style="fill:rgb(212,0,0);fill-rule:nonzero;"/>
            </g>
        </g>
    </g>
</svg>
