<svg clip-rule="evenodd" fill-rule="evenodd" viewBox="0 0 228 316" xmlns="http://www.w3.org/2000/svg"><path d="m6481.16-2424.37c0-5.87-4.77-10.63-10.63-10.63h-201.97c-5.87 0-10.63 4.76-10.63 10.63v290.55c0 5.87 4.76 10.63 10.63 10.63h201.97c5.86 0 10.63-4.76 10.63-10.63z" fill="#fff" stroke="#bfbfbf" transform="translate(-6255.878 2437.059)"/><g fill-rule="nonzero"><path d="m2971.74-1386.82c.53-14.53 5.88-19.99 16.42-27.59-8.4-5.97-11.95-14.74-11.23-22.22 1.73-18.09 15.98-27.14 31.5-26.75 15.53.4 28.92 12.5 29.96 25.65.91 11.44-2.56 16.95-10.82 22.97 9.81 8.11 16.08 13.45 15.84 27.77s-12.64 31.36-34.26 31.88-37.94-17.17-37.41-31.71zm60.36.05c.93-13.16-10.92-22.04-24.29-22.17-13.03-.14-24.68 10.78-24.68 22.59 0 12.7 15.15 19.59 24.95 19.63 11.89.04 23.22-8.71 24.02-20.05zm-4.27-47.08c.25-11.08-10.16-19.03-20.89-18.71-9.55.29-19.67 7.45-19.68 16.71 0 11.6 11.5 17.38 21.32 17.6 8.9.2 19.05-7.22 19.25-15.6z" transform="matrix(.301062 0 0 .301062 -886.532 457.122)"/><path d="m3667.75-600.564c-.53 14.533-5.88 19.991-16.42 27.6 8.4 5.963 11.95 14.737 11.23 22.212-1.73 18.092-15.97 27.144-31.5 26.75s-28.92-12.501-29.96-25.649c-.91-11.437 2.56-16.948 10.82-22.969-9.81-8.109-16.08-13.452-15.84-27.769.24-14.316 12.64-31.355 34.26-31.878s37.94 17.169 37.41 31.703zm-60.36-.048c-.93 13.16 10.92 22.04 24.29 22.178 13.03.134 24.68-10.784 24.68-22.6 0-12.692-15.16-19.586-24.95-19.622-11.89-.044-23.23 8.709-24.02 20.044zm4.27 47.078c-.25 11.086 10.16 19.031 20.89 18.711 9.55-.284 19.67-7.443 19.67-16.71.02-11.592-11.5-17.38-21.31-17.598-8.9-.198-19.05 7.223-19.25 15.597z" transform="matrix(.301062 0 0 .301062 -886.532 457.122)"/><path d="m1354.77 674.906c2.87-5.776 4.97-11.701 5.34-18.038.34-2.331-1.07-2.37-1.28-.728-4.08 15.593-25.77 11.37-25.02-3.297.6-11.894 12.42-14.453 18.58-10.564 2.43 1.433 2.3.574.97-.912-9.16-10.211-3.61-23.362 8.76-23.602 13.38.793 16.85 14.87 8.64 23.148-1.02.995-3.28 4.191.13 1.956 8.28-5.888 19.78.443 19.55 9.521-.43 16.739-20.84 17.987-25.2 4.006-.42-1.55-1.63-2.329-1.3.304.61 4.767 1.86 11.953 5.44 18.206z" transform="translate(-1196.67 -587.897)"/><path d="m1354.77 775.154c2.87-5.775 4.97-11.701 5.34-18.037.34-2.332-1.07-2.371-1.28-.729-4.08 15.593-25.77 11.371-25.02-3.296.6-11.895 12.42-14.454 18.58-10.565 2.43 1.433 2.3.575.97-.912-9.16-10.211-3.61-23.361 8.76-23.602 13.38.793 16.85 14.87 8.64 23.148-1.02.995-3.28 4.192.13 1.957 8.28-5.888 19.78.442 19.55 9.52-.43 16.739-20.84 17.988-25.2 4.006-.42-1.55-1.63-2.328-1.3.304.61 4.767 1.86 11.954 5.44 18.206z" transform="translate(-1196.67 -587.897)"/><path d="m1251.23 775.154c2.88-5.775 4.98-11.701 5.35-18.037.34-2.332-1.07-2.371-1.29-.729-4.07 15.593-25.76 11.371-25.01-3.296.6-11.895 12.41-14.454 18.58-10.565 2.43 1.433 2.29.575.97-.912-9.16-10.211-3.62-23.361 8.76-23.602 13.38.793 16.85 14.87 8.64 23.148-1.02.995-3.28 4.192.12 1.957 8.29-5.888 19.79.442 19.56 9.52-.44 16.739-20.84 17.988-25.21 4.006-.42-1.55-1.63-2.328-1.29.304.6 4.767 1.86 11.954 5.44 18.206z" transform="translate(-1196.67 -587.897)"/><path d="m1301.41 725.03c2.88-5.776 4.98-11.701 5.35-18.037.35-2.332-1.07-2.371-1.28-.729-4.08 15.593-25.77 11.37-25.02-3.296.6-11.895 12.42-14.454 18.58-10.565 2.43 1.433 2.3.575.97-.912-9.16-10.211-3.61-23.362 8.76-23.602 13.38.793 16.85 14.87 8.64 23.148-1.02.995-3.28 4.191.13 1.956 8.28-5.888 19.78.443 19.55 9.521-.43 16.739-20.84 17.987-25.2 4.006-.42-1.55-1.63-2.329-1.3.304.61 4.767 1.86 11.954 5.44 18.206z" transform="translate(-1196.67 -587.897)"/><path d="m1251.23 674.906c2.88-5.776 4.98-11.701 5.35-18.038.34-2.331-1.07-2.37-1.29-.728-4.07 15.593-25.76 11.37-25.01-3.297.6-11.894 12.41-14.453 18.58-10.564 2.43 1.433 2.29.574.97-.912-9.16-10.211-3.62-23.362 8.76-23.602 13.38.793 16.85 14.87 8.64 23.148-1.02.995-3.28 4.191.12 1.956 8.29-5.888 19.79.443 19.56 9.521-.44 16.739-20.84 17.987-25.21 4.006-.42-1.55-1.63-2.329-1.29.304.6 4.767 1.86 11.953 5.44 18.206z" transform="translate(-1196.67 -587.897)"/><path d="m1369.47 816.612c-2.88 5.775-4.98 11.701-5.35 18.037-.34 2.332 1.07 2.371 1.29.728 4.07-15.592 25.76-11.37 25.01 3.297-.6 11.895-12.41 14.454-18.58 10.565-2.43-1.433-2.29-.575-.97.911 9.16 10.212 3.61 23.362-8.76 23.603-13.38-.794-16.85-14.87-8.64-23.149 1.02-.994 3.28-4.191-.12-1.956-8.29 5.888-19.79-.443-19.56-9.521.44-16.739 20.84-17.987 25.21-4.005.42 1.55 1.62 2.328 1.29-.305-.6-4.766-1.86-11.953-5.44-18.205z" transform="translate(-1196.67 -587.897)"/><path d="m1316.12 767.312c-2.88 5.776-4.98 11.701-5.35 18.038-.34 2.331 1.07 2.37 1.29.728 4.07-15.593 25.76-11.37 25.01 3.297-.6 11.895-12.42 14.454-18.58 10.564-2.43-1.433-2.29-.574-.97.912 9.16 10.211 3.61 23.362-8.76 23.602-13.38-.793-16.85-14.869-8.64-23.148 1.02-.994 3.28-4.191-.12-1.956-8.29 5.888-19.79-.443-19.56-9.521.44-16.739 20.84-17.987 25.21-4.006.42 1.55 1.63 2.329 1.29-.304-.6-4.767-1.85-11.953-5.44-18.206z" transform="translate(-1196.67 -587.897)"/><path d="m1265.93 816.612c-2.87 5.775-4.97 11.701-5.34 18.037-.34 2.332 1.07 2.371 1.28.728 4.08-15.592 25.77-11.37 25.02 3.297-.6 11.895-12.42 14.454-18.58 10.565-2.43-1.433-2.3-.575-.97.911 9.16 10.212 3.61 23.362-8.76 23.603-13.38-.794-16.85-14.87-8.64-23.149 1.02-.994 3.28-4.191-.13-1.956-8.28 5.888-19.78-.443-19.55-9.521.43-16.739 20.84-17.987 25.2-4.005.42 1.55 1.63 2.328 1.3-.305-.61-4.766-1.86-11.953-5.44-18.205z" transform="translate(-1196.67 -587.897)"/><path d="m1212.18 667.289c1.2-2.445 2.36-4.721 2.99-7.401.42-2.528-.44-1.589-.93.068-.72 2.298-2.72 3.344-4.58 3.369-3.37.046-5.05-2.604-4.95-5.454-.36-2.998 2.67-5.12 4.97-4.957 1.72.123 3.22 1.052 4.13 1.775.59.316 1.23.455.34-.358-1.67-1.833-3.07-2.964-3.04-5.711.03-2.579 2.23-5.268 5.15-5.184 3.65.106 5.32 2.891 5.31 5.481-.01 1.888-.96 3.626-2.42 4.703-.94.766-.67 1.339.4.614 1.04-.892 2.27-1.282 3.55-1.309 3.49-.055 4.85 2.961 4.65 5.764-.18 2.625-2.42 5.328-5.37 5.022-2.63-.302-4.01-2.51-4.8-4.777-.26-.695-.68-.883-.67.153.61 5.058 2.49 8.205 2.51 8.202z" transform="translate(-1196.67 -587.897)"/><path d="m90.785 1369.11c-1.192 2.45-2.352 4.72-2.985 7.4-.419 2.53.439 1.59.926-.07.721-2.29 2.722-3.34 4.58-3.36 3.371-.05 5.052 2.6 4.948 5.45.368 3-2.671 5.12-4.962 4.96-1.723-.13-3.224-1.06-4.133-1.78-.596-.32-1.234-.45-.345.36 1.678 1.83 3.077 2.96 3.046 5.71-.029 2.58-2.234 5.27-5.155 5.18-3.652-.1-5.312-2.89-5.304-5.48.01-1.88.954-3.62 2.412-4.7.944-.77.679-1.34-.398-.61-1.035.89-2.267 1.28-3.545 1.31-3.49.05-4.855-2.97-4.655-5.77.187-2.62 2.423-5.33 5.369-5.02 2.631.3 4.013 2.51 4.805 4.78.262.69.676.88.665-.16-.608-5.05-2.492-8.2-2.506-8.2z" transform="translate(121.041 -1128.666)"/></g></svg>