<svg clip-rule="evenodd" fill-rule="evenodd" viewBox="0 0 228 316" xmlns="http://www.w3.org/2000/svg"><path d="m6481.16-2424.37c0-5.87-4.77-10.63-10.63-10.63h-201.97c-5.87 0-10.63 4.76-10.63 10.63v290.55c0 5.87 4.76 10.63 10.63 10.63h201.97c5.86 0 10.63-4.76 10.63-10.63z" fill="#fff" stroke="#bfbfbf" transform="translate(-6255.878 2437.059)"/><g fill="#d40000" fill-rule="nonzero"><path d="m2971.74-1386.82c.53-14.53 5.88-19.99 16.42-27.59-8.4-5.97-11.95-14.74-11.23-22.22 1.73-18.09 15.98-27.14 31.5-26.75 15.53.4 28.92 12.5 29.96 25.65.91 11.44-2.56 16.95-10.82 22.97 9.81 8.11 16.08 13.45 15.84 27.77s-12.64 31.36-34.26 31.88-37.94-17.17-37.41-31.71zm60.36.05c.93-13.16-10.92-22.04-24.29-22.17-13.03-.14-24.68 10.78-24.68 22.59 0 12.7 15.15 19.59 24.95 19.63 11.89.04 23.22-8.71 24.02-20.05zm-4.27-47.08c.25-11.08-10.16-19.03-20.89-18.71-9.55.29-19.67 7.45-19.68 16.71 0 11.6 11.5 17.38 21.32 17.6 8.9.2 19.05-7.22 19.25-15.6z" transform="matrix(.301062 0 0 .301062 -885.78 457.122)"/><path d="m3667.75-600.564c-.53 14.533-5.88 19.991-16.42 27.6 8.4 5.963 11.95 14.737 11.23 22.212-1.73 18.092-15.97 27.144-31.5 26.75s-28.92-12.501-29.96-25.649c-.91-11.437 2.56-16.948 10.82-22.969-9.81-8.109-16.08-13.452-15.84-27.769.24-14.316 12.64-31.355 34.26-31.878s37.94 17.169 37.41 31.703zm-60.36-.048c-.93 13.16 10.92 22.04 24.29 22.178 13.03.134 24.68-10.784 24.68-22.6 0-12.692-15.16-19.586-24.95-19.622-11.89-.044-23.23 8.709-24.02 20.044zm4.27 47.078c-.25 11.086 10.16 19.031 20.89 18.711 9.55-.284 19.67-7.443 19.67-16.71.02-11.592-11.5-17.38-21.31-17.598-8.9-.198-19.05 7.223-19.25 15.597z" transform="matrix(.301062 0 0 .301062 -885.78 457.122)"/><path d="m1583.64 546.847c-1.59-3.472-1.76-9.406 2.97-10.208 3.56-.459 5.01 1.198 5.3 3.742.14.743.56.788.69-.059.21-2.609 2.79-4.132 4.81-3.75 5.52.946 5.2 7.029 3.4 11.156-2.73 5.479-5.6 8.938-8.25 14.452-3.04-5.741-6.51-10.405-8.92-15.333z" transform="translate(-1571.998 -481.882)"/><path d="m1618.61 511.574c7.15-.475 10.87 5.627 11.6 10.436.43.764.67.549.84-.042.35-6.174 5.87-11.22 10.99-10.53 8.33.108 13.39 9.375 11.97 17.219-1.74 9.581-6.9 15.351-10.81 21.293-4.42 6.152-10.37 15.039-12.29 19.316 0 0-6.05-9.204-13.92-20.029-5.26-7.239-9.47-15.082-9.87-21.835-.44-7.716 2.72-14.632 11.49-15.828z" transform="translate(-1571.998 -481.882)"/><path d="m1728.15 511.574c7.14-.475 10.87 5.627 11.59 10.436.44.764.67.549.84-.042.35-6.174 5.87-11.22 10.99-10.53 8.33.108 13.39 9.375 11.97 17.219-1.74 9.581-6.9 15.351-10.81 21.293-4.42 6.152-10.37 15.039-12.29 19.316 0 0-6.05-9.204-13.92-20.029-5.26-7.239-9.47-15.082-9.86-21.835-.45-7.716 2.72-14.632 11.49-15.828z" transform="translate(-1571.998 -481.882)"/><path d="m1672.8 561.698c7.14-.474 10.87 5.627 11.59 10.436.44.764.67.549.84-.042.35-6.174 5.87-11.22 10.99-10.53 8.33.108 13.39 9.375 11.97 17.219-1.74 9.581-6.9 15.351-10.81 21.293-4.42 6.152-10.37 15.039-12.29 19.317 0 0-6.05-9.205-13.92-20.03-5.26-7.238-9.47-15.082-9.86-21.835-.45-7.716 2.72-14.632 11.49-15.828z" transform="translate(-1571.998 -481.882)"/><path d="m1618.61 611.822c7.15-.474 10.87 5.628 11.6 10.437.43.764.67.548.84-.043.35-6.174 5.87-11.22 10.99-10.53 8.33.108 13.39 9.376 11.97 17.219-1.74 9.582-6.9 15.351-10.81 21.293-4.42 6.152-10.37 15.04-12.29 19.317 0 0-6.05-9.205-13.92-20.03-5.26-7.238-9.47-15.082-9.87-21.835-.44-7.716 2.72-14.632 11.49-15.828z" transform="translate(-1571.998 -481.882)"/><path d="m1728.15 611.822c7.14-.474 10.87 5.628 11.59 10.437.44.764.67.548.84-.043.35-6.174 5.87-11.22 10.99-10.53 8.33.108 13.39 9.376 11.97 17.219-1.74 9.582-6.9 15.351-10.81 21.293-4.42 6.152-10.37 15.04-12.29 19.317 0 0-6.05-9.205-13.92-20.03-5.26-7.238-9.47-15.082-9.86-21.835-.45-7.716 2.72-14.632 11.49-15.828z" transform="translate(-1571.998 -481.882)"/><path d="m1728.15 767.914c7.14.475 10.87-5.627 11.59-10.436.44-.764.67-.549.84.042.35 6.174 5.87 11.22 10.99 10.53 8.33-.108 13.39-9.375 11.97-17.219-1.74-9.581-6.9-15.351-10.81-21.293-4.42-6.152-10.37-15.039-12.29-19.317 0 0-6.05 9.205-13.92 20.03-5.26 7.239-9.47 15.082-9.86 21.835-.45 7.716 2.72 14.632 11.49 15.828z" transform="translate(-1571.998 -481.882)"/><path d="m1672.8 718.615c7.14.474 10.87-5.628 11.59-10.437.44-.763.67-.548.84.043.35 6.174 5.87 11.22 10.99 10.53 8.33-.108 13.39-9.376 11.97-17.219-1.74-9.581-6.9-15.351-10.81-21.293-4.42-6.152-10.37-15.039-12.29-19.317 0 0-6.05 9.205-13.92 20.03-5.26 7.238-9.47 15.082-9.86 21.835-.45 7.716 2.72 14.632 11.49 15.828z" transform="translate(-1571.998 -481.882)"/><path d="m1618.61 767.914c7.15.475 10.87-5.627 11.6-10.436.43-.764.67-.549.84.042.35 6.174 5.87 11.22 10.99 10.53 8.33-.108 13.39-9.375 11.97-17.219-1.74-9.581-6.9-15.351-10.81-21.293-4.42-6.152-10.37-15.039-12.29-19.317 0 0-6.05 9.205-13.92 20.03-5.26 7.239-9.47 15.082-9.87 21.835-.44 7.716 2.72 14.632 11.49 15.828z" transform="translate(-1571.998 -481.882)"/><path d="m1772.45 737.705c-1.58 3.472-1.76 9.405 2.97 10.208 3.56.458 5.01-1.199 5.3-3.742.14-.743.56-.789.7.058.2 2.609 2.78 4.133 4.8 3.75 5.53-.945 5.21-7.028 3.4-11.156-2.73-5.479-5.6-8.937-8.24-14.451-3.04 5.741-6.51 10.405-8.93 15.333z" transform="translate(-1571.998 -481.882)"/></g></svg>