<svg clip-rule="evenodd" fill-rule="evenodd" viewBox="0 0 228 316" xmlns="http://www.w3.org/2000/svg"><path d="m6481.16-2424.37c0-5.87-4.77-10.63-10.63-10.63h-201.97c-5.87 0-10.63 4.76-10.63 10.63v290.55c0 5.87 4.76 10.63 10.63 10.63h201.97c5.86 0 10.63-4.76 10.63-10.63z" fill="#fff" stroke="#bfbfbf" transform="translate(-6255.878 2437.059)"/><g fill-rule="nonzero"><path d="m2971.74-1386.82c.53-14.53 5.88-19.99 16.42-27.59-8.4-5.97-11.95-14.74-11.23-22.22 1.73-18.09 15.98-27.14 31.5-26.75 15.53.4 28.92 12.5 29.96 25.65.91 11.44-2.56 16.95-10.82 22.97 9.81 8.11 16.08 13.45 15.84 27.77s-12.64 31.36-34.26 31.88-37.94-17.17-37.41-31.71zm60.36.05c.93-13.16-10.92-22.04-24.29-22.17-13.03-.14-24.68 10.78-24.68 22.59 0 12.7 15.15 19.59 24.95 19.63 11.89.04 23.22-8.71 24.02-20.05zm-4.27-47.08c.25-11.08-10.16-19.03-20.89-18.71-9.55.29-19.67 7.45-19.68 16.71 0 11.6 11.5 17.38 21.32 17.6 8.9.2 19.05-7.22 19.25-15.6z" transform="matrix(.301062 0 0 .301062 -885.78 457.122)"/><path d="m3667.75-600.564c-.53 14.533-5.88 19.991-16.42 27.6 8.4 5.963 11.95 14.737 11.23 22.212-1.73 18.092-15.97 27.144-31.5 26.75s-28.92-12.501-29.96-25.649c-.91-11.437 2.56-16.948 10.82-22.969-9.81-8.109-16.08-13.452-15.84-27.769.24-14.316 12.64-31.355 34.26-31.878s37.94 17.169 37.41 31.703zm-60.36-.048c-.93 13.16 10.92 22.04 24.29 22.178 13.03.134 24.68-10.784 24.68-22.6 0-12.692-15.16-19.586-24.95-19.622-11.89-.044-23.23 8.709-24.02 20.044zm4.27 47.078c-.25 11.086 10.16 19.031 20.89 18.711 9.55-.284 19.67-7.443 19.67-16.71.02-11.592-11.5-17.38-21.31-17.598-8.9-.198-19.05 7.223-19.25 15.597z" transform="matrix(.301062 0 0 .301062 -885.78 457.122)"/><path d="m1250.44 657.786c.02-2.026-1.58-2.065-1.57-.586-.13 7.429-6.41 11.086-10.98 10.219-7.03-1.338-9.28-8.322-9.21-12.436.21-12.696 12.99-22.058 24.52-38.334 8.45 14.69 22.4 26.229 23.22 37.585 1.1 15.099-18.01 20.73-20.74 3.133-.17-1.243-1.63-1.801-1.52-.065.41 4.823-.18 6.832 5.26 18.72h-14.22c3.15-5.555 5.03-12.375 5.24-18.236z" transform="translate(-1195.918 -587.897)"/><path d="m1361.98 657.786c.01-2.026-1.59-2.065-1.57-.586-.14 7.429-6.42 11.086-10.98 10.219-7.04-1.338-9.29-8.322-9.22-12.436.21-12.696 12.99-22.058 24.52-38.334 8.45 14.69 22.4 26.229 23.22 37.585 1.1 15.099-18 20.73-20.73 3.133-.18-1.243-1.64-1.801-1.53-.065.42 4.823-.17 6.832 5.27 18.72h-14.22c3.14-5.555 5.02-12.375 5.24-18.236z" transform="translate(-1195.918 -587.897)"/><path d="m1306.63 707.91c.01-2.026-1.59-2.064-1.57-.586-.14 7.429-6.42 11.087-10.98 10.219-7.04-1.338-9.28-8.322-9.22-12.435.21-12.697 12.99-22.059 24.52-38.335 8.45 14.691 22.4 26.23 23.23 37.586 1.09 15.098-18.01 20.729-20.74 3.132-.18-1.243-1.64-1.801-1.53-.065.42 4.823-.17 6.832 5.27 18.72h-14.22c3.15-5.555 5.02-12.375 5.24-18.236z" transform="translate(-1195.918 -587.897)"/><path d="m1250.44 758.034c.02-2.026-1.58-2.064-1.57-.586-.13 7.429-6.41 11.087-10.98 10.219-7.03-1.338-9.28-8.322-9.21-12.435.21-12.697 12.99-22.059 24.52-38.335 8.45 14.691 22.4 26.23 23.22 37.586 1.1 15.098-18.01 20.73-20.74 3.133-.17-1.243-1.63-1.802-1.52-.065.41 4.822-.18 6.831 5.26 18.719h-14.22c3.15-5.555 5.03-12.375 5.24-18.236z" transform="translate(-1195.918 -587.897)"/><path d="m1361.98 758.034c.01-2.026-1.59-2.064-1.57-.586-.14 7.429-6.42 11.087-10.98 10.219-7.04-1.338-9.29-8.322-9.22-12.435.21-12.697 12.99-22.059 24.52-38.335 8.45 14.691 22.4 26.23 23.22 37.586 1.1 15.098-18 20.73-20.73 3.133-.18-1.243-1.64-1.802-1.53-.065.42 4.822-.17 6.831 5.27 18.719h-14.22c3.14-5.555 5.02-12.375 5.24-18.236z" transform="translate(-1195.918 -587.897)"/><path d="m1361.99 833.757c.01 2.026-1.59 2.064-1.57.586-.14-7.429-6.42-11.087-10.98-10.219-7.04 1.338-9.29 8.322-9.22 12.436.21 12.696 12.99 22.058 24.52 38.334 8.45-14.691 22.4-26.23 23.22-37.586 1.1-15.098-18-20.729-20.73-3.132-.18 1.243-1.64 1.801-1.53.065.42-4.823-.17-6.832 5.27-18.72h-14.22c3.15 5.555 5.02 12.375 5.24 18.236z" transform="translate(-1195.918 -587.897)"/><path d="m1306.64 784.458c.01 2.025-1.59 2.064-1.57.586-.14-7.429-6.42-11.087-10.98-10.219-7.04 1.337-9.28 8.322-9.22 12.435.21 12.697 12.99 22.059 24.52 38.335 8.45-14.691 22.4-26.23 23.23-37.586 1.09-15.098-18.01-20.73-20.74-3.133-.18 1.243-1.64 1.801-1.53.065.42-4.822-.17-6.831 5.27-18.719h-14.22c3.15 5.555 5.02 12.375 5.24 18.236z" transform="translate(-1195.918 -587.897)"/><path d="m1250.45 833.757c.02 2.026-1.58 2.064-1.57.586-.13-7.429-6.41-11.087-10.98-10.219-7.03 1.338-9.28 8.322-9.21 12.436.21 12.696 12.99 22.058 24.52 38.334 8.45-14.691 22.4-26.23 23.22-37.586 1.1-15.098-18.01-20.729-20.73-3.132-.18 1.243-1.64 1.801-1.53.065.41-4.823-.17-6.832 5.26-18.72h-14.22c3.15 5.555 5.03 12.375 5.24 18.236z" transform="translate(-1195.918 -587.897)"/><path d="m1215.8 661.918c.01-.872-.9-.465-1.02-.191-1.16 1.986-2.86 2.448-4.55 1.732-1.66-.709-2.6-2.28-2.45-4.522.31-3.438 3.04-7.2 4.36-9.326 1.25-1.93 2.62-4.222 4.07-7.154 1.7 3.363 2.56 4.32 4.41 7.391 1.62 2.705 3.89 5.353 4.06 8.623 0 2.484-1.04 4.831-3.39 5.259-1.34.242-2.58-.442-3.51-2.037-.28-.406-.85-.195-.84.362.17 2.093.96 3.983 2.83 6.212h-6.89c1.42-1.576 2.85-3.704 2.92-6.349z" transform="translate(-1195.918 -587.897)"/><path d="m1404.62 834.663c.01.872-.9.465-1.02.19-1.17-1.985-2.87-2.447-4.55-1.731-1.67.709-2.6 2.28-2.45 4.522.31 3.438 3.03 7.199 4.35 9.326 1.25 1.93 2.63 4.222 4.08 7.154 1.7-3.363 2.56-4.32 4.4-7.391 1.63-2.705 3.9-5.353 4.07-8.623 0-2.485-1.05-4.832-3.4-5.259-1.33-.242-2.58.441-3.5 2.037-.28.406-.85.194-.84-.362.16-2.093.95-3.983 2.83-6.212h-6.89c1.41 1.576 2.85 3.704 2.92 6.349z" transform="translate(-1195.918 -587.897)"/></g></svg>