<svg clip-rule="evenodd" fill-rule="evenodd" viewBox="0 0 228 316" xmlns="http://www.w3.org/2000/svg"><path d="m6704.39-2424.37c0-5.87-4.77-10.63-10.63-10.63h-201.97c-5.87 0-10.63 4.76-10.63 10.63v290.55c0 5.87 4.76 10.63 10.63 10.63h201.97c5.86 0 10.63-4.76 10.63-10.63z" fill="#fff" stroke="#bfbfbf" transform="translate(-6479.098 2437.059)"/><g fill-rule="nonzero"><path d="m3799.82-1365.61 10.05-3.13c3.79 9.95 11.46 12.89 19.57 12.26 14.55-1.13 19.38-17.1 20.48-31.22-5.68 5.89-14.2 8.88-21.46 8.59-23.19-1.22-29.13-19.44-29.34-38.53-.65-16.1 6.13-27.76 17.76-33.1 6.15-2.71 20.24-2.71 26.44.5 14.22 7.36 19.49 20.09 18.53 50.46.02 24.99-5.4 54.1-32.68 54.72-15.76 2.14-27.74-9.9-29.35-20.55zm39.48-27.38c4.73-2.94 7.4-5.7 9.53-9.84 1.74-3.39 2.33-5.16 1.83-12.19-1.28-18.12-10.96-28.39-24.99-26.35-7.83 1.14-12.1 5.44-14.56 13.45-4.54 14.77 1.21 32.07 11.98 36.06 4.86 1.79 12.34 1.27 16.21-1.13z" transform="matrix(.301062 0 0 .301062 -1133.699 452.537)"/><path d="m4484.18-591.314-10.06 3.128c-3.79-9.949-11.45-12.883-19.56-12.253-14.56 1.132-19.39 17.102-20.48 31.221 5.67-5.893 14.2-8.887 21.45-8.595 23.2 1.227 29.13 19.446 29.35 38.535.64 16.097-6.14 27.754-17.77 33.094-6.15 2.712-20.24 2.712-26.43-.494-14.23-7.361-19.49-20.091-18.54-50.458-.01-24.991 5.4-54.099 32.68-54.723 15.77-2.139 27.74 9.898 29.36 20.545zm-39.49 27.382c-4.73 2.941-7.4 5.7-9.52 9.838-1.74 3.397-2.33 5.159-1.83 12.192 1.27 18.121 10.95 28.392 24.99 26.352 7.83-1.139 12.1-5.442 14.56-13.446 4.53-14.778-1.22-32.077-11.99-36.062-4.86-1.797-12.34-1.277-16.21 1.126z" transform="matrix(.301062 0 0 .301062 -1133.699 452.537)"/><path d="m1576.29 741.275c2.87-5.776 4.97-11.701 5.34-18.037.35-2.332-1.07-2.371-1.28-.729-4.08 15.593-25.77 11.37-25.02-3.297.6-11.894 12.42-14.453 18.58-10.564 2.43 1.433 2.3.575.97-.912-9.16-10.211-3.61-23.362 8.76-23.602 13.38.793 16.85 14.87 8.64 23.148-1.02.995-3.28 4.191.13 1.956 8.28-5.888 19.78.443 19.55 9.521-.43 16.739-20.84 17.987-25.2 4.006-.42-1.55-1.63-2.329-1.3.304.61 4.767 1.86 11.954 5.44 18.206z" transform="translate(-1419.198 -587.897)"/><path d="m1525.46 768.428c2.88-5.776 4.98-11.701 5.35-18.038.34-2.331-1.07-2.371-1.28-.728-4.08 15.592-25.77 11.37-25.02-3.297.6-11.895 12.42-14.454 18.58-10.564 2.43 1.432 2.3.574.97-.912-9.16-10.212-3.61-23.362 8.76-23.603 13.38.794 16.85 14.87 8.64 23.149-1.02.994-3.28 4.191.13 1.956 8.28-5.888 19.78.443 19.55 9.521-.43 16.739-20.84 17.987-25.2 4.006-.42-1.551-1.63-2.329-1.3.304.61 4.766 1.86 11.953 5.44 18.206z" transform="translate(-1419.198 -587.897)"/><path d="m1474.75 741.275c2.88-5.776 4.98-11.701 5.35-18.037.34-2.332-1.07-2.371-1.29-.729-4.07 15.593-25.76 11.37-25.01-3.297.6-11.894 12.41-14.453 18.58-10.564 2.43 1.433 2.29.575.97-.912-9.16-10.211-3.61-23.362 8.76-23.602 13.38.793 16.85 14.87 8.64 23.148-1.02.995-3.28 4.191.12 1.956 8.29-5.888 19.79.443 19.56 9.521-.44 16.739-20.84 17.987-25.21 4.006-.42-1.55-1.63-2.329-1.29.304.6 4.767 1.86 11.954 5.44 18.206z" transform="translate(-1419.198 -587.897)"/><path d="m1576.29 675.944c2.87-5.775 4.97-11.701 5.34-18.037.35-2.332-1.07-2.371-1.28-.729-4.08 15.593-25.77 11.371-25.02-3.296.6-11.895 12.42-14.454 18.58-10.565 2.43 1.433 2.3.575.97-.911-9.16-10.212-3.61-23.362 8.76-23.603 13.38.794 16.85 14.87 8.64 23.148-1.02.995-3.28 4.192.13 1.957 8.28-5.888 19.78.443 19.55 9.52-.43 16.739-20.84 17.988-25.2 4.006-.42-1.55-1.63-2.328-1.3.305.61 4.766 1.86 11.953 5.44 18.205z" transform="translate(-1419.198 -587.897)"/><path d="m1474.75 675.944c2.88-5.775 4.98-11.701 5.35-18.037.34-2.332-1.07-2.371-1.29-.729-4.07 15.593-25.76 11.371-25.01-3.296.6-11.895 12.41-14.454 18.58-10.565 2.43 1.433 2.29.575.97-.911-9.16-10.212-3.61-23.362 8.76-23.603 13.38.794 16.85 14.87 8.64 23.148-1.02.995-3.28 4.192.12 1.957 8.29-5.888 19.79.443 19.56 9.52-.44 16.739-20.84 17.988-25.21 4.006-.42-1.55-1.63-2.328-1.29.305.6 4.766 1.86 11.953 5.44 18.205z" transform="translate(-1419.198 -587.897)"/><path d="m1489.45 816.136c-2.87 5.775-4.97 11.701-5.34 18.037-.35 2.332 1.07 2.371 1.28.729 4.08-15.593 25.77-11.371 25.02 3.296-.6 11.895-12.42 14.454-18.58 10.565-2.44-1.433-2.3-.575-.97.912 9.16 10.211 3.61 23.361-8.76 23.602-13.38-.793-16.85-14.87-8.64-23.148 1.02-.995 3.28-4.191-.13-1.956-8.28 5.888-19.78-.443-19.55-9.521.43-16.739 20.84-17.988 25.2-4.006.42 1.55 1.63 2.329 1.3-.304-.61-4.767-1.86-11.954-5.44-18.206z" transform="translate(-1419.198 -587.897)"/><path d="m1590.99 816.136c-2.88 5.775-4.98 11.701-5.35 18.037-.34 2.332 1.07 2.371 1.29.729 4.07-15.593 25.76-11.371 25.01 3.296-.6 11.895-12.41 14.454-18.58 10.565-2.43-1.433-2.29-.575-.97.912 9.16 10.211 3.61 23.361-8.76 23.602-13.38-.793-16.85-14.87-8.64-23.148 1.02-.995 3.28-4.191-.12-1.956-8.29 5.888-19.79-.443-19.56-9.521.44-16.739 20.84-17.988 25.21-4.006.42 1.55 1.62 2.329 1.29-.304-.6-4.767-1.86-11.954-5.44-18.206z" transform="translate(-1419.198 -587.897)"/><path d="m1590.99 751.031c-2.88 5.775-4.98 11.701-5.35 18.037-.34 2.332 1.07 2.371 1.29.728 4.07-15.592 25.76-11.37 25.01 3.297-.6 11.895-12.41 14.454-18.58 10.565-2.43-1.433-2.29-.575-.97.911 9.16 10.212 3.61 23.362-8.76 23.603-13.38-.794-16.85-14.87-8.64-23.149 1.02-.994 3.28-4.191-.12-1.956-8.29 5.888-19.79-.443-19.56-9.521.44-16.739 20.84-17.987 25.21-4.005.42 1.55 1.62 2.328 1.29-.305-.6-4.766-1.86-11.953-5.44-18.205z" transform="translate(-1419.198 -587.897)"/><path d="m1489.45 751.031c-2.87 5.775-4.97 11.701-5.34 18.037-.35 2.332 1.07 2.371 1.28.728 4.08-15.592 25.77-11.37 25.02 3.297-.6 11.895-12.42 14.454-18.58 10.565-2.44-1.433-2.3-.575-.97.911 9.16 10.212 3.61 23.362-8.76 23.603-13.38-.794-16.85-14.87-8.64-23.149 1.02-.994 3.28-4.191-.13-1.956-8.28 5.888-19.78-.443-19.55-9.521.43-16.739 20.84-17.987 25.2-4.005.42 1.55 1.63 2.328 1.3-.305-.61-4.766-1.86-11.953-5.44-18.205z" transform="translate(-1419.198 -587.897)"/><path d="m1434.41 662.704c1.2-2.445 2.36-4.721 2.99-7.401.42-2.528-.44-1.589-.93.068-.72 2.297-2.72 3.344-4.58 3.369-3.37.045-5.05-2.604-4.95-5.454-.36-2.999 2.68-5.12 4.97-4.957 1.72.123 3.22 1.052 4.13 1.775.59.316 1.23.455.34-.358-1.67-1.833-3.07-2.964-3.04-5.711.03-2.579 2.23-5.268 5.15-5.184 3.65.106 5.32 2.89 5.31 5.481-.01 1.888-.96 3.626-2.42 4.703-.94.766-.68 1.339.4.614 1.04-.892 2.27-1.282 3.55-1.31 3.49-.054 4.85 2.962 4.65 5.765-.18 2.625-2.42 5.328-5.37 5.022-2.63-.302-4.01-2.51-4.8-4.777-.26-.695-.68-.883-.67.153.61 5.058 2.49 8.205 2.51 8.202z" transform="translate(-1419.198 -587.897)"/><path d="m1631.32 827.377c-1.2 2.445-2.35 4.72-2.99 7.401-.42 2.527.44 1.588.93-.069.72-2.297 2.72-3.343 4.58-3.369 3.37-.045 5.05 2.605 4.95 5.454.36 2.999-2.67 5.121-4.97 4.957-1.72-.123-3.22-1.052-4.13-1.775-.59-.315-1.23-.455-.34.358 1.67 1.833 3.07 2.965 3.04 5.711-.03 2.579-2.23 5.268-5.15 5.184-3.65-.105-5.32-2.89-5.31-5.481.01-1.888.96-3.626 2.42-4.702.94-.766.68-1.34-.4-.615-1.04.892-2.27 1.283-3.55 1.31-3.49.055-4.85-2.962-4.65-5.764.18-2.626 2.42-5.329 5.37-5.023 2.63.302 4.01 2.51 4.8 4.777.26.695.68.883.67-.153-.61-5.057-2.49-8.204-2.51-8.201z" transform="translate(-1419.198 -587.897)"/></g></svg>