<svg clip-rule="evenodd" fill-rule="evenodd" viewBox="0 0 228 316" xmlns="http://www.w3.org/2000/svg"><path d="m6704.39-2424.37c0-5.87-4.77-10.63-10.63-10.63h-201.97c-5.87 0-10.63 4.76-10.63 10.63v290.55c0 5.87 4.76 10.63 10.63 10.63h201.97c5.86 0 10.63-4.76 10.63-10.63z" fill="#fff" stroke="#bfbfbf" transform="translate(-6479.098 2437.059)"/><g fill="#d40000" fill-rule="nonzero"><path d="m3799.82-1365.61 10.05-3.13c3.79 9.95 11.46 12.89 19.57 12.26 14.55-1.13 19.38-17.1 20.48-31.22-5.68 5.89-14.2 8.88-21.46 8.59-23.19-1.22-29.13-19.44-29.34-38.53-.65-16.1 6.13-27.76 17.76-33.1 6.15-2.71 20.24-2.71 26.44.5 14.22 7.36 19.49 20.09 18.53 50.46.02 24.99-5.4 54.1-32.68 54.72-15.76 2.14-27.74-9.9-29.35-20.55zm39.48-27.38c4.73-2.94 7.4-5.7 9.53-9.84 1.74-3.39 2.33-5.16 1.83-12.19-1.28-18.12-10.96-28.39-24.99-26.35-7.83 1.14-12.1 5.44-14.56 13.45-4.54 14.77 1.21 32.07 11.98 36.06 4.86 1.79 12.34 1.27 16.21-1.13z" transform="matrix(.301062 0 0 .301062 -1133.649 452.537)"/><path d="m4484.18-591.314-10.06 3.128c-3.79-9.949-11.45-12.883-19.56-12.253-14.56 1.132-19.39 17.102-20.48 31.221 5.67-5.893 14.2-8.887 21.45-8.595 23.2 1.227 29.13 19.446 29.35 38.535.64 16.097-6.14 27.754-17.77 33.094-6.15 2.712-20.24 2.712-26.43-.494-14.23-7.361-19.49-20.091-18.54-50.458-.01-24.991 5.4-54.099 32.68-54.723 15.77-2.139 27.74 9.898 29.36 20.545zm-39.49 27.382c-4.73 2.941-7.4 5.7-9.52 9.838-1.74 3.397-2.33 5.159-1.83 12.192 1.27 18.121 10.95 28.392 24.99 26.352 7.83-1.139 12.1-5.442 14.56-13.446 4.53-14.778-1.22-32.077-11.99-36.062-4.86-1.797-12.34-1.277-16.21 1.126z" transform="matrix(.301062 0 0 .301062 -1133.649 452.537)"/><path d="m1805.87 542.262c-1.59-3.472-1.76-9.406 2.97-10.208 3.56-.459 5.01 1.198 5.3 3.742.14.743.56.788.69-.059.21-2.609 2.79-4.132 4.81-3.75 5.52.946 5.2 7.029 3.4 11.156-2.73 5.479-5.6 8.938-8.25 14.452-3.04-5.741-6.51-10.405-8.92-15.333z" transform="translate(-1795.228 -481.882)"/><path d="m1842.13 512.612c7.15-.474 10.87 5.628 11.6 10.437.43.764.67.548.84-.043.35-6.174 5.87-11.22 10.99-10.53 8.33.109 13.39 9.376 11.97 17.219-1.74 9.582-6.9 15.351-10.81 21.293-4.42 6.152-10.37 15.04-12.29 19.317 0 0-6.05-9.205-13.92-20.03-5.26-7.238-9.47-15.082-9.87-21.835-.44-7.716 2.72-14.632 11.49-15.828z" transform="translate(-1795.228 -481.882)"/><path d="m1951.67 512.612c7.14-.474 10.87 5.628 11.59 10.437.43.764.67.548.84-.043.35-6.174 5.87-11.22 10.99-10.53 8.33.109 13.39 9.376 11.97 17.219-1.74 9.582-6.9 15.351-10.81 21.293-4.42 6.152-10.37 15.04-12.29 19.317 0 0-6.05-9.205-13.92-20.03-5.26-7.238-9.47-15.082-9.86-21.835-.45-7.716 2.72-14.632 11.49-15.828z" transform="translate(-1795.228 -481.882)"/><path d="m1951.67 577.943c7.14-.475 10.87 5.627 11.59 10.436.43.764.67.549.84-.042.35-6.174 5.87-11.22 10.99-10.53 8.33.108 13.39 9.375 11.97 17.219-1.74 9.581-6.9 15.351-10.81 21.293-4.42 6.152-10.37 15.039-12.29 19.317 0 0-6.05-9.205-13.92-20.03-5.26-7.239-9.47-15.082-9.86-21.835-.45-7.716 2.72-14.632 11.49-15.828z" transform="translate(-1795.228 -481.882)"/><path d="m1896.85 611.096c7.14-.475 10.87 5.627 11.59 10.436.44.764.67.549.84-.042.35-6.174 5.87-11.22 10.99-10.53 8.33.108 13.39 9.375 11.97 17.218-1.74 9.582-6.9 15.351-10.81 21.293-4.42 6.153-10.37 15.04-12.29 19.317 0 0-6.05-9.204-13.92-20.029-5.26-7.239-9.47-15.083-9.86-21.836-.45-7.715 2.72-14.631 11.49-15.827z" transform="translate(-1795.228 -481.882)"/><path d="m1842.13 577.943c7.15-.475 10.87 5.627 11.6 10.436.43.764.67.549.84-.042.35-6.174 5.87-11.22 10.99-10.53 8.33.108 13.39 9.375 11.97 17.219-1.74 9.581-6.9 15.351-10.81 21.293-4.42 6.152-10.37 15.039-12.29 19.317 0 0-6.05-9.205-13.92-20.03-5.26-7.239-9.47-15.082-9.87-21.835-.44-7.716 2.72-14.632 11.49-15.828z" transform="translate(-1795.228 -481.882)"/><path d="m1951.67 702.333c7.14.474 10.87-5.627 11.59-10.436.43-.764.67-.549.84.042.35 6.174 5.87 11.22 10.99 10.53 8.33-.108 13.39-9.375 11.97-17.219-1.74-9.581-6.9-15.351-10.81-21.293-4.42-6.152-10.37-15.039-12.29-19.317 0 0-6.05 9.205-13.92 20.03-5.26 7.239-9.47 15.082-9.86 21.835-.45 7.716 2.72 14.632 11.49 15.828z" transform="translate(-1795.228 -481.882)"/><path d="m1951.67 767.439c7.14.474 10.87-5.628 11.59-10.437.43-.764.67-.549.84.042.35 6.175 5.87 11.221 10.99 10.531 8.33-.109 13.39-9.376 11.97-17.219-1.74-9.582-6.9-15.351-10.81-21.293-4.42-6.153-10.37-15.04-12.29-19.317 0 0-6.05 9.204-13.92 20.029-5.26 7.239-9.47 15.083-9.86 21.836-.45 7.715 2.72 14.632 11.49 15.827z" transform="translate(-1795.228 -481.882)"/><path d="m1842.13 767.439c7.15.474 10.87-5.628 11.6-10.437.43-.764.67-.549.84.042.35 6.175 5.87 11.221 10.99 10.531 8.33-.109 13.39-9.376 11.97-17.219-1.74-9.582-6.9-15.351-10.81-21.293-4.42-6.153-10.37-15.04-12.29-19.317 0 0-6.05 9.204-13.92 20.029-5.26 7.239-9.47 15.083-9.87 21.836-.44 7.715 2.72 14.632 11.49 15.827z" transform="translate(-1795.228 -481.882)"/><path d="m1842.13 702.333c7.15.474 10.87-5.627 11.6-10.436.43-.764.67-.549.84.042.35 6.174 5.87 11.22 10.99 10.53 8.33-.108 13.39-9.375 11.97-17.219-1.74-9.581-6.9-15.351-10.81-21.293-4.42-6.152-10.37-15.039-12.29-19.317 0 0-6.05 9.205-13.92 20.03-5.26 7.239-9.47 15.082-9.87 21.835-.44 7.716 2.72 14.632 11.49 15.828z" transform="translate(-1795.228 -481.882)"/><path d="m1994.68 733.119c-1.58 3.473-1.76 9.406 2.97 10.208 3.56.459 5.01-1.198 5.3-3.741.14-.743.56-.789.7.058.2 2.609 2.78 4.133 4.8 3.75 5.53-.946 5.21-7.029 3.4-11.156-2.73-5.479-5.6-8.937-8.24-14.452-3.04 5.741-6.51 10.406-8.93 15.333z" transform="translate(-1795.228 -481.882)"/></g></svg>