<svg clip-rule="evenodd" fill-rule="evenodd" viewBox="0 0 228 316" xmlns="http://www.w3.org/2000/svg"><path d="m6704.39-2424.37c0-5.87-4.77-10.63-10.63-10.63h-201.97c-5.87 0-10.63 4.76-10.63 10.63v290.55c0 5.87 4.76 10.63 10.63 10.63h201.97c5.86 0 10.63-4.76 10.63-10.63z" fill="#fff" stroke="#bfbfbf" transform="translate(-6479.098 2437.059)"/><g fill-rule="nonzero"><path d="m3799.82-1365.61 10.05-3.13c3.79 9.95 11.46 12.89 19.57 12.26 14.55-1.13 19.38-17.1 20.48-31.22-5.68 5.89-14.2 8.88-21.46 8.59-23.19-1.22-29.13-19.44-29.34-38.53-.65-16.1 6.13-27.76 17.76-33.1 6.15-2.71 20.24-2.71 26.44.5 14.22 7.36 19.49 20.09 18.53 50.46.02 24.99-5.4 54.1-32.68 54.72-15.76 2.14-27.74-9.9-29.35-20.55zm39.48-27.38c4.73-2.94 7.4-5.7 9.53-9.84 1.74-3.39 2.33-5.16 1.83-12.19-1.28-18.12-10.96-28.39-24.99-26.35-7.83 1.14-12.1 5.44-14.56 13.45-4.54 14.77 1.21 32.07 11.98 36.06 4.86 1.79 12.34 1.27 16.21-1.13z" transform="matrix(.301062 0 0 .301062 -1133.649 452.537)"/><path d="m4484.18-591.314-10.06 3.128c-3.79-9.949-11.45-12.883-19.56-12.253-14.56 1.132-19.39 17.102-20.48 31.221 5.67-5.893 14.2-8.887 21.45-8.595 23.2 1.227 29.13 19.446 29.35 38.535.64 16.097-6.14 27.754-17.77 33.094-6.15 2.712-20.24 2.712-26.43-.494-14.23-7.361-19.49-20.091-18.54-50.458-.01-24.991 5.4-54.099 32.68-54.723 15.77-2.139 27.74 9.898 29.36 20.545zm-39.49 27.382c-4.73 2.941-7.4 5.7-9.52 9.838-1.74 3.397-2.33 5.159-1.83 12.192 1.27 18.121 10.95 28.392 24.99 26.352 7.83-1.139 12.1-5.442 14.56-13.446 4.53-14.778-1.22-32.077-11.99-36.062-4.86-1.797-12.34-1.277-16.21 1.126z" transform="matrix(.301062 0 0 .301062 -1133.649 452.537)"/><path d="m1473.96 658.824c.02-2.025-1.58-2.064-1.57-.586-.13 7.429-6.41 11.087-10.98 10.219-7.03-1.337-9.28-8.322-9.21-12.435.21-12.697 12.99-22.059 24.52-38.335 8.45 14.691 22.4 26.23 23.22 37.586 1.1 15.098-18.01 20.73-20.74 3.133-.17-1.243-1.63-1.801-1.52-.065.41 4.822-.18 6.831 5.26 18.719h-14.22c3.15-5.555 5.03-12.374 5.24-18.236z" transform="translate(-1419.148 -587.897)"/><path d="m1585.5 658.824c.01-2.025-1.59-2.064-1.57-.586-.14 7.429-6.42 11.087-10.98 10.219-7.04-1.337-9.29-8.322-9.22-12.435.21-12.697 12.99-22.059 24.52-38.335 8.45 14.691 22.4 26.23 23.23 37.586 1.09 15.098-18.01 20.73-20.74 3.133-.18-1.243-1.64-1.801-1.53-.065.42 4.822-.17 6.831 5.27 18.719h-14.22c3.14-5.555 5.02-12.374 5.24-18.236z" transform="translate(-1419.148 -587.897)"/><path d="m1585.5 724.155c.01-2.026-1.59-2.065-1.57-.586-.14 7.429-6.42 11.087-10.98 10.219-7.04-1.338-9.29-8.322-9.22-12.436.21-12.696 12.99-22.058 24.52-38.334 8.45 14.691 22.4 26.229 23.23 37.586 1.09 15.098-18.01 20.729-20.74 3.132-.18-1.243-1.64-1.801-1.53-.065.42 4.823-.17 6.832 5.27 18.72h-14.22c3.14-5.555 5.02-12.375 5.24-18.236z" transform="translate(-1419.148 -587.897)"/><path d="m1473.96 724.155c.02-2.026-1.58-2.065-1.57-.586-.13 7.429-6.41 11.087-10.98 10.219-7.03-1.338-9.28-8.322-9.21-12.436.21-12.696 12.99-22.058 24.52-38.334 8.45 14.691 22.4 26.229 23.22 37.586 1.1 15.098-18.01 20.729-20.74 3.132-.17-1.243-1.63-1.801-1.52-.065.41 4.823-.18 6.832 5.26 18.72h-14.22c3.15-5.555 5.03-12.375 5.24-18.236z" transform="translate(-1419.148 -587.897)"/><path d="m1585.51 833.281c.01 2.026-1.59 2.065-1.57.586-.14-7.428-6.42-11.086-10.98-10.219-7.04 1.338-9.29 8.323-9.22 12.436.21 12.696 12.99 22.058 24.52 38.334 8.45-14.69 22.4-26.229 23.23-37.585 1.09-15.098-18.01-20.73-20.74-3.133-.18 1.243-1.64 1.801-1.53.065.42-4.823-.17-6.831 5.27-18.719h-14.22c3.15 5.555 5.02 12.374 5.24 18.235z" transform="translate(-1419.148 -587.897)"/><path d="m1585.51 768.176c.01 2.026-1.59 2.064-1.57.586-.14-7.429-6.42-11.087-10.98-10.219-7.04 1.338-9.29 8.322-9.22 12.436.21 12.696 12.99 22.058 24.52 38.334 8.45-14.691 22.4-26.23 23.23-37.586 1.09-15.098-18.01-20.729-20.74-3.132-.18 1.243-1.64 1.801-1.53.065.42-4.823-.17-6.832 5.27-18.72h-14.22c3.15 5.555 5.02 12.375 5.24 18.236z" transform="translate(-1419.148 -587.897)"/><path d="m1530.42 734.416c.01 2.026-1.59 2.065-1.57.586-.14-7.429-6.42-11.086-10.98-10.219-7.04 1.338-9.28 8.322-9.22 12.436.21 12.696 12.99 22.058 24.52 38.334 8.45-14.69 22.4-26.229 23.23-37.585 1.1-15.098-18.01-20.73-20.74-3.133-.18 1.243-1.64 1.801-1.53.065.42-4.823-.17-6.831 5.27-18.719h-14.22c3.15 5.554 5.02 12.374 5.24 18.235z" transform="translate(-1419.148 -587.897)"/><path d="m1473.97 768.176c.02 2.026-1.58 2.064-1.57.586-.13-7.429-6.41-11.087-10.98-10.219-7.03 1.338-9.28 8.322-9.21 12.436.21 12.696 12.99 22.058 24.52 38.334 8.45-14.691 22.4-26.23 23.22-37.586 1.1-15.098-18.01-20.729-20.73-3.132-.18 1.243-1.64 1.801-1.53.065.41-4.823-.17-6.832 5.26-18.72h-14.22c3.15 5.555 5.03 12.375 5.24 18.236z" transform="translate(-1419.148 -587.897)"/><path d="m1473.97 833.281c.02 2.026-1.58 2.065-1.57.586-.13-7.428-6.41-11.086-10.98-10.219-7.03 1.338-9.28 8.323-9.21 12.436.21 12.696 12.99 22.058 24.52 38.334 8.45-14.69 22.4-26.229 23.22-37.585 1.1-15.098-18.01-20.73-20.73-3.133-.18 1.243-1.64 1.801-1.53.065.41-4.823-.17-6.831 5.26-18.719h-14.22c3.15 5.555 5.03 12.374 5.24 18.235z" transform="translate(-1419.148 -587.897)"/><path d="m1438.03 657.333c.01-.872-.9-.465-1.02-.191-1.16 1.986-2.86 2.448-4.55 1.732-1.66-.709-2.6-2.28-2.45-4.522.31-3.438 3.04-7.2 4.36-9.326 1.25-1.93 2.62-4.222 4.07-7.154 1.7 3.363 2.56 4.32 4.41 7.391 1.62 2.704 3.89 5.353 4.06 8.622 0 2.485-1.04 4.832-3.39 5.26-1.34.242-2.58-.442-3.51-2.037-.28-.407-.85-.195-.84.362.17 2.093.96 3.983 2.83 6.212h-6.88c1.41-1.576 2.84-3.704 2.91-6.349z" transform="translate(-1419.148 -587.897)"/><path d="m1626.85 830.078c.01.872-.9.465-1.02.19-1.17-1.985-2.87-2.447-4.55-1.731-1.67.709-2.6 2.28-2.45 4.522.31 3.438 3.03 7.199 4.35 9.326 1.25 1.93 2.63 4.222 4.08 7.154 1.69-3.363 2.56-4.321 4.4-7.391 1.63-2.705 3.9-5.353 4.07-8.623 0-2.485-1.05-4.832-3.4-5.259-1.33-.242-2.58.441-3.5 2.037-.28.406-.85.194-.84-.362.16-2.094.95-3.983 2.83-6.212h-6.89c1.41 1.576 2.85 3.704 2.92 6.349z" transform="translate(-1419.148 -587.897)"/></g></svg>