<svg clip-rule="evenodd" fill-rule="evenodd" viewBox="0 0 228 316" xmlns="http://www.w3.org/2000/svg"><path d="m6257.93-2736.18c0-5.87-4.76-10.63-10.63-10.63h-201.97c-5.87 0-10.63 4.76-10.63 10.63v290.55c0 5.87 4.76 10.63 10.63 10.63h201.97c5.87 0 10.63-4.76 10.63-10.63z" fill="#fff" stroke="#bfbfbf" transform="translate(-6032.648 2748.869)"/><g fill-rule="nonzero"><path d="m1033.99-2499.93v-9.09h8.84l18.81-97.23h10.7l20.74 97.23h7.13v9.09h-24.3v-9.09h6.56l-2.61-14.9h-24.53l-1.9 14.9h6.57v9.09zm43.77-34.6-10.66-52.05-9.99 52.05z" transform="matrix(.301062 0 0 .301062 -302.0037 800.759)"/><path d="m1727.39-1770.25v9.09h-8.84l-18.81 97.23h-10.71l-20.73-97.23h-7.14v-9.09h24.31v9.09h-6.57l2.62 14.9h24.53l1.89-14.9h-6.56v-9.09zm-43.77 34.6 10.66 52.05 9.98-52.05z" transform="matrix(.301062 0 0 .301062 -302.0037 800.759)"/><path d="m1078.01 462.617c2.88-5.776 4.98-11.701 5.35-18.038.34-2.331-1.07-2.371-1.29-.728-4.07 15.592-25.76 11.37-25.02-3.297.61-11.895 12.42-14.454 18.59-10.564 2.43 1.432 2.29.574.96-.912-9.15-10.212-3.61-23.362 8.77-23.603 13.38.794 16.85 14.87 8.64 23.149-1.02.994-3.28 4.191.12 1.956 8.29-5.888 19.79.443 19.55 9.521-.43 16.739-20.83 17.987-25.2 4.006-.42-1.551-1.63-2.329-1.29.304.6 4.766 1.85 11.953 5.43 18.206z" transform="translate(-971.693 -276.0859)"/><path d="m986.657 353.322c1.192-2.445 2.352-4.721 2.984-7.401.42-2.528-.438-1.588-.925.068-.721 2.298-2.722 3.344-4.58 3.369-3.371.046-5.052-2.604-4.948-5.454-.368-2.998 2.671-5.12 4.962-4.957 1.722.123 3.224 1.053 4.133 1.776.596.315 1.234.454.345-.359-1.678-1.833-3.077-2.964-3.046-5.711.029-2.578 2.233-5.268 5.155-5.183 3.652.105 5.312 2.89 5.304 5.48-.01 1.888-.954 3.626-2.412 4.703-.944.766-.679 1.34.398.615 1.035-.892 2.267-1.283 3.545-1.31 3.488-.055 4.858 2.961 4.658 5.764-.19 2.625-2.426 5.328-5.372 5.022-2.631-.301-4.013-2.51-4.805-4.777-.263-.695-.676-.883-.665.153.608 5.058 2.492 8.205 2.505 8.202z" transform="translate(-971.693 -276.0859)"/><path d="m1183.13 515.155c-1.2 2.445-2.36 4.721-2.99 7.401-.42 2.527.44 1.588.93-.069.72-2.297 2.72-3.343 4.58-3.368 3.37-.046 5.05 2.604 4.95 5.453.36 2.999-2.68 5.121-4.97 4.957-1.72-.123-3.22-1.052-4.13-1.775-.6-.315-1.23-.455-.34.359 1.67 1.832 3.07 2.964 3.04 5.71-.03 2.579-2.23 5.268-5.15 5.184-3.66-.105-5.32-2.89-5.31-5.48.01-1.889.96-3.627 2.41-4.703.95-.766.68-1.34-.39-.615-1.04.892-2.27 1.283-3.55 1.31-3.49.055-4.85-2.961-4.65-5.764.18-2.626 2.42-5.329 5.37-5.022 2.63.301 4.01 2.509 4.8 4.776.26.696.68.883.66-.153-.6-5.057-2.49-8.204-2.5-8.201z" transform="translate(-971.693 -276.0859)"/></g></svg>