<svg clip-rule="evenodd" fill-rule="evenodd" viewBox="0 0 228 316" xmlns="http://www.w3.org/2000/svg"><path d="m6257.93-2736.18c0-5.87-4.76-10.63-10.63-10.63h-201.97c-5.87 0-10.63 4.76-10.63 10.63v290.55c0 5.87 4.76 10.63 10.63 10.63h201.97c5.87 0 10.63-4.76 10.63-10.63z" fill="#fff" stroke="#bfbfbf" transform="translate(-6032.648 2748.869)"/><g fill-rule="nonzero"><g transform="matrix(.301062 0 0 .301062 -302.0037 800.759)"><path d="m1033.99-2499.93v-9.09h8.84l18.81-97.23h10.7l20.74 97.23h7.13v9.09h-24.3v-9.09h6.56l-2.61-14.9h-24.53l-1.9 14.9h6.57v9.09zm43.77-34.6-10.66-52.05-9.99 52.05z"/><path d="m1727.39-1770.25v9.09h-8.84l-18.81 97.23h-10.71l-20.73-97.23h-7.14v-9.09h24.31v9.09h-6.57l2.62 14.9h24.53l1.89-14.9h-6.56v-9.09zm-43.77 34.6 10.66 52.05 9.98-52.05z"/></g><path d="m1083.08 445.392c.01-2.026-1.59-2.064-1.57-.586-.14 7.429-6.42 11.087-10.98 10.219-7.04-1.338-9.28-8.322-9.22-12.435.21-12.697 12.99-22.059 24.52-38.335 8.45 14.691 22.4 26.23 23.23 37.586 1.09 15.098-18.01 20.73-20.74 3.133-.18-1.243-1.64-1.802-1.53-.065.42 4.822-.17 6.831 5.27 18.719h-14.22c3.15-5.555 5.02-12.375 5.24-18.236z" transform="translate(-970.696 -276.0859)"/><path d="m990.275 347.951c.01-.872-.896-.465-1.018-.191-1.163 1.986-2.865 2.448-4.548 1.732-1.667-.709-2.604-2.28-2.454-4.522.31-3.438 3.036-7.199 4.355-9.326 1.252-1.93 2.628-4.222 4.077-7.154 1.697 3.363 2.558 4.32 4.405 7.391 1.626 2.705 3.892 5.353 4.067 8.623 0 2.485-1.046 4.831-3.399 5.259-1.331.242-2.579-.442-3.504-2.037-.282-.406-.848-.194-.839.362.165 2.093.955 3.983 2.829 6.212h-6.887c1.411-1.576 2.849-3.704 2.916-6.349z" transform="translate(-970.696 -276.0859)"/><path d="m1178.65 520.526c.01.871-.89.465-1.01.19-1.17-1.985-2.87-2.447-4.55-1.732-1.67.71-2.6 2.281-2.46 4.523.31 3.437 3.04 7.199 4.36 9.326 1.25 1.93 2.63 4.222 4.08 7.154 1.69-3.363 2.55-4.321 4.4-7.392 1.63-2.704 3.89-5.353 4.07-8.622 0-2.485-1.05-4.832-3.4-5.259-1.33-.242-2.58.441-3.5 2.036-.29.407-.85.195-.84-.361.16-2.094.95-3.984 2.83-6.212h-6.89c1.41 1.576 2.85 3.704 2.91 6.349z" transform="translate(-970.696 -276.0859)"/></g></svg>