<svg clip-rule="evenodd" fill-rule="evenodd" viewBox="0 0 228 316" xmlns="http://www.w3.org/2000/svg"><path d="m7150.84-2424.37c0-5.87-4.76-10.63-10.63-10.63h-201.97c-5.86 0-10.63 4.76-10.63 10.63v290.55c0 5.87 4.77 10.63 10.63 10.63h201.97c5.87 0 10.63-4.76 10.63-10.63z" fill="#fff" stroke="#bfbfbf" transform="translate(-6925.558 2437.059)"/><g fill-rule="nonzero"><path d="m-2766.09 1374.75-3.3-1700.422 1054.71 1.988 1.32 1697.754zm378.1-1416.902c-37.72-10.282-36.8 27.182-9.18 28.578 30.95 2.664 44.19-50.077 29.42-70.867 0 0-12.86 39.733-20.24 42.289zm-244.75 211.815-45.31 20.209-.18 33.816c18.9-15.023 33.66-33.349 45.49-54.025zm309.19 1016.077c-8.91-4.5-19.66-14.16-18.01-15.86.82-.84 5.65.69 10.03 2.66 35.4 14.91 62.88 13.95 105.09-1.37 3.2-1.16 7.97 4.93 6.19 8.27-18.69 27.65-79.18 17.83-103.3 6.3zm-18.66-41.49c-8.13-12.21 2.65-2.95 6.27.51 26.19 24.35 61.68 32.61 92.14 9.66 1.42-1.58 1.61-3.04 1.19-4.13-.86-2.25-.88.15-13.91 4.66-29.24 10.95-53.88 1.96-77.91-16.43-9.89-7.63-14.49-11.38-14.49-13.38 0-1.83 1.85-2.98 5.18-2.4 2.06.35 7.81 1.55 12.02 1.89 7.32.6 6.76.29 14.25-3.17 16.03-7.39 30.79-10.09 47.53-7.09 3.87.69 8.75 1.97 9.41 1.75 3.75-1.25-1.78-6.19-15.97-17.44-2.79-2.21-6.27-4.11-7.42-6.03-1.79-2.98.16-3.77 2.18-3.75 5.84.07 32.05 21.98 41.04 34.99 2.73 3.96 4.62 4.38 4.63 8.49-.53 4.27-1.21 8.37 3.41 14.35 3.32 4.29 6.53 11.19 6.56 11.52.03.38-.66 2.54-3.7.54-1.38-.26-2.06-1.74-4.59-1.38-2.2.33-5.79 2.06-9.73 3.92-36.73 23.62-70.55 12.1-98.09-17.08zm80.46-1.65c.74.07-2.54-13.5-6.24-17.51-7.29-7.89-18.41-9.33-25.13-1.25-3.78 4.54-7.94 17.22-7.94 17.22s5.89 1.73 7.54 1.73c.23-2.84.25-10.78 6.09-15.43 2.88-2.27 9.08-2.2 11.5-.32 4.79 2.35 6.81 11.87 6.88 15.58 2.62.81 8.65.08 7.3-.02zm-44.41-19.56c-5.18 2.31-11.91 3.86-13.45 7.33-2.04 4.57 5.15 5.95 8.89 7.49 5.18 2.5 5.29 1.58 6.97-2.4 1.05-2.5 2.42-5.74 3.74-8.73 3.87-7.48.01-6.44-6.15-3.69zm56.04 12.99c2.98-2.98 3.54-4.95.88-8.33-1.2-1.53-4.64-3.09-8.37-4.35-4.8-1.61-6.89-3.57-3.88 2.93l4.3 9.28c2.21 4.45 4.15 3.27 7.07.47zm-490.05-317.14c1.82 0 19.89-5.928 26.33-8.786 6.38-2.437 7.14-2.369 4.6-5.898-.95-1.321-1.72-5.052-1.25-9.136l.48-5.698c-11.14-2.269-27.78 3.899-33.5 11.695-4.07 4.979-3.66 16.059 3.34 17.823zm-2.27 27.8c3.38 3.385 4.32 3.506 14.48-.265 3.56-2.38 11-5.355 16.22-5.696 12.23-3.255 12.24-1.969 8.77-9.807-1.59-3.607-2.12-6.591-1.62-9.924.6-3.948 1.07-4.491-1.16-5.189-5.85-1.83-33.09 8.353-37.97 16.276-3.43 5.574-2.97 10.354 1.28 14.605zm639.53 240.57c-1.78 2.66-4.87 7.38-6.16 10.57-2.24 5.5-.88 6.55.01 17.34.52 6.26.65 15.98.67 21.2.03 10-.11 13.11 2.95 13.69 2.69.52 3.93-1.5 5.22-6.71.65-2.61 2.19-5.33 2.66-6.98 1.92-11.25 5.48-30.03 13.59-37.92 1.12-.93 4.42-1.52 10.4-1.59 7.33-.09 9.67-.3 11.94-2 12.82-11.21 2.72-25.71-8.72-26.73-13.25-1.15-31.51 17.14-32.56 19.13zm50.89-4.7c.81 12.9-12.05 21.7-25.12 18.71-5.3-1.34-6.89-.12-10.44 7.44-7.71 20.74-10.76 41.55-12.81 55.16-.88 12.25-5.37 44.12-2.12 54.28 37.26 46.04 76.49 93.58 119.44 140.98l255.45.35 1.54-300.74-74.19-70.17.14-111.239c-79.42 37.423-158.6 75.36-237.87 113.107 17.28 55.402-41.3 67.022-54.14 29.882-11.11 10.2-20.23 65.2-16.13 67.92 0 0 1.47 1.98 3.93-2.39 4.06-7.21 9.35-12.51 15.02-16.02 16.52-10.22 36.17-5.18 37.3 12.73zm-203.32-5.61c-12.54-9.96-5.82-25.16 4.59-29.72 5.52-2.41 14.38-2.08 24.13 1.36 8.56 3.93 13.68 3.38 22.45 2.3 5.83-.65 4.75 11.54-1.34 14.69-4.28 2.22-14.11 1.17-26.07-5.64-20.62-11.74-29.68 3.48-16.91 17.22 7.08 7.58-5.04 1.51-6.85-.21zm-424.62-182.147c11.02-7.093 6.44-19.61-3.83-21.703-13.83.292-17.35 16.17-7.45 21.656 0 1.928-4.92.354-7.58-1.635-4.12-3.087-.36-15.16-4.2-15.642-2.92.05-31.49 10.153-34.57 12.171-12.83 7.282-.79 23.722 6.66 21.842 15.47-3.905 36.5-7.38 50.97-16.689zm-63.84-23.489c.26 7.321 2.31 10.577 7.12 10.642 10.05-1.743 19.4-6.535 28.78-9.575 7.33-2.398 10.3-5.102 4.72-9.683-1.69-1.937-3.19-4.715-2.37-9.997 1.92-6.04.45-6.343-2.11-6.636-2.56-.295-8.39 2.151-23.35 7.897-7.88 3.022-9.39 4.331-11.43 8.663-.92 3.317-1.49 5.352-1.36 8.689zm83.28 94.492c1.73-2.033 5.57-14.793 5.57-17.947-.78-5.254-4.69-6.444-8.15-3.051-4.2 3.763-3.07 9.449-5.57 13.807-.87 1.517-1.79 3.616-1.53 4.467 1.35 4.585 6.99 5.429 9.68 2.724zm32.76-69.47c128.02-136.338 207.32-325 68.59-585.202-15.56-6.623-20.36 18.668-21.85 19.702l-17.73 15.444c93.91 161.938 77.6 348.22-37.22 480.679l.12 8.404c.27 18.498 5.6 17.699 13.38 9.043 8.25-8.694 2.73-1.613-.64 1.967-2.9 3.074-7.52 9.198-8.75 10.795 1.51 11.096 8.5 31.783 4.1 39.168zm-8.5-40.966c-1.31-3.68-2.71-12.094-3.43-18.57-.44-4.217-.62-8.198-.84-12.319-1.36-8.195-4.7-26.999-7.42-31.145-2.92-4.467-10.08-7.733-18.06-8.246-6.83-.438-7.39-.316-8.85 1.907-2.5 3.816-.78 23.07 1.75 30.128 2.86 8.28 1.18 12.778-1.14 20.986-.8 2.97-1.1 3.175.37 3.384 6.39-.448 8.51-8.283 11.04-5.948.85.855-1.37 7.283-4.35 13.779-3.15 6.853-4.08 16.297-.34 27.912 2.09 6.503 1.2 8.559-.06 12.483-.85 2.621-2.33 10.656-2.38 18.651 2.99 10.023 1.49 14.509-.27 17.821-3.81 8.506-6.75 20.031-4.7 26.503.9 2.839 3.25.409 4.97-4.455 2.69-9.605 5.83-11.743 13.71-11.745 5.75 0 6.29 2.013 8.19-.557 4.31-5.834 14.85-26.503 15.05-32.264 4.07-14.693 4.27-27.318-3.24-48.305zm61.23 96.51c3.47-1.323 8.82-8.68 8.83-11.215.01-2.794-21.46-23.669-30.4-29.43-4.05-2.609-5.98-.757-13.13 8.878-6.37 8.562-7.2 8.636-6.02 10.284 1.42 1.983 23.3 16.205 30.56 20.242 2.51 1.395 6.77 2.53 10.16 1.241zm40.22-37.153c-3.2-2.458-28.89-30.939-36.51-32.353-2.9-.537-12.19 10.044-12.19 12.444 0 1.649 16.04 17.978 27.4 27.899 3.25 2.835 6.84 5.155 7.97 5.155 3.61-1.854 12.88-9.33 13.33-13.145zm27.3-26.866c0-1.688-2.84-5.161-9.75-11.955-17.62-17.302-27.43-25.222-30.52-25.195-3.38 1.119-9.48 11.384-9.84 14.958 1.15 2.143 30.62 28.87 34.43 31.462 4.71 4.546 15.02-6.051 15.68-9.27zm27.64-27.597c.75-2.542-.72-4.712-4.46-8.285-2.64-2.534-12.04-11.733-20.88-20.442-18.53-18.261-18.57-18.277-24.52-9.744-6.13 8.783-6.1 8.854 11.97 26.477 19.26 18.79 23.77 22.602 26.75 22.602 4.58-2.108 9.55-5.625 11.14-10.608zm-206.56-16.484c-3.22-.966-6.19-.398-8.72 1.627-13.66 11.61 5.71 26.55 13.67 17.232 5.31-5.233 5.09-16.476-4.95-18.859zm234.92-12.151c0-1.945-3.98-6.304-17.75-19.451-34.08-32.527-32.54-31.292-36.32-29.27-2.36 1.262-6.93 10.007-6.93 13.253 0 2.435 3.27 5.808 28.52 29.392 14.81 13.827 19.19 17.319 21.75 17.319 4.03-1.998 10.55-6.324 10.73-11.243zm-234.05 1.224c6.69-2.913 7.94-10.155 4.15-15.875-7.28-6.414-17.4-1.116-17.57 7.153 1.26 7.746 7.83 11.018 13.42 8.722zm262.05-28.538c0-3.884-58.35-58.443-62.5-58.443-2.82 0-4.84 2.284-7.49 8.462-2.3 5.359-2.06 8.531.83 11.313 4.22 4.056 15.46 14.419 26.16 24.102 6.32 5.727 13.59 12.565 16.15 15.195 6 6.159 12.61 10.928 15.14 10.928 3.61-2.111 8.64-4.965 11.71-11.557zm-265.11-7.035c.06-2.191-.5-4.427-2.07-6.094-4-4.263-11.45-2.02-13.32 3.629-1.7 13.285 14.85 13.87 15.39 2.465zm43.21-424.648 11.42-34.889 34.86-.898 4.89-34.681 35.88-5.165.58-35.833 34.32-4.688-2.12-38.372 31.83-7.537-1.58-35.527 28.93-8.87-1.16-30.923 4.97-3.897-12.51-12.721-10.77 3.5-.2 31.783-28.89 9.296 3.05 35.164-29.2 6.66-.37 38.236-33.55 3.765-2.39 33.737-32.72 6.444-4.89 33.045-31.75 2.159-9.69 29.047-20.98.243v19.442zm379.34 624.204c-1.09-2.618 1.77-2.227 6.75.922 5.22 3.292 12.81 6.042 18.21 6.052 2.25 0 10.3-1.43 17.88-3.19 9.06-3.323 17.09-3.521 26.5-1.486 6.99.946 14.04 1.706 15.65 1.686 4.67.66 12.6-5.115 14.72-8.743 5.75-9.839 4.38 8.033 4.41 10.073.1 9.16 1.25 19.69-5.31 14.79-3.88-2-10.66-3.79-16.07-.18-5.44 3.64-9.95 4.42-16.33.58-5.24-2.07-8-2.5-11.92 1.14-4.37 4.05-14.96 2.61-20.63.75-9.75-1.63-15.21-3.04-21.75 2.13-3.48 2-4.38.51-7.01-7.22-2.62-7.73-4.69-16.341-5.1-17.304zm24.83-6.459c-.62-.999 4.61-6.125 8.14-7.953 10.38-5.366 30.99-5.127 45.73.318 7.68 2.838 8.87 7.693 1.39 6.671-15.55-3.261-35.06-5.944-50.09 1.21-1.18.631-4.88.226-5.17-.246zm13.15-24.295c-10.63-3.945-15.85-8.146-15.85-9.486 0-1.44 2.28-1.175 10.64 1.107 11.39 4.227 24.86 6.452 36.1 2.518 8.08-2.988 12.11-4.879 12.11-3.082 0 1.903-3.33 6.853-8.89 9.7-11.05 4.507-25.64 2.367-34.11-.757zm230.87-29.54 7.89-1.083-2.74-32.938 29.07-8.629-2.04-32.758 30.99-10.664-1.85-36.87 32.2-6.344 4.2-32.266 30.4-2.164 6.3-35.106 32.65-1.124 6.73-29.179 21.73-.136-.1-16.387-33.84.105-7.17 31.582-31.94.92-6.78 34.693-33.49-.247-4.29 37.391-31.5 5.164.03 40.263-30.38 7.881 2.35 34.428-30.35 11.073 3.43 32.856zm202.98-772.868c-4.34 3.093-5.98 9.222-4.64 14.214 4.28 11.297 19.33 7.774 21.11-.446.9-3.562-1.47-8.941-5.58-10.11-.72-.205-3.27.034-4.6-1.337-.97-.99 5.02-4.061 8.55-2.896 4.41 1.455 8.01 7.282 8.02 12.327 0 1.957-.55 4.859.16 5.831 7.28-.18 15.62-4.185 23.43-6.349 13.19-3.656 17.97-11.223 15.04-20.087-2.44-7.387-10-10.315-19.93-6.578-13.63 5.13-29.64 7.582-41.56 15.431zm-563.31 808.643c44.68-31.391 70.99-49.332 128.33-52.427-20.46-8.416-23.8-19.47-29.55-30.05-71.04 6.716-108.76 29.4-142.51 50.579 13.94 6.567 28.51 14.203 43.73 31.898zm249.05-43.538c-21.67-15.312-47.45-24.567-74.2-31.719l-20.5 21.239c-1.19-.757 59.36.612 94.7 10.48zm208.03-201.489c-139.74-214.73-45.87-403.681 51.3-524.081 3.12-3.95 3.88-4.15 3.17-7.293-.92-4.143-2.07-25.009-1.36-37.066-179.61 178.005-184.21 409.905-71.55 593.949 8.05-7.198 24.29-16.783 18.44-25.509zm20.96-18.371c-22.94-38.197-145.12-245.041 41.49-475.794 0 0-.64-11.767-2.03-16.187-2.51-7.922-6.4-11.117-6.4-11.117-78.38 117.655-192.29 264.875-50.02 520.551zm-106.85-389.297c2.79-2.278 6.85-10.553 6.85-13.971 0-3.047-2.2-5.593-23.25-26.952-28.07-28.472-32.91-32.827-36.5-32.827-3.4 0-12.25 8.401-12.25 11.62 0 1.542 8.25 10.438 27.75 29.895 36.17 36.105 34.46 34.633 37.4 32.235zm25.85-52.439c0-1.715-2.6-5.118-8.75-11.447-16.23-16.697-39.36-37.864-41.39-37.864-2.59 0-9.67 5.729-11.53 9.326-1.31 2.53-1.28 3.107.25 5.5 2.86 4.473 39.06 38.828 49.35 47.471 6.18 5.672 11.77-8.673 12.07-12.986zm13.98-21.305c2.87-1.534 8.31-11.701 7.65-14.299-.3-1.214-9.49-11.095-20.4-21.957-21.6-21.489-22.85-22.265-28.23-17.451-4.88 4.359-7.93 8.724-7.33 10.478.73 2.14 33.06 35.003 39.67 40.324 5.22 4.208 5.83 4.412 8.64 2.905zm164.79-1.592c10.15-9.744-1.35-20.43-9.71-15.498-3.56 2.197-5.67 6.991-4.58 10.176 1.8 5.285 8.97 8.169 14.29 5.322zm20.1-2.485c17.17-4.51 25.4-7.526 29-12.879 2.49-3.706 2.77-5.986-.03-12.03-2.59-5.576-5.6-7.28-16.37-1.384-7.39 4.05-23.84 5.988-29.6 9.387-2.3 1.984-1.18 1.961.68 3.137 4.14 2.629 6.16 4.422 5.71 7.901-.98 7.573-.2 8.736 10.61 5.868zm-18.19-26.93c8.34-4.266 6.66-14.564-2.66-18.654-12.29-3.238-20.21 11.561-10.15 18.772 2.7 1.889 9.54 1.555 12.81-.118zm27.72-4.171c12.06-4.134 16.7-7.37 20.18-14.038 2.75-5.278 1.58-7.637 1.21-12.746-.55-7.742-4.44-6.858-15.68-2.807-5.49 2.121-31.75 9.511-32.11 12.201 12.67 7.246 9.43 11.065 9.54 20.312.66 2.103 6.61.592 16.86-2.922zm-164.4-12.329c0-3.496-33.7-36.499-37.27-36.499-5.57 0-13.54 8.652-12.35 13.398.54 2.154 32.14 33.959 36.09 36.317 5.52 3.228 13.17-7.951 13.53-13.216zm19.37-20.575c1.45-1.142 4.02-4.095 5.72-6.564 3.63-5.279 3.37-8.221-.97-11.008-1.59-1.018-8.65-7.412-15.7-14.206-7.05-6.795-13.72-12.691-14.83-13.101-5.81-.773-16.31 8.532-15.22 13.295.62 2.493 26.45 27.927 32.21 31.727 3.73 2.455 5.52 2.426 8.79-.143zm45.63-49.16c0-.94-5.87-4.713-15.25-9.813-28.7-15.593-29.19-15.702-38.16-8.396-3.08 2.505-5.59 5.359-5.59 6.342 0 1.002 6.22 7.671 14.14 15.173 16.46 15.568 20.51 18.93 22.8 18.93 4.75-3.483 21.32-17.919 22.06-22.236zm40.17-14.659c3.54-4.24 7.52-18.945 5.63-21.905-1.74-1.739-6.21-1.472-8.36.471-2.21 2.003-7.67 20.475-6.83 22.664.85 2.231 6.48 1.188 9.56-1.23zm-313.5 625.856c2.71-.364 8.03-3.681 15.77-10.326 8.26-7.099 34.45-22.898 37.29-29.251 1.27-3.612.35-8.794-2.38-9.188-2.08-.299-2.52 1.288-19.93 13.839-11.75 8.467-32.38 23.597-35.48 26.806-1.35 3.435 1.69 7.759 4.73 8.12zm-2.44 101.143c17.92-12.437 32.44-25.319 55.81-39.719 1.81-2.38 2.08-5.925.98-8.82-1.36-3.581-3.24-2.167-10.32 2.745-17.22 11.605-34.93 25.272-49.77 35.406-4.76 3.223-8.77 5.006-7.77 6.819 1.34 2.405 8.69 3.134 11.07 3.569zm17.43 7.631c11.78-9.642 25.89-18.849 38.48-28.175 1.76-1.758 2.22-7.688.41-10.119-1.43-1.919-.24-1.565-3.73.413-5.09 2.891-35.58 23.679-41.26 28.379-3.31 2.737-6.07 4.105-5.25 5.061 3.81 2.452 7.85 3.965 11.35 4.441zm14.81 7.469c2.44-1.631 23.4-15.028 25.08-16.808 1.93-2.039 1.37-11.156-.5-11.875-5.3 4.211-33.24 21.235-33.3 23.978 2.85 2.558 6.61 4.911 8.72 4.705zm22.41 1.867c3.22-2.949 3.86-3.45 3.93-6.756.12-5.987-1.36-5.732-9.89.367-5.96 3.854-9.59 6.567-8.52 8.877 4.23 6.627 10.24 1.399 14.48-2.488zm2.31 12.228c1.67-.618 1.69-1.48 1.45-3.572-.27-2.327-.61-2.227-3.14-2.227-6.79.253-.67 6.4 1.69 5.799zm-81.59-33.504c3.08-10.168 7.4-18.212 14.45-25.835 28.19-24.979 19.57-55.726 1.77-80.758 23.03-32.243 46.03-66.404 65.82-97.702l-.07-50.885 2.66.28c-.92 111.045 4.15 293.124 4.15 293.124l22.9 17.465-3.09 1.526c3.77-.589-66.66-44.686-108.59-57.215zm20.7-12.681c19.49-14.712 38.46-26.283 57.8-41.953 2.05-1.694 3.27-1.788 3.32-5.634.12-7.331-1.35-7.406-8.57-2.234-3.2 2.29-14.93 10.488-26.06 18-11.61 7.839-22.37 14.812-24.53 17.316-10.88 12.614-14.9 18.552-13.78 20.358 1.16 1.886 3.37-.155 11.82-5.853zm21.26-35.658c10.02-6.597 33.99-23.238 36.17-25.291 3.8-3.569 4.47-9.26 1.04-9.914-1.68-.318-20.23 12.052-35.91 23.939-7.63 5.786-9.33 7.124-9.33 12.575 0 3.304 1.99 2.668 8.03-1.309zm9.99-25.913c30.72-21.841 29.93-19.995 29.27-28.13-.23-2.746-.84-3.994-2.06-4.225-.95-.181-6.39 3.72-12.5 8.022-6.11 4.301-13.4 10.074-17.05 12.612-10.68 7.408-14.21 9.401-14.21 13.645 0 4.187 1.12 6.826 2.98 6.826.69 0 6.8-3.938 13.57-8.75zm-4.41-16.915c14.15-9.993 29.75-21.269 31.87-23.946 2.58-3.253 2.11-10.328-1.18-10.328-14.2 9.488-31.29 21.959-43.3 31.808-1.55 1.369-3.53 2.681-4.14 4.47-.12 2.311 2.78 5.363 3.94 5.457 2.34.012 5.94-2.605 12.81-7.461zm-9.21-33.819c10.8-7.32 20.63-16.017 31.36-23.4 8.06-5.516 10.34-7.223 9.86-14.159-.28-4.001-3.79-1.7-17.44 7.394-10.01 6.668-14.61 9.303-18.16 13.865-2.49 5.757-10.7 11.159-11.13 17.741-.02 2.44 1.61 1.283 5.51-1.441zm33.17-43.99c8.3-5.497 9.08-5.623 8.18-12.924-1.13-9.138-2.06-8.598-9.99 3.513-5.21 7.964-7 10.269-6.21 11.75 1.35 2.529 2.85 1.086 8.02-2.339zm-30.22-67.237c-.88-4.067-2.13-3.185-6.3.483-7.69 6.748-8.9 11.633-4.11 14.195 2.54 1.36 4.51 1.205 6.02-2.129 3.25-7.184 4.17-9.719 4.39-12.549zm-43.05 63.884c-.99-3.713-5.53-8.769-8.98-10.555-3.43-1.771-5.5-1.44-8.78 2.717-3.01 3.833-1.61 6.11 2.92 11.84 3.32 4.199 4.67 5.532 7.28 5.532 3.17-1.241 8.22-5.504 7.56-9.534zm-166.62 160.184c-2.2-4.24-6.86-8.711-8.99-7.963-2.26.792-4.47 4.036-4.5 6.075.94 4.163 4.45 6.981 7.15 7.061 5.1-.722 8.19-1.608 6.34-5.173zm20.31-6.457c-4.39-4.63-13.06-14.839-14.48-14.839-2.22 0-7.52 5.56-7.52 7.846 0 2.698 7.9 13.756 10.53 14.641 6.64-.617 18.84.128 11.47-7.648zm25.08 1.299c-.46-2.235-25.16-28.492-26.98-28.492-2.36 0-7.01 5.166-7.01 7.552 0 1.915 7.98 12.32 15.35 20.021 3.67 3.833 4 4.385 8.49 3.683 4.9-.765 11.29.295 10.15-2.764zm43.65-5.865c0-5.298-2.78-8.205-13.93-20.274-4.05-4.379-10.88-11.987-15.19-16.907-8.34-9.516-11.91-12.432-15.23-12.441-2.62-.01-6.64 4.25-6.64 6.961 0 1.739 20.52 25.275 39.12 45.254 4.12 4.433 5.97 5.724 9.93 3.616 2.27-1.552 1.94-4.179 1.94-6.209zm-32.14-63.05c-4.18 3.43-5.73 4.833-5.75 7.122-.03 3.488 35.4 42.417 38.56 42.417 1.86 0 1.57-.255 2.67-4.441 2.19-12.703-1.26-16.433-10.44-24.815-6.16-5.62-18.57-24.963-25.04-20.283zm62.48-26.044c-9.88-11.828-15.36-17.268-17.37-17.268-1.37 0-3.43 1.324-5.65 3.78-3.69 3.499-3.34 3.373-1 7.536 1.22 2.162 4.62 6.417 7.56 9.454 5.45 5.626 8.24 7.413 10.87 4.715 2.32-2.387 8.06-5.208 5.59-8.217zm-5.16-29.511c-2.41-.026-6.46 4.32-6.46 6.686 0 2 8.02 12.057 13.62 17.07 4.53 4.055 6.66 5.145 9.81 2.472 2.35-3.418 1.82-6.544.35-9.155-4-4.562-12.76-16.871-17.32-17.073zm27.8 2.898c-.06-3.448-10.18-16.608-13.39-17.92-2.66 0-8.32 6.203-8.32 9.066 0 1.535 2.17 4.954 5.84 9.216 7.23 8.385 9.08 10.23 10.65 8.919 2.57-2.144 5.28-5.901 5.22-9.281zm11.42-14.821c.67-2.89-1.12-5.865-5.16-10.943-5.06-6.347-7.54-6.774-12.3-1.858-1.76 1.813-2.58 3.399-2.58 4.279 0 2.422 10.6 15.893 12.57 15.893 4.55-.563 5.94-3.874 7.47-7.371zm-18.65 33.369c-.95 4.349-2.78 7.19-6.97 9.208-32.37 23.325-31.33 61.329-38.24 96.419-52.41-.527-135.27 20.974-134.76 22.104l278.55-281.003s3.45.858 1.34 3.321c-22.55 16.205-21.14 47.714-35.97 63.496-24.77 29.937-47.79 55.905-63.95 86.455zm-151.19 114.777c.46-3.176-2.46-4.04-5.02-1.485-2.5 2.504-1.51 4.46 2.05 4.047 1.87-.217 2.75-.969 2.97-2.562zm85.85-11.809c1.02-2.671-1.42-5.171-16.35-21.737-15.11-16.772-18.54-20.699-21.15-20.699-2.22 0-7.64 5.492-7.64 7.74 0 1.033 2.38 4.432 5.29 7.554 2.9 3.122 8.41 9.253 12.25 13.625 6.6 7.529 9.73 11.165 12.25 12.919 2.46 1.722 4.33 1.632 8.28 1.632 5.42 0 6.6.178 7.07-1.034zm25.82-52.732c1.03-3.3 2.49-6.215 2.5-7.451.02-2.305-19.06-21.753-22.29-23.839-3.86-2.496-11.13 5.656-9.32 10.417.5 1.314 6.18 7.989 12.62 14.834 8.18 8.701 12.28 12.799 13.61 12.596 1.36-.209 1.54-2.259 2.88-6.557zm7.98-20.436c1.39-2.053 2.53-4.763 2.53-6.022 0-1.429-3.19-5.297-7.76-10.43-8.5-9.565-10.69-10.671-15.35-6.206-4.64 4.442-3.07 6.498 5.09 15.74 10.21 11.572 11.37 12.975 15.49 6.918zm72.94-91.345c3.18-3.772 3.25-5.644.34-9.089-1.23-1.466-3.03-3.604-3.99-4.75-2.62-3.139-6.08-2.619-9.65 1.451-1.71 1.944-2.84 3.905-2.83 4.573 0 .668 1.83 3.353 4.07 5.965 5.04 5.873 8.15 6.508 12.06 1.85zm11.18-14.416c2.16-3.295 1.19-6.914-2.85-10.603-3.82-3.491-5.73-3.639-8.41-.654-3.59 3.989-3.01 5.325.84 9.596 4.37 4.828 7.87 5.552 10.42 1.661zm8.96-11.962c2.98-2.985 2.93-5.538.25-8.939-2.5-3.186-5.1-4.051-7.73-2.639-4.59 2.456-4.11 6.67.41 11.429 2.74 2.889 4.03 3.194 7.07.149zm-213.13 599.393c57.05 6.39 118.33 10.86 226.37-5.93l.54-36.67c-33.69 26.28-77.93 8.27-80.48-21.98-.3-26.96 6.9-58.06 12.97-80.23 4.51-16.48 5.81-22.84 1.58-26.05-9.32-5.25-25.86-5.91-30.09-16.87-2.03-5.78-2.22-11.96.74-7.55 1.36 2.02 12.12 7.02 20.52 8.9 14.63 3.27 16.99 4.36 18.65 10.37 1.04 3.79-1.37 16.88-5.22 28.7-2.76 8.46-5.98 22.04-5.98 24.67 0 2.86 2.24 3.33 4.75 2.53 1.09-.35 6.23-5.49 9.47-8.38 14.05-12.54 18.13-12.17 6.13.1-4.78 4.88-11.36 11.61-11.36 12.12 0 2.6 2.44 2.3 7.83.35 8.31-3 27.8-2.64 36.47 1.72 10.78 5.42 11.23 5.18 10.99-11.24-1.94-30.67-6.94-66.97-16.93-95.29-15.25-43.195-46.9-83.279-93.67-81.473-57.01 2.97-91.42 25.672-130.2 52.867 23.42 51.966-10.43 91.776-22.69 97.026-1.19.51 15.35 52.83 22.41 79.41 6.41 24.14 17.2 72.9 17.2 72.9zm242.69-1253.452c-1.33-3.418-33.04-106.764-41.91-149.986-85.74-4.988-149.14-12.107-224.63 9.326 0 0-1.64 29.117-.85 30.53.77 3.596 3.37 3.513 5.49 2.334 34.87-19.159 72.66-10.529 75.28 36.721 1 18.042-5.06 30.758-6.16 47.875-.97 14.947-12.73 34.87-5.6 46.224.91 1.396 5.94 4.146 12.8 7.086 12.8 5.482 17.82 10.513 18.76 18.885 1.39 5.775-2.14 9.655-3.21 3.723-.67-3.766-1.34-7.082-17.14-12.493-15.4-5.275-19.56-11.391-21.09-14.611-2.12-4.441-1.72-7.59.26-14.668 4.22-15.062 8.38-30.426 7.99-37.682-.14-2.61-3.03-1.341-6.73 1.804-4.69 3.994-24.78 17.219-25.34 16.656-.27-.264 3.31-5.593 8.94-10.969 6.82-6.523 15.31-14.425 15.31-15.874 0-2.566-1-.782-7.62 1.182-11.53 3.177-24.81 2.722-33.74-1.225-7.58-3.334-12.89-5.267-14.02-3.444-2.8 46.025 4.04 93.467 23.35 130.478 17.29 33.627 53.25 75.737 107.31 66.289 55.86-9.762 110.21-54.695 108.26-54.748-20.85-47.202 2.91-82.356 24.29-103.413zm-442.83 1256.512c-24.75-24.79-87.15-51.75-130.03-64.13-3.43-.74-6.81-2.37-6.84 1.69l-.5 85.08-76.64 71.82 1.35 35.05 162.6-.79 107.93-158.25s5.21-.93 5.78-1.9c-19.81-84.03-49.65-151.14-68.6-184.78.32.41-27.25 22.27-51.5-4.9-13.6-15.253-5.25-42.032 7.66-51.847-10.9-8.011-33.46-22.534-48.25-26.726-3.08-.753-7.66 5.471-9.17 11.104-2.7 9.153-7.19 17.339-10.21 26.568-3.32 7.71-6.51 8.873-11.46 6.707-7.71-2.286-9.75-3.084-9.75-3.084l.25 100.018c59.15 20.52 120.04 73.11 137.38 158.37zm245.88-1068.836 17.53-19.035c-27.73-3.403-56.8-8.359-90.81-19.038 23.61 17.558 48.35 28.424 73.28 38.073zm-96.32-53.548c30.91 10.305 70.02 34.336 118.85 25.289-44.51-17.66-78.31-58.918-92.72-142.916-3.15 16.304-9.66 50.208-19.91 53.877-14.4-55.745-72.32-23.326-49.1 22.139-58.69 40.327-129.27 63.084-193.28 94.188 0 0-9.63 29.571-57.58 70.077-9.05-47.492 1.74-117.953-3.88-165.67l-75.17-70.991c1.16 13.519.63 21.907.03 37.739 2.06 2.759 4.91 4.204 7.81 5.929 4.85 273.585-1.68 544.033-1.62 792.528-.74 152.285 3.29 310.955 1.05 454.735l-2.8 5.2.11 34.37 76.76-73.08s-3.57-51.86.45-91.49c48.44 9.75 93.62 32.51 134.12 57.48 5.1 1.42-24.85-99.56-133.78-144.41 0 0-.15-31.55-.15-100.108 0-66.142-1.03-73.143-2.5-74.219-4.41 4.792-60.15 23.573-62.98 20.398 1.5.497-15.72-117.079-.84-134.938l53.33 1.124c15.25 12.31 9.12-2.683 17.98-5.151 5.31-1.43 29.97 8.181 29.97 8.181 101.64-119.974 91.48-317.278 18.54-428.29-18.68 15.173-38.55 35.739-57.28 44.568-.23-.642-.34-61.209-.34-61.209 97.11-62.335 202.74-242.894 196.01-243.507 0 0 30.07 29.288 41.74 45.849l-95.87 138.843c21.96 44.215 44.18 84.309 58.59 123.189 1.95 5.26 7.95 5.111 9.46 10.645 1.3 4.73-4.48 11.298-3.68 16.517 20.23 77.372 24.82 159.473 4.86 233.851-4.21 16.743 3.5 30.313 13.81 42.905.85 1.096-9.61-9.049-10.54-9.61-3.59-2.154-9.56 5.399-10.82 14.927.82 5.841 3.99 6.867 8.19 11.6 7.4 6.149 36.79 35.091 49.74 48.311 11.5 11.741 14.47 12.269 22.22 3.944 2.18-2.041 4.45-4.821 6.57-6.548.4.641 3.26-2.341 4.24-3.294l173.12-168.981c20.11-19.628-172.87 177.304-172.87 177.304s-93.58 91.87-116.53 114.518c-23.71 23.393-26.92 28.51-27.86 30.25-1.7 3.101 7.64 3.017 11.89 2.386.34-.05-3.57.901-7.52.872-24.37-5.447-32.67 21.494-48.03 26.919-40.65 28.864-13.32 75.214 25.51 59.914l9.46-4.55c23.54 43.71 57.49 123.35 73.43 192.57l-6.42 2.97-102.41 153.61h580.74c-41.72-41.52-77.2-92.51-113.34-130.67-57.91 17.32-233.03 13.79-230.27 6.26 0 0-26.52-107.35-41.51-160.08 47.61-40.78 42.73-105.101-26.38-133.976 50.31-39.726 100.96-53.188 150.34-56.413 16.04 40.735 53.69 43.301 71.47 6.001.12-.417 66.77 20.489 91.35 43.118-36.44-3.772-72.43-11.027-108.9-12.767 32.1 12.673 64.78 45.773 75.25 83.627 5.13 13.52 12.96 58.15 15.04 58.31 0 0 12.16-51.55 21.59-48.71 24.05 50.19 65.52 12.44 48.05-27.547 61.26-29.237 130.18-61.893 186.54-88.995 16.44-24.799 56.88-71.899 59.53-72.103 0 0 74.39-426.116 74.37-568.566-2.47-171.254 3.43-361.881-3.95-522.061l-.07-46.037-157.1.065-112.15 164.917s-.84 2.615-.82 3.751c15.3 66.54 34.94 123.171 65.76 184.647 42.52-32.118 78.35 20.77 46.46 51.478-5.98 5.765-4.38 7.221 1.61 11.232 5.9 3.955 46.26 24.258 48.14 24.258 7.3-10.841 9.41-26.855 14.33-39.088 1.24-4.661 4.76-5.233 11.8-4.406 9.04 1.062 8.99 4.822 8.69-52.69l-.26-49.399c-54.52-25.11-126.71-88.955-130.08-155.352 31.53 22.936 103.96 56.282 123.3 59.267 8.5 2.372 7.19-12.433 7.46-18.375 2.3 1.539 3.13 24.414 3.13 24.414-32-9.672-48.77-7.698-128.63-53.978 13.7 65.305 79.1 116.813 126.52 140.303 0 0 1.98 31.016 1.88 65.763-.3 105.964.76 110.629.76 110.629 0-.052 26.09-6.651 33.34-10.245 12.94-10.363 33.67-2.417 36.54 5.216 4.21 39.99.16 77.066-.73 115.257-22.1 1.576-34.21 6.227-45.11 6.672-7.09-.947-11.39-.992-15.02-5.023-10.55-22.801-9.87-8.342-11.15 8.782-.97 5.066-27.4-3.754-30.03-5.279-114.12 131.365-104.39 282.596-26.89 422.654 12.8-8.64 34.85-25.129 56.89-35.958.53 17.819.83 54.498.83 54.498-89.33 65.544-196.32 239.191-192.7 239.673l-36.3-43.334s22.85-36.319 30.9-45.924c.94-1.1 1.54-12.364 1.54-12.364l55.47-80.198c-25.08-44.421-42.21-82.406-60.05-126.092-1.01-3.656-5.37-19.359-4.41-20.844-37-167.177 3.09-250.333.14-256.664 0 0-.49-3.345-1.28-3.997-1.21-1.007.31-1.973 1.68-4.361 2.63-4.63 6.84-14.129 5.4-16.942-1.06-2.08-31.06-32.084-56.79-56.788-13.53-12.996-12.99-14.486-19.99-7.387-2.59 2.631-8.97 10.122-8.97 10.122-92.94 85.995-166.71 164.304-259.99 255.848l-4.48-4.068c135.7-134.87 272.64-268.397 407.02-404.574l-23.64.401c.67-1.712 1.65-3.309 3.03-3.774 12.67.011 25.7-3.832 35.12-9.18 19.17-14.237 46.68-33.3 48.83-52.08-1.37-36.144-31.86-41.379-53.87-23.708-30.6-54.962-54.83-121.086-67.8-182.813-.62-3.064-4.93-8.349-5.58-11.848 6.56-20.5 110.48-162.11 110.48-162.11h-583.59l111.07 132.256c0-5.278 158.28-23.968 230.78-1.893l44.15 156.825c-40.11 38.775-51.96 102.537 21.8 135.734 1.43 3.11-6.99 8.225-6.99 8.225 1.17-1.912 3.21-3.891 2.38-5.649-19.88-8.689-41.17-30.693-41.17-30.693-44.37 34.666-85.85 53.964-126.48 55.678 0 0 21.45 14.543 25.6 30.519 0 0-1.99-.242-2.52-.881-4.4-5.384-14.52-22.793-23.05-27.92-14.47-3.47-23.02-.946-34.44 6.923l-15.45 14.927c-35.46-10.786-74.83-28.423-96.53-55.2zm-5.93 383.832 16.18-15.965c1.85-11.85 5.06-26.917 18.74-43.327 15.16-18.202 31.93-35.316 44.28-51.522 14.82-19.468 22.87-37.086 18.97-45.255 22.1-3.979 42.39-23.482 43.04-58.882.26-18.595 9.23-45.719 9.91-45.342 0 0 154.25-5.248 260.36-106.405 0 0 7.44 1.616 5.69 2.96-40.2 40.268-82.96 69.96-133.5 88.863l-278.74 278.431zm30.86-31.947c4.16-4.166 5.1-5.532 2.75-7.488-3.6-2.983-10.52 3.175-10.52 9.357 0 3.934 3.12 2.781 7.77-1.869zm14.43-14.186c3.31-3.175 3.19-5.484.45-8.225-3.77-3.766-9.25-1.451-11.09 4.624-1.85 6.122 5.43 8.588 10.64 3.601zm12.7-12.848c1.71-1.944 3.1-3.934 3.1-4.423 0-2.155-5.32-7.042-7.66-7.042-2.99 0-8.34 5.022-8.34 7.834 0 2.346 5.37 7.166 7.98 7.166 1 0 3.21-1.591 4.92-3.535zm11.97-23.921c-3.79-3.192-6.28-3.216-9.41-.089-3.64 3.635-3.26 7.632 1.08 11.441 3.29 3.439 4.71 3.105 9.17.355 3.74-3.823 4.41-7.391-.84-11.707zm14.06-2.133c4.1-3.45 3.51-6.285-.96-10.758-4.7-4.705-8.34-4.741-11.68.245-1.26 1.869-1.49 3.746-1.49 4.279 0 1.822 7.76 8.735 9.81 8.735 1.12 0 2.63-1.077 4.32-2.501zm13.51-13.346c3.49-3.639 3.04-6.238-1.96-11.385-4.2-4.328-7.13-4.66-10.83-1.228-3.83 3.551-3.04 7.298 1.28 11.618 4.38 4.375 7.63 5.051 11.51.995zm15.31-15.497c2.56-2.707 1.87-2.488.06-5.425-2.81-4.538-10.99-12.055-13.32-12.055-2.92 0-5.49 4.684-5.46 9.297.02 4.587 2.26 6.454 8.08 11.033 3.86 3.042 2.68 3.317 5.65 1.574 1.65-.967 3.9-2.957 4.99-4.424zm12.15-11.103c5.48-6.242 4.44-7.446-8.79-21.391-4.49-4.728-5.43-5.269-8.63-5-3.05.255-3.26 1.006-4.83 4.219-2.89 5.921-.75 8.93 7.58 17.786 8.57 9.117 9.83 9.895 14.67 4.386zm13.57-14.569c2.12-1.858 3.53-4.023 3.53-5.397 0-2.434-10.72-14.322-14.54-16.512-2.72-1.55-5.55-.674-9.06 2.349-2.11 1.816-2.06 2.253-1.56 4.253.82 3.263 14.61 17.791 16.88 17.788.94-.001 2.81-.774 4.75-2.481zm13.46-13.055c2.27-2.321 4.07-5.132 4.07-6.361 0-2.621-11.55-15.988-15.12-17.861-3.04-1.591-4.81-.928-7.81 3.283-3.45 4.852-2.1 7.069 4.75 14.964 6.5 7.49 8.59 9.759 9.8 9.759.4 0 2.06-1.497 4.31-3.784zm12.7-13.668c2.92-1.774 6.73-5.512 5.19-8.563-1.65-3.125-21.87-24.558-24.05-25.724-4.26-2.285-4.14 1.006-4.14 11.624v5.509l9.31 9.116c13.57 13.284 10.53 10.044 13.69 8.038zm16.45-15.096c1.61-1.608 3.13-4.318 3.11-5.323-8.4-10.224-32.81-42.551-37.22-41.355-.46.125-.65.147-.96 1.073-1.1 3.242-1.54 9.936-.78 15.356 7.71 7.407 25.88 31.524 29.99 33.017 2.45.946 3.54-.445 5.86-2.768zm13.12-13.764c1.54-1.478 2.8-3.48 2.8-4.448 0-.969-2.71-4.368-5.6-7.77s-8.54-10.287-12.56-15.302c-23-28.689-24.67-30.833-28.18-27.919-2.31 1.914-2.87 8.673-1.71 11.2 2 4.36 27.12 34.658 35.22 42.475 5.15 4.971 6.17 5.465 10.03 1.764zm13.23-12.681c1.97-1.853 3.57-4.308 3.57-5.457s-3.7-5.821-7.59-10.382c-3.88-4.561-10.35-12.343-14.37-17.293-10.33-12.696-10.41-13.156-18.11-13.947-11.67-1.198-10.12 1.374 3.11 16.804 3.2 3.734 9.24 11.107 13.43 16.384 9.8 12.355 14.13 16.905 16.07 16.905.86 0 1.93-1.162 3.89-3.014zm13.5-13.221c5.98-5.033 4.8-6.683-14.66-26.777-6.38-6.589-6.83-7.634-11.79-7.634-4.99 0-6.59 1.029-6.59 3.444 0 1.481 25.35 31.605 27.19 32.344 2.5 1 2.79 1.198 5.85-1.377zm14.17-14.517c1.6-1.708 2.9-3.918 2.9-4.91 0-2.163-5.5-9.154-10.65-13.673-2.42-2.12-5.46-4.311-7.41-4.311-3.31 0-8.99 1.871-9.96 3.454-.64 1.022 6.89 10.322 14.29 18.119 4.9 5.165 6.82 5.616 10.83 1.321zm12.45-12.349c3.13-3.133 3.11-6.002-.1-10.201-2.32-3.043-3.02-3.344-7.8-3.344-9.04 0-9.31 2.315-2.3 9.805 5.21 5.569 6.64 7.298 10.2 3.74zm13.33-13.109c3.52-4.475.5-6.933-5.27-4.301-1.37.625-2.11 2.25-2.39 3-1.79 4.651 4.27 5.604 7.66 1.301zm-222.52 37.824c-12.87 8.132-34.5 23.544-49.2 33.841-.39 2.209-.67 7.837.01 12.219 8.33-5.669 35.13-22.783 47.29-32.427.61-3.614 1.5-9.992 1.9-13.633zm23.6-37.333c-.43-2.189-1.87-.804-5.68 2.417-4.99 4.217-47.3 35.566-58.54 43.454-4.27 2.997-8.29 5.53-8.75 6.584-.43.994-.85 9.509.77 11.655 9.17-7 52.67-36.175 53.33-37.185 4.49-7.175 14.52-19.694 18.87-26.925zm-4.85 94.488s-51.9 62.384-68.59 93.463c0 0-.11 35.55-.6 56.021l-2.82.793s-.24-54.868-.95-114.42c-1.75-148.806-3.21-184.938-3.21-184.938l-16.85-12.34-.7-5.854s74.78 52.363 111.27 60.711c-26.66 41.78-51.31 57.898-17.55 106.564zm-61.59 74.611c1.04-2.508.34-2.386-1.81-2.292-1.57.069-2.47 1.522-2.54 3.115-.08 1.819.09 2.25 1.5 1.98 1.02-.194 2.35-1.596 2.85-2.803zm12.48-18.489c7.47-9.198 13.65-15.16 14.75-21.927-4.78.793-32.31 20.091-32.75 22.135.27 10.218-2.06 11.447 6.34 6.939 3.69-2.001 6.68-4.469 11.66-7.147zm2.36-22.79c8.02-6.67 37.29-22.412 40.64-30.168 1.3-3.562-2.87-6.907-3.53-6.579.54.47-41.9 25.896-57.38 39.234-1.39 1.719-1.03 4.65-.11 7.076 1.7 4.466 5.08.838 20.38-9.563zm-9.74-12.269c8.73-5.819 29.37-20.086 34.51-23.657 8.73-6.067 10.47-8.103 7.32-12.598-1.26-1.793-2.96-2.858-5.85-1.589-25.27 17.599-27.45 20.577-46.64 32.907-1.29 3.463-.97 8.632 1.03 10.466 1.46.085 3.9-1.706 9.63-5.529zm-.1-18.991c23.03-16.652 35.45-25.075 36.26-26.912.91-2.029 1.17-9.948-.33-10.797-8.57 6.519-31.47 20.537-47.12 33.232-.41 2.609-.89 8.464.38 9.727 3.17 1.313 4.12-.408 10.81-5.25zm-2.74-60.121c16.76-12.432 32.25-23.249 49.69-34.906 14.79-9.816 17.26-12.001 11.58-14.934-1.95-1.009-5.88-2.604-8.41-1.756-19.64 15.86-41.47 31.035-62.29 46.445-.51 2.299 0 6.817-.13 8.851-.2 3.148 3.95.458 9.56-3.7zm-2.31-17.738c1.38-1.207 10.15-7.024 19.5-13.79 25.08-18.145 28.03-19.911 28.03-21.837 0-5.269-7.23-6.388-13.82-1.024-12.09 9.843-40.94 27.778-41.01 30.322-.1 3.749-.73 7.442.36 9.087 1.39 2.081 3.42.339 6.94-2.758zm7.24-24.578c25.51-17.796 24.5-16.965 24.5-20.161 0-2.783-2.48-1.534-6.39-1.818-3.68-.268-3.75.765-10.74 6.053-14.89 11.249-20.34 14.327-21.9 17.646-.49 1.044-.83 5.173.07 6.081 1.8 1.796 3.87-.41 14.46-7.801zm1.69-17.698c4.99-4.155 9-7.207 9.33-8.079.73-1.895-3.05-5.273-5.89-5.273-3.08 0-5.47 1.593-13.1 8.158-6.73 5.796-8.1 4.579-7.57 7.851.31 1.898.34 6.085.97 6.847 1.63 1.963 5.12-.235 16.26-9.504zm-10.33-11.49c5.39-4.538 6.52-5.471 2.59-9.404-3.56-3.561-7.71-4.446-9.9-2.258-1.21 1.601-.03 10.991-.16 12.866-.22 3.01 3.79 1.891 7.47-1.204zm115.53-97.917c0-1.944 9.38-8.81 16.42-10.376 8.98-1.996 20.24-.963 28.13 2.974 6.79 3.394 14.17 11.549 3.25 6.585-10.03-4.46-31.52-4.516-39.3-.914-5.78 2.927-8.5 3.679-8.5 1.731zm-6.98-34.378c.73-.73 10.11 1.691 15.28 3.052 13.85 3.65 25.23 1.504 39.75-2.685 3.4-.982 5.1 1.374 3 3.1-7.38 5.107-16.94 8.083-25.19 8.85-18.15 1.689-37.67-7.575-32.84-12.317zm-88.99-26.789c7.74-3.788 17.2-56.913 14.15-66.054-9.48 14.482-20.11 20.981-35.25 18.471-24.79-4.112-25.71-34.623-6.56-37.695 7.65-1.227 17.02 3.817 18.55 2.634 8.17-3.831 14.57-31.26 16.56-40.134 1.46-8.699 3.62-32.821 3.95-40.5.69-16.324.03-40.405.03-40.405l-120.64-144.332-264.25-1.136s-.84 202.171-.21 305.595l74.82 71.803.95 116.061c83.6-36.483 164.52-74.802 243.74-116.243-9.19-10.98-8.92-38.639 7.82-49.102 24.66-15.405 45.15 4.987 46.34 21.037zm66.23 24.602c.56-6.545 5.42-11.926 5.77-18.581 0-1.481 1.2-3.198 5.13-1.112 5.13 2.724 6.7.806 12.5-1.863 10.29-4.737 13.23-4.629 21.15-1.46 5.13 2.743 6.71 2.726 11.51.236 6.58-4.345 13.56-5.753 19.34-3.725 8.63 3.005 11.63 4.664 16.56 2.28 2.47-1.199 5.58-5.694 6.12-5.358 3.54 5.261 2.83 13.545 5.09 18.206 4 7.907 2.44 13.572-2.28 9.682-9.92-8.176-17.64-8.378-31.87-4.854-8.33 2.062-12.52 3.666-21.75 2.573-28.59-3.39-30.53-2.533-36.34 1.351-5.65 3.774-9.98 4.159-10.93 2.625zm76.75-51.823c-8.25-2.063-17.69-9.568-24.52-7.556-8.43.57-13.23-9.369-8.91-14.812 7.4-7.199 18.88.061 23.35 3.441 9.68 7.358 11.06 7.941 14.98 7.941 16.08-.316 13-15.34 5.23-20.82-4.61-4.834-5.07-7.966-4.09-9.146 1.59-1.919 6.18-.303 11.21 4.991 9.63 9.037 9.85 27.055-1.96 32.499-5.87 3.28-9.73 4.851-15.29 3.462zm33.56-52.075c-7.48-5.421-20.8-17.587-24.28-21.92-5.88-7.325-8.23-12.008-7.5-17.892.58-4.576 1.27-7.301-1.67-8.814-3.12-1.607-6.12-8.524-5.52-12.154.17-1.006 3.69-.404 5.83 2.26 2.7.438 2.14-1.168 5.07-3.11 30.58-20.522 55.11-16.565 84.12-2.463 8.42 4.043 30.39 20.704 18.62 15.298-.7-.322-8.41-3.66-16.19-7.584-25.16-12.041-53.18-19.336-76-3.856-3.93 2.748-6.3 4.86-3.25 4.86 12.83-2.495 25.52-7.831 38.69-6.998 19.65.257 31.53 9.951 46.26 16.648 16 7.143 19.08 9.587 13.25 15.484-1.64 1.819-2.96 1.766-10.69 1.175-8.3-.636-8.99-.397-13.66 2.594-12.24 7.844-28.15 12.126-42.28 10.94-16.64-1.398-18.42-2.732-18.77-.336-.21 1.532 3.36 4.184 8.29 8.696 3.74 3.424 8.77 8.467 9.21 9.243 1.39 2.45-4.95 1.245-9.53-2.071zm-4.67-26.632c-.03-1.969-3.7-10.535-5.89-12.747-2.1-2.124-3.75-1.295-8.22 1.854-3.37 2.369-3.72 4.237-.63 6.986 6.58 5.844 14.8 7.309 14.74 3.907zm25.07 1.178c6.71-3.252 13.55-14.777 10.44-18.518-1.84-2.227-3.45-.113-6.97 6.136-1.69 2.991-4.59 6.783-5.84 7.654-5.49 3.845-12.73.255-15.78-8.226-1.84-5.12-3.78-8.376-5.92-6.432-3.87 3.51.51 16.172 8.21 19.446 4.55 1.936 11.14 2.222 15.86-.06zm20.89-1.893c6.82-2.104 10.07-5.168 9.5-8.139-.48-2.462-5.39-5.365-8.71-5.365-1.5 0-4.42-.064-5.47 1.332-2.32 3.086-6 12.452-6.16 13.464.79 2.064 3.1 1.1 10.84-1.292zm23.55-50.776c-33.98-12.996-60.82-18.208-93.13-4.429-10.35 4.495-16.26 4.962-16.78 1.298-.43-3.091 7.02-12.249 15.07-16.478 22.56-10.317 49.64-11.288 72.34-.398 8.48 4.152 32.28 21.07 32.28 22.611 0 1.687-2.15.375-9.78-2.604zm397.68 380.707c8.1-4.268 11.82-12.656 6.86-17.611-1.45-1.455-3.48-1.445-5.17-1.445-2.83 0-24.09 5.695-28.21 7.901-2.69 1.44-1.71 3.953.85 6.274 1.19 1.074 2.07 3.371 2.25 5.881.24 3.227-.4 6.146 1.74 5.646 4.33-.996 11.18-1.95 21.68-6.646zm-30.21 7.782c2.31-4.195 1.33-9.949-4.73-13.481-3.16-1.633-5.65-.76-8.19 2.863-6.02 10.976 8.92 15.69 12.92 10.618zm-30.33 5.151c1.3-14.026.67-55.463.67-55.463s-7.55 6.373-12.3 6.594c1.74-6.061 3.63-8.287 6.34-14.225 1.56-6.291 2.42-17.418 1.98-23.779-.47-6.967-5.38-7.153-.32-19.674 2.59-6.396 3.05-13.129-.3-21.049-1.45-3.91-1.91-6.156 1.85-11.112 3.5-4.606 2.12-6.911 2.05-16.513-.09-13.309-.01-15.474-4.04-4.737-6.02 8.891-8.78 7.189-17.95 6.119-8.87 19.876-19.24 40.714-19.65 57.845-.26 10.743-.4 12.413 6.3 35 2.5 8.409 3.36 11.209 3.5 21.375.14 9.706.86 13.12 2.34 18.48 2.63 9.533 13.31 25.301 29.53 21.139zm-308.49 893.889.03-19.98s-31.96 9.86-48.18 3.8c-16.71-4.52-16.65-5.35-16.32-3.54.58 3.23 12.98 9.77 24.45 12.46 8.08 1.89 24.24-.02 32.17-2.37 4.5-1.33 4.98-.08 3.18 1.3-19.6 15.32-44.46 8.27-60.07-4.45-8.34-8.17-13.93-8.22-9.43 2.76 21.45 43.46 74.7 17.82 74.17 10.02zm-21.58-29.69 7.27.13s-2.23-12.66-6-16.36c-7.7-7.55-18.6-6.4-25.51 1.02-3.16 3.41-5.58 15.43-5.58 15.43l5.85.12c2.16-5.61 11.38-31.95 23.97-.34zm-29.09-19.16c-4.13-1.13-13.19 2.99-17.61 5.86-1.63 1.8-1.64 2.06.3 4.62 4.24 5.58 10.71 8.25 11.17 6.16 1.88-2.94 6.57-15.5 6.14-16.64zm48.03 14.09c.96-3.9-2.71-10.56-8.44-12.89-2.47-.62-4.92-1.11-4.2 1.61.81 3.06 2.52 8.07 4.12 11.41 1.16 2.51 1.9 3.78 4.34 2.83 1.92-.64 3.53-1.24 4.18-2.96zm311.94-264.915.07-33.848c-17.1 17.324-39.43 46.396-46.2 57.276zm-522.06-932.797c7.24-3.103 12.56-12.566 10.73-17.348-1.14-2.967-4.15-.589-7.19 3.807-4.89 7.072-6.13 7.839-10.43 7.839-4.58 0-6.4-1.178-9.54-7.333-2.16-5.822-3.69-6.733-5.71-4.195-.95 1.144-.87 2.784.36 7.026 3.22 11.093 11.53 14.601 21.78 10.204zm19.74-3.501c8.03-2.764 9.67-3.643 9.28-6.317-.39-2.8-6.78-6.537-10.4-5.845-2.62 1.579-9.41 12.32-9.02 14.238.93 1.498 3.62.167 10.14-2.076zm-46.33-4.682c-.28-2.475-.62-4.907-1.3-5.732-2.58-3.104-8.02-.912-8.02 3.035 0 2.998 4.27 6.393 7.72 6.393 2.44 0 2.09.594 1.6-3.696zm45.39-20.235c11.42 4.301 17.22 4.783 11-1.058-8.54-9.478-47.7-20.301-68.72-4.835-1.49 2.134-1.18 10.304.45 9.853 17.1-11.531 38.99-10.915 57.27-3.96zm-39.11-32.683c-9.6 3.194-18.62 8.217-19.77 12.888-1.86 7.531 1.51 7.609 14.06 3.66 16.17-5.294 34.26-2.896 48.04 5.066 10.47 7.612 13.57 5.093 11.8-1.301-5.85-21.165-38.56-24.977-54.13-20.313z" fill="#131f67" transform="matrix(.154671 0 0 .154671 460.853 77.433)"/><path d="m2924.16 750.5-70.61 69.963.99 82.797c7.09 13.007-108.98-37.102-127.3-52.267 2.13 55.308 77.61 118.324 126.7 141.382l1.34 175.625s19.75-7.66 30.63-11.44c8.05-2.79 26.46-2.53 32.53-5.44 9.63-120.39 17.85-277.021 5.72-400.62zm-392.72 86.656c-6.88.117-11 1.982-10.91 6.407-2.07-.345 26.09 103.375 38.91 146.687-24.95 25.21-50.99 69-13.72 109.53 7.95 8.65 22.52 15.98 36.37 24.28 6.18 5.99-75.77 58.82-148.71 58.85-23.39-51.27-56.05-22.92-74.07-5.03-14.07-1.24-66.6-32.53-93.47-50.44-.43-.29-.14-7.71-.09-9.06 1.87 12.22 105.27 38.58 109.94 26.34-2.99 0-46.39-29.35-58.85-58.31-15.9-32.67-28.65-77.53-28.65-77.53-5.79 16.59-3.81 39.58-19.75 47.81-4.78-54-81.89-26.46-43.5 26.34-21.57 6.33-40.01 17.49-60.94 26.78 43.8 59.59 104.08 99.23 167.75 122.6-8.4 17.89-57.98 58.15-17.25 105.62 1.84 1.46-38.92 45.92-58.97 80.69-15.09 26.17-10.54 46.26-8.81 46.9 55.22-63.28 86.25-116.81 86.25-116.81-.47 7.36 65.54 3.38 64.44-56.06 1.46-16.04 4.36-33.43 10.53-48.31 100.72 4.74 187.33-31.15 260.53-106.5 0 0 14.91 4.25 24.31 5.72 4.72.73 11.4-2.34 12.5-2.66 4.24-.22 10.36-1.04 16.06-4.25 7.82-4.39 15.71-11.95 24.07-18.72 10.95-8.87 21.89-17.42 25.78-26.56 4.36-10.16.95-22.41-2.78-33.25-23.5-27.67-39.09 2.08-49.5-1.78-36.15-49.15-66.3-188.163-71.22-189.253-20.2-4.068-89.27-30.49-116.25-30.031zm-248.13 94.875c-2.69.181-12.38 43.402-20.97 43.063-36.35-23.415-37.14 25.046-5.87 22.844 26.41-1.863 41.17-44.482 26.97-65.875-.04-.02-.08-.035-.13-.032zm-388.59 82.219c1.2 262.78 5.93 525.46 12.09 788.16 23.75-5.87 41.02-10.34 64.31-.16 2.19-74.68-4.38-263.14-2.81-445.63 88.77-69.03 151.12-145.17 194.91-244.68l-135.53 63.47s-44.3 63.48-58.44 67.56c-2.01-9.04-4.27-116.51-2.44-162.59zm301.16 162.53-26.63 38.53s.62 132.33 2.16 196.1c1.1 12.69 12.64 24.34 3.4 35.71 5.63 0 30.24 171.69 6.85 241.29-4.19 12.46-.27 21.27 6.28 24.12l50.75 51.5c16.01 5.32 31.59 3.24 45.03 0 48.04-43.94 116.28-120.94 116.28-120.94l-180.41-170.53c-15.47-41.36-23.71-295.78-23.71-295.78zm657.46 551.88c-130.61 97.64-186.76 236.59-187.62 235.65.46 1.62-.65 7.32 7.53 2.81 33.8-18.3 120.72-57.78 120.72-57.78 20.64-24.8 36.52-48.74 60.15-72.34 0 0 2.56 107.67.47 161.69 21.32 15.85 71.94 65.37 71.94 65.37-.01-.01 13.98-764.99-16.19-784.4-29.29 5.67-43.99 16.37-54.92-17.6-7.73 155.75-.08 312.04-2.08 466.6zm-283.65-430.54c-31.51 25.75-139.82 132-139.6 133.1 28.73 48.17 142.18 144.67 196.57 198.62l7.87 274.85c8-10.76 13.82-20.89 22.5-31.66 0 0-1.42-139.16-4.78-204.41-.99-19.29-5.42-34.49-4.03-36.24-15.31-79.19-21.65-166.67.01-251.57-51.37-44.25-67.7-73.67-78.54-82.69zm8.43 313.91c-.08.03-.16.09-.24.19-26.6 37.87-77.45 120.1-81.1 119.9-1.08-2.46-52.55-.16-62.28 32.22-8.17 24.11-8.79 46.3-14.75 71.16-103.28-3.37-178.88 29.28-258.5 102.66-22.64.89-42.47 2.74-56.41 7.9-11.67 4.32-17.94 12.11-25.12 17.32-20.21 14.64-25.68 27.14-24.69 42.43 1.8 27.72 50.77 31.66 53.28 12.13 2.49 0 47.93 103.81 52.35 121.5 10.71 28.59 22.2 82.1 23.56 82.18 18.29 1.18 121 29.98 121.37 19.54 9.68-4.16-35.71-152.7-35.71-152.7 79.34-66.57-8.13-137.7-28.69-135.1 45.18-32.16 97.01-53.82 154.19-56.67 8.85 31.77 49.87 48.09 70.53 5.87 0 0 88.86 31.81 88.5 42.35-36.59-5.52-66.68-8.4-103.32-11.91 70.21 38.1 72.36 88.32 86.69 138.31 1.95-8.85 20.47-47.53 20.47-47.53 23.81 52.8 69.09 16.16 50.41-26.47l56.34-26.12c6.49-3.3-84.22-105.33-166.72-119.78 4.16-7.6 5.8-14.75 10.1-20.94 20.68-20.3 36.72-50.01 5.09-85.56 20.88-29.17 69.29-99.59 66.22-100.85 0 0 .94-32.91-1.57-32.03zm-678.33 324.55c-.79 0-2.25 244.18-.54 365.39-2.03 5.02-3.34 31.84-3.34 31.84l75.12-70.56 2.25-91.22c19.62-4.69 141.88 57.37 132.1 57.03 9.33-3.93-56.44-128.13-133.16-141.9-1.43-70.37-2.15-150.03-4.16-171.44-26.64 5.09-68.27 21.02-68.27 20.86zm666.99 146.89c-21.04 6.27-29.81 50.49-23 71.94 1.26 3.97.46 4.82 3.81.93 8.2-12.03 5.61-35.99 20.1-48.65 38.24 11.53 34.45-38.2-.91-24.22z" fill="#e2cf00" transform="matrix(.154671 0 0 .154671 -258.498135 -79.129)"/><path d="m-1686.84 1464.63v-22.5h20.25v-121.37s.11-29.21 1.44-32.89c15.61-53.21 102.07-49.51 106.37-2.04 1.82 8.08 1.32 34.93 1.32 34.93h-22.88s-.16-8.56-.46-14.89c2.96-50.4-58.23-39.93-61.26-6.08-1.27 6.07-1.4 20.97-1.4 20.97v121.37h23.62v22.5zm-883.92-105.39 99.45-150.23c118.74 39.67 239.94 40.39 362.44 20.81l109.48 129.42h-44.76l-68.9-98.4c-24.98 5.77-50.93 8.29-76.79 11.84l32.25 86.56h-35.1l-25.33-85.62c-59.43 2.3-99.91-2.99-141.18-7.82l-14.86 93.44h-35.72l24.11-96.48c-28.07-5.26-56.4-9.77-79.92-17.31l-73.01 113.79zm113.89-88.41 41.29 11.18-20.16 77.23h-75.54zm106.63 88.41 11.67-68.22c27.73 5.46 63.91 6.56 102.06 6.18l17.93 62.04zm195.43-63.25 32.57-8.63 48.82 71.88h-59.34zm257.79 51.29c-34.42-69.21-81.43-129.43-132.53-186.72 49.89-52.45 91.96-113.08 132.36-182.005 40.09 69.565 86.32 134.025 137.26 184.705-56.04 55.74-98.95 116.41-137.09 184.02zm277.38-124.62c-16.58-27.1-36.42-54.2-60.79-81.3 22.25-25.01 41.64-51.81 59.1-79.82 20.11 30.89 40.86 57.69 62.18 80.78-22.54 25.2-41.45 52.81-60.49 80.34zm-1010.3-360.836c158.86-184.761 137.73-378.717 49.97-535.163l18.66-19.19c101.48 166.769 123.08 403.886-63.94 587.649-1.97-11.08-4.69-33.296-4.69-33.296zm633.49-207.21c22.82 38.842 36.77 78.168 60.89 117.233l-57.22 77.328zm-683.48 122.372c-1.48-121.913.37-368.924.37-368.924l53.6-40.998c64.13 77.849 99.13 283.043-16.04 419.611-8.38-6.101-31.18-3.563-37.93-9.689zm761.01-24.601c-147.01-247.956-72.25-428.771 69.43-589.327.41 12.373 1.34 24.698 2.46 37.023-121.64 139.274-170.28 345.251-51.02 531.598zm-266.21-36.022 66.95-91.225s12.69-36.285 23.38-47.005l12.28-10.862c4.09 3.944 11.88 8.936 11.64 13.471-.26 4.281-6.57 26.923-6.57 26.923l-78.3 114.492s-23.76-4.165-29.38-5.794zm356.11-442.792c2.11-2.39 28.69 8.698 28.69 8.698l1.7 374.879-53.2 34.183c-15.44 7.841-136.07-238.183 22.81-417.76zm-560.49 157.919c24.22-32.997 49.74-61.563 73.22-91.872 6.07 2.087 22.01 2.442 22.01 2.442 1.69.906-5.36 25.144-22.73 41.854-17.46 17.791-59.03 66.545-60.25 91.106-.37 7.574-17.37 16.251-17.37 16.251l-12.1-12.748c3.71-18.678 9.5-32.996 17.22-47.033zm-151.09-143.798 53.31-69.159 5.32 183.755zm-182.18-407.518c50.75-54.028 95.61-116.027 137.99-180.108 38.67 63.622 81.57 128.67 135.23 181.409-48.86 53.589-95.17 117.879-135.58 181.614-38.8-62.061-82.18-126.293-137.64-182.915zm-202.53 16.197c24.15-23.393 44.23-49.295 60.59-77.485 18.76 28.47 36.47 57.803 61.56 81.103-23.15 24.812-30.57 32.703-62.13 79.007-17.81-28.859-36.3-57.312-60.02-82.625zm559.2-74.808-105.55-131.928h51.11l62.86 93.362 75.29-8.595-26.5-84.767h31.2l22.03 83.406c46.18 1.094 91.31 4.688 135.14 9.079l22.52-92.485h31.77l-28.83 96.779 85.02 22.318 75.75-119.097h37.64l-107.37 153.765c-140.36-42.159-253.09-37.327-362.08-21.837zm-564.45-67.401c-1.64-11.659-2-23.158.12-34.346h22.8s-.14 8.406.17 15.556c.02 45.171 54.07 39.358 62.06 10.903 2.81-10.052 2.38-26.133 2.38-26.133l.09-120.181h-23.16v-23.335h68.59v23.335h-21.39v119.855s-.17.518-.05 2.59c.4 7.233.63 24.57-3.2 32.703-21.67 54-100.94 41.753-108.41-.947zm868.76 12.181 24.05-76.79 71.93.08-55.05 87.716zm-174.09-18.678-15.21-58.03h126.83l-16.38 64.878c-33.49-5.655-64.08-6.735-95.24-6.848zm-152.04-58.03h50.62l19.72 60.05-29.2 3.307z" fill="#d40000" transform="matrix(.154671 0 0 .154671 460.853 77.433)"/><path d="m2162.63 693.362 122.23 146.23c25.47-9.109 153.82-23.753 230.83-6.186 13.41 52.563 27.61 105.647 42.62 153.5 0 0-4.81 5.613-8.28 9.188-49.17 56.666-14.37 111.396 30.63 129.256-8.11 16.85-94.34 58.81-146.86 53.82.09-.52-16.12-38.51-48.99-25.67-11.23 4.39-15.86 12.84-24.56 21.09-31.37-9.46-72.79-30.08-94.32-52.76 40.29 20.06 79.96 30.86 119.8 25.55 0 0-4.94-4.12-10.54-6.69-3.37-1.55-11.48-6.43-18.03-10.85-18.52-12.47-30.82-27.52-43.5-53.25-14.6-26.06-16.98-54.11-24.98-78.846-4.23 12.676-6.06 46.156-17.12 53.096-2.86 1.88-3.39 1.31-5.53-5.78-8.44-25.74-39.33-22.48-49.53-4.15-5.17 15.75-4.42 22.67 2.11 37.31l-18.73 10.4-.04 3.1-11.53 5.5-2.4-1.63c-53.61 25.89-106.15 52.84-160.84 77.64 0 0-29.05 48.19-55.63 67.36l-1.04-163.65-78.71-71.1-.38 38.94s3.78 3.95 5.66 5.94c1.08 273.96.17 543.47.34 792.19l.37 228.96-4.81.28-.25 26.71 5.42 1.21-.76 37.71-2.81.19-.41 23.87 4.29.67-.07 134.77-4.25 5.47.09 38.47 82.19-78.1 1.84-88.81c64.83 12.24 132.59 58.82 132.59 58.82-11.41-74.39-90.26-135.7-135.55-147.94l.14-176.26s-33.67 14.04-50.3 16.19c-8.24 1.17-11.41-.08-15.34-6.03-2.87-4.33-2.94-8.28-.35-17.25 1.21-4.18 1.17-5.28-.34-9.5-2.12-5.91-2.14-8.58-.06-19.03 2.17-6.13 1.21-9.41-1.07-15.09-2.44-6.08-2.63-7.22-1.59-10.72 2.75-9.23 2.91-10.72 1.47-14.84-2.83-8.06-2.92-13.87-.31-19.1 12.12-20.34 39.29-15.32 54.03-14.59 7.47 8.31 11.93 12.95 12.62.91 5.23-14.38 25.52.34 34.99 6.45 80.65-108.07 120.43-254.37 19.26-437.49l-56.28 45.04.13-56.37c74.63-47.96 158.59-157 194.95-242.98 12.09 14.16 25.97 28.09 39.06 42.37l-8.55 14.31-2.53-1.43c-23.15 44.17-86.02 127.72-87.04 126.87 23.28 43.13 44 86.68 61.62 130.74l4.62-2.07 4.12 13.28-8.14 2.43c27.54 90.33 28.44 173.96 7.72 251.09l4.86 20.49s29.13 28.22 36.99 36.51c20.53 19.88 43.41 42.07 43.41 42.07l26.59-26.03-1.54-2.22 233.11-231.44 14.53 13.9c-142.77 143.78-390.75 392.04-390.75 392.04l-8.6 1.25c-4.88.72-12.11 1.04-16.71.72-7.59-.53-8.52-.36-14.6 2.53-6.85 3.26-12.51 8.08-20.09 17.15-3.47 4.15-5.85 5.94-9.69 7.32-48.6 28.98-4.66 87.34 36.68 56.62 30.3 57.89 55.95 125.31 70.1 192 0 .49-5.44 2.35-5.44 2.35l-108.93 161.53h41.9l4.38-7.44h-31.41l100.22-144.75c127.5 34.73 244.52 39.67 363.28 19l103.38 125.75h-41l5.84 7.44 53.06.84-121.51-143.39c-43.5 11.63-158.26 20.98-230.24 8.8-11.01-53.48-29.16-111.59-42.6-157.85 68.71-53.77 17.12-124.75-25.27-134.65-2.06-3.89 85.97-57.4 148.68-53.69 17.96 43.13 57.28 36.74 71.4 4.65 26.01 9.55 59.76 19.08 86.55 40.39-35.73-7.83-77.13-12.11-111.2-12.63 64.81 25.13 82.99 78.08 90.97 128.03 1.41 8.28 5.85 18.97 5.85 18.97 5.52-18.03 10.03-36.66 20.9-52.1 5 17.66 23.4 31.38 41.94 20.88 10.76-7.79 14.5-21.17 11.1-39.66-.95-5.14-1.43-7.96-1.43-7.96l14.4-7.79 1.88 1.6s15.78-6.74 23.61-10.55c1.23-.6-1.44-3.05-1.44-3.05l145.61-68.67c-.55-.3 36.71-51.17 58.1-70.79.64 60.95.49 86 .45 158.37l8.22 8.03c7.3 7.12 23.2 21.89 59.03 54.81 8.07 7.41 13.71 11.08 13.71 11.08l-1.1-1065.91h-1.2l-.02-20.511 1.68-.088.03-53.334-1.51-.875-.01-16.805 2-1.465.14-143.975-2.31-.398-.14-34.533-81.16 85.837.61 80.946c-36.22-4.684-81.03-27.859-111.88-46.562-9.96-6.078-15.53-7.697-15.21-4.219 4.33 48.194 74.1 121.902 127.71 141.187l.1 181.305c0 .1 12.66-6.33 20.39-9.58l1.16 3.23 17.28-7.16 1.41-3.73 14.98-1.89c.16 3.06.68 2.64.68 2.64 13.35 3.73 19.26 12.84 13.88 23.06-1.88 3.43-2.24 8.29-.69 9.56 5.79 9.13 7.3 17.18.31 25.81-2.69 4.42-2.67 6.91.1 11.6 7.22 14.57 3.12 13.6-2.31 22.28-1.23 6.56 5.96 10.83 3.59 17-1.11 4.07-5.4 8.84-8.31 11-3.42 2.47-6.22-2.12-6.22-2.12s-10.82 4.64-18.6 6.12c-7.64 2.48-20.81 6.92-25.37-3.38-2.61-5.89-.51-11.28-.69-17.87l-11.22-1.22-.4 29.94c-6.42 3.41-31.94-9.63-31.94-9.63-109.49 141.92-106.43 299.32-25.22 431.19.79 2.12 57.22-38.59 57.22-38.59s-.11 33.37.37 51.47c-71.73 59.32-141.02 139.15-190.56 237.56l-30.69-36.38c5.29-4.66 5.49-12.06 5.38-17.65l22.28-33.22.19-8.63 57.93-80.92c.91 4.84-59.77-108.65-67.85-145.59l4.01-1.09c-27.23-103.04-21.65-175.19-1.98-259.23l-5.61-5.42-76.44-76.33c-6.2 5.73-12.39 11.49-18.57 17.27-.94.88-5.6.36-6.55 1.24-40.23 37.72-78.9 75.58-117.17 114.91-.99 1.02.67 5.21-.31 6.23-38.34 39.49-78.09 76.96-116.89 116.38l-14.17-13.51c137.4-137.35 396.22-392.47 396.22-392.47s1.12-2.02 2.91-2.09c7.2-.28 13.64-1.91 20.75-3.97 8.53-1.98 9.91-2.61 13.5-6.31 2.2-2.27 5.8-5.45 8-7.07 3.74-2.75 12.32-9.95 25.72-21.62 8.19-7.13 13.24-17.51 13.06-26.78-.31-16.5-11.24-30.58-25.31-32.6-5.85-.83-17.32 2.21-23.13 6.13-4.43 2.99-6.51 4.35-8.41 3.02-28.04-56.865-55.33-128.385-66.9-187.395-.62-3.721-.28-4.82 2.75-9.5 1.89-2.91 6-9.331 9.16-14.281 25.06-36.242 54.13-80.268 81.4-120 4.53-6.6 13.32-19.312 13.32-19.312l6.65-10.919h-43.23l-5.34 8.5h35.59l-105.86 152.356c-195.08-63.766-354.94-23.347-358.77-22.476l-105.46-129.88h48.23l-5.85-8.5zm94.94 0 5.37 8.5h50.59l-2.87-8.5zm84.37 8.5h31.19l-1.79-8.5h-32zm55.82-8.5 1.98 8.5h126.82l2.25-8.5zm155.06 8.5h31.77l2.39-8.5h-31.95zm62.88-8.5-2.72 8.5h72.04l5.4-8.5zm308.08 58.794 1.13 23.617-51.94 54.74.06 76.428-15.12-3.509-.6-78.983zm-14.56 50.344c.44 23.41-3.35 45.85 2.84 69.719 3.05 11.745 9.23 25.52 10 39.406l-17.13-.405c-2.17-7.012-3.02-14.742-5.59-23.376-6.32-21.278-11.45-43.695-6.78-66.25zm-373.91 38.18c.62 1.163 2.67 11.051 4.57 20.226 8.99 50.357 21.04 87.724 33.34 125.75 15.63 47.914 38.76 108.234 61.25 136.184 2.98 3.49 4.44 7.46 3.37 9.19-1.81 2.93-10.99-1.16-17.15-7.65-2.53-2.66-7.37-10.11-10.94-16.79-7.86-14.71-18.42-36.11-19.47-39.5-.43-1.37-4.57-11.95-9.22-23.5-8.13-20.2-12.95-34.03-19.75-56.496-5.39-17.823-10.36-36.474-16.37-55.25-9.84-30.713-15.53-55.135-21-83.375-.81-4.148-2.19-8.988-1.68-9.977 3.1-2.243 11.56-1.346 13.05 1.188zm5.5 1.914c-.97-.813 8.93-.966 12.1 1.687.94.94 2.62 6.848 4.06 14.438 8.95 46.328 22.43 94.202 38.09 139.562 12.52 36.239 26.19 71.129 43.22 99.379 5.34 9.41 12.57 19.47 21.78 30.34 5.16 6.09 5.58 6.95 4.19 8.62-1.71 2.06-4.69 1.8-10.44-.93-5.36-2.55-11.17-8.12-16.62-16-1.87-2.7-4.7-6.75-6.31-9-25.13-43.43-40.37-84.69-54.19-126.596-14.17-42.968-26.91-86.422-35.57-136.5-.1-1.667-.2-3.334-.31-5zm31.56 6.528c2.2 2.239 3.46 6.521 5.38 15.472 10.46 42.954 19.02 81.335 31.37 116.594 6.65 18.962 12.41 37.912 19.54 55.782 11.38 28.54 25.31 54.54 42.43 76.19 5.65 7.12 15.9 15.92 24.5 21.03 5.97 3.54 6.86 4.44 6.47 6.5-.52 1.84-6.34 2.61-8.25 2.47-9.42-1.61-23.34-8.91-27.31-14.32-28.8-31.11-49.39-82.04-64.39-123.82-25.77-71.932-46.56-161.785-42.61-158.994-.26-2.089 10.32.311 12.87 3.096zm12.38 2.597c.93.017 1.98.18 3.16.5 5.38 1.468 6.08 2.222 7.37 8.156 9.21 41.076 18.96 77.299 29.84 111.75 11.08 35.065 22.47 68.125 40.22 102.815 13.02 25.31 29.5 42.8 47.22 51.65 5.09 2.55 9.63 4.99 10.1 5.44.46.46.33 1.78-.28 2.94-.94 1.75-2.02 2.1-6.35 2.03-8.04-.14-13.68-2.64-22.31-8.44-22.63-15.61-42.42-50.95-51.16-71-10.65-24.46-20.44-49.88-29.28-77.591-15.85-49.73-25.73-82.632-32.97-124.594 0-2.411 1.64-3.707 4.44-3.656zm339.19 67.125-.16 14.562c-56.99 3.783-115.42-20.314-162.39-41.998 35.38 46.93 73.15 88.574 162.39 97.171l.16 15.031c-116.24-1.64-198.1-119.35-193.79-148.685 47.8 30.881 134.17 66.594 193.79 63.919zm-320.78-61.656c2.79.124 6.56 1.309 8.03 2.781 9.5 35.46 16.42 74.83 32.12 114.344 19.3 48.557 30 91.407 65.78 131.407 11.13 11.43 32.94 11.09 32.94 11.09s-2.75 6.19-6.47 7.22c-7.66 1.16-13.22 1.51-18.81-.3-20.72-8.75-36.57-30.89-44.75-45.89-7.66-11.24-26.36-57.56-41.78-104.778-16.79-51.412-30.61-104.865-29.03-115.625.59-.226 1.03-.291 1.97-.25zm19.15 5.968c1.37.002 3.19.52 5.38 1.563 2.33 1.113 3.35 1.802 4.56 6.187.79 2.861.66 7.281 2.06 14.469 8.08 37.024 19.22 67.087 30.28 96.375 10.51 27.83 21.79 55.14 35.69 79.84 7.02 12.44 13.98 24.08 18.38 28.47 11.97 11.98 32.29 12.57 38.28.69 3.32-6.76 2.64-17.45-3.93-23-5.1-4.86-16.64-2.8-16.95 3.06 0 1.56 2.87.87 7.03.38 11.62-1.35 15.26 19.22.32 22.65-18.92 4.35-32.05-21.23-15.35-36.9 28.31-19.19 49.91 7.03 43.22 32.25-6.46 14.9-17.29 22.5-31.59 23.03-18.46.59-26.1-5.12-45.03-32.63-21.7-34.82-31.12-68.82-46.41-106.902-14.46-36.021-24.09-74.428-28.63-107.969.4-1.04 1.32-1.565 2.69-1.563zm17.95 5.948c1.67.056 5.19.938 6.74 1.896.93.574 2.26 1.851 2.26 1.851 25.45 92.863 46.67 148.489 68.28 187.759 0 0-.35 7.22-1.79 9.27-2.57 3.67-3.83 2.77-7.19-3.04-13.59-26.31-26.53-55.36-38.59-85.309-14.19-35.243-26.79-71.726-32.13-106.437.28-4.472-.72-5.729 2.42-5.99zm171.68 53.084c3.6 0 6.53 2.9 6.53 6.5 0 3.599-2.93 6.531-6.53 6.531s-6.53-2.932-6.53-6.531c0-3.6 2.93-6.5 6.53-6.5zm-528.82-1.188c-7.54 10.275-13.73 47.086-21.58 47.53-8.63-.134-19.14-5.089-25.92 2.72-8.23 9.488-3.18 19.973 6.97 25.75 4.67 2.309 14.6 2.855 20.63 1.125 24.69-8.282 34.08-48.35 19.9-77.125zm553.5 9.656c5.21 0 9.41 4.235 9.41 9.438 0 5.202-4.2 9.406-9.41 9.406-5.2 0-9.4-4.204-9.4-9.406 0-5.203 4.2-9.438 9.4-9.438zm-553.06 4.469c8.45 21.222-.9 46.607-11.18 55.156-9.47 7.867-24.33 8.88-32.82 1.219-7.07-6.643-3.92-22.595 9.25-21.406 4.44.143 9.71 4.174 12.69 8.437 8.58.884 18.47-42.636 22.06-43.406zm585.88 5.188c5.87 0 10.62 4.756 10.62 10.625 0 5.868-4.75 10.625-10.62 10.625s-10.63-4.757-10.63-10.625c0-5.869 4.76-10.625 10.63-10.625zm37.62 7.5c5.99 0 10.85 4.852 10.85 10.843 0 5.992-4.86 10.844-10.85 10.844s-10.84-4.852-10.84-10.844c0-5.991 4.85-10.843 10.84-10.843zm-350.15 49.312c1.62-.011 2.75 1.544 3.81 4.655 2.2 6.47 2.15 7.23-1.28 11.56-33.36 46.17-2.95 93.38 45.37 98.5 4.08.29 6.13 4.88 8.28 10.22-.29 2.53-.31 2.52-11.28 2.72-7.17.13-12.91-.32-16.5-1.28-16.93-4.56-37.67-19.86-46.15-34.03-9.77-16.34-11.41-33.23-5.38-55.75 3.87-14.46 8.78-24 16.38-31.88 3.03-3.137 5.13-4.704 6.75-4.715zm316.18 5.125.57 158.41-16.88 6.15.69-168.466zm31.93 6.11c21.02 52.19 21.95 100.03 2.97 143.55l-19.17 2.77c26.3-61.31 15.11-105.2.26-147.57zm-1008.24 8.7 68.25 64.41 2.38 717.53-10.88-3.84-4.34-705.76-55.41-50.81zm666.5 2.06c.11 0 .23.02.34.04 1.83.22 3.5 2.52 5.04 6.87 1.8 5.13 1.77 5.28-.25 10.38-9.37 22.95-1.73 44.79 21.4 51.68 5.49 1.74 6.41 2.63 9.63 9.44 2.09 4.42 3.03 6.02 2.22 7-1.21.88-4.15 1.29-12.85-.59-34.41-11.74-46.9-49.38-31.25-79.25 1.95-3.42 3.74-5.27 5.38-5.53.11-.02.23-.04.34-.04zm-274-2.84s7.19 25.4 6.5 31.16c-1.82 11.13-17.64 28.91-31.47 35.4-12.83 4.92-32.2 2.45-40.31-6.09-29.45-34.47 25.49-69.07 39.31-33.19 8.3 23.55-25.47 29.12-26.97 11.03-.01-4.66 1.5-6.12 5.85-9.15 3.86-2.7 3.42-5.1.09-5.1-12.75 4.65-13.04 16.41-7.31 23.82 11.49 12.01 25.71 5.02 35.51-3.8 13.19-11.88 15.78-28.92 18.8-44.08zm284.95 26.2c.67 0 14.17 32.25 15.95 36.85-.44 3.24-3.97 3-9.99-1.21-6.12-4.26-7.94-7.28-10.53-17.18-.78-3.52-2.09-16.33 4.57-18.46zm-273.98 13.61c2.97 0 6.06 10.92 4.66 16.5-2.43 9.68-27.79 26.03-45.6 29.41-3.57.68-7.4 1.4-8.5 1.59-3.68.66-7.98-1.4-12.47-5.97-3.16-3.22-4.66-6.42-3.9-7.18.62-.62 8.79.8 15.71.69 19.41.23 34.39-13.69 45.91-30.29 1.76-2.61 3.64-4.75 4.19-4.75zm-385.78 8.08s13.14 11.89 20.06 18.71c-.74 31.63-12.42 65.93-12.41 94.21.28 24.61 16.2 45.09 17.82 66.5.96 13.85-3.11 34.42-9.94 50-6.36 14.51-9.7 29.98-9.69 45 .81 34.96 25.92 73.18 17.1 107.75-8.29 32.49-17.72 51.25-15.22 68.5 4.82 33.29 22.52 62.79 17.81 90.47-4.38 25.78-16.03 51.53-14.78 74.78 1.44 26.85 11.48 49.29 14.31 73.79 1.85 15.94-2.66 40.76-2.66 40.76l-18.41 1.51c10.12-37.71-4.96-71.8-10.74-108.06-4.92-30.86 8.91-55.42 13.03-81.75 2.56-16.35-.34-31.92-8.44-52.75-16.01-38.45-10.25-63.51 1.28-97 14.27-35.66-5.35-63.89-10.25-98.06-2.51-29.44-.55-50.26 10.5-76.44 8.25-25.2 10.57-39.81-1.72-64-7.76-15.28-9.79-24.31-9.81-44.43 4.02-39.93 14.79-62.32 12.16-109.49zm394.56 15.92c2.86 0 4.28 2.02 4.28 6.1 0 7.45-11.11 16.88-30.75 26.12-10.18 4.79-16.1 5.51-22.06 2.69-5.56-2.63-5.29-4.94.81-6.72 15.36-4.48 26.25-10.61 38.66-21.75 3.94-3.54 8.03-6.44 9.06-6.44zm-88.88 5.14c50.67 54.24 100.36 82.15 138.35 95.2l-5.98 14.17c-49.91-19.33-100.82-46.23-143.95-104.03zm97.63 8.86c1.37 0 6.53 6.54 6.53 8.29 0 1.01-1.88 4.29-4.19 7.24-3.35 4.3-6.31 6.51-14.68 11.1-11.35 6.21-18.2 7.73-23.13 5.12-4.89-2.58-3.24-4.75 8.97-11.93 6.31-3.71 14.72-9.69 18.69-13.29 3.97-3.59 7.47-6.53 7.81-6.53zm-134.22 8c41.51 56.8 94.97 94.54 157.81 114.67l-9.88 13.36c-57.41-19.78-113.55-55.56-164.85-118.57zm144.97 7c2.09 0 6.78 5.3 6.78 7.66 0 1.13-.92 3.21-2.03 4.63-2.22 2.82-13.81 11.53-18.75 14.09-3.86 2-6.76 1.97-10.97-.13-4.99-2.48-4.14-4.57 4-9.81 3.99-2.56 10.02-7.33 13.41-10.56 3.39-3.24 6.79-5.88 7.56-5.88zm-166.99 4.14c-1.18 1.49-61.12 138.77-188.1 236.1l-.6-22.8c70.34-55.78 121.48-132.15 160.05-198.84zm179.05 9.86c1.92-.05 3.28 1.25 4.63 3.82 1.61 3.06-.15 5.79-7.25 11.15-4.44 3.35-6.09 4.01-9.75 3.94-9.45-.17-9.21-2.45 1.16-11.72 5.38-4.81 8.74-7.12 11.21-7.19zm245.22 6.79 26.47 2.03c7.13 4.96-103.45 77.33-180.12 70.84l2.03-17.34c67.31 1.91 153.46-52.41 151.62-55.53zm-227.05 6.77c6.08 3.41 13.66 7.44 11.77 8.76-2.82 1.76-20.77.62-24.91-1.6-3.09-1.65-2.92-2.52 1.35-7.31 5.22-5.87 6.13-3 11.79.15zm-235.95-4.31c-41.94 74-91.9 141.54-149.73 185.55l-.77-39.14c55.04-42.37 96.7-119.76 96.81-120.03zm525.36 4.72 12.82 7.49c-79.98 74.03-166.36 105.94-249.37 97.95l6.67-15c134.71 10.64 224.16-89.01 229.88-90.44zm19.44 2.63s4.3-.55 3.84.33c-26.56 26.03-63.02 53.81-86.9 69.31-113.09 116.14-209.89 207.79-308.4 311.24l-15.75-16.48 14.26-15.09c.04-29.8 36.54-63.23 58.18-88.97 9.03-10.17 25.99-36.35 24.07-47.34-.66-2.52-.75-3.47-.75-3.47 34.23-6.84 42.42-34.59 43.15-59.13 1.6-16.4 3.79-31.3 9.31-44.78 154.91 12.42 254.73-101.63 258.99-105.62zm-269.95 17.12c17.57-.06 30.85 13.85 30.81 33.57-.15 8.24-3.05 14.5-14.23 36.31-10.83 18.64-12.24 29.98-16.49 51.51l-11.01-9.89-20.03 18.05.28-26.3s6.91-8.78 18.08-21.32c14.16-15.72 26.97-35.96 26.39-47.32-.38-11.37-12.39-20.63-24.68-13.2-10.67 7.46-15.6 20.96-21.88 61.31-1.12 7.15-2.16 15.57-2.74 17.41-1.58 4.96-17.02 19.57-17.02 19.57-1.31 0-7.41-29.62-7.41-29.62l-15.6 2.57c18.08-19.61 32.1-43.28 41.21-68.05 8.38-15.29 19.04-24.44 34.32-24.6zm-339.41 6.28s-31.06 64.52-85.58 106.48l-.36-25.26c31.68-24.56 55.82-66.9 55.78-66.81zm747.52 1.64c-107.81 111.63-248.52 317.18-73.89 605.95l23.06-26.61c-140.61-261.17-40.96-396.54 51.59-532.36zm-582.96 9.21c31.57 22.44 64.52 44.72 107.12 58.88-2.27 7.59-60.84 56.88-18.81 102.45 1.76 2.39-2.71 8.19-9.56 16.42-20.08 27.44-40.12 46.98-56.9 77.87l-.69 58.03-16.78-14.81zm578.81 5.34.72 33.1c-160.18 194.67-142.14 369.96-51.6 531.42l-17.34 17.59c-148.41-255.43-55.82-447.99 68.22-582.11zm-395.17 19.58c-7.07 18.65-37.96 50.61-37.96 50.61s4.09-31.12 6.67-40.94c1.96-7.49 6.4-17.62 10.78-22.47 12.47-13.71 24.91 1.86 20.51 12.8zm-212.53-17.5 3 260.83-22.51-22.7-3.32-199.45zm-30.41 51.04 4.48 177.1c-22.48-53.06-54.07-111.14-54.7-110.58 0 0 25.85-34.29 50.22-66.52zm177.83 55.41s3.43-2.88 8.82-9.06c11.68-11.8 12.73-11.88 11.65 4.03-.41 6.12-.06 13.97-.06 13.97 6.83-3.97 22.95-23 27.5-19.57 3.52 3.31 6.37 10.2 6.44 20.91-.4 20.97-12.26 40.23-31.07 46.5-51.9 16.08-86.71-43.78-50.67-81.74 3.59-3.77 13.79-10.75 18.7-9.37 6.07 11.09 5.86 23.4 8.69 34.33zm514.98-18.81c3.02 8.26 6.88 16.43 17.4 20.12-1.61 253.61-.41 702.59-.41 702.59l51 47.85-.33 20.91-67.59-61.87s-3.63-529.48-.07-729.6zm50.65 11.75c1.82 24.53-2.34 50.37 1.87 75.56 4.16 17.43 10.46 33.14 10.97 50.28.47 15.68-.55 24.61-7.25 46.5-4.67 15.29-5.14 17.72-6.22 33-2.52 21.28 4.36 40.55 9.63 57.5 7.01 22.48 5.06 49.66-6.16 85.5-4.03 12.9-4.8 18.34-4.22 30.03 1.55 24.55 10.32 47.88 14.79 71.97 2.41 13.81-.06 31.87-8.57 62.5-3.16 11.4-6.5 31.25-6.5 38.75 0 8.05 2.58 23.21 5.07 29.75 11.79 31 12.37 36.55 12.97 55.18.09 13.99-3.95 28.14-8.91 40.45-8.27 19.67-2.84 39.86 0 61.97l-20.33-17.37c-6-18.92-3.89-36.62 1.67-50.73 7.91-22.09 9.89-24.14 9.78-36.85-.15-16.86-9.81-36.79-13.81-48.65-7.1-21.04-7.12-41.68-.06-63.93 3.46-10.93 8.47-32.37 9.59-41.07 2.16-16.72.53-29.93-7.87-63.5-4.1-16.37-4.97-22.69-5.25-39-.27-15.1 1.93-30.79 6.78-49 6.98-28.92 6.9-46.29-2.19-73.12-7.35-22.18-9.41-37.22-7.53-54.88 1.09-10.24 3.89-19.85 8.59-29.43 8.71-21.75 10.04-42.55 3.57-63.32-11.15-42.49-10.96-64.08-9.87-102.44zm-57.13 13.91c-1.77 173.79.03 372.76.03 372.76s-51.48 36.05-51.28 34.17c-66.34-109.39-91.62-270.53 24.25-415.87 0 0 18.65 7.96 27 8.94zm-783.02 41.42c93.89 175.31 106.11 352.42-49.14 534.11 5 16.06 4.19 31.03 1.7 45.68 30.26-23.56 272.97-265.98 68.56-603.52zm478.46-14.27 46.12 2.71 3.1 39.67-14.91 14.78s-.27-8.2-.47-15.53c-.23-8.97-1.5-16.81-2.34-16.53-.77.25-1.62 10.71-2.28 22.12l-.69 17.03-5.15 5.16c-6.88 6.87-8.27 6.33-8.54-3.34-.57-21.04-.52-22.48-2.06-20.94-.86.86-1.35 8.06-1.56 18.94-.17 8.63-.78 16.9-1.34 18.37-1.17 3.01-9.94 10.84-12.16 10.84-2.14 0-2.02-3.04-2.03-16.12-.01-11.04-1.17-17.1-2.94-13.03-.42.96-1.16 11.93-1.31 20.84-.16 8.91-.74 17.05-1.28 18.06-1.92 3.58-10.97 11.24-12.56 10.63-2.29-.88-2.86-7.43-2.79-18.38.04-5.36.88-9.89-1.18-11.34-2.07-1.45-2.44 4.75-1.88 20.5l-.15 17.13-5.79 6.31c-9.16 9.43-9.79 8.98-9.81-7.31.41-12.9-.05-18.56-2.59-17.54-2.55 1.03-1.53 7.26-1.03 19.97.45 11.36.3 17.06-.47 18.5-.62 1.15-3.59 4.5-6.6 7.44-3 2.93-6.71 7-7.15 7-.7-13.69-1.88-43.16-1.88-43.16l-48.09-2.12s9.85-11.69 14.03-13.94c2.17-1.16 5.57-1.3 17.62-.78 8.22.36 19.27-.34 20.26-.72 3.61-1.39-3.92-2.63-14.54-3.31-7.08-.51-8.92-.32-16.78-1.47l7-7.22 5.25-5.22 15.35.5c9.28.31 16.18.26 17.25-.34 9.08-1.79.57-3.86-9.79-3.88-10.1-.01-15.81-.03-15.81-2.25 0-2.25 11.31-12.51 14.53-13.18 1.67-.35 9.89-.69 18.28-.75 14.43-.12 19.66-.33 18.85-2.72-.81-2.4-10.36-1.69-16.72-1.97-17.65-.03-18.47-.69-6.41-11.25l5.85-5.13 11.06.32c16.7.47 24.78-.2 24.78-1.78 0-1.43-10.87-2.82-20.09-2.82-5.52 0-10 .1-10 .1 4.12-5.37 8.54-9.73 13.37-14.5l14.91-.28c10.88.16 17.56.57 17.75-1.41.18-1.99-3.9-1.97-8.91-2-6.77-.04-14.81-.62-15.87-1.69-1.14-1.14.99-4.32 5.72-8.56zm-456.56.52c129 210.73 82.43 438.44-61.41 580.17l-4.22-27.66c135.8-165.13 159.51-335.63 49.65-536.24zm239.9 28.29c-23.15 34.83-58.57 69.18-71.93 97.62-2.74 3.2-3.63 10.41-7.88 11.85-2.12 0-2.81-4.01-2.28-13.31.4-7 1.06-9.35 4.44-16.19 18.28-33.36 39.46-57.34 62.84-89.03zm5.43 3.38 21.41 1.36c-4.76 15.14-11.18 25.95-18.75 35.78-9.72 12.6-21.4 25.3-35.01 40.8-19.72 22.46-29.6 45.32-28.68 55.37-4.93 5.2-8.36 8.79-14.62 14.11l-12.49-11.48c9.26-47.49 54.1-91.12 88.14-135.94zm261.92 19.28 6.94.41c23.74 1.39 38.55 2.84 39.4 3.87.53.64 1.22 4.29 1.57 8.1.51 5.79.02 9.64-3.04 23.43-2 9.08-4.25 17.13-5 17.88-2.73 2.77-3.82.01-5.09-12.88-.77-7.77-1.07-13.44-2.09-12.81-.49.3-1.56 8.65-1.25 14.88.79 16.2.69 20.17-4.35 25.06-8.82 8.56-9.3 7.69-9.97-7.5-.27-6.3-1.77-15.49-2.21-15.94-1.91-1.91-2.55 6.83-2.57 21.6v15.74l-4.19 4.57c-5.46 5.92-7.23 6.82-9.24 4.81-1.25-1.24-.79-3.94-.79-12.94 0-10.54-1.84-16.62-3.84-14.59-.38.38-.47 10.58-.5 19.47s-.14 16.75-.25 17.47c-.33 2.13-10.33 12.18-12.12 12.18-2.11 0-3.79-11.6-3.79-21.09 0-6.34-1.35-7.45-2.68-3.97-.34.87-.6 9.77-.6 17.75v14.5l-5.87 6.06c-7.86 8.13-9.14 7.66-9.16-3.46-.02-9.59-.66-14.66-2.59-14.66-1.11 0-1.38 4.54-1.38 15.31 0 7.39-.48 14.7-1.06 16.25s-3.16 4.95-5.72 7.56c-2.56 2.62-5.19 4.75-5.84 4.75-1.09 0-2.63-9.08-2.22-13 .08-.82.09-6.54 0-12.71-.21-14.74.79-14.11-22.72-14.85-27.59-.87-27.99-1.03-19.69-9.06 7.89-7.63 6.78-7.35 25.06-6.13 14.69.98 16.47.92 17.94-.56.9-.9 1.41-1.88 1.13-2.16s-5.88-.79-12.44-1.15c-18.17-1.01-19.75-2.32-12.06-10l4.34-4.38h18.59c12.55 0 21.09-.55 21.55-1.3 1.21-1.95-3.77-2.43-15.7-3.13-6.41-.38-12.44-.91-13.41-1.19-3.03-.9-1.9-3.96 3.22-8.75l4.94-4.63h16.4c15.24 0 22.69-.99 22.69-3 0-1.42-3.03-1.99-10.84-2.09-11.06-.14-18.44-1.21-18.94-2.72 2.7-5.22 6.43-8.14 10.78-12.5l16.69.6c16.8.59 22.06-.01 22.06-2.94 0-1.53-7.19-2.63-16.5-2.06-5.99.36-13.25-1.08-13.25-3.19 0-.91 2.41-4.07 5.38-7l5.4-5.31 16.35.65c9.11.37 18.84.28 19.56-.22 2.72-1.86-3.58-3.31-13.84-3.9-15.83-.92-16.87-2.15-8.5-10.07zm-569.88 8.75c84.68 151.62 71.99 294.47-18.18 416.03-10.36-6.03-21.39-9.31-33.19-10.56l-2.28-366.09zm605.6 59.25c1.69-.26 1.66 2.53 1.19 8.41-.39 4.72-1.1 9.67-1.6 11-.97 2.56-1.74 2.67-9.97 1.5-9.36-1.34-9.23-3.03 1.07-13.16 4.98-4.9 7.81-7.52 9.31-7.75zm-454.6 6.81s11.16-.07 16.73.13c0 0 .87 28.37 3.15 44.74l36.29 1.74-14.09 14.65-27.52-.87s-8.37-40.27-14.56-60.39zm432.47 17.16c5.11-.09 18.53 2.21 20.1 3.78 1.22 1.23 1.26 4.26.18 22.56-.39 6.6-.78 20.78-.87 31.5-.16 19.42-.16 19.5-2.41 19.82-2.96.42-3.29-.62-4.09-13.41-.45-7.2-1.44-13.5-2.28-13.78-.97-.32-.88 6.03-.88 19.16v16.96c-2.89 2.4-5.56 5.57-8.87 7.25-2.03 0-3.12-3.18-4.13-12.06-1-8.81-1.97-15.03-3.15-13.06-.28.46-.17 10.06.4 17.94l1.03 14.34-6.37 6.41c-6.54 6.59-7.36 7.13-8.41 5.43-2.43-6.53 1.02-36.46-4.87-40.25-.95-.49-8.77-.71-17.85-1.09-15.32-.65-24.01-.9-26.15-2.75-1.3-1.12 5.94-9.51 9.65-11.19 2.68-1.21 5.71-1.28 18.35-.43 14.62.97 22 .87 20.06-1-.51-.49-7.95-1.58-13.78-2.16-11.76-1.17-15.91-2.35-15.91-4.53 2.74-4.86 6.1-7.72 10.13-11.88l5.68.6c3.13.31 10.53 1.1 16.44 1.78 5.91.67 17.85.78 13.03.37 1.57-1.56-4.53-3.17-13-4.22-15.95-1.97-17.4-3.78-9.37-11.68l4.94-4.85c8.38.64 16.84.85 25.15 2.13 6.08.96 9.38.62 9.38-1.44 0-1.44-3.03-1.38-10.38-2.84-2.66-.53-16.4-.33-16.62-4.38 3.24-4.49 9.04-12.67 14.87-13.03zm-371.87 34.41c2.43-.14 2.55 5.79 2.81 21.46.28 17.17.56 20.13 2.03 21.6 1.41 1.4 4.93 1.89 20 2.66 23.08 1.17 23.67 1.5 15.53 9.34-5.66 5.45-5.9 4.76-10.56 4.22-12.19-1.43-30.02-1.1-30.72.03-1.2 1.95.1 2.34 11.25 3.19 13.57 1.03 17.28 1.51 17.28 3.81 0 1.01-2.31 3.99-5.12 6.62l-5.13 4.79-14.28-.57c-15.03-.61-22.75-.82-22.75 1.22 0 1.24 8.58 2.6 22.19 3.94 3.53.35 7.15.41 7.34 1 .49 1.48-6.38 9.99-10.62 13.15-3.45 2.58-4.62 1.14-19.69.82-15.39-.33-16.72.25-13.84 3.09.68.68 3.22.76 8.97 1.16 9.41.66 13.93 2.07 13.93 4.4 0 2.23-8.49 11.02-12.47 12.91-3.5 1.66-5.01 1.74-12.78.66-6.12-.86-7.28-2.14-7.12-7.88.07-2.59.52-19.35 1-37.28.91-34.61 1.2-36.37 5.78-35.72 1.95.28 2.41 2.64 2.94 14.38.55 12.49 1.08 14.96 3.15 14.96.78 0 .9-4.95.41-17-.76-18.68-.79-21.46 4.9-26.87 2.54-2.41 4.56-4.34 5.76-2.59 2.41 7.37 1.72 15.42 2.43 22.81-.07 7.44 2.83 9 3.5 1.91-.34-11.25-.42-21.34-.5-33.35l6.94-6.87c3.66-3.64 5.97-5.92 7.44-6zm-44.97 14c2.75-.46 18.2-.2 20.44.31-3.89 6.14-12.16 14.13-17.82 17.65-1.42.08-2.89-14.89-2.62-17.96zm437.4 33.96 3.29 23.1-25.22-1.72zm-339.81 3.76c.17-.02.33.02.44.06 1.82.69 2.34 5.15 3.06 26.59.34 10.1 1.04 18 1.66 18.75.73.88 3.87 1.31 9.72 1.31 4.74 0 13.69.3 19.87.66 13.49.78 13.85 1.34 5.82 9.28l-5.44 5.38-16.91-.69c-17.33-.71-20.22-.42-20.22 1.97 0 1.62 2.96 2.39 8.5 2.25 2.2-.06 7.72.23 12.25.65 10.13.95 10.33 1.71 2.78 9.85l-5.43 5.84-5.29-.72c-8.49-1.17-30.8-.88-32.09.41-2.08 2.08.63 2.97 10.78 3.59 15.76.96 18.5 1.43 18.5 3.22 0 .87-2.23 3.82-4.93 6.53l-4.91 4.91-20-1.03c-14.02-.24-18.81 0-19.13.9-.54 1.58 1.76 2.07 16.22 3.57 13.89 1.43 15.91 2.86 10.63 9.43-5.8 7.22-7.98 8.03-18.91 6.97-12.02-1.16-24.31-1.19-26.09-.06-2.77 1.75.07 2.93 8.62 3.56 12.95.97 20.5 2.35 20.5 4.25 0 2.14-4.28 7.65-8.43 10.81l-3.41 2.6-14.78-1.56c-14.72-1.57-22.26-.79-20.16 1.31.61.61 6.09 1.47 12.16 1.91 11.11.8 16.62 2.24 16.62 4.53 0 .68-2.83 4.04-6.28 7.47-3.5 3.47-7.43 5.77-7.43 5.77l-45.5-4.09s-2.33-8.12 2.24-30.18c4.12-19.9 5.81-24.36 7.78-20.66.55 1.03 1.06 5.86 1.44 9.16.92 7.98 2.88 13 4.06 13 1.33 0 1.32-4.75-.4-15.91-2.4-15.56-2.67-16.17 3.25-22.44 5.08-5.37 7.95-6.63 9.53-4.19.45.69 1.05 7.74 1.66 13.66 1.06 10.4 1.67 12.79 3.03 11.44.87-.88 1.52-3.85.56-19.28l-1.22-15 6.66-6.78c6.08-6.2 6.78-6.63 8-5.04.84 1.1 1.77 7.54 2.22 15.22.65 11.36 1.56 15.09 3.21 13.44.79-.78.4-26.56-.43-32.53-.55-3.9-.28-4.47 4.65-10 5.88-6.59 8.96-9.31 10.57-9.35 2.11-.04 3.26 6.43 3.28 15.04.01 9.18.73 12.81 1.59 13.96 2.21 2.96 2.46-7.4 1.94-17.65l-.6-18.69 6.07-6.06c5.73-5.74 6.2-5.99 7.81-4.38 1.33 1.34 1.24 4.51 1.78 13.94.81 13.04 3.36 19.4 4.1 10.34.38-2.04.32-6.03-.13-8.87s-.83-9.27-.81-14.28c.02-7.64.39-9.67 2.25-12.69 2.69-4.36 10.63-11.16 13.12-11.4zm262.85 14.21s10.15 8.68 10.15 11.16c0 1.1-4.02 5.87-9.47 11.22-10.04 9.85-10.99 11.54-12.15 22.12-.44 3.95-2.43 9.18-7.07 18.5-3.55 7.15-8.68 15.5-8.68 15.5-16.03 19.16-31.16 36.7-59.26 77.14-1.61 3.71-1.69 7.44-3.33 10.52-1.26 2.29-4.1 4.17-5.35 4.69-1.85.77-5.56 3.07-8.25 5.12-10.49 8.01-17.26 18.57-20.31 31.69-1.65 7.09-2.63 13.47-5.5 35.34-1.18 9-5.13 24.66-5.13 24.66-60.38-.86-116.91 9.6-167.3 38.04zm80.68 9.29 13.44 61.03-13.84-.29-1.38-44.31-43.18-4.12 15.43-14.94zm-65.53 5.59c3.7 3.77 8.31 7.9 11.66 12-11.55 38.6-48.12 88.69-84.44 138.37l-26.62-2.9c-.47-1.09 36.87-53.17 54.75-72.91 6.81-8.24 11.44-16.06 17.51-28.21 2.19-4.39 6.03-15.77 8.99-27.63 6.27-7.57 18.19-18.61 18.15-18.72zm14.35 13.53 20.12 20.41 4.92 288.95c-31.04-24.36-67.62-42.41-106.64-56.14l6.81-15.53 7.51-8.07c26.53-28.7 20.61-59.61.43-81.46 24.59-35.86 46.86-62.57 65.6-97.57l-.25-24c-.22-22.12 1.5-26.59 1.5-26.59zm-240.78 12.06c2.1-.21 2.37 5.13 2.9 20.28.5 14.17 1.09 20.88 2.03 22.35 1.26 1.97 2.47 2.14 19.19 2.65 17.64.54 21.31 1.05 21.31 2.94 0 .54-2.27 3.26-5.03 6.03l-5.03 5.03-15.72-.25c-8.37.27-18.27.11-18.53.35-1.39 1.29 3.84 3.05 11.5 3.06 4.77.01 12.35.85 13.22 1.19 2.98 1.14 1.58 4.08-4.91 10.31l-6.47 6.25-14.28-.28c-7.84-.14-17.38.09-18.62.5-4.34 1.44-2.18 2.62 5 2.72 12.01.16 20.3 1.16 20.65 3.03.18.91-2.05 4.24-5 7.4l-5.34 5.72-21-.87c-19.85.15-22.53 1.62-5.97 3.28 6.33.63 16.3 2.19 16.66 2.25.35.06.92.8 1.25 1.66.69 1.81-7.3 10.82-11.57 13.03-2.19 1.13-3.72 1.21-7.53.34-4.47-1.01-23.71-.83-25.78.41-1.74 1.04 2.04 2.23 7.38 2.34 8.03.16 17.62 2.49 17.62 4.41 0 1.57-4.07 6.62-8.4 10.4-2.01 1.76-6.78.19-20.07.63-9.09.3-15.15 1.15-15.15 1.75 0 .55 4.51 2.33 10.31 2.75 5.74.41 13.62 1.78 14.16 2.31 1.35 1.35-8.88 13.42-8.88 13.42l-43.66-.61-4.03-46.25 3.72-4.28c8.36-9.65 10.18-8.25 11.85 9.07 1.22 12.68 2.13 16.55 3.96 14.71.68-.67.4-7.91-.28-18.56-.56-8.76-1.03-16.75-1.03-17.75 0-2.41 9.93-12.84 11.88-12.47 1.91.37 2.97 4.69 4 16.53.84 9.74 1.3 12.39 3.22 10.47.89-.9 1.02-5.99.12-18.31l-1.19-16.09 4.22-5c8.47-10.04 10.13-8.92 11.16 7.37.69 10.99 1.75 16.78 3.78 16.78.68 0 .7-8.21.28-20.62l-.62-18.63 5.28-5.37c2.91-2.95 5.87-5.35 6.56-5.35 2.05 0 3.24 4.68 4.53 15.72 1.45 12.38 1.94 14.51 3.13 13.31.5-.5.39-7.99-.28-17.62l-1.47-18.44 6.43-6.53c3.55-3.58 7.11-6.37 7.91-6.22 1.94.38 3.19 5.95 3.34 13.85.14 7.37 1.4 13.71 3.03 15.34.81.81 1.05-3.72.85-16.88-.32-20.24-.83-21.79 8.28-31.28 2.43-2.53 4.02-4.17 5.13-4.28zm235.74 8.27.19 28.26c-11.32 24.24-37.5 59.76-64.03 97.88l-13.84-7.5c33.19-43.51 60.94-84.06 77.68-118.64zm-379 8.89c.63-.01 1.32.02 2.1.06 7.16.42 7.35 2.89.69 9.13-2.8 2.61-5.97 4.68-7.19 4.68-2.06 0-2.17-.3-1.53-5.68.78-6.62 1.58-8.16 5.93-8.19zm432.54 20.37 19.56 19.25 4.9 206.94-20.59 33.58zm24.5 27.28c17.63 41.5 35.96 80.41 56.24 111.96l-52.29 73.84zm-175.94 64.51c24.04-.34 46.18 18.69 48.97 38.03 5.25 22.2-6.18 46.12-24.95 53.47-6.54 2.34-10.37 2.5-10.37 2.5-2.28-13.39-1.3-26.29-4.34-39.88 0 0-11.25 14.84-17.59 20.04-3.28 1.81-4.75 2.3-4.32-2 .21-7.51.79-24.2.79-24.2l-27.79 28.75s-2.25-3.12-4.93-10.28c-8.72-23.36 2.6-47.76 20.5-58.97 7.8-5.12 16.01-7.35 24.03-7.46zm369.62-1.76.54 25.3c-43.61 33.8-105.8 105.04-159.1 197.87l-23.47 9.9c36.16-86.41 112.49-174.41 182.03-233.07zm.48 33.27.46 37.7c-38.47 36.99-71.9 75.2-100.99 124.38-16.99 8.16-48.45 23.65-48.45 23.65-3.93-.95 85.71-140.5 148.98-185.73zm-388.09 32.29c1.75-.02 1.66 3.38 1.11 8.29-1.24 11.13-2.55 15.17-6.62 20.59-14.09 16.64-36.48 39.27-39.53 60.32-1.54 11.24 7.23 21.76 15.86 20.68 26.78-3.35 29.66-50.94 31.92-74.43.94-5.82 1.37-10.7 2.34-12.54 5.65-7.2 11.72-14.22 19.33-19.91l3.28 36.38 15.1-5.03c-42.57 57.84-30.33 61.46-52.78 85.16-20.87 22.02-61.34-3.07-50.98-36.54 9-22.53 22.93-45.13 26.69-69.26 1.02-7.17 1.61-12.14 1.61-12.14l9.68 20.19c4.92-4.86 19.29-20.91 22.99-21.76zm389.68 12.48-.1 25.97c-19.84 22.35-36.97 39.51-57.24 70.4l-32.21 14.68c21.02-40.05 55.52-77.51 89.55-111.05zm-393.46 22.91s2.13 12.13-2.57 34.15c-2.24 10.44-12.29 40.92-28.17 33.74-13.49-11.92 2.95-34.02 11.23-44.46 6.4-7.5 13.35-15.61 19.51-23.43zm-42.39 3.12-8.78 18.78c-78.89.29-155.52 28.5-223.72 86.12l-17.25-5.65c72.26-68.34 161.82-101.56 249.75-99.25zm82.94 14.43c88.91 29.77 129.97 73.22 163.6 118.78l-14.06 7.2c-35.24-45.6-78.74-87.34-159.73-111.48zm-101.87 28.1-3.78 16.09c-49.8 1.5-102.34 19.17-153.47 54.66l-18.44-2.94c51.46-40.38 110.23-63.43 175.69-67.81zm227.56 108.72-15.79 7.45c-47.13-61.13-89.74-78.54-138.15-94.11l5.22-13.56c65.06 17.26 112.79 50.29 148.72 100.22zm-657.11-72.09 1.37 163.14-11.36-2.27-1.62-157.77zm-26.31 8.85c-21.65 81.15-4.86 102.16 2.97 149.51l-17.93-2.87c-17.46-47.97-19.25-91.62-4.53-142.55zm544.98 12.46c1.36 1.29-1.1 5.27-4.44 7.25-3.23 1.91-2.51 1.61-7.69-.25-5.02-1.82-11.43-6.57-11.43-8.38 3.66.07 20.34-.11 23.56 1.38zm15.28 1.15c2.97.36 11.55.2 12.09 2.88.2 1.6-3.17 4.2-10.06 8.9-10.46 7.15-14.02 8.56-17.09 5.16-2.91-3.21-2.06-6.55 2.84-11.06 4.78-4.4 7.54-5.9 12.22-5.88zm-357.15 1.78c5.98 0 16.71 7.41 23.18 16 6.56 10.27 14.1 20.81 20.19 31.19 13.84 23.6 24.53 47.55 33.47 72.06 23.43 58.3 37.17 114.82 48.59 170.97-.21 4.73-4.32 4.65-7.69 3.53-1.75-.56-3.48-1.73-3.84-2.62-4.84-13.76-6.52-27.82-10.22-41.63-9.24-34.53-12.56-54.31-30.37-103-9.25-25.26-22.63-60.44-37.25-87.47-9.37-17.32-20.22-33.34-34.28-47.5-3.73-3.7-8.35-7.08-8.35-7.81 0-2.39 2.34-3.72 6.57-3.72zm379.96 1.88c5.56 1.36 18.96 2.93 13.88 7.37-18.85 7.25-24.95 15.1-34.94 23.1-1.51 0-7.47-7.39-7.47-9.19 8.11-9.96 18.32-14.21 28.53-21.28zm-352.72.06c7.88-.28 15.59 9.9 19.22 16.31 24.23 35.65 44.97 86.49 62.04 136.32 18.36 53.62 30.02 105.19 35.09 141.78-.44 1.13-2.71 1.55-5.32 1.53-4.96-.04-5.66-1.18-6.93-5.13-12.63-60.52-29.6-123-50.13-176.03-11.02-28.26-23.53-56.64-41.12-85.12-12-17.59-18.81-26.82-18.28-28.19.36-.93 2.34-1.41 4.65-1.41.26-.03.53-.05.78-.06zm-54.15 1.06c10.63-.03 28.21 12.58 40.15 28.79 25.32 34.7 39.81 75.25 54.85 114.59 17.26 45.08 29.71 95.18 37.15 134.62 1.27 5.66 3.34 8.13-2 9.91-8.07-2.31-7.89-2.08-10.18-11.91-3.15-10.56-4.11-21.23-7.1-31.97-17.06-61.41-36.18-129.57-67.93-185.03-38.15-61.05-49.24-44.07-55.38-54.84.47-2.43 4.72-4.14 10.44-4.16zm91.78 14.91c32.78 57.03 47.23 92.05 57.2 126.5 15.11 52.2 33 93.89 40.86 154.84 0 0-8.61.16-12.06-1.25-1.43-1.42-2.95-7.51-3.84-12.5-7.87-43.04-20.69-93.96-34.32-134.09-14.68-44.67-32.14-87.15-57.97-128.19-6.76-11.05-8.05-15.4-3.9-15.59 7.39.5 10.65 6.19 14.03 10.28zm341.5-6.09c1.52.01 2.13-.21 4.91.75 4.34 1.49 5.72 2.43 5.96 4.15.36 2.5-2.33 3.32-10.71 5.28-6.6 1.54-19.46 8.41-28.41 15.85-4.15 3.45-7.72 7.15-8.72 7.15-2.06 0-6.97-5.4-6.97-7.65 6.85-10.47 28.66-24.83 43.94-25.53zm-451.66 1.4c27.75.85 49.46 33.08 60.85 54.81 4.43 8.51 10.18 17.76 14.53 27.47 22.52 50.35 41.63 113.5 50.97 153.85 4.49 19.41 9.68 33.64 7.84 37.44-2.28 1.44-7.12.34-9.34-1.54-1.43-1.2-2.2-5.64-4.72-13.75-6.47-20.78-17.19-80.21-45.13-142.65-.62-1.4-14.14-40.9-37.5-78.38-9.5-15.25-24.88-24.84-38.9-27.97-7.06-1.15-9.16-.31-8.72-4.12.28-2.43 1.04-3.09 4.81-4.28 1.68-.53 3.45-.83 5.31-.88zm173.44 128.78c-1.9 0-3.58-3.62-4.84-9.56-.62-2.92-1.48-5 4-8.44 34.42-36.6 4.82-90.35-38.44-95.03-4.01-.61-9.18-.62-10.69-1.18-2.19-1.25-6.22-9.03-7.97-12.16 59.79-14.49 123.24 71.1 57.94 126.37zm297.85-119.59c3.56.89 11.3 8.09 10.34 9.66-1.16 1.88-7.87 1.94-17.53 3.65-20.56 3.64-29.38 17.05-38.94 27-2.12.65-4.01-.82-5.91-4.06-1.39-2.39-2.53-5.25-2.53-6.37 10.69-15.57 39.31-31.3 54.57-29.88zm-485.35 4.59c17.48 0 34.95 8.48 44.78 22.29 35.89 53.7 76.2 173.08 85.81 231.96-.97 1.9-3.52 2.1-8.5.66-2.77-.8-2.43-1.69-4.18-7.16-11.27-42.89-23.63-84.54-38.16-122.75-7.49-19.69-16.3-38.93-24.59-56.21-5.25-10.94-15.81-30.4-19.81-36.35-9.44-17.73-28.51-22.92-40.52-17.2-12.44 6.73-14 22.8-4.54 29.93 7.86 5.48 20.26 4.58 24.8-3.92 1.56-3 1.07-6.74.07-7.68-.97-.92-2.73-.65-3.1.34.65 10.44-12.66 11.11-18.47 7-9.29-6.94-3.11-28.9 22.19-20.06 9.76 5.13 13.04 14.84 8.41 25.15-4.74 10.55-12.08 15.35-23.41 15.29-13.75-.25-29.35-9.9-29.47-27.26.04-12.95 6.04-23.72 17.28-30.93 4.17-2.67 5.8-3.1 11.41-3.1zm148.03 8.07c42.42 1.95 61.91 51.87 39.6 82-5.69 7.19-9.29 5.88-11.72-3.41-1.2-3.82-2.52-4.39.9-7.34 19.87-19.04 3.55-56.04-29.18-57.53 0 0-6.11-8.9-6.72-13.63 2.18-.79 5.13-.1 7.12-.09zm353.72 3.43c3.22.79 10.03 7.33 10.03 9.63 0 2.71-1.33 2.2-8.87.9-17.84-3.19-35.71 7.14-50.63 29.66-7.23 13.52-8.13 12.24-11.93.6-1.96-5.98-1.99-5.85 5.59-16.88 14.16-18.16 35.06-26.45 55.81-23.91zm16.6 22.91c14.92 13.56 7.96 43.42-12.22 46.51-17.78 2.05-33.58-17.18-22.38-30.26 7.29-7.9 16.4-8.71 22-1.91 5.8 7.01 3.34 16.58-4.9 17.57-.97.34-1.76 1.09-1.76 1.65 0 1.75 7.32 1.27 9.82-.75 5.02-5.53 5.1-13.99.62-20.03-3.96-5.35-12.43-9.6-19.22-6.84-11.96 4.28-24.15 20.5-31.12 40.94-1.96 5.74-3.11 11.13-3.94 12.4-1.7 2.6-1.58 2.54-3.16 1.53-1.38-.88-3.93-13.39-3.93-18.15 0-3.62 3.12-13.18 7.25-21.38 12.95-24.08 42.09-40.22 62.94-21.28zm-363.73-6.06c17.37 1.05 31.11 25.65 23.56 42.78-2.34 3.15-5.71 5.29-7.27 3.31-.57-.71-3.24-8.75-6.94-17.28-3.7-8.52-7.11-16.86-8.16-18.94-2.76-5.91-4.75-9.93-1.19-9.87zm-118.03 14.28c19.79 35.05 36.34 75.24 50.07 114.47 10.69 30.57 19.45 60.55 24.5 87.06.48 2.68 1.14 4.08-.03 5.25-1.94 1.94-11.39-2.89-11.39-2.89-16.55-57.02-29.92-114.18-69.32-186.79 0 0-1.7-2.88-2.16-4.77-.53-4.54.8-10.29 3.57-13.51 1.11-1.2 2.62-1.28 4.76 1.18zm-222.03 66.2c93.58 6.28 165.97 45.71 204.63 149.87-13.74-7.75-83.43-61.22-203.57-68.31l-.19-14.44c86.13-.7 170.14 44.12 168.39 43.47-32.04-66.05-112.55-92.82-169.51-94.56zm649.22 21.05c-5.9 9.24-5.64 8.87-8.47 16.84.33 2.59.8 18.74 1.19 28.16.5 12 .84 17.23 1.78 18.37 1.61 1.94 4.86 2.24 6.28.5.56-.68 1.54-3.27 2.19-5.75 7.73-29.18 11.36-40.1 14.47-43.71 2.05-2.64 2.75-2.4 11.22-1.44 19.07 1.69 25.56-21.04 13.09-30.19-16.68-9.28-34.37 6.28-41.75 17.22zm20.13 6.2c-13.62 11.21-14.03 27.36-18.16 42.24-2.22 10-5.34 15.27-6.59.18-2.32-20.93.59-36.56 9.67-48.86 5.62-9.04 14.85-15.13 23.14-15.71 17.85-1.25 19.67 12.9 14.71 20.49-3.6 5.52-13.6 7.92-22.77 1.66zm-644.6 6.74c6.73 0 12.19 5.45 12.19 12.18s-5.46 12.19-12.19 12.19c-6.72 0-12.18-5.46-12.18-12.19s5.46-12.18 12.18-12.18zm38.85 8.34c6.01 0 10.9 4.86 10.9 10.87 0 6.02-4.89 10.91-10.9 10.91-6.02 0-10.88-4.89-10.88-10.91 0-6.01 4.86-10.87 10.88-10.87zm35.4 11.94c4.9 0 8.85 3.97 8.85 8.87s-3.95 8.88-8.85 8.88-8.87-3.98-8.87-8.88 3.97-8.87 8.87-8.87zm25.13 15.9c3.78 0 6.84 3.09 6.84 6.88 0 3.78-3.06 6.84-6.84 6.84-3.79 0-6.88-3.06-6.88-6.84 0-3.79 3.09-6.88 6.88-6.88zm-88.03 21.88c-2.61 13.21-.57 26.79 2.47 36.15 6.93 20.18 3.78 56.29 3.78 56.29l-20.32 20.34c1.46-18.95 3.71-38.86 2.67-54.77-.73-10.57-5.5-20.44-6.75-31.04-1.15-9.81.59-29.46.59-29.46zm32.91 6.08.71 86.14-69.53 67.37-.09-17.78 59.28-58.78-1.25-79.81zm171.46 196.42-4.56 7.44h78.44l1.65-7.44zm101.53 0-1.84 7.44h36.31l1.21-7.44s-19.09.02-35.68 0zm59.5 0-1.15 7.44h134.81l-2-7.44zm157.57 0 2.15 7.44h35.91l-2.97-7.44zm60.03 0 2.62 7.44h61.72l-5.12-7.44z" transform="matrix(.154671 0 0 .154671 -258.498135 -79.129)"/></g></svg>