<svg clip-rule="evenodd" fill-rule="evenodd" viewBox="0 0 228 316" xmlns="http://www.w3.org/2000/svg"><path d="m2537.56 600.582c0-5.867-4.76-10.63-10.63-10.63h-201.97c-5.87 0-10.63 4.763-10.63 10.63v290.551c0 5.867 4.76 10.63 10.63 10.63h201.97c5.87 0 10.63-4.763 10.63-10.63z" fill="#fff" stroke="#bfbfbf" transform="translate(-2312.278 -587.897)"/><g fill-rule="nonzero"><path d="m4797.47-237.313-533.75 2.594 67.78 128.406c138.72-12.476 260.29-1.381 386.94 2.75zm-364.53 451.469c-.56.748-22.21 6.338-20 11.25 56.52 121 81.77 219.456 105.37 343.813 11.93-9.683 31.24-9.294 31.24-9.294-9.53-46.18 48.7-51.939 49.08-3.625 11.18 2.592 22.67 2.631 32.76 13.919 4.53-135.896 53.31-276.503 116.29-373.93-71.78 28.404-177.09 99.196-177.09 99.196s-87.64-36.19-137.65-81.329zm436.28 14.469c-95.53 90.664-132.92 342.344-126.06 345.813-123.14-4.108-160.46 131.603-53.72 204.781-4.22 14.193-14.64 25.741-22.72 38.281 11.01 6.302 23.03 7.648 35.03 8.969 9.11 10.796 18.07 23.255 27.97 24.281 10.74-6.763 18.37-16.661 27.31-25.219 11.16-2.838 22.23-5.979 32.81-10.812-9.37-13.081-20.49-26.308-20.78-38.563 92.8-65.404 80.07-154.345-3.59-199.875 24.92-149.78 61.27-245.46 103.47-313.5zm-657.91 115.719c-12.13 5.92-18.75 18.414-27.56 28.219-12.09.55-23.73 4.679-35.25 9.812 0 0 27.68 38.225 25.97 40.281-89.76 58.768-89.03 144.668-2.85 201.25 14.61 122.251-89.31 315.716-94.56 310.094l-.18 40c72.31-79.977 113.23-225.265 120.4-344.594 147.69-9.829 152.92-152.471 51.25-206.125-7.81-7.165 25.56-40.312 25.56-40.312-8.47-8.341-22.65-9.288-35.06-10.313-7.83-9.355-14.66-18.682-27.72-28.312zm624.66 98.719c20.89 46.433 97.17-10.145 110.41 14.562 10.74 14.012 34.14 15.448 32.87-8.156-4.4-23.378-19.79-28.56-80.87-18.375-23.18 3.863-32.68 6.151-32.54-4.406-16.03-19.344-29.77 6.968-29.87 16.375zm70.85 67.759c-17.13-.016-20.04 66.924-19.79 87.022-49.58 78.276 101.72 69.378 36.29-15.895 2.27-11.142-8.35-29.31-8.05-37.343-5.37-.683-7.72-30.907-8.45-33.784zm-872.26 40.241c-26.83.676-56.33 25.304-13.31 60.718 2.87.985-1.45 8.452.03 19.938 12.13 26.156 8.85 64.886 17.88 58.937 10.43-6.877 19.15-35.772 16.9-76.125-.15-2.647-3.65-5.45-3-8.312 24.15-39.823 3.73-55.717-18.5-55.156zm274.56 75c-6.89 130.743-38.93 259.022-111.54 370.265 62.5-29.122 123.16-66.695 181.86-98.859l137.16 84.876c7.95-3.447 13.45-5.143 18.71-10.345-63.21-92.421-82.77-225.444-110.31-345.781-10.48 7.426-30.19 11.156-30.19 11.156-1.41 41.739-45.2 55.266-54.14.83zm-331.06 102c-14.63.926-25.63 37.136 15.82 42.5 29.24 4.135 66.7-10.26 85.28-3.594 21.6 34.445 40.99-16.259 12.12-24.531-31.01-8.887-94.17 14.295-101.16-5.407-3.59-6.727-7.96-9.228-12.06-8.968zm248.78 566.317-82.75 146.12 529.07-3.19-69.16-139.37c1.18-1.55-231.07 27.6-377.16-3.56z" fill="#e2cf00" transform="matrix(.150867 0 0 .150867 -560.968 67.864)"/><path d="m4351.59-95.113 8.3 20.623c113.83-12.087 232.92-24.585 351.5 7.407 0 0 9.01-18.826 8.89-20.198-110.49-29.816-358.59-26.1-368.69-7.832zm110.81 289.544 107.11 71.506s52.32-35.831 74.61-50.989l-13.11-19.872c-47.19 100.135-126.42 19.25-155.87-28.616 0 0-8.46 18.252-12.74 27.971zm289.93 38.054c7.5-.05 11.61 2.897 15.26 10.578 4.13 8.672 5.79 6.573 3.21-4.205-4.07-16.995 14.08-27.753 30.86-16.202 12.11 8.341 11.29 28.086-2.13 31.551-10.84 2.799-11.17 5.626-1.67 5.303 17.03-.581 21.22 22.185 8.95 33.111-14.11 12.561-31.72 3.257-33.11-12.774-.68-4.537-1.64-4.487-3.17-1.946-4.4 7.324-4.94 16.921-4.23 25.626l-24.91-15.961c9.01-4.3 14.51-6.898 21.08-13.525.85-.864 1.5-1.496 1.5-1.879 0-.684-2.81.191-7.94.651-15.21 1.362-26.76-8.654-23.44-22.907 2.83-12.127 9.21-17.34 19.74-17.421zm-116.6 392.913c27.8-30.887 62.06-50.473 109.22-46.98 7.91-130.997 55.06-246.901 129.4-350.856l-79.4-49.313-32.42 18.918c-78.88 108.48-128.37 246.86-126.8 428.231zm-595.91-315.025s-54.81 39.819-80.29 59.065l-4.03 361.468 6.97 2.5c.49.778-.54-5.368 2.72-8.125 2.66-2.253 6.86-4.793 9.34-5.656 7.01-2.435 7.38-7.077.94-11.187-5-3.19-6.85-8.034-6.16-16.032.49-5.643.27-6.88-2.03-10.75-2.86-4.81-3.02-10.844-.44-17.062 1.2-2.889 1.1-3.672-.9-7.625-2.56-5.034-2.79-10.421-.75-16.188.78-2.205 1.39-7.041 1.37-10.781-.05-14.4 11.97-23.777 33.97-26.469 8.6-1.052 8.87-1.402 5.03-8.656-21.64-40.926 28.62-61.358 32.26-54.804zm683.77 30.096c20.3 0 36.75 16.425 36.75 36.719 0 20.293-16.45 36.75-36.75 36.75-20.29 0-36.75-16.457-36.75-36.75 0-20.294 16.46-36.719 36.75-36.719zm.25 6.562c-16.24 0-29.4 13.158-29.4 29.407 0 16.248 13.16 29.437 29.4 29.437 16.25 0 29.44-13.189 29.44-29.437 0-16.249-13.19-29.407-29.44-29.407zm.63 9.344c11.02 0 19.97 8.919 19.97 19.938 0 11.018-8.95 19.968-19.97 19.968s-19.94-8.95-19.94-19.968c0-11.019 8.92-19.938 19.94-19.938zm-729.53 4.5c1.49-.005 3.08.245 4.68.781 9.12 3.043 12.2 11.15 7.13 18.719-3.98 5.945-3.54 6.466 3.31 4.031 5.39-1.914 8.12-1.246 12.28 3 12.5 12.733-6.68 33.555-18.9 20.594-6.06-6.419-6.67-4.563-2.56 6.375 1.32 3.54 3.52 9.045 3.52 9.045l-18.19-.529s2.93-7.211 4.29-10.61c3.27-8.198 3.39-9.402-3.25-4.312-14.97 11.477-31.47-8.773-17.66-21.656 2.81-2.621 7.26-2.677 13.41-.157 4.48 1.836 5.04.613 1.72-3.687-7.23-9.354-.25-21.561 10.22-21.594zm376.59 37.868c-8.1 48.332-2.63 116.401-3.31 152.723 19.67 4.045 19.69 17.485 22.48 34.23 9.64-3.204 30.4 11.264 33.28 10.06 2.9-49.114-20.58-192.147-52.45-197.013zm326.61 53.299c27.97 2.652 22.29 24.201 13.82 32.964-4.02 4.5-3.32 6.559 1.06 4 11.93-6.973 21.24-1.676 24.87 10.688 6.21 21.121-21.69 38.834-33.75 19.781-4.08-6.455-6.66-5.046-5.73 1.66.53 6.458 6.64 19.909 6.64 19.909l-27.44-2.861s8.6-13.843 10.13-17.582c3.17-7.758 1.58-9.861-4.38-3.657-17.41 15.474-40.93-5.003-29.53-25.688 5.62-10.197 15.76-13.375 26.53-5.031 7.27 4.901 8.89 2.846 2.41-3.062-12.11-11.042-1.1-32.682 15.37-31.121zm-703.3 6.958c.32-.011.62-.011.94 0 2.35.08 4.81.768 7.25 2.188 6.77 3.938 8.53 11.538 4.16 18.062-2.52 3.755-1.84 6.154 1.06 3.719 3.88-3.26 12.31-.933 15.53 4.281 8.28 13.392-8.53 30.514-18.94 19.313-4.59-4.945-6.37-5.168-5.88-1.957 1.43 6.033 5.24 16.346 5.24 16.346l-19.03.054s4.26-10.725 5.25-16.185c.77-4.32-.97-3.715-5.58 1.335-4.48 4.912-8.49 5.369-14.06 1.563-13.73-9.392-2.28-32.827 12.06-24.688 4.95 2.804 5.67 1.235 1.85-3.969-6.82-9.293.43-19.732 10.15-20.062zm988.07 5.921c-31.27 31.379-21.33 12.704-7.4 37.171-.19 15.998 8.97 28.653 1.2 53.792-2.44 4.897-2.68 7.242-1.45 12.223-2.67 27.856-25 27.176-46.79 31.187 3.6-.184 33.59 57.196-23.97 60.816l-2.7 231.456 91.11-65.153 4.86-361.277zm-678.28 112.369c-25.79 16.101-62.3 56.74-107.33 47.141-7.56 144.323-56.57 255.426-125.57 350.519 23.14 14.138 48.59 31.07 72.31 42.04 20.33-10.12 31.73-14.29 51.77-30.304 83.09-124.356 110.85-261.216 108.82-409.396zm211.83 29.493c3.49 74.228 14.54 144.633 52.3 201.537l4.9-157.571c-13.7-3.492-24.84-12.541-28.48-37.798zm-279.44 39.701 25.76.983s-6.01 11.568-8.64 18.046c-3.19 7.917-1.75 9.56 4.2 4.112 7.76-7.091 19.96-7.583 26.28-1.063 16.79 17.314-1.43 44.869-21.4 32.375-8.55-5.348-10.02-3.618-3.28 3.875 13.13 12.55-1.03 30.14-16.59 29.991-11.25-.209-18.41-9.311-19.16-19.234-.34-6.241 2.89-12.451 8.34-15.413 5.69-3.088 1.68-5.208-4.5-2-20.17 10.475-33.15-17.369-17.83-32.883 8.84-8.946 18.04-7.967 26.77.821 6.09 6.136 8.31 5.63 6.67-1.547-1.64-8.075-6.62-18.063-6.62-18.063zm695.54 31.81 18.47.29c-1.88 4.543-4.3 9.169-5.84 13.665-1.66 4.898-.5 5.543 4.46.855 12.86-8.363 26.31.386 23.35 13.885-2.04 9.314-9.93 13.782-18.9 9.594-7.92-3.693-5.38-2.123-.93 3.393 5.29 6.562 3.81 14.108-3.39 19.013-12.73 8.677-29.16-6.286-20.63-19.014 5.03-7.569 2.76-6.773-1.77-3.142-6.79 4.818-16.85-2.288-16.91-11.938-.57-13.888 13.55-21.494 23.28-11.531 4.65 4.028 5.83 3.561 3.79-2.229-1.89-4.213-2.45-8.703-4.98-12.841zm-.47 100.938 19.36.061s-.3 1.476-3.36 7.035c-3.6 6.533-3.16 13.35.56 8.781 6.29-7.711 19.38-5.347 23.54 4.25 4.84 11.182-5.1 23.312-15.16 18.5-6.54-3.128-7-2.481-2.72 3.906 4.17 6.215 2.17 13.747-4.81 18.063-13.72 8.479-29.77-9.079-18.28-20 3.07-2.924 2.14-4.383-1.57-2.438-15.12 7.938-25.89-12.501-12.75-24.187 5.6-4.976 9.82-4.567 18.82 1.843 2.8 1.996 3.37-.01 1.4-5-3.35-8.501-5.03-10.814-5.03-10.814zm-718.78 1.705c21.55 0 39 17.452 39 39 0 21.549-17.45 39.032-39 39.032s-39.03-17.483-39.03-39.032c0-21.548 17.48-39 39.03-39zm.35 6.969c-17.71 0-32.07 14.329-32.07 32.031 0 17.703 14.36 32.063 32.07 32.063 17.7 0 32.06-14.36 32.06-32.063 0-17.702-14.36-32.031-32.06-32.031zm.18 12.313c10.9 0 19.72 8.821 19.72 19.718 0 10.898-8.82 19.75-19.72 19.75-10.89 0-19.75-8.852-19.75-19.75 0-10.897 8.86-19.718 19.75-19.718zm-50.41 93.806s22.36 11.336 22.36 11.336-10.77 8.51-15.07 12.913c-5.5 5.672-5.17 8.371 2.19 5.726 14.02-5.044 27.87 3.015 27.93 17.495.06 19.326-22.92 28.294-33.68 13.505-3.2-4.397-7.07-6.263-5.6-2.688 3.59 8.701 1.16 19.557-5.37 23.938-5.23 3.507-14.73 4.422-19.47 1.875-16.32-8.76-16.9-27.715-1.06-34.969 7.95-3.647 8.27-7.168.46-5.344-16.24 3.8-25.4-15.929-13.53-29.218 12.6-14.105 32.76-10.857 34.69 10.312.34 3.766 2.95 1.083 4.17-4.66 1.44-4.26 1.98-20.221 1.98-20.221zm209.46 34.827s-83.15 45.726-80.66 47.743c.48.294 17.91 25.585 17.91 25.585 42.26-92.107 139.13-13.911 154.13 33.65 3.38 2.14 3.97 1.55 7.64 3.27.4-3.34 7.68-36.12 7.68-36.12zm-137.2 338.918c-4.2 5.11-18.24 19.58-16.5 20.15 120.81 27.82 245.83 27.56 373.26 15.6l-9.26-30.7c-126.1 30.19-347.5-5.05-347.5-5.05z" fill="#d40000" transform="matrix(.150851 -.00219084 .00219085 .150851 -562.189 77.592)"/><path d="m3951.77-256.566-17.32 1703.926 1063.64 11.69 18.35-1702.206zm323.29 16.837 530.49 5.538c-25.81 64.233-98.94 165.246-95.56 165.538-110.08-19.835-223.69-30.687-351.29-5.364zm-311.25-.365 297.69 3.938 95.62 177.406s5.61 11.065 2 22.506c-3.94 12.484-7.25 18.003-10.73 24.354.39-3.646-28.18-7.684-26.14 16.862 1.38 16.615 22.24 26.303 38.06 13.622 2.5-.173 2.45 2.145 1.85 6.187-1.59 9.485-12.12 39.503-19.07 41.404-34.83-29.412-48.17 23.184-24.56 34.052 13.67 6.292 34.9 1.564 45.03-14.831 7.75-12.541 6.88-10.464 9.04 4.925.81 5.723 1.96 12.359 2.57 15.344 1.88 9.335-.16 11.111-15.89 15.106-12.67 4.727-25.49 7.252-38.53 9.875-23.81 3.551-36.22 21.295-37.13 43.094-.19 4.712-.06 6.895-1.09 8.281-101.06 36.686-208.64 88.513-322 178.032zm668.85 427.657c-3.72-6.212-15.42-38.716-18.57-52.25-7.77-65.517-8.3-143.163-16.74-204.167l12.26 1.555s4.37 17.692 8.64 65.377c2.12 23.638 3.98 72.742 5.7 95.33 2.62 33.562 16.98 87.376 26.17 101.042 14.98 22.286 45.94 8.461 36.04-17.887-5.14-13.67-25.84-11.769-23.18 2.378.01 2.516 1.99-1.771 5.05-4.378 8.98-3.253 18.9 6.187 13.49 17.303-6.72 14.194-25.89 7.393-32.02-10.709-7.32-21.625 18.63-37.38 37.69-23.98 21.22 14.928 20.73 51.983 3.29 63.427-29.21 10.174-48.65-11.281-57.82-33.041zm71.43 28.301c-1.16-.708.08-2.942 1.6-8.27 5.66-19.919 2.5-35.574-10.22-50.469-7.09-8.298-9.78-9.777-5.99-11.208 8.05-3.033 25.55 10.063 30.23 22.757 4.61 12.464 5.63 25.301-1.33 39.216-4.74 2.938-12.13 8.862-14.29 7.974zm22.09-13c.01-2.34 1.69-9.697 2.11-13.301 1.6-13.933-4.72-28.194-16.1-39.438-9.56-9.435-10.43-10.406-1.26-10.427 23.66-.055 38.18 38.398 27 57.076-2.86 2.944-11.52 8.928-11.75 6.09zm20.21-12.649c7.44-32.494-23.77-54.677-24.42-53.67 1.68-7.281 14.13-2.9 18.36.004 15.78 10.932 24.54 39.033 14.53 54.788-1.1 1.936-2.42 3.037-4.16 4.065-3.31 2.016-5.28 3.649-5.92 2.192-.5-1.104 1.4-5.822 1.61-7.379zm-275.83-109.777c3.34-3.185 4.33-3.263 10.63-.781 19.72 7.776 35.77-6.224 31.31-21.25-1.62-5.442-8.96-11.429-13.53-11.969-7.46-.884-7.67 3.06.34 6.187 9.85 3.842 10.69 14.358 1.91 18.969-10.33 6.762-26.84-11.021-39.16-9.719-5.9 1.671-9.74 7.112-6.48 13.875 2.55 4.747 11.35 7.727 14.98 4.688zm-21.97-2.462c-6.83-3.293-9.45-3.271-8.03-10.757.94-4.928 8.47-38.072 12-50.875 10.59-38.339 1.48-59.809-26.8-68.824-19.17-6.11-35.78-3.396-55.54 6.749l-3.38-10.933c82.54-20.314 222.78-13.505 222.27-12.68 2.61 11.106 3.5 22.188 4.43 33.27 0 0-26.11-13.278-39.76-17.769-21.03-6.783-54.53-.166-60.62 11.875-3.46 6.827-1.78 11.437 12.53 4 23.41-12.174 70.73-1.951 87.26 11.556 3.81 3.112 3.6 3.777 3.62 7.362.04 5.466.35 5.791-7.19 1.613-39.59-20.966-73.7-19.096-85.84 7.497-2.7-.857-13.01-2.787-13.01-2.787l10.86 16.579 1.86 17.215s18 10.327 27.94 14.734c9.78 4.314 4.18-.207-7.78-8.791-8.78-6.301-1.7-8.176 4.12-5.728 12 2.935 29.54 6.696 50.1-5.938 6.38-3.925 20.81-.23 21.01 1.592 0 0 1.71 15.055 3.17 46.439.69 14.846 2.24 34.25 3.16 42.219 2.78 24.076 3.66 25.456-8.81 13.75-4.19-3.928-11.17-10.443-11.25-10.062-1.72 7.428 16.75 20.789 21.03 25.343 6.49 6.913 11.53 24.441 8.87 25.438-1.68.631-19.18-14.656-32.93-28.375-5.16-5.14-12.84-12.041-13.07-11.813-2.91 1.88 8.61 15.269 19.44 25.313 12.63 11.72 14.1 12.774 9.77 14.45-7.99 3.094-15.08-1.002-34.14-17.231-1.86-1.58-9.09-6.868-9.44-6.5-1.8 2.321 15.76 19.429 19.78 20.937 7.47 2.8 9.52 10.084 3.56 12.844-3.98 1.842-18.59-6.443-30.25-16.844-2.09-1.864-7.92-5.069-8.31-4.656-2.36 1.471 10.67 13.077 23.16 20.844 12.22 7.603 14.16 9.465 10.93 15.593-3.02 6.315-29.87-8.799-43.19-24.156-2.83-3.268-5.08-4.69-4.53-3.594 5.66 16.427 24.89 28.418 39.26 33.29 2.56.881 6.28 1.975 7.95 3.337 4.06 3.325 3.1 6.709-1.38 8.558-15.46 4.095-39.46-14.898-56.54-34.678-2-.861-.83 1.712-.32 2.565 14.15 23.321 41.63 41.308 58.38 38.269 9.79-1.777 17.59 1.276 17.62 4.553.02 2.685-5.42 6.886-15.94 7.481-23.78 1.348-60.51-25.181-81.74-58.593-.67-1.042-1.46-1.434-1.52-.808-.7 7.007 12.55 24.409 22.76 34.401 30.34 29.688 59.28 39.993 82.21 23.849 12.93-9.726 25.61-31.218 6.66-38.736-10.04-3.982-16.62 9.815-7.93 5.977 11.36-1.2 13.84 4.851 12.29 10.482-3.03 9.665-12.67 11.068-20.43 6.874-13.51-7.569-10.25-32.792 7.43-36.95 15.94-3.603 29.59 10.058 31.23 22.852 2.54 19.874-20.15 41.012-38.17 46.09-61.47 17.321-108.04-68.416-108.29-70.344-2.98-5.953-6.63-9.135-9.06-2.281-2.65 9.938-16.89 38.988-24.27 38.704 2.45-10.285 12.38-27.49 10.25-42.719-4.26 12.419-13.26 38.918-29.95 52.859-4.32 3.827-16.93 8.228-8.15-1.657 10.63-14.491 24.55-34.314 22-53.156-2.83 4.184-4.49 14.859-7.75 21.875-8.17 17.567-25.76 38.299-37.22 41.531-8.46 2.387-7.64-.446 1.12-9.406 9.39-9.606 26.19-37.967 25.29-50.312-.39-5.452-17.68 46.849-48.94 60.781-8.43 2.944-13.14-.985-13.14-.985 12.31-6.851 46.51-39.601 43.88-77.414 0 0-1.88 5.566-4.66 13.914-11.96 35.879-36.87 59.22-56.04 60.905-15.31 1.344-25.89-4.975-22.06-7.644 19.82.434 36.2-6.179 49.2-25.307 13.22-19.442 18.5-50.913 11.15-84.409-6.63-30.208-7.79-57.302-9.84-86.277 21.6 7.731 43.38 12.982 64.64 5.029-2.25 8.592-5.79 9.612-11.46 16.041-4.12 4.7-2.75 5.852 13.2-5.072 4.64-3.179 6.34-5.756 7.16-4.875 1.33 1.429-.9 10.277-5.75 27.906-7.26 26.363-5.5 28.285 19.78 38.625 4.72 1.93 6.46 3.776 8.09 5.782.77.938 4.83 8.511 5.22 8.781.92.634.8-7.649.31-9.75-1.28-5.579-4.22-9.795-6.83-11.479-4.92-4.668-12.11-5.177-16.7-7.358zm474.96 352.137.65-27.473 26.42 19.325-.46 9.064zm-45.71 5.309 6.4-508.226s20.69-13.316 31.03-19.91c6.1 20.242 5.43 63.447 2.75 82.652-4.19 12.471-6.79 68.21-2.65 96.651 3.29 22.671 2.08 60.07-1.6 77.925-1.43 6.977-.88 39.778 1.19 70.145 1.59 23.208.73 44.274-2.25 56.295-2.34 9.474-2.07 43.547.26 56.649 3.42 19.277 3.15 81.037 1.45 84.367-4.48 4.918-38.91 5.118-36.58 3.452zm48.31-531.254s20.44 13.929 30.29 20.888l-.18 21.897-29.53-19.901zm-308.52 30.907 12.75.978c4.7 26.538 6.46 56.653 8.05 86.842-.03 46.514 5 95.644 15.45 127.95l-9.52 9.701c-15.44-37.071-15.86-95.202-18.85-134.585-.92-44.26-7.52-90.597-7.88-90.886zm310.55-.128 27.48 19.186-.05 23.817-27.7-18.953zm-292.16 2.143 11.19 1.381c2.95 31.469 7.87 52.866 9.35 87.508 1.93 44.805 9.15 81.677 13.47 116.715l-8.43 2.667c-5.66 2.507-14.38-38.952-17.31-122.777-.88-25.369-4.76-53.947-8.27-85.494zm16.93 1.427 13.35 2.593c4.77 79.619 13.04 154.451 22.21 197.395l-11.65.601c-13.55-61.382-13.46-132.176-23.91-200.589zm19.3 3.1 12.27 2.312c12.15 182.101 21.31 179.887 24.07 187.079l-13.4 5.207c-13.63-52.476-15.46-126.205-22.94-194.598zm53.25 179.465c-2.19 6.096-7.17 5.454-12.62 6.004-5.86-16.804-9.13-36.781-11.4-56.326-4.99-42.934-6.43-83.143-11.66-125.517l14.65 1.715c-.48.316 8.24 149.297 21.03 174.124zm-313.38-164.457c19.33 1.215 35.25 10.128 36.61 22.854.31 2.863-1.94 1.442-4.53-.603-16.45-12.989-35.32-17.236-58.29-9.345-5.01 1.72-9.13 4.485-11.35 4.063-1.98-1.306-2.55-4.414-.99-6.947 5.46-8.833 28.99-10.623 38.55-10.022zm-45.21 24.86c.12 20.039-4.91 31.013-15.49 35.489-12.77 5.402-28.86-6.798-20.77-20.067 6.13-10.032 16.36-6.833 18.16 3.826l16.64-35.656s1.49 11.39 1.46 16.408zm588.81 5.338-.48 20.644-29.46-20.31 2.28-19.823zm-527.63-10.354c14.57 6.016 19.85 13.184 20.35 16.343-.88 2.337-2.32.712-12.94-5.218-16.33-10.345-37.79-12.305-56.84.25-4.72.861-5.17-1.814-.38-6.813 14.54-11.052 34.41-10.923 49.81-4.562zm111.35-2.25c12.9-.22 28.26 3.28 41.18 10 5.72 2.972 10.86 4.847 14.56 8.222 2.98 1.608 3.12 8.421.91 8.903-1.96.247-5.15-1.329-9.9-4.75-30.64-20.535-52.94-18.385-71-6.282-1 .669-4.09 1.329-5.3 1.219-3.41-.306-3.57-1.705-2.11-3.532 8.41-9.234 20.85-13.566 31.66-13.78zm386.33 20.072 29.51 21.262-.32 20.482-31.37-22.495zm-538.19.507 4.35.189c9.79 24.73 22.7 12.244 28.13 2.478l5.29.939c-8.78 32.807-42.29 15.088-37.77-3.606zm-7.46 3.171c4.92.664 4.67 6.235 6.15 10.314 3.32 9.116-9.64 1.254-11.85-.986-3.74-4.048 1.73-8.976 5.7-9.328zm147.56 1.184c12.56 19.738 20.14 8.271 27.59-.137l3.48 1.166c-1.13 14.024-24.97 28.644-35.77-.753zm39.48 2.785c1.38.041 4.13 1.067 6.65 2.13 6.99 2.944 6.59 5.021-1.25 8.37-12.53 5.355-16.87 6.009-13.02-1.757 2.19-3.546 3.68-8.264 7.62-8.743zm-48.87 2.272c3.1 2.347 5.12 4.925 5.42 9.073.22 2.924-9.46-.582-9.37-5.234.35-2.953 1.99-5.328 3.95-3.839zm-86.14-.138c6.35 2.459 5.54 5.49 1.05 8.184-8.05 4.337-11.46 3.411-6.19-3.515 2.43-3.195 2.96-4.633 5.14-4.669zm491.23 17.442 31.95 23.159-.59 20.828-31.93-22.451c-1.37-8.948.13-14.93.57-21.536zm-558.35 24.142c1.53.061 2.06 5.129 2.31 12.532.42 12.307-12.35 29.252-25.09 34.968-15.35 6.884-31.52-3.316-28.58-18.042 2.72-13.572 22.06-13.854 22.61-1.27-1.93 3.28.67 6.086 1.75 5.812 4.99-1.262 16.87-11.641 21.81-23.375 1.93-4.572 3.13-9.29 4.47-10.344.26-.204.5-.289.72-.281zm557.07 4.25 31.91 24.004-.15 20.701-31.67-22.47c-1.13-9.243-.49-15.815-.09-22.235zm-391.9 27.094c-2.5 4.061-.6 11.429 4.49 5.25 13.07-14.773 31.41 4.218 21.28 15.969-9.2 10.664-20.27 7.027-43.63-2.281-17.01-6.781-19.74-4.595-24.03.062-3.53 3.834-1.87 11.684 2.63 11.656 13.82 3.348 25.78 6.588 40.09 9.782 30.25 6.663 49.32-32.145 21.81-46.907-6.58-3.531-20.36.733-22.64 6.469zm-133.96 2.556c-11.98 10.434-2.68 38.452 14.7 41.194 3.64.574 9.08.503 15.29-1.191 12.24-3.339 25.77-10.353 26.38-14.544 2.78-19.045-25.88-2.347-29.67-.14-9.04 5.307-18.51 4.465-23.19-2.063-10.55-14.712 8.98-31.134 20.44-13.156 2.89 4.537 1.96-3.091-1.19-8.312-4.45-7.371-16.21-7.068-22.76-1.788zm527.54 1.65 30.01 21.867-.46 19.928-29.09-21.621zm1.84 29.21 28.42 21.069.19 20.722-29.85-20.273c.7-7.449.94-14.456 1.24-21.518zm-161.16 9.56c25.24.782 38.95 38.288 25.41 53.615-4.03 4.559-7.21 5.75-8.98 4.003-.38-.377.31-4.539.64-9.25 1.04-15.023-2.01-25.362-12.84-36.942-8.13-8.686-11.21-11.383-4.23-11.426zm-310.96 1.43c-4.79 1.63-9.89 5-13.78 4.094-3.85-.895-5.72.987-7.28 3.991-5.94 11.489-4.21 15.258 7.34 8.853 5.48-3.04 7.37-1.894 21.88 1.062 10.36 2.113 17.44 2.022 26.62-.218 11.42-2.785 18.2-2.917 23.91.312s9.58 7.621 9.78 4.094c-.58-4.141-4.03-14.759-4.81-18.281-.38-1.695-3.23-.249-5.91-.094-9.44.547-20.56-8.096-27.91-3.719-5.88 3.503-6.66 4.432-14.59-.375-5.9-3.58-10.06-1.483-15.25.281zm304.05 7.01c16.89 14.524 21.09 27.253 19.28 37.621-.96 7.547-1.65 15.89-9.12 20.332-1.37.632-3.42 1.006-5.31 1.257 6.06-21.389-.44-40.717-24.31-61.584 7.08-3.379 14.24-2.112 19.46 2.374zm-385.58-5.635c.76.009 1.59.146 2.44.438 2.95 1.02 3.3 8.788.93 11.187s-4.22.365-6.84-5.843c-1.96-3.389.18-5.82 3.47-5.782zm-15.88 5.813c6.25-.038 8.53 5.712 9.53 10.281.86 3.894-.46 15.462-3.71 11.375-.76-2.465-4.04-10.435-6.72-12.531-5.98-4.67-5.31-9.087.9-9.125zm-17.65 5.5c.91-.013 2.08.116 3.5.375 9.72 1.773 16.96 17.39 14.56 26.156-5.29 9.39-7.11 2.981-8.69-5.625-1.28-3.577-5.19-9.21-7.59-12.125-4.99-6.049-5.74-8.727-1.78-8.781zm585.95 4.002 29.36 21.694-.28 22.761-30.75-21.321c.81-7.955 1.27-15.577 1.67-23.134zm-605.3.435c14.54.239 26.7 17.312 21.88 33.532-5.93 16.902-34.16 12.868-29.22-4 1.42-4.852 6.67-8.341 11.59-5.219 7.11 4.508 6.43-2.671 1.91-5.281-6.97-4.029-16.67-1.792-18.94 6.125-7.91 27.599 27.58 37.562 47.38 9.218 7.24-10.359 15.11-21.443 19.43-26.156 3.89-4.234 4.7-3.772 4 1.75-2.84 25.709-21.26 57.624-54.9 55.375-32.68-3.583-42.4-38.441-17.38-59.75 4.21-3.58 8.61-5.312 12.85-5.562.47-.028.93-.039 1.4-.032zm173.36 3.922c-12.05 5.624-22.93 7.66-34.65 2.358-8.65-3.919-8.58.201-4.84 3.636 10.81 9.477 30.78 5.55 39.38.428 2.8-1.662 3.78-6.578.11-6.422zm460.95 47.855-.21 20.702-32.8-22.67c-.45-4.96.22-12.48 1.42-20.237zm-32.03 6.451 31.24 21.224.54 20.529-30.37-19.447zm1.78 28.804 29.83 21.273.11 22.401-29.56-20.071zm-735.06 12.875-19.25 55.437 12.07.906 7.93 14.813 8.6-14.938 12.72-.781zm735.87 18.121 28.75 20.373.14 20.69-29.87-21.29zm-1.55 25.306 29.46 21.932.27 21.981-33.41-22.967zm-666.22 2.76-19.13 59.375 10.32-1.25 9.4 16.094 9.94-14.188 9.22.657zm-137.5 2.438-18.25 59.031 11.65.125 9.63 15.094 8.84-14.313 13.22-.156zm799.44 22.528 34.58 25.013-.05 23.337-33.53-23.174zm33.73 55.917.1 20.44-29.1-21.346-2.86-22.737zm-623.7-5.539-22.22 59.937 14.31.344 8.47 14.594 7.16-14.438 11.5.282zm596.49 14.671 27 19.085-.51 20.979-26.59-18.375zm-520.41 236.285-15.32-15.157c-.18-1.222 12.81-7.282 20.7-3.192 10.41 5.4 15.52 24.353 3.63 34.119-9.45 7.771-23.62.987-23.89.053zm-13.47-24.826c.61-23.062-11.45-29.159-21.43-33.978 0 0 .44-146.194.72-150.559 0 .638-2.34-15.867-2.62-16.843 0 .011-2.41-.678-2.4-.653.2 14.827-1.03 166.723-1.28 167.705-18.84 1.897-24.28 14.547-26.22 31.611-14.66-1.313-24.33 7.378-24.64 8.838-5.31-7.517-1.12-18.417-5.28-26.241-13.66 45.261 11.23 72.823 33.32 70.609 2.91 43.69 50.86 52.278 50-.679 58.2-2.568 39.27-56.313-.17-49.81zm-270.55-187.474-21.91 58.719 14.78-1.469 5.22 10.969c23.94-20.485 35.41 11.848 23.78-15.906zm798.77 116.647c2.72-.162 6.25 2.338 6.92 5.686.37 9.972-12.99 7.539-13.32 1.241-.24-4.473 3.84-6.776 6.4-6.927zm7.81 64.931c5.84-4.655 15-1.845 15.04 5.298.04 6.332-7.25 8.311-12.87 4.673-4.37-2.745-4.57-7.754-2.17-9.971zm.56 17.574c31.62 2.869 55.49-18.289 45.62-33.871 8.66-10.564 1.81-16.805 4.23-22.9 6.82-6.792 1.41-21.69-.27-21.769-1.09-19.902-6.83-22.533-15.27-33.251-2.54-3.108 6.11-5.986 9.49-11.216-8.8 3.233-17.3-3.381-17.23-4.859l-3.65-4.677c-58.67 1.88-111.37 5.206-110.54 84.722-8.92 33.615 4.93 63.873 45.98 55.184 9.08-7.871 3.34-19.555 2.33-25.143-3.28-15.384.9-25.29 2.13-32.457 3.81-22.168 20.39-42.555 21.66-7.704 2.91-4.33 1.57-4.995 6.31-6.74 11.3-3.887 11.12 7.466 8.75 12.014-1.51 2.333-3.74 2.101-6.02 1.805-3.27-.44-7.52-1.712-7.57-2.911-.93 3.602 5.79 10.427 5.03 13.809-.95 3.207-1.52 2.937 1.49.848 14.25-9.879 22.75 12.784 2.39 9.913 9.97 5.512-5.13 21.007 5.14 29.203zm-19.11-121.614c11.12-.405 13.79-.465 13.19 5.361 1.95 10.795 4.57 15.826 18.63 14.901 14.17-1.635 18.67-2.454 4.31 5.888-7.24 3.062-9.58 3.644-18.09 2.754-8.58-.898-7.91-1.752-12.86 1.107-2.77 1.598-5.79 3.548-8.02 3.92-3.31.55-9.15 1.737-9.15 1.737-3.55 16.668-8.71 25.012-15.75 32.855-9.96 10.993-14.96 12.868-2.93 12.209 4.44.34 2.17-1.918 3.85 16.13.59 6.321 1.66 13.657 2.56 16.126 3 8.256 3.36 12.345-8.52 12.755-29.68 1.813-36.18-27.137-32.02-41.821.38-2.314 1.84-9.968 2.22-16.054.21-3.325-.42-6.152-.29-9.553 1.07-27.479 7.7-34.628 32.36-52.143 7.44-5.283 20.67-6.199 30.51-6.172zm26.01 1.859c13.69-.083 26.82 6.682 20.16 10.852-4.3 2.695-19.68 1.327-23.91-1.776-5.46-4.004-3.32-9.032 3.75-9.076zm-610.57 14.478-5.57 9.531-6.31 44.657.88 9.093 10.98 14.838 9.08-15.088 13.93.445zm639.91 4.833c8.84 1.903 9.07 9.997 6.74 14.944-5.11 10.878-38.34 15.693-38.34 15.698-.2-4.706.52-9.228-2.85-14.568 0 0 22.16-5.456 26.9-9.646 3.15-2.799 5.1-6.371 7.55-6.428zm6.2 25.006c3.21.091 4.88 2.44 5.68 7.188.38 2.544-.61 4.695-2.72 7.437-8.55 9.023-32.3 15.013-40.81 12.564-.59-.801 1-10.412 1.68-14.688 11.38.509 30.68-9.304 36.17-12.501zm-338.08 51.419c-11.07-16.47-36.19-14.444-33.51-13.263.38-13.963-1.73-33.178-22.9-35.526-21.35-1.929-32.75 26.111-24.81 38.166-13.11-5.668-33.1 7.773-33.12 9.062-1.69.031-17.39 39.768 28.34 42.49 3.89 18.925 10.89 28.152 25.4 36.125l-1.87 153.969 5.07 7.063 2.79-161.341c23.44-.696 26.71-27.45 25.07-33.653 10.39.605 19.87-1.35 27.91-7.301l2.36 26.339s5.63-9.198 4.49-14.138c-8-151.357 49.08-314.138 122.44-419.125 3.9-4.395 5.15-9.692 7.05-9.704 17.65-9.18 28.8-15.368 28.8-15.368 28.68 14.296 79.76 48.54 79.76 48.54l-2.29 215.479c-.77-2.131 96.24-9.412 94.75-6.815 0 0-8.44-3.445-8.49-9.116l4.8-504.246-41.98-28.3s-35.18 22.265-45.05 29.905l-3.24 296.862-74.44-45.069s1.35-10.481 1.51-13.887c-.61-40.523-20.3-54.404-58.34-42.937-5.1 1.536-8.65 2.896-11.1.785-15.26-46.833-20.66-169.4-20.64-169.399l109.48-179.458 181.28 1.635-6.91 691.641 1.3 362.602-93.5 66.031 2.02-232.236s-13.16-6.528-16.62-7.006c-1.31-.119-3.03 2.773-.7 4.309 3.37 2.216 11.69 5.374 11.69 5.374l-1.38 230.188s-36.32 23.684-52.55 33.534c-12.09 7.276-50.29 25.821-72.91 36.491-8.78 4.14-17.62 7.435-18.45 8.087-30.78 12.7-58.5 21.505-84.2 34.703-17.7 6.94-16.8-.1-20.47-5.906-36.19-36.84-83.56-39.676-122.22-23.469-5.98 2.12-13.38 3.933-18.4 7.312-1.46 1.041-3.98 2.195-5.63 2.563-3.38.752-7.08 2.191-10.22 4.594-5.58 4.285-9.36 11.356-12.62 18.376-2.02 4.35-8.19 24.67-9.05 30.71-.15 1.01 1.95.82 2.02.92.26.37 6.26-24.63 8.57-29.35 4.92-10.07 11.02-16.05 14.23-16.96 1.45-.225 2.69 2.051.66 5.593-4.02 7.037-7.43 22.087-8.48 28.877-.94 6.27-1.18 11.3-.01 11.54.2.2 6.03-18.93 8.63-25.67 6.77-17.586 10.98-24.85 17.31-28.53 6.48-3.773 8-3.208 6.67.884-9.84 18.526-13.99 32.576-16.15 52.426-.35 3.96 1.66 4.1 3.34-2.44 5.54-20.79 13.14-48.908 30.27-57.086 7.3-3.174 10.52-2.969 9.71-.639-20.62 25.275-26.09 53.595-25.98 62.755.03 3.06 1.28 2.47 3.97-4.11 7.22-25.1 17.7-46.382 29.91-56.72 4.73-4.001 10.4-5.04 15.14-5.558 14.32-1.566 14.73 3.739 2.18 10.803-14.29 8.046-31.12 37.835-33.27 60.355-.74 7.79 2.01 8.68 4.11-1.7 9.06-44.69 47.91-73.752 78.5-59.583 13.77 6.374 16.15 14.993 4.15 11-24.3-8.078-51.66 8.823-63.19 32.803-10.42 21.68-10.38 33.14-3.69 62.47 4.45 27.07 13.39 61.69 9.89 88.09-3.43 5.09-13.93-2.32-26.42-4.04-7.53-1.52-16.75-2.02-24.68.89-6.91 2.53-10.82 3.13-12.04-.59-.39-1.2 5.4-6.93 7.99-10.11 4.14-5.09 1.83-5.94-3.99-.44-2.84 2.69-8.97 9-10.62 9.31-3.63.68-3.72-3.4-.65-13.74 10.84-40.18 8.1-40.91-9.36-49.33-17.33-6.89-11.77-10.16-19.39-16.87-5.5 4.17 6.76 23.85 20.88 28.31 11.56 3.65 10.06 9.57 4.75 25.46-5.48 22.26-14.71 51.71-9.91 71.62 10.09 41.84 52.43 41.61 85.09 25.23l3.8 10.69c-27.57 10.69-172.18 18.08-220.79 11.78-3.57-13.21-3.89-16.6-5.19-32.11 0 0 29.88 14.02 44.86 16.59 18.7 3.21 47.56 3.77 55.2-13.38 2.34-5.03.08-9.34-6.43-6.5-11.97 5.21-32.35 8.91-48.75 7.65-13.77-1.05-33.34-6.87-41.75-12.1-4-2.49-7.34-7.29-4.09-13.22 2.81-.58 6.45 2.57 8.61 3.72 24.69 12.91 38.29 15.54 54.58 10.97 12.35-3.48 29.12-16.5 25.08-20.33-4.17 1.39-18.13 12.76-27.67 15.15-19.64 4.91-40.38-3.35-60.51-16.81-6.2-5.53-3.28-9.46 4.34-5 30.22 15.77 42.77 26.12 72.21 5.04 6.58-4.73 10.2-4.06 13.98-1.08 14.93 13.76 14.99 6.15 4.12-8.08-2.47-3.23-4.69-7.74-6.13-12.53-1.06-3.54-1.26-7.07-3.24-9.42-3.38-3.99-9.54-6-16.57-9.21-10.14-4.64-13.57-2.53-6.09 1.25 13.11 6.63 19.43 13.61 3.1 9.66-14.78-6.87-39.67-3.51-53.87 6.04-11.11 5.22-16.05 10.91-18.48-1.3-5.08-25.47.73-59.85-5.94-104.27-1.27-8.47-2.89-13.85-1.11-14.98 2.29-1.45 7.88 4.1 14.76 14.06 3.13 4.54 9.36 13.27 9.35 11.47.38-9.38-13.96-27.2-25.91-34.31-6.56-3.91-10.8-21.6-3.29-17.61 5.81 2.93 35.83 30.11 41.49 39.72 2.62 4.47 4.94 1.68 2.17-3.57-1.67-3.15-8.68-12.43-15.53-19.31-12.15-12.21-13.58-11.66-11.18-14.09 4.75-4.81 14.68 1.62 32.31 18.04 4.5 5.85 10.48 11.16 9.78 8.27 1.89-4.47-15.72-23.95-26.25-29.26-1.96-1.27-2.21-2.58-2-4.97 1.14-9.07 21.48 4.57 38.29 20.38 6.3 5.93 1.16-5.12-6.12-12.68-5.72-5.95-14.98-13.37-21.3-15.96-6.26-2.69-6.58-8.2-1.6-10.43 17.09-.48 34.47 17.23 44.77 31.1 2.85 3.81 5.47 6.75 2.55-.43-9.42-21.62-29.48-34.01-43.47-36.67-11.36-2.16-10.96-12.432-.27-11.113 11.75 1.45 30.88 12.353 46.99 29.043 4.69 4.86 12.53 15.84 10.98 9.44-.02-1.74-4.94-8.61-10.64-15.25-13.18-13.48-28.55-25.44-44.99-29.176-7.67-2.291-30.61 1.789-30.69-2.18-.01-2.929 2.46-4.648 9.78-6.966 28.41-8.996 69.44 15.892 91.53 53.552 1.58 2.7 4.63 3.88 4.82 3.28-10.47-30.67-44.02-58.819-70.96-63.951-18.33-3.213-36.92 1.204-45.9 13.453-10.11 13.788-6.5 32.468 8.4 31.188 7.81-.6 7.26-5.04 7.11-5.19-.52-.53-5.09 1.54-7.89.94-10.14-2.14-8.81-20.523 6.06-18.491 17.09 2.336 19.12 29.381-.1 34.781-17.74 4.98-24.1-3.18-28.79-12.82-6.87-14.12 1.05-36.604 13.65-45.086 35.28-23.744 79.16-2.778 103.77 21.633 12.17 12.073 20.99 26.353 26.44 41.693 1.4 3.56 4.03 3.39 3.14-.43-33.79-90.049-138.41-101.248-154.97-32.78 0 0-.57 2.1-10.43-12.371-15.99-23.448-40.31-28.974-70.57-13.586-30.52 10.959-40.86 18.072-62.06 28.647-3.08 1.04-22.73 14.18-25.81 11.35-29.52-20.2-55.4-27.315-69.34-42.005.52-2.652-1.41-42.843-1.41-42.843l3.21-173.134c.24-1.686-15.79.918-42.47 4.705-70.98 13.099-64.25-24.032-73.58-26.786-4.93-1.061-4.6 1.065-4-132.442.17-38.776.39-106.948.46-151.5.08-44.551.47-81.659.88-82.437.41-.779 4.43-4.133 9.06-7.313 17.43-11.97 27.22-19.224 65.38-47.468 8.64-6.397 10.81-7.469 10.81-7.469 3.17 80.263-1.94 164.43-.81 233.406l3.18.063 2.13-231.532c-6.49-1.801 150.16-90.433 235.7-118.682 1.61-.53 5.56 1.301 5.56 1.301 47.99 60.58 176.8 44.321 188.22-28.417 20.65 44.742 112.96 132.438 157.23 28.99 0 0 15.06 30.12 28.32 32.285 29.83 4.4 33.21-.266 99.44-31.206-76.86 112.984-120.07 233.164-127.5 379.362zm-39.56-29.023c1.57 5.062 2.04 11.582.55 16.703-1.98 3.989-4.84 3.892-4.84 3.892l-14.38-12.657-14.44 13.001s-8.59-8.907-3.62-21.012c9.35-16.875 30.17-13.502 36.73.073zm376.3 3.457c9.33-.454 4.36 10.202-9.54 17.268-8.72 4.434-15.92 5.618-19 3.924-1.63-5.061-.12-9.633.97-11.66 5.93-2.934 22.17-8.002 27.57-9.532zm-602.15 11.464c10.36-.101 19.22 7.403 19.36 20.468.06 5.323-2.75 10.558-2.75 10.558l-17.11-12.997-13.41 13.894c-2.27.754-10.21-9.456-4.49-20.358 4.16-7.925 11.32-11.495 18.4-11.565zm249.99 9.628c14.45 6.807 16.68 27.185 2.42 34.815-6.78 3.627-17.4 5.548-22.24-2.058l14.53-15.383-16.22-14.049c-.63-.651 12.69-7.479 21.51-3.325zm349.3-.275c2.51.032 3.13 1.001 3.82 3.353 1.95 6.673-3.34 13.283-12.33 15.267-8.3 1.835-7.53 2.814-11.34-4.638-2.99-5.839-3.81-5.607 1.02-7.37 5.84-1.802 12.09-3.911 18.83-6.612zm-413.94 3.968s-10.48 10.341-15.06 14.661l15.3 16.433c.72 1.981-18.07 10.16-27.7-2.73-6.26-8.368-2.44-24.057 6.69-29.326 9.33-5.383 22.51-.607 20.77.962zm22.28-1.508c9.17 0 16.59 7.422 16.59 16.594 0 9.171-7.42 16.625-16.59 16.625s-16.63-7.454-16.63-16.625c0-9.172 7.46-16.594 16.63-16.594zm-227.41 24.647-15.13 15.377 15.86 17.764s-12.78 1.897-17.29.984c-21.87-4.422-19.35-30.106-2.29-36.661 7.19-2.407 12.5-1.489 18.85 2.536zm-292.46 1.05s2.45 33.076 4.96 44.397c-1.95 12.849-10.4 21.492-14.34 34.656-2.08 5.853-9.71 13.65-11.03 5.344-5.27-10.316.09-22.895-4.28-30.25-2.17-6.834-1.44-10.754-2.85-17.907-3.22-5.842-5.83-8.619-5.31-13.875-.55-23.365-6.45-18.821-16.84-17.062-8.59 2.692-20.14 3.66-26.97 8.562-14.83 10.12-6.93 16.165-12.69 31.688.77 6.85 2.41 9.339 1.12 15.219-6.06 27.796 4.42 25.635 4.1 26.062-4.45 6.344.72 20.832 2.81 20.125 12.71 3.313 7.95 12.56 12.03 17.563 4.1 4.838 3.84 7.246 21.31 7.937 31.54 2.925 81.78-1.038 93.18-39.373 7.55-54.18 18.13-101.852-45.2-93.086zm313.96-.76c8.86 0 16.03 7.175 16.03 16.032 0 8.856-7.17 16.031-16.03 16.031-8.85 0-16.03-7.175-16.03-16.031 0-8.857 7.18-16.032 16.03-16.032zm-300.19 4.063c5.97.014 12.99 1.371 18.69 7 12.22 12.058 12.6 22.836 6.44 68.469-1.74 12.855-6.43 23.554-12.5 28.156-12.2 9.244-27.07 15.744-39.28 18.562-6.45 1.487-12.03 1.441-16.38 1.344-4.69-.104-7.4-2.312-7.69-6.25 1.19-10.629-9.66-11.823-15.96-11.312-11.23.282-12.4 1.445-5.32-3.875 8.08-6.073 26.5-5.895 29.94-2.219 7.29-7.085 14.79-7.815 23.97-8.75-1.33-2.014-4.5-10.036-2.25-15.125 4.87-8.276 13.07-22.882 21.53-28.281 8.45-10.723 1.34-5.924-3.81-5.813-2.94.063-2.68-.901-3.13-2.875-1.92-8.479-4.64-24.314-4.53-33.719.06-4.532 4.32-5.327 10.28-5.312zm-53 10.937c3.2 2.928 3.1 6.948-.35 9.892-3.94 3.367-11.64 1.366-11.74-5.079.61-6.494 8.22-8.22 12.09-4.813zm559.16 31.011c-13.46.475-24.33-14.08-19.05-28.349 2.83-3.843 4.03-3.268 4.03-3.268l15.11 13.905 14.92-15.156c11.89 14.779 1.25 32.013-15.01 32.868zm-575.55-30.645c-1.17 4.182.22 8.386.37 10.429-2.69 1.86-14.1 5.015-20.23 7.923-4.25 1.393-7.26-2.628-6.62-6.249 1.7-6.738 11.71-11.01 18.97-13 2.23-.514 5.91-.665 7.51.897zm2.21 19.384c4.1-.434 2.77 8.468 1.16 13.007-1.57 3.239-6.08 3.038-10.14 3.215-7.17.314-16.32 8.447-20.18 7.059-1.28-.613-2.14-4.024-2.25-6.187 1.01-11.897 20.86-15.977 31.41-17.094zm21.46 12.719c-1.39 1.975-5.8 2.876-9.46 1.812-6-1.738-6.8-10.39-1.47-13.281 9.37-2.95 14.85 5.882 10.93 11.469zm594.88-11.031-8.34 12.312-12.41-.406 19.16 61.812 9.62-23.906c1.41-11.036 3.03-22.045 4.35-33.094zm-264.02 1.353 15.68 13.172 13.81-13.714c9.8 22.714-2.02 32.875-14.43 32.422-13.68-.5-28.09-13.685-15.06-31.88zm-348.64 18.272c5.05-.883 2.7 12.672 1.99 13.053-3.22 1.137-17.09 2.745-22.99 7.572-12.55 9.541-17.76 3.532-11.84-8.032 5.54-6.693 25.64-12.569 32.84-12.593zm15.78.875c5.54-.437 9.33 5.737 5.87 11.517-4.64 4.193-12.64.953-12.52-5.08.02-3.791 3.2-6.288 6.65-6.437zm-8.65 34.343c.71 3.182-.38 2.185-6.22 3.813-3.22.897-8.28 2.961-13.56 5.531-7.75 3.769-9.93 5.826-12.66 5.344-2.16-.505-4.65-1.478-5.29-3.685-2.54-8.817 4.73-17.661 21.48-23.565 3.48-1.228 9.69-2.171 11.81-2.375 5.66.098-.51 8.691 4.44 14.937zm10.03-13.062c8.05 0 9.41 10.708 3.36 12.499-14.16 3.441-12.73-12.646-3.36-12.499zm-10.5 39.219c2.23 2.206 2.5 5.774-.06 7.594-4.69 2.227-22.52.013-22.56-5-.02-3.309 5.96-4.341 11.51-4.369 5.55-.027 9.32.01 11.11 1.775zm806.22 17.187-15 19.469 19.03 49.719 18.91-59.594-14.25 5.406zm-833.31 38.697c1.19 152.287-4.45 501.132-4.45 501.132l42.9 30.08 46.09-32.11c1.13-109.82 1.79-185.57 2.83-287.236l66.31 37.686s2.01 2.99 1.5 16.72c-5.17 37.87 31.16 63.03 55.72 48.41 9.45-3.81 10.23-4.5 12.17-1.51 5.36 8.24 11.02 43.28 11.72 65.59 1.07 33.62 8.92 102.24 11.04 102.73l-111.48 182.77-169.61-1.64 8.01-685.617c8.67 10.511 12.59 17.377 27.25 22.995zm631.53-5.509-8.35 12.344-9.84-.157 16.34 63.969 21.82-62-11.5-1.594zm-552.16 500.191s-21.39 14.88-28.22 19.15c-3.57 1.28-5.3 1.51-6.09-1.9-.98-4.2.8-12.08 2.47-25.13 1.54-12.06 1.54-12.74-.22-30-1.84-18.02-2.08-18.78-.03-42.5 2.28-26.46 3.02-52.17 1.15-68.12-1.77-15.17-1.24-49.69.57-68.94 2.21-23.57 1.9-44.28-.94-61.439-5.07-30.599-5.82-41.122.25-64 2.27-8.561 3.41-13.116 3.17-27.51-.27-16.004-.49-21.232-5.7-56.74-3-20.441-3.22-23.245.34-55.469.72-6.502 1-10.854 3.51-12.884 2.93-2.371 33.15-3.69 33.15-3.69zm-72.25-494.004 32.9.121c-2.69 10.261-3.37 18.089-3.74 25.536l-28.94-19.625zm.29 13.168 28.65 19.301c-.08 7.968-.79 15.556.25 23.535l-29.03-19.879zm-.38 29.96 30.65 21.608c1.09 8.259 3.49 16.628 4.35 24.05l-34.75-24.254zm1000.83 22.874-7.21 607.902-308.13-3.09-94.94-189.05s1.25-17.24 3.79-26.01c3.08-10.61 3.89-12.92 7.99-13.36 10.88 5.84 23.21-1.54 27.07-9.79 4.75-10.16-4.35-25.78-18.61-29.35-6.29-1.59-13.23 1.15-20.28 6.36-4.09 3.32-5 3.69-5.77.74-1.72-6.65 4.43-24.57 15.16-39.86 5.98-8.51 7.59-10.96 9.44-7.66 7.46 13.33 23.91 10.83 30.24 3.45 7.67-8.93 6.39-29.56-10.59-35.27-33.24-11.17-49.06 22.11-48.64 22.04l-6.57-40.28c40.35-9.27 63.6-12.41 76.55-24.41 10.19-9.45 15.22-25.97 14.19-40.74 0 0 112.34-43.735 165.01-71.142 90.69-47.192 171.3-110.48 171.3-110.48zm-170.11 1.936-8.47 14.406-11.72-.156 22.81 61.687 19.03-63.781-11.31.844zm-829.71 5.562 35.11 24.969c.66 7.95 1.58 15.036.38 24.017l-36.97-25.236zm692.05 2.532-9 11.593-10.16-1.218 19.07 61.031c6.32-17.468 12.18-41.226 18.43-58.719l-9.43.313zm-693.12 28.687 36.34 24.839c.03 7.508.28 14.584-2.41 19.849l-34.31-22.719zm761.28 14.563-9.16 17-11.84-1.782 20.37 58.532 24.03-57.344-14.37.562zm-761.63 13.75 31.48 23.826c.45.342-1.93 10.633-1.51 16.486l-30-19.094zm.44 28.906 29.37 20.812c-.04 7.728.38 15.002 1.5 21.594l-31.9-21.375zm-.94 29.437 33.95 24.914 1.53 19.645-36.01-23.371zm282.25 12.282c32.74 12.749 62.7 75.797 60.57 156.817-1.47 56.25 14.36 136.8 14.06 135.87 0 0-9.57 1.14-12.24-1.02-11.8-41.49-15.3-85.2-16.73-121.23-1.17-30.05-2.47-59.54-4.27-66.44-5.06-24.29-10.51-52.63-25.72-71.25-11.85-14.055-25.57-16.671-34.01-1.21-6.91 12.67 6.95 34 18.82 27.15 2.86-1.56 4.6-4.24.87-4.22-12.24 1.63-20.19-15.37-12.35-23.31 13.82-13.979 37.16 17.95 25.87 35.17-4.98 7.45-17.72 8.59-27.86 5.67-22.48-11.27-27.77-38.16-19.94-55.709 5.97-13.385 18.78-21.244 32.93-16.289zm-39.94 7.468c2.68.163.78 5.069-1.8 12.727-6.09 18.352 4.41 47.162 19.46 53.082 4.49 3.16 4.23 4.33 1.18 5.99-9.96 5.4-27.64-11.5-32.1-30.11-3.23-13.46-2.16-29.282 4.39-35.907 3.58-3.623 6.41-5.515 8.31-5.75.2-.025.39-.043.56-.032zm-243.06 7.344 36.28 24.465c1.6 7.5.73 15.45-.53 23.47l-36.29-26.08zm221.03 2.906c2.72-.046 1.64 4.49.76 12.789-2.03 19.21 3.73 33.28 17.15 45.09 5.66 4.99 7.21 6.55 4.71 9.08-3.56 3.6-13.53-1.44-21.28-9.76-14.2-15.24-18.56-43.67-7.18-53.792 2.5-2.221 4.42-3.383 5.84-3.407zm407.35 9.259c15.67-.39 28.79 5.88 29.96 25.02 1.73 28.03-24.59 42.97-42.56 26.63-16.08-16.38.83-41.4 19.56-29.29 9.42 6.13-2.12 19.64-9.71 12.46-3.42-3.24-4.97-1.28-2.56 2.44 7.28 11.22 22.07 2.19 21.16-7.61-1.78-19.27-25.43-19.37-34.44-11.96-12.34 10.13-23.29 25.16-31.46 36.11-6.69 9.5-8.09 9.22-6.95-2.62 3.01-31.3 32.57-50.59 57-51.18zm-426.32-.07c2.5-.05 1.46 3.51 1.51 12.72.66 23.67 10.42 38.55 22.95 46.97 4.17 4.74-1.3 7.98-9.24 5.6-18.09-5.86-36.08-45.17-20.44-61.73 2.2-2.32 3.92-3.53 5.22-3.56zm-17.78 7.5c2.52-.12 1.03 5.08 1.12 14.95.2 20.78 6.48 30.85 21.74 43.75 4.97 4.2 5.6 3.75 3.59 6.01-5.38 6.01-23.18-2.87-30.64-15.42-8.88-14.94-9.89-37.29-1.31-45.6 2.4-2.33 4.18-3.63 5.5-3.69zm-17.72 9.75c2.09.04.87 3.78 1.06 12.75.46 21.76 5.28 32.6 18.93 42.86 8.58 6.44 10.72 4.58 8.03 7.04-4.71 4.31-17.36.37-26.77-7.82-14.12-12.26-17.69-42.06-5.93-52.08 2.09-1.79 3.59-2.77 4.68-2.75zm-166.37.66 34.84 24.9-1.29 20.58-34.68-24.2zm614.84 47.56c-14.29-3.14-19.56-13.56-17.64-25.25.64-3.91 2.96-6.12 5.34-.97 1.99 8.16 7.24 19.49 14.62 21.79 2.97.92.42 5.03-2.32 4.43zm-307.79-28.8c15.57 40.91 14.64 85.36 16.71 127.39 2.75 55.87 12.08 93.61 15.21 99.99 0 0-15.78-.05-16.55-2.34 0 0-13.81-74.24-11.04-110.82.76-40.96-6.69-77.09-11.33-93.34-4.94-14.41-5.3-4.94 7-20.88zm-307.68 11.42 33.54 22.63c-.59 7.57-.77 15.14-.79 22.72l-32.85-23.97zm455.35 4.72c.01 1.23 4.86 2.34 12.52.61 8.51-1.93 16.95-1.44 23.44.44 6.89 2 7.69-.22 1.46-3.04-3.03-1.38-7.84-4.48-15.12-4.46s-22.32 3.77-22.3 6.45zm137.17 1.14c.81 1.53 3.33 4.98 5.6 7.69 4.28 5.11 5.51 5.17 3.49 7.2-4.63 4.69-14.12-2.34-15.02-11.15-.8-6.43 2.46-10.44 5.93-3.74zm-303.22-2.67c15.49 22.76 17.05 75.65 16.83 113.23-.2 33.83 10.35 95.99 11.28 95.74-3.29 1.87-7.66 1.13-11.75-.51-3.99-5.36-6.27-20.25-10.41-60.52-1.06-10.39-2.97-43.43-3.13-70.01-.13-23.44-12.49-74.37-12.49-74.37s5.14-3.54 9.67-3.56zm-17.68 5.37c13.94 32.37 15.82 64.34 15.91 103.1.08 36.66 7.6 79.72 10.4 98.71-4.87.44-10.01.76-12.02-1.45-1.27-1.8-2.26-4.6-2.84-8.2-6.1-31.79-7.17-66.29-8.62-95.47-2.17-45.22-2.73-56.41-8.81-79.03-3.45-12.83-4.72-12.58-1.95-15 2.11-1.84 6.11-2.72 7.93-2.66zm161.93 9.76c.18 14.97 2.2 8.9 7.52 6.59 3.98-.28 7.2 1.94 14.56 4.76 9.37 3.6 8.51 4.75 15.17 1.6 4.12-1.95 7.38-2.59 9.31-.98 7.66 6.4 17.7 3.01 23.39-2.01 4.43-2.22 9.2-.91 12.91-.51 5.35.57 4-2.87 4.76-9.62.67-6.01-1.61-6.57-7.86-4.63-6.39 1.98-12.71 2.19-18.21.42-14.05-4.51-24.43-1.86-31.44-.86-16.57 2.35-17.43.67-21.14-1.75-2.77-1.8-7.34-5.13-8.93-5.05-1.6.07-1.15 5.5-.04 12.04zm146.76-4.75c1.58-.78 2.28 1.37 4.42 4.25 3.6 4.82 4.63 7.08 1.56 7.48-8.14 1.06-10.15.18-9.79-4.86.29-4.02 1.2-5.58 3.81-6.87zm-325.79 2.37c11.74 12.18 13.79 79.57 14.93 94.09 3.16 78.63 10.45 90.03 6.53 95.87-4.51-.14-6.1 1.5-8.99-2.48-9.78-28.93-8.76-58.5-9.98-88.55-1.75-39.8-5.38-61.39-10.69-81.18-3.53-13.16-3.48-13.37 3.28-16.87 1.2-.63 3.85-.93 4.92-.88zm-16.19 9.24c4.06 9.6 11.86 53.1 12.46 90.56.48 29.75 6.73 87.98 8.04 88.32-4.34.33-9.53-.62-11.59-3.94-12.16-57.5-7.22-113-21.4-170.85.93-2.78 5.75-7.32 12.49-4.09zm-238.26 3.6 34.75 25.69.43 21.5-35.47-25.95zm521.98 4.87c-19.94 7.41-25.16 13.65-22.13 19.24 2.56 4.71 10.47 3.19 31.72-5.32 15.88-6.35 20.79-3.41 23.85 6.58-.37 14.68-14.63 16.18-22.64 14.05-3.45-.18-2.95.14.67 4.8 16.16 13.06 36.57-11.73 26.81-27.77-7.61-14.64-21.08-18.97-38.28-11.58zm-124.54 4.15c-16.54 12.6-11.04 35.81 2.53 39.48 3.76 1.98 9.42 1.16 11.65-.28 2.06-1.32 2.08-3.52-2.09-4.28-12.61-2.28-19.65-11.66-13.41-20.97 6.06-9.03 17.02-7.12 38 2.28 18.14 8.14 26.18 5.82 28.47-3.59 1.01-4.16-.09-8.08-8.84-8.53-24.35-1.26-40.29-16.31-56.31-4.11zm218.42 38.59c-.99-6.67-11.91 0-19.25 11.69-7.22 11.5-7.98 13.15-9.24 1.08-1.88-18 16.97-31.78 28.61-32.06 14.04-1.41 23.12 6.56 23.35 15.59.45 17.79-20.77 17.66-23.47 3.7zm-617.05-19.57 36.82 26.07s1.06 13.71.15 21.05l-37-24.44zm446.4 15.06c-16.33 10.73-7.11 30.89 4.17 33.3 11.89 2.55 12.85-5.76 1.03-8.39-6.3-2.58-7.84-8.64-5.3-13.26 5.79-9.17 16.16-3.03 22.2-.06 13.4 6.62 20.36 9.07 24.69 4.69 7.68-7.78 1.13-21.94-8.94-17.13-2.72 1.3-4.77 2.54-10.49 1.04-8.69-1.95-19.12-4.05-27.36-.19zm-446.53 15.3 36.22 25.57-1.43 22.13-33.99-25.7zm.32 30.45 34.05 25.01c-.65 9.35-.47 13.08-.18 19.05l-34.47-22.97zm608.38 13.55c27.55 3.1 17.94 34.66-1.2 25.82-5.08-3.94-6.63-3.65-12.54 10.17-7.56 17.68-9.32 16.21-8.02-4.32 1.03-20.11 10.44-31.68 21.76-31.67zm-217.46 1.67c.65.02 1.18.14 1.5.41 1.83 2.11-3.88 10.3-8.69 15.09-3.53 2.24-11.94-4.08-9.83-7.07 2.45-2.9 12.57-8.04 17.02-8.43zm36.58 16.86-4.94.63c-7.21-16.7-22.73-13.12-27.73 2.21l-6.79-.87c7.14-18.79 31.81-30.01 39.46-1.98zm138.87 5.8-8.36.38c-7.22-18.11-17.78-20.95-27.03-3.3l-6.44-1.96c11.46-22.57 30.08-24.12 41.83 4.88zm-41.43-21.13c4.28-.2 3.7 1.76-.84 7.77-3.94 5.23-4.89 6.04-8.73 3.1-6.3-4.82 4.37-10.6 9.57-10.87zm39.54 1.1c.81.06 1.76.15 2.84.44 8.57 2.25 12.46 6.38 8.17 11.55-2.68 3.22-5.26 4.46-6.96 2.25-5.67-9.65-8.81-14.6-4.05-14.24zm-130.03 3.78c.85 3.57-2.01 6.06-5.11 3.06-1.26-1.23-2.35-3.31-2.16-4.82 1.99-1.82 6.67-.22 7.27 1.76zm-435.2 5.92 35 25.92c1.04 8.96 1.18 15.76 1.03 21.87l-36.07-24.65zm515.54 15.18c20.18 14.26 44.07 14.42 59.2 2.38 3.38-2.7 6.29-2.77 6.31-.14-2.27 9.76-28.44 21.93-48.63 14.53-11.09-4.07-20.2-8.08-27.36-18.6-4.25-6.85 4.63-2.34 10.48 1.83zm-8.72 6.68c29.41 26.13 53.19 19.33 71.32 6.64 2.66-.62 2.67 1.76 3.2 6.21.67 5.69-4.09 8.43-17.05 12.1-25.05 7.11-54.2-1.49-59.23-18.3-.57-3.3-1.77-7.59 1.76-6.65zm-507.39 8.02 35.51 25.13-1.41 18.78-34.6-24.12zm.16 28.82 33.52 23.44-.33 15.56-32.6-23.94zm245.81 10.87c143.97 34.78 246.56 20.75 347.28 4.5l86.47 175.85-536.36-7.07c35.85-56.22 65.9-117.83 102.61-173.28z" fill="#131f67" transform="matrix(.150851 -.00219084 .00219085 .150851 -562.189 77.592)"/><path d="m3780.38-345.313v19.032h19.46v165.562h-19.46v20.5h56.56v-20.5h-15v-46.969l22.72-31.468 34.06 78.437h-21.75v20.5h61.69v-20.5h-14.75l-45.16-100.844 42.91-65.031 15.9.313v-19.032h-61.25v19.032h17.66l-52.03 79.843v-79.843h15.44v-19.032zm475.5 102.219 26.73 49.966.05 2.351 14.78 28.854 2.23 1.43 3.33 6.286.37 3.057 8.25 13.194-.05 2.833 34.99 65.092c28.87-10.775 265.96-30.175 353.75 1.562l12.79-21.67 3.06-.021 22.55-39.554-.36-3.327 7.59-8.652 1.1-3.94 24.88-38.935.09-6.276 31.11-51.875zm536.84 7.469s-16.23 31.201-24.6 43.812c-6.76-5.338-26.39-1.713-25.21 18.969-31.99-12.116-39.7 26.037-14.97 34.625-12.69 11.08-24.82-1.451-34.45-9.949-9.41 2.331-28.95 9.246-40.01-11.104 0 0 4.62 2.497 9.24 5.209 26.16 7.954 28.27-27.345 8.81-33.125-2.45-.644-7.06-.906-7.06-.906 6.54-27.145-35.46-36.622-36.25-4 0 0-4.99-.815-8.78-.125-22.26 4.058-17.16 36.884 5.59 35.313 3.14-.217 5.94.343 5.94.343-.37 5.258-27.91 15.303-47.75-2.781-9.41 7.166-24.3 16.148-43.72-1.719 12.77-.519 25.02-4.152 24.88-18.625-.1-9.422-8.57-17.833-20.79-18.281-.69-10.528-8.53-20.573-18.71-21.344-12.44.726-18.79 10.754-18.88 21.344-10.57 1.092-20.46 10.408-18.19 21.094 3.1 14.578 14.34 16.372 27.16 13.594-15.6 25.068-40.99 11.992-48.81 4-9.33 8.696-25.58 20.471-45.6 4.375 10.67-1.826 22.54-8.083 20.53-22.969-1.57-11.731-14.74-15.214-20.47-14.594-.01-7.751-5.86-20.54-19.68-19.219-15.08 1.442-14.18 20.506-14 20.657-12.46-1.027-21.49 13.619-17.94 22.968 4.32 11.378 13.37 14.916 30 11.844-19.4 18.205-31.72 11.139-42.31 7.313-9.37 9.822-21.89 12.99-34.72 4.281 28.7 1.368 24.13-49.365-9.91-30.969-2.94-9.517-7.33-21.234-25.15-18.5l-20.32-39.219zm-657.19 32.437c-1.47.018-2.96.091-4.47.188-54.97 3.514-75.27 41.725-72.68 75.562 1.74 22.836 14.2 42.331 32.31 52.907 7.76 5.916 9.39 8.136 8.03 10.906-1.61 3.269-3.79 2.954-8.19-1.094-62.89-60.167-151.46 10.514-112.28 88.532 31.15 62.039 118.57 47.682 137.31-22.125 1.49-5.549 3.89-7.96 6.47-6.438 1.83 1.08.38 8.274-1.09 19.219.1 39.518-41.03 101.713-43.35 103.812l107.85-.093c-24.74-33.777-39.25-66.908-42.25-115.125-.3-14.591 5.16-11.482 9.78 5.062 21.08 75.483 117.07 74.779 138.84 1.25 20.32-68.603-56.08-125.934-106.72-79.75-7.28 6.641-12.21 7.873-12.31 3.031-.04-2.061 6.76-9.696 13-14.562 12.64-9.849 23.17-28.287 23.28-46.969.23-37.749-27.85-74.839-73.53-74.312zm-57.94 321.469h-.12c-.02.08.04.075.12 0zm447.66-303.906c1.39-.058 2.86.23 4.31.969 4.49 2.284 5.33 6.269 2.6 12.156-.97 2.068-2.35 4.44-2.13 6.625 31.61 58.279 101.29 32.233 107.85 5.156.41-1.717-.39-3.597-1.29-5.437-2.68-4.455-2.32-8.103 1.16-11.157 7.42-6.504 18.05 1.173 13.75 9.938-1.14 2.312-2.33 4.845-1.47 7.937 17.89 40.617 53.51 43.669 83.41 27.594-13.77 24.653-67.15 39.769-89.56-19.594-35.78 48.361-92.55 47.448-118.32-7.156-23.17 55.852-93.08 57.174-118.53 10.781-23.16 53.073-76.88 41.032-92.09 7.813 49.9 36.109 82.78-1.586 88.68-17.656 0 0-1.15-1.877-2.74-3.438-6.39-6.266-6.21-13.637.4-16.562 8.48-3.748 16.41 4.388 12.06 12.375-1.22 2.237-2.3 2.727-1.5 4.656 15.53 36.19 92.01 46.705 107.5-4.063.53-2.9.23-5.581-1.09-7.781-3.64-6.063.99-12.906 7-13.156zm-223.25 20.5c12.06.685 8.7 11.056 6.28 11.844zm447.94 6.469c.08.195-7.44 13.437-7.44 13.437-3.98-6.358-2.95-14.273 7.44-13.437zm-40.78 66.906s-7.71 17.037-10.25 18.469c-142.89-36.6-342.26-4.776-347.16-1.25l-8.78-16.532c125.28-25.028 250.2-19.682 366.19-.687zm-864.57-5.781c-4.42.053-9.09 1.065-13.9 3.25-24.85 11.274-26.98 39.771-4.66 62.281 3.56 3.586 6.49 6.992 6.5 7.562.05 2.54-2.47 2.079-8.56-1.593-34.14-20.586-67.47 4.12-53.59 39.75 11.2 28.777 55.48 24.412 62.34-6.156.91-4.079 3.86-6.58 5.16-4.375 1.1 1.88-2.15 17.445-5.44 26.093-4.33 11.356-6.9 17.302-9.5 21.938-3.18 5.65-3.4 7.506-.94 8.094 3.54.846 42.24-.217 42.22-1.157-.01-.519-1.64-4.299-3.63-8.437-7.77-16.171-13.7-44.161-10.03-47.344 2.07-1.791 2.76-.878 5.56 7.406 13.85 40.954 65.33 31.075 64.35-12.344-.67-29.537-27.7-42.509-52.06-25-5.55 3.983-7.19 4.204-7.69 1.125-.21-1.228.76-2.645 2.72-3.968 30.85-20.86 12.13-67.498-18.85-67.125zm623.19 258.969c-13.79 53.207-47.19 58.621-87.53 65.093-49.96 8.016-82.52-10.186-97.75-38 0 0-71.46 27-97.53 42.688 54.21 24.837 125.84 79.834 166.56 142.281 14.51 19.041 13.78 14.733 13.75 56.5-.06 90.575.16 124.25.16 124.25 22.37 3.351 23.59 18.733 22.37 36.01 17.96-7.929 35.23 1.773 35.16 18.715-.15 31.14-30.74 22.68-37.1 19.248 9.95 27.448-1.73 38.812-13.65 40.16-14.7 1.662-31.57-5.405-26.65-36.819-16.02 6.226-36.32-5.088-39.13-24.001l-.78-32.032c39.64-74.577-10.13-135.215-56.85-155.156 0 0 13.22-27.328 30.31-35 1.74-.524-10.36-18.275-30.71-14.406-9.37.193-7.19.129-16-11.313-17.42-22.618-25.63-24.168-42.6.031-7.47 10.653-9.25 10.943-18.09 11.125-9.74.201-24.68 7.192-27.88 13.438-.73 1.429 3.09 2.888 8.16 8.812 7.3 8.525 18.56 20.235 16.78 32.157-38.47 15.652-102.3 84.338-35.19 172.281l-48.53.625-2.31-313.063-33.75 18.782 1.5 245.218-9.62-3.187c.73-78.218-.45-156.383-2.91-234.563l-89 64.844 3.97 367.688 9.47 2c7.02 50.098 106.26 15.06 112.06 19.406l1.19 204.312-4.35 10.125 78.97 43.153 72.44-37.559s9.78-1.759 13.44-3.687c30.03-15.826 52.42-12.276 68.75 10.937 10.07 14.319 11.78 16.439 11.78 16.439 6.1-41.32 42.74-56.548 78.28-45.751 26.14 7.941 61.85 33.985 72.78 65.781 0 0 1.97 4.79 3.91 6.94l1.5.65c-.1-.82-1.73-4.79-2.35-6.71-36.65-84.179-139.94-97.089-155.87-28.32l-14.63-20.498 76.91-47.156 105.09 69.154s-4.94 24.31-5.5 34.82l1.81.84c.52-1.33 1.26-6.37 1.72-9.53 1.67-11.48 4.72-21.13 8.85-28.5 2.49-4.445 5.37-8.06 8.59-10.753 6.28-3.645 12.1-3.271 18.47-9.25l-15.34-11.468-.35-36.813 30.85 43.188c9.69-2.243 47.47-13.514 69.87-1.032 2.53.783 35.39-8.583 55.84 37.248l98.5-40.904s6.28-3.536 6.35-4.469c-98.22-36.241-197.39-164.56-187.85-166.625 0 0-.28-13.166.47-45.468.8-36.007.37-72.763.97-108.89-33.42-10.672-25.11-37.61-25.11-37.61-20.1 4.407-23.3.505-28.39-3.032l-3.47-34.093c12.05-10.252 19.28-11.206 34.19-7.938 0 0-7.23-14.812-.66-27 5.54-9.639 20.27-15.724 32.04-8.937 15.2 10.358 10.35 32.062 8.18 35.093 15.81-7.078 35.13.811 39.88 16.438 2.37-46.211 6.38-97.944 15.66-138.25 17.09-72.747 45.09-148.932 80.15-208.844 5.74-10.008 13.06-20.035 18.97-29.406 5.48-8.346 8.09-13.75 8.09-13.75s-7.5 4.13-15.43 6.344c-11.42 3.095-20.01 6.041-21.32 7.343-8.35 7.028-19.3 12.236-28.25 16.125-31.54 12.277-52.75-6.032-65.85-33.993-7.29 35.512-39.83 65.56-87.83 46.887-27.12-14.392-35.64-23.594-61-61.144-2.13-3.838-7.63-8.25-7.63-8.25zm1.05 5.803c17.94 35.479 44.81 60.617 70.92 70.666 46.63 15.284 77.39-14.567 86.06-41.991l9 15.236-70.6 50.121-106.53-67.72c1.78-1.633 11.31-25.493 11.15-26.312zm320.58 2.447-31.63 18.625s-21 33.893-28.06 46.656c-36.9 65.159-64.59 136.048-79.03 206.375-5.84 25.753-12.03 72.792-14.1 95.406-3.29 36.075-3.13 50.887-2.18 83.969l2.47 2.687s-3.88 6.801-6.66 12.532c-7.55 15.573-9.4 24.38-8.94 42.437 1.05 41.55 26.31 81.323 62 97.531 2.01.914 4.69 2.094 4.69 2.094s-6.12 16.54-17.22 28.188c-7.41 7.768-8.99 8.148-6.37 11.968 3.64 5.317 15.39 9.933 30 9.719 5.16-.076 5.13-.089 14.68 10.313 18.65 20.306 24.25 19.889 41.22-3.125 5.04-6.842 7.91-8.481 15.28-8.657 10.84-.258 30.62-9.005 30.53-13.093-13.34-5.909-28.8-36.367-26.34-36.688 72.97-38.606 88.43-118.627 35.14-177.469l50.89-.812 1.88 319.219c9.96-6.615 32.5-20.844 32.5-20.844l-.75-248.403c3.5.664 7.07 3.171 13.87 4.278l2 234.875s6.62-2.685 12.38-6.438c28.44-18.734 84.12-62.062 84.12-62.062l-1.9-361.969h-7.44l1.18 361.781-86.4 63.094-.56-224.844s6.82-1.018 9.37-1.375c25.29-3.538 37-35.786 20.22-56.843-5.96-7.475-1.73-6.946 10.94-9.375 22.46-1.981 34.91-18.961 28.37-31.063-2.8-5.191.85-4.63 3.22-9.562 1.56-3.879 1.27-8.69.6-12.5-.89-5.001 1.17-7.215 2.43-10.407 1.99-5 .06-10.648-3.25-15.343-3.49-4.956-2.53-10.275-2.56-13.563-.15-7.351-2.81-8.401-10.59-15.5-5.89-5.371-1.17-6.542 7.5-11 13.62-7.014 14.56-31.835-3.57-42.406-9.69-5.651-27.32-5.19-65.53.844-14.48 2.287-31.5 3.812-31.5 3.812s-.12-141.521-1.12-214.469zm0 5s77.58 45.385 76.97 46.656c-26.06 35.684-123.24 177.875-123.94 349.812-71.27-8.943-100.45 46.774-103.91 46.563-9.36-210.457 76.05-361.031 119.81-424.938zm-48.94 27.687-.25 5.156-15.38 22.969-.4-22.969zm-23.75 8 .56 37-31.5 24.063-1.84-38.594zm-291.97 8.469 16.19 11.187-.56 36.719-24.38-44.344zm443.13 12.375.12 26.562c-62.11 87.602-94.69 187.659-104.66 314.375l-15.12-.5c4-126.004 46.42-240.972 119.66-340.437zm-420.63 2.719 38.31 25.031-1.65 41.875-34.79-22.313-3.24-8.562zm231.94 1.781-.16 38.937-29.59 21.969-1.38-38.656zm-358.69 10.187c4.39.053 7.9 3.25 8.72 9.313 3.25 25.879 22.94 18.409 27.62 26.187 1.77 2.654-2.42 4.959-15.9 3.875-24.71-1.848-42.73-21.835-30.1-35 3.25-2.983 6.66-4.411 9.66-4.375zm170.78 16.688 32.72 20.844-.09 43-32.07-19.563zm149.28.125 2.53 38.031-35.81 23.813-1.28-37.782zm68.16.156-20.56 43.781-119.97 86.313-99.57-64.469-18.46-42.25 116.15 75.781zm-323.53 17.375c31.88-.391 56.34 33.446 64.72 63.094 6.08 19.603 7.01 26.659 7.65 57.781.66 31.703 1.65 37.177 7.6 41.656 3.66 2.759 4.72 2.014 5.18-3.593 1.04-12.458 15.93-4.782 16.19 8.343.29 14.578-15.76 19.262-27.62 8.063-6.32-5.963-6.4-5.906-8.38 5.812-1.31 7.85-10.46 56.991 12.91 69.219 4.4.416 5.45-3.112 2.18-7.219-6.55-8.237 6.55-17.744 17.22-12.5 12.91 6.339 11.6 27.138-2.18 34.532-15.77 8.459-36.17-1.155-45.69-21.532-6.99-14.958-6.96-35.697.12-66.5 3.27-14.196 4.71-23.237 5.44-34.125.24-3.574.67-7.466.94-8.656.76-3.318-.88-3.475-6.53-.625-15.43 7.779-32.26 2.25-36.41-11.969-4.96-17 13.99-34.564 25.69-23.812 4.44 4.081 3.9 8.134-1.41 10.75-9.2 4.531-6.05 16.453 3.72 14.094 32.23-9.645 2.76-100.083-33.53-106.344-24-4.14-42.83 23.192-25.47 37.812 6.8 5.728 13.71 2.654 12.22-5.437-2.07-11.287 12.92-10.068 18.47 1.5 9.02 18.823-14.27 34.144-36.03 23.719-39.05-23.189-12.36-73.352 23-74.063zm144.53 7.188 32.16 21.593.28 41.969-31.94-18.937zm70.84 3.625.16 38.531-31.03 22.562v-41zm83.6 25.25-15.88 44.218-100.16 68.5-82.62-51.812-14.22-40.906 97.34 63.062zm-650.04 3.218-.03 223.844c-32.45 1.381-51.08 33.481-26.78 63.813 0 0-4.23.57-9.19 1.25-21.95 3.01-36.66 14.647-33.74 28.75.89 4.32-.02 8.685-1.26 10.843-1.95 5.796-1.43 10.223 1.19 15.219 2.06 3.924 1.72 5.501.57 8.406-2.49 6.256-1.9 11.076 1.03 15.844 3.61 3.537 2.61 6.393 2.12 12.063-.58 8.006.86 11.227 5.91 14.343 6.5 4.017 8.93 10.604 1.53 10.063-3.67-.269-16.59 12.187-16.59 12.187l-1.22-359.218zm175.97 28.719c5.81-.015 11.79 7.281 20.38 19.594 5.19 8.818 5.28 7.622 17.15 7.156 12.13.884 19.52 4.087 22.69 7.75 1.2 1.387-1.98 1.749-9.65 9.531-7.96 8.071-9.06 11.28-14.35 20.313-1.9 3.257-6.05 3.564-8 .594-1.57-2.404 2.46-10.221 10-19.438 10.65-10.276 8.41-11.312-7.06-9.687-10.87 1.141-12.03.598-16.16-6-12.3-24.464-18.84-23.638-30.62.75-3.21 6.824-1.94 6.386-15.88 5.312-10.97-.846-13.69 1.923-7.5 7.688 9.67 7.937 13.44 26.665 12.91 26.437l-7.47.688s-2.28-4.218-3.28-6.875c-2.02-5.381-7.47-13.464-13.37-19.844-8.37-9.04-3.78-13.984 14.9-16 10.41-1.124 10.65-1.267 15.44-8.281 8.44-12.357 14.07-19.673 19.87-19.688zm454.32 22.281-10.79 38.188-85.43 59.906-69.5-46.375-9.22-35.906 79.84 50.562zm-294.57 30.25s24.7 48.109 33.66 79.282c7.8 27.118 18.63 105.636 15.78 110.468-6.07-8.33-26.13-6.451-26.4-6.375 1.69-9.198-5.74-27.737-22.85-31.406zm281.1 17.594-8.53 37.594-72.75 52.594-60.04-41-7.87-36.344 66.44 44.375zm-422.94 2.094 9.44 3.281 1.78 67.906 72.78 12.094 1.66 11.625-84.28-13.594c-.89-28.959-1.38-81.312-1.38-81.312zm-36.94 2.031 2.03 78.969c-.78-.263-60.67 8.273-83.59 14.281l1.34-10.812s41.63-9.054 71.78-12.532c0-22.082-.17-45.307-.21-67.812zm677.13 14.531s9.9.921 31.09-2.812c54.63-9.558 69.42-5.685 76.41 11.156 7.63 26.113-21 26.745-26.1 10.168-3.25-10.743-14.98-8.391-54.15.895-33.5 7.94-54.73 1.583-54.32-17.395.42-19.512 22.65-21.238 27.07-2.012zm-448.94-14.281c6.76-.098 12.34 5.308 12.44 12.063.1 6.754-5.31 12.308-12.07 12.406-6.75.098-12.3-5.277-12.4-12.031-.1-6.755 5.27-12.34 12.03-12.438zm-177.47 2.156 8.63 2.594s1.27 51.511 1.53 51.594c18.56 4.091 57.53 11.406 57.53 11.406l2.06 10.188c-16.31-3.83-68.31-12.344-68.31-12.344-1.62-22.339-1.44-63.438-1.44-63.438zm-62.97.969s.04 41.105-.65 63.188c.29-.194-44.13 7.071-66.69 11.75l1.75-8.25c17.84-4.028 37.26-8.069 56.9-12.188-.39-16.168-.37-51.625-.37-51.625zm31.72 8.844c5.42-.079 9.92 4.295 10 9.719.08 5.423-4.29 9.858-9.72 9.937-5.42.079-9.86-4.233-9.93-9.656-.08-5.424 4.23-9.921 9.65-10zm739.13 25.656c6.04 8.953 11.11 8.686 17.06 7.813-1.5.441-8.53 4.596-8.13 5.968.21.686-2.96 12.005 1.85 12.469 18.13 1.75 8.95 20.575 11.12 23.469 4.9 5.585 8.49 9.128 5.13 16.094-2.98 6.182-7.27 5.987-3.94 11.281 7.22 10.858-2.76 13.109-1.87 20.5.6 4.462 2.17 10.559.53 14.031-4.97 10.466-22.49 16.434-41.97 17.25-2.78.124-.67-4.412-1.97-7.281-4.82-3.045-2.18-8.175-.56-11.531 1.59-4.457 1.61-4.461-1.38-6.719-8.31-5.166-7.88-7.548-7.22-11.281 1.82-11.037.11-12.117-3.22-13.75-4.26-2.094-3.68-6.749-1.78-12.719 1.31-4.127.38-5.161-1.62-8.906-1.18-2.202-1.54-3.399-1.57-4.813.6-5.699-4.5-5.679-11.65-.094-6.06 10.445-8.14 24.153-11.94 32.813-2.93 6.652-3.4 13.601.09 28.937 6.72 23.441 1.73 27.349-24.65 22.344-19.84-4.88-25.7-26.052-20.19-51.969.89-4.192.65-8.245.25-11.531-2.16-17.841 2.45-34.977 14.91-46.687 20.78-19.545 31.06-22.523 74.03-19.782 16.81 1.19 18.09 2.25 18.09 2.25s.08-8.091.6-8.156zm-309.47 5.375-5 36.344-40.35 28.469c-18.99-14.999-33.66-10.002-47.03 6.062-10.59-5.369-31.75-20-31.75-20l-5.4-41.219 58.65 40.688zm-428.78 8.625c5.42-.079 9.86 4.264 9.93 9.688.08 5.423-4.23 9.89-9.65 9.968-5.43.079-9.92-4.232-10-9.656s4.29-9.921 9.72-10zm422.03 37.219-2.22 35-14.34 10.781-14.44-1.469-3.41-21.687zm-422.28.281c5.42-.079 9.92 4.295 10 9.719.07 5.423-4.3 9.858-9.72 9.937-5.43.079-9.86-4.232-9.94-9.656s4.23-9.921 9.66-10zm39.56 1.094c5.42-.079 9.86 4.232 9.94 9.656.07 5.424-4.24 9.89-9.66 9.969s-9.89-4.264-9.97-9.688c-.08-5.423 4.27-9.858 9.69-9.937zm-78.66 1.875c5.43-.079 9.89 4.264 9.97 9.687.08 5.424-4.23 9.89-9.65 9.969-5.43.079-9.93-4.264-10-9.687-.08-5.424 4.26-9.89 9.68-9.969zm730.6 1.594c2.76-.224 6.86 3.881 4.87 10.031-2.67 7.019-.79 9.405 3.66 15.094 3.76 4.812 3.1 5.48 2.53 8.562-.87 20.206 12.15 11.473 6.5 26.156-1.23 3.195.4 7.758.97 11.532-1.27-3.456-25.22-3.14-27.25.375-3.41-.509-7.73-23.003-4.28-25.969.44-.009 2.93 3.857 4.22 6.031 3.21 5.455 3.9 5.255 2.9-1.062-3.98-25.076-1.59-50.596 5.88-50.75zm-612.28 1.75c5.42-.079 9.89 4.263 9.96 9.687.08 5.424-4.26 9.859-9.68 9.938-5.43.078-9.86-4.233-9.94-9.657-.08-5.423 4.23-9.89 9.66-9.968zm-159.13 1.812c5.42-.079 9.86 4.264 9.94 9.688.08 5.423-4.24 9.858-9.66 9.937s-9.92-4.233-10-9.656c-.08-5.424 4.3-9.89 9.72-9.969zm385.25 2.844 29.44 19.094c.49 6.019-.29 14.636 1.68 17.562-19.21-1.791-28.93 9.156-28.93 9.156zm-302.12 15.781c32.22.235 63.44 5.372 92.43 14.75l-2.28 10.375c-58-14.928-122.83-15.715-184.78.688l-4.81-10.907c31.21-9.718 62.54-14.479 93-14.875 2.16-.028 4.29-.047 6.44-.031zm-182.19 14.094c8.44-.147 17.08 3 23.15 9.812 11.42 12.795 5.93 36.521-10.22 44.063-24.15 11.286-49.31-12.847-39.06-37.719 4.26-10.327 15.27-15.968 26.13-16.156zm597.84 3.031-.37 10.406-7.35-6.125zm-153.72.469c10.65-.155 19.41 8.381 19.57 19.031.15 10.65-8.35 19.408-19 19.563-10.65.154-19.41-8.35-19.57-19-.15-10.651 8.35-19.44 19-19.594zm-443.59.625c-2.6.037-6.91 1.097-8.88 2.906-5.14 4.743.03 4.878 6.82 6.125 12.05 2.215 15.37 12.597 14.28 23.813-1 10.192 2.43 10.034 5.18 6.25 11.24-15.403 1.65-37.85-17.4-39.094zm559.59 5.125c-.24.129-.53.312-.53.312.14.114.32-.03.53-.312zm-381.06 6.062c14.43-.298 15.94 23.429 3.19 49.938-3.84 7.969-5.79 6.977-10-5.063-10.37-29.678-8.12-44.566 6.81-44.875zm33.37.688c2.79-.141 5.48.921 7.69 3.437 7.76 8.843 1.79 23.156-18.87 45.188-5.03 5.356-7.63 7.399-9.47 7.437-5.17.107-5.15-.752.72-19.875 2.59-8.433 5.15-17.69 5.69-20.562 1.72-9.188 8.12-15.316 14.24-15.625zm-52.21 21.219c1.41 6.572 3.88 15.705 5.47 20.312 1.58 4.607 2.63 8.989 2.37 9.719-1.27 3.537-10.48-1.272-17.06-8.906-13.25-15.376-18.53-28.751-15.79-35.931 4.02-5.751 14.29-8.304 19.03-3.275 4.88 5.191 5.61 16.315 5.98 18.08zm91.28-15.313c13.96 8.233-2.12 27.03-33.41 42.625-13.38 6.673-12.43 3.667-2.28-9.5 3.88-5.039 9.09-13.24 11.62-18.25 5.62-11.075 11.24-22.155 24.07-14.875zm-139.38.063c4.43-.037 8.97 4.704 17.38 16.875 3.75 5.423 9.83 13.136 13.53 17.156 3.7 4.019 6.61 8.017 6.47 8.875-1.45 8.533-45-18.499-48.13-29.875-1.07-6.938 4.38-13.142 10.75-13.031zm623.31 24.75c7.86 16.151 8.53 26.192 2.04 29.843-9.23 5.189-21.11-2.724-21.35-14.218-.08-3.862-4.05-17.339-7.69-26.094-2.99-7.205-3.4-11.652-.94-12.009 9.63 1.541 23.88 14.89 27.94 22.478zm-52.12-12.25c-3.04 9.232-6.26 23.645-6.22 27.843.02 1.65-.99 5.028-2.19 7.5-7.97 16.419-26.84 3.029-19.9-14.125 6.26-15.465 22.18-31.564 28.46-32.097 4.29-.364.28 9.525-.15 10.879zm12.71-8.864c3.15-.31 5.79 6.566 9.85 18.145 5.5 15.64 5.27 27.839-.65 33.031-12.69 11.131-26.01-5.03-20.88-25.344 4.1-16.235 8.12-25.48 11.68-25.832zm-425.71 2.864c15.79 232.456-103.37 411.3-111.86 416.179l-40.55 22.173-71.13-38.747c73.71-101.064 117.77-216.899 121.1-351.418 68.19 6.62 103.26-47.945 102.44-48.187zm390.76.738c4.97-1.364 1.5 2.98-3.43 10.094-5.27 7.592-12.1 28.232-17.52 31.538-12.16 5.845-25.92-5.294-18.55-14.973 6.8-8.913 26.76-23.167 39.5-26.659zm72.33 1.574c1.91-.008 5.48 1.251 10.66 3.781 25.32 12.364 37.8 28.672 26.97 36.472-7.61 5.477-15.74 1.229-23.34-13.19-2.58-4.898-7.3-12.168-10.44-16.188-5.7-7.286-7.03-10.862-3.85-10.875zm142.35 8.281c16.27-.236 29.64 12.729 29.87 29 .24 16.271-12.76 29.67-29.03 29.907-16.27.236-29.64-12.792-29.87-29.063-.24-16.271 12.76-29.607 29.03-29.844zm-8.97 7.648c-19.14 8.481-13.38 38.541 3.12 42.884 6.97 1.95 15.45-.95 11.96-4.302-21.8-6.841-21.94-22.909-13.16-34.669 1.41-1.89-.48-4.549-1.92-3.913zm-797.51 41.346c-.74 16.988 2.94 36.689-5.18 55.131-12.3 28.344-51.8 41.297-72.9 38.782-4.4-1.806-9.52-3.517-13.86-1.678-2.62 1.113-5.85.971-8.65-.331-2.7-1.255-5.29.389-7.9-.554-3.06-2.066-8.06-6.758-7.47-10.25.95-4.923.57-8.572-5.19-10.187-7.98-2.239-9.6-6.551-7.25-19.188.51-2.73 1.12-3.966-.65-5.156-5.88-3.942-8.12-11.23-4.25-18.906 2.51-4.423 4.46-7.548-.07-11.063-1.78-4.045-1.47-5.583 2.38-10.75 4.1-4.904 4.82-5.465 2.19-9.656-5.92-9.42.78-16.37 8.75-20.25 10.67-4.376 19.99-6.635 31.25-7.938 4.19.236 4.01 3.919 6.53 7.469 3.71 5.766-1.52 14.106 1.5 17.063 4.36 2.012 6.34 6.032 6 9.468-.15 8.005.33 10.743 2.5 14.094 2.4 3.711 3.3 10.527 1.06 15.161-2 4.124-1.78 3.844.84 6.277 2.6 2.407 3.88 14.474 2.96 14.244l10.95-1.003c-1.15 1.218 4.11-22.565 16.6-40.952-.69-14.405-6.18-27.651-5.69-46.674 27.05-9.685 46.58 13.312 45.55 36.847zm420.16-32.369c3.91 3.067 23.3 8.462 24 7.844-.6 9.283 5.05 27.318 25.26 33.344.24 25.874.03 145.344.03 145.344-28.15-47.162-45.59-108.045-49.29-186.532zm-470.81 4.219s1.08 3.442 2.07 10.094c1.72 13.59-.14 15.445-3.76 6.156-4.23-10.878-4.45-2.403.32 22.5 1.15 6.031 1.11 7.431-.38 11.5-.92 2.55-2.58 8.478-3.87 13.125-3.81 13.671-6.03 17.6-9.94 6.719-1.99-5.548-3.66-6.413-2.24-10.757 1.78-5.438 1.35-9.514-2.23-14.806-.58-.864-1.87-2.846-2.09-8.468 1.1-12.625-4.52-12.744-5.63-16.007.19-4.939-2.11-16.909 1.28-16.587 2.8.265 12.93.545 17.72-1.219 2.13-.782 8.75-2.25 8.75-2.25zm419.57 1.563c10.45-.152 19.03 8.203 19.18 18.656s-8.2 19.035-18.65 19.187c-10.46.152-19.07-8.172-19.22-18.625s8.23-19.067 18.69-19.218zm-292.26 11.531 14.35 2.719c3.19 1.065.87 198.83-113.94 341.562l-1-33.062c54.63-79.062 93.97-176.023 100.59-311.219zm243.22 4.156 2.63 47.25c-8.08-6.868-28.59-19.725-28.44-20l.09-17.469c.02.037 17.64 1.351 25.72-9.781zm-110.56.656c3.46 1.456 6.48 4.803 9.44 7.219l-9.38 6.313zm328.63 2.375c61.93 18.369 122.91 17.838 183.21 4.407l4.13 11.562c-65.43 17.736-130.45 16.712-195.06-3.906zm-299.94 8.844 3.31 20.375-34.95 22.622 1.7-30.934 18.22-11.813zm309.41 16.969c5.64-.082 10.29 4.445 10.37 10.094.08 5.648-4.45 10.293-10.09 10.375-5.65.082-10.26-4.446-10.35-10.094-.08-5.648 4.42-10.293 10.07-10.375zm159.12.844c5.65-.082 10.29 4.445 10.38 10.093.08 5.648-4.45 10.293-10.1 10.375s-10.26-4.445-10.34-10.093c-.08-5.649 4.41-10.293 10.06-10.375zm-298.03 31.788c4.58 16.144 3.58 52.623-2.31 77.368-1.77 7.43-2.85 33.805-2.85 33.805-1.09 1.38 35.08-29.935 46.71 11.131 4 14.12-12.25 27.506-23.13 23.589-2.12-.764-1.48-7.756.55-11.869 6.03-12.28-11.17-18.664-20.97-7.781-22.65 25.147.65 88.815 36.15 95 29.48 5.134 53.11-24.204 33.44-41.688-8.6-7.645-22.36 2.893-16.06 12.625 6.73 10.398-5.66 14.545-15.03 4.907-16.34-16.807 2-42.104 26.69-36.25 39.45 8.971 31.33 70.652-10.04 74.125-31.63 2.655-52.93-11.126-66.31-35.563-12.57-23.482-13.5-42.197-7.75-83.375 3.42-24.447.61-45.047-6.18-44.906-3.73.077-6.64 1.872-7.22 6.25-1.21 8.955-2.24 10.628-7.85 7.375-7.12-4.131-11.08-17.435.57-26.438 11.94-9.229 27.41 5.174 26.78 7.657.28-.457 1.49-2.798 3.09-13.282 5.22-34.11-6.37-70.149-20.69-64.375-3.14 1.267-2.76 2.689 1.35 5 9.53 5.364 1.13 19.109-10.85 17.719-16.96-1.969-20.81-25.629-5.87-36.094 23.53-12.687 42.7 7.178 47.78 25.07zm-115.78-28.413s30.08 18.349 31.69 23.062c1.02 3.022 2.24 29.344 2.24 29.344l-52.21-32.688-74.87 46.282c1.23-10.159 6.62-36.313 6.62-36.313l39.81-25.187c.2 1.516 27.54 19.563 46.72-4.5zm373.84 1.75c5.65-.082 10.29 4.445 10.38 10.093.08 5.648-4.42 10.293-10.07 10.375-5.64.082-10.29-4.414-10.37-10.062s4.42-10.324 10.06-10.406zm-79.69.156c5.65-.082 10.33 4.414 10.41 10.062s-4.48 10.325-10.13 10.407c-5.64.082-10.26-4.446-10.34-10.094s4.42-10.293 10.06-10.375zm40.07 2.312c5.64-.082 10.32 4.446 10.4 10.094.09 5.648-4.44 10.293-10.09 10.375s-10.29-4.446-10.38-10.094c-.08-5.648 4.42-10.293 10.07-10.375zm-100.32 14.5c27.11 5.642 54.29 11.44 80.29 14.282l1.06 79.781-7.6-.438-1.09-71.281c-25.11-1.797-48.79-7.186-71.03-12.937zm201.6 2.594-1.41 9.375s-46.9 8.119-71.4 11.281c-.4 16.06-.35 69.719-.35 69.719l-9.37 1.719-.04-81.219c27.82-3.024 55.6-6.151 82.57-10.875zm-453.88 4.5 55.22 36.5 6.5 38.688-64.37-42.782s-58.36 39.279-80.19 53.844l6.65-36.469zm254.91 7.219c22.23 4.703 44.46 9.592 66.69 11.5l.93 64.187-10.22-2.718-.81-52.094c-17.36-1.504-35.19-4.867-53.12-8.656zm196.66 1.906-1.88 8.719s-35.58 5.363-53.94 8.656c-1.62.373-1.03 56.5-1.03 56.5l-8.78 1.344-1.03-65.531zm-99.66 7.188c5.65-.082 10.26 4.445 10.34 10.093.09 5.648-4.41 10.293-10.06 10.375s-10.29-4.414-10.38-10.062c-.08-5.648 4.45-10.324 10.1-10.406zm-352.75 23.156 65.28 44.062s7.57 22.948 9.19 35.657l-75.13-48.5-94 62.312 10.88-38.5zm-395.69 1.344c3.87.052 7.74 2.642 9.75 8.593 2.84 8.377 8.12 10.851 22.03 10.594 27.31-1.457 55.94-14.29 81.72-4.656 12.53 4.615 16.99 23.094 6.5 27.906-11.39 5.222-16.24 1.941-20.19-7-3.64-3.801-8.18-3.206-32.65 1-10.8 1.751-23.49 3.324-34.16 4.188-27.28 2.205-42.35-6.392-45.75-22.625-2.17-10.38 6.3-18.087 12.75-18zm747.88 14.906c5.64-.082 10.29 4.414 10.37 10.062s-4.44 10.324-10.09 10.407c-5.65.082-10.29-4.446-10.38-10.094-.08-5.648 4.45-10.293 10.1-10.375zm-200 12.469c7.34-.107 13.39 5.778 13.5 13.125.1 7.346-5.78 13.393-13.13 13.5-7.34.106-13.36-5.779-13.47-13.125-.1-7.347 5.75-13.394 13.1-13.5zm-152.1 9.312s53.73 35.891 78.6 52.469l13.75 39.5-91.5-59.5-111.97 72.841 13.44-40.622zm387.88 12.344c4.87 13.125 13.71 23.125 23.06 33.281 0 0-5.21 9.865-23.78 9.281-10.15-.319-10.69 1.274-14.16 8.157-5.69 8.72-10.32 14.417-14 17.25-6.5 5.008-18.7-2.475-28.75-17.688-3.66-5.543-5.18-6.853-16.22-6.625-16.95.35-23.08-4.351-14.28-11.969 7.68-9.353 13.2-19.637 20.07-29.468l7.62.875c.32 1.131-5.93 20.014-14.72 27.687-4.46 5.037 1.79 6.864 12.69 4.563 6.91-2.083 8.69-1.266 13.81 9.312 10.67 20.178 16.22 19.204 28.88-1.25 4.42-9.13 4.25-10.036 16.4-7.406 13.05 1.313 16.99-.325 11.63-4.875-10.84-9.195-16.81-30.875-16.81-30.875zm-387.41 27.031s97.16 63.635 96.91 62.25l19.47 45.875-114.03-75.844-139.32 90.594 20.85-45.406zm3.75 41.781 33.88 22.282-.1 40.093-34.59-23.25zm-8.69 1.157.63 39.562-30.38 18.094-1.68-37.125zm-38.53 25.5-.28 1.531.72.375.25.031 1.09 35.656-34.93 24.219.12-40.281zm89.47.437 31.85 21.25 1.31 42.438-34.57-22.625zm39.31 25.906 31.94 22.188 1.13 42.375-32.63-21.969zm-169.03.157-.15 39.156-31.78 22.187-1.5-40zm336.13 50.531c-6.31 6.574-8.64 5.759-14.03-5.094-5.61-11.261-14.01-16.525-26.19-16.312-15.37.267-5.32-9.808 10.97-11 28.16-1.241 42.45 17.655 29.25 32.406zm-376.72-22.969.84 39.281-31.62 16.438-.97-18.625 16.28-28.469zm-40.78 52.5 1.09 7.156-5.84 2.25zm545.31 98.375c-.08-.01-.12.02-.13.12h.38c-.1-.06-.19-.11-.25-.12zm.25.12c4.08 2.7 40.46 55.44 43 112.44 1.41 15.1-5.12 17.98-8.38 3.63-5.29-23.36-19.97-43.79-39.03-54.41-96.28-35.68-137.4 85.15-73.93 134 22.59 16.35 66.15 14.5 81.46-8.09 4.77-7.03 9.58-6.34 10.19-1.91.3 2.21-.8 3.73-6.69 9-23.8 21.36-38.02 51.58-30.46 73.69 10.02 29.35 37.42 49.67 69.03 54.31 33.91 4.98 69.17-18.89 79.56-49.9 9.53-28.44 1.14-52.43-25.25-76.38-12.41-11.26-13.04-12.16-10.47-14.84 2.5-2.61 4.13-1.97 10.28 3.96 18.97 18.32 54.33 28.18 77.63 17.41 37.3-17.23 53.34-75.32 27.81-113.34-15.44-30.92-57.53-42.43-92.72-25.35-18.74 9.1-35.24 30.37-40.15 51.69-2.21 9.59-7.72 11.32-8.54 2.69 2.59-34.69 7.47-57.4 45.54-118.5zm320.44 59.54s13.87 28.64 15.94 43.72c1.52 11.09 1.74 15.59-1.29 15.65-.96.03-3.36-5.34-4.28-9.53-7.44-34.35-57.33-33.81-64.56.53-7.35 34.9 24.22 59.63 51.78 37.91 11.33-7.79 11.88-4.21.66 7.15-21.61 21.63-12.09 51.88 15.09 59.94 36.96 10.96 59.7-34.09 28.34-62.72-4-4.13-7.63-8.22-7.65-9.09-.05-2.2 2.69-2.38 4.84-.1 17.99 18.88 54.23 13.05 59.78-11.15 10.43-45.39-48.18-64.78-64.31-24.22-3.94 10.11-3.34 11.51-5.37 9.56-1.14-1.09-.82-5.28.43-10.97 2.54-11.49 18.94-46.34 18.94-46.34zm-485.41 125.09c-133.09 28.47-260.68 18.41-352.25 1.47l-41.84 71.5-2.88-.13-10.78 18.5 1.16 2.13s-34.77 66.71-49.41 87.75c171.04-1.65 546.47-2.47 546.47-2.47l-22.88-46 1.26-1.25-22.6-48.03-7.34-8.31s-4.49-8.68-7.85-18c-3.08-8.58-16.34-32.07-16.34-32.07l-1.87.16zm-347.44 10.06c1.77 1.4 170.48 33.19 345.35.53l9.56 16c-153.05 35.23-374.49 1.58-365.75-1.68zm2.91 31.47c15.43-.55 31.06 7.74 41.59 21.56 3.36 4.4 8.85 17.38 8.85 17.38s7.38-12.23 14.62-18.34c10.96-9.26 25.16-16.99 45.72-16.26 18.93.68 39.76 10.92 58.56 40.54 4.75-17.09 66.94-75.14 118.16-2.75 5.86-19.24 33.27-57.66 77.66-30.82 3.03 6.49 6.15 13.63 6.15 13.63-26.19-18.35-69.38-6.04-79.59 22.59-.92 3.49.24 5.3 1.59 8.69 13.5 19.29-21.62 18.83-11.22 3.22 1.95-3.55 2.11-6.47-1-11.13-8.23-12.34-33.02-27.7-51.21-27.31-21.01.46-44.29 14.4-52.07 27.06-2.87 4.68-3.52 9.36-1 13.44 1.83 4.12 1.21 7.57-1.87 10.1-7.24 5.93-16.33-.92-12.85-9.69 2.29-3.87 1.94-8.61-2.75-15.19-9.41-13.22-31.38-27.14-50.5-26.75-27.36.63-55 20.34-53.25 36.56.77 7.13-1.18 9.79-7 8.97-7.07-1-7.88-7.68-2.87-13.12.74-1.75 1.94-5.98-.34-9.07-28.9-39.07-72.16-27.68-82.07-18.93 9.63-16.51 23.08-23.89 36.69-24.38zm-25.72 27.13c10.84.09 22.52 8.28 26.22 14.68 2.68-2.77 27.2-14.47 39.12 2.25-31.21-2.35-31.6 30.78-8.53 33.97-10.52 31.96 36.65 33.9 33.66 3.88 35.24 5.21 30.89-39.47-2.28-34.75 17.38-12.66 29.21-8.57 50.09 5.94 7.02-9.15 35.66-17.69 42.69-1.72-32.82-2.03-27.23 35.98-2.72 36.31-7.28 26.34 40.94 36.03 33.5-3.31 30.61 2.14 26.17-39.2-3.15-35.78 2.17-7.53 31.94-10.78 45.09 3.59 12.09-11.03 25.43-18.59 49.53-2.81-32.86-5.48-33.27 37.18-2.75 34.62-2.85 28.25 40.3 28.73 33.09-3.9 32.86-8.87 14.79-44.03-9.34-34.35 10.74-12.77 28.98-6.75 36.22-4.15 22.36-25.6 41.84-4.19 41.84-4.19-38.91-4.07-30.45 51.4 7.47 31.28-.04 11.41 4.86 21.29 20.35 22.91l18.4 38.09-521.59 3.44 28.78-50.62c2.91.92 19.55 2.43 23.12-17.07 34.28 10.87 36.58-29.04 10.97-35.34 3.1-2.15 6.61-3 10.22-2.97zm807.53 4.71v19.35h15.28l43.53 97.69-41.68 68.22h-16.06v17.31h60.81v-17.31h-20.25l55.75-80.44v80.44h-16.75v17.31h55.53v-16.88h-18.25v-166.34h18.25v-19.35h-55.53v19.35h16.75v49.12l-23.69 30.5-35.5-79.62h23.69v-19.35zm-827.87 9.72c3.41 5.48.55 9.05-5.32 9.19 0 0 3.82-5.54 5.32-9.19zm429.09 7.07 3.38 7.09c-3.66-1.48-4.1-3.05-3.38-7.09z" transform="matrix(.150867 0 0 .150867 -560.968 67.864)"/></g></svg>