<svg clip-rule="evenodd" fill-rule="evenodd" viewBox="0 0 228 316" xmlns="http://www.w3.org/2000/svg"><path d="m7597.3-2424.37c0-5.87-4.76-10.63-10.63-10.63h-201.97c-5.87 0-10.63 4.76-10.63 10.63v290.55c0 5.87 4.76 10.63 10.63 10.63h201.97c5.87 0 10.63-4.76 10.63-10.63z" fill="#fff" stroke="#bfbfbf" transform="translate(-7372.018 2437.059)"/><g fill-rule="nonzero"><path d="m1122 32.375c.55 512.28 6 1141.835 6.38 1699.785l1059.93-.25-7.06-1697.066zm313.31 10.875c182.87 4.963 366.87-.404 551.1 1.031 0 0-66.94 116.587-87.22 153.282-4.44 8.069-4.9 13.778-2.5 17.125 3.7 5.177 3.4 13.934-.75 19-1.78 2.169-2.59 3.575-2.72 4.875-.13 1.296 1.03 2.716 1.97 5.062 3.27 11.177-5.18 18.912-14.03 22.5-5.94 2.406-19.16 3.994-28.91 3.531-61.13-2.901-181.03-54.566-230.44-58.593-34.28-9.572-78.58-6.225-115.09-4.157-6.89.415-5.69-15.656-5.69-15.656-5.75-53.076-43.35-99.286-65.72-148zm561.03 4.844 172.82.187.78 27.907-72.72 74.531c-6.85 6.97-12.25 12.75-12.25 12.75l-.44 67.25c-49.57-26.635-59.45-58.462-68.5-93.469-82.86 61.132-86.74 194.911 3.72 263.781.74-29.916 23.54-88.7 63.94-93.062l.56 233.031-49.69-48.531-108.03 1.406c17.81-28.898 18.21-51.849 6.69-78.937-19.42-44.256-49.39-145.277-47.1-144.938 0 0 .87-2.172 3.32-2.719 8.95-1.996 14.65-10.64 12.09-21.031-.48-3.346-.47-2.56 1.81-6.906 8.79-14.999-1.68-31.281-1.68-31.281zm-573.15 1.406 64.84 117.219s-.84 5.375-.5 8.531c.51 4.54 2.03 8.58 4.63 12.813 1.72 2.799 2.98 6.624 3.37 10.156.64 5.818.64 5.822 9.16 13.5 1.79 1.613 2.13 2.606 1.47 4.281-2.82 7.121-1.17 21.679 4.4 39.063 7.04 21.954 8.86 21.667-4.25 51.031-2.73 6.133-6.04 14.317-9.59 21.844-16.18 33.237-18.68 42.251 9.09 59.968 7.82 4.988 10.11 9.315 8.16 19.25-1.54 7.817-1.85 12.812 1.91 17.219 2.43 2.857 4.64 3.327 4.03 5.531-.42 1.5-2.24 8.002-1.63 13.469 1.64 14.73-15.38 36.428-30.9 44.031-3.11 2.203-4-.486-5.76-3.562-16.08-28.168-56.12-16.754-58.78 16.844-.7 8.883-.42 12.736-2.72 14.625-.77.64-3.12 1.968-3.12 1.968s-59.92 38.969-98.03 59c-2.49 1.306-4.72 3.46-6.47 3.813-2.02.407-3.53.042-4.78-1.219-14.07-26.756-6.27-58.36-5.06-69.562-.31-3.969-3.7-4.691-8.82-4.75-8.66-.102-21.13 8.686-23.84 16.875-2.31 6.961-3.78 11.468-5.88 11.437s-3.12-2.839-8.34-12.875c-10.86-20.882-12.53-23.528-22.69-35.656-8.09-9.674-15-10.957-22.93-3.75-5.52 5.01-5.34.656-10.04-1.875-8.1-5.518-20.29-.579-20.59 7.187-.25 6.516-.31 11.414-6.91 11.844-7.34.479-10.53 9.968-8.46 23.5 1.09 7.122 1.3 8.266-.88 10.875-7.11 8.513-8.03 14.394-4.12 26.281 11.14 33.882 27.29 56.69 42.46 87.5 0 0-38.55 21.878-61.43 34.594l-.6-630.406zm749.22 33.5.9 547.625-82.75-81.344s-1.61-104.94-1.53-147.843c.08-42.904.71-85.803.53-93.782-.17-7.978.43-41.928.69-76.781.54-73.017-6.14-63.991 7.44-78zm-161.72 65.656 4.56 13.219c-34.68 19.879-77.1 130.59.78 211.875l-1.56 16.75c-81.63-74.044-66.53-180.231-3.78-241.844zm5.93 15.625c11.91 24.562 25.45 46.31 43.91 59.625-9.94 23.732-14.22 49.913 2.63 85.219-11.82 6.483-28.23 23.688-45.22 58.938-61.46-62.085-47.78-152.098-1.32-203.782zm-457.21 46.407c34.08.056 69.63 5.616 102.21 15.437 20.56 103.9 56.66 173.754 56.5 214.438 0 0-2.84-.478-8.9-4.844-14.85-10.719-34.34-4.738-44.78 8.906-9.9 12.934.07 30.924-5 38.469-9.6 14.067-34.3 40.079-38.44 39.219-3.01-.626-2.52-1.942 8.06-18.188 11.03-16.92 19.49-32.253 15.85-36-1.55-1.59-2.37 1.77-10.6 16.063-19.31 33.547-36.3 54.289-43.03 51.593-3.15-1.262-1.52-4.042 12.78-22.937 16.16-21.34 20.64-34.689 19.03-40.594-1.23-4.538-3.73 2.796-10.43 15.906-7.15 13.876-20.06 29.339-30.5 44.188-3.31 5.374-7.56 8.486-13 10.937-4.04 1.748-10.46 4.603-14.19 4.125-1.92-.245-.6-1.372 2.03-3.937 20.61-21.22 38.32-44.881 48.38-67.594 1.55-2.979-.68-7.22-3.22-4.094-15.42 27.129-36.88 60.974-60.19 75.907-5 3.199-12.53 5.914-19.31 5.343-11.48-.329-7.42-2.882 3.03-9.593 22.36-14.367 53.74-55.672 58.81-70.282 1.2-3.453-.14-5.426-2.34-5.187-18.4 29.435-42.71 61.824-70.97 75.375-15.23 7.304-34.43 8.743-43.88 4.125-6.92-3.384-5.18-4.549 7.1-5.344 29.54-2.914 64.16-30.65 81.31-60 10.04-16.25 2.99-12.518-8.47 3.156-19.57 26.754-58.41 52.403-82.5 50.375-24.36-1.442-38.38-20.32-35.25-36.5 1.89-9.789 8.85-19.766 22.47-22.625 23.33-4.897 38.6 32.062 17.25 39.032-7.27 2.373-10.04.573-7.41-2.344 15.84-6.932 8.8-25.962-4.56-27.906-8.41-1.224-18.15 4.437-18.56 17.468.24 9.714 8.24 19.211 24.28 19.438 19.02.268 48.2-13.421 65.91-38.625 12.56-19.263.99-12.76-8.38.093-8.27 11.342-34.96 27.207-37 26.625l.91-13.062c.4 2.257 41.1-25.607 38.71-46.344-1.52-15.052.68-19.656 16.35-19.469 11.71.141 26.61 4.25 30.94 9.625 4.46 5.318 9.46 6.996 7.25-1.968-3.59-14.549.71-16.948-7.72-14.188-5.82 1.905-10.98-2.765-16.82-6.906-6.41-4.555-14.53-6.504-24.21-6.156-7.24.26-10.5-.176-9.35-7 .82-4.814 1.74-9.189.35-12.344-2.27-5.13-11.33-10.43-21.57-17.969-12.08-8.901-9.84-9.425 15.91-68.781 10.81-24.922 10.86-30.037 4.37-48.438-10.24-29.076-11.85-40.72 7.35-44.781 10.87-1.247 22.08-1.862 33.44-1.844zm109.03 16.843 9.97 2.844c.07.009 31.12 106.271 48.9 158.156 5.43 15.83 9.56 37.22 10.6 57.313-.49 27.664-16.07 47.516-35.07 49.687-13.45 1.538-28.04-5.439-34.72-20.406-5.63-14.233-1.38-31.021 14.85-36.812 28.1-10.027 48.68 25.834 21.12 36.875-14.25 5.71-27.79-4.582-21.37-16.563 4.5-8.399 17.16-7.488 20.16 1.188 2.44 9.234 6.47 4.878 4.74-1.375-5.22-19.922-30.82-15.229-32.87 3.125 0 22.739 24.9 28.081 39.75 15.312 11.51-10.207 12.72-28.652 9.84-44.656-3.95-33.243-22.76-76.358-36.12-125.563-6.67-24.569-16.33-53.861-19.78-79.125zm396.65 1.188 18.72 7.406-.43 61.688-15.88 5.468c-20.77-31.739-3.5-74.534-2.41-74.562zm-379.4 4 13.72 5.281c7.51 43.544 42.93 126.783 55.43 188.906 3.49 37.338 4.04 48.295-21.25 68.188v-.281h-13.68s-.05-.836 5.93-5.313c33.13-24.771 13.36-79.358.85-121.312-21.8-67.004-41.27-135.553-41-135.469zm-128.22 4.344c-1.74.02-3.5.091-5.28.187-20.69 1.111-24.09 2.437-24.16 6.938-.12 8.475 3.35 12.236 22.59 10.156 16.66-1.8 40.79.784 57.41 7.937 18.97 8.16 23.47 10.085 30.28 13.594 17.11 8.808 14.12.045-1.34-10.125-31.59-20.776-53.43-29.001-79.5-28.687zm149.28 3 12.87 4.906s3.41 10.037 4.63 15.781c12.53 55.587 46.61 118.101 50.59 183.125.9 21.309-2.75 41.174-18.37 50.781h-11.78c12.59-12.527 20.99-16.145 17.47-59.687-5.58-55.921-42.47-125.796-55.41-194.906zm22.84 9.031 11.88 4.375c13.67 75.066 81.47 187.226 38.31 241.344h-10.78c9.63-15.017 13.6-28.206 12.16-48.469-4.2-68.209-38.99-134.406-51.57-197.25zm19.91 6.906 12.78 3.906c17.35 76.055 84.04 200.688 36.5 235.157l-9.37-.25c35.81-66.95-18.48-136.23-39.91-238.813zm22.28 7.094c3.93 2.183 9.54 3.228 13.81 4.469 13.45 57.507 38.04 114.063 49.22 167.625 3.77 29.324-2.67 51.282-21.09 59.625h-3.94c16.54-24.961 13.42-56.446 4.6-90.469-11.87-45.756-34.92-96.096-42.6-141.25zm-201.37 1c-5.94-.056-12.15.845-18.72 2.937-6.73 2.543-5.9 7.847.34 6.75 2.12-.371 5.86-1.036 8.35-1.468 15.33-2.674 34.22 2.852 57.12 16.718 5.53 3.349 11.54 6.575 13.03 7.688 4.21 3.138 8.7 3.126 7.16-.875-.62-1.602-9.45-8.442-17.25-12.813-16.7-10.093-32.22-18.769-50.03-18.937zm223.09 5 12.88 1.969c24.21 111.296 77.37 180.452 31.9 221.75h-11.37c12.44-12.709 18.06-32.606 13.93-56.125-4.21-24.008-16.61-62.116-26.9-95.625-11.93-38.847-21.53-71.696-20.44-71.969zm18.47 3.125 10.91 2.031c12.77 45.24 34.47 101.321 47.53 148.031 8.03 28.726 4.8 64.107-13.13 70.625l-9.22.157c15.22-20.334 17.39-41.516 10.44-68.907-14.27-56.222-35.87-105.287-46.53-151.937zm67.31.062c11.02 46.9 37.47 118.451 46.97 143.157 12.64 25.229 8.85 62.588-10.16 77.375l-9 .187c10.88-10.166 14.61-27.285 12.88-45.031-4.89-50.15-40.39-119.704-53.25-173.125zm-47.84 2.219 11.25 1.031c11.26 49.057 33.18 96.744 47.4 145.813 2.65 11.075 4.96 24.604 4.03 34.562-1.94 20.878-10.59 37.344-18.18 37.344h-7.75c15.83-18.861 15.05-44.577 8.28-72.219-11.2-45.684-38.28-100.765-45.03-146.531zm-292.91.25c-4.69.024-4.77 4.316 2.72 10.875 4.58 4.013 4.23 2.674 3.97 5.219-1.11 10.865.59 20.81 5.06 9.625 1.19-2.987 2.94-6.356 4.69-5.938 3.3 1.019 1.62 7.087 3.22 10.157 2.69 5.412-.17 6.737-6.72 5.062-4.71-1.205-4.98 1.347-7.91 4.594-5.12 5.685-4.28 9.079 3.6 7.312 1.3-.291 2.4.081 3.4.313 2.46.565 4.71 2.124 10.56 6.594 7.53 5.741 18.19 13.393 25.1 14.562 11.07 1.873 8.6-3.431-.47-6.906-7.77-2.977-17.41-11.244-17.37-13.531.02-1.758 2.46-.715 16.46-4.563 6.08-1.669 14.62-5.404 18.22-7.062 5.95-2.738 6.23-2.716 15.53-2.438 15.85.473 18.27-.068 7.16-8.312-22.46-16.662-52.42-27.507-68.31-20.594-4.82 2.096-4.71.811-8.19-1.188-4.55-2.612-8.26-3.794-10.72-3.781zm321.44 1.5c15.57 59.962 45.67 113.686 53 170.563 1.66 16.268-1.07 32.162-14.59 45.906l-9.13.156c-1.34.022 12.74-21.745 11.53-40.375.37-9.939-.73-20.6-3.56-31.125-17.69-50.567-35.1-96.398-48.63-144.594zm-281.09 19.688c.08-.011.16-.013.24 0 4.25.666 4.4 2.354 3.16 4.562-1.83 3.273-5.06 9.563-5.06 9.563s-4.31.845-5.19-.25c-1.55-2.253 4.13-13.544 6.85-13.875zm10.78 1.937c.47-.007 1.05.234 1.96.594 4.08 1.61 11.16 4.914 8.1 7.469-3.62 3.026-17.65 4.386-16.97 3.125l4.69-8.657c.99-1.839 1.43-2.519 2.22-2.531zm-42.97 52.406c-.36.021-.67.108-.91.25-.81.487 1.03 3.746 3.72 7.438 12.41 16.747-4.77 21.714-16.94 12.75-11.55-8.982-29.38-8.136-26.81 1.281.91 3.32.02 4.936 6.47 5.031 5.73.085 7.21.404 12.37 3.938 19.76 13.512 45.29-4.576 32.82-23.969-2.36-3.661-8.18-6.863-10.72-6.719zm48.75 26.157c-7.18 0-11.7 5.35-2.72 6.952 32.09 5.762 10.57 39.035-12.06 21.891-20.4-18.409-47.68-18.281-48-5.218-.05 3.287.1 3.399 4.93 4.312 11.37 2.147 28.35 7.317 34.85 10.594 3.82 1.926 7.84 3.727 8.94 4 13.59 4.939 31.02-1.48 34.47-12.927 3.16-10.477.6-29.604-20.41-29.604zm-402.53 107.062c4.29.051 8.86 3.81 12.12 9.313 7.53 12.714 16.69 34.092 22.53 45.875 1.48 2.97 1.53 5.62 1.44 7.031.46 6.907 2.78 9.516 6.88 6.406 4.03-3.059 9.62-8.178 3.06-9-6.6-4.971-10.28-12.273-6.19-16.719 3.01-3.272 1.83-5.398-.59-5.531-9.25-.136-23.03-27.638-16.54-33.562 8.77-7.994 18.47 1.907 39.1 42.843 9.09 18.079 9.51 37.864 1.72 28.063-2.65-2.47-2.11-1.191-5.22 6.594-2.34 5.851-4.25 8.627-13.16 17.187-10.84 10.425-17.41 18.663-17.65 20.469-.47 3.452 5.85.231 10.47-5.781 10.3-10.064 10.68-12.746 10.59.593-.09 12.065-.71 14.27 1.47 14.188 3.39-.128 5.2-9.672 6.78-21.188 1.89-10.372 7.28-15.605 16.25-21.375 2.46-1.584 2.5-2.677 2.03-7.25-1.66-14.653 6.68-41.975 10.47-35.218.53 1.52 2.18 5.074 3.06 7.562.71 3.856 3.14 8.208 6.85 8.5 4.6 3.448 4.59 5.312 6.18 17.938.52 4.121 2.35 10.305 3.63 13.593 2.38 6.12 4.51 9.705 3.19 11.532-.85.899-2.63 2.593-2.63 2.593l-75.13 44.532s-5.89 3.26-8.03 4.156c-5.95 2.688-9.57.701-12.5-3.75-15.92-23.708-26.84-50.342-38.03-74.906-6.71-14.582-.14-24.225 8.53-12.469 3.37 4.569 1.65 7.482-.03 16.312-.3 1.598 1.18.987 3.97 1.438 4.39-.472 6.51 3.446 6.35 10.094-2.77 9.524 1.06 4.381 2.87 3.906 3.47.051 4.24 2.138 6.19 6.094 1.21 5.577 3.67 3.962 7.25.281 2.96-3.042 2.97-2.968-3-10.094-10.31-11.172-24.61-36.393-28.31-51.75-1.03-4.236-.65-7.62.12-9.875 4.66-10.49 11.15-10.526 18.22 4.125 1.2 2.493 3.57 6.511 5.25 8.938 2.72 3.931 4.4 7.308 4.31 13.562-2.09 5.24-2.43 5.346-.62 6.063 4.48 1.772 12.45 9.874 12.81 17.125.36 7.364 1.61 11.276 7.41 6.906 6.6-4.983 3.79-6.987-2.72-13.375-6.83-8.124-7.24-15.168-3.19-21.031.66-1.968.38-2.524-2.13-2.282-7.92.767-15.63-9.272-10.12-16.906 2.54-4.473 2.24-5.626-1.34-5.75-1.87-.065-4.95.292-6.47-.562-2.35-4.394-7.24-10.536-7.19-15.563 2.31-7.069 5.9-9.92 9.69-9.875zm470.84.375c13.03 7.987 25.92 16.302 40.56 20.094-33.91 61.08-88.45 93.809-134.09 106.594 1.55 7.817 2.65 15.608 10.22 20.406-.26-1.182-3.61-15.055-2.88-17.906 62.88-16.054 118.22-77.648 132.38-109.407l276.31-3c-204.84 196.495-213 473.045-45.87 704.844l-19.22 11.22c-128.79-192.9-127.48-378.757-88.85-503.22 27.39-88.246 76.53-155.659 113.88-194.187 0 0-149.81-2.06-224.38.687-10.83 16.572-20.9 30.106-35.47 45.75 0 0 37.89-36.586 36.91-42.937 69.1-.037 140.37-4.03 209.37.781-80.75 96.647-120.56 196.42-127.46 290.281-.26 12.208-1 5.387-5.04 9.875l-12.74 19.781-10.22-20.562c-6.95-2.244-20.61 1.376-26.41-.719-28.41 126.75.3 279.73 37.69 379.56 0 0-9.39 5.26-20.94 4.38-12.64-2.81-15.73.68-26.69 2.9-12.59 2.4-16.99 2.38-19.78 5.57-1.55 1.77-4.36 4.24-7.53 5.96-30.68 11.15-66.69 52.94-66.69 52.35l-33.78-15.16c31.13-61.12 67.66-83.12 131.88-110.25l-5.97-27.31c-68.4 25.48-111.93 55.98-146.25 115.25-41.65-.59-210.36-1.78-210.53-1.25 68.81-78.25 123.07-196.29 129-288.312 1.45-17.925-1.06-9.308 6.87-14.657l12.47-14.843 9.78 14.625s7.08 9.015 11.56 1.5c12.55-128.329-.72-274.658-62.56-376.657 10.97-.724 21.9-1.028 32.41 5.188 24.18 54.77 38.44 122.435 44.62 173.156 7.83 64.197 6.73 136.606-1.25 198.094l4.13.562c12.05-79.91 7.97-164.901-3.1-239.187-5.67-38.754-23.96-99.364-36.53-127.344-3.47-7.731-6.17-9.73-2.87-10.875 75.35-6.341 109.99-31.484 137.06-71.625zm-208.94 6.75c5.77 0 10.44 4.673 10.44 10.438 0 5.764-4.67 10.437-10.44 10.437-5.76 0-10.43-4.673-10.43-10.437 0-5.765 4.67-10.438 10.43-10.438zm566.38 5.313c-22.06 19.968-39.79 40.663-58.41 62.718 55.11 75.78 116.35 157.93 167.84 223.563 0 0 17.83-10.56 17.76-11.875-.04-.693-1.43-4.183-1.76-3.406-.76 1.823-14.43 9.468-14.43 9.468l-162.97-213.875s8.83-10.577 11.56-13.906c12.66-4.163 47.9-47.804 49.63-46.906 27.6 21.149 110.87 110.798 142.93 138.281l.41 248.844c-3.32 9.956-92.09 48.323-154.78 191.466-31.53 17.67-66.46 27.17-98.94 42.53 0 0 8.27 13.01 12.31 16.57-4.96-10.73-5.84-12.77 5.41-17.35l234.59-95.62-.43 19.31-3.82 33.34c-63.84 39.37-117.72 55.87-205.59 115.25-6.28 1.46-11.33 7.49-17.94 7.82-224.46-330.58-80.97-579.65 49.85-704.785zm-730.97 16.906c6.12.101 4.58 14.307 2.31 19.219-4.52 3.553-9.03.397-8.94-6.25.03-2.168-.39-4.215-.93-4.563-3.4-2.167 2.28-8.484 7.56-8.406zm137.09 8.875c5.16 3.914 7.07 9.128 8.97 14.344-6.96-1.093-25.58-6.433-16.84-10.594zm-33.9 18.469c161.89 244.84 154.65 504.882-26.03 702.002l228.59-.35c29.1-57.41 77.57-92.41 139.59-113.96l5.41 18.03c-71.28 22.88-107.35 60.81-136.03 113.37h-272.63c104.75-112.7 152.73-207.9 160.28-336.686 7.2-122.65-24.01-234.663-118.78-369.438zm45.62 2.812 38.19 18.031-5.66 39.188-40-18.438zm-68.84 11c204.18 308.867 116.61 526.13-46.41 706.94l-30.03.5-70-65.03 1.28 395.15s-68.25 66.86-76.09 74.88c-7.75 7.46-13.56-4-13.56-4l.18-523.85 3.03-20.53.94-112.87 43.5-22.94 163.13 213.81s-6.56 9.66-9.6 11.38c-1.97 1.11-.53 3.03 1.13 2.81 4.58-.6 17.65-15.21 14.9-17.56-59.17-73.31-169.18-216.846-169.18-216.846l-45.82 23.906s1.33-93.713.5-129.687c1.76-8.486 8.12-6.212 12.41-10 52.76-33.907 89.93-75.294 112.88-115.438 1.68-3 11.84-21.021 12.84-22.656 3.58-5.834 12.45-24.072 17.62-35.719 2.89-6.511 5.97-14.398 7.13-15.344 31.74-10.335 65.06-25.007 96.94-38.187l-45.91-68.906zm-125.13 3.938c-1.72-.026-6.1 1.966-12.03 7.343-10.94 9.928-25.36 26.24-25.41 29.344 2.94 1.059 5.54-.628 7.88-3 9.15-13.509 23.3-18.792 31.59-30.625 1.29-2.188-.07-3.09-2.03-3.062zm102.85 14.343s31.67 46.149 39.78 58.407c-83.48 33.05-170.82 76.703-248.19 104.937v-18.5l12.22-33.219zm124.18 30.5 31.22 16.125-8.81 35.219-31.5-17.625zm25.75 58.594 25.66 18.688-11.72 29.875-25.84-17.782zm-209.34 21.906s-3.95 13.851-10.59 26.25c-31.75 55.163-62.82 104.183-127 146.75-2.45-2.173-9.44-14.406-9.44-14.406l-.63-16.344c34.03-27.336 63.4-47.402 108.47-127.625l13.07-5.312 11.12 4.812 7.53-13.437zm133.53.125c-29.58 62.752-58.68 127.476-105.81 176.375l128.97 180.029c42.43-127.109 26.68-246.241-23.16-356.404zm-162.28 13.688-6.19 10.719 10.72 6.187 6.19-10.719zm-17.5 1.156c-23.37 52.241-58.44 92.435-104.47 121.344l-1.78-76.656zm8.22 15.594-6.19 10.719 10.72 6.187 6.19-10.719zm263.59 2.25 23.25 22.062-13.81 24.344-23.84-19.719zm356.19 10.844c-.03.01-.05.035-.06.062-40.86 127.002-28.59 248.311 27.47 353.91 27.5-68.45 50.08-114.257 103.78-187.129-33.07-43.294-127.87-168.214-131.19-166.843zm-628.91 2.031-6.5 10.531 10.54 6.5 6.5-10.531zm178.28 14.812c36.84 88.054 33.59 167.446 14 236.25l-92-116.218c33.71-41.838 56.09-81.451 78-120.032zm-187.78.313-6.96 10.219 10.21 7 6.97-10.25zm-10.28 14.625-7.62 9.781 9.75 7.625 7.62-9.781zm303.1 10.406 20.84 19.781-13.16 25.657-21.15-19.344zm-315.13 4.813-8 9.406 9.41 8 8-9.406zm672 2.781 92.81 119.75c-31.04 36.948-56.84 80.48-79.9 127.411-25.86-81.033-37.53-160.649-12.91-247.161zm-685.03 12.125-8.56 8.937 8.94 8.563 8.56-8.938zm216.81 11.969-42.47 61.406 48.69 62.156c5.24-33.647 6.42-72.705-6.22-123.562zm-230.65 2-9.13 8.375 8.38 9.125 9.12-8.375zm-13.41 11.968-9.63 7.813 7.82 9.625 9.59-7.813zm362.72 6.344 17.44 20.375-17.69 20.969-16.56-18.625zm221.69 3.656 11.84.438c-19.42 191.591 18.75 288.541 52.53 372.841 0 0-.08 3.38-1.22 4.38-5.5 1.89-16.63 3.94-25.56-3.91-45.44-116.8-55.36-260.68-37.59-373.749zm-600 2.469-10.04 7.25 7.26 10.031 10.03-7.25zm742.31 6.813c-3.01 0-5.63 78.826 5.72 117.312l42.72-57.875zm-110.44 13 14.28 19.187-15.15 20.656-15.5-19.562zm-643.47 5.218c.72-.113 1.89 1.884 4.19 3.469 2.13 2.232 1.83 2.065-.56 3.969-3.74 2.977-4.85 2.498-4.78-2.156.32-3.83.6-5.194 1.15-5.282zm390.75 14.407 15.78 22.593-17.47 22.469-14.93-23.656zm251.47 28.625 16.63 20.25-14.29 22.218-18.15-21.218zm384.94 4.281 1.47 23.344-5.75-8.532-10.56 8.094 7.37 9.781 9.22-7.187.56 9.406c-58.55 42.314-83.81 90.92-107.56 127.38l-10.56 4.46-12.03-3.81-5.88 10.41-10.22 2.4c-.31-.06 20.52-44.68 56.16-90.09 31.73-40.439 87.61-86.029 87.78-85.656zm6.78 36.531.5 82.995-104.78 40.48c27.19-46.33 59.26-89.336 104.28-123.475zm-26.03-10.094-9.56 7.844 8.25 9.469 9.53-7.844zm-14.72 12.5-9.22 8.219 8.59 9.156 9.22-8.281zm-349.91 4.594 19.75 21.031-14.47 24.844-20.56-19.719zm335.04 8.844-8.66 8.844 9.47 9.093 8.65-8.843zm-13.63 13.969-8.31 9.187 10.06 8.719 8.31-9.188zm-13.69 15.656-7.72 9.687 10.47 8.094 7.72-9.719zm-300.94 14.875 24.69 16.031-12.06 29.38-24.66-18.79zm289 .125-7.24 10.066 11.15 7.62 7.35-10.4zm-11.15 15.876-6.72 10.41 11.28 7.24 6.69-10.74zm-9.97 15.72-6.19 10.72 11.69 6.65 6.19-10.84zm-9 16.25-6.19 10.72 12.94 5.59 5.13-10.22zm-245.5 6.62 25.28 17.13-11.19 30.78-26.68-18.88zm366.59 30.28 1.25 633.38-278.34.97s-13.01-22.9-40.25-75.81c-11.53-22.4-21.28-31.92-22.28-49.66 1.04-10.42-3.77-22.24-12.31-27-2.87-1.6-7.67.33-6.07-4.13 1.77-4.9-3.64-12.46-5.12-14.06-1.68-2.84-.63-3.53-.81-14.09-.18-10.21-.72-14.48-2.91-22.19-5.53-19.48-6.76-29.21-3.59-39.31 8.22-25.62 16.79-45.27 27.87-69.16 6.45-13.98 5.46-19.44-14.31-29.59-14.81-7.6-16.78-7.52-14.91-18.63.88-5.2 1.69-8.48.6-11-.67-1.53-3.13-3.67-4.57-4.9-1.93-1.65-1.35-5.06.63-7.6 1.94-2.48 1.95-6.04.03-11.97-4.05-12.47 5.11-28.99 22.41-40.4 7.64-5.05 7.43-4 15.4 4.37 23.31 24.48 57.94 9.1 58-25.4.02-10.76-3.64-10.12 6.53-15.19 34.48-21.94 105.25-61.84 104.78-60.75 4.61 9.39 6.15 17.41 9.07 27.53 2.52 8.67 2.19 9.34 1.25 26.22-.85 15.26-1.31 18.8 2.28 19.78 20.42 2.25 25.08-4.97 29-18.16 1.69-5.82 4.95-4.64 6.97-2.18 7.77 14.14 17.6 28.85 24.06 38.9 8.07 12.84 21.66 19.22 28.78 13.16 1.5-4.99 2.73-5.14 11.75-3.09 10.94 2.48 17.17-3.65 18.22-11.69.42-3.21-1.92-3.08 3.94-6.25 14.53-10.76 8.99-25.44 6.81-34.28.19.46 6.21-3.66 6.34-11.94.7-42.98-36.55-104.88-35.71-103.28zm-351.43 24.75 29.56 14.29-6.97 35.31-30.37-13.66zm287.65 13.13c17.03 19.74 29.34 52.65 35.69 74.09 3.14 10.68 3.52 22.87.72 24.57-2.76 1.67-4.05-.12-3.53-6.5.43-5.32.59-9.44-1.69-9.38-6.61 1.71-6.86-8.3-6.19-10.66.45-1.57 1.27-2.67 1.63-3.53 1.63-3.88-2.63-3.35-7.03-3.4-3.9.09-4.91-2.28-4.72-5.97-.12-4.1-5.54-3.3-8.63-.19-2.82 2.84-2.23 6.19 1.6 8.53 5.49 3.36 10.68 11.63 23.46 40.13 7.43 16.54 5.23 28.28-3.62 28.15-6.14-.18-13.28-16.99-19.06-29.37-1.49-3.2 2.25-6.78 3.56-8.5 3.4-4.46 2.88-5.87-2.16-5.94-4.71-.07-6.72.35-9.56-5.47-1.07-2.19-1.84-5.53-1.47-7.66 2.43-6.41-2.56-7.96-7.4-5.5-6.11 2.55-6.06 8 3.25 16.91 5.99 9.84 4.43 9.16-1.25 15.78-1.19 2.34-.48 3.78 2.03 3.81 7.2-2.19 15.05 10.78 12.9 15.22-2.2 1.91-8.24 8.83-2.4 7.5 11.86-3.22 19.08 14.15 12.09 20.04-10.42 5.22-12.89 3.59-28.94-28.47-4.98-9.96-10.98-20.66-11.71-21.75-.74-1.1-1.07-4.04-1.04-6.41.7-5.8-1.77-7.12-6.81-4.81-3.78.9-7.2 4.01-2.41 6.97 5.6 9.65 7.58 11.2 4.5 13.65-6.99 5.57-3.96 5.35 3.88 6.91 3.84 1.15 5.79 3.13 6.84 5.5 4.05 9.09 11.23 21.92 11.94 24.53 2.38 6.67-1.91 9.66-7.78 9.38-6.14.14-8.95-4.71-11.94-8.85-11.16-15.51-19.2-30.88-30.59-48.5l1.53-16.47s2.99.65 4.66-.15c3.27-1.58 5.22-6.73 7.09-13.57 2.99-5.94 20.67-19.48 27.44-26.75 1.25-.82 2.3-2.18 2.31-3-.04-2.66-7.67-.88-12.69 4.88-7.37 6.54-10.51 4.3-10.28-4.06-.72-10.33-7.02-5.15-7.34 4.93-.81 7.97-3.58 12.83-9.16 17.28-10.52 8.42-8.77 6.29-8.28 17.97.85 20.38-7.01 37.14-12.16 26.03-1.82-3.94-3.96-8.42-8.56-8.62-3.25-.14-4.86-3.33-6.65-11.22-2.67-12.76-6.39-20.97-9.79-32.72zm-262.03 43.9 34.06 13.57-6.37 35.62-33.75-12.9zm259.72 3.29c-.23.01-.49.07-.78.18-9.6 7.26-18.45 15.39-28.91 21.63-3.92 2.32-8.5 8.3-8.53 9.9-.03 1.56 4.66 1.53 9.22-.46 4.33-1.89 29.03-25.09 29.06-27.22 1.71-1.88 1.54-4.14-.06-4.03zm-312.78 43.25c8.05-.02 3.35 2.37-14.22 14.56-17.16 11.9-45.43 49.54-48.72 63.5-1.49 6.34 2.53 6.83 7.06-1.88 20.83-40.04 60.24-76.62 96.32-75 17.67.8 27.22 5.57 12.59 7.66-40.1 4.92-70.08 27.79-96.31 73.38-.02 1.02 2.38.97 5.12-.79 24.02-29.35 51.07-68.24 98.6-65.09 34.28 2.07 44.02 42.83 15.56 56.75-24.81 12.13-47.69-17.41-27.13-34.94 6.68-5.69 10.85-3.19 4.44 2.63-13.76 12.48 3.11 34.72 19.88 26.28 10.2-4.28 14.33-18.88 5.34-29.91-20.01-24.52-63.1-5.88-93.13 33.75-3.14 4.17-5.87 13.23-3.21 12.25 4.66-1.92 7.47-5.57 10.21-9.69 10.72-14.86 18.96-22.32 33.47-30.31 11.22-6.17 11.91-5.01 7.72 5.69-1.76 4.51-3.18 6.01-7.53 8.81-18.28 12.49-29.64 29.22-30.09 39.88-.33 7.78 5.36 17.94-.81 20.03-10.48 4.95-39.04.91-46.76-8.94-5.54-7.08-7.69-2.98-3.53 8.53 2.75 7.61 2.64 11.9 6.79 11.13 5.24-2.78 8.85-2.13 19.03 3.44 4.9 2.68 13.6 5.18 18.9 6.4 9.67 2.23 11.68 1.29 11.47 5.47-.06 1.28.38 4.89.1 7.16-1.57 12.59 8.94 16.87 23.28 25.15 8.37 4.84 5.07 9.82-4.63 33.78-5.04 10.84-9.34 25.43-15.56 36.44-5.81 12.37-6.31 25.91-2.56 41.34 6.95 28.65 11.95 43.21-.44 45.79-31.9 4.82-102.35 4.63-140.81-10.16-9.84-73.83-61.97-183.37-55.28-211.69 13.34 20.12 69.28 14.8 52.43-41.44 0 0 4.59-6.85 13.69-16.09 23.48-23.82 29.28-27.76 18.12-6.78-8.57 16.13-19.5 37.17-19.74 41.25-.2 3.25 2.33 4 4.31 1.41 1.46-1.93 3.2-6.6 4.72-10.16 13.99-32.76 37.91-62.3 54.4-69.41 4.25-1.83 4.03.12 1.1 3.72-19.4 24.14-34.22 46.46-44.75 75.6-.47 3 3.79 4.26 5.15 1.4 18.2-38.13 23.64-46.79 46-73.65 8.79-10.56 16.97-15.89 23.5-15.32 5.65.5 3.98 1.43-1.25 7-3.99 4.26-9.89 10.18-19.44 22.19-16.83 21.18-33.76 55.65-27.53 53.84 1.08 2.88 6.39-6.28 10.88-15.03 12.3-20.65 25.37-47.95 54.58-65.89 6.11-2.53 12.78-3.98 18.67-4.04zm-565.06 6.65 52.03 52 104.65-1.34c-17.26 26.82-8.04 68.39 1.47 92.69 18.65 47.63 45.98 126.26 43.97 127.4 0 0-15.22 3.92-16.59 13.56-2.04 14.31 4.16 13.25-4.78 26.16-2.02 2.91-.72 8.39 1.43 12.75 1.42 3.2 2.78 8.01.13 11.75l-92.31 164.69-175.19.84v-32.93l87.72-88.82-1.07-65.34c47.85 14.22 64.28 63.58 68.38 100.16 86.42-78.87 84.29-197.61 2.62-272.1-15.91 78.73-72.93 95.09-71.68 93.53zm650.84 9.35c5.6.4 13.15 1.3 18.28 4.06-3.47 2.08-5.94 4.55-8.25 7.09-2.8-4.97-6.58-7.69-10.03-11.15zm145.06.56c4.66-.02 10.38 13.62 7.1 16.81-1.85 1.8-7.86 2.48-10 1.13-2.75-2.04-1.35-17.93 2.9-17.94zm-165.06 23.66c6.01 0 10.88 4.86 10.88 10.87s-4.87 10.87-10.88 10.87-10.88-4.86-10.88-10.87 4.87-10.87 10.88-10.87zm-460.28 15.5 7.84.18c-14.25 19.06-16.18 35.47-11.12 59.25 5.68 26.76 49.04 127.34 51.84 155.03.13 1.26.25 4.78.25 4.78l-10.65.72s-.8-2.86-1.13-3.96c-14.91-50.15-29.75-88.4-40.13-117.63-10.33-31.52-26.15-78.26 3.1-98.37zm57.31.18c.08-.01.14.01.19.03l7.53.06c-.28.17-11.24 23.68-12.03 37.94-.89 16.17 3.01 33.78 8.37 51.16 12.66 37.6 31.18 79.48 41.47 126.94.12.55 1.25 5.15 1.25 5.15l-11.15-1.5s-1.1-4.86-1.22-5.53c-7.71-41.74-29.19-85.1-42-126.19-6.57-18.67-11.13-41.63-8.78-59.18 1.65-12.38 14.08-28.64 16.37-28.88zm91.09.1c-7.97 12.35-15.23 27.83-15.74 39.96-.47 22.59 6.11 41.65 12.68 61.6 20.23 61.42 30.04 93.83 40.16 143.09l-10.75-4.59s-.42-2.77-.66-3.56c-5.74-30.85-6.1-28.16-39.84-131.91-7.91-24.9-15.44-46.74-13.97-67.47.33-11.81 10.64-35.19 21.5-37.06zm12.91 0h10.03s-5.52 5.85-7.12 8.03c-17.53 24.3-12.45 50.38-3.75 81.47 11.97 42.77 34.11 90.61 45.69 155.81.21 1.21 0 7.5 0 7.5l-11.94-4.81c-10.85-59.78-37.61-121.77-50.5-175.54-7.59-31.57-5.43-51.52 12.09-68.71 4.39-3.39 5.5-3.75 5.5-3.75zm-122.41.34h7.5s-12.54 20.6-12.53 32.72c-2.09 21.7 5.77 45.68 14.79 70.81 13.86 38.62 32.18 85.33 37.81 109.91.22.96.97 5.37.97 5.37l-13.1-.69s-.68-5.95-1.47-8.68c-15.11-52.86-29.83-87.05-47.18-135.32-2.63-7.3-6.82-36.18-1.88-54.9 3.88-14.69 15.09-19.22 15.09-19.22zm-20.09.03 8.09.22s-1.21 2.2-4.31 7.5c-14.77 26.74-8.15 51.15 1 78.34 12.21 36.29 31.38 80.6 43.35 122.53.67 2.37 1.59 9.5 1.59 9.5l-11.69-.15s-2.37-8.54-2.53-9.47c-6.57-38.87-42.1-103.66-51.34-152.97-5.07-26.45-.72-42.83 15.84-55.5zm108.41 0s-12.77 22.14-13.94 34.47c-2.29 24.18 5.38 44.2 14.16 71.47 15.14 47.05 36.5 102.26 38.4 127.5.07.83.38 3.91.38 3.91l-13.16-4.69s-.59-2.64-.84-3.57c-11.47-45.66-25.03-91.14-43.25-142.4-4.5-17.3-10.4-34.7-9.88-49.56 2.67-19.86 6.05-25.21 17.88-36.97zm57.87.03 10.6.22s-3.17 1.7-10.72 9.75c-41.8 38.19 26.01 146.02 41.65 244.19.18 1.05.66 4.75.66 4.75l-11.66-4.19c-1.1-4.89-1.93-10.84-3.28-16.19-12.67-50.18-29.57-101.78-45.09-148.59-8.71-34.11-11.89-64.14 3.75-80.94 4.9-5.8 14.09-9 14.09-9zm-108.97.06 11.28.32c-8.15 10.22-12.93 26.14-13.37 40.31-.43 16.75 4.05 33.04 9.56 50.28 11.32 35.35 27.47 73.77 38.57 121.47.62 3.16 1.14 5.18 1.43 6.56.46 2.19 1.72 5.66 1.72 5.66l-11.91-2.38s-1.22-3.09-2.03-4.72c-1.2-2.44-2.3-5.55-3.28-9.28-5.76-24.88-26.98-81.34-39.9-120.94-10.25-24.95-13.04-68.55 7.93-87.28zm140.85.44c14.43-.53 27.47 11.71 30.56 23.22 3 12.22-.84 26-14.28 32.81-21.8 11.04-45.27-18.33-28.06-34.5 13.03-12.25 32.32-3.18 28.12 12.5-2.71 10.21-18.19 10.87-20.75.56-.7-3.42-2.42-6.85-3.66-4.96-8.01 18.82 18.94 27.64 30.13 10.12 6.64-14.04-6-32.12-24.59-28.69-25.5 4.72-28.43 37.07-17.85 74.82 14.77 59.65 50 139.89 49.94 176.71 0 .49.13 2 .13 2l-11.19-3.34s-.08-.62-.16-1.16c-6.71-51.43-44.91-136.59-55.87-202.06-4.75-29.85 6.87-51.51 33.03-57.44 1.51-.34 3-.53 4.5-.59zm-110.63.47c-7.85 10.49-12.97 26.25-13.22 37.5-.23 16.48 5.68 32.53 10.57 49.69 12.36 42.37 41.24 120.63 40.18 135.28.3 1.57 1.1 6.44 1.1 6.44l-11.16-3.32s-.44-.7-1.28-2.72c-3.72-14.54-21.4-76.86-41.22-130.75-7.62-21.66-11.33-38.54-10.81-52.9 1.61-19.82 7.28-28.09 15.97-39.13zm212.44 70.25c-28.92 1.65-26.13 36.9-8.22 42.87 6.41 1.77 10.17.24 11.19-1.15 1.16-1.59-.14-4.02-4.35-4.63-12.15-3.99-16.5-18.3-5.52-24.3 6-3.14 15.57-1.12 27.12 7.43 20.63 15.28 45.92 16.24 42.62.78-.8-3.75-2.42-4.25-17.53-6.31-12.27-1.67-17.8-5.55-23.15-8.44-8.44-4.55-15.87-6.44-22.16-6.25zm-414 32.78c74.71 72.96 63.63 187.31-.19 244.56-1.31-4.62-4.1-15.94-4.4-15.62 47.99-49.94 70.6-131.81 1.12-215.72.36.32 1.55-6.06 3.47-13.22zm468.22 1.94c-.71.02-1.33.09-1.88.28-19.34 5.29-23.35 24.41-10.81 32.28 7.69 4.83 13.6 1.87 4.03-3.97-8.2-5-4.15-18.14 5.78-18 4.35.07 7.3 1.96 18.35 10.1 9.09 6.7 17.65 7.23 19.59-1.85 1.16-5.41-.65-7.82-6.44-6.4-2.55.63-4.06-.87-7.53-3.28-7.72-5.36-16.15-9.27-21.09-9.16zm-475.94 14.31c67.34 78.16 45.72 159.68.31 207.44-12.46-36.79-43.03-59.75-43.03-59.75 11.52-25.55 18.39-52.24-3.15-85.94 20.03-18.1 36.64-38 45.87-61.75zm437.53 28.53c-3.16-.05-2.13 2.99 5.31 8.19 17.75 12.07 19.27 14.25 2.07 13.97-4.36-.26-11.2 2.83-15.07 4.12-22.45 7.5-23.53 6.9-34.28 4.38-3.58-.84-7.21-2.34-8.78-.91-2.42 2.22-5.15 3.68-2.09 6.97 2.22 2.41 6.37 4.24 11.41 7.13 26.07 14.93 28.44 18.51 59.09 19.31 3.51.09 5.31-1.73 7.37-1.75 5.01-.06 7.63 1.16 12.69 5.78 9.27 8.46 9.7 2.31 4.19-8.78-2.89-5.82-5.42-7.2-4-11.63 3.23-10.08-1.37-12.09-7.41-3.15-4.52 6.99-5.03 6.83-9.31-2.16-5.67-11.22-3.01-16.41 5.59-9.09 6.52 5.54 8.19 1.42 10.72-2.97 3.34-5.77 2.83-10.95-3.12-10.5-3.43.26-6.63-1.32-9.31-4.25-5.28-5.75-15.38-12.96-25.07-14.66zm7.38 30.38c.71.04 1.2.33 1.43 1.06.06 3.7-2.48 11.25-4.56 15.22-.66 1.77-1.8 1.99-3.4 2.31-5.38 1-5.75-.67-4.78-4 1.97-5.14 3.59-12.45 10.53-14.56.28-.03.54-.04.78-.03zm-13.66 2.56c2.18-.16 2.25.75 1.38 2.72-1.55 3.33-4.29 6.48-6.32 9.09-4.3 2.79-11.32-5.73-8.21-7.93 4.32-1.72 7.58-3.48 12.09-3.75.4-.07.75-.11 1.06-.13zm-482.41 5.56c1.17 0 2.35.24 3.57.75 16.29 22 15.18 55.48 2.53 74-.94 1.39-1.91 1.64-3.5 1.1-5.45-3.23-12.36-4.42-17.53-6.28v-64.41c5.32-1.13 9.91-5.17 14.93-5.16zm429.44 5.25c-1.24.06-1.76.91-.18 2.53 23.76 17.2 56.46 37.13 86.62 29.41 2.77-.6 5-2.11 4.47-4.97-.33-1.78-3.4-3.31-6.72-2.44-6.92 1.83-20.18 2.07-25.63 1.19-20.74-3.4-39.06-16.67-55-24.43-1.18-.91-2.59-1.33-3.56-1.29zm-6.94 16.41c-1.06-.05-.98 1.01-.31 3 3.35 9.96 36.97 33.17 63.53 40.84 22.81 6.59 55.56.11 53.66-10.72-.99-5.64-5.14-6.99-19.69-5.15-32.04 6.22-62.88-6.88-86.28-21.44-6.31-3.97-9.54-6.47-10.91-6.53zm-209.81 13.62c14-.16 27.87.97 42.88 3.47 29.19 4.99 63.03 14.03 91.65 27.29 48.65 18.25 109.82 32.34 161.72 30.43 12.67.35 35.57-.72 40-2.19 11.57-2.59 14.77-.13 17.53 14.22.49 3.13 1.46 4.03 5.47 6.75 6.15 4.17 5.12 8.28 4.38 17.47-.63 7.74 4.04 12.08 22.78 46.66 21.32 39.36 42.12 85.09 42.12 85.09-186.93-.13-365.26-7.06-556.53-1.12 17.2-40.79 64.1-114.33 93.5-173.37-7.11-18.16 1.67-21.25-2.02-25.56-5.95-10.1-1.65-24.26 10.93-27.45 8.77-1 17.2-1.58 25.59-1.69z" fill="#131f67" transform="matrix(.154458 0 0 .154458 -142.146 21.891)"/><path d="m1950.02 1727.99s59.06-124.9 84.21-162.45c36.3-47.72 205.07 16.84 288.71 32.24 33.99 5.94 112.46 1.49 112.46 1.49l67.72 117.14zm-129.66-138.44-9.4-385.41 19.39 11.62 11.22 387.11-81.48 80.82-.87-23.24zm49.39-44.87c19.04-40.08-3.86-88.21-3.86-88.19 11.5 2.62 42.35-58.5 45.21-56.8 49.89 59.03 59.93 148.12 1.24 204.47-15.74-38.17-42.4-59.48-42.59-59.48zm31.63-273.26c36.44-38.57 65.35-68.63 94.01-111.58 2.35-3.5-160.18-202.601-157.77-206.183 24.04-27.534 56.56-48.027 81.56-81.204 0 0 133.37 168.347 136.35 166.797 12.26-53.638 21.08-102.158 17.58-157.934-10.57-142.676-73.14-229.031-73.58-227.303-18.33 131.581-217.65 333.912-257.83 320.455l-1.85-91.694c2.5 4.546 127.07-83.389 158.31-197.249 2.25-8.18 99.53-41.213 98.82-42.398-4.32-10.56-48.19-70.35-48.19-70.35s17.15-8.357 19.07-8.363c56.69 68.002 100.16 158.139 115.93 244.422 18.93 92.9 33.2 267.924-150.33 462.574zm556.05-251.01c-30.85-90.258-31.71-184.249-19.42-250.103 18.42-119.259 92.06-205.721 151.18-271.702l26.15-.449s-30.69 32.899-41.86 44.87c-19.12 22.738-46.57 69.95-46.57 69.95l159.57 201.118 88.56-20.783s-1.07 91.248 1.69 91.199c-68.09 58.411-116.83 111.049-151.01 195-21.7 8.47-93.58 40.97-93.58 40.97-34.58-7.81 98.52-224.835 72.42-228.012-10.88-8.656-132.44-166.733-134.75-166.361-51.78 168.54 4.72 343.573 103.19 464.793-10.81 7.27-20.6 12.96-19.73 11.28-42.25-56.49-79.6-124.17-95.85-181.77zm-286.43-78.992c6.34 9.444 30.32-205.108-45.64-375.169 6.85-5.382 66.81-17.953 66.81-17.953l17.1 51.018-40.74 18.103 8 23.916c31.59-16.017 100.19-40.05 141.39-111.304 0 0 206.21-5.41 210.6-5.12 4.29.283-41.27 45.51-83.63 136.187-19.35 41.419-34.39 94.833-36.61 157.23-.44 12.33-48.21-57.08-48.21-57.08 10.55-59.545 40.53-118.508 70.41-177.475 0 0-47.47-1.859-80.59-.305-50.53 57.216-82.31 87.462-159.52 115.723 29.93 90.253 204 130.815 165.31 123.2-7.9-1.715-16.38 83.746-6.34 179.701 2.96 76.81 46.57 204.17 48 203.11 0 0-27.45 6.69-29.73 2.31 4.62-1.2-40.82 11.16-40.82 11.16l-17.17-47.45 43.82-21.1-7.62-26.82c-.18.02-96.96 31.16-143.13 116.89l-213.14 4.01c80.63-90.65 112.6-179.46 128.39-296.411 17.5 2.82 53.06-6.371 53.06-6.371zm510.62-779.315c26.41-22.9 79.17-82.25 79.17-82.25l1.23 29.91-59.93 64.563 7.54 391.955-21.01-19.428zm-25.68 143.96c-10.9 5.431-32.36 31.581-42.3 60.713-71.83-61.938-44.76-178.573-6.47-203.43 11.68 25.157 44.81 58.197 44.04 57.504-7 26.681-12.26 53.714 4.73 85.213zm-630.83-252.083 545.47-8.669c-30.03 61.81-57.7 111.834-89.71 172.727-16.84 21.062-390.88-60.151-392.47-51.376z" fill="#e2cf00" transform="matrix(.154434 .00272539 -.00272539 .154434 -232.9254 15.068)"/><path d="m2825.26 1818.97-.31-18 17.91-.32 41.65-65.7-46.14-101.7-17.28.31-.36-20.15 64.3-1.14.35 20.15-22.66.4 35.19 79.32 21.93-32.44-1.35-47.86-15.79.28-.35-20.15 58.68-1.04.35 20.15-20.97.37 3.99 167.41 17.78-.31.31 17.99-55.74.99-.32-18 15.35-.27-2.89-78.7-49.84 79.63 18.14-.32.32 18zm-206.25-113.19c-36.97-68.98-83.97-131.28-137.58-184.87 51.41-58.15 94.06-118.21 130.26-183.64 39.61 63.79 82.95 123.91 143.03 181.73-57.5 58.63-100.34 122.24-135.71 186.78zm-860.62-52.46-12.72-514.6 63.07 59.13 10.65 395.18zm1071.54-162.06c22.16-24.32 42.21-51.21 58.63-80.15 21.85 31.16 45.01 63.03 63.97 78.79-20.77 24.5-40.32 52.83-59.13 81.99-17.31-26.58-36.06-53.35-63.47-80.63zm-788.8 57.31c-12.8 2.18-5.74-9.82-3.6-21.16 1.2-6.31-4.99-12.12-5-14.05-.03-11.17 8.25-16.03 46.19-16.26 89.52 4.62 136.26 32.43 187.78 44.83 49.34 11.88 98.03 10.76 152.21 8.56 4.01 2.21 19.2 39.38 16.56 43.17-122.18 26.33-280.23-60.93-394.14-45.09zm216.28-270.4c-13.08-9.13-25.23-10.65-37.25-12.48 20.37-37.35 45.24-71.51 87.4-93.35l20.66 48.61c-24.79 13.3-49.08 29.05-70.81 57.22zm-260.54-122.6s-17.83 30.32-34.89 45.22c-52.71-68.13-170.44-213.099-170.44-213.099l-48.43 25.599s-.69-28.452.38-30.464c130.76-70.329 219.04-200.452 256.79-321.507 0 0 21.63 21.305 19 30.527-34.01 95.563-93.34 191.844-181.81 264.828zm162.11-142.96 166.61-2.71 8.4 57.79c-63.42 22.5-115.3 67.1-163.64 118.48l-79.04.01c24.91-57.22 59.88-115.43 67.67-173.57zm612.5-254.883c5.68 16.233.56 33.943 2.62 33.167-197.82 102.212-251.02 319.826-251.02 319.826s-19.47-29.66-18.69-34.31c99.24-231.394 168.22-239.45 181.06-264.616l-160.69-200.531 34.69-48.955 172.36 216.285c16.62-8.009 26.05-14.638 39.67-20.866zm-93.15 298.733c32.76-61.456 67.05-97.448 101.4-122.4l-.28 80.34zm-937.18-222.396-.51-77.934 102.02-46.05c-27.33 62.453-65.33 96.335-101.51 123.984zm456.71-78.138-7.05-54.697c61.92-28.319 116.41-65.694 160.03-116.303 47.77-3.14 80.49-.477 80.22-1.121.08-.098-44.31 67.531-72.62 173.273zm506.83-584.812 55.79-58.392 10.83 512.127-58.01-53.282zm-491.82 425.844-18.91-50.46c28.16-11.123 49.21-34.642 68.8-57.911 13.76 11.893 31.33 15.854 37.44 18.08 8.35 1.795-56.04 81.933-87.33 90.291zm-445.53-342.93c59.78-60.436 98.21-123.742 135.31-186.661 34.72 67.898 84.28 126.961 137.3 183.966-52.57 59.204-92.19 122.305-130.18 185.796-39.6-65.515-81.15-126.858-142.43-183.101zm-138.41 104.773c-18.03-27.688-36.17-54.328-62.1-80.917 24.31-26.961 44.9-53.624 58.58-79.732 20.02 28.05 39.07 57.384 63.42 79.65-22.88 26.088-41.14 53.621-59.9 80.999zm470.67-144.519s-7.16-3.977-6.48-9.77c2.21-7.529-8.01-24.303-8.01-24.303 120.31-38.829 298.26 61.325 402.42 37.76-.75 7.315.61 15.998-2.23 22.933 3.55 14.57 5.88 15-8.24 24.183-73.08 22.077-151.26-20.868-223.37-40.785-58.85-17.399-106.3-11.864-154.09-10.018zm-540.81-54.727-.39-21.878 20.53-.362-2.9-164.432-20.53.362-.34-18.991 56.95-1.005.33 18.991-14.84.262 2.77 79.035 50.26-79.971-20.14.356-.11-18.995 64.45-1.137.33 18.99-18.38.325-39.98 65.774 42.88 98.658 18.38-.325.39 21.878-64.42 1.137-.37-20.497 24.16-.807-35.61-76.803-22.5 32.173.79 45.022 16.8-.296.37 21.496z" fill="#d40000" transform="matrix(.154434 .00272539 -.00272539 .154434 -232.9254 15.068)"/><path d="m2018.75 46.868 22.82 41.217-3.77 2.658c6.19 9.916 11.5 21.102 17.83 30.934l4.43-.589c7.5 13.777 10.53 18.869 20.31 35.176l-4.28.056c2.33 7.285 8.08 12.05 8.29 17.304.17 6.538-1.39 13.205 2.7 17.561 4.85 5.159 5.45 6.602 4.53 9.691-2.46 8.206 5.1 17.108 12.59 16.166 52.75-8 106.74-2.954 160.89 12.372 38.95 11.531 73.58 24.607 106.31 33.652 10.31 2.884 31.15 7.35 49.03 8.343 49.59 2.754 77.21-7.828 68.5-28.281-.69-1.638-2.19-2.821-2.34-3.667-.27-1.563-.06-3.263 2.71-5.617 7.98-8.443 3.34-14.404-1.78-23.505 0 0 61.61-114.755 92.38-171.936zm550.93.492-45.01 80.969c-24.9-4.059-30.36 16.915-30.69 19.857-32.37-7.694-26.69 34.01-10.47 36.548 1.15 6.043-26.25 14.061-41.02.116 22.36 2.593 29.74-27.052 2.38-33.128 35.44-27.33-32.64-66.112-32.47-10.871-31.78-5.02-26.92 36.773-6.77 39.673-10.08 11.515-40.3 12.363-56.52-11.248 27.12 13.483 41.03-22.797 12.93-32.389 33.92-30.822-34.03-57.488-31.59-8.694-25.7-14.622-42.51 24.108-8.45 29.404-1.82 6.948-46.28 7.787-57.88-9.887 31.66 6.637 32.43-31.766 4.56-34.398 27.29-35.929-43.9-52.6-31.15-4.451-27.58-10.347-37.32 23.977-10.46 34.471 1.58 5.407-43.01 10.817-58.99-8.507 34.24-5.757 21.64-38.815-.55-35.762 0 0 .31-.963 1.5-4.222 9.91-33.582-46.59-35.377-38.14-.101 1.31 3.238 2.77 7.557 2.77 7.557-15.62-2.895-25.02 3.61-23.63 18.19 4.21 19.317 14.43 17.704 27.46 13.612 5.6 5.644-31.17 25.492-54.76 8.766 28.38-8.7 13.34-41.873-10.45-36.939-1.17-10.652-13.03-25.413-28.02-17.846l-16.56-31.181zm54.51 444.453-33.5 1.085c-23.12 24.446-190.79 184.458-157.9 421.111 14.07 101.221 43.94 188.481 121.5 290.811l20.03-12.23 3.13 2.01 207.74-124.43-.54-36.66-241.8 106.5c-4.93-5.06-7.87-10.75-12.05-17.01l96.89-43.21s2.24-5.97 2.94-8.72c30.66-81.763 94.82-141.698 150.78-188.116-1.71-79.941-5.03-247.309-5.03-247.309l-149.36-143.585c-18.52 17.54-34.9 35.537-51.25 55.035l172.43 218.843-14.77 9.986-170.64-217.723c19.33-24.095 40.4-45.179 61.4-66.388zm152.26 141.579s-7.53-380.823-11.88-564.701l-85.88 91.271 7.15 386.016zm-16.76-528.347-60.67 64.848 7.62 392.366-16.16-15.373-6.73-381.817 75.76-82.243zm-601.52 1.168c1.91 3.225 1.19 7.751-1.72 11.486-12.36 15.899 27.82 42.439 56.29 37.2 21.68-3.987 39.98-17.368 31.81-27.159-6.65-7.974-2.54-16.231 5.28-16.314 8.04-.086 14.61 6.198 7.79 15.083-15.16 19.766 8.89 42.22 45.07 42.055 25.57-.116 33.98-6.566 32.28-24.761-.79-8.521.84-10.909 6.76-12.308 9.44-2.236 14.42 8.548 6.7 16.978-16.66 18.203 3.1 44.19 35.25 45.322 11.76.415 14.07-.252 27.05-7.884 10.14-5.966 13.61-14.766 8.46-21.466-6.61-8.622 1.92-19.212 12.05-15.09 7.25 2.947 10.89 8.399 3.1 17.887-10.23 12.465-5.11 22.507 15.14 28.986 15.77 5.048 26.61 4.195 33.83-2.628 2.25-2.124 7.25-6.564 7.2-5.234-4.78 8.606-9.01 16.59-9.01 16.59-32.58 15.228-58.69-11.733-57.86-12.771-33.49 20.115-63.55 16.527-89.48-15.815-6.52 3.768-53.55 13.198-88.27-23.581-34.06 17.85-66.14 11.182-94.87-7.601-20.63 20.176-42.69 23.698-65.84 14.593l-7.05-13.57c1.71-.675 9.37 13.567 45.21 6.234 12.04-2.462 32.45-23.12 20.65-32.807-5.46-7.439-5.68-10.833-1.06-15.484 4.55-4.581 12.49-2.404 15.24 2.059zm-87.78 19.506c2.08 3.85 2.46 10.306.18 6.466-1.2-2.025-7.45-11.059-7.17-11.344 2.83-.286 5.69 2.588 6.99 4.878zm689.53-9.046 9.34 506.349-53.54-51.276-9.53-396.633zm-608.96 35.274 16.75 10.126-29.67.346zm93.3 7.07 14.15 13.268-29.36-5.617zm260.77 2.413-5.99 12.858c-3.66-3.946-4.85-12.437 5.99-12.858zm108.86 208.65c10.14-23.896 23.74-54.34 46.45-64.347-17.63-33.531-16.01-67.39-4.26-86.146-17.56-15.774-35.63-34.724-47.12-62.23-53.73 49.154-60.76 148.296 4.93 212.723zm-5.22-203.457 3.92 9.19c-47.56 60.346-31.18 138.174 4.77 179.226l-4.87 10.586c-43.83-44.622-64.36-140.214-3.82-199.002zm-290 38.78c56.62 15.532 102.18 40.498 166.9 16.398l.53 12.671c-40.98 27.337-124.05.684-180.19-18.919-90.25-31.512-160-28.351-209.78-23.69-4.41-.782-8.1-12.18-1.07-12.382 93.21-2.673 77.94-14.041 223.61 25.922zm12.33-22.649 18.85 19.296c-13.97-4.113-27.56-8.715-40.23-14.511zm282.41-.141 3.71 4.935c1.61 2.138-10.17 3.469-8.23.896zm-317.18 41.52c67.68 24.06 142.16 47.949 190.34 24.495 0 0 .48 9.615-5.03 12.438 0 0-5.05 4.234-22.15 6.895-78.5 7.839-130.1-23.805-193.89-41.918-24.2-6.871-63.03-15.028-102.76-15.972-23.6-.656-59.6 3.365-59.6 3.365-7.87-.516-7.84-5.157-7.99-9.704 68.19-10.32 131.16-4.629 201.08 20.401zm324.7-29.942c.86-.055 1.75-.009 2.62.11l7.03 8.659-7.92 13.11s-7.31-6.495-11.08-12.931c-2.08-4.174 3.28-8.558 9.35-8.948zm-198.05 5.966 21.57 15.694c-15.99 1.069-34 1.984-51.96-4.784zm180.48 5.001c1.67-.069 3.46 1.671 5.59 5.153 4.08 6.692 3.58 7.997-4.07 10.604-10.04 3.424-10.84 2.725-7.74-6.396 2.12-6.211 4.06-9.271 6.22-9.361zm32.41 3.575 14.61 11.827c-7.59 20.822-12.33 47.163 4.3 84.565-1.77.148-11.93 10.54-15.15 12.339-9.18-3.66-30.57-77.973-3.76-108.731zm-16.09 16.109-3.26 22.936c-.26 1.881-16.11-10.548-14.77-16.929 2.65-7.597 12.19-6.155 18.03-6.007zm-25.69 8.485c1.89-.019 4.93 4.499 8.68 10.411 2.93 4.612 2.38 6.384-3.81 12.163-9.1 9.527-10.98 6.503-9.2-9.464.87-7.89 2.19-13.088 4.33-13.11zm19.52 20.388c1.25.004 2.36.288 3.17.913l1.45 22.259c.13 2.01-17.4-.485-19.84-8.932-3-5.383 8.43-14.259 15.22-14.24zm-22.75 19.238c1.25-.201 5.21 2.336 8.96 4.467 6.5 3.706 6.67 5.383 1.25 12.605-6.37 8.484-9.63 7.199-10.88-7.34-.46-5.338-.94-9.475.67-9.732zm25.81 8.067c.56-.01 1.07.143 1.51.505 3.14 2.594 8.28 24.84 6.33 27.205-2.78 3.369-17.79-.781-21.21-5.971-3.25-4.937 7.93-21.639 13.37-21.739zm-17.8 26.61c1.71-.147 4.82.978 9.52 3.145 2.83 1.303 7.56 3.766 8.64 5.917 1.89 3.787-1.04 9.502-4.87 14.27-2.54 3.155-5 .885-10.2-9.447-4.19-8.309-5.95-13.639-3.09-13.885zm30.3 9.455c.35-.014.66.051.94.203 5.14 2.727 4.43 11.108-1.47 17.403-7.08 7.556-13.45 2.071-8.63-7.442 3.05-6.026 6.76-10.064 9.16-10.164zm-415.64 215.142c-4.39.276-11.18 4.377-14.1 8.281-3.7 4.935-7.01 4.357-11.21 4.074-5 .014-12.57 1.252-22.77 6.121-5.79 2.76-8.43 3.405-16.97 3.988-5.57.38-11.14 1.233-12.37 1.906s-5.22 2.148-8.85 3.282c-7.43 2.317-4.73 4.388-.28 13.933 22.76 55.455 39.52 120.245 46.14 173.139 7.46 60.686 6.83 134.447-.68 190.901-20.85.508-33.96-.33-55.91.428-12.83 122.02-51.76 219.43-131.45 307.81l219.57-3.31c23.97-67.54 137.86-120.73 141.7-117.03l6.48 24.38s-82.37 13.26-136.13 119.03c5.62-3.54 26.38-1.52 40.3 12.43 26.7-35.11 71.11-58.53 71.41-58l1.42-4.2s8.17-2.94 15.36-4.44c2.31-.48 7.04-1.46 10.18-2.62 4.84-1.79 7.22-3.65 14.76-3.14 15.68 1.22 31.31-3.59 30.97-3.67-48.87-127.72-61.93-243.55-46.11-378.658 17.18-.169 54.84-.187 54.84-.187 3.12-37.938 7.25-75.914 18.25-111.876 14.12-46.171 31.38-89.163 59.69-128.696 15.95-24.796 29.94-42.487 46.46-65.755l-214.91 4.29c-27.6 48.306-81.7 89.197-125.45 106.608-14.89 5.896-17.02 5.101-19.63-1.904-4.66-12.515-4.44-11.986 7.23-15.536 3.89-1.186 16.31-8.004 35.69-17.508 41.12-21.792 68.97-60.853 85.29-87.174 6.5-10.398 2.06-7.997-9.36-7.899-10.46-.633-15.3-3.78-24.85-12.376-3.52-3.168-5.04-5.443-6.62-5.228-11.96 17.834-32.14 41.438-48.09 48.606zm49.72-41.586c9.85 10.171 21.42 16.019 36.54 17.723-23.45 38.26-52.37 68.365-85.91 86.949l-18.06-48.101c41.84-20.386 52.77-40.259 67.43-56.571zm350.59 9.215c-223.59 214.154-205.54 478.845-42.57 691.234l-16.5 10.32c-153.03-197.69-185.31-493.566 39.5-702.105zm-142.84 28.16 55.72-1.098-37.07 49.838-50.9.71zm-8.72.561-30.13 49.405-83.57 2.551c-48.93 62.547-102.13 93.577-156.46 115.069l-11.61-52.466c0 .001 86.23-22.41 140.74-112.738zm-84.88 5.54-18.99 21.776 20.48 20.111 18.01-21.103zm43.86-1.274-19.26 20.749 15.67 20.258 19.99-20.293zm-96.7 5.426-2.77 32.148 25.39 7.834 3.2-27.498zm153.61-1.514-17.82 28.966 27.6-.05 18.78-28.858zm-288.3 12.409 18.76 49.248-15.57 7.849-16.84-51.48zm-21.02 8.324 19.34 50.948-15.35 5.365-17.88-53.067zm25.66 202.048c3.31 71.271 5.1 114.239-5.72 177.128-.57 3.287-13.42.611-13.42.611 1.63.511 5.96-70.958 4.73-115.78-2.36-85.357-18.32-169.557-53.32-253.574 6.32-4.02 22.04-6.291 22.04-6.291 22.27 63.787 42.23 132.475 45.69 197.906zm-226.66-193.771c75.1 96.06 129.88 227.216 123.41 357.689-5.73 151.686-61.65 240.036-160.69 346.756l-26.03 1.06c117.42-116.63 168.54-215.57 170.43-344.953 2.16-148.802-45-246.912-123.36-350.971zm-232.35 137.973.89 35.459 248.1-111.633-36.99-52.48zm583.88-126.497-27.19 1.855 1.39 27.449 28.35-1.188zm242.49-9.499 165.76 209.577-39.57 30.484-157.97-196.899zm-126.72 16.751 48.5-.106-18.2 31.439-46.87.452zm-8.94.924c-21.57 41.858-51.49 89.681-67.41 166.396l-159.63 2.952c-.6-17.44-3.17-34.845-6.08-52.245 68.35-26.388 120.97-64.958 159.27-115.389zm29.55 1.668-20.59 12.366 12.97 14.398 22.78-9.184zm-189.73 18.633-6.4 27.18 26.05 9.511 4.21-32.236zm149.2 17.589 46.53-.54-18.9 39.465-46.1.126zm110.68-7.076 156.81 196.016-14.17 11.625-153.25-191.603zm-92.97 9.92-20.65 17.836 16.1 17.938 19.06-15.777c.41-.332-14.51-19.997-14.51-19.997zm-203.44 5.028-5.97 26.422 27.03 6.681 4.31-28.299zm-36.9 18.154-5.01 25.999 25.46 6.396 4.9-25.06zm-209.27 1.094c1.3-.283-3.69 30.903-11.74 36.651-3.85 2.746-5.87 2.191-9.32-1.396-2.36-2.47-13.21-19.477-13.21-19.477l8.92-4.685c11.24 17.279 11.08 8.829 14.95-6.135zm-41.7 18.648c3.57-.089 7.97 4.269 13.01 12.773 7.29 12.297 7.07 13.111-4.48 16.894-20.81 5.9-28.56 7.363-22.37-6.544 6.66-14.972 9.25-23.008 13.84-23.123zm62.19-3.562 14.73 24.233c-54.78 147.061-145.45 253.462-271.68 319.104l-.72-24.259c148.64-88.111 208.42-190.153 257.67-319.078zm390.19 3.676 45.16.015-11.45 34.739-48 .503zm-465.82 6.712c-35.21 88.223-84.07 165.516-183.33 231.795l-.81-23.257c111.55-69.937 158.04-198.07 158.03-198.11zm570.65-10.219c26.74.262 55.37 28.908 52.94 52.981-1.71 16.964 1.76 29.468 6.24 22.456 9.92-15.495 40.1-5.844 40.15 12.551.03 9.79-6.48 11.514-10.39 2.746-5.77-12.955-21.35-13.003-23.41.718-1.93 12.861 9.11 22.091 38.35 32.078 34.19 7.386 55.23 37.545 43.43 55.303-4.13 4.713-6.64 5.898-7.47 3.508-.24-.686-1.14-4.29-1.99-7.998-4.18-18.318-13.13-25.888-23.73-19.385-5.31 3.259-4.55 7.438-1.33 12.909 4.3 7.284 1.74 10.188-5.79 6.571-11.88-5.712-16.03-19.671-4.72-26.344 13.49-5.672 8.87-6.761-8.59-12.319-37.17-11.972-53.43-34.847-56.15-78.928.35-20.122-2.52-27.244-12.03-29.824-8.7-2.362-18.31 8.811-12 14.495 3.44 3.088 6.24 5.902 4.48 7.673-5.64 5.676-20.17-3.121-20.19-12.834-.02-6.349 2.36-7.701 11.73-15.334 2.6-2.117.28-5.98-3.58-5.969-14.44 4.936-13.75-14.29-5.95-15.054zm-83.61 6.569-22.34 13.37 12.04 16.218 24.79-12.18zm-438.92 20.497c2.59-.045 4.75 2.011 4.8 4.604.04 2.593-2.04 4.756-4.64 4.801-2.59.046-4.72-2.042-4.77-4.635-.04-2.593 2.01-4.724 4.61-4.77zm46.3 1.217c49.47 103.124 62.9 221.81 31.84 341.195l-131.59-165.095c48.37-56.438 80.43-120.64 99.75-176.1zm-173.85 10.705-113.94 50.254.89 86.08c63.36-44.898 89.77-90.185 113.05-136.334zm110.33-2.665c11.3-.551 6.26 30.081-8.24 40.759-5.32 4.233-8.96 3.79-10.88-4.455-1-4.272-5.67-13.27-11.49-20.476-6.77-8.383-6.7-8.593 2.96-9.366 10.67-.027 19.33-5.307 27.65-6.462zm-10.95 13.173c-8.35.024-10.78 3.972-5.72 9.227 4.27 4.424 7.57 3.402 10.26-3.15 1.64-3.994.07-6.091-4.54-6.077zm-205.07 115.303-1.01-73.056 97.43-43.065c-18.94 43.029-54.64 85.992-96.42 116.121zm873.1 43.625-12.84 13.377-129.65-162.964 7.58-20.994zm-697.47-154.846c4.25-.012 14.15 14.55 17.04 25.078 2.15 7.811.05 9.507-14.79 11.982-6.13 1.797-22.82.46-21.54-3.996 2.3-6.441 17.79-33.06 19.29-33.064zm459.14-6.416 46.25-.316-9.92 38.119-48.45.136zm20.47 1.952-21.26 15.284 17.32 16.478 22.56-14.494zm72.83 15.039 131.14 164.117c-37.39 49.325-74.55 105.885-98.33 180.198-47.53-105.954-66.07-209.576-32.81-344.315zm-520.42 23.344c2.6-.046 4.76 2.01 4.8 4.604.05 2.593-2.04 4.755-4.63 4.801-2.6.046-4.73-2.042-4.77-4.636-.05-2.593 2.01-4.723 4.6-4.769zm-14.63 6.603c8.01.426.91 26.047-10.98 35.556-9.36 7.496-13.51 4.169-15.94-9.202-.88-4.832-6.12-12.976-10.71-19.396-5.14-7.173-3.1-8.366 9.65-5.671 8.89 1.562 19.79-.734 27.98-1.287zm428.56-1.333 48.49-.562-6.45 57.732zm-472.37 11.005c7.77 6.987 17.86 31.805 12.94 33.692-5.72 2.194-31.84-.371-34.81-3.324-2.05-2.034-2.05-2.045 2.11-7.82 2.29-3.176 6.64-9.508 9.69-14.079 2.76-3.348 5.72-12.345 10.07-8.469zm27.01.376c-7.38.378-7.85 1.398-4.21 9.294 2.97 6.442 4.96 6.986 9.8 2.64 6.73-6.045 3.75-12.412-5.59-11.934zm851.13-10.019 2.25 28.371c-184.75 95.735-250.69 315.228-251.7 315.238l-13.97-24.94c81.8-212.255 194.47-275.284 263.42-318.669zm-877.65 49.088c11.1-.428 14.32-1.242 14.34 2.872.32 11.057-9.74 26.94-22.27 33.086-8.43 4.137-8.62 4.234-9.76-5.767-.87-7.694-3.56-17.57-7.7-25.399-1.3-2.907-6.24-9.539-.15-7.735s18.62 3.209 25.54 2.943zm24.85-3.008c2.59-.046 4.73 2.011 4.77 4.604.05 2.593-2.01 4.724-4.6 4.769-2.6.046-4.73-2.011-4.77-4.604-.05-2.593 2.01-4.723 4.6-4.769zm-59.27 7.522c2.01-.095 4 4.006 6.39 10.045 5.21 13.131 6.87 20.272 5.45 23.408-2.19 4.832-32.83 2.278-38.12-2.985-.98.758 22.01-27.736 26.28-30.468zm22.08 2.892c-4.38.377-2.01 2.976 1.37 10.571 2.35 5.258 5.41 6.057 8.83 2.282 4.57-5.049 5.13-9.006 2.15-11.075-4.35-1.658-7.54-1.84-12.35-1.778zm892.52 12.988.33 9.511c-7.3-2.037-11.85-5.032-20.17-7.639-5.11-1.613-8.13-2.772-3.74-8.193 6.87-8.493 14.31-13.859 22.77-19.196l.24 10.777c-13.57 6.302-12.14 11.872.57 14.74zm-538.92-.163 51.49-.908.6 33.994 40.27-.71-2.44 38.799-37.15.655.6 33.995-51.49.909-.6-33.995-36.78.649 2.29-38.796 33.81-.597zm116.29-1.935c-23.79 129.659 2.55 266.405 44.75 377.445l-20.26 2.59c-32.94-88.81-60.11-215.604-37.64-379.73 0 0 9.08-.324 13.15-.305zm382.24-4.237c2.59-.046 4.72 2.011 4.76 4.604.05 2.593-2 4.724-4.6 4.769-2.59.046-4.72-2.01-4.77-4.604-.04-2.593 2.01-4.723 4.61-4.769zm-905.64 26.828c1.71-.082 6.98 2.085 11.65 3.295 7.03 1.819 12.55 2.562 18.93 2.572 12.8.021 14.47-.124 9.15 10.497-3.83 7.65-12.59 17.827-18.79 20.991-8.76 4.881-12.17 4.301-11.79-4.418-.05-5.907-2.79-16.13-6.26-23.393-2.7-5.647-5.73-9.409-2.89-9.544zm54.22 3.193c2.6-.045 4.76 2.011 4.81 4.604.04 2.593-2.05 4.755-4.64 4.801s-4.72-2.042-4.77-4.635 2.01-4.724 4.6-4.77zm866.39-15.908c3.62-.142 9.89 1.973 15.61 4.631 15.18 7.049 14.81 8.735-5.33 23.567-14.61 11.499-18.1 12.82-18.94-4.885-.79-14.92.68-23.001 8.66-23.313zm-928.19 20.662c5.98-.019 13.14 30.969 7.82 33.836-8.29 4.465-34.33-3.49-34.35-10.583-.01-2.307 23.89-23.245 26.53-23.253zm910.24-17.345c3.57-.22 4.09 2.572 3.94 12.495-.08 5.254.97 13.804 1.41 17.79.91 8.277.2 8.861-6.41 5.271-4.23-2.302-12.82-6.039-22.06-6.675-7.56-.52-8.17-3.618-5.92-8.641 6.48-11.155 18.43-19.115 29.04-20.24zm-888 20.359c-5.21.054-3.87 2.804-.5 10.542 2.39 5.483 6.37 5.94 10.37 1.161 5.6-6.692 4.41-10.159-3.92-11.276-1.76-.235-4.74-.439-5.95-.427zm881.31-8.145c-2.17.24-5.1 2.006-6.51 2.959-4.85 3.158-6.8 5.404.35 7.713 6.37 2.056 9.75 2.939 9.15-2.505-.36-3.279-.19-8.051-2.99-8.167zm-483.23 12.56.6 33.869 40.99-.723-.6-33.87zm446.73-4.946c2.6-.046 4.73 2.011 4.77 4.604.05 2.593-2.01 4.724-4.6 4.769-2.59.046-4.72-2.011-4.77-4.604s2.01-4.723 4.6-4.769zm-767.28 18.823 132.25 163.701-8.21 21.8-136.29-172.877zm855.26-15.875.66 21.686c-14.42 10.948-106.01 79.818-152.02 193.83l-24.94 11.14c33.66-98.016 107.84-182.771 176.3-226.656zm-983.63 26.548c8.47 2.411 16.61 8.124 24.57 9.036 9.16.951 12.3.314 9.91 5.076-5.36 10.664-15.62 21.914-26.58 25.723-7.85 2.725-11.59 1.824-10.44-3.097 2.17-9.215 2.43-16.751 1.97-25.101 1.17-4.577-2.84-10.89.57-11.637zm-9.84 2.111c5.45 4.495 4.9 33.518-.98 39.867-3.07 3.32-12.21.5-25.97-6.98-9-4.889-10.71-7.939-6.32-11.109 7.45-4.706 29.2-22.792 33.27-21.778zm923.93-15.68c2.79-.109 6.26.313 10.43 1.191 16.18 3.336 19.84 6.953 6.29 18.111-5.01 4.124-10.3 9.232-11.83 11.179-7.24 9.194-12.5 2.712-14.4-13.717-1.34-11.5.28-18.089 9.51-16.764zm-20.15 1.918c2.62-.046 4.32 1.291 4.33 4.55.01 4.163 3.31 22.111 5.07 27.039 3.05 8.38.98 10.321-6.07 6.765-5.13-2.653-18.64-4.495-25.91-3.794-8.28.798-8.08-1.425-5.78-8.43 4.08-12.414 20.5-25.985 28.36-26.13zm-885.88 21.635c-3.15.046-3.21 4.294-.88 13.986.74 3.084 3.4 2.846 8.36-.772 5.87-4.28 5.58-6.898-1.19-10.794-2.79-1.605-4.86-2.441-6.29-2.42zm36.67.415c2.59-.045 4.72 2.011 4.76 4.605.05 2.593-2.01 4.723-4.6 4.769s-4.72-2.011-4.77-4.604c-.04-2.593 2.01-4.724 4.61-4.77zm834.34 3.498c2.29 2.153 10.61 1.916 12.01.569 2.17-2.064.98-11.451-.87-12.549-4.72-1.511-14 8.56-11.14 11.98zm-775.87 31.601c3.06 13.361 21.91 12.287 19.53-1.657-1.38-8.142-1.67-7.967 2.43-7.857 19.49.61 16.65 31.366-5.83 29.389-4.67.642-5.26 2.57-1.27 4.148 3.97 1.569 19.12 5.171 21.44 5.123 24.41-.515 60.3 36.404 60.02 69.734-.18 21.8 7.48 37.35 15.07 38.99 6.03 1.3 14.65-4.31 13.77-10.96-1.2-9.19 6.33-6.45 10.76.09 6.73 9.01-1.52 22.34-17.19 21.58-6.64 1.42 4.99 5.45 13.6 7.77 7.77.31 1.38 9.99-.03 11.72-4.3 5.17-18.76 1.53-30.2-7.38-14.05-10.94-20.26-25.82-22.42-55.24-1.38-18.91-2.86-22.73-8.23-14.82-9.59 17.58-33.44 9.48-36.72-8.85-1.83-9.71 6.62-16.89 9.54-8.11 7.67 18.21 25.58 13.49 22.33-4.68-2.14-11.983-14.28-18.401-38.16-24.673-28.7-7.539-37.37-17.165-43.35-40.491-2.64-10.325-2.35-15.758 3.04-21.276 2.65-2.727 6.06-5.514 6.06-5.514s4.09 15.692 5.81 22.964zm746.82-28.05c2.59-.046 4.72 2.011 4.77 4.604s-2.01 4.723-4.6 4.769c-2.6.046-4.73-2.011-4.77-4.604-.05-2.593 2.01-4.724 4.6-4.769zm-896.36 20.273c8.56 2.93 15.95 7.363 24.77 10.191 5.72 1.834 4.25 6.415-1.53 12.986-6.43 7.873-12.82 11.802-21.85 16.286l-.14-13.114c11-4.06 17.88-13.406-.76-16.033zm918.7-8.892c3.22-.028 7.78.009 13.15 1.019 13.6 2.561 15.21 3.738 7.24 13.406-2.96 3.583-7.35 8.987-9.76 12.018-7.81 11.304-12.2 7.551-16.18-6.81-4.9-14.981-6.06-20.739 5.55-19.633zm-875.98 20.835c2.59-.046 4.72 2.011 4.77 4.604s-2.01 4.724-4.6 4.77c-2.6.045-4.73-2.011-4.77-4.605-.05-2.593 2.01-4.723 4.6-4.769zm862.59-5.014c1.38 4.736 3.45 10.761 5.02 15.029 7.64 16.089 2.88 9.9-10.33 8.701-8.87-.805-22.95.922-26.48-1.465-1.55-1.948-.24-7.183 2.5-13.109 3.85-8.342 11-15.521 16.36-18.816 13.63-6.587 10.57 1.536 12.93 9.66zm-791.88 8.204 151.16 192.694-11.29 16.72-155.48-198.127zm925.76-15.607c-75.8 56.844-104.1 124.711-109.94 133.611l111.81-45.41zm-146.49 8.951c-4.19 1.231-10.1 9.145-7.45 12.164 1.59 1.572 7.78 1.672 10.73.53 4.55-1.758 1.23-12.797-3.28-12.694zm-643.61 222.64-30.77 40.21-167.68-209.172 40.84-30.6zm782.12-219.974 2.44 72.864-95.58 41.85c31.29-55.041 62.27-89.272 93.14-114.714zm-658.29 17.8 39.45 49.524-47.14-.23zm487.72-4.497c2.6-.046 4.73 2.011 4.77 4.604.05 2.593-2.01 4.724-4.6 4.769-2.59.046-4.72-2.011-4.77-4.604s2.01-4.723 4.6-4.769zm28.48 11.38c17.64-.069 23.54.782 18.57 9.54-6.7 8.582-10.6 16.692-17.93 24.649-4.23 4.462-9.78-4.488-14.53-18.879-3.84-11.622-2.06-14.599 4.85-14.818 6.9-.219 8.07-.489 9.04-.492zm-20.1 16.169c1.53 4.591 5.04 12.123 7.8 16.709 2.76 4.583 5.86 9.683 5.69 10.583-.41 2.18-2.47 2.39-7.14.72-10.14-4.35-33.67.85-34.34-1.37-3.59-4.94 1.43-18.665 11.18-28.283 4.77-4.698 9.15-7.777 11.71-7.867s3.09 3.451 5.1 9.508zm-824.03 10.952 170.64 213.7-11.3 14.25-172.58-217.84s-26.41 13.51-34.17 18.01l3.04 112.03-4.57-.14 10.7 567.51 91.45-94.46-8.01-385.06c20.08 18.23 37.33 37.75 60.26 55.56l38.7-.99c99.25-104.57 153.05-193.51 162.41-351.251 6.27-105.528-31.08-237.43-126.21-364.221l-22.44 14.171 46 66.73-94.17 43.737c-36.39 80.358-79.91 154.698-161.13 198.264l1.37 103.153-1.4 2.158 1.66 32.369zm815.74-6.995c-4.43.41-11.19 10.087-7.96 13.299 3.78 1.707 9.54 1.481 11.9-1.762 1.59-3.164 1.05-9.792-3.94-11.537zm-497.24 31.095 49-.59-12.07 42.26-47.73-.06zm465.38-8.4c2.59-.05 4.72 2.01 4.77 4.6.04 2.6-2.01 4.73-4.61 4.77-2.59.05-4.72-2.01-4.77-4.6-.04-2.59 2.01-4.73 4.61-4.77zm-249.57 5.68 7.29 54.47c-53.09 20.37-110.12 54.35-159.44 115.84-8.62-.41-77.31 1.96-77.31 1.96 1.72.22 61.6-117.77 67.84-168.63zm-193.95 8.51-22.19 15.83 17.89 18.41 22.97-16.16zm467.56-8.02c4.78-.11 11.19.36 16.34 1.18 8.31 1.46 9.53 1.59 6.86 8.48-3.56 9.13-11.67 25.63-13.77 26.97-7.51 4.83-24.97-28.6-19.32-34.53 1.5-1.22 4.71-1.98 9.89-2.1zm-21.3 10.75c2.17-.23 5.14 3.94 6.06 7.56 1.12 4.4 8.96 15.4 13.88 20.65 6.17 6.6 5.87 7.55-2.8 8.39-10.32 1.01-20.38 3.22-26.16 5.44-8.96 3.43-10.2 2.73-9.23-7.84 1.46-15.9 11.75-33.52 18.25-34.2zm-7.34 32.98c1.19 3.05 15.08-2.84 15.79-6.54-.16-1.65-5.82-11.13-9.13-11.51-5.58.97-7.7 13.72-6.66 18.05zm-472.77 6.19 46.31-.38-14.51 38.41-45.78.69zm20.82 4.74-21.94 14.43 17.57 16.41 20.99-15.03zm471-1.39c3.93-.11 8.1.2 9 1.62 2.53 4.01-7.09 26.82-7.09 26.82l-16.21 6.76c-3.64-7.16-9.77-14.56-11.36-22.36-.64-3.41 1.07-4.69 4.81-6.87 5.57-3.26 14.3-5.79 20.85-5.97zm-43.69 2.62c2.6-.04 4.73 2.01 4.77 4.61.05 2.59-2.01 4.72-4.6 4.77-2.59.04-4.72-2.02-4.77-4.61s2.01-4.72 4.6-4.77zm-211.14 4.38s11 56.36 11.43 50.12c-76.71 30.44-121.12 74.16-141.78 116.4l-144.89 2.45 31.45-50.75 85.77-1.94c40.57-51.04 91.01-92.07 158.02-116.28zm-18.32 13.63-6.75 22.97 21.9 13.43 7.72-24.67zm237.35-3.74c1.83-.21 3.7 2.86 7.54 9.4 2.84 4.83 6.58 11.87 6.58 11.87l-6.43 2.52c-5.54-17.76-10.22-11.04-10.5 4.73l-8.82 3.7s.7-15.21 5.61-24.18c2.83-5.15 4.4-7.86 6.02-8.04zm-472 23.95 44.91-.23-18.09 39.23-45.67-.44zm195.9-.33-3.05 28.93 24.28 4.7 2.82-27.49zm-176.74 3.46-21.93 14.74 14.89 18.89 21.09-14.72zm142.51 22.77-4.12 26.67 22.77 4.76 4.69-26.84zm-492.95 10.27 57.76 55.26 10.05 392.55-55.45 57.61zm309.13 8.92c-.2.32 45.31.5 45.31.5l-17.63 33.18-15.56-.42 20.22-14.33-13.42-16.55-20.79 14.09 12.02 16.76-30.73-.11zm293.02 4.55 16.32 50.67-18.48 3.54-14.77-47.68c5.63-3.04 11.28-4.59 16.93-6.53zm-145.59 5.75.85 30.56 24.79 1.65.46-28.67zm123.1 2.71 14.96 48.15-11.7 3.55-17.67-45.64c4.57-2.81 9.35-4.89 14.41-6.06zm-21.29 10.37 18.96 47.06c-24.86 10.6-50.44 32.78-69.6 54.81-14.67-10.38-23.22-11.35-32.2-13.6 23.84-46.35 52.52-70.97 82.84-88.27zm-273.33 16.7 47.64.6-32.25 50.05-53.86.88zm141.78-.65-2.58 28.98 25.76 14.61 3.35-29.78zm-30.64 4.6-17.79 19.47 19.64 21.63 17.25-23.25zm-40.51 1.71-21.18 20.13 17.52 22.04 19.29-22.81zm-273.96 23.27 8.88 383.49-77.75 78.06-.95-20.62 61.72-66.77c-2.22-129.74-4.92-259.46-7.64-389.19zm210.23-16.11-21.31 30.16 25.9-.39 18.27-29.17zm-131.42 187.98c-8.06 31.14-47.18 65.45-47.9 64.89 20.16 27.83 20.21 68.01 3.22 88.11.07-.45 32.05 25.16 36.72 38.67 2.59 5.36 3.71 11.93 6.96 17.25.86 1.41 3.59 4.89 3.59 4.89 75.62-79.43 37.34-170.28-2.59-213.81zm1.3 8.07c76.39 91.43 28.61 177.2 2.94 201.34l-5.13-8.14c54.42-65.54 29.47-144.44-3.56-181.42zm-7.77 18.2c.52 1.5 3.51 5.81 1.34 5.57l-3.76-.68zm-.38 10.35c1.62-.03 2.99.45 3.74 1.56 1.57 2.51-5.78 23.97-10.64 19.08-1.49-2.79-3.22-5.2-4.6-8.09-1.62-3.46-.63-5.15 2.88-8.68 2.41-2.43 5.91-3.82 8.62-3.87zm10.85 5.59c3.78.23 9.37 12.03 10.02 20.52.25.87-12.8-1.78-16.32-5.68.35-3.49 3.46-12.4 6.3-14.84zm-29.07 10.23c23.3 44.85 22.52 80.23 3.27 113.08l-15.76-13.01c10.01-24.9 14.71-51.37-3.46-84.65zm15.38 11.05c1.55-.17 6.37.46 10.66 1.75 15.14 4.55 15.88 14.39 1.51 21.88-5.96 3.1-7.85 1.81-11.58-13.2-1.84-7.43-3.18-10.16-.59-10.43zm29.39 16.83c2.91-.07 4.34 5.4 4.86 14.85.49 8.98-1.4 9.72-8.75 3.44-7.95-6.8-9.32-8.42-2.25-14.25 2.06-1.7 4.82-4.01 6.14-4.04zm-20.26 15.2c1.42-.15 5.63 2.43 9.75 5.45 10.44 7.67 8.25 13.09-3.38 17.1-8.07 2.77-7.66 3.1-7.7-10.93-.02-6.94-.51-11.43 1.33-11.62zm136.58 10.36c-12.52 3.41-17.6 14.72-13.25 24.74 1.98 4.55 4.86 4.54 1.53 7.41-3.7 4.42-5.53 14.54-1.31 18.14 4.95 2.72 6.12-2.15 1.13 7.42l-91.63 175.63 568.43-11.09-70.58-126.75c.15-.19 5.09-21.21-5.89-23.54-3.52-.75-5.59-3.98-6.35-7.08.73-8.92-3.38-12.64-6.87-17.18-53.9 8.59-100.9 5.62-139.83-2.42-56.08-11.58-96.38-32.62-122.46-39-35.96-8.79-79.23-12.12-112.92-6.28zm30.64.66c44.04-1.04 93.58 11.57 128.35 25.9 36.06 14.15 74.18 24.5 112.6 29.48 31.7 3.42 63.2.87 93.41-2.07 3.29-.55 6.73-.16 9.24 2.42 6.39 6.85 2.2 11.29-13.46 13.02-25.15 2.52-56.39 2.18-84.17-1.49-43.95-4.26-90.68-16.7-131.09-32.63-50.47-17.92-96.63-23.41-132.92-17.22-19.93 3.4-22.86 3.93-22.87-1.44-.03-10.47 8.55-15.41 40.91-15.97zm-143.79 32.91c-1.85 4.47-15.81-9.81-15.74-13.91.25-1.81 11.22-9.24 15.57-12.26 2.09-1.67 1.97-.82 2.03 1.1.18 5.47-.01 19.61-1.86 25.07zm-21.28-10.34c6.34.74 17.03 17.62 7.93 20.43-8.07 2.48-15.41 4.12-16.49-1.3 3.93-13.43 5.41-18.73 7.81-19.08.25-.04.51-.05.75-.05zm368.62 51.79c40.47 6.27 93.51 9.51 128.08 6.2 19.81-2.35 24-1.79 24.02 6.49.02 5.19.58 5.05-25.03 5.47-21.26 1.8-40.46-.15-61.09-.85-42.67-1.36-81.53-7.98-117.55-19.78-39.9-9.6-74.65-28.79-113.59-32.19-35.7-2.86-67.65 4.01-74.3 7.87-2.25.01-3.48-3.3-3.4-6.37.07-3 1.15-5.43 3.62-7.39 101.7-27.57 157.37 26.66 239.24 40.55zm-354.85-27.87c3.41-.02 2.41 5.03-2.97 15.8-4.58 9.16-6.44 9.15-9.29-.11-3.03-9.9-2.78-11 2.88-12.56 3.33-.86 6.12-2.65 9.38-3.13zm-23.75 5.48c3.99-.01 9.98 17.96 7.13 21.41-2.25 2.73-10.59 1.05-13.07-2.08-3.99-5.04.75-19.31 5.94-19.33zm178.67 1.73c15.85-.44 31.67.98 46.23 3.22-8.3 3.24-16.57 6.24-25.16 11.4-6.09-5.04-12.99-9.94-21.07-14.62zm20.98 21.57c55.45-32.21 79.85 10.48 88.07 17.29 48.77-11.7 58.45-6.54 86.28 22.49 48.6-24.83 72.72-4.88 93.41 7.65 23.62-22.85 54.04-24.01 70.1-13.03 3.06 4.91 7.29 11.13 7.66 13.01.29 1.46-1.98-.21-7.57-4.06-29.15-20.09-76.48 6.41-63.23 33.34 3.57 7.26 3.07 10.42-2.01 13.45-7.22 5.06-16.33-2.97-11.39-11.43 8.24-14.12 1.64-25.7-19.21-36.14-29.38-14.71-76.65 3.19-66.46 25.46 6.39 7.06.67 12.22-7.6 12.11-9.37-.13-12.65-6.34-6.77-13.14 7.34-8.68 5.22-17.31-3.68-27.03-26.8-36.77-79.44-21.08-71.86 11.43 3.22 8.06-5.47 11.48-14.61 8.04-5.81-2.19-5.11-11.14 1.16-14.4 7.26-.86 8.1-11.41 7.11-18.16-1.43-9.81-16.11-19.25-30.55-24.14-10.46-3.54-20.12-4.17-27.72-3.34-16.05 1.76-24.83 12.83-21.9 29.14 1.73 9.63-.79 19.68-12.21 14.58-6.25-2.8-4.82-9.84 1.4-16.42 21.87-22.12-23.41-47.78-50.15-29.08-4.52 3.85-7.85 4.56-7.85 4.56 16.22-42.54 70.04-3.92 69.58-2.18zm73.65-6.99 34.04 12.14c-7.77 1.67-13.22 3.97-18.71 6.26zm-88.07 15.29c-31.31-5.36-32.39 29.54-11.95 34.87-27.3 38.93 46.23 52.56 31.95 5.36 37.24 6.04 29.78-36.09 2.18-35.21 6.18-15.86 57.35-4.83 55.36 6.9-34.39 4.26-20.07 35.41-5.16 35.18-35.43 34.74 37.22 64.91 34.4 13.53 29.03 5.57 31.75-32.88 3.9-34.92 9.93-14.5 46.46-6.11 56.83 10.09-28.63 4.32-26.39 29.49-3.86 33.17-27.83 36.74 42.46 48.9 34.44 6.9 25.26 8.19 38.44-25.55 5.75-34.55 32.97-20.43 69.66 8.51 65.76 9.18-38.06-1.57-29.82 36.39-2.34 33.84-16.81 39.86 52.59 40.84 34.28.12 31.2.03 27.83-36.08-2.1-37.97 18.58-14.05 39.78-15.63 53.66-3.03-28.32 7.98-15.91 40.84 12.54 31.18 3.14 27.62 25.53 21.36 26.02 20.51l20.79 37.2-545.41 10.5 45.04-86.74c27.54.93 26.09-25.54 24.87-26.17 18.53 12.74 37.63-20.07 10.7-28.91 21.46-23.27 54.26-2.71 52.35-1.03zm-177.6.74c-1.11 1.19-1.4 1.89-3.3.18-4.86-5.35 8.07-6.04 3.3-.18zm113.04 12.4c2.44 1.93.88 7.34-1.04 9.22-4.82 5.35-6.49 4.96-2.32-4.21 1.23-2.77 2.4-5.02 3.36-5.01zm239-1.78 28.48 6.36-13.33 7.83c-5.07-5.32-9.94-9.9-15.15-14.19zm88.83 9.85 30.88 1.43c-4.03 2.84-7.98 5.49-12.88 10.64-3.96-4.06-11.38-8.06-18-12.07zm103.3 29.64c1.78 3.55 8.81 15.87 8.17 16.21-9.94 1.91-12.88-12.89-8.17-16.21z" fill="#100f08" transform="matrix(.154434 .00272539 -.00272539 .154434 -232.9254 15.068)"/></g></svg>