<svg clip-rule="evenodd" fill-rule="evenodd" viewBox="0 0 228 316" xmlns="http://www.w3.org/2000/svg"><path d="m2913.71 495.563c0-5.866-4.76-10.629-10.63-10.629h-201.96c-5.87 0-10.63 4.763-10.63 10.629v290.552c0 5.866 4.76 10.63 10.63 10.63h201.96c5.87 0 10.63-4.764 10.63-10.63z" fill="#fff" stroke="#bfbfbf" transform="translate(-2688.428 -482.879)"/><g fill-rule="nonzero"><path d="m5296.81 1126.3 351.79 7.51c31.16 42.77 93.73 129.99 93.73 129.99l-568.37 7.48zm-147.21 29.78c15.19-30.48 18.13-59.85 15.24-102.17-2.28-32.48 18.17-57.779 39.26-48.09 16.31 7.5 8.78 38.23-8.08 31.73-6.46-2.49-12.12-.23-11.26 14.36 1.51 35.98 11.15 76.49 2.86 110.98-5.78 33.51-52.14 18.07-38.02-6.81zm-142.43-46.99c-17.91-26.71 14.18-51.73 34.27-39.4 9.53 4.43 8.18 14.07-3.83 8.93-16.75-7.17-34.8 18.2-20.21 28.4 6.71 4.69 9.27 4.06 4.16-1.81-13.59-15.71 21.18-22.66 20.17-12.31-2.37 12.61-2.67 17.91-3.83 20.39-7.08 11-20.68 5.38-30.73-4.2zm49.95-112.292c-19.35-24.001 2.83-42.873 2.54-42.187 5.74-6.181-46.09-102.211-39.54-102.836 65.46-6.925 131.61-1.698 197.21.334.02.005-34.97 62.521-48.92 93.458-5.61 12.465 7.52 27.137 2.08 36.397-16.88 18.346-6.38 38.666-16.91 39.576-29.53-3.77-58.72-8.64-91.47-2.12-2.42 0-2.67-13.7-4.99-22.622zm283.35-667.221c33.1 167.462-15.7 344.979-127.57 462.089-15.79-15.08-27.9-43.705-43.65-62.378-43.72-13.05-75.18 2.31-105.83 17.35-27.24-15.602-57.92-24.781-87.83-24.388l-.96-25.898c30.26-.65 62.21 2.129 89.16 18.704l42.16-17.008-131.47-135.565 1.79-23.166 159.52 159.993 20.54.727c-45.15-119.297-5.65-308.78 184.14-370.46zm222.43 210.055 23.06 109.358s-121.93 130.555-197.31 192.531l-56.8-5.139s77.59-137.193 63.36-126.705zm458.36 149.986c-54.15 60.273-118.85 98.596-190.7 140.824-28.73-31.901-63.59-66.987-83.72-98.442 62.68-33.299 122.43-59.093 183.81-117.376-3.36 3.764-78.3 29.045-78.05 26.134-2.71 12.44-1.08 20.113-13.27 23.388-14.44-20.044-28.4-36.31-51.16-45.269-9.54.854-22.22-5.413-22.22-5.414 6.38-1.299 3.57-78.208.02-79.094 0 0 1.87-2.281 18.54-1.947 29.78-2.034 49.02-37.84 67.49-50.102 57.73-4.721 108.87.934 165.74-.595-.43 68.456 3.54 139.432 3.52 207.893zm-366.6-173.38c-1.45-2.903-16.02-116.335-2.17-187.467 2.54-16.685 28.99-22.345 34.06-34.771 8.41-27.016-4.23-60.38 2.44-90.661 6.78-30.821 21.43-48.158 34.24-71.069 13.89-24.816 33.76-55.781 55.79-74.29 6.47-6.289 29.05 13.981 45.93 49.022 49.02 30.711 111.88-8.919 111.88-8.919s24.4 19.803 79.57 30.626l-.95 21.309c-.27 6.198-62.05-6.597-75.35-18.965 0 0-46.08 15.34-46.08 18.141.01 11.939 121.67 124.085 121.67 124.085l.68 27.651c-18.24-25.261-160.93-146.677-160.93-146.677 31.63 184.727-43.93 299.77-200.78 361.985zm-204.14-36.154-2.73-108.789 103.97 1.23 4.28 109.923zm-475.75-117.592c2.77-3.86-4.05-202.76-3.62-202.76 66.17-65.498 130.89-102.106 195.78-141.927 29.34 28.916 54.27 53.312 75.89 88.341l-89.52 54.864c3.4 13.37-5.43 18.189 52.28 70.246.97-3.564 19.99-14.16 23.31 1.692-7.82 33.46 3.47 61.905 4.95 79.893-7.88 10.54-25.5-.775-25.5-.775-11.4-11.824-56.07 46.552-68.82 53.076-55.65-2.067-167.87 1.69-164.75-2.65zm626.34-354.672c.73-.709 56.59.428 55.84 2.423-10.17 27.152-35.44 75.353-58.56 130.966-26.64 47.402-63.59 75.323-95.15 106.386-25.22 24.835-47.71 63.967-64.94 53.812-10.52-33.642-12.95-63.479-24.55-100.752-5.31-22.084 26.94-36.472 187.36-192.835zm244.46-186.494c20.46 8.688 77.95 4.141 87.08.233 11.69 7.895 4.39 18.427 2.91 24.272 12.01 15.123 18.58 20.487 4.95 44.867-3.11 0 41.9 100.892 43.11 100.963 0 0-47.57-22.474-64.35-37.654l-32.82 43.435-38.12-49.044c-.14 4.426-73.45 52.851-74.34 50.515-2.31-2.304 66.95-76.524 53.21-120.099-3.31-10.501 4.27-21.173 9.45-30.424 3.55-6.35-1.23-18.624 8.92-27.064zm-38.06-9.04c3.11-3.549-17.78-94.778 4.86-131.599 9.59-13.389 26.94-14.072 34.18-3.113 5.55 15.245-10.96 36.466-14.27 46.83-10.74 28.877 5.2 66.97-2.58 94.258-23.3 59.61-64.57-5.865-22.19-6.376zm155.12-40.515c-12.28.535-3.7-36.008-1.68-46.474-.05-2.072 22.48-7.307 30.6 7.063 13.11 21.479-2.65 48.57-28.91 39.411zm-146.47-184.226-115.7 140.09c-116.99-13.408-234.39-21.923-354.01-3.696l-96.21-133.619z" fill="#e2cf00" transform="matrix(.151838 0 0 .151838 -720.972 92.107)"/><path d="m2140.88-217.938-1070.44 3.313 11.75 1699.245 1068-6.31zm-246.29 10.407c11.74.003 23.49.031 35.22.062l-128.15 156.969-3.16 1.051c8.54 24.907 20.73 55.96 32.38 79.543 18.53 38.114 65.13 108.157 36.06 164.187-2.85 4.802-5.5 7.142-9.06 7.125-4.94-.023-4.85-2.911-1.91-8.531 6.47-12.379 10.87-41.722 8.28-57.25-1.65-9.911-7.18-25.188-17.69-48.281-48.7-89.549-63.92-137.28-61.15-137.282-.64-.404-1.73-.954-3.5-1.375l-4.79-1.583c16.88 56.609 44.3 104.205 66 148.271 17.81 40.955 19.72 56.845 10.41 86.656-3.6 11.544-10.12 18.937-16.53 18.907-4.8-.023-4.53-.987-1.25-6.844 17.06-30.496 13.11-63.78-8.09-102.5-30.8-63.952-49.28-104.41-60.25-145.438-.28-.016-5.62-1.802-7.55-2.26 9.14 42.704 34.66 91.955 58.42 142.354 19.64 38.81 25.3 67.096 18.22 89.438-2.32 9.684-9.73 24.107-19.09 24.531-3.66-.018-4.24-1.921-.79-6.906 14.56-24.859 17.15-47.781-8.9-99.969-23.95-47.983-47.98-101.681-56.19-148.594-.52-3.849-10.93-8.41-8.69-2.031 12.86 55.411 38.47 112.149 65.66 167.469 15.31 34.339 16.89 56.317 5.41 75.531-6.43 10.742-8.06 13.186-12.88 13.29-5.69.122-5.59.334-2.45-6.198 13.89-28.881 11.61-54.324-6.96-96.061-25.46-57.234-46.9-104.598-56.06-154.969-1.64-.469-10.26-3.802-9.03-1.281 12.73 47.985 29.03 92.52 50.03 137.563 7.32 15.625 19.18 46.02 23 61.25 7.26 28.993-9.11 68.804-30.53 70.812-7.98.749-6.99-3.218 1.91-11.469 15.32-14.207 18.29-36.866 13.09-63.156-3.9-20.241-10.63-41.961-19.87-64.031-18.7-44.633-39.04-91.333-45.47-132.532.21-3.69-8.36-3.701-5.94.157 4.62 28.967 15.66 61.956 27.75 92.594 13.23 33.522 32.91 71.081 39.35 112.222 5.28 33.661-15.8 65.436-41.37 67.335-30.79 2.288-36.86-28.096-29.45-42.339 12.08-21.263 47.19-9.117 36.75 12.625-6 12.516-24.34 9.229-23.56-4.5-.21-1.248 1.76-5.014 1.4-5.218-.63-.37-3.32 2.089-4.18 3.625-6.24 11.114 12.49 26.028 25.5 17.093 43.6-23.547 14.16-95.352-4.85-139.218-18.4-40.869-31.89-77.801-37.75-115.626-1.59-1.102-8.78-2.923-7.78-1.625 5.28 20.192 7.72 37.222 12.97 54.188 8.24 26.607 23.01 56.387 35.06 86.219 10.95 29.357 21.95 54.296 16.94 84.906-.47 2.826-1.63 6.22-3.56 8.281-1.96 2.048-3.58 1.732-4.16-6.062-.2-1.062-1.57-2.461-1.78-3.813 1.07-11.499.29-22.9-2.69-33.718-2.54-9.059-7.4-18.307-17.65-35.907-4.04-6.554-14.62-26.59-10.91-12.744 2.13 7.831 9.39 25.234 16.94 37.838 4.69 7.824 9.62 29.186 8.16 33.313-1.54 4.035-5.12 4.264-6.79 2.875-1.49-1.251-1.49-6.968-1.87-10.5-1.58-14.513-16.48-39.84-26.81-49.782-7.43-8.262 17.48 35.125 19.31 46.688.77 4.897 2.3 8.879.62 11.281-1.1 1.582-3.34 1.592-5.53 1.031-2.1-.539-2.01-1.989-4.25-9.437-3.82-12.747-8.54-19.167-18.34-30.656-3.36-3.937-5.6.988-.25 7.375 7.4 11.652 12.96 19.101 14.84 34.093-4.79 6.792-7.15 5.471-17.19-11.718-6.62-11.356-10.6-14.271-12.34-14.188-4.4.211-.24 5.635 12.1 25.031 6.39 10.351 6.54 16.785-.72 16.75-2.47-.011-16.27-15.154-19.72-21.718-2.87-5.447-6.43-9.625-6.44-2.969 0 2.644 8.55 16.576 14.41 23.344 9.23 10.666 11.88 12.808 13.06 17.531.56 2.252 1.68 6.187 2.47 8.75 2.37 7.676 1.16 9.869-3.63 5.812-2.16-5.687-3.92-6.276-9.87-10.656-5.02-3.692-11.97-13.254-16.53-20-1.73-2.546-3.21-5.777-4.97-8.373-4.47-8.342-10.42-9.065-6.11-.649 2.03 3.902 5.33 10.306 8.79 15.053 5.81 8.238 4.61 12.533-2.28 12.5-2.94-.014-11.19-10.791-16.34-19.218-3.36-5.496-8.61-9.383-7.97-3.938.16 1.353 4.22 11.011 10.31 18.563 6.62 8.202 7.49 12.561 1.07 12.531-4.39-.021-8.16-4.191-13.75-12.688-5.31-8.072-8.63-10.917-10.13-10-1.9 1.164 7.62 17.168 15.44 25.907 7.4 8.265 1.97 12.973-6.53 5.625-4.61-3.987-13.85-15.88-16.44-21.532-4.63-10.105-7.62-7.347-4.62.657 3.29 8.826 8.44 18.478 14.65 24.75 3.26 3.285 9.97 5.861 13.25 8.687 9.29 8.007 15.17 15.397 14.41 16.719-26.48 1.489-48.21-26.671-54.16-43.719-4.22-11.21-9.04-12.861-4.47 2.969 12.91 39.325 53.15 59.751 80.97 42.125 16.79-10.637 1.96-38.334-11.78-29.406-3.73 2.425-3.9 9.302.84 5.625 8.93-6.915 17.9 10.14 8.16 15.187-13.69 7.093-28.88-6.792-19.56-23.625 9.2-17.285 46.09-7.39 38.87 20.531-4.37 12.533-23.52 28.192-39.94 28.5-30.5.573-51.56-22.736-63.31-45.75-1.5-2.962-4.2-8.781-6.43-13.529-1.93-4.104-3.45-7.151-3.61-7.12 3.39 27.947 30.18 62.5 54.17 68.212 39.86 9.338 50.76-14.34 76.84-38.813 0 0 19.05 2.47 19.72 2.063 1.76-1.074 37.08-2.647 38.12-1.656-142.68 257.836-131.82 563.938-9.12 796.282 8.11 17 9.53 13.78-3.91 10.31-13.88-3.61-26.47 1.94-37.75-.66-23.32-4.74-28.29 11.13-46.22 19.6-22.35 8.42-17.29 23.9-22.62 38.87-1.68 2.32-2.9 4.22-1.98 3.91 1.48-.49 6.25-4.88 6.6-8.75.92-9.91 4.47-17.74 8.5-21.69 3.85-3.76 6.54-5.65 7.47-4.03.73 1.27.19 5.7-1.71 9.28-5.43 10.22 1.76 44.37 2.21 20.06.36-19.29 12.09-40.8 28.5-49.6 13.14-6.41 17.22-5.76 6.52 4.11-12.15 12.91-20.42 27.95-20.9 46.67-.2 7.77 2.89 14.24 4 7.28-.47-35.65 35.27-75.36 73.6-55.62 1.91 1.37 3.53 3.96 2.96 5.41-37.12-6.2-69.42 14.01-64.66 61.87 0 0 3.33-9.38 5.2-18.74 5.85-29.3 39.11-42.13 62.44-34.09 4.39 1.84 7.83 8.01 7.22 8.84-28.53-8.92-59.84 17.95-61.66 47.06-.59 9.47-.36 17.59 4.5.5 18.42-64.68 75.26-35.36 68.27-30.06-43.98-5.23-59.91 24.27-58.89 58.38.63 3.11 2.23 4.15 3.56 7.06 5.86 12.85 8.53 23.86 9 47.18-.45 6.01 4.54 44.26-.49 42.64-15.97-5.88-28.12-12.84-55.8-.43-2.49.13-3.31-1.23-2.46-3.39 1.15-2.89 5.48-8.61 13.03-17.07 17.01-18.07 7.24-13.22-6.74-.69-9.03 8.09-7.07 2.56 1.43-25.08 3.45-11.2 1.3-12.56-13.53-20.07-15.27-7.73-25.84-8.91-12.88-.81 5.08 3.1 10.51 6.35 16.27 8.64 6.76 3.68 5.99 5.23 1 21.37-9.69 31.37-13.06 42.83-12.55 63.93 1.24 51.31 50.3 46.22 78.23 34.68l1.17 33.78 105.19 147.66s-367.72-.38-564.46 2.84c11.23-26.88 130.17-140.75 137.25-161.12.67.1-13.19-41.63-20.47-59.78-34.4-85.72-79.61-121.75-53.43-178.07 5.63-11.16 6.61-14.92 10.9-14.9 5.8.03 7.67 3.87 1.13 14.79-28.11 46.98 31.87 128.05 52.13 179.75 3.25 8.28 16.83 47.08 19.21 60.14.23 4 9.75 5.36 7.09.69-7.47-26.42-16.85-55.27-21.21-65.65-16.02-38.18-32.87-64.22-48.48-101.53-8.72-23.58-13.37-50.81.17-75.25 4.92-8.9 6.33-13.85 9.58-14.32 2.8.02 4.45.97 4.63 3.25.19 2.5-1.35 6.6-5.04 12.85-23.63 40.09 18.38 104.87 39.19 151.06 13.57 30.11 25.64 61.78 29.91 90.34.06 1.98 2.67 7.21 7.88 3.64-9-53.36-35.46-105.09-58.64-154.94-19.8-38.94-27.23-72.89-.77-104.95 2.3-2.21 7.24-1.84 7.59 1.44.19 2.23-1.52 6.46-5.66 15-23.31 48.59 12.79 88.05 29.72 134.38 16.53 38.73 31.89 71.26 38.07 112.53 4.67 1.77 6.98 3.98 7.48-1.87-12.08-58.31-38.13-110.73-60.73-161.23-10.45-21.94-14.14-32.46-14.85-47.15-.97-20.21 9.23-45.78 18.39-52.52 2.37-1.75 3.85-2.06 6.02-.89 2.97 1.61 2.37 2.68-3.5 13.75-11.22 21.15-12.18 44.91-1.78 70.03 17.96 38.59 33.1 70.26 43.83 98.63 11.73 31.03 18.33 57.98 20.99 82.3 0 0 7.99 3.54 6.8-1.75-4.98-34.03-16.26-69.34-28.44-99.22-11.49-28.2-25.89-55.34-37.56-83.3-14.15-33.53-2.43-70.18 26.59-88.49l13.36.29c-.78-.35-30.45 11.4-32.01 53.67-1.48 40.28 17.66 65.04 31.5 99.15 16.87 41.16 31.97 77.25 35.56 121.22 1.32 1.53 8.63 1.86 8.51 1.21-3.59-29.58-12.26-57.7-24.63-92.27-13.15-36.73-26.24-53.02-38.44-91.59-8.26-26.1-7.14-61.44 11.25-77.6 27.53-27.72 65.94-7.98 56.31 23.75-7.42 22.34-38.11 17.9-37.95-3.03-.03-13.51 16.65-17.17 22.17-6.97 1.29 1.99 2.15 10.68 2.72 11 .57.33 2.3-6.83 2.31-8.44.06-11.09-15.06-20.44-26.31-14.81-15.41 7.72-25.42 25.47-24.41 49.22 1.08 25.27 5.68 41.61 26.42 81.24 24.16 46.16 32.18 96.15 37.34 129.84 2.23-.93 4.91.26 5.77 0-3.52-45.92-18.65-93.09-37.54-132.3-22.87-47.5-29.27-76.56-21.64-97.84 1.12-3.13 2.18-5.48 3.56-5.69 2.56-.38 3.35 3.7 5.72 12.22.73 2.62-.19 6.73-.72 9.91-1.99 19.48 11.7 59.99 24.44 78 3.73 5.13 8.49 4.96 4.37-4.16-13.12-23.54-21.1-44.88-22.15-73.5-.31-8.41 9.52-4.63 9.74-.41.71 13.67 2.08 29.77 8.63 41.23 13.3 22.67 20.71 23.66 7.09-1.66-3.02-5.88-11.67-30.71-8.18-39.25 1.94-1.74 4.3-2.05 5.47-.31 3.85 14.03 9.17 27.94 18.59 38.75 4.94 5.62 5.75 3.08 3.16-3.94-4.34-8.13-17.91-35.31-11.66-41.44 2.02-1.66.83-.76 6.31 8.16 7.63 12.41 11.79 17.27 15.5 20.9 4.94 4.83 6.13 1.58 1.03-6.9-10.18-16.95-15.97-31.03-12.39-34.57 3.53-3.5 4.39-1.88 12.43 11.76 3.57 6.06 8.75 15.01 10.53 17.12 1.76 2.1 3.37 2.64 3.4.91-1.87-16.46-16.06-35.24-21.78-38.5-.82-1.53-.53-14.53-.53-14.53 21.32 10.93 22.19 23.27 36.31 42.28 1.46 1.41 3.53-.32 2.91-2.94-.5-3.56-8.85-19.37-14.1-26.31-4.12-5.46-4.3-8.59-.81-10.16 5.65-2.54 13.54 5.82 21.94 20.75 3.9 6.93 9.11 10.95 9.13 7.31 0-2-7.25-19.87-12.26-25.03-8.33-8.6-4.21-14.61 5.44-6.65 4.38 3.61 10.32 6.32 16.44 19.46 3.57 7.68 6.64 8.66 6.66 2.54.01-6.89-11.6-23.7-19.41-28.35-6.05-3.6-9.48-7.63-7.78-10.31 5.3-7.76 26.74 12.03 34.06 30.44 2.16 5.43 5.95 8.2 6.88 5.81 1.64-1.22-2.7-14.48-7.16-20.63-7.36-14.04-24.75-27.6-35.06-25.96-2 .31-7.47-11.19-7.47-11.19 26.29-4.23 51.83 27.11 56.37 38.84 8.63 22.26 13.01 19.65 5.47.13-14.73-38.15-60.5-59.52-85.9-41.07-14.47 10.51-5.82 35.65 9.06 31.38 5.92-2.2 11.65-8.2 1.24-6.23-11.57 1.16-15.26-16.38-3.46-19.9 18.98-5.65 23.33 24.45 8 31.16-15.91 6.79-31.74-3.34-30.25-20.72 2.82-32.86 43.37-42.36 83.41-15.78 11.26 7.47 25.11 31.85 29.87 47.28 1.58 5.11 6.88 6.89 7.53 6.25 1.52-1.51-11.12-28.64-15.28-35.53-17.43-39.73-80.46-41.7-80.46-39.64 0 0-24.68 15.46-46.61 40.94l-56.33-5.16c143.52-229.41 154.8-566.703 7.59-805.484 1.88 1.21 28.3 8.01 37.41.875 6.71-3.202 8.64-4.311 16.06-1.656 8.35 2.989 17.15.344 26.25-7.938 6.85-6.24 6.99-8.163 11.4-7.593 13.07 1.686 21.75-5.927 24.44-24.688 1.06-7.37 1.79-15.026.72-13.906-.62.65-2.13 7.026-3.09 11.031-2.65 11.023-5.1 15.061-9.41 18.656-7.11 5.924-11.21 2.61-8.25-6.375 2.81-5.798 5.14-20.715 1.28-27.5-.67-1.219-.84 3.398-1.81 7.094-7.76 29.396-15.89 44.32-29.95 47.764-6.6 1.617-9.65.616-7.52-3.168 24.81-26.309 23.15-55.465 21.28-52.971-5.27 16.869-15.07 42.009-31.16 52.344-13.89 8.923-34.24 9.775-45.56 2.281-6.42-4.254 3.29-5.514 17.84-5.709 24.5-.329 47.41-32.897 43.6-60.353-.89-5.074-2.29.372-4.28 8.718-9.04 29.732-24.55 50.605-59.97 44.375-2.77-.487-4.62-2.303-6.13-3.343-5.76-3.98-3.64-6.708 7.82-5.219 25.62 3.329 47.92-20.576 47.78-49.469-.07-13.863-2.06-13.7-4.28-3.375-3.12 14.557-14.5 59.207-55.94 44.625-7.46-4.028-11.53-9.179-8.88-9.937 24.17 4.851 46.32-.436 54.93-32.032 3.71-13.642 2.82-26.963-.96-38.125-1.2-7.581-3.76-13.361-4.62-21.062-2.31-20.633-5.62-43.419-4.63-66 1.99-1.964 2.33-1.535 9.28 3.062 13.66 9.029 24 6.948 37.88 1.594 17.87-6.423 16.25-5.262-2.44 15.75-3.89 4.382-7.83 9.73-8.28 10.563-4.76 8.866 4.16 2.356 10.84-6 9.29-11.614 11.24-14.291 13.07-14.282.62 12.553-3.93 27.809-6.28 38.094-3.09 11.409-3.05 14.041 4.25 16.969 3.16 1.268 9.26 3.762 12.65 5.375 15.28 7.267 13.88 1.352 1.69-5.5-16.45-9.253-16.59-8.788-11.88-24.156 5.52-18.024 8.24-33.631 11.22-51.469 7.39-44.11-26.03-68.373-70.43-52.969-2.54 1.272-5.48-23.186-5.07-29.656.39-2.335-6.71-1.824-12.53-8.938 1.78-1.578-65.46-85.449-96.78-136.312 175.58-.217 351.96-3.166 528.06-3.125zm-109.18 157.593c.43.274.68.5.68.5-.28-.34-.52-.5-.68-.5zm152.18-153.593h188.32l2.71 405.625-16.68.406s-31.44-53.844-39.72-79.281c-2.07-6.354-5.69-15.098-7.1-18.531-3.19-7.782-5.43-8.745-1.18-13.5 8.5-9.523 6.83-28.783-1.44-38.063-2.56-3.013-3.88-1.993-3.75-9.312.11-6.295.7-10.318-.97-13.563-2.79-5.423-4.68-5.808-.69-11.781 4.19-6.255 9.75-16.405 12.1-24.375 3.79-12.869 1.12-15.276 9.56-12.25 21.19 6.718 38.93-8.337 38.38-29.616-.47-17.908-17.29-33.872-36.85-28.978-4.51 1.128-5.4.744-12.34-3.594-1.99-1.243-5.02-3.868-7.6-4.844-3.22-1.221-5.88-1.116-7.22-3.406-2.62-4.498-10.8-11.646-20.78-11.187-6.08.28-13.99-1.909-16.09-3-3.47-1.808-13.23-.337-25.63-2.188-5.51-.822-9.95 1.312-12.62 1.344-7.63.091-4.52-.849-5.97-6.625-9.56-30.115-37.51-26.526-50.31-3.875-4.7 8.887-8.1 22.074-9.88 35.687l-75.25-1.125zm-582.37.875c28.11 35.609 55.01 75.521 83.34 111.875 34.87 44.031 36.03 49.092 26.66 93.406-5.24 25.045-7.48 30.83-18.1 28.938-9.96-1.777-18.39 6.026-19.74 15.906-2.55 18.548 15.4 29.966 33.43 20.687 9.51-4.892 9.83-5.421 6.66 10.75-4.54 23.17-13.64 43.121-19.5 42.469-15.12-31.96-51.91-9.22-39.69 24.006-3.83 5.801 1.2 13.153 3.12 19.227 0 0 .08.721-20.93 7.642-103.17 30.415-230.95 109.812-300.72 184.344l-4.75-557.719zm592 76.093c4.33-.109 8.5 1.266 11.94 4.344 8.99 8.049 6.88 19.294-5.57 40.469-13.05 29.5-9.49 52.742-6.5 83.719-.08 17.988-6.18 35.08-15.9 42.469-15.75 11.973-35.17-4.062-27-20.313 4.18-8.074 13.07-3.366 15.15-11 .75-4.566.67-11.752 1.16-15.156-1.88-13.581-5.77-55-5.78-69.375.16-12.387 4.24-27.938 9.87-39.594 5.51-9.715 14.37-15.353 22.63-15.563zm24.81 48.134c-3.57 2.964-9.53 3.028-10.23-.676.02-3.878 3.06-16.249 5.17-17.614 12.9-3.005 8.79 15.091 5.06 18.29zm19.28-19.29c10.66-.416 17.69 26.758 8.44 42.656-1.76.33-14.69.246-14.75.5-.22-2.843.63-8.51 1.59-13.937.83-4.644 1.31-8.169-.09-13.156-3.5-12.448-5.78-14.787 4.81-16.063zm20.31.375c.39-.011.81-.002 1.26 0 10.82.051 16.98 20.89 13.59 43.656-.49 3.27-.77 6.7-1.97 7.469-4.52-1.222-17.09 3.244-17.31 3.208-1.18-1.203-.7-7.679.9-13.52 2.97-10.801 3.8-17.99.32-29.157-2.51-9.654-2.6-11.493 3.21-11.656zm26.97 6c11.9 1.993 12.67 34.834 7.79 45.5-1.17 1.574-5.66 1.194-7.26 1.781-10.11 2.888-7.86 4.392-6.68-11.656.8-11.01 1-19.564-.66-28.656-.8-3.989-1.13-6.767 1.78-7.031 1.69-.338 3.49-.282 5.03.062zm-59.34 12.844c4.74 6.472.92 21.449-2.69 27.01-4.13 6.136-5.78 6.644-3.53 9.334.96 1.138 2.95 6.939 1.72 9.375-2.27 4.509 3.55 5.318 8.84 8.062 8.58 4.477 12.75 12.729 19.15 27.75 2.23 5.233 6.81 3.584 4.59-2.05-1.9-4.825-2.64-11.927-3.95-16.668-1.38-4.868.13-7.305 5.76-5.876 8.47 2.147 7.3.136 10.39-.999 6.8-3.752 11.36 1.558 7.25 4.5-2.36 1.688-7.38 2.712-12.94 4.238-4.72 1.294-3.63 5.832 1.12 5.812 4.39-.018 16.96-3.541 25.16-6.019 23.51-7.102 24.3-10.878 22.1 2.469-2.9 17.653-12.55 30.895-28.5 35.375-13.88 3.899-45.94 3.151-60.22-1.407-13.56-6.133-14.46-10.42-18.56-22.343-5.62-16.318-8.92-43.943-2.47-60 5.68-13.557 5.11-12.134 10.56-11.451 4.85 1.689 11.37-.189 12.81-3.156.74-1.414 2.58-4.001 3.41-3.956zm90.03 9.781c1.34 7.26 1.46 14.724-1.06 20.344-1.46 2.636-9.7 2.494-12.88 2.531-1.88.44-1.73-24.533.28-27.25 4.79-7.172 10.98-1.408 13.66 4.375zm-238.53-4.312 23.28.281v5.656l-27.47-.187zm81.47.968.03 7.344-35.06.063v46l39.22.125.21 9.562-52.5-.187.16-62.875zm178.22-1.468c35.94 7.891 19.91 47.595 6.44 50-16.8 2.998-31.04 1.108-26.38-13.657 4.67-10.005 1.43-22.468 2.75-31.562 3.24-2.999 11.7-5.986 17.19-4.781zm-271 13.937 34.59.344v7.594l-39.53-.094zm76.84 7c5.52 0 10 4.477 10 10s-4.48 10-10 10-10-4.477-10-10 4.48-10 10-10zm97.6 3.969c6.43.703 6.98 10.544 4.36 13.421-3.37 3.341-9.66 1.916-11.58-3.202-1.74-4.62 2.14-10.419 7.22-10.219zm-184.1 4.281 44.25.125v6.156l-44.69.375-1.18-3.968zm249.1 2.656c6.13-.145 9.89 5.015 6.06 9.407-5.78 6.412-17.56-3.401-6.06-9.407zm-471.53 13.448c-9.9 8.355-1.97 16.569 11.19 8.656 28.3-17.021 70.03-3.53 97.24 10.646 5.33 2.73 6.06-3.633.81-8.031-25.13-22.121-78.7-34.806-109.24-11.271zm428.78-11.631c6.92.033 6.82 8.643 2.38 11.719-4.44 1.924-5.21 1.386-8.16.239-4.04-1.572-1.02-11.922 5.78-11.958zm24.48.131c8.2.404 7.28 16.881-5.09 10.937-4.48-4.818-1.58-10.969 5.09-10.937zm-228.7 8.49 43 .375v7l-40.22-.406zm-277.91 16.469c11.75 9.321 8.11 9.889-11.38 3.031-12.73-2.837-25.4-1.026-33.37 2.125-9.43 3.728-11.61 2.652-7.53-3.656 10.97-12.305 41.19-9.82 52.28-1.5zm56.5 15.437c-1.18 2.908-5.2-2.328-10.66-1.312-7.77 1.449-5.52 1.815 2.69 11.156 8.22 9.348 10.91 11.559 10.41 15.156-.74 5.299.75 8.21 6.03 7.625 2.54-.281 5.55 2.656 9.44 6.188 13.45 12.225 20.25 18.3 24.62 20.187 17.82 7.688 9.79-.985-1.59-8.843-18.98-13.1-25.58-21.829-12.1-17.157 14.33 4.965 37.13 2.149 48.35-4.616 5.52-3.331 9.02-8.438 16.81-5.946 10.94 3.499 15.13-2.949 12.09-6.563-4.96-3.184-16.3-6.983-27.06-14.218-23.03-11.684-47.24-11.339-63.37-1.938-9.51 5.541-12.82 1.646-3.5-3.844 37.39-20.151 66.96-.85 90.9 13.625 4.15 2.519 7.05 2.314 7.06.532-.63-5.849-11.28-9.44-15.59-12.063-33.35-20.293-68.4-26.764-94.53 2.031zm227.03-17.844 37.38.032v7.375l-34.63-.157zm-304.09 9.407c10.35-.049 32.87 9.241 32.5 16.937-.43 2.924-6.07.303-10.97-2.687-9.47-5.783-24.01-7.331-37.69-4.781-10.5 1.957-13.85 3.691-15.34 2.437-3.63-8.155 21.89-11.861 31.5-11.906zm404.12 5.5.06 13.219c-20.28 1.479-24.46 24.02-11.44 36.573 10.67 10.293 28.3 6.234 37.17-8.355 1.55-2.595 1.73-4.161 2.68-2.875.6.806 1.11 3.262 1.59 5.657 1.41 6.937-.59 8.714-5.18 14.656-7.43 9.603-8.44 21.708-3.78 30.719 1.28 2.481 3.96 6.022 3.5 7.656 2.59-.079-23.04 71.654-60.49 107.801-6.27 4.166-10.81-.732-7.58-7.457 30.51-69.706-27.85-134.457-50.5-196.751zm-271.15 12.031 5.34.469c-4.3 32.113-35.46 26.943-36.69.781l4.5-.156c6.08 24.335 26.91 14.37 26.85-1.094zm-176.03.656s2.24 3.586 2.24 5.594c0 7.473-.12 18.284-.31 21.563-1.8 30.901-41.01 36.628-38.03 10.187 2.34-11.226 16.52-12.467 20-2.312 5.09 12.774 6-3.077 6.06-8.032 4.16-7.785 7.2-17.237 10.04-27zm188.93 2.188c1.61.041 4.49 1.444 6.75 3.875 2.58 2.772 1.62 4.152-4.4 7.25-6.52 3.353-9.48 3.064-7.13-3.719 1.46-4.212 2.72-7.459 4.78-7.406zm293.31 1.625c.89.038 3.16 1.207 2.63 4.562-.89 5.605-5.73 8.791-7 7.469.81-2.957 1.78-10.861 4.37-12.031zm-340.12 10.844c-.77 2.268-2.11 1.282-5.53-1.625-3.78-3.207-3.58-5.256.31-7.563 5.59-3.367 5.93 7.097 5.22 9.188zm-118.72-8.375c6.54 20.675 19.88 18.048 25.84 1l5.72-.094c-1.26 26.621-34.96 26.148-35.25.406zm-11.81 2.562c1.99-.315.56 6.594.56 6.594s-5.53-2.855-2.28-5.875c.41-.378 1.43-.674 1.72-.719zm49.5 1.75c.68-.042 1.97.48 3.37 1.406 3.28 2.169 2.72 3.443-1.03 6.563-5.76 4.802-8.36 2.134-5.25-4.313 1.16-2.4 2.03-3.602 2.91-3.656zm430.41 4.5c2.43-.151 5.85.952 13.09 2.875 19.94 5.297 46.63 5.104 69.34-1.156 7.18-1.977 12.5 10.605 8.63 19.75-1.71 4.04-1.41 4.542 3.81 9.969 7.41 7.699 8.59 20.104 2.97 31.406-4.1 8.225-3.82 7.489 1.03 21.531 2.22 6.425 5.08 12.98 5.59 14.75 6.14 20.694 21.26 45.14 30.5 65.594 9.22 14.378-16.53.156-16.53.156s6.92 9.274 16.13 16.219c8.92 6.778 26.46 2.191 34.5 10.437 1.88 2.595-1.83 57.478-3.72 59-79.28-3.687-211.53-.781-211.53-.781l24.78 38.625c38.98 15.574 76.26 11.675 111.91-10.75-.89 3.226 43.37 24.865 79.71 27.219l.22 26c-26.96-3.023-54.29-3.646-79.34-19.406 0 0-23.03 9.628-46.09 16.843l129.19 133.634.05 22.335s-55.15-51.473-111.9-109.5l1.22 285.344 111.78 2.187c-3.51 74.263-2.1 121.476-1.34 206.532-52.83 54.191-125.51 108.407-192.66 140.967-31.69-30.56-57.87-63.664-80.78-99.061-.49-.749 2.31-2.178 1.83-2.927-.7-1.088-4.67-1.499-5.39-2.573-13.97-20.797-46.43-78.46-41.29-79.813 9.93.688 55.96-5.008 65.13-32.594.07-1.749-1-6.668.25-12.437 3.23-14.957 4.89-37.659-.59-52.094-9.9-26.017 19.86-17.678 20.87-15.937l-.03-98.282c-38.72 31.045-77.8 61.597-129.56 74.375-32.2-162.298 18.86-364.145 164.43-501.031l-7.98-.682c-149.56 154.751-188.78 324.926-163.27 504.151 0 0 .95 5.603 1.1 7.495.35 4.459-.72 6.16-4.69 9.38-3.78 2.484-7.22 5.156-6.87 8.219.64 5.754-4.9 5.94-12.13 5.906-3.33-2.919-7.82.761-10.5 2.094-3.75.556-5.62-14.761-10.41-3.532-1.82 7.089-5.28 7.619-13.28 4.094-5.02-1.467-5.14 1.026-.31 6.844 6.67 7.176 12.31 17.907 11.22 21.125-2.45 7.217-1.39 14.487 8.81 18.625-.58.048-6.16 22.008 9.66 21.375 5.03.05 17.78 2.625 17.78 2.625.83 4.197-.52 6.581-2.5 8.437l-11-5.5-2.88 13.094-14.65-1.031 35.65 44.031 4.16-34.344 41.69 5.282c6.69 17.364 48.81 113.948 129.31 185.816 0 0-44.01 19.15-56.34 25.15l-7.66-27.37-6.91 9.93-12.31-3.15-1.44 11.25-10.96 3.53 19.12 14.44-49.16 14.94c-140.43-226.495-203.97-541.111-29.09-873.817l44.19.562-8.63 14.75 12.57-2 3.54 10.747 9.23-4.352 9.27 11.624 10.56-31.05s31.3.708 35.21.312c3.06-.346 66.17-53.291 64.81-55.312-.98-1.458-68.72 48.053-71 46.156 0 0-6.8 1.619-1.5-4.719 9.51-11.377 16.22-20.029 25.88-36.375 15.95-21.706 23.11-48.188 26.87-66.125.06-1.259.41-4.141-.66-6.25-6.08-12.066-4.74-19.949 6.19-34.187 3.83-4.984 4.06-6.22 2.97-9.281-2.46-6.913-.1-12.827 4.94-17.469 2-1.845 3.29-2.727 5.19-2.844zm-372.34 48.188c27.73 11.389 5.46 36.611-15.13 14.625-10.8-11.522-19.32-10.79-25.19-2.375-2.65 3.793 1.2 10.458 4.62 8.343 3.18-1.961 6.44-4.289 11.07-.031 35.07 32.292 60.25-12.912 30.03-24.156-3.74-1.721-9.06 2.093-5.4 3.594zm-114.23-1.094c.26-.014.57.124.97.375 1.32.82 1.41 12.231.1 17.031-4.38 24.314-21.72 80.811-57.29 53.156-14.12-10.981-1.27-38.555 15.63-29.187 13.2 7.316 4.29 24.771-10 14.75-6.94-4.864-4.74 5.166 1.12 8.031 9.94 5.196 27.92-3.703 36.35-19.562 3.36-6.325 6.51-17.5 10.06-33.594 1.78-8.094 1.93-10.941 3.06-11zm3 42.094c2.93 17.578-10.45 48.363-29.5 52.906-14.58 3.478-32.61-6.022-31.31-14.813.38-2.553 1.42.819 14.62 3 18.45 3.047 30.2-6.909 40.82-29.843 3.35-7.239 4.79-11.088 5.37-11.25zm45.91 8.406c-.01 1.985-.95 7.219-1.78 10.687-1.97 8.239-3.2 11.364 5.81 7.282 5.96-2.747 14.67-5.47 23.69-.469 9.94 5.514 19.44 4.493 31.15-.469 10.18-3.386 15.14-3.422 20.82-.156 10.37 5.961 6.8 2.156 5.47-12.875-.93-10.582-3.82-9.19-7.54-5.188-2.44 2.627-7.37 3.203-12.87.25-6.55-3.518-15.67-1.85-18.75.657-3.07 2.497-7.52 2.841-13.53-1.219-3.99-2.689-6.21-1.282-11.1.906-8.04 3.604-11.13 1.659-15.5-1.719-3.96-2.896-5.82-1.984-5.87 2.313zm-39.94 12.625c1.05-.01 1.17 4.049.44 12.219-3.35 30.144-26.96 46.934-54.75 32.343-12.17-6.945-10.52-11.845 1.47-7.5 19.11 6.927 38.4-2.758 47.84-27.531 2.42-6.351 4.08-9.523 5-9.531zm67.81 21.5c13.74 5.683 28.98 3.878 32.85-1.159 4.35-5.653-2.32-4.724-5.82-3.872-12.02 2.878-20.28 1.827-25.15-.344-14.24-5.499-13.34.463-1.88 5.375zm-143.34 16.906c17.81 21.803 20.16 26.058 35.5 50.844 112.17 190.389 148.09 431.02 74.34 649.469-20.23 60.277-48.77 121.711-80.78 171.062l-38.4.41 13.18-15.03-17.87 1.31-1.1-9.94-13.56 4.37-6.53-15-12.28 34.35-71.19.19c166.73-162.024 199.57-358.375 168.47-516.004 0 0 13.94-8.714 15.88-13.812.47-1.238 1.51-6.5 2.47-7.281 6.19-4.054 10.31-7.993 13.37-7.219 1.76.445 2.66 1.257 3.94 3.125 5.87 8.606 7.14 9.951 10.34 1.281 2.3-6.221 1.31-8.472 8.88-7.281 4.42 2.35 10.31 2.284 9.78 1.406-.4-.653-6.68-8.027-9.66-12.219-7.04-9.903-9.05-11.693-8.41-16.031.99-6.609-4.27-13.74-7.56-15.531.95-17.805-5.89-19.582-25.25-23.563-.1-3.072.43-5.565 1.78-8.312l11.38 9.062 4.12-16.812 15.44.844-44.75-43.313c.23 12.218.8 24.572-.31 36.344-20.98-1.145-41.68-7.908-41.99-6.625-30.8-72.528-77.74-133.86-127.29-181.719l49.5-23.781 14.03 26.75 3.44-15.156 12.28 2.156 2.06-9.719 13.56-1.906-14.97-14.219zm294.78 31.281c1.89 2.382 3.41 2.549 5.94 4.719l-5.06 3.594c.23-3.401-.06-5.147-.88-8.313zm-329.34 8.938c-4.2 0-7.63 3.427-7.63 7.625s3.43 7.594 7.63 7.594 7.59-3.396 7.59-7.594-3.39-7.625-7.59-7.625zm41.3 1.208c-4.21 0-7.63 3.414-7.63 7.625s3.42 7.625 7.63 7.625 7.62-3.414 7.62-7.625-3.41-7.625-7.62-7.625zm-133.05 5.573c24.51 20.371 47.04 46.915 74.37 88.438l-.56 5.593 8.34 3.094s45.47 59.843 43.07 86.438c-15.61 3.259-27.69-2.505-55.6 23.593l-17.94-3.906-18.87 4.594s.24 5.916 4.94 7.906c2.04.865 5.42-7.41 7.62-7.156 9.17 1.056 18.42 1.207 16.72 4.094-1.92.824-6.85 60.276 2.72 72.937 5.34 12.889 1.51 12.784-3.28 15.156-5.21 3.405-21.59-3.781-21.59-3.781l3.78 94.406c43.24-49.331 134.57-82.229 128.09-78.656 45.84 242.133-63.14 403.663-177.22 522.065l59.78.34s-51.54 82.67-55.37 105.53c2.92 7.6 11.03 23.33-2.66 34.38-4.63 5.08-5.12 28.12-5.12 28.12-31.44 1.09-58.69-9.83-94.94 2.88-3.75 1.26-4.57-19.74-4.75-23.53-11.14-10.42-12.9-31.62-3.28-42.63 3.57-4.05 2.05-1.9-.94-15.62-4.77-21.9-20.67-51.92-32.78-71.19-3.97-6.32-7.94-13.69-8.91-15.97-8.65-10.26-31.39-5.52-34.15-8.22-2.52-2.11-4.15-58.087-1.6-59.436 89.6 7.106 229.81-1.032 229.81-1.032l-37.62-52.562c-46.34-18.066-110.03 12.782-106.96 14.411.15.181-50.9-27.839-86.31-23.856l1.16-27.453c31.46-.126 60.48 5.732 85.81 20.677l43.05-16.029-131.94-138.406 1.53-22.813s33.7 36.08 70.35 74.625c31.43 33.065 43.19 38.625 43.19 38.625l.09-287.062-113.44-.281-3.03-58.657-2.94-5.125-1.34-42.093 3.16-4.282-1.1-18-1.06-2.562-1.44-43 2.44-3.625.37-27.063c54.82-53.656 196.35-143.906 196.35-143.906zm96.9 8.156 13.22 57.938 8.88-11 13.62 4.281.94-13.344 12.41-4.312zm450.79 9.635c-4.21 0-7.62 3.414-7.62 7.625s3.41 7.625 7.62 7.625c4.22 0 7.63-3.414 7.63-7.625s-3.41-7.625-7.63-7.625zm-35.68 4.772c-4.21 0-7.63 3.413-7.63 7.625 0 4.211 3.42 7.625 7.63 7.625s7.62-3.414 7.62-7.625c0-4.212-3.41-7.625-7.62-7.625zm-437.11 6.75c-4.21 0-7.62 3.413-7.62 7.625 0 4.211 3.41 7.625 7.62 7.625 4.22 0 7.63-3.414 7.63-7.625 0-4.212-3.41-7.625-7.63-7.625zm464.47 4.593-53.06 49.907 14.87-.625 2.67 14.561 13.31-6.095 10.78 9.94zm22.58 16.771c-4.21 0-7.62 3.414-7.62 7.625s3.41 7.625 7.62 7.625c4.22 0 7.63-3.414 7.63-7.625s-3.41-7.625-7.63-7.625zm-421.98 9.823c-4.22 0-7.63 3.414-7.63 7.625s3.41 7.625 7.63 7.625c4.21 0 7.62-3.414 7.62-7.625s-3.41-7.625-7.62-7.625zm33 6.375c-4.22 0-7.63 3.414-7.63 7.625s3.41 7.625 7.63 7.625c4.21 0 7.62-3.414 7.62-7.625s-3.41-7.625-7.62-7.625zm-29.94 11.344c1.46 20.39 3.84 44.571 4.37 65l10.07-9.906 11.62 4.718 4.13-12.531 12.65-.625zm326.72 17.009c-4.21 0-7.63 3.413-7.63 7.625 0 4.211 3.42 7.625 7.63 7.625s7.62-3.414 7.62-7.625c0-4.212-3.41-7.625-7.62-7.625zm-348.6 1.335c-4.21 0-7.62 3.413-7.62 7.625 0 4.211 3.41 7.625 7.62 7.625 4.22 0 7.63-3.414 7.63-7.625 0-4.212-3.41-7.625-7.63-7.625zm378.82 1.852c-4.21 0-7.62 3.414-7.62 7.625s4.03 7.625 7.62 7.625c3.6 0 7.63-3.414 7.63-7.625s-3.42-7.625-7.63-7.625zm-4.52 16.469-43.98 45.241 14.4 1.344 4.53 12.842 9.22-7.811 11.19 8.188zm24.16 9.698c-4.21 0-7.62 3.414-7.62 7.625s3.41 7.625 7.62 7.625 7.63-3.414 7.63-7.625-3.42-7.625-7.63-7.625zm-346.83 14.106c-4.21 0-7.63 3.413-7.63 7.625 0 4.211 3.42 7.625 7.63 7.625s7.62-4.031 7.62-7.625c0-3.595-3.41-7.625-7.62-7.625zm-186.84 4.656-14.32 10.969 3.53-.532s8.66 10.074 8.66 10.782c0 .707 5.31-.188 5.31-.188zm222.9 6.656c-4.21 0-7.62 3.414-7.62 7.625s3.41 7.625 7.62 7.625 7.63-3.414 7.63-7.625-3.42-7.625-7.63-7.625zm-54.62 10.875c-4.22 0-7.63 3.414-7.63 7.625s3.41 7.625 7.63 7.625c4.21 0 7.62-3.414 7.62-7.625s-3.41-7.625-7.62-7.625zm314.99 15.363c-4.21 0-7.62 3.414-7.62 7.625 0 4.212 3.41 7.625 7.62 7.625 4.22 0 7.63-3.413 7.63-7.625 0-4.211-3.41-7.625-7.63-7.625zm-30.09 11.189c-4.21 0-7.62 3.414-7.62 7.625s3.41 7.625 7.62 7.625 7.63-3.414 7.63-7.625-3.42-7.625-7.63-7.625zm307.19 1.886 15.84 17.218v251.938l-15.47.312zm-616.78 1.781c12.91.016 27.3 1.877 31.87 9.719 7.13 8.798-8.02 5.393-20.78 7.312-11.78 1.439-4.94 3.843 11.69 4.813 22.93 1.353 31.94 1.952 35.35 7.238 1.94 4.923.52 8.244.93 13.543l-26.03-1.219c-13.5.017-21.43-.24-25.44.781-3.19.814-2.27 3.373-1.18 4.469.56.574 10.92.713 23.03 1.031 32.57.856 39.78 1.956 42.09 12.438 1.75 9.609-6.09 8.148-39.56 4.5-14.89-1.215-22.91 2.287-25.06 3.344-3.68 1.8 10.63 3.573 15.31 2.812 2.92-.46 24.4 1.864 32.31 3.344 6.65 1.006.8.824-2.56 4.875-2.23 3.353-1.52 7.204-5 9.094-4.27 2.257-12.73 2.215-27.91 2.218-17.35.004-25.44 4.215-1.62 5.25 15.38.669 16.25.403 17.56 4.844 3.47 10.953-3.93 12.88-19.63 15.375-7.5 1.287-18.62.566-27.03-.031-33.19-2.362-44.7-10.275-49.19-24.906-16.74-54.584 3.93-87.911 52.29-90.594 2.68-.143 5.58-.254 8.56-.25zm335.54 2.435-37.49 54.531 14.45-5.622 6.87 14.781 11.57-8.25 11.55 7.122zm-280.48 6.627c1.95 2.375 1.09 4.155-2.12 5.907-2.72 1.478-7.35.384-10.41-.938-4.03-1.743-4.44-8.943-1.12-9.719 4.76-.952 10.67 1.264 13.65 4.75zm-271.53-2.781-20.5 19.625.62.75 27-10.625zm575.38 8.375c-4.21 0-7.62 3.414-7.62 7.625s3.41 7.625 7.62 7.625c4.22 0 7.63-3.414 7.63-7.625s-3.41-7.625-7.63-7.625zm279.12 6.594s19.1 18.862 26.94 26.781l-7.1-.031.19 14.875 22.59.25 12.41 12.156-34.5-.156v15.187l42.72.032-.22-6.5 16.88 15.281 2 168.937-81.41-.25c-.3-83.184-.07-163.378-.5-246.562zm-558.47 18.312c-1.17 3.653-3.78 3.661-8.25 1.844-6.61-2.689-5.66-9.979-.66-10.75 9.46-1.076 11.2 3.278 8.91 8.906zm25.63 3.188c-4.22 0-7.63 3.414-7.63 7.625s3.41 7.625 7.63 7.625c4.21 0 7.62-3.414 7.62-7.625s-3.41-7.625-7.62-7.625zm-26.85 5.844c2.98.184 5.94 1.714 7.63 3.375 4.17 4.208 2.69 8.136-1.97 10.562-5.23 2.721-8.91-.988-10.44-7.187-1.03-4.182 1.42-6.614 4.78-6.75zm239.37 19.997c-4.23 0-7.66 3.428-7.66 7.656s3.43 7.656 7.66 7.656c4.22 0 7.65-3.428 7.65-7.656s-3.43-7.656-7.65-7.656zm-251.99 9.284c6.57.222 8.55 6.933 5.12 10.531-4.92 4.876-12.57 2.788-13.65-1.875-.35-5.245 3.92-8.656 8.53-8.656zm224.66 3.093c-4.21 0-7.62 3.413-7.62 7.625 0 4.211 3.41 7.625 7.62 7.625 4.22 0 7.63-3.414 7.63-7.625 0-4.212-3.41-7.625-7.63-7.625zm27.09 5.061-34.13 57.252 13.81-5.469 8.38 11.032 8.62-7.532 13.04 6.375zm-267.78 9.565c6.1.028 7.81 4.822 3.37 9.218-3.01 2.986-6.42 3.079-9.91.313-5.27-4.191-1.23-9.568 6.54-9.531zm291.68.707c-4.21 0-7.62 3.413-7.62 7.625 0 4.211 3.41 7.625 7.62 7.625s7.63-3.414 7.63-7.625c0-4.212-3.42-7.625-7.63-7.625zm-248.43 6.011c-4.22 0-7.32 3.414-7.32 7.625s3.42 7.625 7.63 7.625 7.62-3.414 7.62-7.625-3.72-7.625-7.93-7.625zm565.34 1.688v16.187l43 .031v-16.187zm-564.78 14.375-16.47 60.156 13.78-7.844 8.6 8.782 8-9.844 14.37 3.75zm29.28 6.531c-4.21 0-7.63 3.414-7.63 7.625s3.42 7.625 7.63 7.625 7.63-3.414 7.63-7.625-3.42-7.625-7.63-7.625zm-53.69 3.063c-4.21 0-7.62 3.413-7.62 7.625 0 4.211 3.41 7.625 7.62 7.625s7.63-3.414 7.63-7.625c0-4.212-3.42-7.625-7.63-7.625zm589.16 4.75.03 14.531h43l-.03-14.438zm-353.86 18.998c-4.21 0-7.62 3.413-7.62 7.625 0 4.211 3.41 7.625 7.62 7.625 4.22 0 7.63-3.414 7.63-7.625 0-4.212-3.41-7.625-7.63-7.625zm353.89 8.127v15.656h43v-15.656zm-886.63 1.906 15.13.281.25 272.906-14.75-15.593zm-6.31.531-.75 249.438-28.65-30.125 7.62-.094v-17l-24.81-.188-10.6-10.312 35.38.031v-16.687l-41.97-.157v10.094l-20.62-22 .34-162.875zm540.18 7.621-22.96 59.348 14.44-8.219 7.47 7.344 7.72-6.969 13.12 6.406zm-603.87 2.848-.21 15.969h42.37v-15.969zm629.87 3.217c-4.21 0-7.63 3.413-7.63 7.625 0 4.211 3.42 7.625 7.63 7.625s7.62-3.414 7.62-7.625c0-4.212-3.41-7.625-7.62-7.625zm-51.9.853c-4.21 0-7.62 3.414-7.62 7.625s3.41 7.625 7.62 7.625 7.63-3.414 7.63-7.625-3.42-7.625-7.63-7.625zm-179.43 2.836c-4.22 0-7.63 3.414-7.63 7.625s3.41 7.625 7.63 7.625c4.21 0 7.62-3.414 7.62-7.625s-3.41-7.625-7.62-7.625zm558.09 6.156v16.782h43v-16.782zm-559.03 9.469-6.38 9.844-14.59-4.969 19.91 60.219 24.96-62.813-14.34 8.188zm-397.6 4.375v15.938h42.16v-15.938zm956.63 14.281v16.625h42.97l.03-16.625zm-956.63 13.907v15.968h42.16v-15.968zm603.32 3c-4.23 0-7.66 3.427-7.66 7.656 0 4.228 3.43 7.656 7.66 7.656s7.65-3.428 7.65-7.656c0-4.229-3.42-7.656-7.65-7.656zm-229.56 7.968c-4.23 0-7.66 3.428-7.66 7.657 0 4.228 3.43 7.656 7.66 7.656 4.22 0 7.65-3.428 7.65-7.656 0-4.229-3.43-7.657-7.65-7.657zm48.93 1.438c-4.23 0-7.65 3.428-7.65 7.656s3.42 7.656 7.65 7.656 7.66-3.428 7.66-7.656-3.43-7.656-7.66-7.656zm533.94 1.062v15h42.97l.03-15zm-353.37 7-9.13 9.594-13.09-3.719 29.68 55.375 15-59.562-13.09 8.344zm-603.26 5.625v18.125h42.16v-18.125zm397.88 8.219c-4.23 0-7.66 3.428-7.66 7.656 0 4.229 3.43 7.657 7.66 7.657s7.66-3.428 7.66-7.657c0-4.228-3.43-7.656-7.66-7.656zm-.5 15.781c-3.26 2.315-4.69 6.376-8.09 8.469l-13.94-5.937 8.37 75.406 38.69-71.25-17.69 2.969zm-397.38 2.469v18.844h42.16v-18.844zm633.17 8.739c-4.23 0-7.66 3.428-7.66 7.657 0 4.228 3.43 7.656 7.66 7.656s7.66-3.428 7.66-7.656c0-4.229-3.43-7.657-7.66-7.657zm-49.5.875c-4.23 0-7.66 3.428-7.66 7.657 0 4.228 3.43 7.656 7.66 7.656s7.66-3.428 7.66-7.656c0-4.229-3.43-7.657-7.66-7.657zm-583.67 17.73v18.875h42.16v-18.875zm611.28 4.208c-4.22 0-7.65 3.428-7.65 7.656s3.43 7.656 7.65 7.656c4.23 0 7.66-3.428 7.66-7.656s-3.43-7.656-7.66-7.656zm108.09.604c40.99 1.308 47 14.5 47.24 60.03.19 36.34-10.63 50.544-37.09 57.551-9.64 2.553-45.69.189-55.9-3.084-.17-3.116-5.27-10.335-6.42-15.888 2.6-.741 10.84.409 26.43 1.891 12.65 1.202 15.9-.825 11.91-3.312-23.79-5.613-39.99-4.085-62.85-8.469-.32-6.833-5.84-14.793-5.84-14.793 1.24-.496 35.23 3.164 53.16 2.597 7.9-.326 3.15-4.036-.04-4.719-20.92-2.993-34.5-2.514-56.62-5.304.6-5.655-2.28-10.8-5.85-15.125 0 0 11.19-.102 34.26.25 12.13.185 22.7.691 28 .509 8.92-.012 8.1-4.17.38-4.736-9.42-1.05-46.51-1.273-46.51-1.273 2.76-1.278 6.36-17.884 4.94-18.062 0 0 9.61.197 15.72-.031 29.71-1.112 34.84-.642 35.4-1.75 3.91-3.57-6.64-4.966-17.62-4.938-4.74.012-11.65 1.047-11.6-1.531.05-2.369-.06-7.232-2.47-12.235 18.23-7.016 34.99-8.1 51.37-7.578zm-353.49 9.344c-4.23 0-7.66 3.428-7.66 7.656 0 4.229 3.43 7.657 7.66 7.657s7.66-3.428 7.66-7.657c0-4.228-3.43-7.656-7.66-7.656zm292.47 1.594c5.05.024 6.65 9.115 1.91 10.531-7.28 2.174-11.26.463-11-3.844.14-2.44 5.81-6.703 9.09-6.687zm-242.47 7.906c-4.23 0-7.66 3.428-7.66 7.656 0 4.229 3.43 7.657 7.66 7.657s7.66-3.428 7.66-7.657c0-4.228-3.43-7.656-7.66-7.656zm218.03 8.594c17.33-.155 8.36 23.405-4.97 14.906-6.61-4.214-1.96-14.855 4.97-14.906zm-274 18.844c-.35-.033-.54.322-.5 1.187l4 71.625 41.69-66.906-16.56 6.156-7.13-10.812-8.94 7.031c-3.68 2.896-10.64-8.105-12.56-8.281zm257.94 7.332c7.77 1.08 12.96 8.864 7.56 12.605-12.15 5.323-18.65-12.083-7.56-12.605zm-18.67 15.719c-4.23 0-7.66 3.428-7.66 7.657 0 4.228 3.43 7.656 7.66 7.656s7.66-3.428 7.66-7.656c0-4.229-3.43-7.657-7.66-7.657zm29.45 6.48c6.62-.099 9.74 9.509 3.19 12.531-1.4.645-5.54 1.105-7.38-.25-7.73-5.702-3.72-11.677 4.19-12.281zm-286.67 11.811c-4.23 0-7.65 3.428-7.65 7.657 0 4.228 3.42 7.656 7.65 7.656s7.66-3.428 7.66-7.656c0-4.229-3.43-7.657-7.66-7.657zm584.83 9.595-28.38 9.531v13.419c12.39-3.942 19.47-14.005 28.38-22.95zm-265.91 6.478c4.92 2.065 6.26 8.73 2.02 10.97-3.33 1.765-12.36 1.484-14.57-1.421-5.73-9.188 6.59-11.796 12.55-9.549zm-267.5 2.647c-4.23 0-7.66 3.428-7.66 7.656 0 4.229 3.43 7.657 7.66 7.657s7.66-3.428 7.66-7.657c0-4.228-3.43-7.656-7.66-7.656zm-31.37 13.229c-3.72 0-6.75 3.022-6.75 6.75 0 3.727 3.03 6.75 6.75 6.75 3.73 0 6.75-3.023 6.75-6.75 0-3.728-3.02-6.75-6.75-6.75zm318.26 11.385c-4.22 0-7.65 3.428-7.65 7.657 0 4.228 3.43 7.656 7.65 7.656 4.23 0 7.66-3.428 7.66-7.656 0-4.229-3.43-7.657-7.66-7.657zm-342.92.417-.38 67.657 45.13-55.375-15.66 3.406-6.68-13.719-9.66 6.281zm286.43 15.583c-4.23 0-7.66 3.428-7.66 7.657 0 4.228 3.43 7.656 7.66 7.656 4.22 0 7.65-3.428 7.65-7.656 0-4.229-3.43-7.657-7.65-7.657zm225.82.261-7.41 12.625 21-11.656zm-195.26 8.989c-4.23 0-7.66 3.428-7.66 7.657 0 4.228 3.43 7.656 7.66 7.656 4.22 0 7.65-3.428 7.65-7.656 0-4.229-3.43-7.657-7.65-7.657zm25.79 8.261-9.16 13.063-12.06-3.875-3.56 12.437-14.47-.531 47.03 40.937zm-366.57 5.229c-4.23 0-7.66 3.427-7.66 7.656 0 4.228 3.43 7.656 7.66 7.656 4.22 0 7.65-3.428 7.65-7.656 0-4.229-3.43-7.656-7.65-7.656zm705.23 10.99 3.81 561.001-267.41.56-110.09-150.33c-2.27-24.49-.95-49.63 9.36-82.5 10.76 7.46 34.34 3.39 33.54-25.52-.52-18.92-29.7-28.61-44.24-14.37.76-18.29 8.19-45.78 18.88-53.9 7.35 6.68 8.97 16.56 25.58 13.8 11.8-1.97 21.15-15.16 16.04-30.52-1.31-3.9-2.02-8.64-2-11.81.01-3.18.3-8.82-.32-11.97-.81-4.17-1.12-8.69-1.12-8.69 142.45-44.71 244.32-116.244 317.97-185.751zm-651.63 9.635c-4.23 0-7.66 3.427-7.66 7.656 0 4.228 3.43 7.656 7.66 7.656s7.66-3.428 7.66-7.656c0-4.229-3.43-7.656-7.66-7.656zm-36.1 7.478c-4.23 0-7.66 3.428-7.66 7.656 0 4.229 3.43 7.657 7.66 7.657 4.22 0 7.65-3.428 7.65-7.657 0-4.228-3.43-7.656-7.65-7.656zm378.85 3.688c-4.23 0-7.66 3.427-7.66 7.656 0 4.228 3.43 7.656 7.66 7.656s7.66-3.428 7.66-7.656c0-4.229-3.43-7.656-7.66-7.656zm-406.31 8.168-11.94 71.282 52.13-53.282-14.16-.313-2.81-12.156-13.25 4.281zm354.4 15.207c-4.23 0-7.65 3.427-7.65 7.656 0 4.228 3.42 7.656 7.65 7.656s7.66-3.428 7.66-7.656c0-4.229-3.43-7.656-7.66-7.656zm33.78 8.312c-4.22 0-7.65 3.428-7.65 7.656 0 4.229 3.43 7.657 7.65 7.657 4.23 0 7.66-3.428 7.66-7.657 0-4.228-3.43-7.656-7.66-7.656zm-420.65 9.293c-4.23 0-7.66 3.428-7.66 7.656 0 4.229 3.43 7.657 7.66 7.657s7.66-3.428 7.66-7.657c0-4.228-3.43-7.656-7.66-7.656zm451.13 5.781-12.47 9.469-11.47-7.012-2.69 15.137-9.78 5.125 41.03 28.75zm30.32 20.385c-4.23 0-7.66 3.428-7.66 7.654 0 4.23 3.43 7.66 7.66 7.66 4.22 0 7.65-3.43 7.65-7.66 0-4.226-3.43-7.654-7.65-7.654zm-432.95 2.584c-4.23 0-7.66 3.428-7.66 7.66 0 4.22 3.43 7.65 7.66 7.65s7.66-3.43 7.66-7.65c0-4.232-3.43-7.66-7.66-7.66zm-34 10c-4.23 0-7.66 3.43-7.66 7.66 0 4.22 3.43 7.65 7.66 7.65s7.66-3.43 7.66-7.65c0-4.23-3.43-7.66-7.66-7.66zm447.33 20.24c-4.23 0-7.65 3.43-7.65 7.66 0 4.22 3.42 7.65 7.65 7.65s7.66-3.43 7.66-7.65c0-4.23-3.43-7.66-7.66-7.66zm-32.09 6.85c-4.23 0-7.66 3.43-7.66 7.66s3.43 7.65 7.66 7.65 7.65-3.42 7.65-7.65-3.42-7.66-7.65-7.66zm-296.41 10.9c.05 0 .1.04.13.06.86.93 3.52 7.89 1.15 11.44-1.22-.58-6.72-5.7-5.31-7.44.65-.8 3.32-4.06 4.03-4.06zm-173.74 12.01s7.41.38 9.04 1.09c0 1.89-1.79 6.03-3.79 10.66-9.99 23.13-11.52 49.07-1.37 74.06 15.93 33.93 60.9 114.19 57.56 121.53l-99.37.41.43-15.11c27.92-1.1 32.31-18.17 25.34-32.29-4.82-9.77-18.35-15.37-30.72-10.23-17.86 7.41-18.96 16.23-25.34 29.91l-2.84-3.61c5.37-7.13 7.16-13.98 6.72-21.78-.43-7.67-.66-5.55 2.02-9.75 15.55-16.71 5.36-38.46 5.36-38.46-1.85-13.36 46.54-98.6 56.96-106.43zm-227.25 2.19c28.27 22.49 52.73 98.24 51.25 99.4-1.31-1.06-22.77 24.34.35 48 0 0-1.41 14.23 3.03 21.53-10.21 21.19-12.01 22.79-12.88 40.19-.19-.06-1.77-.2-11.25-.25-46.83-.22-49.01 59.33-2.21 62.6 6.4.45 8.6-1.01 12.46 2.81 3.92 4.86 7.44 9.74 14.13 7.22 1.59.01 4.16 1.5 6.84 4 4.5 6.08 11.03 10.42 20.35 8.75 3.3.32 6.68 1.27 10.25 2.56 4.09 3.23 11.21 5.68 16.78 3.25 1.65-.72 4.84-.96 7.43.22 6.77 3.08 13.66 1.15 16.19-.78 6.28-3.26 7.68 1.96 7.38 6.78-3.2 11.02 3.83 21.35 14.5 25.41 22.48 6.94 33.82-6.88 38.65-34.32 1.2-6.01 2.25-13.15 2.25-13.15l75.29 1.97-108.1 125.28-184 2.25-.97-413.91c8.09-.48 14.19.19 22.28.19zm676.91 22.34c13.73 5.29 14.83 14.99 1.16 10.78-22.21-6.84-46.11 6.73-51.1 26.13-.92 3.58-1.9 6.28-2.47 6.97-3.1 3.75-2.95.33-2.03-10.44 1.8-20.9 16.58-36.03 35.85-36.66 6.31.01 13.11 1.32 18.59 3.22zm-6.81 14.78c5.74 0 11.82 1.69 16.36 5.63 5.15 5.65 3.62 9.4-.34 9.21-18.6-7.77-42.25 1.63-51.52 25.12-5.68 14.41-6.71 6.68-4.19-4.47 4.66-20.2 20.03-35.12 39.69-35.49zm-129.38 5.57c-8.11.03-15.82 1.63-19.75 5.34-7.45 7.04-1.25 7.16 12.25 2.47 6.57-2.28 19.21-1.23 27.28 1.56 6.78 2.34 9.17 3.33 8.79 1.22-.36-6.34-15.04-10.65-28.57-10.59zm151.66 23.57c3.42 7.83 1.2 21.64-10.75 23.03-14.1 1.65-21.39-21.98 4.36-17.85-3.33-9.45-14.89-6.84-20.58-4.44-11.62 5.07-19.53 16.49-26.66 37.47-2.11 6.22-3.66 9.47-4.46 8.84-1.35-1.04-1.99-10.71 1.12-22.34 5.6-20.99 19.26-33.66 33.72-34.07 9.37-1.43 20.28 2.57 23.25 9.36zm-201.71-9.11c-1.25.29.95 4.69 4.37 11.54 1.9 3.78 3.19 8.69 3.19 9.65-.02 3.72 2.84 4.64 7.03 2.25 4.84-2.75 5.62-4.83 12.47-1.78 6.45 3.39 12.82 5.53 18.72 2.09 3.2-1.86 5.31-1.78 11.5-.15 7.38 1.94 8.36 2.24 13.87-.06 7.05-2.95 15.42-.93 17.19 1.05 1.7 1.89.71-.73 4.54-9.6 1.77-4.12 4.32-9.12 3.62-10.52-.95-1.9-7.36.2-14.35 2.03-3.77.99-7.38.7-14.62-1.34-15.28-4.31-24.9-3.07-34.47 1.47-5.34 2.54-18.74-.97-32.28-6.47-.32-.13-.6-.2-.78-.16zm30.05 40.91c-6.89-.1-13.14 4.23-16 10.19-3.32 8.26 2.33 23.18 10.94 24.47 7.66 1.14 7.37-3.54 3.51-4.81-5.83-1.91-12.7-10.27-8.26-17.53 3.05-4.99 12.28-4.96 18.69 1.19 12.93 12.4 27.73 13.22 30.54 2.46.85-4.3-2.43-10.03-7.48-8.47-3.91 1.21-12.94 1.57-20.5-3.56-3.92-2.66-7.83-3.89-11.44-3.94zm136.47 39.37c32.99-1.97 18.8 43.08-.24 31.52-6.8-4.13-3.78-19.31 14.29-19.03-17.73-13.81-29.81 3-25.48 21.87-3.98 6.16-5.08 17.89-7.69 24.54-4.01 7.58-7.17-12.28-3.11-31.47 3.92-18.58 10.55-26.72 22.23-27.43zm-186.59 1.57c-6.81.08.19 7.41 1.25 8.28 20.55 16.12 30.59 26.09 14.06 20.78-26.85-6.39-33.77 1.2-54.22 10.22-3.75 1.8-4.82.68-9.34-.66-17.97-5.31-16.65 5.96 2.12 16.13 28.35 15.35 51.76 18.82 73.78 7.31 14.16-7.4 14.89-2.55 1.72 5.63-22.54 13.14-46.26 11.14-82.68-11.54-11.77-7.32-13.42-2.42-1.38 5.28 27.51 16.62 64.54 31.68 94.78 7.16 5.95-5.29 7.15-8.03 11.72-5.75 12.09 6.04 8.12-4.47-.12-14.37-2.92-3.5-5.07-6.33-4.88-8.72.68-8.59-4.07-8.56-8.41-8.35-5.18.26-4.61-1.48-10.97-8.47-9.28-10.19-20.61-21.11-27.43-22.93zm-274.53 45.69c-11.42.9-14.04 1.41-11.25 24.81.52 4.4 2.48 17.58 3.03 22.53 6.77 61.27 1.29 88.37-15.78 95.87-6.14 2.71-12.19 1.71-16.69-.09-10.81-4.32-15.26-17.44-7.41-33.06 2.12-4.21 4.67-10.72 5.69-14.47 1.02-3.76 3.33-12 5.09-18.31 4.3-15.36 6.63-38.74 4.1-61.07-1.72-15.16-1.34-16.43 2.44-26.65 8.29-15.11 13.65-22.85 31.11-23.04 19.53 2.05 25 31.6-.33 33.48zm419.78-1.35-5.35.25c-6.43-21.42-19.87-14.48-22.11.55l-4.53-.05c.78-28.6 36.55-20.84 31.99-.75zm-501.78-15.99c36.46 3.61 43.11 12.67 45.98 56.71.26 21.31-1.14 34.18-4.42 39.03-5.46 2.63-10.68-2.28-18.47 2.66-4.28 2.61-3.46 2.88-5.3.04-1.74-2.67.29-13.91 3.09-22.89 2.66-8.56-1.91-13.54-13.98-24.53-3.27-2.97-6.13-7.1-9.06-13-6.28-16.85-9.47-9.43-4.24 5.1 2.59 6.26 3.19 9.35-4.67 6.65-4.62-1.6-8.66.29-12.22 2.19-10.01 2.54-18.64-2.92-9.96-6.21 5.29-2 14.76-4.9 17.69-4.89 2.13.01 3.16-.47 3.16-1.46.02-4.22-19.29-3.76-34.01 1.31-18.08 8.32-19.12 6.84-17.45-6.11 4.23-32.83 34.8-36.84 63.86-34.6zm356.62 2.87c9.32-.42 17.89 10.27 16.19 19.34l-4.44-.28c-2.08-17.08-18.23-17.81-22.53 1.31l-6.41.16c4.08-14.76 10.81-20.25 17.19-20.53zm108.42.34c3.68 2.18 1.12 8.09-2.8 9.28-1.48.37-6.18-2.9-5.05-4.89 2.11-2.41 5.33-3.66 7.85-4.39zm41.79 2.9c2.57 0 5.89 1.3 6.34 4.76.15 5.04-3.69 4-4.97 3.55-2.54-2.36-3.5-8.13-1.37-8.31zm-127.83 4.04c6.83.8 9.31 9.39 1.56 9.93-3.46.72-3.62-7.87-1.56-9.93zm-41.6.93c.82.01-.45 7.06-2.15 8.1-3.38 2.05-7.69-.19-7.53-2.31.38-5.09 6.53-5.82 9.68-5.79zm119.28 17.13c13.02 4.93 29.95 9.72 45.88 4.16 5.81-2.2 10.46-4.81 10.44-2.34-.01 2.58-4.61 6.5-12.93 8.83-17.15 4.81-29.57 2.95-41.35-5.89-3.32-2.5-4.49-4.8-2.04-4.76zm-5.37 7.35c21.12 12.33 40.18 13.55 57.35 4.57 6.95-2.41 7.17-.2 7.15 4.25-30.92 27.18-69.57-1.03-64.5-8.82zm-518.44 18.78c-5.24 10.55-8.05 36.57-16.6 44.28-58.35-3.35-20.82-80.31 16.6-44.28zm361.63-8.63c-3.3 1.73-.39 10.02 4.81 12.25 44.63 19.2 67.52 21.49 92.91 12.66 10.51-3.66 16.26-12.27 16.78-16.44.62-4.97-6.17-5.46-18.07-.19-36.19 14.19-58.89 3.13-88.11-7.87-2.71-1.02-5.47-1.37-8.32-.41zm-170.91.59-.16 65.07-42.5-.75.5-9.63 31.82.94-.5-46.47-36.91-.34-.06-8.63zm9.87.16 42.41.06 2.13 6.63h-44.54zm-171.09 20.66c-2.79 2.5-7.65 3.05-9.66 1.03-4.49-4.53.05-12.86 7.22-12.81 7.18.06 7.79 6.99 2.44 11.78zm19.54-10.58c6.41.03 8.53 6.01 3.65 10.85-3.3 3-4.99 3.2-7.97 1-3.74-3.3-1.79-11.63 4.32-11.85zm-41.85 1.61c1.68-.06 3.16.11 4.25 1.78 3.9 7.98-8.89 13.5-11.56 7.57-1.97-4.82 3-9.19 7.31-9.35zm239.81.87 2.47 8.38-48.88.22v-8.38zm-174.95 2.41c7.29.88 6.17 8.21 2.78 11.47-5.8 5.38-11.45 3.63-9.96-3.59.92-4.52 3.85-7.79 7.18-7.88zm-39.3 24c-2.57 9.16 2.91 27.69 1.28 29.64-3.57 4.22-9.3 2.05-11.84.61-8.83-5.67-9.39-38.92-.84-40.91 5.49 2.76 9.18-2.17 11.68-2.89 2.51-.72.83 3.81-.28 13.55zm129.19-13.66c4.81 0 8.72 3.91 8.72 8.72 0 4.82-3.91 8.72-8.72 8.72-4.82 0-8.72-3.9-8.72-8.72 0-4.81 3.9-8.72 8.72-8.72zm38.65 1.13h50c3 4.17 2.69 6.98 1.85 9.87l-51.85.06zm-146.83 1.13c2.28-.02 3.42 4.86 1.9 10.44-2.76 10.08-2.61 23.8-.72 29.74 1.27 4.11 2.52 6.92 1.78 8.09-2.59 4.09-10.51 1.3-13.87-4.09-8.22-15.23-6.91-43.64 2.9-41.44 3.69 1.85 5.8-1.04 8.01-2.74zm-44.07 3.84c-2.42 3.85-.69 25.49-.94 27.28-.31 2.25-6.49 1.09-9.94-.47-8.48-3.98-6.18-14.09-4.53-22.25 1.85-6.41 5.94-6.89 10.97-7.47 2.79-.32 6.45-.08 4.44 2.91zm68.01 1.19c2.7-.1 3.08 1.89 2.46 9.9-.49 6.27-.72 11.62.31 17.53 2.17 12.57 2.44 15.98-.72 18.44-3.75 2.92-8.8 2.04-12.72-1.41-8.02-6.36-8.55-37.55-2.25-40.25 5.86 1.46 9.55-3.17 12.92-4.21zm172.68 9.43-7.19 9.88h-42.63l.03-9.85zm-152 13.21c6.65.08 5.55 11.84 1.97 19.22-3.03 4.46-5.25 4.92-9.81.73-5.17-4.75.97-19.98 7.84-19.95zm139.56 3.29-6 5.5-31.25.03v-5.47z" fill="#131f67" transform="matrix(.151838 0 0 .151838 -131.044 61.013)"/><path d="m6057.99 1369.83v-19.5h19.94l42.17-64.7-45.44-100.55h-16.67v-21.25h64.25v21.25h-20.66l31.75 78.52 23.14-30.43v-48.09h-16.98v-21.25h57.5v21.25h-20v165.25h20v19.5h-57.5v-19.5h16.25v-76.44l-53.8 76.44h20.3v19.5zm-280.93-151.5c-47.24-17.04-66.5-75.92-39.71-134.08 35.89-77.9 89.45-127.924 125.12-201.413-.41 0 70 103.439 98.13 141.813 60.32 87.07 57.29 158.73-1.14 187-41.97 20.3-84.99-3.02-89.94-46.92-.78-6.85-1.23-7.76-4.42-7.78-3.51-.01-4.17 2.43-5.04 12.57-3.37 39.06-45.74 62.26-83 48.81zm290.58-151.66c18.3-43.06 39.6-66.11 61.93-111.768 18.02 35.312 51.33 73.438 62.52 109.128 8.39 27.58 1.87 50.02-16.14 56.71-20.92 7.78-36.61-1.02-40.78-20.64-1.67-7.86-5.63-7.08-5.85-1.15-.7 19.25-22.87 27.66-40.61 22.57-10.19-2.92-28.47-23.73-21.07-54.85zm-989.66-175.679-51.81-40.629c61.63-1.348 123.23.077 184.85 1.128l-61.54 43.847c-12.6-13.768-20.04-32.259-37.92-41.182-13.31 5.496-22.42 24.448-33.58 36.836zm454.48-14.152c-1.05-.166-1.9-.251-2.53-.642-1.41-.889-2.33-2.873-3.37-9.401-15.38-71.728-90.97-66.648-90.47-64.543-.57-2.828 93.96-88.176 149.52-155.14 16.79 51.173 67.7 168.088 65.58 167.664 0 0-14.73.121-52.92-.828-34.75 15.693-58.93 30.975-57.8 53.102-.19 7.791-2.07 11.033-4.67 10.363-.37-.084-1.87-.343-3.34-.575zm169.74-230.875c49.18-.769 58.45-24.789 64.05-27.685 32.3-5.311 52.26 15.711 66.42 38.208 18.07 10.881 15.81.833 19.56-16.119l45-13.19-.04 14.337c-13.9 7.482-34.52 26.654-34.52 26.654l-13.7-.806-7.85 10.465c-31.27 16.915-61.93 37.066-94.9 50.138 0 0-39.5-51.078-44.02-82.002zm-612.7 4.498-.51-283.581c20.34-1.435 57.79-1.25 57.79-1.25 15.66-27.636 37.01-40.63 59.02-56.684 3.09 34.959 4.27 68.346 3.56 103.32-58.28 71.129-90.65 158.676-54.71 289.519l-21.56-2.392zm322.02 15.895c16.6-59.151 29.49-119.166 34.83-181.13l110.95-1.646 2.21 37.992zm377.78-129.132-2.06-106.101c80.97-96.73 85.76-181.09 55.73-287.744 26.75 6.155 40.52 27.003 66 55.744l.02 276.677c-17.71 2.637-61.62 5.218-61.62 5.218-1.33 12.963-38.43 43.96-58.07 56.206zm-342.84-167.222-4.94-46.783 144.16-137.696c-11.89 59.666-26.29 120.932-30.49 184.449zm-239.19-146.135c-10.29 6.747-48.22-32.664-54.43-59.161 9.51-12.85 92.98-53.741 92.98-53.741s48.79 62.611 46.79 88.724c-21.67 5.759-40.46 7.4-56.91 25.063-9.41.838-12.71-9.747-28.43-.885zm-65.84-52.941c11.61 1.867 4.17 17.532 2.38 29.004l-61.34 18.183c21.09-17.992 36.04-33.306 58.96-47.187zm199.75-138.434c12.6-.38 25.75 4.819 35.47.901 3.64-1.414 10.91-3.608 18.87-2.103 18.33 5.67 24.76-14.529 36.45-14.616 15.13.04 23.52-10.546 23.62-31.735.04-9.166.81-10.198 2.53-11.11 5.16-2.729 10.67 1.097 11.36 6.129 10.85 39.031 38.24 74.129 81.44 71.335-34.4 35.058-139.03 142.83-139.03 142.83-18.85-57.418-43.89-110.86-70.71-161.631zm445.12-33.635 63.02-45.738 37.72 45.909 32.62-43.705c19.17 13.729 62.76 44.34 62.76 44.34s-130.71 1.93-196.12-.806zm-657.16-23.346c13.26 9.381-126.3-159.981-142.39-219.848-12.06-35.283-2.98-78.405 23.29-96.884 44.51-31.301 96.71-18.792 106.61 33.899 2.81 14.947 7.48 13.168 9.12.041 5.95-67.124 88.38-72.025 120.09-25.207 21.71 32.049 21.87 83.008-9.56 134.036-7.6 16.208-107.82 169.32-107.16 173.963zm-266.45-64.547c-18.69-36.469-46.46-73.226-61.18-107.271-11.04-27.842-1.69-56.671 18.89-62.002 20.29-5.254 35 3.109 38.85 22.077 1.31 6.423 3.86 6.901 5.13.957 7.63-35.869 58.21-28.115 61.69 9.457 2.22 23.936-4.02 39.749-33.56 85.044-7.13 14.699-26.43 35.966-29.82 51.738zm9.86-230.334h21.06l-30.95-75.929-23.67 32.065.15 43.864h16.61v22.627h-58.51v-22.627h19.27v-163.342l-19.27.04v-19.75h59.4v20.417h-16.41l-.35 79.623 51.85-80.29h-18.3v-19.75h63.19v19.75h-16.67l-42.69 65.627 41.78 97.675h18.56l.09 22.627h-64.97z" fill="#d40000" transform="matrix(.151838 0 0 .151838 -720.972 92.107)"/><path d="m1936.81-211-579.37 3.719 112.59 150.375c119.62-24.352 223.75-8.529 331.81 10.343zm-14.81 7.625-38.56 47.906c-10.67-9.647-34.49-6.164-31.12 14.943-29.55-15.364-35.81 26.819-10.73 25.088-3.14 8.283-28.48 10.469-35.62-4.562-26.01 14.576-33.96.436-40.85-8.75 33.06 22.44 49.14-23.683 12.76-26.281 14.29-28.916-36.7-42.037-33.69-4.407-33.63-7.622-25.92 39.698-1.22 30-16.04 24.119-42.36 7.917-47.69 3.219-13.53 10.149-39.12 10.472-46.28-5.75 37.43 7.526 33.33-41.755.09-30.406 17.72-37.849-41.22-32.755-26.9-1.75-33.53-1.279-26.11 40.068 3.34 33.031-26.17 24.661-45.77 1.68-49.91 1.188-15.49 17.09-42.69 7.726-46.43-2.375 26.69 10.543 35.44-34.297 1.79-31.604 8.62-28.886-39.8-32.389-29.11.42-26.68-6.042-28.13 36.678 1.76 30.027 1.85 11.699-21.67 22.903-36.13 11.594-10.61 5.808-22.22 14.848-36.03 1.469 21.03-3.387 24.49-38.931-9.47-31.25 1.62-21.82-10.91-23.008-26.39-17.47l-24.8-33.593zm-399.69 53.594c-1.84 4.064-4.95 6.836-4.22 9.932.6 2.543 3.21 6.069 6.85 10.849 28.99 37.783 87.76 36.518 105.44-2.438 3.6-7.234 2.86-8.878-1.47-15.031-5.24-7.431.67-15.354 7.09-14.687 9.58.996 11.23 9.343 6.62 15.281-10 12.593 17.48 41.084 44.91 45.562 35.17 5.741 68.51-18.991 63.87-41.153-.27-1.272-.91-2.457-1.18-3.784-3.74-18.557 25.68-9.667 15.09 2.156-3.98 4.276-6.13 5.55-5.59 10.25 8.54 39.271 56.29 43.387 79.03 31.281-29.34 47.851-75.82 10.973-84-22.468-41.2 59.478-90.7 47.119-118.28-5.157 3.26 3.261-54.34 93.704-119.72.969-27.67 74.638-78.14 24.185-74.69 21.125 23.19 12.915 65.29 8.238 69.35-31.687.55-4.93-3.18-5.233-5.35-9.125-10.96-19.732 24.41-19.872 16.25-1.875zm-108.93 4.906c5.24.49 6.12 2.671 5.24 8zm449.59 14.031-7.59 9.531c-1.81-4.662-1.86-8.943 7.59-9.531zm82.59 3.156c-18.02.763-31.94 25.666-31.03 58.875.44 16.105 3.28 56.521 4.38 62.532 1.53 8.403-.14 19.797-3.1 21-7.8 3.17-10.73 5.213-12.84 8.937-5.48 9.679-.95 20.604 10.59 25.5 8.24 3.497 18.69-1.331 25.75-11.875 3.93-5.856 4.85-8.461 8.31-23.187 1.6-6.779 1.46-18.024-.37-28.344-4.15-23.461-1.07-52.682 7-66.406 14.46-24.611 14.2-40.728-.75-45.813-2.71-.922-5.36-1.327-7.94-1.219zm-.94 3.75c20.98.077 20.41 21.001 8.79 27.438-4.51 2.015-10.02 2.488-15.53-1.125-6.2-3.578-5.35.504 1.06 5.156 7.53 5.463 10.73 5.126 6.68 17.938-3.77 11.931-5.74 37.723-3.68 52.375 5.64 40.089.87 60.075-16 67.031-8.32 3.429-17.29-1.404-19.6-8.084-3.61-10.453 2.82-19.427 18.7-16.916 0 0 1.12-3.331-3.01-38.125-5.74-48.404-3.48-82.192 5.41-94 4.74-6.308 10.88-11.71 17.18-11.688zm142.29 49.907c-4.91.041-10.18 1.372-15.57 4.406 0 0-.58 21.765-1.22 25.062-3.56 18.413-2.52 20.606 6.07 23.219 20.82 6.339 37.91-7.471 37.15-29.125-.42-12.171-11.73-23.685-26.43-23.562zm2.81 2.906c11.38-.343 21.71 12.961 20.59 25.5-.6 15.005-14.95 23.184-27.81 20.562-3.81-.575-7.74-1.297-8.97-4.156-2.58-3.974 1.57-5.416 10.22-5.375 9.47.045 11.23-1.255 14.37-6.562 6.23-10.514-1.74-23.844-11.9-21.344-3.47.853-3.98 2.422.09 3.562 12.46 5.615 7.82 13.449 3.5 16.625-5.13 3.779-13.63-1.4-15.09-4.531l.87-20.312s4.12-3.855 14.13-3.969zm-128.31 94.125s-4.75 2.267-7.03 4.375c-5.04 4.643-6.09 11.681-3.63 18.594 1.09 3.062.92 3.578-2.91 8.562-10.89 14.198-12.3 21.291-6.72 34.094 2.54 5.814 2.56 5.813.16 13.5-10.27 32.971-30.55 70.339-52.19 96.219-3.34 4.001-4.68 8.094-4.68 8.094s5.06-.259 7.87-1.657c22.36-11.125 45.98-32.679 67.94-46.812-34.72 28.169-71.72 53.375-71.72 53.375l47.25 2.531c-11.86 12.165-219.05 187.719-164.03 502.594 64.67-16.085 94.77-42.766 129.25-73.625.32 25.372.88 93.656 1.09 93.656.66-1.123-29.93-11.52-22.65 13.656 4.32 13.812 6.51 48.768-1.16 68.5-.33.835 3.3 2.16 2.94 2.938-.42.893-4.91.906-4.91.906-11.74 21.902-41.99 26.702-56.9 26.041-5.5-.52-3.27 7.017-2.55 9.741 2.78 11.279 15.77 35.431 40.05 74.218l6.37.844-3.69 3.406c2.86 5.221 10.52 15.041 10.52 15.041l.34 3.331s13.32 18.535 20.46 27.238c.49.594 1.6-.814 2.09-.224 3.96 4.765 8.72 10.103 12.75 14.855.31.367-.62 1.725-.3 2.072 7.59 8.277 22.51 24.997 22.51 24.997l2.96-.72 11.73 13.22c97.34-44.26 199.07-142.179 198-141.966l.84-210.738-115.25-.343-.49-279.169 115.12 113.812-.75-32.656c-26.11-24.828-131.06-130.719-131.06-130.719 15.28-2.127 30.07-7.091 44.41-14.875 25.03 13.773 51.8 22.048 82.47 17.969l-.13-30.969c-34.82-.061-56.41-11.601-72.03-25.531l-21.5-.719c-39.71 30.201-67.79 16.187-98 10.25l-20.87-30.062 213.84-1.094-1.53-72.969-32.47.719-21.1-15.594 24.47 10.344s-.38-4.018-5.28-11.656c-13.18-21.539-29.91-53.232-39.93-80.875-4.86-14.042-4.85-13.463-.76-21.688 5.63-11.301 4.41-24.988-3-32.687-5.21-5.427-5.05-6.585-3.34-10.625 6.94-16.011-9.8-21.903-9.87-20.875-35.82 13.804-83.87-.415-83-.844zm83.31 5.813c7.15-.062 7.93 3.078 7.9 8.406-.6 9.763-13.31 13.299-19.06 14.656-27.47 6.293-75.38 2.567-78.5-10.25-2.29-9.42 3.58-14.641 23.1-9.969 31.36 6.738 50.76-.509 66.56-2.843zm-88.69 27.187c2.85-.02 6.27 2.883 7.25 7.625.84 4.049-3.38 15.971-6.9 18.719-8.74 6.8-16.62-3.776-10.79-15.281 3.37-6.634 6.78-11.038 10.44-11.063zm93.75 1.344c1.31.033 3.64.302 5.16 1.375 6.92 4.894 7.56 21.834 1.09 24.281-6.59 2.494-12.71-4.377-12.65-15.156.03-6.603 2.49-10.599 6.4-10.5zm-21.97 3.5c1.41-.071 2.91.229 4.44.937 5.77 2.66 8.56 20.425 2.84 26.094-4.43 4.395-13.96 4.155-16.75-4.969-3.32-10.904 1.87-21.681 9.47-22.062zm-48.72.5c8.44.057 10.36 18.83 2.1 26.562-6.91 6.465-17.47.101-14.16-12.718 1.65-6.409 5.45-13.395 12.06-13.844zm24 3c12.36 2.109 11.31 32.363-4.87 29.344-9.22-6.429-8.97-28.893 4.87-29.344zm-54.03 32.406 17.47 1.625s-22.61 48.929-43.28 67.625c-7.73 7.835-12.19 8.167-6.31-.187 12.96-16.012 32.12-69.063 32.12-69.063zm104.72.313c10.2 27.201 20.67 54.812 34.6 82.625-21.16-20.396-39.91-51.753-57.19-81.188zm-82.12 2.625 11.56.125c3.85 17.617 10.51 28.849 18.34 38.5 6.78-11.449 11.06-24.029 15.22-37.438l9.19-.125c3.52 2.096-10.81 55.2-24.85 61.656-14.86-12.067-27.39-44.689-29.46-62.718zm-4.88 12.562c-.97 1.269 17.96 46.754 33.97 61.344 15.09-14.644 24.72-33.94 31.19-56.938l49.65 69.688-48.4-33.125c-9.67 16.058-19.93 31.376-32.25 44.125-13.29-14.369-24.79-31.417-36.85-47.625-18.68 13.839-31.78 28.62-56.03 41.531.11.541 47.52-51.131 58.72-79zm-4.66 49.531 33.79 41.282-89.94-1.282zm73.16.657 56.75 39.062-84.56.875zm-452.16 19.218s.48 2.478 1.04 3.969c10.07 41.087 37.85 75.245 79.65 71.188l-137.4 137.343s-22.69-76.986-68.66-155.906c0 0 8.39 1.725 14.94 3 6.14.937 10.8.644 15.4-.562 3.52-.519 6.21-2.821 9.35-3.5 5.29-1.111 11.95.797 15.47 2.031 9.44 1.785 15.86-3.497 27.68-13.938 3.15-2.778 4.35-2.104 8.32-2.093 14.81.039 24.25-12.668 22.59-32.375l-.75-8.75-1.87 9.843c-3.54 18.556-6.01 26.558-24.38 27.344-4.45.19-6.12 3.181-13.16 9.219-9.85 8.455-16.8 9.181-23.78 5.875-7.12-3.374-7.78-1.39-14.5 1.812-7.69 3.668-18.9 3.237-29 .344-14.1-4.039-12.37-2.687-12.37-2.687 81.65 145.327 110.34 284.715 108.53 408.531-2.58 176.422-64.3 318.813-118.44 404.656 0 0 9.29-.94 17.56-2.16 3.99-1.1 7.06-.04 11 1.35 3.68 1.29 6.46 1.23 10.07.81 2.81-.32 9.69.05 14.12.69 10.05 1.44 10.72.12 21.66-10.5 31.05-30.16 29.03-29.05 51.53-28.31 33.75 1.09 60.75 23.36 72 59.46 1.42 4.57 3.28 10.97 3.54 10.97l-2.2-9.56c-9.88-48.41-51.28-66.12-85.84-65.47l145.87-146.249c-.74.139 33.81 111.279 63.91 160.809.05.35-9.13-3.95-25.91-1.77-9.12 1.18-19.33-.02-25.06-1-7.38-.19-11.87 1.99-21.06 9.55-3.82 3.27-7.26 6.85-14.72 10-17.74 7.5-24.81 15.24-24.91 34.69-.01 3.54-.55 8.06-.5 9.81.02.47-.02 1.3.1 1.3.3 0 .71-.72 1.06-1.23.89-1.3 2.67-4.82 4.05-12.97 2.46-14.54 5.52-19.63 19.3-26.08 4.13-1.93 12.83-7.2 16.7-10.28 12.69-10.12 16.92-12.44 27.23-10.04 5.87 1.37 10.85 2.07 18.72 1.12 9.36-1.14 9.9-1.62 19.92.96 6.79 1.75 15.19 3.45 15.19 3.45-141.38-283.902-136.71-547.1 2.83-814.131 0 0-41.31.488-43.06 1.562-.67.408-5.69-.044-11.16-1.031-11.24-2.029-8.78-.667-35.31 26-32.8 32.966-85.27 6.67-101.07-48.656-.82-2.894-1.53-4.637-2.78-6.688-.39-.653-1.44-1.75-1.44-1.75zm133.67 32.468c6.07.644 10.59 2.246 9.84 7.933l-194.72 190.662-3.03-12.281zm41.05 1.157c-2.39 4.734-8.9 10.661-11.75 15.125l10.6 13.188-5.88 10.625-16.28-13.688-31 30.594 25.85 29-24.47 24.688-8.16-9.219 12.94-13.531-20.1-18.813-35.4 34.406 28.84 29.313-21.15 20.281-8.44-8 11.09-12.25-18.81-19.437-32.97 33.625 26.09 29.031-20.15 20-8.94-9.063 9.69-10.093-18.66-19.532-33.59 33.125 27.25 29.563-20.03 17.906-7.07-7.469 9.69-10.406-18.31-19.594-20.84 18.907-3.47-12.969 206.18-204.813zm11.88 3.032-8.69 17.437-6.72-7.375 8.75-9zm-486.31 1.125c-5.35 1.302-128.11 69.686-198 144.75l-.22 27.968-2.6 3.344 1.25 43.281 1.75 2.313.6 17.656-2.78 4.656-.03 48.469 3.71.625.6 59.313 114.81.312-.12 283.375s-67.42-74.103-115.97-117.844l.18 33.125 128.44 132.688c-8.83 1.241-20.33 3.376-37.65 12.937-41.68-26.027-89.85-18.062-89.85-18.062l.19 33.75c30.63-2.957 58.27 1.231 90.47 22.906 26.5-17.965 58.44-28.893 106.06-14.625 10.48 16.594 20.96 33.713 31.44 44.842l-227.41 1.689.28 68.344c10.09.2 35.32 0 35.32 0 12.79 25.06 37.93 59.27 48.37 102.31-14.34 17.21-13.19 31.06.75 48.39-.12 7.82-2.48 16.45 6.31 25.16 28.93-14.15 61.6-7.87 85.91-.64 8.24 2.44 11.35-6.94 11.06-18.75-.73-6.76-.69-9.65 4.5-14.16 12.37-10.72 4.69-32.76 2.75-33.25-.71-19.32 61.21-116.11 61.25-114.33l-12.34 4.47-52.94.24c139.24-134.252 197.43-287.393 185.25-460.315-2.72-43.57-9.5-63.531-9.5-63.531-49.04 21.79-89.35 37.634-128.5 79.562l-2.59-90.125c2.18 4.268 16.71 8.204 23.22 2.75 4.45-2.913 4.9-6.03.78-16.969-5.99-15.878-7.4-49.931-2.94-61.5.52-1.35.96-4.944 1.34-8.468.51-4.744-.53-5.016-.97-4.938 1.14-.277 5.93.693 6.5.188 16.73-14.716 34.68-23.914 56.69-24.875l.56-10.75c-16.32-41.226-30.15-57.39-44.93-80.438 0 0-4.2-1.39-6.85-.844l3.41-3.593c-20.75-32.917-50.27-62.873-77.41-91.313.08-.099.02-.136-.15-.093zm-.91 5.593 14.72 13.594c-70.24 33.759-139.54 83.223-207.78 150.313l.94-24.657c77.13-72.535 135.32-107.377 192.12-139.25zm451.09 24.657 8.85 8.812-12.25 14.219 7.97 8.125-4.44 10.844-20.38-21.157zm-438.5 1.125c4.63 0 8.38 3.749 8.38 8.375 0 4.625-3.75 8.375-8.38 8.375-4.62 0-8.37-3.75-8.37-8.375 0-4.626 3.75-8.375 8.37-8.375zm601.07 11.562c143.18 159.36 69.66 390.958-121.47 446.594l-2.13-13.094c192.83-64.95 238.07-282.235 112.94-418.844zm-576.25 1.063 9.12 10.562c-81.63 38.966-161.25 97.378-238.22 181.656l-.75-21.281c72.29-75.978 149.56-130.947 229.85-170.937zm-52.66 3.25c4.63 0 8.37 3.749 8.37 8.375 0 4.625-3.74 8.375-8.37 8.375s-8.37-3.75-8.37-8.375c0-4.626 3.74-8.375 8.37-8.375zm-25.5 15.75c4.63 0 8.37 3.749 8.37 8.375 0 4.625-3.74 8.375-8.37 8.375s-8.37-3.75-8.37-8.375c0-4.626 3.74-8.375 8.37-8.375zm84.91 5.5c4.62 0 8.37 3.749 8.37 8.375 0 4.625-3.75 8.375-8.37 8.375-4.63 0-8.38-3.75-8.38-8.375 0-4.626 3.75-8.375 8.38-8.375zm363.72 5.781 8.37 8.844-13.28 13.312 18.91 19.75 18.18-17.5-9.12 26.063-160.35 160.25-3.34-16.813 12.63-12.687-19.35-19.313-3.41-12.875 19.04-17.812 7.96 8.187-11.12 12.844 17.91 17.625 32.53-29.938-26.85-29.468 22.16-21.438 7.66 7.469-10.6 10.906 18.66 20.219 33.37-31.969-27.4-28.969 22.03-21.718 8.34 7.968-11.09 13.313 18.97 18.344 32.69-32.282-26.88-28.25zm-473.63 5.625c4.63 0 8.37 3.749 8.37 8.375 0 4.625-3.74 8.375-8.37 8.375s-8.37-3.75-8.37-8.375c0-4.626 3.74-8.375 8.37-8.375zm132.06 1.625 6.38 10.594c-97.18 49.089-164.39 98.264-263.85 211.25v-14.219c76.78-94.267 156.61-155.039 257.47-207.625zm-48.81 1.25c4.62 0 8.38 3.749 8.38 8.375 0 4.625-3.76 8.375-8.38 8.375s-8.38-3.75-8.38-8.375c0-4.626 3.76-8.375 8.38-8.375zm751.91 3.219c17.14 15.253 53.14 30.457 76.34 28.843l.63 18.344c-40.47 3.842-75.82-22.062-75.82-22.062-31.17 19-62.89 21.398-95.97 13.156l-12.71-27.25c49.04 22.736 95.04 1.04 107.53-11.031zm-193.66 4.968c1.8 3.318 7.84 7.157 7.84 7.157 37.76-9.828 49.52 29.083 31.91 51.312l5.03 16.313c6.74 1.221 12.65 3.585 17.44 6.906 9.18 6.366 14.24 17.396 13.09 28.969 1.28 12.54-17.48 24.216-18.5 23.343l-.25 17.938c5.28 4.397 11.64 8.652 15.69 14.875 9.02 15.143 5.44 30.403-8.47 40-8.28 5.594-17.26 6.332-17.62 5.75l-8.72 20.375c7.67 4.332 9.83 11.702 11.03 16.969 2.61 11.419-5.41 26.291-15.47 31.781-12.7 6.931-30.01.773-30 .781l-12.37 12.375c3.18 10.721 4.05 17.116 2.37 23.406-4.17 15.566-20.49 21.669-33.59 20.5-10.3-.917-18.04-8.437-18.04-8.437l-13.71 5.25c.38 0 .2 17.372-6.72 22.687-2.18 2.253-9.91 7.25-9.91 7.25l-1.81-11.968c5.43-3.914 8.81-13.401 7.72-20.344l29.62-14.5c0 1.072 8.11 8.932 13.66 10.062 11.37 2.317 23.26-6.558 23.28-17 .01-6.091-3.5-10.238-4.5-15.156l25.16-26.031c10.41 3.578 17.71 4.187 22.37 1.5 8.79-5.073 11.16-15.545 9.47-21.844-2-7.447-8.64-12.264-9.09-12.969l14.03-35.468c6.54-.035 10.59-1.061 15.69-4.375 10.4-6.831 9.05-20.105 4.62-26.407-5.39-7.668-13.23-9.09-13.84-8.906l1.03-36.844c0 .3 14.19-6.817 15.72-15.031 2.24-12.098-2.86-19.795-17.72-23.219-8.25-1.899-7.81-.312-7.81-.312l-11.76-33.344c18.63-11.354 12.72-29.411 3.29-35.469-9.96-6.388-24-.468-24-.468s-6.4-6.352-11.25-11.469zm-498.31 6.75c12.23 16.453 32.95 49.413 44.53 78.907.5 1.286.25 7.812.25 7.812-33.04 2.873-44.39 15.824-56.13 24.938-9.1-4.674-12.94-10.15-29.4.156-.06.485-41.98-25.359-50-60.438 29.97-18.47 58.53-36.052 90.75-51.375zm-167.72.219c4.62 0 8.37 3.75 8.37 8.375s-3.75 8.375-8.37 8.375c-4.63 0-8.38-3.75-8.38-8.375s3.75-8.375 8.38-8.375zm79.4 1.656c4.63 0 8.38 3.75 8.38 8.375 0 4.626-3.75 8.375-8.38 8.375-4.62 0-8.37-3.749-8.37-8.375 0-4.625 3.75-8.375 8.37-8.375zm573.13 10.282c14.44 18.999 36.2 54.928 41.37 86.75 7.28 44.753 2.44 91.702-18.09 124.531-37.23 70.126-101.8 85.058-101.84 87.5l-.66-14.375c.61 3.234 49.35-17.302 82.53-63.656 20.49-31.415 32.12-76.311 28.16-111.344-2.46-50.488-38.3-97.048-38.6-97.219zm-678.66 6.843c4.63 0 8.38 3.75 8.38 8.375 0 4.626-3.75 8.375-8.38 8.375-4.62 0-8.37-3.749-8.37-8.375 0-4.625 3.75-8.375 8.37-8.375zm79.32.125c4.62 0 8.37 3.75 8.37 8.375 0 4.626-3.75 8.375-8.37 8.375-4.63 0-8.38-3.749-8.38-8.375 0-4.625 3.75-8.375 8.38-8.375zm715.06 14.125c18.59 2.014 41.31 35.707 62 54.938l.22 274.687-61.78 1.25c-8.05 19.328-26.71 38.425-56.44 57.282l-.03-102.938c101.38-108.608 73.8-227.483 56.03-285.219zm-817.13 3.125c4.63 0 8.38 3.75 8.38 8.375 0 4.626-3.75 8.375-8.38 8.375-4.62 0-8.37-3.749-8.37-8.375 0-4.625 3.75-8.375 8.37-8.375zm76.35 1.5c4.62 0 8.37 3.75 8.37 8.375 0 4.626-3.75 8.375-8.37 8.375-4.63 0-8.38-3.749-8.38-8.375 0-4.625 3.75-8.375 8.38-8.375zm784.34.657 126.31 127.343-.43 18.688-142.35-144.625zm-738.03 11.968 3.34 16c-4.08-6.412-4.23-8.784-11.31-9.906zm-68.38 4.657c4.63 0 8.38 3.749 8.38 8.375 0 4.625-3.75 8.375-8.38 8.375-4.62 0-8.37-3.75-8.37-8.375 0-4.626 3.75-8.375 8.37-8.375zm-75.65 2.343c4.62 0 8.37 3.75 8.37 8.375 0 4.626-3.75 8.375-8.37 8.375-4.63 0-8.38-3.749-8.38-8.375 0-4.625 3.75-8.375 8.38-8.375zm710.65 0 24.94 17.657-8.12 31.843-25.53-22.937zm-576.28 2.594 4.44 2.625-5.16 21.781-57.4 20.719c18.46-15.759 37.43-32.94 58.12-45.125zm9.41 10.125c4.08 16.143 12.93 40.016 23.79 60.234-7.37 3.808-33.86 18.795-33.79 25.766 3.74 12.63 31.72 24.219 31.72 24.219-10.61 17.193-20.68 37.46-28.94 60.781-4.78-8.141-5.33-40.243 4.97-53.594-10.16-4.004-24.06-13.158-34.62-22.625 6.81-24.108 35.85-38.506 37.12-38.687-.51 1.213-8.58-50.36-.25-56.094zm-93.19 4.063c4.63 0 8.38 3.749 8.38 8.375 0 4.625-3.75 8.375-8.38 8.375-4.62 0-8.37-3.75-8.37-8.375 0-4.626 3.75-8.375 8.37-8.375zm639.38.687c37.26 69.422 15.1 129.724-44.35 172.938l1.38-16.375c41.01-29.756 67.58-88.331 37.62-144.188zm-710.13 2c4.63 0 8.38 3.75 8.38 8.375s-3.75 8.375-8.38 8.375c-4.62 0-8.37-3.75-8.37-8.375s3.75-8.375 8.37-8.375zm596.1.438c-27.35 101.929-26.67 148.646-29.85 176.281l-106.15.906-4.13-36.75zm-424.1 2.812s23.03 21.372 43.69 40.031l-2.47 4.875-20.09 2.688c-15.38-30.275-21.13-47.594-21.13-47.594zm-19.06 11.188.16.031 1.28 15.187c-6.9-.258-81.56 30.927-138.91 80.719 8.55-15.058 22.97-29.499 36.91-41.813 29.65-29.109 100.56-54.125 100.56-54.124zm-106.13 3.468c4.63 0 8.38 3.75 8.38 8.375 0 4.626-3.75 8.375-8.38 8.375-4.62 0-8.37-3.749-8.37-8.375 0-4.625 3.75-8.375 8.37-8.375zm47 9.532 4.26 4.375-19.82 10.25zm138.13 4.468c.27-.01.56-.004.84.031 3.07.386 4.34 1.84 6.1 3.313-3.88-.805-7.69-1.259-11.31-1.063.91-1.092 2.48-2.208 4.37-2.281zm-75.81 3.157 1.81 11.343c-42.95 24.42-94.06 47.5-168.41 117.789v-23.382c46.67-43.228 101.09-79.481 166.6-105.75zm57.78 1.062c2.68.657 5.06.694 7.5.094 0 0-1.56 3.085-3.41 3.156-1.95.075-4.09-3.25-4.09-3.25zm18.22.656c5.4-.334 9.09 4.607 8 10.969-4.15 21.561-3.99 43.397.47 58.656 3.47 11.894 4.35 16.076 1.47 18.063-25.33 17.463-39.21-61.264-18.07-83.594 2.87-2.695 5.67-3.942 8.13-4.094zm-206.78 2.75c4.62 0 8.37 3.75 8.37 8.375 0 4.626-3.75 8.375-8.37 8.375-4.63 0-8.38-3.749-8.38-8.375 0-4.625 3.75-8.375 8.38-8.375zm727.72 1.938 15.74 26.406-21.93 24.563-13.35-28.532zm-542 14.344-.82 9.118c-11.31 3.433-21.17 8.304-29.65 15.507-1.64 1.405 26.2 13.966 29.12 11.062l-.06 9.719c-.39 3.194-46.04-11.305-49.13-22.125 5.18-7.197 34.06-23.93 50.54-23.281zm-207.76 4.843c4.63 0 8.38 3.75 8.38 8.375 0 4.626-3.75 8.375-8.38 8.375-4.62 0-8.37-3.749-8.37-8.375 0-4.625 3.75-8.375 8.37-8.375zm124.51 9.617c-3.24 6.155-8.03 14.332-8.96 23.269-31.31 18.992-63.43 36.73-102.51 80.302l-21.07-.125-.47-5.531c42.72-40.718 88.97-75.848 133.01-97.915zm80.68 2.633.22 11.469c-7.28.092-11.26-2.283-16.69-5.031 4.58-2.888 8.12-5.754 16.47-6.438zm235.66 1.219 5.87 6.156-3.65 3.438zm-317.31 23.844 11.59 7.219c-29.85 15.575-61.28 38.59-88.47 68.656h-22.97c29.01-31.441 60.26-59.647 99.85-75.875zm618.5 8.281 2.31 31.188-29.13 15.968.57-32.906zm-553.88.125 20.03 2.188 2.07 8.468c-16.81 10.688-31.41 23.224-45.41 36.25 5.36-16.734 13.73-33.346 23.31-46.906zm-48.03 3.344 8.59 3.969-3.4 14.656c-24.54 10.908-44.09 25.641-65.03 45.5h-23.57c20.64-22.114 54.95-49.947 83.41-64.125zm74.53 13.781c.07-.008.1-.008.1.031l3.12 96.125c-86.52 101.287-81.82 199.236-56.59 288.063l-16.5-.75c-19.18-23.827-44.69-48.094-44.69-48.094l-.06-279.625 59.65.219c14.07-32.546 52.76-55.707 54.97-55.969zm-70.44 13.5.72 12.813c-12.33 7.32-22.81 15.378-31.81 24.031h-22.41c15.49-14.415 30.87-28.926 53.5-36.844zm203.41 6.281 3.28 15.125c-200.82 72.641-237.11 283.818-118.59 428.782l-8.06 9c-136.1-146.142-76.36-384.868 123.37-452.907zm-201.81 15.125s1.09 11.587 1.44 15.438h-22.5c5.06-5.932 9.55-12.085 21.06-15.438zm565.12 4.844-12.94 30.156-34.53.532 15.69-30.157zm-218.59 20.656h31.47v30.063h-31.47zm-136.19 2.969.53 13.219c-13.98 7.115-10.45 18.429-13.97 18.25-8.59 2.174-31.25 14.187-31.25 14.187-8.04-7.284-18.87-5.45-23.9-1.906-6.99 4.57-8.53 15.211-6.53 24.219l-24.04 28.094c-11.6-4.96-22.92-4.651-28.56 3.093-6.36 8.736-3.95 19.573 6.56 31.719l-13.09 33.594c-1.51-2.011-23.42 4.421-23.72 17.437-.31 13.775 18.12 22.76 18.1 23.813l-.88 37.062c-.83-1.782-18.81 5.558-16.37 23.313 2.24 16.351 24.5 14.358 24.96 15.719l12.1 35.468c-.81-1.082-16.39 14.169-6.84 28.594 7.95 12.023 31.06 4.245 30.87 3.469l6.41 9.031-7.1 7.688s-3.06-3.672-4.78-3.344c-13.45 2.571-28.48-.513-35.69-11.25-9.81-15.15 1.15-38.822 4.63-38.625l-8.31-20.438c-15.15-.299-27.98-13.823-28.66-25.156-1.43-23.729 18.05-33.656 18.09-33.5l.57-22.125c-1.2 1.323-19.25-11.486-18.82-26.187.32-10.745 9.37-23.384 20.5-28.469 3.23-1.516 8.25-3.906 8.25-3.906l7.54-18.125s-10.67-15.406-7.91-30.938c5.13-23.517 35.78-21.904 40.62-19.625l14.22-17.812c-7-16.254 5.1-35.115 20.91-38.188 7.03-1.127 26.72 3.531 26.72 3.531l18.22-9.406c-.32-9.956 10.55-16.438 20.62-22.5zm103.6 32.906h26.96v30.063h-26.96zm71.84 0h30.4v30.063h-30.4zm-173.25 7.532-.35 11.5c-174.1 84.416-102.89 259.196-78.06 279.531l-5.59 12.344c-30.55-18.579-109.31-220.26 84-303.375zm134 30.437h32.72l.28 30.906h-32.72zm-141.56 15.031-10.38 28.157-31.97 2.687 11.82-28.094zm653.25 20.594 21.87.125c-40.89 47.832-85.03 80.431-128.59 98.281 0 0-.15-4.259 1.18-7.625 1.07-2.668-.65-9.406-.65-9.406 48.42-23.847 81.68-51.548 106.19-81.375zm-112.1.406c-5.63 6.765-12.05 12.728-20.03 17.142l-3.15-17.423c6.68-.078 23.18.281 23.18.281zm38.5-.375c2.22 5.567-57.41 37.762-57.62 35.018l.15-10.705 32.18-23.875zm12.88 0h.12l16.78.094c-15.16 23.908-95.32 67.316-91.99 61.207l3.24-17.486c25.84-11.365 49.29-26.82 71.85-43.815zm28.28 0 22.08.094c-33.22 42.186-66.92 57.585-99.25 75.736-1.94-.282-1.06-1.012-7.12-.834l-11.05-8.623c2.06 1.895 74.29-40.448 95.34-66.373zm-617.84 1.5-.76 12.75c-46.47 39.966-65.11 91.036-40.93 150.313l-5.75 12.656c-26.01-63.251-18.33-124.709 47.44-175.719zm211.62 2 2.47 34.406-144.28 140.438c21.96-78.46 28.04-125.819 33.93-174.656zm462.03 8.094.06 19.094c-56.88 62.658-114.21 90.737-163.75 102.093l-1.12-7.343 22.94-14.125c73.91-32.193 106.27-64.608 141.87-99.719zm-172.64.513c1 13.798-11.28 39.85-25.33 54.549l-24.06-.062-2.66-10.438c19.95-10.757 38.43-25.32 52.05-44.049zm7.27 4.112c8.83 14.221-4.43 51.02-4.97 49.562-1.06 2.538 75.59 18.74-3.16 56.657 1.72 11.139 9.1 34.928 3.41 49.625-1.78-5.629-15.48-43.794-26.06-53.563 24.58-7.005 42.28-22.045 40.37-27-4-7.05-15.01-15.713-33.53-22.062 15.77-21.881 20.45-38.308 23.94-53.219zm-562.97 6.969 2.47 29-28 16.843-2.16-31.843zm487.12 26.937c2.19.028 4.25.594 5.25 1.688 13.83 5.597 14.83 73.07 2.28 79.937-9.12 5.733-15.53-3.485-15.22-5.125 6.05-31.044 2.27-50.234-.24-71.937.26-3.156 4.29-4.61 7.93-4.563zm241.22 1v24c-81.31 84.286-168.93 150.722-258.37 188.031l-8.16-13.843c108.63-50.232 199.47-121.896 266.53-198.188zm-14.28 2.188c-37.66 52.424-83.55 86.651-146.41 102.187l-1.18-14.875c78.28-17.784 149.62-87.312 147.59-87.312zm-1025 8.5c49.05 50.143 99.31 99.844 149.25 151.312l-19.84 1.031-130-134.875zm583.94 2.5 1.75 12.375-14.28 15.656 22.56 24.25 1.16 5.719-19.38 20.25-8.75-8.657 10.72-12.031-18.19-19.125-33.72 32.438 27.78 30.156-20.96 19.937-8.26-8.531 10.72-12.375-18.62-19.656-34.38 34.187 26 28.719-17.34 19.188-8.22-8.657 8.91-10.218-18.85-19.407-33.03 31.813 27.19 30.062-22.09 22-8.57-8.312 12.41-13.5-20.37-19.406-16.35 15.437s6.17-15.317 7.06-17.906c1.32-3.806 6.73-6.818 41.1-40.719 41.01-40.825 83.08-79.082 124-123.687zm235.25 8.25c11.98.201 32.38 3.091 42.28 8.312 18.37 9.688 12.59 17.313.66 23-14.27 6.798-25.98 10.123-42.1 10.594l.47-7.906c9.36-2.264 19.07-4.548 27.34-9.125 5.69-3.149 7.16-5.688 7.16-5.688s-5.55-5.639-14.37-8.844c-6.47-2.345-15.7-2.328-20.72-3.156zm-536.5 10.437 15.09 22.625-17.87 29.969-17.16-25.844zm304.47 2.438c.53 4.263 5.92 20.837 3.09 17.625l-10.03-11.282zm232.97 2.218c8.34.704 17.12.953 23.21 3.907-7.06 5.481-15.07 6.706-23.06 8.062zm209.4 11.313c5.04 0 9.13 4.085 9.13 9.125s-4.09 9.125-9.13 9.125-9.12-4.085-9.12-9.125 4.08-9.125 9.12-9.125zm-470.94 15.813 7.78 7.531-10.06 11.719 18.25 19.218 22.6-21.156 3 13.438-211.69 208.277-11.75-.84 13.47-15.91-15.32-15.65 6.29-11.252 18.06 16.062 33.09-31.656-26.81-28.219 22.94-23.531 8.65 7.469-13.15 14.25 19.15 19.562 34.63-34.062-27.09-29.469 21.62-20.625 7.94 7.531-10.06 10.656 19.74 20.563 29.19-30.375-26.56-29.25 23.59-22.969 7.25 7.25-10.87 12.125 19.84 20.531 31.85-32.718-26.22-28.438zm449.75 5.437c5.04 0 9.13 4.085 9.13 9.125s-4.09 9.125-9.13 9.125-9.12-4.085-9.12-9.125 4.08-9.125 9.12-9.125zm-172.06.406c14.38 16.882 23.03 35.665 24.75 55.875-11.48-17.428-26.1-32.884-45.25-46.312l3.28-8.469zm203 1.374v20.376c-64.13 72.654-141.97 127.417-221.91 165.532l-13.59-16.532c94.53-42.202 162.94-94.61 235.5-169.376zm-94.34 14.22-26 20.188-.03-8.75zm-134 1.5c22.13 10.806 40.69 29.065 51.75 56.125-30.23 18.97-63.39 34.331-95 49.625-15.18-24.441-30.45-47.339-42.44-78.803 48.75-.361 62.13-26.992 62.47-27.197 11.75 4.442 14.21 4.971 23.22.25zm175.15 3.969c4.55.088 9.09 3.566 9.25 8.781 0 5.04-4.08 9.125-9.12 9.125s-9.13-4.085-9.13-9.125c.99-6.296 5-8.859 9-8.781zm-67.46 6 .06 8.812c-12.45 10.907-36.63 28.563-36.63 28.563l-10-.531 3.25-25c15.15-3.051 29.82-7.476 43.31-11.844zm-636.79 1.031 23.88 19.625-7.31 30.438-23.5-17.844zm320.63 5.75 2.22 8.813-196.16 193.907-11.16-1.81zm361.87 7.5c5.04 0 9.13 4.085 9.13 9.125s-4.09 9.125-9.13 9.125-9.12-4.085-9.12-9.125 4.08-9.125 9.12-9.125zm72.44-.062c1.07 0 2.35-.078 2.35.937v16.781c-.96.34-1.99.532-3.07.532-5.04 0-8.4-4.086-8.4-9.125 0-5.04 4.08-9.125 9.12-9.125zm-22.13 20.342c5.03 0 9.12 4.086 9.12 9.125 0 5.04-4.09 9.125-9.12 9.125-5.04 0-9.13-4.085-9.13-9.125 0-5.039 4.09-9.125 9.13-9.125zm-76.68.095c5.04 0 9.12 4.085 9.12 9.125s-4.08 9.125-9.12 9.125-9.13-4.085-9.13-9.125 4.09-9.125 9.13-9.125zm-65.97 2.813 9.37.312-17.43 10.375c3.2-4.006 6.19-7.074 8.06-10.687zm167.25 4.268.12 18.763c-44.86 44.847-101.52 91.375-188.15 136.221l-11.04-11.18c70.64-33.688 136.92-80.889 199.07-143.804zm-127.41 10.232c5.04 0 9.13 4.085 9.13 9.125 0 5.039-4.09 9.125-9.13 9.125s-9.12-4.086-9.12-9.125c0-5.04 4.08-9.125 9.12-9.125zm81.13.687c5.04 0 9.12 4.085 9.12 9.125s-4.08 9.125-9.12 9.125-9.13-4.085-9.13-9.125 4.09-9.125 9.13-9.125zm-908.75 36.625c30.96-17.968 55.84-20.075 91.31-14.656l10.6 20.906c-34.54-6.121-70.92-5.574-102.04 18.437-32.24-20.371-56.73-26.251-83.21-22.939l-.47-22.038c34.5-4.821 65.47 7.002 83.81 20.29zm802.47-19.875c5.04 0 9.12 4.085 9.12 9.125s-4.08 9.125-9.12 9.125-9.13-4.085-9.13-9.125 4.09-9.125 9.13-9.125zm83.43 3.75c5.04 0 9.13 4.085 9.13 9.125s-4.09 9.125-9.13 9.125-9.12-4.085-9.12-9.125 4.08-9.125 9.12-9.125zm-110.87 13.625c5.04 0 9.12 4.085 9.12 9.125s-4.08 9.125-9.12 9.125-9.12-4.085-9.12-9.125 4.08-9.125 9.12-9.125zm85.07 5.291c5.04 0 9.13 4.085 9.13 9.125s-4.09 9.125-9.13 9.125-9.12-4.085-9.12-9.125 4.08-9.125 9.12-9.125zm-113.19 10.834c5.1 0 9.24 4.141 9.24 9.25s-4.14 9.25-9.24 9.25c-5.11 0-9.26-4.141-9.26-9.25s4.15-9.25 9.26-9.25zm88.81 7.655c5.04 0 9.12 4.086 9.12 9.125 0 5.04-4.08 9.125-9.12 9.125s-9.13-4.085-9.13-9.125c0-5.039 4.09-9.125 9.13-9.125zm-115.85 6.314c5.04 0 9.13 4.085 9.13 9.125 0 5.039-4.09 9.125-9.13 9.125s-9.12-4.086-9.12-9.125c0-5.04 4.08-9.125 9.12-9.125zm-403.4 8.25 22.68 20.781-23.46 23.565-8.6-8.252 13.06-13.657-8.84-11.906zm494.07 2.019c5.04 0 9.12 4.086 9.12 9.125 0 5.04-4.08 9.125-9.12 9.125s-9.13-4.085-9.13-9.125c0-5.039 4.09-9.125 9.13-9.125zm-26.27 15.449c5.04 0 9.12 4.085 9.12 9.125 0 5.039-4.08 9.125-9.12 9.125s-9.13-4.086-9.13-9.125c0-5.04 4.09-9.125 9.13-9.125zm-28.55 15.5c5.04 0 9.12 4.085 9.12 9.128 0 5.04-4.08 9.12-9.12 9.12s-9.13-4.08-9.13-9.12c0-5.043 4.09-9.128 9.13-9.128zm-469.28 25.808 7.4 6.04-11.62 14-8.88-.13zm-143.35 37.76c-25.86 12.79-38.15 20.9-56.18 36.59l-25.85-35.85zm-175.97.24 68.88.97-22.91 32.41c-15.1-15.92-30.42-26.73-45.97-33.38zm82.03 3.54c7.47 2.37 27 30.21 36.19 45.4 19.59-15.57 38.77-32.98 59.69-42.34-24.88 26.27-46.71 53.44-62.25 79.72-4.41-11.85-16.67-45.76-32.19-60.5-24.48 22.85-34.15 50.44-34.15 50.44-13.17-22.44-29.03-44.92-47.38-65.94-3.04-4.1 22.33 11.66 47.44 36.09 7.07-17.81 25.99-42.17 32.65-42.87zm-82.71 17.5c11.82 9.39 43.99 50.65 47.68 75.46l-15.4.97c-8.19-25.48-21.96-50.95-32.28-76.43zm171.28 4.22c-11.65 23.88-26.1 48.28-36.47 74.71l-15.22-.65c16.67-36.43 22.74-43.1 51.69-74.06zm-87.28 10.62c.14-.01.28.02.37.09 14.46 19.74 21.29 38.93 25.6 62.29l-11.19-.44s-7.81-23.44-13.16-31.72c-3.47-5.06-6.24-4.41-8.69-.22-5.52 9.91-7.58 19.84-10.68 30.62l-12.88-.93c-2.38-17.7 26.11-59.24 30.63-59.69zm-2.03 68.03c5.23.07 10.7 5.74 10.65 15.7.41 4.67-3.22 15.02-7.15 15.55-7.3 3.87-15.93-8.16-13.76-18.19 1.85-8.55 5.64-13.11 10.26-13.06zm-25.34 1.89c10.34.91 12.56 24.1 8.37 28.84-4.81 4.77-17.53 1.38-18.73-6.88-4.15-10.51 3.41-21.86 10.36-21.96zm50.96-.14c11.26 1.58 8.42 27.03 2.6 30.77-9.05 4.79-15.95-3.21-12.89-15.18 2.46-9.63 6.13-15.36 10.29-15.59zm26.03 4.22c12.9 1.44 5.45 23.85-.19 28.41-8.18 6.38-16.08-3.15-12.15-14.53 3.04-8.83 8.1-13.94 12.34-13.88zm-104.08.69c9.38 1.5 14.81 22.72 9.23 28.79-2.92 3.47-11.4-1.6-15.27-7.42-4.65-6.98-.3-21.4 6.04-21.37zm99.85 46.23c1.11 11.14-7.29 11.14-31.52 5.7-12.23-2.74-33.92-1.01-45 1-18.65 3.39-21.28 2.1-21.25-5.5.04-8.8 10.5-13.8 34.69-14.55 17.31-.53 60.39-.7 63.08 13.35zm37.67-6.54c-28.85 2.71-36.52 38.86-33.35 52.21 2.54 22.33 1.46 45.71-2.84 61.07-3.08 11.03-5.82 22.78-10.78 32.78-7.59 15.11-5.63 26.32 5.62 32.34 9.25 4.95 20.63 3.26 27.76-4.4 12.88-13.85 14.42-43.25 6.53-109.94-2.79-23.54-1.3-28.23 10.12-26.91 23.97-.18 23.01-37.12-3.06-37.15zm-3.47 30.37c-6.45-2.49-10.83 3.37-9.97 17.97.23 6.48 1.37 13.76 2.19 19.56 9.33 63.99 5.84 106.86-13.81 108.97-17.11 2.74-28.7-9.85-20.35-22.87 4.73-7.38 8.8-8.38 18-4.5 12.65 7.83 9.48-3.58-1.9-12-7.3-5.17-7.86-5.17-3.94-21.32 5.28-21.78 7.06-37.32 5.12-64.87-2.72-19.49 3.79-45.34 28.6-46.87 25.09-.75 17.52 34.87-3.94 25.93zm-177.09 84.28c8.16 3.94 16.1 3.27 23.87.06 3.03-13.6 3.22-24.92 12.37-43.42-15.25-15.26-40.92-9.26-48.14 6.73-7.23 16-.5 30.65 11.9 36.63zm24.47-47.23c9.24 1.97 7.85 11.68-.85 8.51-20.74-9.76-37.65 19.63-20.91 30.69 8.55 4.78 12.32 2.04 3.85-4.53-3.47-3.99-2.6-5.62-.5-9.63 4.35-8.07 20.15-6.76 19.03-.9-3.6 18.61-5.97 23.98-11.56 24.03-32.21 1.66-38.27-58.63 10.94-48.17zm273.59 33.48s-95.95 108.48-142.16 164.03l579.22-2.69-110.22-152.06c-94.55 21.83-205.64 15.53-326.84-9.28zm-2.88 34.66c14.47.16 30.93 10.66 45.16 45.68.77.33 63.7-95.56 118.19 3.72 8.89-22.28 60.21-80.42 119.53-5.81 21.07-49.93 69.66-33.04 74.22-15.62-1.03-3.75-46.31-14.5-65.91 18.59-3.62 7.01-3.81 13.65.34 17.59 9.8 9.29-.86 22.6-12.02 15.03-4.35-2.95-4.9-9.14-1.56-13.61 9.84-7.34-10.33-30.17-26.92-38.39-22.76-11.27-54.5-6.29-69.77 9.88-8.21 8.71-13.22 16.52-14.42 22.77-.64 2.9-.25 4.41 1.47 6.35 6.62 7.99 2.26 18.92-6.7 17.59-11.74-1.74-10.17-12.71-2.32-18.71 2.41-1.18 1.49-2.59.77-4.64-21.43-60.33-101.28-48.84-109.91-7.06-.32 1.52-1.01 3.11-.66 4.67.9 4 3.24 7.37 2.34 10.51-3.67 12.83-19.72 9.15-20.44-1.48-.33-4.83 4.89-6.29 7.44-10.7 1.53-2.77 2.23-6.16.76-9.23-21.64-45.33-58.78-35.84-77.21-25.6-.39.21 16.48-21.76 37.62-21.53zm-24 26.28c7.92-.28 15.12 3.61 21.85 11.4 22.68-11.99 38.8 8.78 36.12 10.79-32.11-20.85-42.54 27.72-10.9 25.88-13.9 28.76 35.76 41.09 30.19 4.33 30.65 10.69 35.7-31.39 4.66-30.76 10.03-17.36 36.07-12.58 47.08-1.7 12.95-15.82 44.75-.74 47.91 12.78-35.66-18.27-39.26 37.57-4.72 25.68-10.23 35.55 44.68 30.49 29.5-.15 34.2 11.24 29.55-39.87-4.06-29.5-2.04-2.65 26.57-32.2 47.37-4.44 2.82-4.89 35.29-20.9 53.07 4.25-38.51-13.02-31.22 38.81-3.63 28.5-7.38 34.34 42.41 28.77 29.69-.5 38.58 9.76 21.49-49.01-5.62-27.31 4.43-23.62 36.85-13.83 36.49-10.19 0-.02 17.22-18.62 36.5-5-30.12 2.54-19.87 43.16 8.59 31.6-.3 13.78 11.16 22.92 26.66 18.24l24.35 34.04-555.25 3.5 44.35-52.87c14.84 12.26 30.22 6.46 32.11-12.77 32.29 19.8 40.68-27.23 10.38-29.27 6.15-4.19 11.9-6.34 17.31-6.53zm-31.03 15.28c1.92 1.36-.69 7.89-4.94 6zm432.94 13.66c1.65 2.36 2.82 3.88 4.47 6.25.79 2.11-8.66-1.12-4.47-6.25z" transform="matrix(.151838 0 0 .151838 -131.044 61.013)"/></g></svg>