<svg clip-rule="evenodd" fill-rule="evenodd" viewBox="0 0 228 316" xmlns="http://www.w3.org/2000/svg"><path d="m1219.36 1764.98c0-5.87-4.76-10.63-10.63-10.63h-201.97c-5.86 0-10.627 4.76-10.627 10.63v290.55c0 5.87 4.767 10.63 10.627 10.63h201.97c5.87 0 10.63-4.76 10.63-10.63z" fill="#fff" stroke="#bfbfbf" transform="translate(-994.078 -1752.301)"/><g fill-rule="nonzero"><path d="m78.178-191.196 1064.592-11.819 20.84 1701.465-1067.448 9.01s-12.368-1110.305-17.984-1698.656zm774.936 1680.846c-40.432-71.08-104.389-186.9-106.252-187.8-23.035 12.53-258.915 46.63-372.881 17.41-38.214 58.53-75.733 116.49-108.928 174.45zm-365.183-209.9c-5.941.2-12.53 3.88-11.342.73.687-1.83 2.162-20.18 2.822-26.75 1.745-2.94 4.333 4.68 4.127 11.79-.119 4.08 1.818 1.15 15.279 1.7 14.56.6 26.512 3.18 31.461 4.19 17.251 3.51 50.515.48 64.668-10 7.661-5.68 10.649.33 2.754 6.41-35.654 27.49-64.276 17.48-95.563 13.28-4.663-.62-9.384-1.51-14.206-1.35zm15.003-25.87c-2.252-1.42-3.723-1.55-6.569-.2-10.977 5.25-8.172-2.13-.305-9.62 3.592-3.42 3.469-5.14.672-8.66-1.415-1.78-3.747-1.97-3.223-4.67 2.259-11.64 18.459-29.38 36.695-37.43 7.586-3.35 8.832.21-.744 5.95-14.728 8.82-19.44 16.26-11.088 13.16 16.191-6.01 31.065-2.06 51.979 8.02 5.975 2.89 8.703 3.43 13.753 2.84 3.701-3.12 7.089.54 9.426 2.45 1.467 1.15 1.784 1.7 3.436 1.3 11.807-2.9 4.797 4.68-11.251 16.59-28.747 20.68-60.249 30.63-82.781 10.27zm44.634 4.51c11.802-3.68 26.163-11.24 34.934-19.07 10.661-9.51 4.589-8.01-7.717-1.96-17.81 8.77-30.318 11.38-50.466 11.15-16.864-.2-16.342-.88-16.933 1.21-2.075 7.35 21.21 14.58 40.182 8.67zm-33.03-28.25c.927-3.17 1.616-7.38.74-8.74-1.586-2.46-4.918-.59-9.121 4.8-2.604 3.35-2.235 3.79.375 6.38 1.308.86 2.311 1.5 3.099 1.94 3.615 1.49 4.157-1.84 4.907-4.38zm7.418 4.24c4.992-17.59 16.603-17.38 25.071-.69l5.842-.03c-12.37-32.51-35.435-15.72-36.032.52 2.747.88 5.119.2 5.119.2zm43.336-3.43c5.447-3.1 4.62-5.16-2.402-8.65-4.989-2.49-7.621-2.98-8.505-1.33.108 3.62.313 8.79 2.451 11.64 2.201 1.29 5.198-.04 8.456-1.66zm-77.381-49.08c-1.022-1.64-.878-4.66 2.915-6.45 23.388-11.07 6.005-33.69-11.953-16.38-5.704 4.75-14.24 7.03-20.882 4.31-6.248-2.62-6.447-10.17 1.794-11.87 2.704-.56 9.643-2.11 12.19-3.9 31.366-17.12 48.528 19.15 26.276 31.53-4.572 2.72-9.437 4.26-10.34 2.76zm-88.759-32.13c-12.87-5.61-14.846-25.6-2.931-33.53 7.582-5.27 15.376-6.77 36.532 3.34 14.944 7.13 23.364-.82 23.075 7.68-.176 5.17-.429 10.38-9.055 11.72-14.023 2.18-23.821-16.63-41.84-14.65-13.002 1.43-11.181 16.87-1.742 19.91 12.58 4.05 5.035 9.09-4.039 5.53zm235.486.3c-2.34 1.12-3.5-3.98-2.513-6.71 6.234-15.14 11.987-27.19 17.631-41.37 4.504-11.31 7.554-16.17 9.632-16.18 2.121-.01 3.124 1.62-.351 8.59-5.21 14.03-24.359 56.86-24.399 55.67zm-105.18-2.74c-5.708-3.94-4.819-9.9 1.677-5.47 8.348 5.69 21.81-5.04 18.93-15-3.481-12.03-19.662-14.77-33.062-3.81-21.139 17.28-44.531 18.41-44.677 5.08-.006-3.81-.551-4.67 8.318-5.36 10.311-.81 21.899-5.63 27.645-9.19 25.772-15.99 53.495-5.46 48.07 20.8-2.442 12.39-17.629 18.54-26.901 12.95zm-95.565-37.61c-2.105-.04-5.932 2.11-7.044 1.3-2.178-1.58-1.917-6.23-3.749-11.18-3.25-8.8-.146-6.08 5.428-3.75 7.567 2.81 14.7 2.17 21.03-.09 6.529-2.33 15.136-1.91 28.921-.28 11.089 1.31 17.305.82 27.325-2.14 10.87-3.51 7.996-2.26 6.251 4.44-1.135 4.4-2.562 10.29-3.933 11.72-7.587-4.11-13.295-2.42-18.219.48-8.105 3.66-13.871 4.34-20.561 2.43-6.313-3.48-10.033-3.15-15.039-.03-8.636 4.27-12.565-2.59-20.41-2.9zm162.457-20.17c1.499-2.68 3.678-6.38 5.719-10.52 16.484-33.43 17.532-42.68 5.512-53.75-16.153-14.88-29.705-8.2-44.686 22.03-3.637 7.33-5.8 12.84-7.277 15.11-1.702 2.61-3.747.64-4.755-.36-1.91-1.9 14.732-33.99 21.317-41.03 17.233-18.41 49.792-4.19 48.005 20.62-.9 12.5-3.214 19.37-14.456 42.38-2.782 5.7-5.199 10.53-6.68 12.86-5.353 3.65-4.211-4.6-2.699-7.34zm-158.864.44c2.53-11.87 40.684-17.77 50.927-2.36 1.001 1.51.424 1.45-3.912.32-19.501-6.16-23.351-5.77-41.885 1.75-2.787 1.1-4.773 1.56-5.13.29zm145.784-3.86c-.005-1.12 1.361-5.51 3.472-9.77 12.465-25.15 15.911-31.23 11.972-35.86-7.674-9.03-17.757-1-26.814 25.23-3.386 9.8-5.79 7.74-7.511 6.22-3.296-2.92 10.817-33.47 17.734-38.08 15.685-10.15 28.247 1.26 21.493 21.75-5.344 9.28-9.685 23.5-14.688 31.02-2.377 3.37-5.643 2.42-5.658-.51zm-57.592-40c-.783-1.25.69-2.96 6.033-14.67 7.346-16.1 9.614-22.06 6.455-31.17-5.63-16.235-26.213-20-38.572-9.169-4.044 3.495-6.76 8.303-8.636 12.609-4.399 9.98-8.014 22.87-10.655 25.59-2.31 2.37-5.564 2.88-5.396-1.2 2.869-8.68 4.196-15.4 11.068-28.152 17.063-37.931 67.65-21.017 56.296 18.842-4.224 14.47-9.148 25.44-12.092 29.02-1.638 2-4.41.31-4.501-1.7zm-11.773-6.8c-.006-1.24 1.844-4.8 3.796-9.75 8.29-21.04 8.275-27.46-4.15-27.59-7.419 1.03-8.489 4.07-14.829 20.66-2.059 5.39-3.184 9.23-4.425 10.88-1.332 1.77-3.878.76-4.93-.29-2.694-2.66 8.636-29.89 14.727-35.062 14.002-12.382 32.511 4.772 24.104 20.452-3.9 10.94-7.284 18.37-9.606 21.76-2.053 3-4.669 2.61-4.687-1.06zm-303.659-240.805-42.974-2.452c8.115 45.574 9.06 95.83 1.77 131.557-6.233 30.547-6.059 52.994-3.804 79.39 2.623 30.72 16.003 56.64 19.661 89.23 2.65 23.62-2.338 48.35-6.778 71.91-7.418 39.37-5.753 43.45-4.085 89.54 1.546 42.72-2.479 41.23-4.973 38.76-.377-.37-.806-7.92-.85-16.91-.043-8.99-.846-30.97-1.53-46.22-1.368-30.47 1.742-57.45 4.088-68.56 4.776-22.62 10.168-45.8 6.412-70.74-7.419-31.44-17.731-62.81-21.563-93.15-4.726-37.414 5.451-75.118 8.651-102.364 3.09-26.307-.998-71.713-8.128-90.549-1.262-6.279-7.007-14.42-7.007-14.42-6.485-.848-12.995-1.686-22.075-1.528 1.496 180.408 4.002 360.881 6.148 541.301l40.453 36.53 40.711-39.38zm5.188 206.915s61.487 34.32 129.236 67.97c-6.852-39.28 13.428-45.44 32.479-50.22-5.421-75.98 64.754-61.161 76.213 4.78l6.898-.05c11.764-33.071 23.506-55.933 51.063-61.664 21.355-4.442 42.614 8.812 48.318 40.524-.967-2.23 70.501-42.79 73.414 41.2 32.432-20.54 55.928-3.37 65.631 22.14 13.556-21.06 48.055-22.36 59.072-24 3.793-4.46 10.543-7.05 22.864-7.11 10.554-.65 24.657-8.67 32.064.83 11.123 1.62 19.561-.47 29.131 6.72 7.617 5.63 16.181 18.27 28.655 9.35 23.841-11.76 50.722-17.23 72.002-31.32 0 0-5.764-7.22-4.095-6.19.612.37 3.318 3.78 7.357 5.34 1.447.56 14.53-7.44 14.53-7.44-90.414-101.361-166.072-300.365-119.632-485.779 1.308-3.162-4.095-4.311-6.758-5.397.8-1.427 13.925.331 8.492 12.146-5.211 35.483-11.133 73.937-12.219 103.321.017 3.579.376 6.775.376 6.775 201.195 89.662 178.865 288.953 128.206 358.794l8.225 10.66c3.614 2.35 156.514-88.662 151.394-92.272l28.96-14.75-9.05-390.203-115.26-7.485s1.19-3.291 2.63-4.157c.79-23.835-1.74-59.05-.92-88.558-.49-84.293.05-112.965-1.08-115.284-35.775-22.882-89.117-56.331-133.875-72.341 1.835.5-.338 34.936-1.672 36.914-41.558 13.706-22.012 30.418-37.223 48.769-10.229 11.44-34.439 13.865-46.29.408-14.132-13.309-21.031-44.125-21.031-44.125-21.8 23.723-16.956 52.035-46.381 63.042-47.226 23.969-63.081-45.948-60.302-44.355-18.005 17.659-68.908 32.425-75.243-41.232-22.723 21.29-48.574 11.134-59.779-14.629-14.008.649-29.602 11.752-43.722 17.815-13.098 5.944-29.898 9.537-42.4 9.417-15.612 2.055-28.489 2.126-42.624-1.892-6.593 2.211-21.588-4.019-26.295-13.129-7.136-8.16-13.283-8.572-19.963-7.011-22.681 12.212-47.11 15.371-73.9 28.189-1.669 1.181 2.402 3.326 1.036 2.911-.575-.175-14.072 6.788-14.072 6.788 138.392 176.965 147.815 357.083 120.641 485.119-1.072 4.439-1.656 7.66 1.331 11.11-4.334-.694-4.39.567-5.229-2.183l12.994-107.361c.273-12.953 1.912-12.014-9.574-16.716-10.623-4.349-20.668-8.542-29.452-13.785-33.534-24.158-71.464-53.932-90.202-91.4-53.171-80.388-36.998-177.191 1.306-254.175l-9.851-9.957c-113.702 58.277-180.526 120.496-180.526 120.496l4.743 382.937 117.645 12.18zm-59.522-255.089c-3.813-4.103-13.415-4.724-17.379-1.528-.914.784-2.84 4.867-3.425 4.724-5.34-1.3-9.035-2.36-9.793-6.822l5.555-8.561c4.396-6.775 10.818-9.232 21.651-11.88 3.845-.94 9.654-1.825 11.7-2.716 8.122-3.601 10.88-11.231 2.652-7.734-6.019 1.717-14.461 1.264-15.642-4.217-.971-4.504-4.853-6.23-9.155-5.652-7.939 1.992-15.164 6.21-22.165 10.452-3.105 1.909-8.984 6.221-8.984 6.221-.919 1.469-4.485-9.133-1.305-12.278 3.998.437 7.434.437 11.311-1.151 9.671-3.96 18.971-8.712 28.732-12.55 6.217-2.509 6.792-2.309 5.098-6.7-.829-1.617-1.609-7.012-.565-9.852 1.11-3.019.965-4.529-.987-5.793-4.444-2.876-14.993-.034-29.794 7.244-4.507 2.22-7.485 3.122-10.324 5.456 1.795-4.708.71-5.56.607-10.466 6.083.691 11.523-1.77 16.344-4.367 3.977-2.126 8.44-4.231 19.417-5.751 2.998-.415 1.511-11.337-1.944-14.469-3.267-2.961-10.066-2.95-18.26-.438-7.326 1.76-16.437 3.561-21.402 11.467-6.305 6.074.045-9.954 11.593-16.45 5.094-.165 16.304-2.689 18.941-3.3 4.474-1.037 5.076-11.517-1.491-15.931-4.12-3.499 14.785-3.801 14.433-2.716-.234.619-.36 5.097 1.098 6.222 8.17 2.348 8.17 8.975 8.916 11.759 9.52 15.172 14.016 5.537 20.394.203-.987 33.283 10.743 36.937 12.313 39.026-15.725 29.985-3.608 30.583 11.521 37.272 0 0-5.696 2.374-9.506 2.183-5.995-.3-17.382 6.895-22.349 11.115-2.739 2.328-2.845.413-13.907.216-10.422-.186-11.178.597-15.905 2.744-9.327 4.236-9.235 8.137-.095 6.499 9.735-1.749 19.356 4.041 20.568 12.056.79 1.51.128 4.2-.026 4.113-2.036-.358-6.621.455-6.562-.513.059-.967-.053-4.604-1.879-7.137zm13.786-40.473c2.627-1.709 3.028-6.501.705-8.41-2.115-1.738-11.007-.698-13.498 1.578-5.637 4.519 4.839 11.856 12.793 6.832zm5.478-20.09c3.244-2.577 3.577-8.689.702-12.204-4.875-5.961-17.4-2.221-17.996 5.373-.635 8.086 10.509 12.222 17.294 6.831zm-4.394-27.429c.518-6.641-6.127-10.77-12.162-7.556-7.516 4.002-2.834 12.211 6.629 11.62 5.242-.327 5.242-.327 5.533-4.064zm-22.427-26.673c-3.512 1.762-3.644 5.899-.272 8.525 13.343 7.142 9.089-12.334.272-8.525zm926.675 29.37c-6.06-21.292-21.87.06-21.89.356-.81-21.881 3.24-31.668-13.33-38.962 16.27-25.132 12.78-28.534-4.87-37.912 1.62.122 23.24-4.953 26.81-17.317.83.567 34.1 8.336 38.04-9.74-9.96 4.654-29.65 5.551-30.09-13.835 1.86-.578 6.54.325 6.16.948-2.48 12.464 20.3 15.287 23.92 5.424 0 0 7.7 5.014 11.07 5.764.37.246-10.19 15.171-19.94 17.513-17.56 6.006-23.63 7.641-23.61 11.129.01 1.355 2.9 1.538 8.14 2.547 10.96.63 10.76 2.974 12.23 6.569 1.31 3.18 2.55 3.805 6.2 3.441 12.46-4.276 18.69-6.518 27.31-15.291 1.05-.217 2.39 9.095 3.07 9.407.08-1.488-8.84 1.207-22.49 9.367-11.15 6.661-15.53 7.659-16.94 9.44-1.04 1.321 1.73 5.414 2.06 9.888.29 3.761-2.24 5.616-.35 6.77 2.17 1.333 5.52 1.048 9.9-.138 9.67-2.436 16.77-6.311 25.43-11.772-1.82 3.511 1.39 12.334 1.39 12.334s-4.34-2.965-7.86-1.363c-6.79 3.055-17.78 7.242-20.75 7.973-2.88.708-4.12 1.096-5.24 2.06-1.38 1.186-1.11 4.003-1.09 8.141.01 2.904-.79 5.593 1.05 6.449 4.09 1.261 12.3.756 20.64-2.245 3.55-1.591 11.08-5.777 11.08-5.777l-2.23 12.273c-3.22-3.528-12.31-.803-18.38 1.66-3.07.998-3.97 2.936-4.72 5.617-1.32 4.587 1.64 7.702 5.02 9.167 2.25.975 5.69.527 5.69.527-15.74 6.167-12.57 8.34-21.85 3.897-4.04-4.255-7.99-8.749-9.58-14.309zm16.55-.179c-2.66-2.988-7.24-4.667-9.89-3.446-2.36 1.279-1.48 3.89-.7 5.884 2.07 5.522 15.94 3.578 10.59-2.438zm-9.4-15.164c3.66-4.879-.49-11.34-7.34-11.307-4.76.023-7.26 3.003-7.17 6.71.17 7.024 11.46 8.672 14.51 4.597zm-7.81-18.35c6.85-1.936 8.88-8.586 4.08-13.339-3.41-3.378-14.01-3.685-16.81-.565-7.14 7.971 1.07 17.205 12.73 13.904zm5.44-24.31c4.01-2.097 4.75-5.527 1.14-9.377-6.52-5.407-17.76-1.008-14.02 6.94 1.83 3.893 8 4.993 12.88 2.437zm-828.422-174.862c6.039-2.264 10.365-6.998 16.707-10.664 4.278-2.388 2.986-2.001-2.558-5.147-4.355-1.935-13.134-10.592-13.923-8.496-1.926 3.754-1.418 24.15-.226 24.307zm155.68 211.967c.204-4.166.637-10.443.469-15.041.725-8.774-.83-6.196-5.563-3.279-3.5 2.303-9.115 5.806-11.32 6.931-8.694 4.439-7.646 4.655 4.726 10.415 10.382 4.491 11.539 4.028 11.688.974zm-12.224-20.382c8.296-5.334 11.039-8.067 11.378-13.957-.032-6.768-.851-9.22-6.758-4.469-20.155 16.212-41.433-14.921-23.014-32.553 3.757-3.595 8.515-9.21 8.542-10.622.192-10.11-11.124-.169-20.307 13.813-10.196 12.732-16.461 28.594-7.222 43.653 7.378 11.013 23.551 13.028 37.381 4.135zm-46.425-19.899c-.422-4.944.915-10.486 1.545-12.138 2.216-5.815 2.112-6.534-8.194-1.6-4.116 1.404-9.037 2.56-10.935 2.569-8.462.041-6.321 2.668 5.918 12.599 12.301 9.982 12.717 10.892 11.666-1.43zm28.281-48.772c1.258-3.06-1.441-4.202-4.004-3.599-.201.047-4.604 3.392-9.771 7.535-15.665 12.562-27.239 14.137-35.183 4.788-8.055-9.48-4.858-20.864 12.764-34.054 7.775-5.819 9.652-6.228 5.854-8.69-2.888-1.873-3.058-1.581-14.241 6.138-22.537 15.556-29.221 26.082-26.775 41.286.535 6.249 3.864 9.489 7.076 11.887 21.862 18.857 51.604-7.807 64.28-25.291zm23.018 8.78-1.601-21.057c-23.308-19.557-45.576-53.157-53.456-81.101-7.99-24.84-2.42-76.906-1.219-73.056l-12.734-23.381c-10.58 25.08-14.898 63.195-2.657 101.845 10.391 32.809 30.905 72.458 71.667 96.75zm-97.372-11.196c7.18-14.102 7.424-12.59-6.748-12.554-16.174.041-14.389-1.94-5.121 11.709 7.442 10.961 6.221 11.938 11.869.845zm9.502-19.322c9.283-3.08 7.164-2.373 19.439-10.515 14.089-9.345 14.627-14.376.459-7.138-18.191 9.293-34.282 7.148-40.375-4.65-5.43-10.514 5.514-23.822 23.72-29.183 6.22-1.832 9.492-3.357 9.479-6.078-.04-8.293-31.005 3.116-43.676 15.779-24.458 24.445-2.502 52.885 30.954 41.785zm-40.394-37.19c.82-1.27 3.007-4.317 5.024-7.472 8.644-10.227 1.315-7.118-6.489-9.8-4.124-1.465-8.351-2.917-10.757-2.527-4.643.753 1.673 9.626 3.233 15.38 4.328 12.807 3.843 12.419 8.989 4.419zm32.843-23.531c15.658-1.699 17.24-3.225 17.224-6.459-.016-3.206-1.945-2.571-9.802-1.396-20.804 3.111-34.661-2.013-37.762-13.036-3.202-11.383 10.791-22.345 29.605-21.915 10.191.233 16.935-3.348 10.694-6.649-3.249-1.719-31.3-1.029-37.624.881-18.583 5.611-26.065 16.016-24.206 30.286 2.775 17.616 12.51 22.566 36.092 21.051 4.518-.29 10.26-2.163 15.779-2.763zm11.49-57.608c-.014-2.752-4.493-3.103-19.308-5.125-19.733-2.692-28.736-20.741-16.982-31.791 4.455-4.189 15.162-6.084 21.15-5.066 13.014 2.211 20.984 4.781 21.06.393-.019-3.913-3.791-4.151-28.229-9.006-36.921-7.346-56.743 28.871-27.096 46.146 11.263 6.563 49.431 9.942 49.405 4.449zm8.561-51.598c-.006-1.379-1.214-2.426-4.017-3.481-4.072-1.534-6.799-1.795-16.007-7.826-12.249-8.022-16.116-23.888-8.104-32.843 7.785-8.363-6.494-17.975-17.683-8.511-11.625 9.832-10.469 25.054 3.176 36.962 12.565 10.964 42.666 22.175 42.635 15.699zm-59.708-1.489c12.737-6.121 21.971-2.783 12.082-10.925-5.557-5.012-10.41-19.382-14.097-7.107-2.845 7.323-4.853 20.207-4.917 21.473.868.86.657-.63 6.932-3.441zm452.516-36.065c-14.623-3.453-24.772-20.197-21.24-36.438 1.996-9.177 10.411-30.844 12.097-32.205 6.38-5.151 5.571 1.617-.203 13.422-5.252 12.043-9.342 21.726-7.596 28.838 2.484 10.123 6.695 17.823 17.326 20.281 7.472 1.728 14.46-1.441 19.182-4.839 6.242-4.493 12.066-15.904 19.002-31.693 2.222-4.442 5.123-18.047 9.002-9.808 1.873 4.265-12.984 32.938-18.574 40.224-7.034 9.168-19.031 14.633-28.996 12.218zm87.807-10.513c7.178 6.695 19.222 9.969 27.033 7.454 19.16-6.959 27.697-25.143 20.093-54.138-3.867-16.258-7.132-26.36-10.344-28.34-1.561-.962-3.235.883-4.717 3.168-1.322 2.04.765 4.862 3.032 12.509 9.55 32.208 7.309 46.845-3.84 53.145-16.175 9.139-30.233-1.023-35.212-24.024-.796-3.554-3.106-10.792-3.106-10.792-1.282-3.192-11.354-2.37-7.571 8.321 1.195 8.288 9.102 28.008 14.632 32.697zm81.567-85.541c-.38-11.364-24.949-60.423-26.527-55.169 0 0 .024 11.529 1.016 16.055.375 1.707 1.638 3.28 2.686 5.093 21.286 36.816 18.353 62.961.316 68.881-6.136 2.854-7.445 5.611-4.657 8.454 5.646 5.975 19.504-6.119 22.179-10.484 6.741-9.798 5.592-27.524 4.987-32.83zm-349.667-4.504c7.772-8.831 24.689-39.2 29.835-55.093 15.841-47.304 32.442-101.696 36.639-151.848.456-6.328.681-15.952.988-16.778-1.303-1.369-9.409-.553-12.118.862-1.287 1.706-.372 5.448-.783 10.342-6.697 56.405-19.647 107.867-39.116 160.322-8.518 22.788-16.494 37.817-26.882 53.715-1.814 2.775-4.129 5.639-5.034 7.25-2.628 3.867-.636 6.353 2.44 4.696 5.459-3.156 10.132-9.151 14.031-13.468zm-26.673 14.002c24.717-34.661 42.098-76.133 55.424-125.003 8.413-31.629 15.77-63.619 20.034-96.184.872-6.951 1.586-11.605.203-13.666-3.398-.87-9.718-.237-11.891 1.473-1.321 2.037-.38 6.073-1.518 15.445-2.942 24.232-7.48 48.58-15.241 80.475-20.638 70.634-39.885 110.264-65.358 145.034-2.058 2.923-3.898 4.829-3.697 6.058.294 1.801 2.801 1.626 6.883-.976 5.322-4.261 11.421-7.997 15.161-12.656zm-38.03 18.696c12.198-7.076 33.482-37.504 48.396-70.188 16.71-38.573 30.571-82.089 39.544-119.742 3.891-16.5 9.229-57.657 8.371-60.353-1.019-3.203-12.988-.394-11.298 1.807 0 0-11.188 66.187-23.611 102.74-23.063 67.86-43.148 113.95-65.066 136.244-2.873 2.923-8.531 8.64-8.531 8.64s.147 2.521 2.001 2.885c4.43.764 7.36-.543 10.194-2.033zm-18.822-2.485c27.532-15.748 59.179-88.22 84.661-179.058 4.36-15.541 12.066-67.496 12.066-67.496s-11.034.531-13.139 2.867c-2.107 3.158-1.675 11.133-4.556 30.118-11.275 57.405-28.661 109.845-55.089 161.776-11.425 23.008-30.59 44.77-42.772 51.042-6.811 3.507-8.772 7.31-3.755 7.527 8.45.207 9.221 1.961 15.32-1.392zm388.58 802.249c-20.774.15-38.202 20.22-53.646 45.37-32.876 51.54-54.405 137.31-59.372 182.82l12.59-2.52c-1.884.89 22.243-121.22 60.482-173.82 20.619-33.15 19.73-33.64 31.477-36.79 14.852-3.98 26.979 11.96 19.695 21.72-2.637 3.31-5.598.93-4.822-3.75 2.476-14.92-19.359-17.55-25.287-2.84-6.819 16.91 11.976 31.72 30.105 24.9 16.2-5.91 22.762-28.65 11.157-45.27-5.934-5.61-14.479-10.54-22.379-9.82zm-109.391-.88c-24.532 31.43-36.499 63.58-51.289 107.45-14.779 43.83-25.268 86.67-29.477 135.73l13.403-1.88c-.843-31.5 32.121-181.9 80.156-238.63 2.677-3.59 4.826-6.57 4.613-7.39-2.783-7.56-14.219 1.71-17.406 4.72zm54.833-12.24c-31.95 26.7-57.067 84.54-73.461 137.92-17.722 57.71-25.374 110.5-23.995 110.48l12.79-2.02c-.991-3.33 33.704-206.36 101.852-244.01 5.912-3.02 7.125-6.01 2.099-7.25-7.728-.99-13.908 1.6-19.285 4.88zm36.101-.26c-70.301 10.02-113.916 225.92-115.254 243.82-.021.27-.239 1.67-.239 1.67l13.985-3.04s.112-.69.169-1.03c9.043-55.14 18.02-93.83 39.41-143.81 16.696-37.06 39.767-84.45 74.973-89.41 2.86-.41 5.588.71 4.549-2.61-2.207-5.25-12.753-5.81-17.593-5.59zm-420.339-63.172c-25.373 6.806-25.863 37.242-8.484 75.922 1.312 2.92 1.1 4.53 2.41 5.65 2.925 2.49 5.159-1.06 5.455-3.39.451-3.54-1.116-8.27-3.884-15.15-10.783-26.79-8.442-42.32 1.868-49.295 26.464-13.975 33.937 14.035 38.105 26.915 1.021 3.14 1.407 7.46 3.146 7.68 5.318.66 7.829-1.24 7.75-1.24 0 0-7.319-24.11-11.718-33.155-7.119-14.629-23.695-17.522-34.648-13.937zm-184.289 30.772 3.297 320.65-48.202 46.19c-21.105-17.65-48.875-45.34-48.875-45.34l-5.154-542.08-15.686-1.078c-1.25 232.938 4.107 469.278 6.515 702.628l144.038-.54 117.139-187.12s1.483-2.23 1.946-3.41c1.423-3.6 1.194-8.95.257-28.7-.381-8.02.454-14.2-.753-16.07-1.221-1.89-3.751-.5-6.112.59-2.405 1.11-3.848.74-2.578-2.12.72-1.62 3.067-5.19 5.09-8.58 6.572-11.04 8.169-14.57 5.773-26.7-.589-2.99-3.365-5.49-5.795-8.98-20.39-29.34-29.047-73.06-19.442-105.26 3.016-14.23 1.842-17.09-5.138-28.07zm626.655-351.775c-13.169-6.568-12.914-6.422-12.853 6.283.177 9.5.384 11.796 3.939 10.476 5.136-2.677 11.422-5.15 16.163-7.223 9.063-3.22-2.535-7.09-7.249-9.536zm52.209 32.449c-10.253-7.986-6.49-7.097-9.164 11.197-1.616 11.051-3.854 11.36 7.535 7.585 6.464-2.313 19.819-1.049 13.751-8.586.04.133-10.109-8.529-12.122-10.196zm-405.237 284.876c-15.485 9.592-30.903 55.41-30.903 55.41-54.409 7.09-76.622 60.85-78.562 105.49-1.532 35.24-3.467 76.39.132 79.95 35.544-16.43 49.511 1.93 52.84-3.1 1.522-2.2-8.025-9.32-19.99-15.67-2.778-1.47-7.088-4.13-8.723-5.45-4.378-3.55 8.653-.6 16.928 4.89 10.555 7.01 12.3 5.5 7.522-15.26-5.195-22.57-6.034-25.33 11.276-34.49 6.927-3.67 10.854-6.76 15.779-12.4 3.941-4.51 4.951-5.61 3.553.98-2.42 11.4-12.492 16.47-21.562 21.19-4.511 2.37-6.336 7.07-6.317 11.08.019 4.09 4.973 26.15 7.231 33.19 2.094 6.69 2.911 13.41 4.547 20.23 4.29 17.71 4.591 21.19 2.666 34.1-1.128 7.58-1.696 11.89-1.224 16.45.428 4.15 1.067 9.79 1.067 9.79.021-.2-9.837-9.87-31.077-1.25-15.312 6.22-27.533.05-36.201-4.33-1.906 7.01-1.372 14.6-1.044 22.63 88.874 15.21 164.598 12.2 228.301 4.82 1.443-18.85 8.82-78.84 25.108-133.03 6.778-22.55 14.463-46.33 23.249-62.24 5.991-10.85 12.145-18.18 14.336-19.46.682-.43.743-.65.722-.94-.017-.6.001-1.1-.036-1.68-.263-3.5-1.17-8.91-4.212-11.28-7.425-5.79-19.085 1.9-22.8 15.02-3.297 7.87-18.357 41.94-19.466 41.38-.915-.56-3.057-.58-2.311-3.21 5.757-13.8 13.715-28.42 18.15-40.8 6.118-17.83 19.748-27.35 30.137-16.27 3.561 3.8 5.013 7.32 6.64 8.52 1.228.91 2.859.26 3.85-1.27 3.805-5.87-5.312-18.99-14.967-21.54-13.935-3.68-24.175 6.56-39.567 39.57-8.886 19.05-10.46 23.83-11.917 22.39-.316.13-2.732.15-1.9-3.53 1.789-7.91 13.606-30.98 22.188-45.62 12.703-21.68 36.714-23.69 47.026-5.12 1.573 2.53 1.688 5.86 3.429 8.12 3.146 3.97 8.239 3.12 9.43-3.48-1.424-4.34-10.047-19.97-15.945-22.65-13.617-9.13-29.999-7.12-43.665 5.34-3.1 2.83-6.302 8.54-15.251 27.21-13.155 29.92-13.512 30.04-17.25 25.28 5.26-14.54 19.266-38.23 24.864-52.74 1.073-2.16 1.269-4.48 1.159-6.7-.45-10.5 1.059-29.07-21.311-42.01-19.063-9.992-43.964 1.02-52.261 21.2-6.354 15.45-11.004 26.08-14.268 28.29-4.588 3.11-3.772-1.16-3.331-2.72 6.412-13.99 15.494-28.16 16.8-42.18.536-37.922-38.075-51.508-62.869-32.1zm-206.422-708.156c29.854-14.275 50.324-21.52 80.802-30.87 4.111-1.855 4.764-2.278.283-10.905-19.8-38.117 33.022-69.262 51.506-31.837 2.464 4.99 3.054 7.758 5.402 5.332 4.376-5.872 9.566-14.197 14.948-23.693 19.984-31.719 28.789-67.747 39.281-99.575 4.29-18.677 10.353-38.22 11.908-58.217-41.123-69.746-69.972-136.972-113.495-198.993l-282.419 2.932 5.204 564.278c78.233-66.729 131.728-91.148 186.58-118.452zm317.672-24.262c3.386-3.654 6.283-9.687 18.286-35.012 2.142-4.518 5.564-11.526 6.953-14.784 1.778-5.949 8.637-9.732 5.393.919-.738 2.3-2.019 5.404-4.058 9.536-4.004 7.386-7.785 16.42-10.627 22.325-15.355 31.632-14.406 49.955 3.293 63.409 13.246 12.38 40.787 13.488 55.212-6.897 2.157-3.282 4.067-7.495 4.683-9.039 6.194-15.514 10.806-23.288 11.994-24.83 6.425-8.339 7.583 1.893-1.978 17.77-10.955 18.193-10.931 37.78-1.135 51.452 14.52 20.263 41.677 20.542 58.535 3.969 8.745-10.476 15.638-23.756 21.119-40.695 1.215-3.755 2.483-6.547 3.379-8.75 1.381-3.396 3.41-4.677 8.69-5.749 36.196-7.346 66.225-44.897 70.095-85.576.508-5.502 1.963-15.243 2.47-21.021 1.011-11.527.371-71.168-.802-74.714-.633-1.912-1.727-2.916-4.087-2.862-1.813.041-4.371.705-8.04 2.06-11.911 4.399-17.466 5.542-29.001 1.564-3.811-1.315-6.442-1.748-7.998-1.597-5.063.494 1.753 7.687 16.618 15.55 6.37 3.37 11.424 7.95 6.29 7.664-1.493-.083-19.429-9.095-21.908-10.576-8.179-4.889-5.99 1.356-1.621 17.803 5.866 22.086 2.697 28.341-14.707 37.212-3.244 1.654-7.536 5.078-9.715 7.277-9.12 13.8-6.839 3.683-2.245-3.665 7.886-8.439 2.96-11.233-13.337-5.264-18.589 6.809-27.078 2.083-32.413-8.228-6.033-11.66 4.904-26.865 14.17-26.673 2.999.063 2.472 1.148-1.913 4.211-5.299 3.701-7.788 7.242-8.274 13.469-.991 12.693 8.146 17.977 20.736 9.331 5.944-4.083 10.628-6.909 15.154-7.989 4.484-1.069 11.253.525 11.27 4.118.007 1.48-.157 5.117.171 5.919 1.234 4.001 7.596-1.753 10.37-3.802 9.473-7.244 9.146-8.647 6.409-20.195-4.445-16.153-6.764-30.944-11.012-47.323-2.267-8.581-2.743-18.3-1.518-27.083.614-4.403 2.225-13.456 2.503-19.645s-.205-15.023.023-15.024c9.566 7.149 13.437 8.375 22.654 4.759 14.259-6.025 23.313-5.516 35.446.12 4.489 2.086 8.574 3.545 8.574 3.545l.341-18.605s-11.196-2.176-31.872-4.658c-62.242-7.47-189.797-7.778-194.462-.224-1.185 1.92-2.242 15.219-5.425 33.73-7.095 38.468-15.098 76.816-25.961 114.398-2.229 7.657-4.404 10.755-3.222 10.97.487.088 2.76-2.893 3.82-4.142 5.969-7.041 1.521 9.571-7.386 29.619-.804 1.81-1.459 3.79-1.456 4.4.005 1.204-5.573 15.17-9.435 23.619-2.399 5.251-4.419 6.848-4.435 3.508 2.645-11.525 9.813-26.471 10.756-36.723-6.321 9.344-15.506 24.758-22.483 33.97-1.278 2.475.114 3.22 1.288 6.249 4.381 11.307 14.695 12.21 20.536 1.861 3.258-5.77 13.332-27.483 16.816-36.977 3.583-9.765 6.119-14.922 7.341-15.57 2.455-1.303 2.991 4.22-1.284 13.467-12.972 28.059-18.488 43.767-24.927 49.609-4.997 4.533-13.732 4.345-18.671-3.57-8.374-13.42-15.344-8.869-7.644 4.903 7.954 14.226 25.782 15.367 34.941 2.372 3.024-4.29 17.171-32.022 21.589-43.282 2.467-6.287 5.121-11.192 6.022-11.55 4.834-1.92-.547 12.433-14.164 41.198-4.393 11.099-11.516 22.772-21.293 26.47-23.794 5.486-27.161-7.086-35.618-21.361-4.073-3.528-7.662 2.227-6.048 8.527 2.618 10.221 7.343 14.179 14.629 19.242 15.204 9.436 36.121 2.594 43.606-8.439zm107.079 58.683c-2.216-4.761-1.959-9.623-.905-14.167 2.388-10.242 6.417-20.199 11.16-28.877 7.792-3.79 1.972 11.009 1.016 13.208-9.23 19.789-10.037 27.416-1.196 29.59 7.576 1.863 11.586-2.801 18.532-20.529 3.564-9.099 4.984-13.126 6.276-13.662 2.738-1.135 4.074-.041 3.943 2.724-4.595 11.641-8.155 23.868-15.803 33.576-7.522 6.436-18.957 6.598-23.023-1.863zm-71.024-14.338c-3.296-.605-8.978-4.784-12.934-8.323-13.484-12.065-11.468-28.976 4.731-60.903 1.258-2.48 5.965-12.132 7.478-15.302 2.707-5.677 5.459-3.496 5.477.24.005 1.05-4.034 9.862-8.119 18.044-17.881 35.907-17.093 50.463.763 58.76 17.427 8.099 25.14 3.241 38.661-24.166 7.77-20.549 11.709-20.931 11.357-13.15.013 2.902-9.446 22.626-15.589 31.813-8.908 13.322-16.721 15.757-31.825 12.987zm1.121-17.243c-6.852-4.132-9.744-14.57-5.817-23.183 3.58-7.107 12.653-34.296 17.041-35.87 7.08-.321 3.366 5.648-5.225 22.401-10.135 22.18-9.696 28.075-1.647 31.364 7.45 3.044 10.896-3.402 21.546-29.331 1.672-4.072 4.023-8.307 5.439-7.441 1.736-.151 4.771 1.124-.849 12.882-1.333 2.811-3.584 8.702-6.082 14.193-7.298 16.05-15.736 20.214-24.406 14.985zm122.329-48.201c-3.012-1.503-17.11-6.858-15.078-11.447.251-.432 1.071-.104 1.489.169 12.947 8.458 28.956 10.465 45.494-1.659 2.777-2.5 4.891-.854 3.36 2.264-4.939 10.06-27.361 14.585-35.265 10.673zm-41.445-14.047c.377-.964 1.502-3.836 2.485-7.691 1.477-5.794 1.069-10.044 2.443-9.322 5.858 3.078 16.272 3.038 21.334-.126 5.55-3.468 16.874-4.635 21.035-1.997 5.944 3.769 8.929 1.953 13.03-1.314 4.629-3.686 4.73-2.133 13.195.695 6.251 2.089 8.714 3.539 11.355 3.031 1.012-.195 3.046-2.526 3.703-2.416 2.031.342 2.322 6.08 4.26 12.612 1.715 5.779.79 7.187-4.451 3.771-3.896-2.539-15.03-3.634-26.554.035-8.539 2.719-10.522 1.685-16.821.694-15.696-2.471-27.026-4.389-38.626 2.493-6.196 3.676-8.44 5.574-6.388-.465zm-39.29-28.201c-7.762-15.125 9.477-35.459 24.906-28.518 5.115 2.301 9.741 11.183 2.165 7.169-34.987-6.65-25.699 44.309 11.488 16.924 24.732-16.794 42.332-19.544 43.976-3.579-.63 5.878-5.863 4.999-9.815 5.58-10.311 1.552-14.111 3.271-26.018 8.524-18.142 5.932-35.883 10.81-46.702-6.1zm136.675 5.512c-8.542-2.09-15.978-5.366-24.878-6.876-8.814-1.432-12.835-5.974-11.313-12.163 1.581-6.431 10.383-7.205 23.709.718 14.776 8.786 25.442 10.835 30.773 7.402 10.785-6.945 4.803-17.986-5.591-20.714-7.804-2.076-2.114-5.159 6.277-2.762 13.552 4.959 14.107 29.309.287 34.519-4.624 1.743-12.811 1.376-19.264-.124zm-119.799-79.294c9.844-6.227 19.357-11.8 22.725-15.49 1.767-1.936 6.669-8.424 2.83-6.417-20.077 12.35-43.655 2.539-60.748-5.569-8.207-3.723-6.181-2.057-12.445-1.57-4.249.33-7.654 1.259-8.448-1.767-.351-1.336-2.724-.748-4.247-.882-6.288-.55-2.411-8.898 10.684-18.198 15.443-10.967 28.942-18.164 42.388-21.22 13.966-3.175 28.259-1.626 38.843 8.325 4.066 3.822 3.74 6.406 7.39 3.989 8.328-5.513 8.482 1.68 1.479 8.415-4.81 4.626-3.019 5.848 2.973 10.133 2.861 2.045.557 4.048-.994 7.089-.581 1.855-.085 3.879-.356 5.284-1.254 6.514-30.633 29.815-41.319 33.857-7.365 1.457-3.557-4.14-.755-5.98zm20.11-42.439-4.92.121c-5.41 17.137-15.685 23.072-24.517 2.694l-3.916.438c.018 17.343 30.014 27.9 33.353-3.253zm-32.178 16.373c-2.069-3.378-4.438-11.156-6.563-11.245-5.779-.18-13.753.947-11.82 4.499 3.046 5.627 20.781 10.661 18.383 6.746zm39.562-3.485c5.291-3.261 6.401-5.482 2.887-8.962-4.538-4.494-6.854-2.148-8.182 5.124-1.141 6.25-.255 7.259 5.295 3.838zm-72.343-11.205c35.497-16.515 49.004-18.747 63.544-14.92 3.367.887 6.363 2.728 8.238 2.595 6.935-.491 2.422-8.205-10.086-12.514-14.285-4.92-23.284-2.511-50.476 12.028-15.921 8.514-28.794 20.987-11.22 12.811zm103.182-20.711c-.518-.96-2.75-7.347-3.389-9.682-.639-2.334-1.22-4.744-1.886-4.748-16.524 2.824-31.112-.103-35.034-.991-25.102-5.686-49.278-4.208-67.256 3.054-4.392 1.774-9.829 4.627-10.349 5.123-1.414 1.348-3.539-.143-3.547-1.807-.01-1.953 10.976-10.834 17.924-14.367 21.131-10.745 43.533-12.791 68.228-6.449 16.107 5.961 26.436 4.853 36.638.257 5.009-2.256 1.499 3.226-.013 10.464-1.048 5.014.211 9.281.45 12.105.705 6.822-.034 10.253-1.766 7.041zm388.951 1437.404-6.27-565.395c-93.1 70.173-269.826 144.255-269.826 144.255 22.858 45.23-25.957 84.69-54.716 38.83-28.707 32.9-67.484 147.47-68.482 185.39 0 0 78.819 133.93 117.285 200.05zm-519.057-180.43c2.265-28.42 7.809-76.61 26.122-132.83 7.681-23.58 16.962-50.64 30.23-74.92 5.308-8.5 5.646-11.77-.078-8.67-3.602 1.95-19.94 20.76-22.14 25.49-24.786 53.74-35.816 118.1-44.558 167.24-1.984 11.05-2.453 24.76-2.453 24.76zm18.54-2.54c5.273-69.03 29.654-162.41 67.164-223.52 3.524-5.82 7.892-10.89 7.7-12.89-.564-5.89-15.15 4.47-26.365 22-12.451 25.35-24.913 52.39-34.344 82.27-13.313 42.18-22.94 81.12-26.275 133.86zm36.63-6.16c3.386-39.78 15.337-76.38 25.288-113.01 12.17-44.8 28.71-77.86 48.082-107.67 6.214-9.56 13.571-18.53 20.559-27.66.891-1.1 1.778-3.07 1.563-3.88-4.56-.75-8.166.7-11.663 2.71-4.883 2.8-11.718 9.81-15.698 14.99-27.663 36.04-42.299 77.92-55.842 120.22-13.005 40.62-22.266 79.64-23.756 116.31zm-252.364-27.67c5.638-.5 9.286.52 10.907-.99 1.609-1.51 1.035-5.5 1.49-10.62.972-10.95-.156-10.34-6.922-3.2-11.203 11.83-31.831 16.57-44.209 9.63-6.246-3.5-10.588-5.92-11.14-2.95-.644 3.47.328 6.11 3.002 7.93 14.977 6.61 29.069 1.79 46.872.2zm-13.413-8.22c7.819-2.69 15.75-6.96 20.166-13.4 4.215-6.14 4.133-7.01.905-5.82-15.865 8.01-26.301 12.11-40.581 10.1-19.337-2.71-20.11-.25-7.262 7.59 8.407 5.12 15.336 5.2 26.772 1.53zm-28.613-24.13c2.967-2.23 3.632-11.2 1.217-11.68-2.444-.49-5.948 4-6.779 7.63-.922 4.82 2.662 6.01 5.562 4.05zm29.883-.71 5.127-.52c-2.874-22.45-27.335-23.16-31.562 2.6l3.88.53c4.821-20.55 19.611-20.15 22.555-2.61zm16.081-3.8c7.435-4.25 4.791-9.38-5.321-11.24-6.641-1.48-6.214 3.92-2.7 11.22 1.746 3.62 2.932 2.92 8.021.02zm-57.889-26.92c-.094-2.5-1.166-6.53-2.384-8.95-8.815-17.53-13.806-38.3-13.115-64.19.495-18.55.664-24.29-3.199-24.27-5.367 2.65-8.172 37.2-.984 65.86 5.071 20.22 20.192 45.22 19.682 31.55zm-.522-28.08c-.633-9.69 1.262-31.43.144-36.16-1.468-6.21-5.226-11.79-7.329-13.27-3.264-2.29-4.024 2.18-2.774 13.81 2.931 27.28 7.557 47.92 9.959 35.62zm2.175-49.76c2.088-3.85 1.211-7.91-3.584-16.99-18.882-35.78-21.554-60.34-2.345-69.49 2.15-1.03 3.511-1.23 4.942-2.04 6.051-3.44 3.664-9.53-5.412-6.9-25.075 7.25-29.774 30.8-8.089 74.04 11.041 21.57 12.749 24.59 14.488 21.38zm4.352-20.45c.313-1.52.9-7.4 1.137-8.61s-2.335-4.64-5.135-11.55c-7.311-18.04-7.543-25.56.134-30.89 2.492-1.5 5.078-1.6 5.448-3.29.577-2.64.484-6.96-1.111-8.19-11.091.2-16.146 6.71-18.021 12.87-2.823 9.75.39 23.94 9.296 41.48 4.282 5.45 6.601 15.48 8.252 8.18zm8.22-23.54c5.8-12.02.001-27.43-8.106-22.06-5.258 3.48-5.487 7.11-2.127 17.02 4.093 12.07 6.445 12.89 10.233 5.04zm20.45-32.2c2.349-2.37.204-5.71-4.332-18.87-3.885-11.26-2.251-19 4.886-21.32 10.244-2.64 14.063 14.08 16.302 21.12 1.176 5.44 4.787 6.91 7.933 3.08.882-1.07 1.128-1.96-.457-7.89-6.918-25.908-15.68-34.078-29.569-27.451-12.876 6.141-11.028 19.541-1.333 47.661 1.297 3.76 2.166 6.55 3.076 6.93.744.32 2.191-1.94 3.494-3.26zm11.366-8.95c3.033-3.06 2.868-1.69-.763-12.49-4.14-12.32-6.273-14.87-10.528-10.57-2.613 2.63-1.247 5.49 1.881 15.57 3.634 11.71 4.578 12.37 9.41 7.49zm536.064-48.272c20.269-14.278 11.567-39.406-15.421-48.459-3.186-1.069-6.695-2.364-7.797-2.878-12.417-5.789-22.047-7.515-22.025-2.88.013 2.722 3.738 4.055 15.644 9.678 17.611 8.318 21.678 18.108 13.17 30.604-6.133 9.006 5.654 19.112 16.429 13.935zm18.192-30.898c1.694-7.232 4.261-13.446 5.477-17.662 1.658-6.597-.557-5.044-4.912-3.969-11.196 5.95-19.286 2.875-13.727 10.824 6.191 10.59 11.299 18.759 13.162 10.807zm-1.677-25.193c13.937-8.535 16.805-30.402 3.633-40.661-3.15-2.454-8.586-5.674-15.154-7.592-13.331-3.893-32.528-5.515-39.534-3.313-1.49 1.793-1.522 4.585.002 5.38 1.966.704 5.507 1.143 10.621 1.604 19.548 1.762 29.243 7.451 28.461 21.28-.805 14.249-12.162 19.849-32.821 15.577-11.11-2.297-16.259-1.071-11.783 1.466 5.317 3.013 16.739 6.922 27.967 8.996 9.6 1.573 20.533 2.095 28.608-2.737zm-67.381-2.846c15.4-35.517 22.689-128.314-68.295-194.325l3.191 18.51c53.684 45.864 67.11 104.883 56.699 159.271zm79.862-64.257c-5.607 3.715-10.289 7.559-17.508 10.868-4.319 1.987-4.425 2.461 1.511 5.605 2.871 1.521 7.602 4.323 9.423 6.238 3.159 3.324 6.855 4.571 8.22 3.335-.205-5.258 1.407-22.67-1.646-26.046zm-26.632 6.996c18.213-5.959 27.896-14.837 25.65-29.483-3.295-21.485-21.397-25.834-55.112-17.049-16.219 4.227-17.587 11.856-2.193 7.76 19.436-5.173 34.82 2.148 32.908 16.396-1.072 12.287-10.891 19.545-28.269 19.739-9.177.102-12.004.949-10.725 4.234.867 2.228 30.235.859 37.741-1.597zm-30.745-50.785c29.765-10.54 43.481-26.564 36.459-44.269-8.269-20.847-34.349-20.768-60.334-.991-12.139 9.069-10.228 12.356 1.581 7.677 15.296-7.211 25.175-8.408 31.532-2.881 11.482 9.984 4.007 27.703-13.163 34.218-8.313 3.553-10.974 5.492-10.961 7.99.019 3.954 1.532 2.984 14.886-1.744zm50.397-.888c.702-6.203-6.559-27.613-9.538-22.634-.789 1.32-3.512 7.418-7.003 10.607-10.176 9.295-8.273 5.797 1.967 8.492 5.69 1.498 13.75 5.392 14.574 3.535zm-79.534-45.042c30.014-17.787 41.265-42.823 25.428-59.205-14.238-14.727-37.467-5.804-58.833 21.496-9.796 12.516-2.351 10.875 10.911-1.073 15.447-13.918 35.362-7.504 35.445 9.656.036 7.328-10.229 19.768-20.002 25.605-3.034 1.813-3.449 4.545-2.349 6.305 1.187 1.901 3.622.64 9.4-2.784zm52.748-18.793c-1.628-4.672-13.218-24.679-15.65-23.963-2.521 5.191-2.634 11.985-5.665 17.492-4.118 8.278-3.599 6.981 9.814 6.791 9.985-.143 11.209 1.238 11.501-.32zm-89.034-21.776c25.085-26.535 26.986-57.3 3.128-64.111-13.212-3.772-34.165 5.953-34.117 15.755.029 6.103 1.187 7.198 6.5 4.948 22.333-8.565 40.346 12.732 20.02 37.666-4.933 7.209-5.584 9.012-4.107 10.474 1.728 1.712 3.111 1.048 8.576-4.732zm270.851-227.527-7.73-695.824-148.514 1.649-115.926 185.006.328 45.467c.011 1.571 2.708 2.517 4.421.522 6.646-5.241 4.119.212-3.46 11.998-7.662 11.915-5.17 21.636 3.495 34.17 18.364 26.567 28.328 75.6 20.928 101.663-2.794 9.84-3.396 13.809-1.442 19.275 2.235 6.249 3.605 9.586 9.92 13.559 5.495 3.728 50.554 20.671 123.34 66.194l-3.98-326.904 45.05-44.017 48.62 45.348 7.68 539.693c.08 5.706 11.29 8.18 17.27 2.201zm-32.05-540.271-40.7-36.949-39.41 37.283c1.75 175.801 6.97 536.595 6.97 536.595l39.6 2.396s2.82-8.263-1.12-29.501c-5.92-31.867-6-70.868 2.27-130.276 5.16-36.451-.72-67.942-9.53-101.072-7.57-22.058-8.06-42.541-6.95-62.363 2.46-31.61 10.92-55.552 11.48-100.998.32-25.907-1.2-51.253-.6-83.21.34-4.286 2.16-3.779 2.53.636 1.53 28.901 2.96 56.355 3.54 84.587-.46 36.729-9.05 74.617-9.67 108.239-.48 23.293-.77 31.351 9.41 59.59 15.99 44.383 6.55 112.943 6.38 114.159-6.08 43.924-10.24 100.075 12.4 141.795l21.51 1.674zm-273.436 334.713c11.825-5.575 14.068-15.214 7.413-38.291-1.188-4.12-2.544-9.017-3.013-10.882-1.434-5.699-4.018-6.297-7.405-1.715-2.023 2.737-.122 3.348 3.174 16.042 4.982 19.185 2.282 25.579-4.893 25.613-6.36.031-11.37-5.14-13.326-17.602-.667-4.256-1.606-7.152-2.657-8.846-1.761-2.84-3.837-2.301-5.48.876-2.128 4.111 2.141 20.9 7.655 29 5.974 8.163 10.046 9.807 18.532 5.805zm-3.428-17.239c2.477-4.767-.786-16.393-2.51-24.011-1.556-4.245-3.283-5.266-6.103-4.543-4.201 1.076-3.945 5.667-2.336 13.213 3.276 15.367 4.977 17.293 10.949 15.341zm35.817-28.189c13.509-7.878 14.661-21.22 5.258-45.36-3.856-9.898-8.598-16.841-11.171-16.888-.938 6.333-1.834 9.713-.678 12.182 1.087 2.291 2.911 5.796 4.22 8.731 7.934 17.796 5.966 28.125-1.444 33.796-6.917 5.294-2.455 9.631 3.815 7.539zm-445.118-4.378c31.817-7.155 60.012-58.569 77.621-104.334 15.993-46.089 32.975-96.721 35.286-138.813 0 0-12.055.689-13.508 3.191-1.338 2.462-1.878 7.747-3.075 15.275-7.886 38.787-14.167 68.245-28.268 104.775-9.789 25.358-20.459 54.057-47.302 92.744-8.84 10.827-19.014 17.591-31.872 19.523-3.273.491-8.799-.058-10.178.935-2.424 1.747-.177 5.623 6.142 7.125 5.663 1.347 11.387.364 15.154-.421zm439.349-10.852c4.809-5.212 5.22-11.345-.381-24.24-1.569-3.613-2.294-5.664-4.105-5.139-3.833 1.113-8.212 11.241-5.461 19.741 3.585 11.078 5.64 14.306 9.947 9.638zm-450.634-3.114c9.329-1.346 21.081-8.881 29.5-20.584 17.319-23.109 29.154-49.312 37.921-69.68 7.019-16.411 19.63-51.807 23.019-64.612 7.2-27.202 11.113-44.746 14.316-64.197.294-1.787.559-4.642.018-5.559-3.711-.966-11.815-.274-14.278 2.24-4.132 31.185-14.194 62.537-21.514 88.583-12.34 44.306-48.133 115.361-68.037 118.915-10.704 1.912-23.093-7.244-21.224-16.8 1.148-5.867 1.929-8.106 4.792-9.604 6.924-2.515 11.022 2.155 3.429 5.318-8.749 7.753 7.285 19.282 16.958 10.997 16.403-14.049-8.217-40.334-27.991-27.908-21.907 13.766-15.98 37.12-1.986 48.096 7.057 5.534 15.167 6.233 25.077 4.795zm155.846-33.44c13.474-14.091 23.508-32.253 30.703-54.899 15.572-50.852 28.303-109.088 32.647-154.648 0 0-11.654-1.067-14.217 1.414-1.81 1.751-.043 3.379-4.625 36.689-7.773 48.57-19.361 96.851-36.433 138.722-6.998 16.932-9.013 19.021-13.989 27.829-6.944 12.441-4.286 15.56 5.914 4.893zm301.177-108.994c-1.269-.638-1.157-.212-1.689.164-1.844 1.301-.558 7.764 3.77 17.709 11.309 17.749 12.992 52.421 12.412 65.465-.179 3.918-.56 6.166.671 9.635 1.218 3.399 3.33 7.344 6.586.657 3.369-25.723.201-52.577-9.918-74.239-3.571-7.705-7.061-15.232-11.832-19.391zm9.396 75.637c1.869-6.929-2.031-34.294-6.598-43.873-1.841-3.861-5.094-4.126-4.655.281.14 9.494-.687 27.563.397 32.898 4.978 11.11 8.838 18.176 10.856 10.694zm-26.384-110.423-5.244.064c.38 17.919-15.511 23.077-21.63 1.62l-4.709 1.142c6.613 30.306 34.819 16.064 31.583-2.826zm-31.727 13.864c-2.813-7.922-1.718-10.841-8.591-7.189-5.251 2.79-8.383 5.734-.908 9.219 6.647 2.72 11.278 2.982 9.499-2.03zm39.89-5.022c2.14-4.436 1.835-8.413-1.464-8.397-2.545.013-3.23 2.043-3.905 6.331-1.204 7.658 2.008 9.032 5.369 2.066zm2.443-29.808c2.014-.663 1.408-3.496.825-7.098-8.774-11.878-30.113-7.974-37.765-5.509-8.836 2.965-11.07 1.922-17.137-.767-4.997-.868-5.686.348-6.871 2.735-1.045 2.103-1.191 6.079-1.46 13.005-.228 5.853.011 8.568 2.033 6.718 7.836-7.171 16.898-16.122 30.261-16.821 16.194-.847 30.127 8 30.114 7.737zm-58.675 16.861c.012 2.413 2.061.886 7.297-2.47 19.058-11.574 30.19-10.089 46.676-4.856 3.671 1.166 5.892-2.674 1.891-5.878-19.686-15.763-43.601-5.31-55.864 13.204zm68.704-74.373 102.174-172.742-579.86 6.014 100.48 181.079c80.083-19.416 211.979-44.536 377.206-14.351z" fill="#131f67" transform="matrix(.153592 .00170524 -.00170524 .153592 19.381 57.073)"/><path d="m367.414 1334.01c12.081-18.4 73.262 13.47 76.622 26.33 35.682-28.65 79.368-31.2 114.935 3.78 35.73-39.82 74.475-37.56 115.006-15.17-4.599-8.86 50.963-48.81 85.275-24.19l93.86 162.42-589.645 8.44c34.253-52.52 64.418-115.13 103.947-161.61zm-267.033-849.626c-3.3-8.812-17.245-99.464 15.548-102.094 53.323 22.863 121.98 106.005 153.933 156.923 39.595 63.096 80.511 208.743 58.742 202.604-3.144-.887 67.739 68.318 72.648 75.103 8.067 11.147-115.733 221.98-136.65 214.7-6.324-2.2-48.603-26.74-48.603-26.74l.428-69.889s64.561-130.664 67.736-174.121c1.2-16.422-45.91-43.981-48.114-49.627-5.489-14.065-5.44-66.549-32.962-89.159-15.13-8.952-29.289-5.884-44.523-3.778-62.001-9.615-31.09-113.966-58.183-133.922zm1035.549 35.152.66 25.774c-40.65 9.309-113.05-24.305-134.23 31.376 3.37 59.848 17.12 86.549 26.71 104.528 7.24 16.164 56.58-2.917 74.22 13.271 50.75 60.901 39.84 142.861 41.1 216.588l-21.6 11.182c-151.095-86.621-269.412-359.594-286.249-437.497-1.577-50.114 135.375-212.748 135.375-212.748.311-.353 50.884 29.934 50.884 29.934 1.22.472 1.28 211.431 1.28 210.454 39.69 1.595 78.19 5.03 111.85 7.138zm-307.116-189.408c-75.793 110.984-100.018 275.867-93.793 390.62 11.886 171.3 136.071 322.762 128.041 337.292-1.403-.99-4.618.75-5.862-.33-28.487-24.7-48.145-20.1-62.575-20.17-27.581-.13-35.113 8.16-50.916 9.9-40.358 4.44-37.067 5.42-71.48-7.07-43.639-34.69-101.861-61.009-148.115-74.679-36.915 3.728-93.068 21.763-114.534 7.901 145.2-274.452 121.058-448.846-35.57-733.081 12.766 3.598 14.875 15.424 24.433 18.239 31.677 11.801 75.09 6.711 101.013-4.912 28.14-13.016 55.048 5.286 54.68 4.675 56.124 38.589 123.791 63.14 159.061 80.233 10.424 5.221 23.43-3.348 34.849-5.786 23.398-4.994 43.381-15.222 60.944-9.558 5.633 1.817 14.03 4.025 19.824 6.726zm-350.007-353.159c-7.7-13.919-86.51-159.498-86.51-159.498l574.155-2.924-84.565 142.23c-8.044 7.759-48.268 29.584-90.074-18.357-.698 6.963-60.686 50.645-113.237-.572-30.966 28.692-62.686 45.469-115.668 14.145-1.07 8.91-41.673 49.28-84.101 24.976z" fill="#e2cf00" transform="matrix(.153592 .00170524 -.00170524 .153592 19.381 57.073)"/><path d="m556.995 1360.86c-56.204-51.39-113.59-3.8-112.232-.84-22.262-22.08-43.996-40.12-72.919-30.82 0 0-.083-7.83.132-8.01 86.699 14.84 219.267 17.47 373.818-16.61l8.136 16.51c-41.709-14.27-62.898 5.84-81.053 29.26-67.139-40.78-83.002-4.18-115.882 10.51zm123.022-606.376 39.346-1.205c8.681 114.223 106.239 288.071 108.539 288.041-6.762-9.16-69.807-1.18-69.328-.02-35.736-92.096-74.874-184.068-78.557-286.816zm-226.51 273.706s-13.023-32.624-20.757-46.559c40.534-70.924 73.615-144.233 90.1-225.528l28.144-.062c-7.095 112.059-94.935 283.099-97.487 272.149zm506.092-20.61c60.741-112.387 48.261-273.268-128.574-360.29 0 0 3.272-118.062 16.346-118.477 2.961.881 79.581-1.868 79.581-1.868 19.532-49.437 51.184-109.314 95.888-150.005l2.59 131.899c-33.374 3.663-53.633 14.538-63.466 40.75l-46.183 10.81c4.873 132.476 56.16 254.359 205.449 362.684-35.05 30.764-155.305 93.767-154.853 92.677zm-742.861-75.021-.21-137.378c22.401-5.096 40.171 1.21 58.264-39.191 0 0 31.276 14.405 41.673 19.728-28.503 52.294-52.992 108.108-99.727 156.841zm292.093-246.474.751-69.753 66.315 1.174c-5.366 23.709-6.862 47.375.919 70.938zm151.234-2.524c4.274-22.87 7.252-45.854-2.407-69.961l71.797.424-.92 69.473zm-138.029-134.851c-13.46-136.647-109.016-290.42-110.296-287.112 11.075 1.645 30.605 6.901 41.267 1.713 12.997 2.007 24.217.416 24.818-.789.812-4.793 89.436 197.627 78.882 285.488-1.341 2.982-31.824 3.519-34.671.7zm165.93-.643c9.428-63.299 34.294-179.175 95.01-273.594 7.204 16.565 13.285 33.613 23.089 49.061-45.812 68.18-73.645 145.837-90.178 224.978zm-429.612-29.295c-28.895-57.261-147.446-146.595-141.332-137.503 48.174-44.107 102.136-72.379 155.995-100.932 0 0 9.731 9.023 8.297 11.337-32.72 52.796-47.633 164.053-14.683 227.355 31.74 67.655 87.155 107.241 143.544 138.178-3.864 42.565-5.641 73.317-15.64 115.702 0 0-35.419-18.106-64.41-29.694-5.482-80.23-22.914-151.857-71.771-224.443zm305.06-567.632c41.709 24.769 78.786 21.698 114.378-12.939 45.614 40.431 94.238 20.825 114.672 2.142 19.335 21.279 44.349 32.926 80.655 25.421l-8.802 18.996c2.042-10.064-251.236-23.644-373.313 11.963 0 0-7.317-14.178-6.522-14.308 10.651-.764 46.268 11.967 78.932-31.275z" fill="#d40000" transform="matrix(.153592 .00170524 -.00170524 .153592 19.381 57.073)"/><path d="m1001.25 153.375v19.25l18.5-1v166.156l-20 .094v19.75h55.5v-19.75h-14.5v-47.781l24.22-31.5 31.78 79.281h-20v19.75h60.75v-19.75h-16.84l-42.41-101.531 43.41-64.719h13.59v-18.25h-58.5v18.25h18.37l-54.37 79.344v-79.344h14.5v-18.25zm462.56 103.89 102.31 190.391s3-.55 4.5-.843c141.81-27.689 254.13-31.476 374.76-10.282l107.23-177.249c-195.17-2.219-588.8-2.017-588.8-2.017zm11.41 8.11 568.94.625-32 52.438c-19.17-5.907-29.85 2.872-32.54 21.218 0 0-2.36-1.02-6.81-1.5-28.04-3.028-31.58 33.887-5.4 38.344 6.68 1.138 7.81-.187 7.81-.187-23.35 19.595-36.61 6.375-47.6-.094-.29 2.288-20.92 17.771-40.37-.75 27.86 2.779 32.19-25.11 18.87-35.719-2.78-2.736-5.62-4.875-5.62-4.875 6.55-5.704 7.98-13.288 3.78-21.969-8.45-17.457-34.92-16.437-38.97 2.625-1.57 7.418-1.62 8.719-1.62 8.719-21.38 1.395-25.72 21.56-18.38 32.75 4.18 6.361 13.36 7.741 21.85 7.313-11.44 16.18-37.6 10.672-49.25-2.657-18.52 21.744-39.63 19.097-50.16 7.438 7.15-.077 12.09-.181 18.66-6.25 11.23-10.379 5.71-28.786-10.16-33.938-3.08-.999-5.3-1.204-5.47-1.218.11-.158.41-1.177 1.1-6.719 3.94-32.102-44.19-28.93-39.54 2.656.54 3.661 1.54 5.625 1.54 5.625s-5.11-.285-8.04 1.063c-26.72 12.313-8.31 46.222 12.35 37.5 1.96-.828 7.29-3.444 8.06-3.407-25.59 31.697-47.06 9.229-52.72 5.782-17.28 25.61-47.29 8.138-47.91 6.343 1.87.519 7.5-.641 12.85-3.375 16.91-8.807 12.13-31.471-1.06-36.406-4.04-1.409-8.92-1.557-14.41-1.125 0 0 .42-5.706-.12-7.719-8.32-30.865-46.73-15.455-37.29 10.625.83 2.288 3.07 4.594 3.07 4.594s-5.21 3.162-7.54 5.25c-18.33 16.487.33 43.686 21.76 32.375 2.76-1.46 5.44-4.527 6.21-4.344-10.08 18.404-25.37 24.831-47.18 9.594-13.46 21.312-35.41 12.459-41.6 1.781 20.51 1.877 33.83-37.41-5.59-38.687-3.07-10.668-2.91-26.924-27.91-24.125zm-133.13 22.906c-21.4 56.741-81.82 108.093-116.81 172-39.53 64.688-27.12 130.846 26.69 142.282 28.2 5.994 65-21.122 68.28-50.313.67-5.963 2.87-9.11 6.87-8.625 3.13.379 2.84 8.073 1.66 17.313-4.32 30.35-20.77 78.515-42.06 100.718l99 .063c-3.98-2.248-40.94-48.427-37.34-104.438.06-10.016.05-13.34 4.5-13.312 3.56.022 3.6 1.672 4.65 11.5 6.67 62.174 83.98 68.92 108.25 9.469 12.26-30.005-.59-83.401-32.9-129.063-24.55-40.177-66.32-86.893-90.79-147.594zm43.63 373.438c.21.121.36.141.37 0zm367.34-328.938c4.52 0 8.16 3.672 8.16 8.188 0 4.515-3.64 8.187-8.16 8.187-4.51 0-8.18-3.672-8.18-8.187 0-4.516 3.67-8.188 8.18-8.188zm127.13.969c4.78 0 8.65 3.904 8.65 8.688 0 4.783-3.87 8.656-8.65 8.656-4.79 0-8.66-3.873-8.66-8.656 0-4.784 3.87-8.688 8.66-8.688zm-249.19 9.469c4.61 0 8.34 3.73 8.34 8.344 0 4.613-3.73 8.375-8.34 8.375s-8.38-3.762-8.38-8.375c0-4.614 3.77-8.344 8.38-8.344zm356.97 10.281-7.25 12.875c-8-7.009-2.48-16.2 7.25-12.875zm-456.5 17.75-7.21-13.312c12.91.87 9.1 10.108 7.21 13.312zm220.53-7.25c48.83 55.632 92.62 39.176 121.25 2.188 12.28 31.525 39.65 53.324 86.75 32.125-2.85 5.041-10 13.937-10 13.937-41.62 11.212-62.28-8.376-78.34-27.031-42.35 35.154-82.23 26.632-115.13-4.375-28.08 35.355-73.56 42.952-115.65 14.094-19.25 28.401-46.85 39.87-81.57 25.656 0 0-7.36-11.577-8-12.313 5.03 4.22 68.96 30.757 84.57-33.062 22.25 37.766 95.21 39.77 116.12-11.219zm4.91 22.875c54.92 51.357 112.56 6.947 114.03 3.813.86 2.855 32.21 40.284 77.4 26.218l-7.34 12.594c-85.05-14.388-163.27-23.631-342.44 2.719 0 0 28.6-8.469 43.06-31.281 8.06 5.229 70.21 39.921 115.29-14.063zm-694.38 14.563c-5 12.104-13.17 24.623-20 35.812-32.14 49.867-33.97 54.651-36.53 72.25-7.151 34.451 33.53 48.392 46.5 24.875 5.81-9.937 9.47-3.469 6.88 5.938-1.66 16.524-18.48 35.67-18.54 35.312l49.28.375s-21.13-21.531-20.81-38.812c.03-7.9 4.24-8.129 9.38-1.032 14.71 20.303 42.13 3.973 42.31-24.906.11-17.693-5.26-27.617-37.28-75.25-6.98-10.424-14.68-23.548-21.19-34.562zm501.88 28s23.9 2.805 25.78 3.281c2.1 1.628-20.13 7.729-20.22 7.281zm48.47 245.031c-1.45.048-3.26 1.674-6.26 4.625-6.48 6.383-7.95 7.222-14.24 8.125-4.75.681-14.77 6.447-20.85 12-1.64 1.501-4.78 2.754-8.53 3.406-3.26.567-7.74 1.339-9.97 1.719-2.22.38-4.64 1.083-5.37 1.531-3.19 1.945-8.39 2.242-14.22.844-5.62-1.349-6.53-1.314-12.72.594-9.03 2.778-14.93 2.783-19.38 0-4.44-2.783-11.49-3.821-15.96-2.375-6.62 2.138-23.76-8.123-23.72-14.188.01-1.376-9.74-8.672-12.19-8.687-8.69-1.288-85.02 28.847-84.63 30.593 93.73 115.758 172.62 292.124 113.19 507.934l-10.5-5.03c8.82-39.23 12.32-78.71 15.03-118.81-175.92-75.95-191.06-252.562-122.78-364.062l-11.59-12.344c-41.38 22.079-83.42 34.613-185.69 120.406l.28 138.875c.25 125.545.19 247.875.19 247.875 37.01 4.1 77.77 7.45 117.97 10.91 0 0-.52 124.16-1.44 172.71-.78 41.08.75 38.5.75 38.5l133.13 70.19c-9.36-36.97 13.73-51.65 33.06-50.12-8.55-35.64 12.66-51.95 36.87-47.38 16.36 3.09 22.08 12.11 31.44 41.91 1.52 4.84 3.61 11.32 3.61 11.32l9.33-.35c11.68-25.07 19.48-56.99 46.96-61.12 35.97-5.42 49.36 19.29 49.34 44 34.85-30.71 76.59-6.94 73.88 38.93 17.53-11.27 47.24-21.46 65.95 22 7.04-1.48 10.63-9.33 20.52-11.78 3.71-.77 12.1-5.28 12.1-5.28l.1-1.51s7.78-2.69 18.21-4.4c8.95 3.34 6.34 3.23 11.16-2.72 5.37-2.75 14.09-4.57 20.81-3.97 7.05.64 10.18 1.14 14.31-.65 6.43-2.81 12.44-3.53 16.25.72 2.74 3.04 6.69 1.57 10.94 1.4 8.49-.34 19.81 3.15 23.34 10.78 5.21 5.31 16.6 10.69 16.6 10.69l9.22-2.12 1.06-3.41 75.4-28.78c-153.76-168.36-149.75-391.72-113.53-504.782l13.91 6.687c-7.38 33.505-15.75 67.925-14.66 117.875 138.47 61.74 207.35 221.31 123.41 360.59l8.87 11.47c34.92-14.66 122.77-63.98 153.13-90.78l6.47.53s18.41-11.92 26.53-18.28l1.09-369.624-6.44 1.688-1.15-21.594-114.16-9.062c1.45-1.086 2.55-1.527 2.88-3.688l-.66-204.625c-4.24-6.484-99.85-62.491-135.41-75.594-1.42-.009-.44 2.397.07 8.25 1.74 20.072-11.81 37.936-27.5 37.969-5.65.012-6.63 2.412-6.35 13.938.4 16.388-5.52 27.398-22.78 33.625-20.46 7.381-34.3-3.322-45.69-45.407-2.99-11.053-8.83-8.288-14.43 6.813-2.78 7.495-11.78 25.689-17.16 35.281-4.14 7.37-10.69 10.642-19.59 14.563-6.94 3.433-21.97 2.837-30.63-1.563-15.69-7.976-21.79-17.552-26.31-41.281-.59-3.101-2.63-2.834-7.72 1-27.72 20.883-66.69-.706-66.47-36.813.07-10.6-.37-11.022-6.59-5.937-18.8 15.348-44.34 7.564-54.56-16.625-2.4-5.663-3.67-8.187-5.54-8.125zm-159.32 12.812c1.96-.086 8.06 8.032 8.06 8.032 5.63 6.224 13.2 9.376 21.07 14 .73-1.099 91.77 121.077 107.25 289.531l42.34.219c-7.9-163.684-53.04-242.356-73.75-292.844l15.19-4.813c34.06 65.25 75.56 197.683 74.19 313.624h-69.94c-9.87-116.128-55.03-229.354-118.19-315.249-4.4-6.598-7.84-11.199-6.56-12.375.09-.083.21-.119.34-.125zm-26.78 17.282 7.1 22.25s.85-5.193 3.03-7.157c13.81-12.453 27.04 3.941 20.81 26.188-1.42 6.849-4.19 20.344-4.19 20.344s-13.88-7.122-20.87-9.407c-19.28-8.185-25.7-24.324-10.97-26.156 2.46-.307 7.53-.531 7.53-.531-6.12-4.81-19.63-15.813-19.63-15.813zm64.69 2.5c5.82 3.303 20.84 6.867 29.47 3.625 6.97-2.621 12.28-1.183 19.53-.563 4.16.356 12.44-1.469 12.44-1.469 41.4 87.103 69.88 190.453 74.62 284.969l-32.56.188c-12.29-100.408-51.16-202.406-100.47-278.063-2.18-3.297-5.08-8.564-3.03-8.687zm136.03 1.5c12.61.151 25.8 12.718 32.97 33.281 3.99 11.451 5.55 10.757 10.91 8.906 13.75-4.712 28.4 10.389 9.96 12.906-18.09 2.99-7.76 38.383-9.31 41.5-7.33 1.282-21.11-28.8-20.75-37.75.88-21.937-19.72-40.281-32.53-31.062-6.07 4.368-5.41 7.448-7.28 5.875-5.77-4.84-6.93-18.186-.19-25.75 4.87-5.466 10.49-7.975 16.22-7.906zm374.56 7.562s.72 28.85-.37 35.219c-2.15 19.23-27.27 21.253-28.25 5.875-4.11 6.144-6.93 13.787-8.56 20.656l-17.82-12.25c6.77-4.856 13.22-9.117 18.22-15.125-13.2 1.001-20.59-10.429-11.75-20.156 9.81-11.143 36.96-12.344 48.53-14.219zm-654.94 9.125 7.88 8.875c-70.19 124.41-45.44 283.445 123.97 366.995-1.12 38.18-6.01 76.78-15.13 112.6l-62.5-30.31c.42-140.66-79.22-274.765-206.37-362.91 46.14-37.07 97.18-69.632 152.15-95.25zm511.76 1.063c2.98 16.424 18.53 46.171 19.65 44.468-.16-.976-64.72 82.691-92.78 222.625l-23.97.094c15.71-93.242 47.07-181.226 97.1-267.188zm198.96 3.906 12.75 7.719c-66.9 56.01-110.95 127.021-143.31 203.593l-16.9-8c50.16-111.08 99.73-160.41 147.46-203.312zm17.85 12.406c3.5.223 7.65 4.655 14.09 8.188 6.3 3.453 4.73 5.289-7.12 14.375-14.02 10.745-15.34 10.27-15.22-5.063.08-10.171 2.65-16.953 7.56-17.469.23-.024.45-.046.69-.031zm-15.41 15.813c.74-.04 1.33.203 1.72.812 1.03 4.057.92 13.356-.72 22.531-1.32 6.041-19.3 21.218-25.72 27.219-2.57 1.688-3.74 1.071-4.22-1.937.21-4.765.67-11.107.75-17.563.03-1.988-.39-4.071 1.41-5.594 8.81-10.399 21.64-25.195 26.78-25.468zm33.41 4.937c.11.004.18.019.25.063 1.66.996 1.38 21.844.22 23.218-5.22 1.348-19.25-.861-22.85-2.781-.78-2.422 19.02-20.637 22.38-20.5zm-626.66 6.75 4.88 20.438s1.39-2.741 1.75-3.282c9.68-14.814 21.47-6.13 21.28 14.438-.07 6.496-5.97 32.469-5.97 32.469s-36.36-17.464-39.22-25.125c-2.81-7.539 1.18-14.173 7.87-14.782 2.51-.286 5.13-.49 8 0l-15.62-15.968zm416.31 2.719 16.5 6.094c-34.41 55.972-69.92 111.257-95.78 237.342h-69.15c9.67-77.054 29.27-152.804 64.25-226.53 0 0 13.58-4.171 21.25-6.656 0 0-57.16 130.787-63.82 214.875l33.41.719c17.83-81.94 51.19-166.867 93.34-225.844zm-130.93 2.031c9.29-.346 16.14 6.189 15.62 17.781-.12 10.602-1.09 12.144-8.59 7.907-9.85-5.562-17.65-5.683-26.47.625-4.86 3.472-9.63 6.343-9.63 6.343s4.26-18.416 10.78-24.218c6.25-5.558 12.71-8.23 18.29-8.438zm-35.47 27.25c-.67 6.231-2.51 9.088-4.16 14.406 0 0 5.41-2.105 8-3.312 12.29-5.73 25.1 4.882 24.91 17.312.55 8.293-8.46 18.227-19.19 18.313-3.74.03-7.71-1.149-11.53-4 2.77 15.192 3.33 22.219-7.78 29.844-9.3 6.185-28.88-.886-27.78-17.875l.68-10.469-9.4 1.219c-26.28 1.076-26.73-31.263-5.53-36.344 8.46-2.002 17.65 4.937 17.65 4.937-4.02-7.928-4.11-21.573 1.31-27.875 13.35-15.51 34.46-1.409 32.82 13.844zm229.4-20.187c1.44 12.102 6.25 25.299 4.88 36.593-2.05 14.436-14.32 22.986-23.97 13.625-1.19-1.155-3.34-3.562-3.34-3.562-4.35 5.508-7.07 21.094-7.07 21.094l-17.03-10.5s11.83-8.302 15.1-13.032c.91-1.316 1.34-3.812 1.34-3.812-9.48 2.962-17.52-6.729-14.94-15.281 5.13-14.009 30.62-19.201 45.03-25.125zm119.04 8.75c6.37-.199 16.24 1.608 24.03 2.437 5.99 1.045 2.67 4.425-10.75 17.5-12.33 12.01-11.94 10.879-21.44 10.719-22.18-.375-26.07.124-13.16-13.813 6.77-7.303 12.68-13.898 17.53-16.343 1.03-.298 2.31-.455 3.79-.5zm-40 2.531c.28.012.5.117.71.312 1.47 1.371.98 7.626.82 16.875-.17 9.844-.07 9.849-4.19 15-5.25 6.58-9.61 13.293-15.1 19.625-4.74 5.151-4.59 4.599-7.43-7.781-2.76-12.007-1.22-15.746 14.25-33.156 5.23-6.717 8.96-10.964 10.94-10.875zm69.28 6.844.18 24.343c-45.77 44.763-76.88 95.107-98.03 150.594l-15.93-6.344c27.61-70.893 68.94-126.18 113.78-168.593zm-396.82 14.718c-7.56 0-13.68 6.121-13.68 13.688 0 7.566 6.12 13.719 13.68 13.719 7.57 0 13.72-6.153 13.72-13.719 0-7.567-6.15-13.688-13.72-13.688zm-.09 4.313c5.22 0 9.47 4.245 9.47 9.469 0 5.223-4.25 9.468-9.47 9.468s-9.44-4.245-9.44-9.468c0-5.224 4.22-9.469 9.44-9.469zm-508.56 5.781c142.79 91.61 206.81 233.625 206.53 355.625l-8.06-3.62c-8.36-172.4-102.06-278.387-203.35-346.974zm845.37 1.313c3.24.012 7.63.513 14 1.25 11.82.63 13.27 1.377 5.13 10.718-2.23 2.558-6.51 7.909-9.53 11.938-3.02 4.028-6.7 8.233-8.38 8.812-2.48.858-23.23-.122-29.16-.937-1.94-.267.61-2.247 10.72-16.688 7.75-11.068 8.57-14.733 15.91-15.062.42-.019.85-.033 1.31-.031zm59.47 4.687s2.84 78.577.78 128.688c-32.57-1.205-51.7 11.158-59.65 34.562l-34.22-16.937c25.11-64.486 58.68-109.36 93.09-146.313zm-100.81 1.813c1.85.027 2.91 3.857 3.44 11.406 2.15 13.506 1.91 15.079-3.72 23.75-2.81 4.317-6.66 10.411-8.53 13.562-3.27 5.497-5.59 7.133-6.41 4.469-4.46-14.573-5.87-23.592-4.28-26.531 2.6-4.832 14.75-22.099 16.47-24.344 1.19-1.557 2.19-2.325 3.03-2.312zm-814.53 1.468c114.78 71.065 198.75 192.434 202.22 339.064 0 0-24.47-11.48-39.57-19.88l-.78-14.25 7.97-.25 2.56 16.07 17.53-.57-4.65-40.09-27.44 2.59-5.53-22.72 8.31-1.78 4.6 14.66 17.84-4.72-9.5-35.72-27.56 7.53-8.81-24.12 9.15-3.28 7.41 14.43 16.78-5.84-15.84-35.81-25.35 11.97-12.87-23.38 9.9-5.28 7.97 13.91 15.69-8.13-19.41-32.935-24.06 13.437-12.09-18.125 7.46-5.218 8.26 9.531 13.78-9.75-21.13-28.406-23.03 18.031-17.03-19.719 7.84-6.656 11.72 10.5 13.09-11.438-25.09-27.375-21.94 20-16.34-14.187 8-8.844 10.19 7.781 10.84-12.843-27.31-22.5-20.47 20.25-19.62-12.969v-9.656c6.37 2.459 13.11 5.322 19.15 8.531l10.16-15.375-29.31-19.781zm319.65 6.063 4.35 25.062c4.12-6.815 7.4-11.509 16.31-8.875 10.7 4.361 10.85 20.48 1.78 45.157-1.68 4.571-3.75 8.531-3.75 8.531s-4.69-1.947-7.81-4.094c-6.55-4.477-17.58-9.547-23.22-18.437-5.9-9.31-6.03-22.333 4.81-21.219 2.16.013 6.41 1.031 6.41 1.031l-16.28-20.75zm-325.96 7.469 19.87 12.812-4.13 7.5-15.74-7.094zm498.28 5.906c5.75 8.051-14.51 31.773 12 41.25 0 0 .65 5.46-4.88 8.781-12.97 9.429-31.59-7.785-25.81-25.5 3.69-11.331 14.37-24.466 18.69-24.531zm55 .75s7.99 5.839 9.59 7.375c14.76 14.151 14.9 34.439 1.53 41.531-8.89 4.719-18.95.917-22.44-5.937-1.61-3.172 1.05-6.491 4.44-6.469 6.37.04 11.23-12.158 9.34-25-.74-5.089-2.46-11.5-2.46-11.5zm174.12 4.719s1.76 17.342 4.28 25.031c7.75 21.559-2.15 34.688-16.62 27.469-2.07-1.032-5.72-5.719-5.72-5.719l-1.44 24.781-20.59-6c4.45-7.161 10.86-12.253 15.65-20.312 0 0-3.08-.109-5.78-.125-12.3.423-16.83-13.213-3.94-24.438 9.61-8.288 34.16-20.687 34.16-20.687zm107.66 5.75c2.49-.018 5.6.183 9.87.187 13.07.012 16.42-1.758 10.66 6.375-2.25 3.17-7.72 11.996-9.35 15-3.29 6.099-3.95 8.017-9.43 9.219-7.95 1.573-16.95.486-26.03.906-1.98-.097 2.08-6.862 4.34-11.062 5.54-10.299 8.93-17.368 13.69-19.532 1.87-.85 3.75-1.076 6.25-1.093zm-40.38 7.968c1.58-.083 2.75 2.746 4.25 8.594 3.51 13.647 4.41 13.988-1.25 25.188-2.85 5.651-7.71 15.225-9.72 19.187-5.13 10.161-5.42 10.063-8.65.969-6.21-17.447-6.74-15.651 3.5-35.25 6.39-12.241 9.56-18.566 11.87-18.688zm-753.18 4.782 18.46 14.812-5.25 5.094-10.21-7.531-15.1 16.156 24.81 22.625 21-20.688 18 18.813-5.5 4.656-10.56-10.187-15.81 13.5 23.59 27.875 23.78-18.125 14.91 19.531-6.09 3.812-9.72-9.437-15.47 10.719 19.25 27.125 24.25-13.907 13.78 22.654-7.66 3.69-7.81-12.437-17.41 10.027 16.44 31.72 26.19-10.94 10.53 24.22-8 3.25-6.72-14.56-17.62 6.97 11.81 33.31 26.56-7.62 6.44 24.75-8.19 2.28-4.03-13.72-16.91 4.06 7.07 33.44 27.03-1.72 3.22 27.03-8.41.38-2.09-16.13-17.22.22c.09 5.68.75 17.28.75 17.28l-10.41-4.81c-15.46-102.79-70.6-188.452-152.75-248.094l-.43-12.281 20 12.688s18.33-16.337 21.5-20.5zm789.03 23.968c5.73-.044 3.19 4.401-3.79 17.688-7.78 14.824-9.16 15.131-23.74 18.687-17.74 4.326-17.22 5.292-7.63-15.156 3.7-7.885 6.39-14.785 9.78-17.406 4.45-3.439 13.06-2.121 22.41-3.531 1.16-.176 2.15-.275 2.97-.282zm-829.57 4.375c85.32 55.039 139.25 168.884 145.94 237.904 0 0-2.31-1.55-6.97-3.69-6.46-2.96-8.05-4.91-9.93-14.31-16.9-84.4-64.55-156.027-128.66-206.591zm769.35 14.094c3.61-.751 10.18 25.159 8.22 30.594-1.42 3.907-14.11-5.318-18.72-7.281-2.31-.982 8.06-22.805 10.5-23.313zm-411.41 1.188-.4 26.875s3.23-3.846 4.9-5.063c6.35-4.629 16.04 1.786 16.41 9.719.51 11.001-1.16 15.467-9.97 30.75-2.73 4.728-6.84 10.75-6.84 10.75s-10.41-7.418-21.79-18.75c-12.29-12.247-9.94-28.602.82-28.656 3.22-.027 6.09 1.07 8.9 1.968-2.32-7.915-10.97-23.281-10.97-23.281zm333.47 20.125s5.57 7.333 11.97 26.625c6.11 18.421-3.3 32.292-16.06 25.343-2.29-1.244-4.69-3.937-4.69-3.937-.9 8.93.69 24.996.91 25.126l-20.6-3.59s11.31-17.968 12.13-22.411c0 0-1.28 1.003-6.94 1-20.69-.011-16.4-24.626 7.5-38.281 3.59-2.051 15.78-9.875 15.78-9.875zm118.63.312c4.47-.2 2.36 4.134-2.6 14.25-5.48 11.187-4.11 10.217-15.69 4.313-16.19-7.912-15.23-9.148 5.29-14.688 6.48-2.398 10.65-3.77 13-3.875zm-293.69 3.281c16.22.098 28.18 16.1 25.78 38.844-4.12 39.05-1.75 36.64 2.5 40.53 7.74 7.1-2.74 11.36-11.97 4.6-6.42-4.72-8.52-9.37-8.22-30.911.35-24.764-.99-31.069-9.84-28.906-5.53 1.349-7.27 6.048-6.66 22.75.86 23.437-.69 29.337-9.59 36.847-9.6 7.42-19.96.8-11.19-4.1 4.01-4.51 4.76-10.24 3.22-24.4-1.69-12.069-8.73-55.464 25.97-55.254zm400.97 19.688c2.04-.039 4.08-.015 6.15.062 31.21 1.171 110.13 7.594 110.13 7.594l.68 23.313c-3.52 2.168-62.42-6.812-105.74-6-10.13.189-17.31 4.662-24.63.906 7.03 2.916 6.39 38.081-24.59 29.561-26.28-9.44-13.47-44.971 20.12-53.936 5.78-.783 11.76-1.384 17.88-1.5zm-173.66 15.625 67.44 33.251c9.44 126.6 53.14 260.36 202 361.75-24.12 17.25-84.61 59.63-153.75 88.66l-5.66-6.07c82.09-139.6 20.07-293.26-123.69-362.81.39-38.75 5.26-76.98 13.66-114.781zm237.22 21.221c12.93-.51 16.3.98 17.4 6.84 1.05 5.54 5.16 6.84 10.04 5.06 11.87-4.32 19.11 16.73 9.28 26.07-6.11 5.79-5.04 8.03-.03 8.06 12.39.08 12.03 16.3-.57 25.5-5.22 3.82-5.15 5.55.32 8.25 9.16 4.52 7.31 13.45-4.32 20.81-6.32 4-6.53 4.99-1.31 6.41 13.15 3.58-.27 22.32-14.65 19-5.91-1.37-11.52-.09-17.16 3.59-15.41 6.42-17.99 7.7-34.63 5.63-14.6-2.68-21.13-7.49-24.9-20.32-8.57-26.07-17.81-54.96-17.91-83.43-1.29-17.48 28.01-33.287 41.89-33.972 11.3-1.702 24.26 2.392 36.55 2.502zm-922.41.44c15.5 0 28.07 12.56 28.07 28.06s-12.57 28.06-28.07 28.06-28.06-12.56-28.06-28.06 12.56-28.06 28.06-28.06zm311.88 8.24-2.53 24.54s4.12-3.22 5.09-4.04c7.3-6.09 18.84.73 16.22 10.22-.85 8.37-15.31 33.25-21.06 38.47 0 0-23.18-25.25-25.66-30.19-5.51-10.97 2.02-22.41 12.03-17.56 1.43.69 5.56 3.75 5.56 3.75l-7.34-23.28zm-310 1.97c-9.92.34-19.34 6.43-18.07 14.53.85 3.47 6.14-1.53 11.35-4.81 3.99-2.51 8.79-2.9 13.34-.93 4.04 1.43 5.76 5.15 8.1 8.03 1.98 2.42 4.15 4.41 5.37 3.21 1.04-1.28.62-2.89.34-4.34-2.13-11.05-11.27-15.96-20.43-15.69zm755.72 3.82 10.03 5.12c13.5 178.92 103.97 284.1 199.03 346.75l-7.56 4.56c-116.66-74.73-197.65-208.63-201.5-356.43zm15.18 7.34s25.19 12.89 38.38 18.84l.5 16.19-8.81.31-3-15.21-18.32 1.31 5.72 37.43 29.53-3.62 4.13 22.62-10 2.1-5.13-13.91-16.93 4.13 10.96 36.37 26.63-8.59 8.34 23.78-8.93 3.25-5.72-13.94-17.53 6.13 13.56 35.5 27.72-8.91 11.19 22.22-8.41 3.72-8.03-13.78-16.63 8.5 19.5 33.15 25.03-13.12 11.69 17.72-9.19 6.15-8.34-10.84-13.47 8.87 21.56 29.44 21.57-16.15 16.12 18.59-7.12 6.31-11-11.15-13.04 11.62 25.69 28.19 22.31-19.38 15.85 14.75-4.69 4.94-10.66-6.66-14.12 15 26.97 23.47 21.41-23.47 18.15 13.38v9.88l-16.22-8.22-10.87 16.37 27.09 20.5-.19 8.06c-154.66-92.27-195.36-235.39-203.25-341.84zm-316.65 1.78c6.68-.2 13.74 6.09 25.4 19.59 32.6 37.76 23.9 96.17-18.72 126.63-6.2 4.44-8.7 4.04-16.28-2.47-43.7-37.55-46.22-87.77-7.31-131.87 6.73-7.63 11.71-11.72 16.91-11.88zm156.22 5.19c8.03 12.32 18.18 25 19.34 39.97-.58 14.79-10.55 17.52-20.88 8.9-1.3 7.77 3.13 22.91 3.13 22.91l-18.69-2s7.33-12.81 7.63-20.81c-12.98 9.03-22.89-2.75-21.13-12.25 3.71-16.17 17-27.07 30.6-36.72zm-155.66 9.66c-1.53.12-3.12 1.17-5.56 3.12-11.39 9.13-20.33 20.49-24.97 32.28-9.8 24.89-3.4 52.95 18.69 74.72 11.22 11.06 15.17 10.3 32.37-12.56 14.41-19.15 17.41-43.89 8.53-65.38-4.33-10.48-12.18-20.7-21.59-28.12-3.62-2.85-5.5-4.22-7.47-4.06zm359.5 4.59 14.5 7.12c18.5 122.02 78.46 196.46 145.66 247.79l-.13 11.31-18.03-13.97-21.59 22.59-17.5-14.34 6.56-6.38 9.97 6.35 12.75-14.28-25.1-22.38-21.87 18.97-18.22-18.75 5.53-4.62 12.59 11 14.1-12.5-24.38-27.35-21.81 16.53-15.22-20.18 6.63-3.94 7.97 10.94 16.81-10.47-17.78-27.35-25.35 13-12.97-23.37 7.38-3.53 8.41 13.12 15.78-7.59-15.88-32.25-25.9 8.56-9.53-25.38 7.4-2.71 6.53 15 17.53-5.63-11.9-34.72-26.78 7.56-6.63-25.53 8.28-1.78 4.35 13.78 18.4-3.68-6.75-33.07-27.4 3.47c-.91-5.62-4.96-20.75-4.88-26.47l8.44-.68 2.65 14.56 18.44-.63zm-358.53 2.65c10.05 1.38 22.32 20.73 25.09 27.76 5.3 13.89 5.74 29.99.91 42.46-3.95 10.21-15.78 28.31-23.28 33.41-6.06 3.28-11.13.85-19.78-10.91-17.1-23.23-20.4-51.17-6.91-70.31 10.31-14.62 17.95-22.42 23.97-22.41zm377.97 6.04 7.28 3.43c8.94 70.71 50.84 167.74 133.31 225.79v8.87c-64.14-46.03-123.02-125.43-140.59-238.09zm-379.25 4.81c-28.72 21.65-24.13 55.54-2.37 78.37 23.43-15.51 31.72-57.4 2.37-78.37zm-438.28 1.44c16.2-.38 26.47 5.27 31.4 16.5 7.67 17.44 8.71 20.75 10.28 29.9.9 5.23 2.29 13.13 3.07 17.53 8.41 47.4 2.22 65.27-26.57 72.66-8.58 2.21-20.56 2.92-28.93.91-2.2-.53-10.24-.58-16.57-.79-12.55-.4-16.38-1.73-22.68-6.84-2.28-1.84-4.46-3.32-7.19-3.75-14.36-2.27-18.65-15.43-7.75-25.15 6.21-5.54 6.82-6.28 6.25-7.22-.33-.54-2.98-.99-5.91-1-14.47-.09-14.33-14.99.25-25.63 6.93-5.06 10.05-9.82 5.47-8.65-13.2 3.11-17.86-16.19-4.06-22.17 7.35-4.11 12.62-7.54 5.53-7.93-5.95.52-10.8-3.88-8.97-9.05 2.2-6.28 14.28-11.99 21.25-9.85 5.45 1.66 10.75 3.19 14.16.74 8.26-5.93 11.95-8.61 19.06-9.56 4.12-.55 8.44-.67 11.91-.65zm481.47 3.62 66.56 1.28-1.97 65.28-62.69-1.18s13.74-29.17-1.9-65.38zm-149.16 1.5 63.75.78c-10.5 24.6-6.58 49.88-2.72 64.13l-62.41-.97zm106.47.1c17.13 9.98 21.84 46.32-1.95 65-22.65-23.27-18.12-51.6 1.95-65zm-157.28 28.37 17.09 1.59-6.09 24.47s2.75-2.9 3.65-3.18c21.96-10.32 23.54 13.05 1.19 34.15-4.94 4.65-12.87 11.03-12.87 11.03s-6.22-9.4-11.16-17.9c-5.61-8.55-9.43-17.71-8.47-22.57 1.39-7.05 9.87-11.71 15.28-7.4 2.66 2.12 5.75 5.34 5.75 5.34zm305.18 17.94s7.17 7.35 11.53 12.12c15.1 16.51 17.69 31.96 10.04 36.66-6.57 3.01-10.65.94-15.94-3.34 1.1 10.23 9.23 25.34 9.03 25.37l-22.53 3.63s5.56-20.51 5.09-28.26c0 0-4.63 3.56-6.69 4.44-14.7 5.37-22-11.34-9.9-28 10.14-13.97 19.37-22.62 19.37-22.62zm307.79 30.94c15.11 0 27.37 12.25 27.37 27.37s-12.26 27.37-27.37 27.37c-15.12 0-27.38-12.25-27.38-27.37s12.26-27.37 27.38-27.37zm13.5 12.53c-1.18.26-2.15 2.98-2.29 8.97-1.36 12.28-11.58 17.22-22.75 11.53-4.51-2.3-8.36-5.71-8.37-3.1-.01 1.4 3.61 8.72 6.19 11.22 9.46 8.52 32.52 6.5 32-13.34-.25-9.34-2.82-15.73-4.78-15.28zm-497.04 10.28c2.98-.2 6.75 1.03 9.16 3.53 7.48 5.11 8.9 11.64 9.38 36.28.41 21.74-.03 22.27 3.56 24.91 8.78 6.45 14.07-3.39 11.56-25.41-2.42-21.2 5.22-36.61 18.03-36.53 6.3.04 7.48 3.74 2.69 8.47-5.05 4.98-6.27 11.08-4.69 23.34 4.06 31.42.55 46.84-12.65 53.22-13.78 6.65-31.49-.99-34.6-18.38-1.99-11.59-1.97-25.34-.59-38.31.24-13.63-.07-15.18-4.81-23-3.36-5.24-.86-7.86 2.96-8.12zm-346.37 10.19c7.61-.02 15.52 4.39 20.25 14.15 11.4 23.55-13.3 42.92-35.97 44.44-39.35.59-86.1-5.09-125.59-10.35l.62-22.24c36.24 2.09 77.1 5.03 121.13 7.09-5.02-20.69 6.87-33.07 19.56-33.09zm206.94 4.56 21.9 4.84-13.93 22.78c4.13-1.79 6.99-3.04 11.12-1.53 8.92 3.22 9.04 14.53 2.5 25.09-5.17 7.68-19.73 16.84-29.66 22.47-5.57-11.97-17.9-32.95-13-44.4 2.61-6.09 9.82-9.05 16.54-5.72 2.22 1.33 6.46 3.5 6.46 3.5zm51.78.62 66.75.78c-9.7 67.49-28.69 157.61-66.1 231.07l-15.72 4.06c32.99-72.99 54.94-141.45 65.19-217.97h-33.37c-19.2 82.13-47.6 158.25-91.28 224.38l-19.41-6.32c46.67-73.99 83.65-156.56 93.94-236zm152.25 1.19h74.4c13.69 137.41 60.12 231.2 129.22 323.97 0 0-4.36.98-6.94-.13-7.16-8.94-13.73-14.4-24.46-17.15-58.08-83.62-97.05-200.52-106.44-289.94h-44.25c5.04 112.32 36.15 204.41 77.56 293.59l-22.47 4.13c-33.25-79.82-69.71-149.28-76.62-314.47zm115.78 16.97c6.12 4.73 12.74 9.39 18.97 13.9 16.75 11.76 16.53 33.98.25 33.88-1.73-.01-5.75-.25-5.75-.25s6.65 14.57 10.84 21.94c-6.78 1.81-20.97 4.47-20.97 4.47s2.03-14.31 1.63-26.16c0 0-2.72 3.04-4.97 4.09-10.81 4.52-19.94-4.91-18.6-16.06 1.83-15.04 18.6-35.81 18.6-35.81zm-497.1 2.69 36.63 18.18c-24.96 56.82-53.54 110.01-94.87 150.44l1.06-131.28c22.56-.66 45.71-.86 57.18-37.34zm250.44 2.06h22.53c-9.99 104.81-79.24 246.59-92.25 263.69l-4.28 3.22c.26-.14-8.87-32.14-19.25-43.66 39.07-52.7 80.01-153.96 93.25-223.25zm158.44 0h34.03c10.6 83.51 36.42 173.73 101.85 283.31 0 0-6.56.66-11.63-2.37-11.15-6.92-18.9 2.24-25.56 1.88-10.42-.56-12.13-1.18-22.88 1.37-53.99-113.88-69.31-203.51-75.81-284.19zm-367.59 18.75 12.15 5.72c-26.14 60.45-49.55 108.49-111.47 167.47l-.21-17.57c43.49-42.12 72.8-97.65 99.53-155.62zm17.68 8.44c5.76 2.16 12.29 5.72 17.72 8.65 1.82.73 1.33 2.36 1.35 4.07-2.3 5.74-12.45 8.26-16.28 9.37-4.64 1.32-9.21 2.24-10.04 2.44-5.29 1.24-3.62-4.07 2.13-15.69 2.59-5.23 3.61-8.73 5.12-8.84zm24.29 12.81c3.63-.22 18.33 7.89 21.46 10.81 1.12 3.45-2.04 8.87-6.68 18.91-7.14 15.43-8.56 15.77-10.69 3.09-.37-2.18-2.5-9.4-3.78-14.19-2.98-11.11-3.27-17.5-.31-18.62zm26.59 12.47s8.54 4.15 11.31 5.97c-38.13 114.19-139.67 208.58-139.12 206.4l-15.85-9.31c67.58-61.06 117.1-133.15 143.66-203.06zm-40.31 1.62c3.69.08.47 4.61-4.5 15.6-4.73 10.75-6.27 14.57-10.69 16.28-6.33 2.29-15.43 2.36-23.5 3.78-3.45.6-2.01-2.04 3.31-12.84 6.24-12.68 6.59-15.31 16.38-17.94 5.65-.88 13.26-4.92 19-4.88zm13.37 22.69c3.93 14.14 3.85 16.93 1.22 21.84-4.93 9.22-11.38 19.97-13.16 22.88-4.44 7.28-5.7 5.76-8.34-11.94-1.64-10.98-3.07-15.91-1.86-20.69 2.22-5.41 8.83-18.16 12.57-25.62 5.35-15.92 8.22 12.12 9.57 13.53zm70.19-12.34 20 6.56-15.69 18.94s6.58-1.19 7.35-.88c15.73 1.05 13.12 16.69.93 26.16-5.04 4.62-29.93 15.93-29.93 15.93-2.67-13.99-8.16-22.94-6.85-37.31.92-7.73 1.61-14.72 11.09-14.93 4.99-.27 7.01 4.83 10.26 8.93zm362.56 16.97s12.05 6.21 23.22 14.81c14.57 11.21 17.06 24.39 2.5 29.47-1.68.59-6.47.34-6.47.34 4.01 6.98 13.53 17.38 13.53 17.38-4.77 3.33-11.5 5.95-18.97 8.28 0 0-1.85-17.39-3.62-24.1 0 0-1.93 3.8-4.31 5.28-14.03 8.73-25.04-7.72-17.5-28.53 4.58-12.63 11.62-22.93 11.62-22.93zm-154.22 2.9c35.03-.85 14.51 56.52-3 52.81-.29-.52 14.46-33.93-5.4-39.25-9.12-2.44-1.26-13.67 8.4-13.56zm-57.44 4.06c10.89-.06 18.81 7.61 8.41 12.44-16.36 7.6-6.62 25.81-6.25 36.13.23 6.3-14.57-5.5-17.72-18.32-4.06-16.56-2.18-28.83 15.56-30.25zm-259.09 6.04c2.42-.01 4.23.18 4.85.65 1.02 2.71-3.87 11.17-11 22-3.8 5.77-5.43 7.39-7.76 8.75-5.51 3.1-13.26 2.3-19.71 2.75-9.63.12-7.94-.07 2.71-16.65 4.76-7.42 7.77-13.48 10.6-15.41.57-.36 13.07-2.07 20.31-2.09zm12.63 11.96c0 20.75 7.05 27.55 1.87 34.1-6.33 10.19-14.41 21.35-17.34 24.87-4.95 5.94-4.4 4.82-5.69-10.72-.94-11.26-1.96-18.79-.5-22.31 4.23-10.17 9.26-15.03 14.5-25.84 4.11-8.71 7.16-7.26 7.16-.1zm276.5 10.41c10.17.14 16.45 10.95 16 20.87l-.44 9.5c13.15-5.04 29.46-.14 30.19 12.76 1.22 21.86-14.88 19.32-28.5 18.4 1.37.52 3.38 19.76-4.72 27.13-12.72 14.23-36.43-.31-30.47-21.19 1.24-4.34 1.5-7.06 1.5-7.06s-8.5 3.06-11.5 2.93c-25.8-1.1-23.82-37.57 2.09-33.28 5.3.88 8.88 2.16 8.88 2.16s-.57-2.31-1.44-5.56c-3.77-14.04 4.15-26.85 18.41-26.66zm515.96 6.5 13.91 8v15.5l-19.78-14.63zm-833.59 10.37c5.48-.05 9.79.38 8.94 1.69-.02 2.77-12 19.45-19.09 27.07-6.05 6.49-6.91 5.56-21.69 4.84-5.8-.29-9.59-.33-9.44-1.88 6.81-8.93 16.2-20.43 22.69-30.03 2.55-.78 11.55-1.62 18.59-1.69zm13.53 7.29c1.03-.02 1.34 2.2 1.32 7.03-.02 3.64.5 14.92 1.03 19.81.96 8.89.96 8.88-2.85 14.19-4.64 4.99-9.38 12.34-15.37 18.06-9 9.97-8.07 10.54-7.94-10.78.11-16.66-1.15-16.65 2.22-20.56 1.85-2.15 7.57-9.15 11.34-14.63 5.73-8.31 8.76-13.1 10.25-13.12zm85.75 2.93 18.5 9.88-18.53 18.78s4.64-.02 6.19.28c11.9 2.31 11.01 14.93-.97 24.34-7.36 4.65-32.62 13.85-32.62 13.85-.87-10.61-3.12-20.37-2.69-31.75.18-5.25.66-10.96 4.69-15.5 2.78-3.08 7.44-4.88 13.96-.66 3.43 3.05 5.22 6.5 5.22 6.5zm218.31 6.41c-7.24 0-13.12 5.88-13.12 13.13 0 7.24 5.88 13.12 13.12 13.12 7.25 0 13.13-5.88 13.13-13.12 0-7.25-5.88-13.13-13.13-13.13zm206.82 3.09s24.22 9.1 35.12 19.1c10.19 8.49 5.4 22.49-4.72 22.78-.73 0-5.03-.63-5.03-.63 3.43 5.22 14.91 18 14.91 18l-18.72 7.6s-3-14.41-5.31-22.5c-6.53 15.06-22.62 5.26-23.69-4.13-2.6-13.76 3.25-27.19 7.44-40.22zm-206.82 1.16c5.04 0 9.13 4.09 9.13 9.12 0 5.04-4.09 9.13-9.13 9.13-5.03 0-9.12-4.09-9.12-9.13 0-5.03 4.09-9.12 9.12-9.12zm-357.37 18.66c6.53-.06 14.67.24 18.31.46 2.78 2.14-3.03 8.76-14.25 20.54-8.99 9.44-10.32 8.13-21.22 8.22-18.28.14-18.73.26-10.34-9.29 9.19-10.46 14.56-17.19 18.81-19.37 1.43-.37 4.78-.53 8.69-.56zm22.28 9.18c1.93-.38 1.41 4.55 1.09 15.72l-.53 18.94-14.21 13.69c-16.46 14.72-14.5 15.65-14.38 1.87.09-10.94-.02-18.64 2.34-23.5 7.19-8.66 14.68-16.32 22.85-24.59 1.29-1.27 2.2-2 2.84-2.13zm361.47 4.72c3.96-.33 14.06 16.96 16.59 31.44 5.78 33.08 25.59 48.75 39.53 35.47 5.68-7.81 6.31.71 6.04 4.78-2.93 41.9-50.41 24.46-55.82-17.16-16.66 10.82-32.21-11.03-22.28-10.68 23.49-7.47 17.07-29.04 15.94-43.85zm-55 .32c2.33 14.49-23.8 39.31-38.5 21.9-7.48-8.86-.66-27.12 8.84-15.87 10.51 7.77 20.7-1.25 29.66-6.03zm-359 19.87c5.37-.12 13.14.9 16.53.44 4.8.48 1.37 2.79-9 12.25-8.93 8.14-11.48 11.77-12.5 8.22-.5-5.51-.28-12.05-.25-19.82.82-.76 2.78-1.04 5.22-1.09zm121.81 9.63 15.94 11.62-15.81 14.56c14.18-.7 15.44 12.59 10.06 20-3.48 5.2-16.93 10.67-30.38 12.85-8.09 1.31-14.68 2.28-14.68 2.28s-.31-6.24-.53-16.6c-.47-21.18.98-29.52 9.12-33.65 5.83-2.96 15.7 1.68 18.13 7.09.8 1.79 2.9 4.91 2.9 4.91zm-102.56 1.15c.06-.01.1 0 .13.03.9 1.22-2.35 35.69-2.35 35.69l-23.09-13s23.37-22.31 25.31-22.72zm611.19 4.06c16.45 7.75 28.77 6.25 39.84 15.85 9.64 5.04 6.78 18.93-.25 22.03-3.18.97-8.44.44-8.44.44 5.82 7.18 18.57 16.25 18.57 16.25l-20.25 8.46s-2.77-13.65-5.35-21.09c-3.68 11.07-16.17 10.8-23.28 5.59-5.04-3.85-7.12-16.78-4.72-28 .64-2.95 3.88-19.53 3.88-19.53zm74 112.35c20.89 29.4 32.53 54.13 35.78 91.03 1.92 22.75 1.26 27-4.13 26.97-3.46-.03-4.96-1.74-4.93-5.63.36-61.78-75.74-76.31-104.07-22.93-16.6 31.28-8.41 72.76 27.29 129.24 32.84 53.49 75.14 94.15 99.21 151.69 23.86-57.14 71.73-105.23 105.94-160.31 49.42-70.83 32.28-145.49-28.69-153.34-27.97-3.61-58.63 24.43-62.18 53.43-.8 6.47-2.17 8.38-5.72 7.85-4.76-.71-2.98-13.49-.91-30.53 5.65-32.59 17.16-59.78 35.81-87.47zm295.22 81.65c.55-.14 15.5 20.71 17.62 28.5 1.73 6.36 3.06 12.93 1.97 15.69-1.31 3.32-4.43.78-8.31-4.37-10.67-14.17-31.64-9.64-40.19 8.78-6.16 13.27-2.74 30.38 8.72 49.78 13.69 25.31 47.18 70.82 48.19 74.97.89-3.57 22.22-42.22 39.4-67.85 9.06-15.46 15.84-28.56 16.25-49-2.09-25.44-32.53-35.93-46.12-16.18-4.4 6.38-7.01 8.33-8.47 3.12-.99-3.51 2.1-11.1 3.72-19.22 1.35-6.77 14.52-24.38 14.84-24.22zm-477.38 126.91c-199.68 47.32-361.88 18.06-377.97 12.47l-12.72 18.97c-1.55 3.22-2.5 12.85-11.12 15.47l-12.94 19.31 2.53 2.69-11.47 10 2.79 3.34-8.35 12.13-3.28-.35-19.31 29.35 2.94 3.28-44.35 69.4 599.91.19c-34.87-65.77-72.18-130.27-106.66-196.25zm-3.62 8.53 3.56 9.91c-9.92-1.22-21.51-1.82-33.28-2.35 10.35-2.13 20.71-4.75 29.72-7.56zm-34.85 8.63c-19.08 8.75-30.51 19.27-39.28 30.37-10.91-8.48-24.8-14.48-41.37-18.25zm-337.12 4.81 8.5.97s-2.85 2.21-4.88 1.75c-1.55-.36-3.62-2.72-3.62-2.72zm382.15 4.94 5.41 10.68c-12.99-6.88-68.57-22.65-84.34 32.6-16.6-22.43-85.02-54.96-119.72 14.19-9.87-18.74-67.32-72.63-119.72-3.94-20.65-42.69-37.91-46.27-75.81-40.44 26.94-25.89 64.84 1.06 80.9 23.09 45.21-37.49 83.01-26.22 116.03 4.29 42.62-46.4 85.11-35.22 115-11.94 21.01-30.9 41.52-40.22 82.25-28.53zm-349.03.28c26.87 3.62 53.73 5.27 80.6 6.59-15.55 5.71-31.5 10.62-44.16 22.1-9.59-13.4-22.92-21.18-36.44-28.69zm193.81 4.28c-14.66 6.9-30.46 17.28-43.12 28.19-13.67-11.13-27.74-20.76-43.06-25.6 28.11 1.38 59.26.15 86.18-2.59zm654.04 15.03c-.03.11-.02.16 0 .19.03-.04.01-.09 0-.19zm-482.04 6.91s-5.41.91-7.15 1.37c-23.72 6.31-18.56 39.72 5.84 39.72 2.32 0 8.1-.91 8.1-.91-.47 22.63 6.41 28.15 29.53 26.88l39.18 70.06-579.68-2.5 36.81-58.87c18.51 2.17 30.15-8.13 26.03-23.85 0 0 11.4 3.48 14.6 3.5 20.95.13 26.37-32.02 6.28-37.59-2.24-.62-7.85-1.24-8.54-1.44 9.19-22.95 34.43-9.4 41.66.13 16.27-13.38 34.26-7.39 41.97 9.93 0 0-3.03-1.69-3.97-2.37-19.06-13.94-36.78 14.93-18.12 28.25 1.83 1.31 5.72 2.44 5.72 2.44s-2.27 1.85-4.35 5.34c-9.69 16.29 5.91 36.14 24.75 31.03 14.46-5.66 14.67-16.53 14.66-28.5 0 0 4.99.38 9.47.44 17.35.21 22.32-22.02 11.7-32.35-5.74-5.59-13.24-5.15-16.95-5.87 20-19.64 33.57-6.09 47.68 2.97 2.14-.05 24.51-26.91 51.1-.53-12.91-3.38-26.12 4.99-26.3 18.42.25 8.65 6.44 16.29 19.8 16.9-1.43 4.34-2.39 7.58-2.47 11.8-.26 14.11 10.7 22.89 24.62 20.72 11.64-1.48 20.24-14.79 16.1-25.84-1.87-4.99-4.44-6.81-4.44-6.81 31.33 3.92 30.79-35.77 6.43-38.18-5.78-.57-10.23 1.93-16.06 7.27 14.33-29.3 40.54-23.42 50.35-11.44 13.46-9.78 32.02-23.13 54.22.66-3.66-.78-8.81-.95-13.29.23-17.57 4.67-17.65 27.01-3.71 33.81 3.92 1.91 8.73 3.03 13.9 2.83-4.63 18.78 16.22 32.2 30.98 23.2 10.57-6.44 13.34-21.66 1.9-35.54 19.26-.86 21.16-24.87 10.03-33.28-8.72-6.6-18.99-3.47-26.44 5.25-2.39-6.89 16.64-30.85 43.53-13.6 14.25-11.94 28.37-15.61 44.53-3.68zm8.41 18.75 7.53 13.68c-5.01.5-12.19-4.87-7.53-13.68zm-97.19 13.9c4.72 0 8.54 3.82 8.54 8.53 0 4.72-3.82 8.53-8.54 8.53-4.71 0-8.53-3.81-8.53-8.53 0-4.71 3.82-8.53 8.53-8.53zm-351.84.5c1.14 4.58 1.63 9.15-6.69 10.03zm852.22 3.97v19.09h15.62l44.13 101.63-42.35 65.97h-17.4v16.97h60.62v-16.97h-17.72l53.88-82.25v82.25h-15.47v16.97h54.81v-16.97h-20v-167.6h20v-19.09h-54.81v19.09h15.47c.38 16.44.47 30.59 0 47.04-7.7 10.27-15.69 22.82-24.16 32.5l-34.06-79.54h22.06v-19.09zm-754.22 4.28c4.32 0 7.81 3.5 7.81 7.81 0 4.32-3.49 7.82-7.81 7.82s-7.81-3.5-7.81-7.82c0-4.31 3.49-7.81 7.81-7.81zm130.03 2.44c4.58 0 8.28 3.71 8.28 8.28 0 4.58-3.7 8.28-8.28 8.28-4.57 0-8.28-3.7-8.28-8.28 0-4.57 3.71-8.28 8.28-8.28z" transform="matrix(.153601 0 0 .153601 -146.193 -10.507)"/></g></svg>