<svg clip-rule="evenodd" fill-rule="evenodd" viewBox="0 0 228 316" xmlns="http://www.w3.org/2000/svg"><path d="m2313.97 600.582c0-5.867-4.77-10.63-10.63-10.63h-201.97c-5.87 0-10.63 4.763-10.63 10.63v290.551c0 5.867 4.76 10.63 10.63 10.63h201.97c5.86 0 10.63-4.763 10.63-10.63z" fill="#fff" stroke="#bfbfbf" transform="translate(-2088.688 -587.897)"/><g fill-rule="nonzero"><path d="m376.567 1111.81c4.138-52.34 1.713-108.6 4.576-151.202-1.589-3.025 4.341-11.231 4.649-11.228-3.397-6.373-4.384-22.611.158-36.956 35.737-130.242 98.956-231.204 163.961-325.289 50.258 157.243-114.258 265.337-150.121 401.845-11.981 47.28-10.635 80.39-15.504 123.16zm-271.513-1.02-190.917-302.254 42.414-20.063 196.115 321.797zm257.458-553.121c1.619 8.634 8.344 13.336 15.582 9.474 7.09-3.781 7.906-4.033 3.446 2.711-9.848 14.891 9.599 29.625 22.327 16.897 4.523-4.524 5.354-11.96 1.334-15.785-4.539-4.32-5.512-6.543 1.218-3.215 16.922 7.07 26.559-17.413 10.181-25.865-4.221-2.179-12.514-.38-15.663 2.831-3.804 3.877-4.318 2.494-3.282-.535.613-1.792 1.066-4.707 2.521-8.171 1.141-2.718 1.981-6.429 1.981-6.429l-17.369-.01s1.36 3.993 2.743 7.357c1.302 3.166 1.782 5.529 2.417 6.845 2.289 4.745-.504 2.968-5.155-.574-6.576-5.007-14.905-3.715-19.706 2.722-1.785 3.794-3.289 7.748-2.575 11.747zm27.797-243.86 37.353-.693 39.804 113.778c-33.474 54.197-43.023 115.642-5.475 178.445l-118.423-1.129c28.823-93.683 34.224-193.331 46.741-290.401zm37.403 147.883c5.062-4.425 5.794-12.544 1.287-18.014-5.667-6.878-4.346-7.211 3.307-2.675 11.042 6.545 21.83-7.226 15.408-19.58-4.08-7.847-17.532-9.723-22.759-2.846-4.357 5.734-3.821.446-.433-7.2 1.246-2.812 3.047-8.097 3.047-8.097l-18.1.17s2.28 5.149 3.488 8.454c3.206 8.767 3.309 11.532-1.718 5.862-10.943-9.406-23.971-2.824-24.24 10.504 0 10.248 9.213 16.93 17.399 12.231 4.974-2.856 7.199-3.528 1.559 3.093-3.911 6.327-2.624 14.46 2.402 18.326 6.895 4.274 14.331 4.12 19.353-.228zm-250.552 32.527c1.465-1.054 1.995-.345 1.087 1.089-.773 1.222-2.741 2.95-4.428 4.785-8.549 9.3 2.245 21.361 15.879 19.665 9.281-1.154 14.882-15.669 8.098-21.501-2.201-1.506-3.937-1.807-5.596-3.853-.125-.812.26-1.355 1.077-1.026 1.203.518 3.648 2.54 4.89 2.892 8.585 2.435 15.126-1.052 17.38-7.108 1.461-7.014.213-14.581-5.488-18.592-5.299-3.643-13.207-2.704-17.878 3.358-4.781 6.203-5.365.243-1.415-8.347 1.48-3.22 2.523-7.813 2.523-7.813l-16.644.698s.845 3.589 2.263 7.722c3.592 9.437 6.209 12.161 1.543 7.253-20.19-12.195-27.12 4.006-27.526 10.475-.765 12.179 16.901 19.287 24.235 10.303zm83.402-182.884 30.019.438c-23.978 120.096-71.484 220.392-150.297 288.9l-146.862-2.087-70.218-50.269 27.726-35.191c186.236 21.286 266.668-70.272 309.632-201.791zm-138.228 277.489c8.83-3.778 12.598-13.688 6.859-20.431-5.188-6.096-5.704-7.987 2.317-3.194 10.733 6.413 21.315-6.032 16.155-18.382-3.212-7.687-13.574-10.168-21.11-5.053-6.627 4.832-6.477 2.641-2.957-5.063 1.743-3.813 3.119-9.939 3.119-9.939l-18.405.053s1.281 4.387 2.588 7.406c2.993 6.918 4.07 10.092 2.643 10.092-.689 0-2.94-2.125-4.257-3.362-3.627-3.407-13.635-4.155-17.393-.644-11.132 10.383-5.134 28.831 8.916 25.596 9.071-2.089 11.18-5.505 3.589 2.92-9.355 10.385 4.788 25.627 17.936 20.001zm-116.032-4.943c7.649-3.502 10.292-12.248 6.095-17.961-4.225-5.75-6.303-9.449 1.268-4.226 10.08 5.212 19.015-1.463 19.015-12.995 0-12.077-13.499-17.861-23.555-10.7-1.699 1.21-3.785 2.293-4.156 2.293-1.218 0 1.068-6.508 3.541-10.757 1.073-1.845 2.969-5.604 2.969-5.604l-18.396-.909s.974 5.026 2.374 8.898c2.845 7.867 3.534 10.486-1.555 5.981-13.694-13.088-28.639 3.219-22.973 17.503 2.994 8.04 12.438 8.143 18.056 4.204 5.1-3.863 2.457 1.306-1.056 5.403-9.58 11.173 4.124 25.34 18.373 18.87zm843.727-292.385.719 22.272-240.007 195.523-9.802-15.385zm-884.93 31.827c34.51-23.981 73.079-67.299 110.925-89.676 26.757 63.423-38.346 124.582-110.925 89.676zm628.543-8.972c-33.12-118.611 129.451-108.929 108.749-84.05zm-772.151-85.842 237.544-189.292 10.516 16.254-250.609 200.682zm647.017-186.41c.641 2.013 7.677 9.74 7.682 10.435-2.017-1.54-14.032-8.449-20.011-1.93-2.089 2.388-4.774 8.123-4.559 14.097 2.354 10.717 14.481 14.624 23.206 7.401 2.512-2.08 4.677-4.611 5.173-3.706.43.787-.969 4.446-2.11 7.342-1.31 2.975-6.122 9.201-2.681 9.233l16.716.156s-.573-3.924-2.525-8.278c-3.647-8.138-3.442-12.534 1.003-6.65 8.656 11.456 25.784 2.175 24.157-11.462-1.175-9.846-11.066-15.58-18.44-10.975-.807.504-3.181 2.806-3.516 2.818-.896.031 1.597-3.693 3.255-6.787 5.51-10.28-2.436-19.942-14.768-19.049-3.983.288-8.368 2.747-8.395 3.102-4.67 3.682-5.503 10.121-4.187 14.253zm204.315-94.012c23.312 21.926 46.688 38.068 70.086 52.201l-22.615 34.842c-150.476-15.622-260.68 42.712-308.185 203.653l-24.884 4.501c10.463-100.61 45.324-200.106 146.189-296.59zm-144.626 22.491c-.014 4.775 8.692 10.552 6.727 11.844-.902.468-6.073-4.135-8.469-4.416-17.371-2.042-21.277 24.959-4.077 28.185 3.383.635 10.405-1.393 12.501-3.076 2.784-2.235 4.717-4.077 5.282-3.865 1.052.395-1.408 5.192-3.339 8.742-1.794 3.299-4.318 9.772-4.318 9.772 6.88 1.321 13.532 1.683 19.77.309 0 0-1.728-5.668-3.459-9.993-2.213-5.528-2.655-9.023-1.131-8.636.657.166 1.381 1.894 2.753 3.099 8.483 7.448 21.084 4.446 24.514-7.002 3.225-10.763-9.576-22.024-18.643-16.082-3.168 2.075-3.155.49.035-4.211 2.914-4.293 2.284-10.852-.271-14.774-9.339-10.134-28.157-3.172-27.875 10.104zm141.611 33.604c-.447-2.413.157-1.72 2.66.945 7.836 8.341 21.503 7.213 25.1-3.687 3.59-10.877-6.867-23.485-16.15-19.299-4.829 2.178-4.904 1.387-2.118-2.156 7.186-9.134-.488-21.364-12.639-21.364-11.104 0-17.769 10.616-12.467 19.854 2.172 3.784 1.443 4.578-2.428 2.647-11.297-5.635-22.092 12.221-13.889 22.975 4.82 6.319 16.133 7.105 22.678.956 3.482-3.271 3.436-1.688.857 5.135-2.246 5.942-4.717 10.742-4.717 10.742l19.65.392s-5.137-10.033-6.537-17.14zm-423.557 236.815s-28.268-81.524-37.827-120.563c22.198-51.542 52.345-101.39 3.432-176.502l120.895 1.009c-38.291 84.266-41.467 297.971-50.247 298.392zm11.663-94.92s-5.877-8.277-6.168-14.932c-.671-4.274.432-4.523 2.603-.149 10.637 12.022 25.339.693 25.524-9.847 1.344-9.631-9.845-18.022-17.143-13.289-5.115 3.317-6.484 2.335-1.886-3.896 6.475-8.776-.345-20.367-11.751-20.367-14.839 0-20.674 13.8-10.15 23.811 7.774 7.395.499 2.996-5.71.313-12.091-5.225-20.195 7.056-14.884 19.603 3.665 8.659 14.683 11.029 21.237 4.124 3.59-3.782 6.894-5.985 4.906-.229-1.059 4.661-6.597 14.505-6.597 14.505zm20.165-129.942s-7.059-9.053-8.218-15.817c-.392-2.49 1.362-1.84 5.388 1.694 12.883 11.311 30.974-8.509 18.99-20.873-4.118-4.25-8.34-5.515-13.234-3.028-6.106 3.103-5.603 1.57-2.536-1.676 4.495-4.759 4.264-13.537-.471-17.852-13.094-11.931-34.216 5.395-22.066 18.128 5.289 5.542 2.76 4.802-3.088 1.214-11.065-6.788-23.597 11.331-15.35 22.144 9.823 8.493 17.301 4.451 24.216-.739 1.497-.77 2.79-1.112 2.79-.464 0 1.211-7.043 17.29-7.043 17.29zm-157.995-52.356c-7.369-.573-11.874-69.552-2.615-91.275 20.249-91.841 79.663-158.236 116.805-214.214 59.514-83.319 53.785-222.872 56.212-217.284l8.299 1.059s-7.34 81.691-4.116 118.673c3.419 32.523 2.567 34.534.206 37.728-.648 3.021.163 11.884-.53 14.917-27.41 119.977-91.007 242.945-156.295 335.588zm604.669-203.389-194.358-314.139 47.588-3.749c17.333 28.149 186.221 296.596 186.221 296.596z" fill="#d40000" transform="matrix(.151352 -.00168536 .00168536 .151352 62.438 116.988)"/><path d="m-104.999 1114.01c23.414-82.22-35.398-274.705-73.208-300.189 44.69-1.388 98.409.016 96.76-4.183 0 0 186.626 300.882 185.061 302.442-1.48 1.48-208.613 1.93-208.613 1.93zm775.096-459.32c-45.962-7.053-27.382-45.063 2.261-48.7-3.862.599 3.382-18.964 27.342-26.64 5.531-9.77 9.97-26.512 15.019-34.252-14.361 4.491-31.884 16.387-96.785 6.132 6.005-30.74 68.245-35.301 90.616-30.289 12.915 3.153 25.482 22.588 29.414 23.038 39.987-6.205 90.362 30.468 74.593 66.951-2.439 5.2-8.382-6.3-21.765-11.322-43.252-16.231-46.031-39.765-55.9-50.4-3.623-.722-23.25 37.068-23.25 37.068l5.71 25.879c10.426-.838 56.397 28.281-1.445 47.015-16.544 54.741-46.125 15.649-45.81-4.48zm111.815-244.015c-2.433-2.528 2.157-19.576 8.111-29.346 3.216-5.276 10.549-8.761 14.818-7.962 7.606 1.422 6.293 12.487-4.165 44.811-.474 4.675-10.783 5.051-18.764-7.503zm-914.203-237.338c-12.633-.184-.921-34.41 6.97-45.23 2.589-3.356 12.591 3.971 13.055 8.953.831 8.924-13.21 39.893-20.025 36.277zm-6.363-233.674c15.377 3.892 39.54 19.682 51.075 28.329 14.342 10.952 10.159 32.097 21.707 34.106 7.858-3.777 22.575-38.315 22.575-38.315s3.795-17.786-6.336-23.389c-25.207-13.941-24.592-28.693-22.965-29.987 7.739-19.411 22.671-15.775 30.774-16.77.292-10.672.189-33.205 22.253-30.636 19.3 2.041 20.896 29.665 12.768 29.829-.15-.468 36.594-4.858 35.965 19.342-.34 13.12-22.29 29.664-28.998 23.491 0 0 3.341 26.198-29.637 34.796-7.766 7.732-14.408 40.912-14.375 37.96 20.023-17.672 51.117-21.522 100.029-14.552-30.975 55.92-114.584 28.657-121.023 17.699-42.074-13.206-81.487-30.231-73.812-71.903zm362.921-130.811c44.607 4.552 93.613-8.918 130.667-1.083 4.223.624 8.749 6.933 11.28 8.351 19.081 10.685 39.205 7.653 70.23-3.693 7.661-2.802 149.23-.123 149.23-.123 31.719 47.996 88.061 138.252 89.34 135.229 0 0-78.473-1.764-114.655-.025-25.442 1.222-10.532 4.853-28.196 5.422-124.756 91.538-150.545 292.072-150.545 292.072s39.435-9.909 49.589 1.058c50.223-141.735 143.288-205.673 271.913-191.516 59.438 6.542 129.791 65.849 129.791 65.849l-128.498 102.207c-98.093-50.863-141.991 95.339-112.066 96.042l258.765-206.758s4.198 17.16 3.752 17.732c-18.543 23.759-327.022 268.505-327.022 268.505l-13.257-14.976s-8.517 7.391-13.009 12.325c-.529 8.124 2.257 15.046 8.352 21.477-61.102 47.926-64.098 137.072-19.995 186.245 0 0-19.814 1.182-21.899 1.515-25.207 4.028-49.846-120.318.668-177.49-24.612-49.62-39.366-116.92-42.483-120.068.584 7.916-39.775 4.838-39.775 4.838-4.199 100.23-15.757 198.434-40.905 292.9l185.491 6.059-80.507 136.187s-88.603-3.203-126.756-6.298c-39.607-23.641-62.787-6.261-100.297 1.91-53.261.97-131.605-2.379-131.613-1.655-25.995-53.086-54.13-92.223-92.451-137.906-4.841-8.274 157.635-1.387 157.635-1.387s82.61-121.993 97.797-156.539c11.852-26.96 38.859-125.3 38.859-125.3 1.139 5.154-14.468-25.811-51.63-25.528-32.997 203.886-276.449 269.978-421.017 136.909l-1.096-23.766 324.715-257.442 14.115 16.686c-3.048-2.494-199.335 157.179-196.092 156.191 57.306 30.811 124.275 7.134 117.62-91.987 46.036-32.506 86.904-70.515 127.101-109.33.87-1.525 43.275 98.113 41.993 117.182 25.119-8.126 39.741 9.661 39.302 6.644-8.36-57.439 44.276-274.29 45.511-299.276-27.866-2.556-64.859-1.94-122.831-4.887 45.58 90.689 28.717 151.592-37.019 206.415l-13.429-17.263c5.495 3.14 95.947-73.39 25.102-190.022-3.305.24-37.985-3.562-37.985-3.562s72.435-112.131 76.21-128.07zm349.925-368.813s203.158-2.618 203.158 3.336c-7.698 109.045 16.626 208.864 76.983 301.605 0 0-89.923-4.191-88.293-3.042z" fill="#e2cf00" transform="matrix(.151352 -.00168536 .00168536 .151352 62.438 116.988)"/><path d="m3920.83 104.594-1055.94-1.296 6.56 1694.792h1054.64zm-96.58 6.719c-.09-.093-13.61 179.287 79.98 296.775-57.17-8.661-89.91.101-123.2 23.621l4.56 4.691c45.85-28.17 84.69-20.759 124.49-16.371l-1.08 230.784c-.28 11.205-46.52 6.202-75.75-15.782-13.88-8.195-31.79-25.401-39.81-38.312-2.44-3.927-5.01-7.808-5.72-8.625-2.69-3.092-19.36-34.156-49.97-92.969-15.56-29.903-36.14-70.697-52.84-102.312-10.82-20.469-30.93-59.138-32.35-62.219-2.95-6.428-24.85-49.145-33.37-64.688-22.51-41.056-58.86-112.694-71.82-138.369-2.87-6.663-7.23-9.734.58-9.517 1.73.042 3.46.149 4.46.386 1.37.686 3.04-2.359 3.04-2.359zm-940.25 970.447-.67-18.15 306.87-253.091 9.79 12.599zm296.5-443.317c-1.24.454-2.58.918-4.06 1.386-7.89-35.142-3.39-82.096 5.9-117.395 13.54-49.004 38.81-88.307 66.96-127.803 64.32-90.195 92.81-158.185 91.66-279.343l9.2.979c-.39 19.137-2.92 33.532-3.66 58.995-1.16 27.287-.7 48.033 2.2 74.675 1.43 13.093 2.29 21.579.08 23.282-1.05.853-2 5.383-1.04 7.049-.15 3.634-.64 10.891-.64 10.891-14.74 72.135-93.75 257.098-166.6 347.284zm38.37 163.986-16.26-19.951s-12.51-10.084-1.27-21.48c32.49-32.944 32.71-74.82 1.3-112.478-2.11-4.782 9.76-28.939 9.76-28.939l24.72.408c38.57 46.923 49.09 129.825-18.25 182.44zm22.72-186.21c.77-3.21-36.64-1.971-36.64-1.971 23.24-34.637 43-70.266 62.42-105.994 30.13-54.074 71.91-148.809 85-217.475 9.75 80.315 23.93 199.519 92.66 204.221 22.54 1.542 48.63-13.899 52.89-11.346l142.78-1.131c29.28 59.37 60.74 97.619 97.99 138.227 26.77 15.264 59.41 27.347 90.97 35.187 17.92 4.454 19.64 1.489 55 6.532 9.33 1.33 23.54-2.612 23.4-2.612-28.24 22.282-60.83 15.968-96.72 6.428-2.01-.534-4.12-1.155-6.22-1.897l-27.09 40.768c-60.32-14.295-253.97-4.175-305.02 206.37 0 0 5.24 2.677 4.02 1.225 40.55-182.746 211.81-219.178 293.46-200.977l-7.02 10.717c-135.48-16.57-245.79 68.164-272.06 188.324l2.62 2.373c50.83-181.667 264.54-248.887 397.04-122.965l24.3-17.207-.78 23.292-325.75 272.922-13.03-13.47s-2.29 1.74-4.89 3.9c-8.41 6.99-11.72 8.7-9.37 12.61 2.36 3.9 11.5 12.7 11.9 13.69-54.04 44.02-71.18 128.93-19.84 188.39 5.73 6.3 4.69 7.99 3.64.9-46.05-50.12-40.22-138.76 17.2-180.76l11.57 15.16c-25.28 55.51-38.76 142.09 27.72 149.58 23.81 63.82-3.59 139.45-34.17 190.14-32.42 58.4-71.7 106.93-96.22 170.54-11.92 26.54-30.88 105.26-29.88 165.42l-7.15-.07c-.01-24.55 1.63-53.66 1.84-72.27 1-90.72.86-85.34 2.91-87.64.67-.76 2.57-1.57 2.75-2.21.27-.95-1.48-2.83-2.17-5.05-.71-2.27-1.91-6.26-1.79-9.62s3.27-8.27 2.67-9.36c-14.3-50.06-15.47-140.04-61.63-181.37-22.64-19.44-52.7-20.22-91.64-4.27-85.92.15-73.18 4.57-142.57.61-28.7-52.56-63.52-103.75-101.18-141.7-17.61-19.63-42.09-30.39-65.1-44.62 9.23-17.51 19.7-30.31 31.14-38.62 2.38-3.39 4-7.04 7.07-9.91 233.97 22.48 284.71-204.115 274.03-198.352l-2.07 1.795c-63.97 233.467-291.61 224.957-406.04 124.027 0 0-16.17 14.04-16.22-1.37-.05-14.01 5.06-18.06 5.06-18.06l321.18-261.902c5.87 3.738 12.19 16.184 14.83 14.789 5.91-3.144 14.63-9.458 14.36-13.222-.21-2.892-11.74-21.068-11.74-21.068 85.92-88.955 47.16-128.694 19.58-189.648zm121.75-499.938c1.55-.011 3.01.722 4.1 2.438 1.96 3.091-5.84 21.133-10.66 24.312-4.56 3.009-4.89-.488-1.59-17.937.97-5.117 4.75-8.788 8.15-8.813zm471.26.313h74.4l.55 285.706c-55.6-78.139-83.75-168.125-74.95-285.706zm-451.29.687c1.86-.083 3.5.433 4.03 1.782 1.91 4.811-9 25.622-22.5 42.875-7 8.948-10.53 11.542-12.72 9.406-1.84-4.073-1.78-8.809 4.66-16.25 5.32-6.134 14.37-20.477 18.1-28.509 1.61-4.708 3.21-8.967 8.43-9.304zm76.39 1.021c2.17.019 4.39-.016 5.02 1.011 12.98 26.485 37.44 50.385 62.47 63.156 3.65 2.071 1.93 7.268 3.15 10.916-28.11-4.177-65-44.003-74.87-73.072-.05-2.107 2.06-2.03 4.23-2.011zm43.96-.021c5.59 5.68 14.39 12.546 16.37 19.032 1.22 3.976 2.11 8.541 1.25 10.687-4.88 3.053-29.16-25.104-28.22-28.396 3.09-2.028 6.96-2.458 10.6-1.323zm-105.25-.406c2.38.092 6.03-.043 6.56 1.75 3.03 12.282-25.01 60.13-45.47 73.688-7.27 4.817-7.74 3.552-7.16-4.532.39-5.432.92-5 8.38-12.125 10.65-10.174 22.29-25.868 28.69-39.781 8.2-17.839 6.2-18.959 9-19zm19.03.188c2.67.004 5.15.907 5.84 2.093.93 1.606-.32 4.215-1.19 7.438-9.23 26.151-32.21 63.781-59.18 85.156-10.49 8.089-12.27 8.04-13.03-.312-.45-4.855 1.78-6.27 6.71-9.688 22.89-15.868 43.46-43.406 52.16-71.531 1.7-5.478 1.05-10.397 4.03-12.063 1.38-.771 3.06-1.096 4.66-1.093zm142.03 45.312c1.09 1.878 8.95 14.155 2.53 9.531-2.63-2.16-7.41-7.601-15.03-16.25-18.01-20.451-18.56-19.183-18.2-24.27.18-6.628-4.56-17.506 5.68-14.685 10.07 11.832 16.4 30.912 25.02 45.674zm-82-44.906c2.04-.036 4.46.344 6.47.75 11.86 22.296 40.81 41.871 40.7 41.771 0 0 .73 9.701-.33 11.416-.6 2.99-45.98-31.489-51.03-52.125.48-1.33 2.15-1.776 4.19-1.812zm-32.3.406c10.66 19.573 32.64 63.993 84.3 81.937 3.71.81 7.67 11.38 4.83 14.29-28.33-8.212-79.7-35.943-97.15-95.956 1.7-1.596 6.21-1.35 8.02-.271zm-13.87 3.802c-1.77.03 24.39 75.529 98.92 98.042 6.44 2.021 10.22 4.81 9.81 8.625-.51 4.807-.36 5.406-7.53 1.812-20.33-10.619-49.31-15.592-73.51-3.293-3.78 1.919-7.61 7.153-4.57 10.452 1.74 1.676 6.01.429 11.46-1.69 28.17-10.963 71.29-4.515 78.9 12.719 5.41 12.233 6.33 21.249 3.38 22.75-2.26 1.146-6.08-2.966-12.82-8.875-21.43-18.805-47.06-24.036-67.43-5.969-4.41 3.91-8.78 3.234-10.32 4.844-1.49 1.561.28 5.073 1.53 8.5 1.31 3.586 1.37 4.565.07 7.593-1.79 4.147-1.85 9.456-1.66 13.407.48 9.63 6.85 17.924 25.19 30.625 14.28 9.894 25.44 15.454 8.06 1.375-30-24.303-35.45-34.202-16-25.782 19.42 7.804 46.34-.018 65.41-14.562 6.49-.109 10.35-1.242 13.77 1.25 14.22 33.383 25.85 77.806 44.75 120.871-22.57 25.507-101.18 87.97-157.22 85.742-48.39-1.923-65.48-81.123-76.18-124.894-3.6-18.522-7.71-37.371-7.22-63.532 0 0 .88-.704 2.13-.468 8.11 1.532 22.07 2.594 29.16.937 12.87-3.009 15.46-5.303 16.21-3.406.89 2.238-4.47 7.273-13.84 13.687-4.08 2.791-15.94 8.507-14.69 9.344 2.84 1.897 17.19-5.741 19.6-7.781 3.75-3.181 6.33-3.381 8.12-1.625 2.11 2.056 2.54-.134-4.4 17.094-7.66 18.986-6.92 20.708 8 32.406 5.18 4.068 9.92 8.131 11.06 9.906 1.43 2.333 2.4 5.084 3.06 5.969 2.52 3.372.97-2.058-.53-10.688-1.74-6.385-8-12.728-12.44-15.812-8.14-5.662-6.88-11.216-.14-30.5 19.89-56.872 14.82-82.238-7.08-94.594-9.87-5.571-37.51-4.084-46.23 3.198-4.29 3.587-3.7-3.456-3.02-3.927 52.53-36.101 64.84-70.537 78.24-103.75zm101.38 27.866c14.91 14.795 33.46 34.888 44.63 49.176 6.14 7.618 9.37 15.434 14.25 23.437.93 1.45 1.85 3.107 1.19 3.781-.25.288-2.38-.953-3.56-1.843-10.93-8.235-56.03-59.597-56.03-59.597-2.09-8.433-3.53-11.307-.48-14.954zm8.91 34.863s39.09 42.67 61.47 63.656c4.41 9.247 12.84 22.567 12.63 24.813-.1.991-4.78-2.625-4.78-2.625-24.74-22.792-47.6-48.409-71.35-72.688.23.129-1.88-10.048-1.9-14.156.54-2.011 2.91.208 3.93 1zm84.79 109.375c5.25 8.557 9.09 16.22 11.62 21.25 4.18 7.967 2.78 8.193-.91 5.25-27.96-22.886-51.38-50.748-77.71-76.281-3.43-3.521-10.26-11.344-10.26-11.344.25.284-8.58-18.4-3.04-18.025 4.34 1.687 7.18 6.395 9.98 9.39 13.81 14.791 40.13 40.212 70.32 69.76zm-243.94-60.989c11.53-.347 22.89 2.635 28.62 9.708 5.22 6.435 7.32 16.616 4.43 19.574-1.8 1.846-8.21-3.355-8.21-3.355-27.16-15.238-36.51-7.899-51.25-3.427-2.1.638-4.33-5.029-1.64-10.633 5.4-9.316 19.11-11.599 28.05-11.867zm170.9 14.427c29.05 29.125 58.57 61.482 90 86.531 4.41 3.755 7.43 6.166 9.44 8.188 4.15 8.226 13.7 27.807 13.7 27.807-33.69-23.553-109.58-104.758-108.74-104.216.76.38-6.36-14.858-4.4-18.31zm-56.86 4.822c5.3-.05 11.12 1.616 15.71 3.435 14.63 5.807 23.85 11.993 8.69 9.93-21.1-2.87-28.31-3.022-36.04-1.781-14.34 2.305-15.46 3.903-16.72 1.625-3.29-5.982 12.44-13.057 28.36-13.209zm-119.76 1.709c5.29-.033 11.03 1.135 16.66 3.594 17.89 7.824 21.04 12.919 5.81 10.469-7.91-1.272-22.41-1.142-32.78 1.531-3.29.848-6.93 2.759-7.79 3.031-3.68 1.176-4.69-1.573-3.12-6.187 2.72-7.972 11.12-12.375 21.22-12.438zm129.55 22.831 3.69.27c-4.61 26.136-30.71 23.586-37.74 1.139l3.69-.082c13.75 21.466 24.03 8.841 30.36-1.327zm14.54 1.357c12.06-.135 11.29 7.108-1.28 11.968-9.63 3.726-10.71 3.053-7.19-4.156 3.39-6.931 3.05-7.752 8.47-7.812zm-124.28.94c1.18 23.548-31.63 27.864-33.65 2.184l3.12-.152c10.76 20.193 23.17 8.002 27.05-2.03zm14.59 3.216c3.72 2.536 1.41 6.019-6.65 10.937-7.28 4.527-9.15-.946-3.15-8.535 2.52-2.448 6.65-4.471 9.8-2.402zm56.91-.031c1.44-.453 4.84 5.914 1.94 7.437-1.73.905-4.28-1.7-4.56-3.625-.23-1.523.73-3.216 2.62-3.812zm98.25 1.468c21.9 24.122 43.94 48.342 108.41 100.844 0 0 9.11 16.199 11.09 22.531-1.56 1.931-2.39 1.71-6.9-.531-42.05-32.458-81.14-71.934-111.76-108.625-1.45-5.18-4.69-10.176-.84-14.219zm-208.75 2.407c2.49-.084 6 5.472 4.06 8.812-1.6 1.255-4.08-.692-5.15-2.219-1.07-1.516-1.04-4.3-.38-5.531.39-.72.9-1.043 1.47-1.062zm217.91 33.406c-.17-.841 101.82 102.538 114.9 100.562 6.1 3.585 21.25 32.969 21.25 32.969.44.931.37 2.655-2.09 1.438-17.24-8.531-89.33-68.346-126.19-112.875-2.69-6.485-5.96-14.726-7.87-22.094zm-121.24 15.181c17.78 8.593 10.13 26.214-8.64 15.006-14.79-8.99-26.52-9.806-26.44-2.031.04 3.288 4.07 7.512 7.97 7.469 7.32.47 13.94 3.147 21.13 4.719 11.21 2.405 19.59-.57 22.4-7.373 4.76-11.547-6.56-24.148-14.02-23.478-7.47.67-5.59 4.245-2.4 5.688zm140.83 28.256c-1.25-1.09 50.72 55.845 121.56 102.875 2.75 3.174 9.6 19.598 10.69 21.813-.28 1.547-1.84.031-1.84.031-35.78-20.684-83.01-61.701-127.75-108.25 0 0-4.31-10.319-5.63-17.031.97-.448 2.03.138 2.97.562zm-118.03 20.5c-1.62.223-3.77 2.657-6.44 4.125-5.45 3-7.17 3.799-20.56-.218-7.26-2.18-8.44-2.027-12.78 1.187-3.79 2.807-5.9 3.271-10.13 1.375-7.61-3.412-11.14-.931-18.18 1.531-6.72 2.428-9.02-.53-15.07-1.906-.79.009-1.14 24.377-.34 25.156.28.271 6.28-3.674 9.69-5.406 5.85-2.98 5.01-2.507 13.56-2.156 12.62 2.177 25.11 1.443 33.56-1.875 10.52-2.974 18.74-2.421 26 3.531 4.41 3.614 10.27 3.023 6.85-3.625-1.18-2.297-3.86-10.759-3.54-13.906.49-4.706-.56-7.718-2.31-7.813-.1-.006-.2-.015-.31 0zm134.75 19c23.92 22.935 53.41 57.939 122.78 98.5 3.62 6.333 8.5 14.747 11.59 21.313.29 1.819-.16 3.439-1.93 2.811-42.87-27.173-66.7-40.373-126.13-98.936-3.69-5.938-7.63-16.044-10.68-24.281.64-2.325 3.39.003 4.37.593zm-10.09 8.75 26.53 49.813-89.35-.188c22.71-13.531 44.38-31.568 62.82-49.625zm-148.1 1.125c-14.67 5.831-16.88 7.045-31.44 3.5-8.47-2.065-6.15 2.849-1.81 4.882 10.98 5.142 26.88 1.512 32.78-2.553 3.89-2.506 6.55-8.243.47-5.829zm-15.06 15.375c-15.36.216-29.86 5.571-30.94 11.813-.21 1.206 1.05 2.563 3.44 1.125 10.41-6.268 36.26-8.312 55.81-1.25 3.17 1.143 3.72-.825.44-3.531-7.32-6.041-18.24-8.304-28.75-8.157zm195 21.282c28.92 26.689 56.83 51.243 119.07 86.972 4.48 9.775 10.96 21.471 12.11 22.487-58.34-28.312-121.91-84.187-121.91-84.187s-10.01-17.823-12.3-25.46c-.21-2.576 2.21-.456 3.03.188zm19.92 41.58s53.25 45.037 113.96 75.607c2.46 2.362 8.57 16.852 10.56 18.406 2.01 1.569-2.41 1.564-6.78-.687-31.77-14.634-99.91-61.469-99.91-61.469-6.54-10.71-15.89-21.854-17.83-31.857zm-637.28 188.194c4.87-10.415 9.84-22.003 13.06-31.457 14.5.151 21.62-5.283 26.77-11.826 7.34-.201 12.96-.172 22.97-.46-.33-9.893.12-23.894.12-23.894 10.15-10.442 17.02-22.502 1.3-40.958 0 0-.63-8.602-.86-23.273-7.25-1.155-23.49-.407-23.49-.407-13.14-18.485-36.44-13.826-43.5-.008 0 0-10.47.575-17.65.602-.15 3.91-1.39 21.237-1.39 21.237s-30.62 20.883 1.15 45.493l-.43 20.677c5.94.478 10.2.077 17.96 1.566 0 0-12.15 28.218-20.14 41.61-2.74.718-2.08-.852-5.39-10.209-3.97-11.032-12.96-23.094-20.59-29.03-10.34-7.974-24.48-10.449-34.34-17.375-9.51-6.677-16.23-15.291-19.25-13.687-.99 3.353-2.08 22.618 1.5 35 5.04 20.365 34.34 33.348 58.81 43.093 1.88 1.216 3.55 3.056 3.56 3.719.04 3.37-3.22 2.332-11.25 1.531-12.13-1.209-17.15 2.108-21.4 12.469-1.28 2.555-4.3 6.958-6.75 9.875-2.46 2.918-5.02 5.761-5.38 7-.35 1.239-2.88 7.528-5.37 12.781-1.54 3.235-4.1 6.625-4.28 11.407-.58 14.595-.79 34.204 1.4 46.562 1.61 9.079 13.08 14.294 17.03 15.031 6.07 1.132 7.17 7.28 6.22 12.313-4.67 24.81-18.96 39.995-23.53 31.844-1.2-2.144-2.48-12.283-2.81-12.157-.22.083-2.4 8.622-1.57 12.094.9 3.737 5.67 6.487 10.38 4.781 6.98-2.53 12.48-9.448 16.81-25.187 1.78-6.439 3.46-10.034 6.47-10.5 5.52.38 14.13 11.75 14.13 11.75-28.66 23.878-83.82 67.23-83.82 67.23l-2.06-782.23 454.05.882c2.53 62.01-5 114.183-27.27 169.43-26.39 59.509-67.34 103.737-98.68 158.507-37.83 66.129-49.95 134.721-37.06 203.715-38.66 50.601-71.22 74.889-102.14 98.398 0 0-23.18-24.368-36.06-38.006 0 0 5.43-.45 11.79-.707 29.37-3.294 61.16-7.457 73.43-38.032 1.75-3.398 1.02-4.905-1.06-5.375-23 3.189-42.98-.047-56.02.875-31.89 2.254-45.37 13.306-45.37 13.306zm3.5 22.51s-36.9-17.538-39.64-18.035c-16.09-2.916-54.88-23.132-61.44-36.875-.85-1.792-3-26.865-3.68-32 .23-1.635.89-1.579 2.5-.406 4.14 2.857 20.22 13.335 26.15 16.219 24.51 11.909 34 20.391 40 38.312 1.51 4.49 3.08 9.163 3.97 10.125 1.96 2.121 2.79 1.943 5.25.063 10.5-13.591 15.42-24.911 20.28-39.5.63-1.626 2-3.289 1.19-5.643-1.92-6.441-6.62-14.783-1.81-21.087-15.36.703-30.05-10.519-28.18-21.761 4.09-20.83 12.93-17.075 29.49-20.11-1.91-48.172 43.18-36.473 43.06-2.92 49.54 4.17 26.13 49.976-2.64 42.97 11.41 26.028-22.88 35.791-27.69 31.364-1.94 8.41-14.99 35.494-17.77 43.546 36.7-26.014 95.76-14.466 104.31-16.136-21.32 44.595-91.04 33.74-93.35 31.874zm660.89-164.191c9.32 7.176 88.35 56.602 102.94 57.719 0 0 6.98 7.839 12.75 14.969 5.37 6.644 7.35 7.689 7.97 9.031.61 1.334-2.03 1.268-2.47 1.219-35.56-15.455-71.73-31.717-102.47-57.406-4.15-3.522-5.08-5.127-7.13-7.813-2.7-3.586-10.74-16.383-11.59-17.719zm26.19 39.87c36.15 20.313 66.87 40.007 99.81 50.599 4.7 1.761 7.1 1.88 9.44 3.531 2.34 1.652 12.38 7.86 14.75 9.25 15.03 8.814 16.57 8.398 12.84 9.875-4.13 1.637-30.51-6.07-52.81-14.312-39.55-14.622-53.54-22.916-67.84-35.813-3.23-3.336-18.25-21.305-16.19-23.13zm-720.63 113.287c3.05-.069 7.92 1.826 13 5.718 5.44 4.165 18.78 12.887 24.29 15.25 2.81 1.209 3.69 1.519 3.69 1.519l35.55 40.351-91.52 74.398s-7.43-7.601-9.8-10.143c-2.23-2.401-1.59-4.402 1.2-7.125 2.24-2.184 2.41-6.925 2.03-9.25-.56-3.449-.47-7.341 3.91-10.562 3.52-2.597 4.07-7.147 3.9-8.406-.13-1.008 1.91-4.333 4.97-6.563 6.43-4.684 8.36-10.382 6.19-17.094-.91-2.81-1.4-3.545 2.28-6 6.54-4.358 8.16-8.476 8.66-14.843.08-1.01-.2-2.078-.35-2.875-1.29-6.77 4.69-5.057 9.6 3.437 2.67 4.631 3.44 12.23 4.78 20.875 1.58 10.193 2.66 12.971 3.22 11.531 3.17-8.226-.57-39.12-9.97-43.312-13.74-6.129-25.22-18.626-21.78-23.531 1.19-1.701 1.4-1.118 9.78 2.75 4.9 2.264 9.44 4.103 10.12 4.125 9.7.307 3.82-3.844.66-4.282-3.79-.525-15.14-7.424-16.47-9.843-2.21-4.025-.99-6.057 2.06-6.125zm-23.4 5.312c8.94-.1 10.66 2.298 10.75 10 .05 4.544 1.75 8.042 8.87 17.094 2.91 3.69 4.85 6.521 4.66 7.969-.31 2.388-1.18-.088-11.03-1.25-3.5-.413-5.28-.472-6.5 1.343-3.4 5.033-10.58-.209-15-7.625-10.54-17.679-6.83-27.363 8.25-27.531zm170.39 10.657 97.3 119.079-10.98 8.521-97.66-117.461zm-16.27 7.312 10.42 17.596s-30.14 25.759-38.07 33.029c-64.06 51.87-208.65 169.618-208.65 169.618l-1.95-23.681zm-175.62 3.187c1.9.048 4.07 2.453 7.15 7.157 2.67 4.076 8.4 12.252 14.5 17.875 11.86 10.922 13.01 9.931 3.38 10.968-3.83.412-5.07-.044-7.41 5.782-7.06 8.807-27.92-22.742-23.03-34.813 1.91-4.713 3.51-7.016 5.41-6.969zm33.93 17.032c1.76-.085 4.08.577 6.79 2.218 5.16 2.118 5.5 3.352 4.65 8.282-.81 4.717-4.4 5.938-11.47-.282-5.36-5.054-4.46-10.002.03-10.218zm155.3 2.915 11.44 14.758-259.49 209.837.06-24.151c6.32.816 172.72-143.771 247.99-200.444zm-201.23 2.397c.69-.145 1.77 2.233 4.65 6.563 5.86 8.815 11.24 14.625 17.38 19.25 5.8 4.372 6.45 6.814 2.47 6.843-1.7.013-4.03 1.804-5.25 3.907-2.46 4.223-2.67 3.222-6.47 1-5.43-3.175-10.86-7.967-13.03-14.25-2.05-5.921-2.27-14.93-.6-21.5.3-1.148.53-1.747.85-1.813zm40.97 16.75c6.61-.229 11.37 7.464 7 13.688-2.44 2.37-4.63 3.509-9.47.656-6.39-3.766-7.55-9.564-2.31-12.813 1.63-1.013 3.25-1.478 4.78-1.531zm-42.57 16.656c1.4-.063 3.9 1.941 8.1 6.25 3.22 3.307 8.82 6.125 11.06 7.375 5.03 2.804 5.26 3.779 2.53 6.032-1.16.96-4.99 1.022-6.03 4.062-2.97 8.698-15.58-1.408-16.78-13.844-.61-6.313-.67-9.793 1.12-9.875zm31.69 1.032c8.28.345 12.19 10.002 5.6 14.75-3.6 2.587-12.66-1.981-13.57-6.719-.58-3.051 4.83-8.163 7.97-8.031zm193.5 7.177c4.8 0 8.68 3.887 8.68 8.687 0 4.801-3.88 8.688-8.68 8.688-4.81 0-8.69-3.887-8.69-8.688 0-4.8 3.88-8.687 8.69-8.687zm-25.97 3.594c4.8 0 8.68 3.887 8.68 8.687s-3.88 8.688-8.68 8.688-8.69-3.888-8.69-8.688 3.89-8.687 8.69-8.687zm-174.03 11.604c.53-.03 1.09-.028 1.66 0 7.97.388 8.39 7.977 3.65 12.062-2.83 2.44-5.39 3.212-9.06.281-6.55-5.237-4.12-11.899 3.75-12.343zm193.37 12.708c4.8 0 8.69 3.888 8.69 8.688s-3.89 8.687-8.69 8.687-8.72-3.887-8.72-8.687 3.92-8.688 8.72-8.688zm762.73.51.4 21.97-306.81 255.214-10.38-13.55zm-780.36 1.874-22.68 50.938-6.82-13.13-16.96-.009 5.2-15.193-9.98-12.152zm482.82 211.86 40.38-32.372c-17.38-87.689 51.99-122.58 117.88-97.107l40.99-34.939c-76.07-64.046-254.93-20.602-199.25 164.418zm-546.19-171.395c4.8 0 8.69 3.887 8.69 8.687 0 4.801-3.89 8.688-8.69 8.688s-8.69-3.887-8.69-8.688c0-4.8 3.89-8.687 8.69-8.687zm-26.37 2.125c4.8 0 8.41 3.611 8.41 8.411s-3.61 8.995-8.41 8.995-8.69-3.918-8.69-8.719c0-4.8 3.89-8.687 8.69-8.687zm140.37 17.639-40.03 32.045c10.35 83.962-30.5 126.716-118.3 97.936l-42.47 33.68c114.73 78.92 264.87-22.8 200.8-163.661zm-123.19 7.58c4.8 0 8.69 3.887 8.69 8.687s-3.89 8.688-8.69 8.688-8.68-3.888-8.68-8.688 3.88-8.687 8.68-8.687zm842.01 2.202c4.8 0 8.72 3.887 8.72 8.687s-3.92 8.688-8.72 8.688-8.69-3.888-8.69-8.688 3.89-8.687 8.69-8.687zm-859.98 2.076-25.59 50.623-6.38-15.244-17.18.237 5.55-17.67-10.74-9.079zm825.61 5.33 7.95 13.392 16.8.409-6.32 12.746 12.14 12.504-54.74 13.448zm-886.67 36.762c4.8 0 8.71 3.887 8.72 8.687 0 4.8-3.92 8.688-8.72 8.688s-8.69-3.888-8.69-8.688 3.89-8.687 8.69-8.687zm-25 .968c4.8 0 8.71 3.888 8.72 8.688 0 4.8-3.92 8.687-8.72 8.687s-8.69-3.887-8.69-8.687 3.89-8.688 8.69-8.688zm869.35 5.165c4.8 0 8.68 3.887 8.68 8.688 0 4.8-3.88 8.687-8.68 8.687-4.81 0-8.69-3.887-8.69-8.687 0-4.801 3.88-8.688 8.69-8.688zm87.88 1.346.38 19.291c-80.05 70.661-248.4 207.031-248.4 207.031l-10.47-13.46s171.26-139.95 258.49-212.862zm-939.83 18.817c4.8 0 8.69 3.887 8.69 8.688 0 4.8-3.89 8.718-8.69 8.718s-8.68-3.918-8.68-8.718c-.01-4.801 3.88-8.688 8.68-8.688zm869.73 2.087c4.8 0 8.68 3.887 8.68 8.688 0 4.8-3.88 8.718-8.68 8.718s-8.69-3.918-8.69-8.718c0-4.801 3.89-8.688 8.69-8.688zm-24.6 1.563c4.8 0 8.69 3.887 8.69 8.687s-3.89 8.719-8.69 8.719-8.72-3.919-8.72-8.719 3.92-8.687 8.72-8.687zm97.12 3.077-.73 24.558c-77.58 66.13-236.25 197.5-235.7 197.57l-11.98-16.54s173.93-149.83 248.41-205.588zm-958.19-3.609-23.93 53.987-10.33-14.534-15.11-1.027 3.6-14.605-13.87-9.432zm829.84 21.327 15.28-2.903-2.66 15.638 10.74 11.275-56.29 12.37 27.21-50.462zm84.1 263.03c11.41 17.07 10.69 35.72 5.91 38.58-5.03-2.84-9.41-7.76-14.62-10.01-26.22-11.31-47.16-20.6-50.91-37.23-14.28-37.64 50.11-5.54 59.62 8.66zm-137.82-99.97 88.22-71.83s13.53 6.97 16.09 10.14c.91 3.48-1.53 4.55-5.13 7.8-1.65 2.11-2.68 4.15-2.78 8.73-.1 4.93 1.53 7.14-.46 9.31-3.33-.17-5.98 4.17-5.84 7.68.11 2.69-3.4 5.66-5.46 7.68-3.65 3.59-4.72 4.34-7.06 16.49-.24 1.22-.16 4.38-1.87 6.02-5.1.46-8.8 12.95-11.13 13.74-3.72-.24-9.64-4.79-11.08-11.51-.94-4.37-.68-12.86.35-18.33 1.23-6.5 1.78-12.4 1.37-13.97-.95-3.62-3.34-1.39-3.31 3.69.01 2.07-.78 8.26-2.09 14.1-1.32 5.85-4.88 13.62-3.28 18.23 2.39 6.87 11.2 9.78 15.17 13.42 10.45 9.58 12.72 14.25 13.91 16.38 8.35 15.27 8.38 17.87 6.28 29.36-1.2 6.61-7.65 5.48-11.52 2.8 0 0-24.81-18.06-35.61-27.02-16.35-13.59-27.84-27.47-34.77-42.91zm33.47 49.37c9.47 3.83 34.1 21.7 34.1 21.7l-22.44 46.69c4.09 7.31 5.73 25.46 5.73 25.46 28.39-2.17 43.76 45.67-.44 41.25 5.04 29.57-42.59 52.75-41.29-.25-49.62 3.86-32.96-52.35-2.38-41.81-.92-23.81 14.96-26.9 26.16-32.75 9.19-10.39 14.82-33.9 14.82-33.9l-2.24-7.18c-9.41 16.44-49.47 21.16-93.5 12.44 11.92-28.24 48.08-27.44 81.48-31.65zm-87.55 35.53c-1.49 5.63-1.53 5.56 5.25 4.88 3.44-.35 17.24-.32 26.87.06 17.71 1.38 45.6 1.5 59.58-9.15 2.71-2.58 4.2-2.41 4.7-1 1.2 6.89-12.38 29.52-12.38 29.52l-22.42 12.4s-9.18.43-20.55.15l-.2 20.17c-8.9 5.26-24.19 27.83.38 45.14l-.81 21.96 21.65.39c14.37 13.76 26.07 13.7 39.27.74l24.96.02-.09-23.72c12.3-9.89 14.05-26.68 1.47-40.09l-.31-24.08-19.21.12s-3.97-3.07-4.08-5.52c-.02-1.58 14.02-28.63 16.71-32.49 3.49-5.03 2.54-2.15 8.13 9.44 8 16.59 15.9 23.35 36.17 33.15 18.08 8.74 24.54 12.82 29.78 17.83 4.17 3.98 6.64 2.73 8.25-3.22 3.49-13.23 2.41-26.47-4.87-38.58-15.38-25.56-42.17-26.74-46.43-32.66-.55-1.41 4.9-3.03 10.76-5.66 10.14-6.16 24.98-24.79 26.89-32.27-.35-3.6 2.03-14.96 3.79-17.47 2.02-4.46 2.24-6.55 2.15-18.53-1.81-6.84-.16-15.75.69-18.81.92-6.22-2.38-13.55-7.08-22.55-1.76-8.35-1.35-6.18 4.06-24.99.88-3.05 6.95-29.26-.82-31.06.09.23.81 1.04 1.03 1.47 1.31 2.63 2.03 13.95.84 17.16-.46 1.27-1.35 4.55-1.97 7.31-4.71 21.06-7.49 26.35-11.75 21.74-1.02-1.1-4.91-2.66-7.9-4.65-5.66-3.75-5.17-5.59-3.78-12.62.34-1.07 2.58-10.73 2.34-10.44-1.22 3.32-2.04 11.89-5.91 13.91-2.07.48-4.92-1.36-10.31-6-2.06-1.78-6.46-4.87-6.46-4.87s63.76-53.66 87.47-71.457l-.21 794.847-450.7.2c-5.64-49.24 9.17-114.38 33.68-179.62 15.16-40.32 36.92-70.23 61.46-106.33 47.06-68.83 82.65-138.71 68.93-227.31-1.8-13.14-3.6-19.44-2.99-22.98 5.72-10.73 28.41-43.26 44.99-56.81 24.33-19.88 58.19-49.57 60.91-47.81 8.08 15.59 17.65 28.21 30.32 37.73 2.23 2.41 2.28 4.54-2.86 5.62-33.59-.3-68.17 7.08-79.39 36.79zm-782.63-225.816c4.8 0 8.69 3.886 8.69 8.686s-3.89 8.69-8.69 8.69-8.68-3.89-8.68-8.69 3.88-8.686 8.68-8.686zm842.56 1.966c4.8 0 8.69 3.89 8.69 8.69s-3.89 8.69-8.69 8.69-8.69-3.89-8.69-8.69 3.89-8.69 8.69-8.69zm18.93 23.83c4.8 0 8.68 3.89 8.68 8.69s-3.88 8.69-8.68 8.69-8.69-3.89-8.69-8.69 3.89-8.69 8.69-8.69zm-28.12 3.7c4.8 0 8.69 3.89 8.69 8.69s-3.89 8.69-8.69 8.69-8.69-3.89-8.69-8.69 3.89-8.69 8.69-8.69zm-31.04 19.8 15.71-.77c-1.97 5.64-3.03 11.47-4.15 17.31l12.8 9.4-55.36 9.42 23.86-49.05zm-37.77 143.05-93.21-120.36 11.24-9.1 93.97 119.06zm-11.38-116.94c4.8 0 8.69 3.89 8.69 8.69s-3.89 8.68-8.69 8.68-8.69-3.88-8.69-8.68 3.89-8.69 8.69-8.69zm195.79 13.48c7.56 5.88 0 14.12-7.22 10.87-6.27-2.65-5.8-9-.86-11.55 3.08-1.46 5.43-1.1 8.08.68zm10.06 5.61c7.75.12 16.31 18.5 14.74 23.9-2.31 6.28-4.43 6.5-15.37-2.75-10.81-9.14-10.96-9.52-6.59-14.47 2.42-2.81 3.59-6.51 7.22-6.68zm-184.38 3.35c4.8 0 8.68 3.89 8.68 8.69 0 4.79-3.88 8.71-8.68 8.71s-8.69-3.92-8.69-8.71c0-4.8 3.89-8.69 8.69-8.69zm-26.94 3.34c4.8 0 8.69 3.89 8.69 8.69s-3.89 8.69-8.69 8.69-8.69-3.89-8.69-8.69 3.89-8.69 8.69-8.69zm190.82 6.2c8.58 1.27 10.82 7.74 6.88 12.56-5.36 6.52-17.38.6-14.53-7.16 1.29-3.52 4.42-5.34 7.65-5.4zm15.39 9.78c3.35-.29 8.41 4.35 13.94 12.05 6.22 8.65 6.73 11.44 4.96 16.72-2.56 7.69-4.17 9.1-9.75 1.6-2.11-2.82-7-9.45-10.49-13.1-7.44-7.8-8.6-5.82-4.16-11.77 2.06-2.76 3.48-5.33 5.5-5.5zm-20.16 9.09c7.7 3.98 8.44 9.15 3.89 12.82-5.36 2.93-14.81-.55-16.64-5.85-2.68-7.75 5.54-11.69 12.75-6.97zm13.05 11.45c4.36-.27 7.95 4.23 13.27 12.83 9.08 14.65 9.57 19.58 1.84 29.24-5.57 6.95-6.13 7.32-11.58-3.75-4.45-9.05-12.91-19.65-20.75-26-3.27-2.66-4.42-6.38-2.06-6.63.69-.07 3.59-.21 6.44-.31 4.19-.15 5.7-.72 8-2.97 1.52-1.49 3.14-2.3 4.84-2.41zm-31.27 11.44c4.05-.2 9.29 2 13.18 6.53 4.42 4.64 3.9 8.89-4.78 9.75-3.9 1.53-14.54-5.45-14.59-10.13-.04-3.93 2.61-5.98 6.19-6.15zm20.44 16.98c.22-.01.42-.01.63 0 3.64.18 5.52 3.69 9.62 11.91 6.28 12.62 4.47 19.48-6.4 25.06-7.37 3.79-12.99 4.93-13.94.6-.28-1.26-.28-4.9-.89-8.43-.81-4.7-1.89-9.6-6.05-15.87-6.64-10-7.82-13.56-.53-10.61 3.86 1.56 8.05 1.38 12.47-.94 1.95-1.02 3.6-1.63 5.09-1.72zm-36.84 20.29c-2.53-.05-4.15 1.5-3.47 5.62 2.29 1.13 5.92.08 8.65 1.07 3.69 1.33 5.97 7.32 9.91 6.34.42-5.05-9.53-12.91-15.09-13.03zm-752.14 87.94c-20.31-9.67-70.62-32.06-94.86-32.39-44.94-12.61-47.96-6.88-63.72-10.92 83.42-21.63 140.84 19.96 161.86 40.17 9.54 9.51 4.35 6.78-3.28 3.14zm53.12 196.65c47.73 82.8 92.22 176.2 166.86 314.49l-7.17 2.24-284.64.51c14.1-152.78-68.46-298.34-74.05-292.64 64.48 1.19 118-11.25 129.3-35l-9.19-2.64c-37.52 32.39-91.88 33.87-129.39 23.86.86-79.6-3.62-163.68-1.15-243.26 44.34-3.3 79 12.96 103.57 45.35 41.31 54.46 69.32 123.7 105.86 187.09zm-130.54-220.57c11.42-.87 73.72 24.76 101.59 43.91 7.74 8 19.05 21.92 19.06 23.28.05 3.7-5.45-.87-32.37-16.22-20.37-11.46-41.51-20.6-62.09-29.39-.94-.4-2.83-1.2-2.83-1.2s-1.52-1.76-4.13-3.78c-7.33-5.67-21.57-15.73-19.23-16.6zm30.29 29.03c-.62-.12 61.79 22.49 111.45 62.03 6.6 5.26 14.71 24.88 14.71 24.88-4.44-8.34-82.87-55.27-110.41-66.02-.03-.03-15.75-20.89-15.75-20.89zm22 30.01c3.4-2.04 94.68 51.83 108.05 65.74 6.07 4.64 20.26 27.16 20.31 31.69.05 4.03-4.39.55-12.56-7-42.03-39.25-102.76-68.83-103.25-68.18zm16.94 31.3c42.86 18.14 96.69 61.74 123.86 87.69 6.8 6.73 11.65 16.47 12.56 21 .58 2.81-.84 2.62-1.4 4.13-35.21-40.42-112.6-86.55-122.87-90.16.08 2.56-8.51-15.67-12.15-22.66zm142.3 125.94c4.93 5.03 12.75 22.66 11 24.82-.86 1.05-.78.5-2.84-.94-11.27-11.21-69.15-62.56-117.44-91.37-4.54-2.27-19.74-26.25-16.52-26.71 25.24 8.24 97.45 65.88 125.8 94.2zm-104.44-57.31c.84.06 2.35 1.13 4.94 2.56 44.41 24.5 108.78 86.18 120.99 101.01 2.78 4.57 7.14 12.95 6.82 18.09-.55 4.03-2.17.6-20.12-17.07-28.86-28.25-62.05-55.59-97.22-78.56-6.76-4.65-5.47-5.24-10.38-13.78-4.92-8.57-6.87-12.38-5.03-12.25zm284.03.94c31.71.9 44.11 24.91 63.64 69.15 15.98 43.6 22.61 83.55 23.34 115.35.05 2.13-3.83.32-5.59-.16-8.49-2.28-19.06-4.41-31.31-1.31-9 2.27-17.55 2.02-8.32-4.03 2.98-1.95 11.05-9.43 15.35-12.1 8.7-5.41 3.41-5.34-5.22-1.09-6.53 3.22-10.9 7.29-13.59 7.94-1.67.4-.63-5.08.96-9 9.23-22.68 12.02-36.11-1.71-40.32-3.72-1.13-8.73-4.57-11.1-6.87-1.89-1.84-3.5-9.17-4.09-9.47-.63-.31-1.08 6.69-1.06 7.75.04 3.65 4.71 11.03 10.34 15.06 9.55 6.85 11.44 8.75 6.25 24.97-7.27 22.73-8.82 28.29-10.16 33.56-.76 3.04-2.25 8.19-3 11.54-2.88 12.88-2.53 24.13-2 34.84 3.14 23.92 28.93 35.72 63.54 22.44 3.28-1.28 4.64-.13 4.64-.13-27.57 28.04-58.52 45.96-76.55 102.61-23.19-46.74-56.04-83.35-110.65-98.03l-.81-9.76c19.05 9.13 55.98 21.55 79.42 7.59 12.55-8.57 8.74-14.1-6.5-8.19-18.13 7.04-50.89 6.22-67.25-3-3.33-1.88-6.72-.25-7.68.06-.85-5.49-8.72-26.19-7.57-33.98-.67-1.09 4.98-1.14 6.07.31 4.52 6.04 27.5 24.03 51.37 22.63 11.87-.7 21.63-4.31 31.94-15.19.86-.76 5.06-1.31 5.63-1.95.92-1.04.26-2.58.22-3.13-.26-.83-1.8-3.1-2.81-5.66-1.33-2.23-1.6-4.56-1.38-6.36.03-1.49 1.02-2.28 1.8-3.33.89-2 .64-4.54.15-5.9-2.12-1.43-1.86-4.1-.73-5.34 3.23-3.65-27.8-31.98-33.87-31.91-2.2.03-.9 4.07 3.56 7.03 15.77 10.48 27.26 24.15 24.66 25.94-2.01 1.38-9.08-1.64-16.27-3.33-14.43-3.39-31.75-5.54-50.55 8.02-7.03 5.77-25.61 6.64-25.61 6.64-.24-10.12-43.02-123.17-43.1-118.26 15.56-18.14 64.46-61.11 113.47-79.62 15.08-4.94 31.26-7.47 42.13-6.01zm-185.79 25.3 88.96 1.37c-22.37 11.26-63 51.64-63 51.64-11.63-23.39-15.18-35.06-25.96-53.01zm-76.89 11.73c6.63.04 77.23 57.57 87.28 71.16 1.21 1.63 8.36 9.18 15.9 16.74 18.26 18.31 25.79 28.89 25.88 36.44.04 3.57-3.22 1.25-8.1-4.12-36.56-40.63-60.36-62.69-105.56-93.85-5.13-2.74-21.06-23.95-15.65-26.31.07-.03.14-.06.25-.06zm241.51 10.59c-1.98-.07-1.66 1.84-.58 3.6 11.21 9.9 40.79 9.47 50.99 1.46 9.25-7.26-2.88-3.43-6.66-1.81-8.84 3.79-18.32 3.36-30.62.1-7.18-1.91-11.14-3.28-13.13-3.35zm27.28 16.13c-10.34.09-21.16 3.2-18.75 7 .88 1.39 3.71 3.98 10.47.31 9.76-4.83 29.82 1.5 30.41 1.66 2.05.53-6.67-5.74-9.6-7.03-3.22-1.43-7.82-1.99-12.53-1.94zm-249.26 10.75c37.94 23.21 84.16 69.67 111.9 102.84 4.62 5.71 7.96 12.74 8 16.88.07 5.96-1.21 2.65-26.4-22.88-19.76-20.22-49.59-47.74-69.35-62.56-11.86-8.65-13.97-9.77-19.56-20.03-5.24-9.63-7.13-14.4-4.59-14.25zm236.39 7.75c-7.13 3.39-16.6 2.66-25.81-.5-8.35-2.87-6.39-.42-3.22 8.68 1.44 4.15 2.33 10.01 2.34 10.88.03 2.02.02 2.17 5.91-1.12 5.13-2.87 6.21-3.86 17.15-1.32 11.13 2.59 11.31 1.63 16.53-1.09 4.56-2.37 5.5-3.8 8.62-2.54 6.1 2.45 13 3.5 20.82-.61 5.99-3.16 7.95-1.03 10.72.37 3.77 1.89 5.23.69 3.75-3.07-.59-1.49-1.69-7.91-1.72-9.93-.06-3.85-1-7.32-2.62-6.5-5.98 3-10.84 6.2-16.55 6.1-10.46-.19-19.63-6.48-35.92.65zm-462.39 7.91c94.57 117.82 77.86 287.67 74.71 286.29l-74.12.32zm246.07 23.81c37.77 26.49 82.73 72.66 107.65 104.59 4.24 5.51.79 7.25 2.9 13.91.78 2.46-3.4-1.18-15.4-14.07-14.95-16.06-39.54-40.2-55.72-54.21-17.73-15.36-22.85-19.22-26.63-24.41-2.98-4.34-15.12-25.2-12.8-25.81zm212.59 10.84c-.4-.01-.79.01-1.18.03-13.45.63-20.27 15.7-8.75 26.35 4.33 4 11.21 6.37 11.18 4.21-.01-.51-2.17-2.68-3.68-3.84-9.6-7.38-8.62-18.88 2.31-19 3.79-.04 4.02 1.31 12.78 7.59 10.3 7.4 22.46 7.41 22.31-.03-.1-5.46-2.14-11.05-11.34-10.15-2.42.23-5.64.49-8.47-.22-2.71-.69-5.02-2.34-6.09-2.82-3.21-1.42-6.27-2.08-9.07-2.12zm-188.04 34.69c28.9 19.4 68.62 63.27 88.92 89.15 4.65 6.06 4.96 12.77 3.08 16.38-.44.71-4-1.5-4-1.5-23.47-27.64-50.09-52.77-76.22-78.28 0 0-15.52-24.97-11.78-25.75zm280.16 41.97-6.24 3.1c-9.46-14.18-18.11-14.38-25.36 2.19l-4.65-1.17c-3.46-3.82 12.46-39.84 36.25-4.12zm-1.4-12.1c2.61.09 7.16 1.5 8.22 4.16 1.19 2.45-.14 5.22-3.72 5.09-.54-.02-3.99-4.25-5.71-6.85-1.27-1.58-.73-2.45 1.21-2.4zm-106.13 17.35-6.99.32c-13.31-17.48-23.26-5.74-29.22 1.55l-7.49-1.01c1.2-19.21 35.15-25.9 43.7-.86zm67.98-14.93c1.05.02 2.09.22 3.06.59-2.75 4.18-3.22 7.66-3.84 11.44-2.72 1.12-6.59 3.47-9.47.47-5.36-4.87 2.88-12.64 10.25-12.5zm-109.15 1.96c3.29.01 2.31-.21.87 1.64-1.44 1.86-3.42 5.19-4.48 8.15-.44 2.07-.79 2.82-2.72 2.89-3.7.11-11.18-1.2-11.13-1.15-2.84-2.69 8.92-11.24 17.46-11.53zm42.27 2.44c2.2-.26 1.68 2.89.98 4.12-1.4 1.64-1.95 2.18-2.73.13-.38-.98-.95-1.77-1.42-2.35-1.09-1.4-.97-1.47.38-1.71.6-.1 2.01-.17 2.79-.19zm114.19 13.96c8.14-.21 2.7 13.6-8.63 16.94-12.5 6.34-26.84 4.82-41.43-3.5-8.33-4.74-10.85-9.74-3.6-7.75 27.33 7.53 33.97 6.13 50.45-4.53.99-.84 2.03-1.04 3.21-1.16zm-262.92-2.99c27.21 23.05 47.69 49.16 69.44 73.21 4.34 5.36 6.37 10.53 5.53 14.03-1.04 4.36-9.97-6.03-9.97-6.03.23.1-53.1-56.82-53.1-56.82s-13.54-24.26-11.9-24.38zm81.3 7.96c1.89.07 5.64.94 11.69 2.5 26.17 7.94 34.09 7.64 49.13.74 9.58-4.4 13.54-3.77 9.44 2.85-7.55 12.18-34.21 13.52-54.23 6.72-5.3-1.79-9.96-4.95-15.06-8.78-2.74-2.84-3.4-4.11-.97-4.03zm120.68 8.07c1.57-.1 4.49 1.7 8.05 3.71 21.92 12.43 38.1 10.15 51.61 1.82 2.44-2.23 3.77-1.16 4.09 1 1.15 7.57 1.49 13.01-1.97 16.65-2.01 2.12-5.43 3.08-10.59 4.82-21.23 7.13-47.06 2.03-52-13.89-1.61-8.19-2.63-13.89.81-14.11zm-173.95 34.15c.08-.01.16-.01.25 0 1.54.23 5.08 3.33 10.66 9.66 29.18 33.09 45.32 52.11 42.37 61.69-.27 0-.45 2.06-1.68 1-16.05-13.86-29.15-29.01-38.91-44.85-10.69-17.36-15.09-27.29-12.69-27.5zm235.24 23.29c-24.63 18.82-54.5 63.64-57.17 85.71-.52 4.22-.07 7.38-1.63 8.91-1.24 1.21-4.02 1.32-7.75.59-2.28-.42-1.74-.67-2.28-3.25-2.12-10.1 7.56-35.53 27.59-65.5 10.51-15.72 34.39-36.96 41.05-37.1 4.45 1.84.13 10.84.19 10.64zm-182.33-10.23c1.74-.05 4.43.86 8.19 2.47 22.1 9.48 30.35 12.93 44.65 24.6 26.66 21.73 56.3 73.35 47.6 78.18-3.82 2.12-6.53.79-8.09-4.01-.28-.87-3.08-8.1-6.41-14.24-17.87-32.84-41.12-55.43-73.88-71.4-12.1-5.9-13.33-5.25-14.25-10.19-.69-3.71-.04-5.34 2.19-5.41zm181.97 18.97c2.21-.18 2.74 3.86 1.99 11.99-.61 6.63-1.01 6.49-8.4 14.26-11.81 9.57-25.78 32.03-32.25 54.91.01.8-.6 2.54-1.72 3.5-3.04 2.61-6.87 1.33-9.5 1.28-1.88-1-1.36-5.14-1.03-7.47 5.41-20.77 18.71-46.28 39.56-68.69 5.87-6.3 9.39-9.61 11.35-9.78zm-177.38.6c11.71-.28 53.3 30.8 70.13 58 11 17.77 13.97 25.06 11.44 27.65-1.34 1.37-7.26 1.59-10.35.38-2.81-1.11-3.89-5.39-9.15-15.28-13.75-25.82-33.54-44.53-54.97-54.41-3.99-1.84-6.13-3-7.41-4.43-1.44-2.96-3.28-11.29.31-11.91zm6.32 23.09c3.63.68 13.69 7.21 22.09 13.37 14.86 10.91 37.48 44.26 32.81 49.04-1.5 1.53-6.69 1.59-9.36.54-15.92-28.33-36.58-41.82-44.97-49.69-2.54-4.28-8.48-14.36-.57-13.26zm-33.07 5c.69-.17 3.48 2.57 8.53 7.87 14.94 15.69 24.42 33.07 22.22 41.85-1.85 7.42-4.03 3.36-21.12-29.25-7.2-13.73-10.63-20.21-9.63-20.47zm204.35.44c.34 9.02-.39 11.24-1.35 16.03-.65 3.26-2.8 4.77-4.84 7.31-5.08 6.33-10.85 17.26-13.75 26.09-2.44 7.13-1.29 8.84-10.06 7.88-4.09-.53-3.11-1.64-1.5-6.34 5.52-15.46 18.78-40.5 31.5-50.97zm-169.76 17c.18-4.63 40.07 35.52 34.59 40.04-5.19.91-8.28 1.1-10.45-.75-4.26-9.55-23.26-27.67-23.26-27.67zm167.54 12.65c.09-.02.17-.01.25 0 1.78.37.8 25.06-.69 27.1-2.84 1.43-8.22 1.56-11.09 0-1.76-.95-2.29-2.71-1.63-4.63 1.66-4.78 10.3-21.88 13.16-22.47zm-150.55 27.16c-1.26 1.96-9.02 2.31-11.95.09-.94-.71-1.85-12.95-.76-15.17 2.97-1.94 13.69 12.44 12.71 15.08z" fill="#131f67" transform="matrix(.151362 0 0 .151362 -400.344 14.365)"/><path d="m2774.31 6.906c-31.01.599-46.38 26.552-46.54 52.542l.03 68.173h-18.52v22.626h18.52s.31 10.342.26 16.534c-.25 30.631 10.57 49.207 31.69 54.344 20.27 3.688 30.83-.674 46.25-8.656 5.6 2.33 9.52 7.134 15.52 7.739 6.63.67 20.45.354 20.45.354l-.38-23.218-6.91-1.007c-13.2-.226-18.93-4.844-17.5-13.1 2.8-5.379 3.21-9.29 3.47-15.78v-115.309c-.41-28.267-23.51-44.996-46.34-45.242zm-.97 22.469c14.81-.231 27.11 17.008 26.78 34.656l.23 89.076c.49 5.605-.42 11.08-2.88 14.924-1.94-5.692-32.56-36.975-47.88-35.531 0 0-.62 1.582-1.06-37.562-.19-19.227-5.24-47.916 12.03-60.875 4.32-3.177 8.64-4.623 12.78-4.688zm802.41 77.188 5 6.562-29.22.156c4.78 4.036 113.04 221.893 251.47 473.594 22.92 44.173 66.62 60.098 117.38 62.031l-134.44-216.5c14.32-7.8 42.75-28.678 59.94-24.801 1.07 5.28 6.17 3.179 6.24-1.511l6.22.125 2.19 3.406h26.13l2.13-3.083 22.52 3.239c-60.18-74.183-91.93-188.503-81.62-300.093l-199.6.437-2.65-3.5zm-24.22 6.718c-.11-.094-.19-.141-.19 0zm-229.47 145.219c-22.69 73.28-78.8 133.571-112.12 194.281-35.72 66.242-44.12 123.889-34.06 186.938l6.53.562c76.15-103.874 135.12-227.976 168.12-350.019.72-2.658-.51-7.353.09-10.043-1.4-3.228-.17-6.716.72-7.656 1.92-2.018 1.21-9.939-.22-23.032-3.59-38.891-2.88-69.417.37-104.669 2.5-27.063 2.36-31.32 2.36-31.32l-13.04-.197c2.41 46.066-3.68 102.829-18.75 145.155zm313.47-142.031 21.42.442c3.3 65.46 58.44 73.974 66.96 73.018-14.07 44.269 9.23 92.849 65.35 99.745-12.87 41.039 9.91 95.141 54.8 93.67l4.75 3c-2.89 5.91-3.51 18.063-3.34 18.25-9.98.731-15.39 2.185-21.88 3.469-58.02-87.485-188.06-291.594-188.06-291.594zm190.38 0c-6.49 73.128 8.18 173.563 42.53 232.906 0 0-1.1 3.979-1.82 5.063-3.27 4.931-4.89.663-6.87-3.313-7.32-13.515-21.13-15.618-27.19-8.094-13.37 18.219 1.13 25.407 12.38 35.694-45.98-2.808-61.31-53.409-50.68-78.443-.24 4.775 2.32 11.981 5.69 17.091 12.92 19.598 31.8 3.065 26.39-12.439-2.24-6.414-10.48-17.113-10.48-17.113s11.19-1.651 15.77-4.416c4.27-2.653 6.97-7.351 5.87-13.78-.88-5.159-1.11-7.413-3.88-12.063-3.39-4.235-9.46-7.163-14.33-6.839-9.49.632-10.64 7.163-16.86 11.637-1.54-11.763-9.07-20.712-21.37-18.487-9.36 1.691-16.1 11.642-10.37 24.1 2.9 6.361 6.97 8.293 11.06 13.808-66.07-7.399-58.87-85.847-51.56-84.445 0 0 1.99-.368 1.4 2.633-3.76 19.195 20.08 30.668 30.53 16.718 6.67-11.315-7.65-29.178-7.65-29.178s9.54-2.046 13.86-4.541c17.26-9.95-1.13-38.532-17.18-31.513-5.64 2.564-7.07 7.786-12.57 10.568-3.67-4.089-3.89-8.561-10.5-12.238-18.11-10.086-29.44 13.779-19.41 24.278 4.11 4.253 11.37 8.131 9.95 8.651-56.17-7.092-55.62-65.875-54.34-65.464zm-482.8.493 7.74-.004c-2.3 34.874-7.25 80.88-4.01 114.886 3.78 32.482 3.96 37.092 1.63 40.312-3.19 3.582-1.51 5.27-.88 8.188.84 5.337.92 5.393.16 8.433-6.81 27.268-15.51 55.524-26.56 84.098-36.15 99.659-95.11 208.318-141.36 265.307-.03-.203-2.11.181-2.15-.021-12.65-79.518 14.39-145.801 28.51-173.005 28.62-55.152 73.57-102.231 100.27-160.013 22.72-49.167 39.48-108.259 36.65-188.181zm284.55-.337 188.37 292.938-34.37 16.843-192.78-308.718zm-567.32 30.656c-66.79.986-99.37 85.02-43.43 125.375 10.05 7.253 13.14 11.48 10.4 14.282-2.3 2.352-5.4 1.26-10.4-3.719-43.55-42.747-110.77-19.378-117.03 39.875-10.4 98.21 111.8 123.957 143.12 30.469 8.98-26.8 12.81 2.237 4.09 30.75-7.25 26.298-19.87 53.261-34.62 75.718-2.47 3.682-6.06 8.375-6.06 8.375h107.31s-3.41-4.577-8.25-10.218c-19.53-29.059-30.1-61.671-33.53-95.719-.8-9.681-.46-17.033 1.44-18.25 3.24-2.088 5.12.523 8.59 12.062 7.14 23.746 20.63 43.151 35.69 50.5 36.4 15.1 66.13 10.521 91-22.625 53.8-71.706-34.18-160.288-97.07-102.406-5.77 5.266-9.38 5.839-9.93 1.5-.27-2.099 1.35-4.107 9.22-11.5 54.03-42.927 26.96-116.499-40.44-123.969-3.45-.368-6.81-.548-10.1-.5zm-271.53 44.813c1.36 2.744-3.66 5.46-9.03 6.956-15.16 4.22-30.03-5.228-30.5-26.962-.15-6.621-.58-13.706 1.75-14.75 6.96-3.131 33.68 26.474 37.78 34.756zm949.25-18.25c4.88 0 8.82 3.966 8.82 8.844 0 4.877-3.94 8.843-8.82 8.843s-8.84-3.966-8.84-8.843c0-4.878 3.96-8.844 8.84-8.844zm-966.75 77.325c-30.55.076-46.55 41.637-17.47 66.269 5.1 4.316 7.07 8.248 6.72 9.187-.79 2.13-1.57.338-7.78-4.031-27.34-19.228-60.16-2.013-57.28 25.625 4.12 39.458 48.54 48.805 64.31 12.312 2.79-6.449 4.13-8.452 5.63-8.468 1.37-.016 1.55 2.633.9 6.843-2.88 17.188-11.23 35.269-20.59 49.782h49.59c-10.16-15.379-14.39-30.541-17.09-49.5-.2-4.993.5-8.291 2.44-8.313 1.3-.014 2.05 1.778 4.19 10.219 7.91 31.239 56.17 29.6 64.21-2 9.01-35.397-24.42-60.574-51.87-38.188-3.87 3.158-8.27 5.46-9.03 3.25-.22-.633 2.24-5.25 6.62-9.093 28.02-27.367 9.28-63.976-23.5-63.894zm1029.22 20.362c4.94 0 8.94 4.003 8.94 8.938 0 4.934-4 8.937-8.94 8.937-4.93 0-8.94-4.003-8.94-8.937 0-4.935 4.01-8.938 8.94-8.938zm-448.84 17.447c3.22 12.764-59.78 204.355-149.31 326.272l39.09.813 1.21 4.312c54.77 80.864 20.51 152.397-23.71 185.625l15.31 20.406-13.78 11.157-13.78-16.407c-112.08 84.07-330.78 270.154-330.78 270.154l1.22 29.85 17.06-13.44c110.94 107.39 346.18 101.51 407.87-120.157l16.53.375c-37.31 162.472-189.15 226.062-303.74 199.122l-26.85 38.56 7.19 3.85c-1.33-2.06-2.54-2.77-.6-4.66l22.82-29.34c171.45 21.96 274.97-75.08 308.56-206.532l21.88.375c-18.77 110.417-70.53 207.637-144.35 283.717-53.27-.21-146.94-1.44-146.94-1.44 34.11 33.05 99.25 133.9 101.85 144.13 0 0 67 2.13 138.87.37 26.35-11.85 61.6-16.61 78.07-8.31 28.92 14.58 56.11 68.68 68.34 155.47 3.15 22.36 6 31.83 6.87 36.34.16.82 2.12 1.41 2.41 1.25 1.1-.58-1.75 3.96-1.88 7.32-.11 3.36 0 8.42 1.6 10.18 2.03 2.23 1.78 3.7 1.5 4.66-.19.63-4.1 4.25-4.1 4.25-.58 50.56-.29 96.46-3.06 158.66l9.94.06c-.07-100.07 30.12-192.67 76.66-256.41 28.29-41.83 58.22-86.91 74.78-129.84 18.63-48.32 21.2-99.1 11.22-141.94l-6.82.38c-40.92-28.06-57.6-87.94-7.18-130.72l-17.85-23.22c-50.34 38.92-61.9 110.72-9.75 170.16l-20.4-.07c-50.9-63.51-39.62-136.44 19.18-188.5l-13.15-16.71 14.3-12.61 12.9 14.12 328.3-274.297-.24-30.014-25.15 20.402c-147.27-136.146-365.65-40.609-397.67 123.38l-20.01.211c41.97-176.474 196.61-226.346 308.48-202.877l27.6-41.763c-20.3-5.705-40.11-19.186-58.81-35.115-7.87-6.71-12.85-10.822-18.57-17.539-52.99-55.993-88.95-133.749-90.64-133.879l-144.07-.355c-21.14 10.452-57.33 22.338-77.2 6.299-42.64-34.439-56.95-103.915-62.82-148.625-1.77-13.915-3.28-38.126-4.59-46.156-.81-1.471-2.38-1.558-3.81-1.304zm510.78 77.272c4.82 0 8.72 3.93 8.72 8.75s-3.9 8.719-8.72 8.719-8.72-3.899-8.72-8.719 3.9-8.75 8.72-8.75zm18.75 10.281c7.1 9.202 13.41 18.689 16.94 28.719-3.32-.103-6.42.927-10.11-1.948-.85-10.13-5.02-16.209-10.27-22.958zm-26.34 12.907c2.91 1.427 5.22 12.426 3.18 14.312-3.5.748-5.9.497-7.08-.728-1.76-2.901 1.58-13.021 3.9-13.584zm-572.97 95.562 133.75.156c23.27 17.839 46.01 15.478 79.03 1.176h148.72l8.4 15.262h-377.15c2.1-5.671 7.25-16.594 7.25-16.594zm-11.03 23.844h384.9l9.72 15.656h-404.16zm37.15 22.75h43.19l-16 27.156h-44.56zm95.88 0h41.21l-18.34 27.125h-40.84zm133.31 0-17.34 27.125h-41.91l18-26.875zm51.69 0h41.28l-15.44 27.125h-42.75zm-554.49 4.219c-26.77-.307-21.81 35.19-19.28 34.08-16.81-3.847-29.23 4.134-31.29 18.45-1.64 11.362 9.46 27.555 28.87 25.292-2.58 2.977.05 20.154 2.63 21.719 0 0 .33 2.49-9.91 23.865-12.16 25.369-14.65 26.572-20.16 9.906-5.93-17.924-15.09-27.005-38.97-38.594-6.36-3.087-15.36-8.471-20-11.968-10.66-8.031-10.78-7.904-10.28 8.406.65 21.179 7.08 30.467 29.69 42.969 11.07 6.119 32.25 14.761 36.09 14.718 2.7-.03 12.62 4.418 27.31 12.25 2.88 1.53 12.7 6.941 25.29 8.157 13.35.942 43.43-2.21 60.87-12.282 9.79-5.651 13.56-10.707 20.78-25.156 0 0-24.71 1.279-36-1.687-23.46-1.376-35.12-.018-52.9 9.218-14.88 7.727-15.72 9.109-9.5-3.656 2.84-5.861 5.48-12.759 7.87-19.625 2.59-6.831 3.28-7.399 9.78-8.062 14.27-1.455 22.4-9.688 23.72-23.969.36-3.829-.22-7.871-.22-7.871 9.72 1.436 29.6-3.38 28.98-23.504-.56-18.094-13.46-22.256-29.34-23.499 2.04-9.27-4.72-28.936-24.03-29.157zm.32 5.614c23.45.164 22.9 21.689 12.69 33.906l-12.48-10.268-10.06 9.286c-10.95-6.996-10.91-33.069 9.85-32.924zm641.67.261 11.53 17.031h-23.82zm-437.85 24.468h44.16l-17.72 24.907h-41.75s9.34-15.902 15.31-24.907zm139.19 0-16.69 25.875h-38.59l15.47-25.343zm51.72 0h39.91l-15.79 27.594h-39.43zm93.91 0h40.4l-16.44 27.594h-39.84zm91.53 0h41.62l-17.19 27.594h-40.12zm-579.6 5.125 19.85 20-19.35 19.375-19.93-19.062zm50.32 19.482c-3.52 23.233-25.9 21.968-32.26 10.607l9.12-10.407-11.19-10.979c10.86-17.42 36.98-6.77 34.33 10.779zm-66.63-11.12-10.73 12.086 11.77 11.314c-7.58 10.536-36.73 9.702-30.88-15.658 3.71-16.103 20.09-19.062 29.84-7.742zm680.16-2.955 12.28 16.875-23.03.187zm-478.94 20.718 493.78 1.594 13.22 16.156c-172.41 2.971-341.22-2.77-517.34-2.906zm-173.6 10.5c19.56 12.001 5.11 37.29-15.89 32.99-15.65-6.871-18.86-23.106-4.77-32.531l11.03 9.093zm169.32 9.688-13.47.062-13.13 15.344c49.62 52.266 47.8 97.601 1.57 137.125l18.59 20.813c51.85-44.36 63.35-114.06 6.44-173.344zm50.97 2c27.81 43.453 51.86 125.76-31 201.156l-10-12.125c72.14-70.462 55.19-129.713 22.87-188.5zm7.71 1.062 112.13.438c-24 91.474-40.84 145.339-43.37 288.437l-32.41.188c3.52-3.298-16.78-86.404-40.47-115.219 49.68-84.352 22.91-131.926 4.12-173.844zm-352.68.125c1.93-.015 5.91 2.492 13.68 7.157 6.99 4.185 16.05 9.478 20.16 11.781 15.4 8.633 23.06 16.783 27.44 29.219 3.28 9.31 1.24 9.492-8.19.718-7.01-6.526-14.48-12.147-33.15-24.937-6.58-4.505-8.66-3.765-4.85 1.719 2.75 3.951 8.67 8.444 20.66 15.75 8.69 5.298 20.66 15.906 19.72 17.468-.86 1.423-2.34 1.3-6.53-.531-1.94-.845-8.2-3.412-13.88-5.719-24.42-9.91-34.85-22.078-36.31-42.312-.51-7.046-.95-10.295 1.25-10.313zm511.68.438s3.38 4.455 3.82 6.312c.94 4.015-3 7.698-15.41 13.219-4.26 1.895-7.8 2.922-7.69 5.406.57 5.834 11.75 14.739 10.38 22.688-2.57 6.08-18.09 12.05-21.97 19.219.03 4.932 10.09 12.481 8.66 19.187-.79 2-4.04 4.045-8.85 8.219-9.84 8.543-10.45 9.85-6.84 16.5 8.39 15.448 8.7 14.308-2.75 25.281-11.54 11.057-11.33 10.918-5.81 20.531 5.94 10.361 5.67 9.894-2.32 16.532-7.82 6.505-7.5 7.827-3.31 15.906 4.06 7.812 4.98 7.925-1.84 13.969-7.97 7.06-9.47 7.803-3.85 16.687 5.82 9.188 6.25 8.8-.31 16.313-6.21 7.115-6.93 7.443-3.56 12.281 4.23 6.076 5.03 7.688.59 14.375-4.79 7.221-4.76 6.709-.37 13.437 3.7 5.665 3.06 11.969 3.06 11.969l-13.87-.031s-.1-7.976-1.72-10.906c-3.94-7.111-3.83-9.318.84-15.625 4.8-6.474 4-7.028-.47-13.5-4.52-6.551-3.87-6.485 2-13.938 5.39-6.836 5.66-10.064 2.59-13.969-7.25-9.257-7.23-13.158.07-19.281 5.57-4.669 6.09-6.752 1.28-14.75-4.71-7.827-5.3-8.542 3.34-16.344 8.83-7.972 8.74-7.805 2.81-16.843-5.74-8.767-5.44-9.351 3.79-17.907 9.33-8.656 9.45-8.675 3.34-19.593-5.72-10.22-5.77-10.046 5.41-20 11.12-9.269 14.91-10.447 3.81-23.75-6.19-10.552-1.78-11.588 8.37-16.844 17.82-10.878 9.71-10.203 2.22-26.344-6.25-10.822-2.68-10.901 8.22-16.312 2.71-1.164 5.71-2.503 8.78-4.219 7.29-4.066 3.35-7.781 3.35-7.781zm23.29.25 53.53.687c-62.05 79.231-91.91 180.568-102.63 287.469l-20.22-.312c-1.26-83.488 25-187.79 69.32-287.844zm274.87 1.857c30.61 25.771 53.3 40.526 69.44 46.341 0 0-21.59 35.83-23.25 34.52-124.19-23.923-271.88 48.487-305.28 204.594l-19.57.125c7.23-61.256 23.35-112.415 53.04-165.781 29.45-51.817 56.58-82.099 97.51-120.262zm-213.66-1.326 26.38.469s4.95 5.948 7.19 8.094c11.38 12.91 12.36 10.339-12.72 24.5-15.84 8.942-22.86 13.096-23.78 16.843-.71 3.775 6.91 11.266 7.81 16.313.01.567-21.53 14.989-25.44 17.031-5.43 2.635-5.71 4.904-.31 14.281 6.2 10.781 5.7 10.405-7.69 19.75-13.06 9.116-15.63 8.213-10.06 17.282 7.73 12.594 4.09 15.435-14.09 25.25-4.6 2.478-4.71 4.964-1.5 13.562 4.46 11.947 5.61 10.749-3.79 17.219-11.09 7.64-13.05 7.852-10.59 12.531 7.15 13.6 9.98 16.904.44 21.344-7.28 3.386-7.43 5.303-3.41 14.281 4.05 9.025 5.1 8.662-2.09 13.75-6.66 4.713-10.58 3.665-4.09 11.375 5.12 6.098 4.67 10.912.5 14.656-3.6 1.522-5.27 8.351-4.22 8.5l-9.25.25c-7.25-9.764 1.3-15.356 2.59-16.312 1.18-2.249-.27-3.84-3.19-9.125-4.02-7.28-3.88-8.15 1.91-12.406 5.85-4.302 6.02-3.187 2.12-12.688-4.53-11.052-4.32-12.314 2.82-17.437 7.02-5.044 7.11-6.165 2.34-15.844-5.03-10.21-5.04-10.217 7.44-18.5 8.77-5.827 8.89-5.479 4.25-16.281-3.21-7.462-.94-10.045 11-18.219 6.82-4.67 7.33-5.594 4.12-11.156-8.85-15.335-8.76-15.802 6.5-25.688 12.49-8.087 12.38-8.784 7.57-19.562-5.22-11.674-5.68-10.774 11.43-21.032 14.1-8.446 14.86-7.957 9.07-18.125-7.22-12.647-6.76-10.577 21.43-26.687 10.17-6.962 19.34-4.552 9.22-16.406-4.45-5.686-9.91-11.813-9.91-11.813zm-497.87 20.813c1.95-.07 3.48 2.33 3.37 6.781-.34 6.269-3.31 12.488-6.15 18.719-5.96 12.694-11.9 22.09-15.03 22.125-7.37.082-7.17-1.57 2.62-20.719 4.47-8.742 9.09-18.723 9.82-20.656 1.57-4.188 3.65-6.189 5.37-6.25zm90.63 28.75c.13 26.882-84.18 40.426-88.56 26.857 14.7-11.506 58.15-6.399 67.36-16.691-11.1-.641-26.14 1.188-36.44 1.372-12.85.23-33.61 5.722-33.82 7.993-1.35-7.075 22.06-20.353 40.61-21.188 17.34-.753 36.17 1.302 50.85 1.656zm7.21 41.031s-164.39 136.026-245.65 201.844l.5 29.343 260.06-212.906zm-.53 6.719 10.5 12.75-244.12 198.906-.88-20.844zm771.65 69.792-8.78 9.367c-238.44-177.41-458 91.959-336.93 284.648-1.1 2.49-9.52 8.64-9.52 8.64-134.94-223.703 123.26-485.464 355.23-302.655zm-131.21-38.855c13.53.104 38.45 9.397 48.97 22.063 12.25 14.746 8.69 21.317-6.88 7.406-16.72-12.154-30.54-14.974-7.31-.625 5.13 3.165 9.73 9.346 9.97 10.031.85 2.465-3.44-.12-22.91-7.219-11.57-4.22-26.24-15.633-30.06-23.406-2.85-5.816 1.13-8.305 8.22-8.25zm-50.19.406c4.22-.034 7.99.296 10.66 1.063 17.05 4.896 22.42 7.462 28.78 12.406 4.35 3.383 2.96 5.822-2.09 3.656-5.89-2.522-24.51-8.061-27.85-7.718-4.84.497.02 3.666 6.97 5.406 15.42 3.855 23.07 7.833 12.06 8-5.73.851-30.85.931-37.68.125-11.43-1.348-28.54-11.766-24.6-15.5 4.25-4.029 21.09-7.335 33.75-7.438zm-48.9 16.032c20.22.238 31.16 7.79 9.06 9.312-38 6.016-45.3 14.28-3.19 4.438 9.8-2.291 9.62 1.243 2.84 4.562-5.53 2.691-12.45 4.017-18.21 6.813-10.39 4.322-34.19 5.28-43.47 1.75-13.7-5.209 29.3-27.154 52.97-26.875zm162.71 3.437c10.22.264 32.02 15.077 41.72 28.969 6.35 9.081 3.19 15.602-6.4 8.312-1.92-1.458-15.69-13.163-16.44-13.437-1.29-.473 11.42 11.6 13.28 15 1.6 2.88 5.27 9.488-1.59 9.625-10.72-1.322-35.88-29.433-36.03-43.313-.04-3.712 2.06-5.244 5.46-5.156zm-126.78 7.906c4.26-.138 2.09 2.122-6 7.813-14.58 10.268-6.98 8.21 10.07-.563 5.18-2.666 11.43-4.751 13.62-5.156 2.2-.405 4.81-1.004 5.81-1.312 4.59-1.407 1.05 4.244-6.4 10.218-15.69 12.572-33.4 22.442-45.63 25.469-15.58 3.857-18.88 4.351-13.12-5.375 9.15-15.455 22.48-27.817 35.22-30.219 2.86-.54 5.01-.829 6.43-.875zm52.44.25c6.49-.129 14.52 1.214 27.16 3.938 8.88 2.771 6.56 3.367-4.1 4.531-20.03 2.189-11.69 4.528 7.78 4.188 26.58-.2-13.31 9.579-26.24 11.531-10.1.449-13.06.091-35.07-4.031-8.38-1.571-3.35-7.716 12.53-15.313 6.5-3.106 11.45-4.714 17.94-4.844zm164.22 3.594.72 17.125-321.72 269-10.94-12.09zm-109.47 14.719c12.83-.171 31.37 8.727 29.38 14.094-.75 2.001-2.18 1.918-11.97-.688-6.43-1.71-17.94-3.516-16.41-2.094.53.491 9.51 3.927 12.94 4.75 11.33 2.724 24.91 9.131 21.91 11.032-5.26 3.196-10.07.696-16.29.031-15.55-2.16-41.1-10.016-45.31-13.938-4.77-4.45 11.95-13.004 25.75-13.187zm-150.06 1c2.31.122 3.18 2.274.97 5.219-3.35 4.42-4.9 8.13-7.91 13.562-10.75 16.609-17.54 23.186-27.87 29.625-10.34 6.439-11.82 5.332-10.91-8.062 1.16-13.909 11.12-28.537 25.19-35.407 6.49-.92 10.22-2.63 3.4 5.532-12.09 14.481-3.81 13.002 7.47-3.438 3.59-5.225 7.35-7.153 9.66-7.031zm-41.78 1.937c6.97-.035 9.31 2.434.37 6.625-8.51 3.991-25.43 15.825-25.84 17.125-.71 2.204 5.63-1.254 16.16-7 14.06-7.681 15.3-7.5 8.5 1.282-7.7 9.929-26.2 22.365-40.72 26.968-20.32 5.565-19.83 1.674-8.47-13.406 10.82-16.393 20.01-24.213 33.87-28.687 6.08-1.961 11.94-2.886 16.13-2.907zm-344.63 2.5c73.73 127.142 32.8 256.329-52.73 322.209-89.43 68.87-228.55 64.78-310.64-17.88l11.39-10.75c-.06.05 129.41 131.91 292.47 14.87 82.76-59.4 116.94-199.667 48.67-297.449zm-330.25.282c-.24.001-.42.036-.56.125-2.48 1.611-11.84 29.072-13.72 40.468-.55 3.335.26 6.604 3 9.282 1.92 1.88 5.04.662 6 .281 6.23-2.822 9.67-7.145 15.13-20.844 3.66-7.499 4.16-16.462 3.43-19.594-.29-1.268-2.31-4.224-4.84-5.906-2.8-1.862-6.76-3.824-8.44-3.812zm1.44 5.718c2.95-.028 8.78 4.771 9.5 8.188.05 5.961-3.36 15.88-5.91 14.406-4.25-5.29-9.15-1.955-9.96-3.875-.55-5.865 3.22-13.546 5.81-18.656.17-.047.36-.061.56-.063zm796.25 4.75c32.78.009 65.38 9.61 89.31 30.813l-12.78 11.719c-56.14-40.017-121.49-28.306-160.22-1.313-38.34 26.722-72.27 85.875-39.03 169.19l-12 10.87c-37.25-67.009-17.26-155.57 48.66-197.466 23.24-14.773 53.01-23.228 82.87-23.781 1.06-.02 2.13-.032 3.19-.032zm-484.78 9.782c.99 0 2.5 3.257 2.34 7.25-.19 4.794-2.22 11.05-5.47 12.375-3.65 1.492-5.97-9.407-5.97-9.407 2.25-3.555 5.32-7.175 9.1-10.218zm586.94 3.75c1.33-.068 2.63-.014 3.75.125 3.66.454 3.69 3.729.25 6.875-3.72 3.396-5.66 3.577-9.41.843-3.35-2.44-3.52-4.236-.63-6.312 1.52-.964 3.81-1.419 6.04-1.531zm-629.63.75 10.88 13.406-37.69 30.312-4.5.344-288.5 238.905-.06-21.22zm602.8 32.346-39.3 32.42c-78.53-40.801-141.5 31.906-119.29 97.947l-33.98 29.484c-60.77-166.785 116.97-223.858 192.57-159.851zm-205.74-25.471c.13-.023.23-.026.35 0 .26.058.53.252.78.5 1.37 1.344-1.36 23.456-3.41 27.562-.74 1.494-1.32 3.418-1.31 4.281.02 1.815-7.23 16.989-12.91 27-2.14 3.773-4.42 8.723-5.06 11.032-4.55 21.896-14.37-13.313-10.91-33.75 1.64-9.606 15.27-29.437 19.22-27.969 2.02.748 1.88 2.262-1.65 9.937-9.85 21.417-12.32 32.459-1.97 11.75 11.92-23.868 15.03-30.005 16.87-30.343zm-667.47.437c1.46.083 2.62.892 3.26 2.594.43 1.453.9 4.464.09 5.937-2.02 4.535-6.19 7.521-10.41 7.25-1.85-.119-3.87-1.748-4.12-3.75-.23-1.81.21-4.883 2.5-7.218 3-3.074 6.25-4.951 8.68-4.813zm299.13 1.375c4.65.228 9.56 12.747 6.44 18.469-2.56 4.681-3.03 3.808-7.5-5.25-2.35-4.764-4.16-9.875-4.16-9.875l3.81-3c.32-.169.65-.273.97-.313.15-.019.29-.038.44-.031zm-7.84 5.281s4.89 8.87 6.09 15.938c.73 4.315.61 3.508-4.12 1.719-3.74-2.332-4.56-3.682-6.88-6.594-1.53-2.696-3.06-4.688-3.06-4.688zm29.43 1.907c2.48-.085 5.13 2.414 7.57 8.531 9.13 22.968 8.29 48.739-1.97 60.906-1.7 2.016-2.12 2.103-4.16.844-1.67-1.029-1.83-11.94-.22-15.031.51-.969 2.01-7.557 2.13-11.282.27-8.821-2.16-9.929-3.31-1.75-1.35 9.452-2.8 16.056-5.38 10.375-1.3-2.886-1.95-5.77-2.94-8.843-5.13-19.859.86-43.497 8.28-43.75zm-39.78 5.875s8.79 11.346 12.41 15.406c1.28 2.192 1.23 2.751-.81 3.531-3.48 1.331-15.11-6.417-19.72-8.812-2.49-1.982-1.41-3.5-1.41-3.5 3.18-2.394 6.36-4.746 9.53-6.625zm346.63.406c4.69-.052 4.69 1.582-.31 8.781-27.96 40.212-22.31 34.24-4.54 12.25 9.89-12.229 11.61-13.394 12.69-10.656.81 2.049-10.94 25.846-17.03 34.469-3.14 4.454-13.88 11.906-19.31 14.656-13.3 6.73-11.82 4.026-6.91-12.656 6.27-25.882 22.01-46.695 35.41-46.844zm-363.03 13.906c76.62 190.545-133.21 274.185-227.88 186.065l11.03-8.78c131.7 89.32 261.68-53.777 202.19-165.754 0 0 5.39-4.483 14.66-11.531zm17.75 4.625c12.61 1.292 31.25 24.365 32.18 37.219 2 9.13-.58 10.697-5.06 4.281-7.56-13.958-6.65-5.11-.22 8.75 3.42 7.003 4.21 15.395.66 15.844-4.85-.984-15.35-17.723-18.56-24.625-7.66-15.122-8.21-12.558-12.41-34.969-.79-4.2.31-6.466 3.41-6.5zm-38.13 6.25c58.37 111.936-67.19 246.43-194.9 159.5l38.28-30.38c66.65 31.98 141.02-7.678 119.72-99.589zm582.29 20.87-105.3 87.737c-21.67-72.722 57.89-114.262 105.3-87.737zm-195.57-.182c3.44-.717 6.36 21.308 7 52.218.62 30.237 1.4 33.225-8 22.094-3.94-4.537-8.78-8.868-10.94-12.937-6.24-11.802-4.25-24.165-2.53-41.438 1.61-16.116 7.38-13.599 6.44 3.281-.6 10.861-.49 24.363 1.22 24.344.62-.007.79-1.051.4-2.531-.81-3.09 2.91-38.091 4.44-42.219.66-1.781 1.33-2.68 1.97-2.812zm-290.19 13.312c7.61 2.977 9.77 28.36 1.53 52.906-3.54 10.547-8.98 17.435-17.09 21.688-5.79 3.035-7.14 2.072-4.53-3.219 4.8-8.623 7.37-17.56 9.31-28.687.78-10.861-4.95-2.141-4.47 2.5-4.49 20.257-10.38 23.307-9.62 1.968.56-15.726 2.62-22.473 10.03-33.281 3.72-5.412 7.71-12.862 14.84-13.875zm264.1 2.563c3.12.027 3.89 4.224 1.09 12.406-1.94 5.67-8.56 24.033-7.78 23.969.48-.041 7.58-16.555 9.03-19.25 2.38-4.425 3.26-5.262 5.34-5.063 2.04 8.155-.06 18.339-1.06 26.781-4.3 22.005-19.29 44.733-25.03 37.969-9.36-11.021-4.97-55.652 7.44-69.219 4.67-5.109 8.53-7.615 10.97-7.593zm-401.03 3.375c11.3 77.84-52.92 111.072-108.41 87.592 1.17-.29 108.41-87.592 108.41-87.592zm262.56 1.437 11.18 14.688 20.5 1.062-10.5 15.469 10.44 19.812-22.87.438-13.16 15.125-11.44-13.656-20-1.063 11.66-18.594-9.41-17.781 21.6-1.031zm-172.03 6.688c2.57.09 15.21 16.706 16.47 22.843 3.81 14.858 2.4 42.966-2.94 42-5.8-20.245-3.55-30.7-5.63-28.375-3.6 3.725 2.24 34.759.31 42.409-.91 1.95-4.01-.4-7.5-5.409-9.29-13.374-8.04-65.692-.93-73.406.06-.032.13-.065.22-.062zm684.59 31.541-253 209.586 14.59 18.78 238.87-197.208zm-365.41 3.615c1.11-.226 3.63 1.548 8.38 6.75 8.28 11.179 17.05 26.533 20.25 38.341 1.21 4.6 3.16 10.69 4.34 13.53 1.78 4.28 1.93 5.46.88 6.75-4.38 5.4-22.71-8.19-28.63-21.21-8.3-18.293-8.51-34.773-.19-18.724 3.03 5.838 6.79 14.346 6.76 10.969-.02-.962-3.69-13.218-6.5-18.687-1.75-3.439-8.11-17.142-5.29-17.719zm362.72 5.094.53 17.343-235.62 197.064-9.25-11.25s221.94-184.586 244.34-203.157zm-367.87 10.718c1.11.112 1.67 1.696 1.34 5.219-1.08 11.455-3.9 36.4-3.31 38.59.35 1.33 3.73-16.51 4.5-19.684 4.02-16.529 10.18 22.984 6.47 40.684-.59 2.79-1.77 7.28-2.38 10.04-.61 2.75-2.58 7.47-3.37 8.71-6.68 10.5-22.36-31.29-19.72-52.59 1.64-13.261 12.51-31.367 16.47-30.969zm-272.6 9.157c3.09-.165 3.68 2.859 3.16 9.218-1.78 21.804-16.28 44.694-32.16 50.784-15.81 6.06-17.28 4.84-7.9-6.47 7.11-8.58 11.41-17.59 10.22-18.75-.67-.65-2.25 2.96-8 10.34-7.22 9.27-8.41 1.42-1.85-12.19 5.67-11.75 10.97-17.899 21.63-25.089 7.52-5.072 12.18-7.698 14.9-7.843zm143.28 6.625c-3.18 93.877-26.59 195.867-71.78 284.527l-42.22.1c51.7-76.15 84.7-170.43 93.88-284.221zm18.57.093s6.33 6.57 8.9 11c2.84 4.884 3.64 9.154-1.53 12.814-5.99 5.06-8.49 3.18 1.28 15.75 5.15 6.62 3.48 7.7-2.9 13.28-6.59 5.76-6.97 6.06-.85 13.84 6.55 8.33 7.74 9.61-.81 16.03-7.7 5.8-7.79 7.16-1.78 16.57 5.54 8.67 7.22 8.58-3.41 17.56-9.07 7.67-9.28 5.55-.53 19.66 3.22 5.19 3 5.52-2.9 10.75-14.51 12.83-13.75 12.03-11.69 15.4 15.9 22.78 8.71 22.13-6.85 33-3.13 2.69-2.32 5.71 4.69 17.1 5.97 9.67 5.1 11.76-8.87 21.37-14.55 10.01-15.03 11.36-7.75 21.56 7.16 10.06 7.32 9.37-4.31 19.75-5.26 4.69-9.57 9-9.57 9h-25.78s5.44-4.97 9.16-7.72c21.17-15.67 21.08-14.01 12.15-25.31-7.9-10-7.13-10.65.88-16.37 5.76-4.12 13.52-8.36 19.34-12.56 3.14-2.24.82-4.1-4.4-13.97-5.86-11.07-6.17-9.79 4.72-18.75 11.92-9.81 12.11-9.45 5.65-21.88-6.48-12.46-6.59-11.38 1.59-18.06 12.17-9.93 12.75-9.4 6.35-20.91-5.11-9.18-5.16-8.92 3.47-17.53 8.7-8.68 7.62-8.14 2.47-16.09-5.24-8.09-4.96-9.18 1.93-15.31 7.43-6.62 6.38-6.22.22-14.66-6.07-8.33-5.98-7.7 1.41-14.16 3.88-3.39 7.78-6.84 7.56-8.44-.57-4.11-4.5-9.94-8.28-15.56-1.44-2.14 1.45-2.8 6.06-7.59 4.7-4.88 4.49-3.65.94-10.126-1.92-3.502-5.56-9.407-5.56-9.407zm-69.1.219 7.35.187s1.26 1.666 2.97 3.407c4.71 4.812 4.92 7.641.18 10.221-4.54 2.48-2.8 5.95 1 11.53 4.04 5.92 4 5.24-1.78 11.06-5.96 4.85-9.05 6.22-2.47 15.41 3.74 4.26 3.28 8.65-2.53 12.47-4.46 2.93-11.87 5.37-4.06 16.53 3.81 7.95 4.12 7.44-3.84 13.09-10.59 7.52-12.58 6.21-7.72 17.16 5.41 12.18 5.94 12.36-5.16 20.53-12.9 9.49-13.34 10.26-7.97 21.62 5.42 11.47 5.56 8.56-8.09 19.19-10 7.79-12.28 8.22-9.31 14.66 5.55 12.06 7.9 15.3-8.28 23.59-18.69 9.58-19.63 10.29-10.66 24.53 7.3 11.59 5.67 9.94-6.38 16.88-17.42 10.02-25.11 14.39-25.65 17.5-.36 3.52 13.59 14 13.59 14l-24.31.65s-10.22-8.29-14.19-12.15c-11-10.71-11.12-7.2 25.44-24.94 20.17-9.79 18.48-7.57 15.19-13.28-9.73-16.87-10.07-18.62 8.18-27.81 15.86-7.99 13.14-8.56 9.29-20.63-3.37-10.52-2.83-9.55 5.53-15.75 20.2-14.98 19.65-13.43 16.5-20.78-3.11-7.23-5.49-10.59-3.16-14.16 7.28-10.44 22.77-12.66 16.44-25.09-2.96-8.02-4.01-9.81 4.9-16.75 8.04-6.69 8.09-5.88 2.94-14.72-6.27-8.11-5.36-9.44 3.81-15.81 6.54-5.98 6.46-5.82 2.78-11.66-5.06-8.04-4.81-8.29 2.41-14.62 5.88-5.16 6.91-5.44 3.16-11.13-4.98-7.54-4.15-9.2 2.4-12.9 4.03-2.274 4-3.2 3.66-7.035-.07-.738-2.16-5-2.16-5zm91.19.437 33.84.094c10.81 62.754 29.69 88.504 40.6 108.374-42.79 68.7-33.06 125.76-6.94 176.25l-107.19-.4c27.48-94.01 41.65-188.6 39.69-284.318zm-232.31.25c1.24-.089 2.12 1.923 4.22 5.5 6.78 11.558 1.98 27.948-7.94 45.128-7.42 12.85-8.77 3.03-5.37-15.47 2.14-11.67-3.74 5.81-6.54 19.91-1.51 7.64-5.17 13.8-9.15 13.43-3.75-.61-2.59-11.31-2.47-13.69.85-16.86 7.13-28.81 19.34-45.558 4.63-6.343 6.5-9.148 7.91-9.25zm345.5 32.998c1.61-.07 3.85.6 6.62 2.19 2.16 1.24 6.04 3.58 8.72 5.06 9.39 5.17 10.15 6.75 5.69 11.94-5.52 6.43-9.05 3.98-18.59-6.72-6.44-7.21-6.55-12.28-2.44-12.47zm-3.13 14.13c1.52.03 4.65 1.67 7.69 5.15 6.18 7.08 5.44 13.06-1.41 11.35-2.79-4.09-4.23-10.31-6.9-14.91-.61-1.04-.29-1.61.62-1.59zm302.32.9c-6 .01-16.03 7.93-17.94 15.97-5.83 24.55-5.82 23.49-.6 27.07 1.54 1.04 2.69 1.81 3.44 2.28 3.06 2.41 7.23 6.15 7.78 5.4 4.98.03 12.54-31.42 12.28-37.9.32-6.85.56-7.67-1.15-10.78-.78-1.42-2.13-2.04-3.81-2.04zm-306.91.54c.4-.08.9.13 1.5.62 3.93 3.91 5.51 10.9 7.5 15.91.01 1.08-.44 2.86-1 3.93-3.39 6.52-8.67.2-9.22-11.03-.3-6.31.02-9.21 1.22-9.43zm305.97 4.84c.26-.02.52-.01.75 0 4.02.18 3.4 4.34-2.19 10.37-2.94 3.18-9 4.68-11 2.72-2.91-2.85 3.1-10.67 9.66-12.56 1.06-.31 1.99-.48 2.78-.53zm-679.78 3.44c.22 0 .43-.02.65 0 2.11.13 3.87 1.08 5.25 2.68 2.68 3.32 1.56 8.44.28 12.72-3.17 11.22-24.2 32.95-31.74 33.03-4.5-.78 14.28-24.64 14.87-28.65-1.4-1.37-13.03 12.07-18.5 21.4-2.47 4.23-5.29 9.44-6.78 10.35-3.92.45-8.44 2.95-8.47.31.65-11.92 23.99-37.9 31.94-45.12 4.88-4.6 9.1-6.66 12.5-6.72zm56.28 1.12c18.03-.2-17.47 39.25-40.44 44.94-7.15 1.77-20.34 2.23-21.28.75-.94-1.49.12-2.7 3.06-3.47 4.74-1.25 28.21-16.18 28.19-17.94-.03-2.21-9.72 1.46-18 6.82-5.36 3.46-7.88 2.75-4.97-1.44 13.48-19.39 31.53-29.41 53.44-29.66zm312.09.06c1.03.09 2.05 2.12 2.69 6.66 3.28 8.45 3.43 10.76.34 13.25-5.28 4.26-6.59 3.07-6.53-6.72.05-8.06 1.8-13.33 3.5-13.19zm-593.97 11.22s6.58 2.47 3.85 5.6c-1.9 2.17-9.99.32-10-.32zm905.78.25c2.15-.14 2.2 1.84 1.07 6.85-.6 2.62-3.2 16.44-7.78 20.28-.56.36-7.22-3.61-9.03-5.44-.83-.85-3.44-2.79-3.79-4.06-1.13-4.18.08-9.61 3.25-12.32 1.24-1.05 3.73-1.64 5.07-1.65 1.05-.01 4.15-1.03 6.9-2.25 1.93-.85 3.34-1.34 4.31-1.41zm-903.46 9.53c4.33-.03 9.64.44 14.15 1.97 13.3 3.87 37.69 14.79 41.44 18.38 5.46 5.22-8.8 10.78-25.94 10.97-9.09.1-10.8-1.79-23.37-9.32-1.62-1.06-8.94-5.87-6.82-7.62 2.33-2.38 9.35.68 18.1 5.12 2.85 1.45 9.79 1.04 9.78-.25-.02-1.51-17.48-8-30.56-12.15-8.59-2.73-8.39-5.49-3.13-6.66 1.51-.22 3.75-.42 6.35-.44zm-17.19 5.97s3.62 3.21 8.31 6.72c5.1 3.82 11.01 8.52 15.13 14.78 5.95 7.26 15.36 25.33 14.31 28.6-2.41 7.5-27.54-5.66-48.1-26.22-6.67-6.68-10.59-11.66-10.59-11.66l7.85-7.09s6.88 5.76 14.84 12.78c14.92 13.17 14.82 8.64-.19-5.22-4.25-3.92-8.15-7.44-8.15-7.44.19-2.51 2.57-4.73 6.59-5.25zm613.97.63s8.02 8.32 11 12.15c-48.91 47.82-67.58 114.61-20.38 185.75l-22.65-.09c-42.44-83.51-22.32-146.38 32.03-197.81zm-413.66 1.97c3.04-.14.27 3.44-5.12 12.62-10.08 17.15-12.08 21.48-28.44 25.75-4.21 1.09-10.22.22-12.69.53-7.04.88-3.91-.01 6.88-7 14.94-9.69 2.25-4.7-11.57 2.41-8 4.12-16.39 3.91-17.12 1.78-.4-1.17 3.24-4.27 5.59-6.38 21.04-18.8 27.49-18.01 47.07-24.81 8.54-2.96 13.32-4.81 15.4-4.9zm-87.94 17.15c7.62.05 14.72.81 21.04 2.22 4.18.95 10.99 1.78 5.24 6.97-6.5 6.12-24.06 14.47-37.06 15.03-1.82.07-28.58-1.82-22.87-7.56 1.14-.64 4.77-.47 7.9-1.06 14.83-2.81 10.82-5.2-7.43-4.22-22.86 1.22-23.91-1.14-6.6-5.88 12.66-3.46 25.1-5.24 36.5-5.47 1.11-.02 2.2-.03 3.28-.03zm122.13 1.75c10.17-.1 18.08 1.72 18.12 5.6.07 6.28-19.2 20.08-31.84 22.81-2.98.64-7.21 1.57-9.41 2.06-4.41 1-28.83.15-31.22-.72-11.44-4.15-3.48-5.78 17.5-8.22 9.14-1.06 13.49-3.45 13.47-5.18-.01-.85-6.73-1.08-16.75.18-11.18 1.42-8.99-1.87 4.94-9.09 9.2-4.77 23.66-7.32 35.19-7.44zm-188.28 8.72c1.42.04 4.86 1.22 10.56 3.59 12.18 3.55 28.92 7.56 40.37 20.07 9.26 8.96 11.51 11.85 9.57 15-2.36 3.82-31.07.91-43.16-4.25-7.98-3.41-17.5-10.73-21.84-17.06-10.53-15.34-6.1-19.38 7.28-8.66 16.12 12.92 18.51 14.24 21.37 13.66 1.15-.24-1.68-2.89-7.09-6.91-13.58-10.09-20.19-15.52-17.06-15.44zm99.34 16.47c13.51.02 16.42 1.03 29.53 7.03 16.41 5.79 12.43 10.93-16.68 18.19-14.59 3.42-29.26 1.02-39.91-5.53-23.47-14.44-21.92-17.33 4.28-10.88 8.61 2.12 17.19 2.52 17.72.91.4-1.23-10.01-3.89-18.47-6.69-9.16-3.03-1.29-2.77 17.03-2.97 2.42-.02 4.57-.06 6.5-.06zm675.29 62.39s-3 1.41-4.32 2.14c-1.05.58-9.16 1.59-18.03 2.25-17.5 1.3-29.27 4.11-39.88 8.38-16.03 6.44-26.75 26.31-26.75 26.31 11.98-.81 79.79 11.44 98.61-12.99 3.94-5.11-10.12 38.61-17.33 40.55-17.87-2.14-25.39 25.9-23.6 24.72-18.02 6.98-32 11.08-27.42 32 2 9.13 11.25 19.96 30.84 17.24-5.34 36.28 39.05 45.66 43.95 1.93 0 0 8.65-1.65 11.99-2.04 20.24-4.8 25.14-34.37-4.57-43.76-8.24-2.44-8.71-3.99-8.71-3.99 1.54-6.67 1.18-13.67-3.65-21.45 6.55-15.62 22.86-45.73 22.86-45.73zm3.14 9.02c4.08 5.46-17.22 14.48-39.9 16.43-5.08.44-16.27 1.47-16.56 1.97-2.44 4.28 43.86 1.17 58.28-6.9 4.94-2.77 5.39-.34 3.24 3.93-16.74 21.53-57.16 16.22-88.77 12.44-1.8-1.81-.27-4.04 6.81-9.78 12.99-10.54 22.34-14.05 42.85-16.16 5.72-.18 31.47-5.03 34.05-1.93zm25.04 22.28c-2.91 9.26-18.12 37.53-18.12 37.53-1.87 1.87-8.54 3.18-8.04-3.97.08-7.68 14.47-39.33 18.35-39.94 4.63-.35 8.04 3.06 7.81 6.38zm9.65 2.15c4.46 32.44 29.07 40.16 52.69 50.38 6.22 2.85 11.49 7.91 17.72 11.19 11.68-15.92-1.48-46.84-22.03-56.91-15.27-7.12-29.18-12.8-37.78-12.16-4.98.37-10.53 3.57-10.6 7.5zm12.63-1.93c2.64-.03 6.43.73 20.22 4.4 20.82 5.54 35.51 20.9 39.34 41.13.16.82 1.23 16.49-2.36 15.94-5.42-1.56-8.34-7.02-17.04-10.66-10.86-4.54-26.09-10.51-35.44-19-7.55-6.86-11.67-14.24-12.59-20.56-.94-6.57 1.26-7.24 6.78-1.94 12.35 9.83 24.53 13.19 36.75 22.69 3.39 2.64 15.57 9.39 7.25.98-5.63-5.7-22.22-15.62-31.03-19.86-12.25-5.89-18.91-13.04-11.88-13.12zm-937.81 32.37 139.59 218.22c-34.35 18.12-51.29 26.06-108.34 21.59l.22 2.88-24.24-1.41c41.87 65.35 93.54 150.62 78.88 299.36l170.04-.17s2.66 2.52 2.92 2.69c2.48 1.68 6.21-2.95 6.21-2.95l76.71-.41 2.07 2.48 35.77-.25s-163.54-306.02-245.68-457.97c-33.74-60.95-68.88-88.03-134.15-84.06zm880.25 7.22c9.17-.23 18.28 6.08 18.34 18.31.04 6.38-5.34 15.27-5.34 15.27l-12.46-11.87-11.9 11.91c-5.87-4.84-9.34-14.07-7.42-19.32 3.66-8.97 11.65-14.12 18.78-14.3zm-144.38 4.34c11.82 46.05 24.58 109.54-77.87 256.25-60.6 86.78-80.42 168.65-82.85 268.57l-6.12.03c2.89-54.84 3.28-154.25 3.28-154.25l5.72-5.1s-2.6-4.22-3.75-9.18c-1.93-8.36-.3-5.58 4.69-28.04 20.94-108.45 156.9-328.28 156.9-328.28zm-547.06 21.13 519.22 2.37-6.91 13.63-502.43-3.59zm692.1 3.94 19.28 18.78-18.85 21.15-19.84-20.75zm-15.82 7.98-10.52 11.18 9.12 9.6c-9.39 19.7-34.37 4.33-33.53-10.42.98-17.25 21.13-24.32 34.93-10.36zm33.32 22.23 8.38-10.65-9.47-10.38c15.51-15.31 30.17-1.82 31.58 10.95 1.52 13.62-19.72 28.99-30.49 10.08zm-614.94-13.03 42.53.41-15.81 29.59-43.13-.18zm94.75.22h39.06l-16.5 30h-39.53zm92.25 0h41.44l-16.82 30h-42.56zm92.75 0h42.4l-15.43 30h-44zm94.47 0h40.87l-16.56 30h-42.06zm-451.38.16h27.47l-11.22 19.75zm684.93 18.93c15.72 12.62 4.8 33.35-11.59 33.72-11.27.26-27.65-18.83-9.93-34.38l11.8 10.79zm-577.8 15.94h39.93l-15.03 27h-39.12zm88.78.22h43.81l-15.44 27h-41.68zm93.81 0h43.59l-14.21 27h-44.04zm93.47 0h43.25l-13.47 27h-45.72zm-356.69 1.03h27.56l-11.75 21.63zm20.78 31.32 404.72 3.59-6.87 13.12-387.57.07zm14.22 23.5 379.25.93-8.72 18.16-131.03-.59c-25.57-19.09-54.79-10.27-88.12.59 0 0-100.31 1.05-139.75 0zm532.22 46.34c21.04 26.93 36.14 64.44 42.25 94.03 6.06 30.26-.51 45.08-8.25 18.6-12.82-66.23-91.34-75.89-126.38-24.6-48.67 71.26 36.6 157.74 97.72 99.81 5.22-4.94 8.11-6.14 9.88-4.06 2.05 2.41.63 4.57-10.25 15.53-42.47 42.79-26.69 104.37 30.81 118.69 81.62 20.32 130.96-79.43 59.63-126.53-7.42-5.65-8.21-7.07-5.5-10.13 2.41-2.72 4.51-2.41 11.11 3.57 61.14 55.3 144.65-16.96 105.97-91.69-29.8-57.57-112.71-47-132.55 16.97-3.7 11.92-3.98 12.61-6.03 13.94-8.5.32-2.51-27.79-1.22-35.22 9.61-32.82 20.24-63.53 40.56-88.91zm-658.34 30.59 200.03 315.72-44.22-.5-189.94-297zm982.47 18.43c1.33 1 19.96 52.26 16.32 56.96-1.13 3.71-4.28 2.43-5.5-2.21-11.62-44.28-66.41-36.83-65.9 8.96.31 28.36 29.43 40.6 54.75 23 3.75-2.6 5.47-2.65 5.5-.15.01.75-2.91 4.62-6.5 8.62-20.35 22.67-12.68 53.98 14.78 60.41 36.91 8.64 54.78-32.9 27.03-62.78-4.04-4.35-7.34-8.34-7.34-8.88-.03-2.25 3.08-1.86 6.68.82 25.6 19 56.8 6.18 56.44-23.19-.47-38.77-48.66-48.99-61.9-13.13-3.3 8.93-4.92 11.31-6.6 9.69-6.48-3.4 17.35-58.68 18.01-58.68zm-1022.57 2.14 188.85 295.08c-8.67-.2-16.71.33-25.38.19 3.51-55.1-40.84-80.94-66.89-82.26 15.63-64.44-31.36-91.56-62.71-96.68 12.71-83.76-56.62-95.63-57.63-94.79.34-6.88-.96-11.84-1.88-17.57zm-30.59 4.67c-.41 1.78 3.56 18.47-3.91 15.39l-.53-15.35zm-39.76.43c2.7 11.1 8.4 13.3 16.15 20.74 0 0-9.91 1.68-12.2.1-4.12-2.85-12.72-20.93-12.72-20.93zm29.54 18.77c4.79 0 8.66 3.9 8.66 8.69s-3.87 8.66-8.66 8.66-8.66-3.87-8.66-8.66 3.87-8.69 8.66-8.69zm17.16 6.67c24.84-1.62 60.86 25.02 51.36 74.87-1.65-3.48-3.61-11.14-7.64-16.57-17.12-23.1-37.28 8.55-23.69 21.46 6.66 6.34 9.78 8.83 9.06 9.41-15.31-2.91-26.91 10.65-20.54 25.69 10.62 19.48 25.38 9.16 33.92-2.39 0 0 5.25 17.43 10.48 19.65 8.01 3.39 19.05-.91 22.81-10.58 5.59-14.39-8.01-18.07-11-26.08 28.73.93 65.34 42.93 48.68 79.35 2.19-8.3-6.71-26.89-24.01-22.1-8.65 3.02-11.66 15.61-4.68 28.56 2.23 4.15 3.43 5.69 3.43 5.69s-7.48.98-9.44 2.2c-22.45 13.82 6.49 51.53 23.19 27.95 1.71-2.8 4.5-6 4.5-6 2.76 5.25 3.6 12.64 8.63 15.18 20.69 10.41 29.91-11.57 21.22-22.34-4.9-6.07-10.42-13.07-10.42-13.07-.86-3.88 61.99 12.6 54.33 73.74l-166.62-.22c15.45-93.93-21.95-201.38-41.04-234.13l8.27-10.91c2.07 4.06 5.51 14.27 11.59 16.23 19.33 6.22 25.22-7.29 22.63-21.18-1.38-7.39-11.73-13.34-15.02-14.41zm44.12 88.4c4.55 0 8.22 3.7 8.22 8.25 0 4.54-3.67 8.21-8.22 8.21-4.54 0-8.25-3.67-8.25-8.21 0-4.55 3.71-8.25 8.25-8.25zm989.78 76.01c-11.08-10.34-23.34-10.06-34.42-8.85l-.6 23.29s27.44-1.37 23.79 12.85c-.98 2.79-2.3 12.14-2.3 12.14l-.36 119.4c4.46 52.47 72.02 62.97 88.67 13.18 3.21-8.5 2.68-16.23 2.68-25.51v-62.95l19.22-.38-.74-22.37-17.59.27c1.28-31.44-4.15-61.72-26.23-68.91-24.28-7.31-39.52-1.12-52.12 7.84zm57.3 53.73c-11.16 2.03-26.77-19.05-39.62-34.15 5.89-11.32 23.8-9.28 30.47-2.33 9.68 10.08 9.01 28.71 9.15 36.48zm-984.55-31.9c4.59 0 8.32 3.72 8.32 8.31s-3.73 8.31-8.32 8.31-8.31-3.72-8.31-8.31 3.72-8.31 8.31-8.31zm935.9 20.08c11.79 23.01 48 40.67 48.55 37.15l.2 63.32c1.84 25.37-7.07 37.73-23.15 39.38-28.19.31-27.88-34.7-27.88-54.21l-.38-62.5c.18-7.52-.72-16.9 2.66-23.14z" transform="matrix(.151362 0 0 .151362 -400.599 14.428)"/></g></svg>