<?xml version="1.0" encoding="UTF-8" standalone="no"?>
<!DOCTYPE svg PUBLIC "-//W3C//DTD SVG 1.1//EN" "http://www.w3.org/Graphics/SVG/1.1/DTD/svg11.dtd">
<svg width="100%" height="100%" viewBox="0 0 934 1300" version="1.1" xmlns="http://www.w3.org/2000/svg" xmlns:xlink="http://www.w3.org/1999/xlink" xml:space="preserve" xmlns:serif="http://www.serif.com/" style="fill-rule:evenodd;clip-rule:evenodd;stroke-linejoin:round;stroke-miterlimit:2;">
    <g id="Layer2">
        <path d="M138.427,239.184C179.76,198.842 206.906,154.862 232.872,112.563C255.64,159.102 288.305,199.82 323.642,239.184C285.834,278.209 256.543,319.956 232.985,363.835C206.868,318.852 179.372,278.121 138.427,239.184ZM138.427,511.392C179.76,471.05 206.906,427.07 232.872,384.771C255.64,431.31 288.305,472.029 323.642,511.392C285.834,550.417 256.543,592.164 232.985,636.044C206.868,591.06 179.372,550.329 138.427,511.392ZM138.427,790.122C179.76,749.783 206.906,705.8 232.872,663.503C255.64,710.044 288.305,750.761 323.642,790.122C285.834,829.157 256.543,870.898 232.985,914.779C206.868,869.797 179.372,829.064 138.427,790.122ZM138.427,1061.39C179.76,1021.05 206.906,977.072 232.872,934.773C255.64,981.314 288.305,1022.03 323.642,1061.39C285.834,1100.43 256.543,1142.17 232.985,1186.05C206.868,1141.07 179.372,1100.34 138.427,1061.39L138.427,1061.39ZM372.514,382.363C413.847,342.021 441.005,298.041 466.959,255.742C489.727,302.281 522.404,342.999 557.741,382.363C519.933,421.388 490.63,463.135 467.072,507.014C440.968,462.031 413.471,421.3 372.514,382.363ZM370.57,917.113C411.903,876.774 439.048,832.791 465.015,790.494C487.782,837.035 520.46,877.752 555.797,917.113C517.989,956.148 488.686,997.889 465.128,1041.77C439.011,996.787 411.526,956.055 370.57,917.113ZM603.139,239.184C644.472,198.842 671.617,154.862 697.584,112.563C720.351,159.102 753.029,199.82 788.366,239.184C750.558,278.209 721.254,319.956 697.697,363.835C671.58,318.852 644.095,278.121 603.139,239.184ZM603.139,511.392C644.472,471.05 671.617,427.07 697.584,384.771C720.351,431.31 753.029,472.029 788.366,511.392C750.558,550.417 721.254,592.164 697.697,636.044C671.58,591.06 644.095,550.329 603.139,511.392ZM603.139,790.122C644.472,749.783 671.617,705.8 697.584,663.503C720.351,710.044 753.029,750.761 788.366,790.122C750.558,829.157 721.254,870.898 697.697,914.779C671.58,869.797 644.095,829.064 603.139,790.122ZM603.139,1061.39C644.472,1021.05 671.617,977.072 697.584,934.773C720.351,981.314 753.029,1022.03 788.366,1061.39C750.558,1100.43 721.254,1142.17 697.697,1186.05C671.58,1141.07 644.095,1100.34 603.139,1061.39L603.139,1061.39ZM821.984,1036.21C838.919,1019.68 850.045,1001.67 860.683,984.339C870.003,1003.4 883.388,1020.08 897.864,1036.21C882.372,1052.2 870.38,1069.3 860.721,1087.27C850.02,1068.85 838.768,1052.16 821.984,1036.21ZM35.264,261.801C52.199,245.28 63.313,227.267 73.95,209.931C83.283,228.998 96.668,245.682 111.144,261.801C95.652,277.795 83.647,294.892 74.001,312.868C63.3,294.441 52.036,277.757 35.264,261.801ZM33.332,58.059L46.294,58.059L46.294,189.336L33.332,189.336L33.332,58.059ZM84.713,58.059C72.232,58.059 62.197,69.26 62.197,83.159L62.197,164.245C62.197,178.144 72.232,189.346 84.713,189.346L91.976,189.346C104.458,189.346 114.506,178.144 114.506,164.245L114.506,83.159C114.506,69.26 104.458,58.059 91.976,58.059L84.713,58.059ZM88.464,70.477C95.827,70.477 101.761,76.047 101.761,82.984L101.761,165.161C101.761,172.098 95.827,177.68 88.464,177.68C81.088,177.68 75.167,172.098 75.167,165.161L75.167,82.984C75.167,76.047 81.088,70.477 88.464,70.477Z" style="fill:rgb(212,0,0);fill-rule:nonzero;"/>
        <path d="M899.874,1241.94L886.912,1241.94L886.912,1110.66L899.874,1110.66L899.874,1241.94ZM848.501,1241.94C860.976,1241.94 871.004,1230.74 871.004,1216.84L871.004,1135.75C871.004,1121.85 860.976,1110.66 848.501,1110.66L841.229,1110.66C828.754,1110.66 818.707,1121.85 818.707,1135.75L818.707,1216.84C818.707,1230.74 828.754,1241.94 841.229,1241.94L848.501,1241.94ZM844.745,1229.53C837.379,1229.53 831.448,1223.96 831.448,1217.02L831.448,1134.84C831.448,1127.91 837.379,1122.32 844.745,1122.32C852.117,1122.32 858.042,1127.91 858.042,1134.84L858.042,1217.02C858.042,1223.96 852.117,1229.53 844.745,1229.53Z" style="fill:rgb(212,0,0);fill-rule:nonzero;"/>
    </g>
</svg>
