<?xml version="1.0" encoding="UTF-8" standalone="no"?>
<!DOCTYPE svg PUBLIC "-//W3C//DTD SVG 1.1//EN" "http://www.w3.org/Graphics/SVG/1.1/DTD/svg11.dtd">
<svg width="100%" height="100%" viewBox="0 0 934 1300" version="1.1" xmlns="http://www.w3.org/2000/svg" xmlns:xlink="http://www.w3.org/1999/xlink" xml:space="preserve" xmlns:serif="http://www.serif.com/" style="fill-rule:evenodd;clip-rule:evenodd;stroke-linejoin:round;stroke-miterlimit:2;">
    <g>
        <rect x="886.966" y="1110.67" width="12.962" height="131.278" style="fill-rule:nonzero;"/>
        <path d="M848.547,1241.95C861.028,1241.95 871.064,1230.75 871.064,1216.85L871.064,1135.77C871.064,1121.87 861.028,1110.66 848.547,1110.66L841.284,1110.66C828.802,1110.66 818.754,1121.87 818.754,1135.77L818.754,1216.85C818.754,1230.75 828.802,1241.95 841.284,1241.95L848.547,1241.95ZM844.796,1229.53C837.433,1229.53 831.499,1223.96 831.499,1217.03L831.499,1134.85C831.499,1127.91 837.433,1122.33 844.796,1122.33C852.172,1122.33 858.093,1127.91 858.093,1134.85L858.093,1217.03C858.093,1223.96 852.172,1229.53 844.796,1229.53Z" style="fill-rule:nonzero;"/>
        <rect x="33.365" y="58.049" width="12.962" height="131.278" style="fill-rule:nonzero;"/>
        <path d="M84.738,58.049C72.263,58.049 62.235,69.247 62.235,83.144L62.235,164.235C62.235,178.139 72.263,189.33 84.738,189.33L92.009,189.33C104.484,189.33 114.531,178.139 114.531,164.235L114.531,83.144C114.531,69.247 104.484,58.049 92.009,58.049L84.738,58.049ZM88.494,70.461C95.86,70.461 101.791,76.031 101.791,82.967L101.791,165.145C101.791,172.081 95.86,177.671 88.494,177.671C81.121,177.671 75.197,172.081 75.197,165.145L75.197,82.967C75.197,76.031 81.121,70.461 88.494,70.461Z" style="fill-rule:nonzero;"/>
        <path d="M222.15,285.895C222.192,277.453 215.525,277.295 215.609,283.453C215.025,314.408 188.859,329.649 169.859,326.033C140.525,320.458 131.192,291.358 131.442,274.22C132.317,221.316 185.567,182.308 233.609,114.491C268.817,175.703 326.942,223.783 330.4,271.099C334.942,334.008 255.359,357.47 243.984,284.149C243.234,278.97 237.15,276.645 237.609,283.878C239.359,303.974 236.9,312.345 259.567,361.878L200.317,361.878C213.442,338.733 221.234,310.316 222.15,285.895Z" style="fill-rule:nonzero;"/>
        <path d="M454.275,421.999C454.359,413.562 447.65,413.399 447.734,419.562C447.192,450.512 421.025,465.753 401.984,462.137C372.692,456.566 363.317,427.462 363.609,410.324C364.442,357.424 417.734,318.412 465.775,250.595C500.984,311.808 559.109,359.887 562.525,407.203C567.109,470.112 487.484,493.578 476.109,420.258C475.4,415.078 469.275,412.753 469.775,419.987C471.484,440.078 469.025,448.449 491.692,497.983L432.442,497.983C445.567,474.837 453.4,446.424 454.275,421.999Z" style="fill-rule:nonzero;"/>
        <path d="M686.859,285.895C686.9,277.453 680.234,277.295 680.317,283.453C679.734,314.408 653.567,329.649 634.567,326.033C605.234,320.458 595.9,291.358 596.15,274.22C597.025,221.316 650.275,182.308 698.317,114.491C733.567,175.703 791.65,223.783 795.109,271.099C799.692,334.008 720.067,357.47 708.692,284.149C707.984,278.97 701.859,276.645 702.317,283.878C704.067,303.974 701.609,312.345 724.275,361.878L665.025,361.878C678.15,338.733 685.942,310.316 686.859,285.895Z" style="fill-rule:nonzero;"/>
        <path d="M686.859,558.108C686.9,549.666 680.234,549.503 680.317,555.666C679.734,586.616 653.567,601.858 634.567,598.245C605.234,592.67 595.9,563.566 596.15,546.428C597.025,493.528 650.275,454.52 698.317,386.703C733.567,447.912 791.65,495.991 795.109,543.308C799.692,606.216 720.067,629.683 708.692,556.362C707.984,551.183 701.859,548.858 702.317,556.091C704.067,576.187 701.609,584.553 724.275,634.087L665.025,634.087C678.15,610.945 685.942,582.528 686.859,558.108Z" style="fill-rule:nonzero;"/>
        <path d="M222.15,558.108C222.192,549.666 215.525,549.503 215.609,555.666C215.025,586.616 188.859,601.858 169.859,598.245C140.525,592.67 131.192,563.566 131.442,546.428C132.317,493.528 185.567,454.52 233.609,386.703C268.817,447.912 326.942,495.991 330.4,543.308C334.942,606.216 255.359,629.683 243.984,556.362C243.234,551.183 237.15,548.858 237.609,556.091C239.359,576.187 236.9,584.553 259.567,634.087L200.317,634.087C213.442,610.945 221.234,582.528 222.15,558.108Z" style="fill-rule:nonzero;"/>
        <path d="M686.9,741.999C686.942,750.441 680.275,750.599 680.359,744.441C679.817,713.487 653.609,698.245 634.609,701.862C605.275,707.437 595.942,736.537 596.192,753.674C597.067,806.578 650.317,845.587 698.359,913.403C733.609,852.191 791.692,804.112 795.15,756.795C799.734,693.887 720.109,670.424 708.734,743.745C708.025,748.924 701.9,751.249 702.359,744.016C704.109,723.92 701.65,715.549 724.317,666.016L665.067,666.016C678.192,689.162 685.984,717.578 686.9,741.999Z" style="fill-rule:nonzero;"/>
        <path d="M686.9,1014.21C686.942,1022.65 680.275,1022.81 680.359,1016.65C679.817,985.699 653.609,970.458 634.609,974.074C605.275,979.645 595.942,1008.75 596.192,1025.89C597.067,1078.79 650.317,1117.8 698.359,1185.62C733.609,1124.4 791.692,1076.32 795.15,1029.01C799.734,966.099 720.109,942.633 708.734,1015.95C708.025,1021.13 701.9,1023.46 702.359,1016.22C704.109,996.133 701.65,987.762 724.317,938.228L665.067,938.228C678.192,961.374 685.984,989.787 686.9,1014.21Z" style="fill-rule:nonzero;"/>
        <path d="M456.275,878.103C456.359,886.545 449.65,886.708 449.734,880.545C449.192,849.591 422.984,834.353 403.984,837.966C374.65,843.541 365.317,872.641 365.609,889.783C366.442,942.683 419.692,981.691 467.775,1049.51C502.984,988.299 561.067,940.22 564.525,892.903C569.109,829.995 489.484,806.528 478.109,879.849C477.4,885.028 471.275,887.353 471.775,880.12C473.484,860.024 471.025,851.658 493.692,802.12L434.442,802.12C447.567,825.266 455.4,853.683 456.275,878.103Z" style="fill-rule:nonzero;"/>
        <path d="M222.192,741.999C222.234,750.441 215.567,750.599 215.65,744.441C215.067,713.487 188.9,698.245 169.9,701.862C140.567,707.437 131.234,736.537 131.484,753.674C132.359,806.578 185.609,845.587 233.65,913.403C268.859,852.191 326.984,804.112 330.442,756.795C334.984,693.887 255.4,670.424 244.025,743.745C243.275,748.924 237.192,751.249 237.65,744.016C239.4,723.92 236.942,715.549 259.609,666.016L200.359,666.016C213.484,689.162 221.275,717.578 222.192,741.999Z" style="fill-rule:nonzero;"/>
        <path d="M222.192,1014.21C222.234,1022.65 215.567,1022.81 215.65,1016.65C215.067,985.699 188.9,970.458 169.9,974.074C140.567,979.645 131.234,1008.75 131.484,1025.89C132.359,1078.79 185.609,1117.8 233.65,1185.62C268.859,1124.4 326.984,1076.32 330.442,1029.01C334.984,966.099 255.4,942.633 244.025,1015.95C243.275,1021.13 237.192,1023.46 237.65,1016.22C239.4,996.133 236.942,987.762 259.609,938.228L200.359,938.228C213.484,961.374 221.275,989.787 222.192,1014.21Z" style="fill-rule:nonzero;"/>
        <path d="M71.525,291.52C71.567,287.887 67.775,289.583 67.275,290.724C62.442,298.999 55.359,300.924 48.317,297.941C41.4,294.987 37.484,288.441 38.109,279.099C39.4,264.774 50.775,249.099 56.234,240.241C61.484,232.199 67.192,222.649 73.234,210.433C80.317,224.445 83.9,228.433 91.609,241.228C98.359,252.495 107.817,263.533 108.525,277.153C108.525,287.508 104.192,297.287 94.359,299.07C88.817,300.078 83.65,297.228 79.775,290.583C78.609,288.887 76.234,289.77 76.275,292.091C76.984,300.812 80.275,308.687 88.067,317.974L59.359,317.974C65.234,311.408 71.234,302.541 71.525,291.52Z" style="fill-rule:nonzero;"/>
        <path d="M858.234,1011.29C858.275,1014.92 854.525,1013.23 854.025,1012.08C849.15,1003.81 842.067,1001.89 835.067,1004.87C828.109,1007.82 824.192,1014.37 824.859,1023.71C826.15,1038.04 837.484,1053.71 842.984,1062.57C848.192,1070.61 853.942,1080.16 859.984,1092.38C867.025,1078.37 870.65,1074.38 878.317,1061.58C885.109,1050.31 894.525,1039.28 895.275,1025.65C895.275,1015.3 890.9,1005.52 881.109,1003.74C875.567,1002.73 870.359,1005.58 866.525,1012.23C865.317,1013.92 862.984,1013.04 863.025,1010.72C863.692,1002 866.984,994.124 874.817,984.837L846.109,984.837C851.984,991.403 857.984,1000.27 858.234,1011.29Z" style="fill-rule:nonzero;"/>
    </g>
</svg>
