<?xml version="1.0" encoding="UTF-8" standalone="no"?>
<!DOCTYPE svg PUBLIC "-//W3C//DTD SVG 1.1//EN" "http://www.w3.org/Graphics/SVG/1.1/DTD/svg11.dtd">
<svg width="100%" height="100%" viewBox="0 0 934 1300" version="1.1" xmlns="http://www.w3.org/2000/svg" xmlns:xlink="http://www.w3.org/1999/xlink" xml:space="preserve" xmlns:serif="http://www.serif.com/" style="fill-rule:evenodd;clip-rule:evenodd;stroke-linejoin:round;stroke-miterlimit:2;">
    <g>
        <path d="M374.052,236.799C415.386,196.456 442.544,152.476 468.498,110.177C491.266,156.716 523.944,197.435 559.281,236.799C521.472,275.836 492.169,317.571 468.611,361.451C442.494,316.467 415.009,275.736 374.052,236.799Z" style="fill:rgb(212,0,0);fill-rule:nonzero;"/>
        <path d="M374.052,1065.16C415.386,1024.83 442.544,980.836 468.498,938.537C491.266,985.088 523.944,1025.81 559.281,1065.16C521.472,1104.2 492.169,1145.94 468.611,1189.82C442.494,1144.84 415.009,1104.11 374.052,1065.16Z" style="fill:rgb(212,0,0);fill-rule:nonzero;"/>
        <path d="M819.591,1038.31C836.526,1021.78 847.652,1003.77 858.29,986.443C867.61,1005.5 880.995,1022.18 895.471,1038.31C879.979,1054.3 867.987,1071.39 858.327,1089.37C847.627,1070.94 836.375,1054.26 819.591,1038.31Z" style="fill:rgb(212,0,0);fill-rule:nonzero;"/>
        <path d="M37.821,262.176C54.755,245.655 65.882,227.629 76.52,210.305C85.84,229.372 99.225,246.056 113.701,262.176C98.209,278.17 86.216,295.267 76.557,313.243C65.857,294.816 54.605,278.132 37.821,262.176Z" style="fill:rgb(212,0,0);fill-rule:nonzero;"/>
        <path d="M36.209,194.713L36.899,186.296C39.019,160.304 44.714,151.523 76.99,124.402C92.658,111.243 97.801,104.745 98.516,97.206C100.561,79.456 84.554,73.912 74.13,73.824C60.62,73.698 45.341,81.789 52.617,100.543L37.463,104.996C34.415,87.497 37.538,71.064 51.738,63.776C70.68,54.28 94.991,58.005 107.259,72.971C115.501,83.031 117.37,96.918 112.954,107.781C100.034,135.579 56.204,147.81 52.579,179.948L101.037,179.948L101.037,162.06L115.313,162.06L115.313,195.001L36.209,194.713Z" style="fill:rgb(212,0,0);fill-rule:nonzero;"/>
        <path d="M897.083,1105.29L896.393,1113.69C894.273,1139.7 888.578,1148.48 856.302,1175.6C840.634,1188.76 835.491,1195.24 834.763,1202.78C832.718,1220.53 848.737,1226.08 859.162,1226.18C872.672,1226.3 887.951,1218.21 880.663,1199.44L895.816,1195C898.877,1212.5 895.753,1228.92 881.553,1236.22C862.611,1245.72 838.301,1242 826.032,1227.03C817.791,1216.97 815.922,1203.08 820.337,1192.21C833.258,1164.41 877.087,1152.19 880.713,1120.04L832.254,1120.04L832.254,1137.94L817.979,1137.94L817.979,1105L897.083,1105.29Z" style="fill:rgb(212,0,0);fill-rule:nonzero;"/>
    </g>
</svg>
