<?xml version="1.0" encoding="UTF-8" standalone="no"?>
<!DOCTYPE svg PUBLIC "-//W3C//DTD SVG 1.1//EN" "http://www.w3.org/Graphics/SVG/1.1/DTD/svg11.dtd">
<svg width="100%" height="100%" viewBox="0 0 934 1300" version="1.1" xmlns="http://www.w3.org/2000/svg" xmlns:xlink="http://www.w3.org/1999/xlink" xml:space="preserve" xmlns:serif="http://www.serif.com/" style="fill-rule:evenodd;clip-rule:evenodd;stroke-linejoin:round;stroke-miterlimit:2;">
    <g>
        <path d="M36.032,194.713L36.722,186.296C38.842,160.304 44.537,151.523 76.813,124.402C92.481,111.243 97.624,104.745 98.339,97.206C100.384,79.456 84.377,73.912 73.953,73.824C60.443,73.698 45.164,81.789 52.44,100.543L37.286,104.996C34.238,87.497 37.362,71.064 51.562,63.776C70.503,54.28 94.814,58.005 107.082,72.971C115.324,83.031 117.193,96.918 112.778,107.781C99.857,135.579 56.027,147.81 52.402,179.948L100.861,179.948L100.861,162.06L115.136,162.06L115.136,195.001L36.032,194.713Z" style="fill-rule:nonzero;"/>
        <path d="M897.104,1105.29L896.414,1113.69C894.294,1139.7 888.599,1148.48 856.323,1175.6C840.655,1188.76 835.512,1195.24 834.784,1202.78C832.74,1220.53 848.759,1226.08 859.183,1226.18C872.693,1226.3 887.972,1218.21 880.684,1199.44L895.837,1195C898.898,1212.5 895.775,1228.92 881.575,1236.22C862.633,1245.72 838.322,1242 826.054,1227.03C817.812,1216.97 815.943,1203.08 820.359,1192.21C833.279,1164.41 877.109,1152.19 880.734,1120.04L832.276,1120.04L832.276,1137.94L818,1137.94L818,1105L897.104,1105.29Z" style="fill-rule:nonzero;"/>
        <path d="M457.784,283.473C457.826,275.035 451.159,274.873 451.242,281.035C450.701,311.985 424.492,327.227 405.492,323.61C376.159,318.04 366.826,288.935 367.076,271.798C367.951,218.898 421.201,179.885 469.242,112.069C504.451,173.281 562.576,221.36 566.034,268.677C570.576,331.585 490.992,355.052 479.617,281.731C478.867,276.552 472.784,274.227 473.242,281.46C474.992,301.552 472.534,309.923 495.201,359.456L435.951,359.456C449.076,336.31 456.867,307.898 457.784,283.473Z" style="fill-rule:nonzero;"/>
        <path d="M457.826,1016.53C457.867,1024.96 451.201,1025.13 451.284,1018.97C450.742,988.015 424.534,972.773 405.534,976.39C376.201,981.96 366.867,1011.07 367.159,1028.2C367.992,1081.1 421.242,1120.12 469.326,1187.93C504.534,1126.72 562.617,1078.64 566.076,1031.32C570.617,968.415 491.034,944.948 479.659,1018.27C478.909,1023.45 472.826,1025.77 473.326,1018.54C475.034,998.448 472.576,990.077 495.242,940.544L435.992,940.544C449.117,963.69 456.909,992.102 457.826,1016.53Z" style="fill-rule:nonzero;"/>
        <path d="M73.8,289.071C73.842,285.442 70.092,287.134 69.592,288.28C64.717,296.55 57.634,298.475 50.634,295.496C43.675,292.538 39.8,285.992 40.384,276.65C41.717,262.33 53.05,246.655 58.55,237.792C63.759,229.75 69.509,220.2 75.55,207.984C82.592,221.996 86.175,225.988 93.884,238.784C100.675,250.05 110.092,261.088 110.842,274.709C110.842,285.063 106.467,294.842 96.675,296.621C91.134,297.63 85.925,294.784 82.092,288.134C80.884,286.442 78.55,287.325 78.592,289.642C79.259,298.367 82.55,306.242 90.384,315.525L61.675,315.525C67.55,308.959 73.55,300.092 73.8,289.071Z" style="fill-rule:nonzero;"/>
        <path d="M855.793,1010.57C855.835,1014.2 852.043,1012.5 851.543,1011.36C846.71,1003.09 839.627,1001.16 832.585,1004.15C825.627,1007.1 821.752,1013.65 822.377,1022.99C823.668,1037.31 835.002,1052.99 840.502,1061.85C845.752,1069.89 851.46,1079.44 857.502,1091.66C864.585,1077.64 868.168,1073.65 875.877,1060.86C882.627,1049.59 892.085,1038.56 892.793,1024.93C892.793,1014.58 888.46,1004.8 878.627,1003.02C873.085,1002.01 867.918,1004.86 864.043,1011.5C862.877,1013.2 860.502,1012.32 860.543,1010C861.252,1001.27 864.543,993.4 872.335,984.117L843.627,984.117C849.502,990.684 855.502,999.546 855.793,1010.57Z" style="fill-rule:nonzero;"/>
    </g>
</svg>
