<?xml version="1.0" encoding="UTF-8" standalone="no"?>
<!DOCTYPE svg PUBLIC "-//W3C//DTD SVG 1.1//EN" "http://www.w3.org/Graphics/SVG/1.1/DTD/svg11.dtd">
<svg width="100%" height="100%" viewBox="0 0 934 1300" version="1.1" xmlns="http://www.w3.org/2000/svg" xmlns:xlink="http://www.w3.org/1999/xlink" xml:space="preserve" xmlns:serif="http://www.serif.com/" style="fill-rule:evenodd;clip-rule:evenodd;stroke-linejoin:round;stroke-miterlimit:2;">
    <g>
        <g id="path3255">
            <path d="M435.79,769.927C447.934,745.572 456.789,720.588 458.349,693.866C459.783,684.037 453.838,683.869 452.952,690.797C435.748,756.544 344.287,738.741 347.45,676.894C349.98,626.736 399.822,615.946 425.796,632.349C436.043,638.387 435.495,634.769 429.887,628.503C391.262,585.442 414.664,529.992 466.825,528.976C523.245,532.324 537.877,591.679 503.257,626.589C498.956,630.78 489.427,644.261 503.806,634.837C538.72,610.009 587.212,636.705 586.242,674.984C584.429,745.567 498.366,750.83 479.981,691.876C478.21,685.336 473.108,682.055 474.499,693.158C477.072,713.255 482.343,743.56 497.438,769.927L435.79,769.927Z" style="fill-rule:nonzero;"/>
        </g>
        <g id="path3257">
            <path d="M435.537,354.911C447.681,330.555 456.536,305.571 458.096,278.85C459.53,269.02 453.542,268.856 452.657,275.78C435.453,341.531 344.034,323.724 347.155,261.877C349.727,211.724 399.526,200.933 425.543,217.332C435.79,223.375 435.2,219.752 429.634,213.486C391.009,170.43 414.369,114.976 466.572,113.964C522.949,117.307 537.624,176.662 503.004,211.572C498.703,215.768 489.174,229.244 503.51,219.82C538.467,194.992 586.959,221.688 585.989,259.967C584.134,330.551 498.113,335.813 479.686,276.859C477.915,270.323 472.813,267.039 474.246,278.141C476.776,298.242 482.047,328.543 497.185,354.911L435.537,354.911Z" style="fill-rule:nonzero;"/>
        </g>
        <g id="path3405">
            <path d="M497.523,945.089C485.379,969.441 476.566,994.429 475.005,1021.15C473.53,1030.98 479.517,1031.14 480.403,1024.22C497.607,958.469 589.067,976.272 585.905,1038.12C583.375,1088.28 533.533,1099.07 507.558,1082.66C497.312,1076.62 497.86,1080.24 503.468,1086.51C542.051,1129.57 518.691,1185.02 466.53,1186.04C410.11,1182.69 395.478,1123.33 430.097,1088.42C434.399,1084.23 443.928,1070.75 429.549,1080.18C394.593,1105 346.101,1078.31 347.113,1040.03C348.926,969.445 434.989,964.183 453.374,1023.14C455.145,1029.68 460.247,1032.96 458.855,1021.86C456.283,1001.76 451.012,971.452 435.917,945.089L497.523,945.089Z" style="fill-rule:nonzero;"/>
        </g>
        <g id="path3456">
            <path d="M60.831,313.837C65.8,303.628 70.643,294.124 73.316,282.934C75.069,272.382 71.479,276.303 69.432,283.218C66.426,292.813 58.075,297.181 50.308,297.285C36.237,297.477 29.222,286.412 29.639,274.512C28.136,261.993 40.788,253.133 50.392,253.818C57.574,254.331 63.837,258.21 67.637,261.229C70.101,262.545 72.773,263.125 69.057,259.73C62.083,252.077 56.238,247.354 56.363,235.884C56.488,225.119 65.674,213.887 77.867,214.242C93.108,214.68 100.039,226.309 100.039,237.124C99.998,245.011 96.031,252.269 89.934,256.762C86.009,259.96 87.137,262.357 91.605,259.329C95.947,255.605 101.083,253.972 106.428,253.859C121.001,253.63 126.679,266.223 125.844,277.927C125.051,288.892 115.739,300.175 103.422,298.897C92.44,297.64 86.678,288.416 83.379,278.95C82.251,276.048 80.539,275.268 80.581,279.589C83.128,300.709 91.02,313.85 91.062,313.837L60.831,313.837Z" style="fill-rule:nonzero;"/>
        </g>
        <g id="path7102">
            <path d="M36.19,163.785L46.803,156.12C56.035,170.847 66.334,180.544 82.077,178.876C105.723,177.282 115.507,152.959 110.565,134.619C105.786,118.174 86.204,110.158 70.649,118.939C66.986,121.009 62.746,123.568 62.746,123.568L57.202,114.536L93.718,72.061L54.091,72.061L54.091,89.636L38.887,89.636L38.887,58.125L116.348,58.125L116.348,68.812C116.348,68.812 95.6,89.937 88.726,101.515C105.623,102.13 119.246,112.642 124.113,129.263C126.973,138.006 125.693,158.015 121.955,166.632C115.733,181.008 98.698,192.662 83.118,193.339C56.989,195.07 43.115,177.082 36.19,163.785Z" style="fill-rule:nonzero;"/>
        </g>
        <g id="path34561" serif:id="path3456">
            <path d="M871.52,986.163C866.551,996.372 861.708,1005.88 859.035,1017.07C857.282,1027.62 860.873,1023.7 862.919,1016.78C865.925,1007.19 874.276,1002.82 882.043,1002.72C896.114,1002.52 903.129,1013.59 902.712,1025.49C904.215,1038.01 891.563,1046.87 881.959,1046.18C874.777,1045.67 868.514,1041.79 864.714,1038.77C862.251,1037.45 859.578,1036.88 863.295,1040.27C870.268,1047.92 876.113,1052.65 875.988,1064.12C875.863,1074.88 866.677,1086.11 854.484,1085.76C839.243,1085.32 832.312,1073.69 832.312,1062.88C832.354,1054.99 836.32,1047.73 842.417,1043.24C846.342,1040.04 845.214,1037.64 840.746,1040.67C836.404,1044.39 831.268,1046.03 825.923,1046.14C811.351,1046.37 805.672,1033.78 806.507,1022.07C807.3,1011.11 816.612,999.825 828.93,1001.1C839.911,1002.36 845.674,1011.58 848.972,1021.05C850.1,1023.95 851.812,1024.73 851.77,1020.41C849.223,999.291 841.331,986.15 841.289,986.163L871.52,986.163Z" style="fill-rule:nonzero;"/>
        </g>
        <g id="path7118">
            <path d="M895.91,1136.21L885.285,1143.88C876.065,1129.16 865.767,1119.46 850.024,1121.12C826.378,1122.72 816.593,1147.04 821.536,1165.39C826.315,1181.83 845.896,1189.84 861.451,1181.06C865.114,1178.99 869.354,1176.83 869.354,1176.83L875.915,1185.3L838.382,1227.94L878.01,1227.94L878.01,1210.36L893.213,1210.36L893.213,1241.88L815.753,1241.88L815.753,1231.19C815.753,1231.19 836.501,1210.06 843.363,1198.49C826.478,1197.87 812.855,1187.37 807.988,1170.74C805.128,1161.99 806.407,1141.99 810.133,1133.38C816.367,1118.99 833.402,1107.34 848.982,1106.66C875.099,1104.93 888.986,1122.92 895.91,1136.21Z" style="fill-rule:nonzero;"/>
        </g>
    </g>
</svg>
