<?xml version="1.0" encoding="UTF-8" standalone="no"?>
<!DOCTYPE svg PUBLIC "-//W3C//DTD SVG 1.1//EN" "http://www.w3.org/Graphics/SVG/1.1/DTD/svg11.dtd">
<svg width="100%" height="100%" viewBox="0 0 934 1300" version="1.1" xmlns="http://www.w3.org/2000/svg" xmlns:xlink="http://www.w3.org/1999/xlink" xml:space="preserve" xmlns:serif="http://www.serif.com/" style="fill-rule:evenodd;clip-rule:evenodd;stroke-linejoin:round;stroke-miterlimit:2;">
    <g id="_3H" serif:id="3H">
        <g id="path7102">
            <path d="M36.19,163.785L46.803,156.12C56.035,170.847 66.334,180.544 82.077,178.876C105.723,177.282 115.507,152.959 110.565,134.619C105.786,118.174 86.204,110.158 70.649,118.939C66.986,121.009 62.746,123.568 62.746,123.568L57.202,114.536L93.718,72.061L54.091,72.061L54.091,89.636L38.887,89.636L38.887,58.125L116.348,58.125L116.348,68.812C116.348,68.812 95.6,89.937 88.726,101.515C105.623,102.13 119.246,112.642 124.113,129.263C126.973,138.006 125.693,158.015 121.955,166.632C115.733,181.008 98.698,192.662 83.118,193.339C56.989,195.07 43.115,177.082 36.19,163.785Z" style="fill:rgb(212,0,0);fill-rule:nonzero;"/>
        </g>
        <g id="path7118">
            <path d="M895.91,1136.21L885.285,1143.88C876.065,1129.16 865.767,1119.46 850.024,1121.12C826.378,1122.72 816.593,1147.04 821.536,1165.39C826.315,1181.83 845.896,1189.84 861.451,1181.06C865.114,1178.99 869.354,1176.83 869.354,1176.83L875.915,1185.3L838.382,1227.94L878.01,1227.94L878.01,1210.36L893.213,1210.36L893.213,1241.88L815.753,1241.88L815.753,1231.19C815.753,1231.19 836.501,1210.06 843.363,1198.49C826.478,1197.87 812.855,1187.37 807.988,1170.74C805.128,1161.99 806.407,1141.99 810.133,1133.38C816.367,1118.99 833.402,1107.34 848.982,1106.66C875.099,1104.93 888.986,1122.92 895.91,1136.21Z" style="fill:rgb(212,0,0);fill-rule:nonzero;"/>
        </g>
        <g id="path8630">
            <path d="M41.605,253.173C34.98,238.706 34.271,213.985 53.98,210.64C68.813,208.731 74.855,215.631 76.063,226.231C76.646,229.327 78.396,229.519 78.938,225.99C79.771,215.115 90.563,208.769 98.98,210.365C121.98,214.302 120.646,239.648 113.146,256.844C101.771,279.677 89.813,294.085 78.771,317.06C66.105,293.14 51.646,273.706 41.605,253.173Z" style="fill:rgb(212,0,0);fill-rule:nonzero;"/>
        </g>
        <g id="path8516">
            <path d="M415.563,120.144C445.355,118.165 460.855,143.59 463.896,163.627C465.688,166.81 466.688,165.915 467.396,163.452C468.855,137.727 491.855,116.702 513.188,119.577C547.896,120.027 568.98,158.64 563.021,191.323C555.813,231.244 534.313,255.285 518.021,280.044C499.563,305.677 474.771,342.706 466.813,360.527C466.813,360.527 441.605,322.177 408.813,277.073C386.896,246.91 369.355,214.231 367.688,186.09C365.855,153.944 379.021,125.127 415.563,120.144Z" style="fill:rgb(212,0,0);fill-rule:nonzero;"/>
        </g>
        <g id="path8518">
            <path d="M415.855,530.235C445.605,528.256 461.146,553.681 464.146,573.719C465.98,576.902 466.938,576.006 467.646,573.544C469.105,547.819 492.105,526.794 513.438,529.669C548.146,530.119 569.23,568.731 563.313,601.41C556.063,641.335 534.563,665.373 518.271,690.131C499.855,715.769 475.063,752.798 467.063,770.619C467.063,770.619 441.855,732.269 409.063,687.165C387.146,657.002 369.605,624.319 367.98,596.181C366.105,564.035 379.313,535.219 415.855,530.235Z" style="fill:rgb(212,0,0);fill-rule:nonzero;"/>
        </g>
        <g id="path8652">
            <path d="M820.688,1049.89C814.105,1064.36 813.396,1089.08 833.063,1092.42C847.938,1094.34 853.98,1087.43 855.146,1076.83C855.73,1073.74 857.521,1073.55 858.063,1077.08C858.896,1087.95 869.688,1094.29 878.063,1092.7C901.105,1088.76 899.771,1063.41 892.23,1046.22C880.855,1023.39 868.896,1008.98 857.896,986.002C845.23,1009.92 830.771,1029.36 820.688,1049.89Z" style="fill:rgb(212,0,0);fill-rule:nonzero;"/>
        </g>
        <g id="path8582">
            <path d="M415.563,1180.96C445.355,1182.94 460.855,1157.52 463.896,1137.48C465.688,1134.29 466.688,1135.19 467.396,1137.65C468.855,1163.38 491.855,1184.4 513.188,1181.53C547.896,1181.08 568.98,1142.46 563.021,1109.78C555.813,1069.86 534.313,1045.82 518.021,1021.06C499.563,995.427 474.771,958.398 466.813,940.573C466.813,940.573 441.605,978.927 408.813,1024.03C386.896,1054.19 369.355,1086.87 367.688,1115.01C365.855,1147.16 379.021,1175.98 415.563,1180.96Z" style="fill:rgb(212,0,0);fill-rule:nonzero;"/>
        </g>
    </g>
</svg>
