<?xml version="1.0" encoding="UTF-8" standalone="no"?>
<!DOCTYPE svg PUBLIC "-//W3C//DTD SVG 1.1//EN" "http://www.w3.org/Graphics/SVG/1.1/DTD/svg11.dtd">
<svg width="100%" height="100%" viewBox="0 0 934 1300" version="1.1" xmlns="http://www.w3.org/2000/svg" xmlns:xlink="http://www.w3.org/1999/xlink" xml:space="preserve" xmlns:serif="http://www.serif.com/" style="fill-rule:evenodd;clip-rule:evenodd;stroke-linejoin:round;stroke-miterlimit:2;">
    <g>
        <g id="path3196">
            <path d="M457.512,287.027C457.595,278.585 450.928,278.423 450.97,284.585C450.428,315.54 424.262,330.777 405.22,327.165C375.928,321.59 366.553,292.49 366.845,275.348C367.72,222.448 420.97,183.44 469.012,115.623C504.22,176.831 562.345,224.91 565.762,272.227C570.345,335.14 490.72,358.602 479.345,285.281C478.637,280.102 472.512,277.777 473.012,285.01C474.72,305.106 472.262,313.477 494.928,363.01L435.678,363.01C448.803,339.865 456.637,311.448 457.512,287.027Z" style="fill-rule:nonzero;"/>
        </g>
        <g id="path3256">
            <path d="M457.845,601.802C457.887,610.244 451.22,610.402 451.303,604.244C450.72,573.29 424.553,558.048 405.553,561.665C376.22,567.24 366.887,596.34 367.137,613.477C368.012,666.381 421.262,705.39 469.303,773.206C504.512,711.994 562.637,663.915 566.053,616.598C570.637,553.69 491.053,530.223 479.678,603.544C478.928,608.723 472.845,611.052 473.303,603.815C475.053,583.723 472.595,575.352 495.262,525.819L436.012,525.819C449.137,548.965 456.928,577.381 457.845,601.802Z" style="fill-rule:nonzero;"/>
        </g>
        <g id="path3258">
            <path d="M457.553,1012.97C457.637,1021.42 450.97,1021.57 451.012,1015.42C450.47,984.46 424.303,969.219 405.262,972.835C375.97,978.41 366.595,1007.51 366.887,1024.65C367.762,1077.55 421.012,1116.56 469.053,1184.38C504.262,1123.16 562.387,1075.09 565.803,1027.77C570.387,964.86 490.762,941.398 479.428,1014.72C478.678,1019.9 472.595,1022.22 473.053,1014.99C474.762,994.894 472.303,986.523 495.012,936.99L435.72,936.99C448.845,960.135 456.678,988.552 457.553,1012.97Z" style="fill-rule:nonzero;"/>
        </g>
        <g id="path3312">
            <path d="M79.148,290.907C79.189,287.273 75.439,288.969 74.939,290.115C70.064,298.386 62.981,300.311 55.981,297.327C49.023,294.373 45.148,287.827 45.731,278.486C47.064,264.161 58.398,248.49 63.898,239.627C69.106,231.586 74.856,222.036 80.898,209.819C87.939,223.832 91.523,227.823 99.231,240.615C106.023,251.886 115.439,262.919 116.189,276.544C116.189,286.898 111.814,296.677 102.023,298.457C96.481,299.465 91.273,296.619 87.439,289.969C86.231,288.277 83.898,289.161 83.939,291.477C84.606,300.202 87.898,308.077 95.731,317.361L67.023,317.361C72.898,310.794 78.898,301.927 79.148,290.907Z" style="fill-rule:nonzero;"/>
        </g>
        <g id="path7102">
            <path d="M36.19,163.785L46.803,156.12C56.035,170.847 66.334,180.544 82.077,178.876C105.723,177.282 115.507,152.959 110.565,134.619C105.786,118.174 86.204,110.158 70.649,118.939C66.986,121.009 62.746,123.568 62.746,123.568L57.202,114.536L93.718,72.061L54.091,72.061L54.091,89.636L38.887,89.636L38.887,58.125L116.348,58.125L116.348,68.812C116.348,68.812 95.6,89.937 88.726,101.515C105.623,102.13 119.246,112.642 124.113,129.263C126.973,138.006 125.693,158.015 121.955,166.632C115.733,181.008 98.698,192.662 83.118,193.339C56.989,195.07 43.115,177.082 36.19,163.785Z" style="fill-rule:nonzero;"/>
        </g>
        <g id="path7118">
            <path d="M895.91,1136.21L885.285,1143.88C876.065,1129.16 865.767,1119.46 850.024,1121.12C826.378,1122.72 816.593,1147.04 821.536,1165.39C826.315,1181.83 845.896,1189.84 861.451,1181.06C865.114,1178.99 869.354,1176.83 869.354,1176.83L875.915,1185.3L838.382,1227.94L878.01,1227.94L878.01,1210.36L893.213,1210.36L893.213,1241.88L815.753,1241.88L815.753,1231.19C815.753,1231.19 836.501,1210.06 843.363,1198.49C826.478,1197.87 812.855,1187.37 807.988,1170.74C805.128,1161.99 806.407,1141.99 810.133,1133.38C816.367,1118.99 833.402,1107.34 848.982,1106.66C875.099,1104.93 888.986,1122.92 895.91,1136.21Z" style="fill-rule:nonzero;"/>
        </g>
        <g id="path3334">
            <path d="M849.41,1012.16C849.452,1015.79 845.66,1014.09 845.16,1012.95C840.327,1004.67 833.202,1002.75 826.202,1005.73C819.243,1008.69 815.368,1015.24 815.993,1024.57C817.285,1038.9 828.618,1054.57 834.118,1063.44C839.327,1071.48 845.077,1081.03 851.118,1093.24C858.202,1079.23 861.785,1075.24 869.452,1062.44C876.243,1051.18 885.702,1040.14 886.41,1026.52C886.41,1016.17 882.077,1006.39 872.243,1004.61C866.702,1003.6 861.493,1006.44 857.66,1013.09C856.493,1014.79 854.118,1013.9 854.16,1011.58C854.827,1002.86 858.118,994.986 865.952,985.702L837.243,985.702C843.118,992.269 849.118,1001.14 849.41,1012.16Z" style="fill-rule:nonzero;"/>
        </g>
    </g>
</svg>
