<?xml version="1.0" encoding="UTF-8" standalone="no"?>
<!DOCTYPE svg PUBLIC "-//W3C//DTD SVG 1.1//EN" "http://www.w3.org/Graphics/SVG/1.1/DTD/svg11.dtd">
<svg width="100%" height="100%" viewBox="0 0 934 1300" version="1.1" xmlns="http://www.w3.org/2000/svg" xmlns:xlink="http://www.w3.org/1999/xlink" xml:space="preserve" xmlns:serif="http://www.serif.com/" style="fill-rule:evenodd;clip-rule:evenodd;stroke-linejoin:round;stroke-miterlimit:2;">
    <g id="_4C" serif:id="4C">
        <g id="path7104-3">
            <path d="M75.988,193.134L75.988,181.418L86.764,181.418L86.764,162.099L32.912,162.099L32.912,148.464L91.18,60.554L100.701,60.591L100.701,148.464L117.171,148.464L117.171,162.099L100.701,162.099L100.387,181.418L109.419,181.418L109.419,193.134L75.988,193.134ZM86.764,92.73L49.771,148.464L86.764,148.464L86.764,92.73Z" style="fill-rule:nonzero;"/>
        </g>
        <g id="path7159-2">
            <path d="M857.221,1105.9L857.221,1117.62L846.445,1117.62L846.445,1136.94L900.298,1136.94L900.298,1150.56L842.03,1238.47L832.509,1238.45L832.509,1150.56L816.038,1150.56L816.038,1136.94L832.509,1136.94L832.822,1117.62L823.79,1117.62L823.79,1105.9L857.221,1105.9ZM846.445,1206.31L883.438,1150.56L846.445,1150.56L846.445,1206.31Z" style="fill-rule:nonzero;"/>
        </g>
        <g id="path3251">
            <path d="M643.406,354.779C655.406,330.713 664.114,306.025 665.698,279.625C667.114,269.908 661.198,269.746 660.323,276.588C643.323,341.558 552.989,323.967 556.073,262.854C558.614,213.292 607.823,202.629 633.489,218.833C643.656,224.804 643.073,221.229 637.531,215.033C599.406,172.487 622.489,117.696 674.031,116.692C729.781,119.996 744.239,178.65 710.073,213.142C705.823,217.288 696.364,230.608 710.573,221.296C745.114,196.763 793.031,223.138 792.031,260.963C790.239,330.708 705.198,335.913 687.031,277.654C685.281,271.196 680.239,267.95 681.614,278.921C684.156,298.783 689.364,328.729 704.281,354.779L643.406,354.779Z" style="fill-rule:nonzero;"/>
        </g>
        <g id="path3253">
            <path d="M228.698,354.779C240.698,330.713 249.406,306.025 250.948,279.625C252.406,269.908 246.489,269.746 245.614,276.588C228.614,341.558 138.239,323.967 141.364,262.854C143.864,213.292 193.114,202.629 218.781,218.833C228.906,224.804 228.364,221.229 222.823,215.033C184.656,172.487 207.781,117.696 259.323,116.692C315.073,119.996 329.531,178.65 295.323,213.142C291.073,217.288 281.656,230.608 295.864,221.296C330.364,196.763 378.281,223.138 377.323,260.963C375.531,330.708 290.489,335.913 272.323,277.654C270.573,271.196 265.531,267.95 266.906,278.921C269.448,298.783 274.656,328.729 289.573,354.779L228.698,354.779Z" style="fill-rule:nonzero;"/>
        </g>
        <g id="path3401">
            <path d="M704.656,945.221C692.656,969.283 683.906,993.975 682.364,1020.38C680.948,1030.09 686.864,1030.25 687.739,1023.41C704.739,958.442 795.073,976.033 791.989,1037.15C789.448,1086.71 740.239,1097.37 714.573,1081.17C704.406,1075.2 704.989,1078.77 710.531,1084.97C748.656,1127.51 725.573,1182.3 674.031,1183.31C618.281,1180 603.781,1121.35 637.989,1086.86C642.239,1082.71 651.656,1069.39 637.489,1078.7C602.948,1103.24 555.031,1076.86 556.031,1039.04C557.823,969.292 642.864,964.088 661.031,1022.35C662.781,1028.8 667.823,1032.05 666.406,1021.08C663.906,1001.22 658.698,971.271 643.781,945.221L704.656,945.221Z" style="fill-rule:nonzero;"/>
        </g>
        <g id="path3403">
            <path d="M289.948,945.221C277.948,969.283 269.198,993.975 267.656,1020.38C266.239,1030.09 272.114,1030.25 273.031,1023.41C289.989,958.442 380.364,976.033 377.281,1037.15C374.739,1086.71 325.531,1097.37 299.823,1081.17C289.698,1075.2 290.281,1078.77 295.823,1084.97C333.948,1127.51 310.864,1182.3 259.281,1183.31C203.531,1180 189.073,1121.35 223.281,1086.86C227.531,1082.71 236.948,1069.39 222.781,1078.7C188.239,1103.24 140.323,1076.86 141.281,1039.04C143.114,969.292 228.114,964.088 246.323,1022.35C248.073,1028.8 253.114,1032.05 251.698,1021.08C249.198,1001.22 243.989,971.271 229.031,945.221L289.948,945.221Z" style="fill-rule:nonzero;"/>
        </g>
        <g id="path3458">
            <path d="M57.428,314.157C62.428,303.965 67.261,294.486 69.886,283.319C71.636,272.786 68.053,276.698 66.011,283.602C63.011,293.173 54.678,297.536 46.928,297.64C32.886,297.827 25.886,286.786 26.345,274.915C24.803,262.419 37.47,253.582 47.011,254.261C54.178,254.773 60.428,258.644 64.22,261.657C66.72,262.969 69.345,263.552 65.636,260.165C58.678,252.527 52.845,247.815 52.97,236.369C53.095,225.623 62.261,214.419 74.428,214.769C89.678,215.211 96.595,226.811 96.553,237.607C96.511,245.473 92.553,252.715 86.511,257.198C82.553,260.39 83.678,262.782 88.136,259.761C92.47,256.044 97.595,254.419 102.928,254.302C117.47,254.077 123.136,266.644 122.303,278.319C121.553,289.261 112.22,300.523 99.928,299.248C88.97,297.99 83.22,288.79 79.928,279.344C78.845,276.448 77.095,275.665 77.178,279.982C79.678,301.052 87.553,314.165 87.595,314.152L57.428,314.157Z" style="fill-rule:nonzero;"/>
        </g>
        <g id="path3482">
            <path d="M870.958,986.065C866,996.252 861.166,1005.73 858.541,1016.9C856.791,1027.43 860.375,1023.52 862.375,1016.62C865.375,1007.04 873.75,1002.69 881.458,1002.58C895.5,1002.39 902.5,1013.43 902.083,1025.3C903.625,1037.8 890.958,1046.64 881.416,1045.96C874.25,1045.44 867.958,1041.57 864.208,1038.56C861.708,1037.25 859.041,1036.66 862.75,1040.05C869.75,1047.69 875.583,1052.41 875.458,1063.85C875.333,1074.59 866.125,1085.8 853.958,1085.45C838.75,1085.01 831.833,1073.41 831.875,1062.61C831.916,1054.74 835.833,1047.5 841.916,1043.02C845.833,1039.83 844.75,1037.44 840.25,1040.46C835.958,1044.17 830.833,1045.8 825.5,1045.91C810.958,1046.14 805.25,1033.57 806.083,1021.9C806.875,1010.96 816.208,999.694 828.458,1000.97C839.416,1002.23 845.166,1011.43 848.5,1020.87C849.583,1023.77 851.291,1024.55 851.25,1020.24C848.708,999.165 840.875,986.052 840.791,986.065L870.958,986.065Z" style="fill-rule:nonzero;"/>
        </g>
    </g>
</svg>
