<?xml version="1.0" encoding="UTF-8" standalone="no"?>
<!DOCTYPE svg PUBLIC "-//W3C//DTD SVG 1.1//EN" "http://www.w3.org/Graphics/SVG/1.1/DTD/svg11.dtd">
<svg width="100%" height="100%" viewBox="0 0 934 1300" version="1.1" xmlns="http://www.w3.org/2000/svg" xmlns:xlink="http://www.w3.org/1999/xlink" xml:space="preserve" xmlns:serif="http://www.serif.com/" style="fill-rule:evenodd;clip-rule:evenodd;stroke-linejoin:round;stroke-miterlimit:2;">
    <g id="_4D" serif:id="4D">
        <g id="path3656">
            <path d="M146.715,229.274C188.049,188.932 215.194,144.951 241.161,102.652C263.929,149.191 296.606,189.91 331.931,229.274C294.135,268.312 264.832,310.046 241.274,353.926C215.157,308.942 187.66,268.211 146.715,229.274Z" style="fill:rgb(212,0,0);fill-rule:nonzero;"/>
        </g>
        <g id="path3658">
            <path d="M146.715,1057.8C188.049,1017.45 215.194,973.474 241.161,931.175C263.929,977.727 296.606,1018.43 331.931,1057.8C294.135,1096.83 264.832,1138.58 241.274,1182.46C215.157,1137.48 187.66,1096.75 146.715,1057.8Z" style="fill:rgb(212,0,0);fill-rule:nonzero;"/>
        </g>
        <g id="path3660">
            <path d="M611.43,229.274C652.775,188.932 679.921,144.951 705.875,102.652C728.643,149.191 761.321,189.91 796.658,229.274C758.85,268.312 729.546,310.046 705.988,353.926C679.871,308.942 652.386,268.211 611.43,229.274Z" style="fill:rgb(212,0,0);fill-rule:nonzero;"/>
        </g>
        <g id="path3664">
            <path d="M611.43,1057.8C652.775,1017.45 679.921,973.474 705.875,931.175C728.643,977.727 761.321,1018.43 796.658,1057.8C758.85,1096.83 729.546,1138.58 705.988,1182.46C679.871,1137.48 652.386,1096.75 611.43,1057.8Z" style="fill:rgb(212,0,0);fill-rule:nonzero;"/>
        </g>
        <g id="path3738">
            <path d="M816.39,1036.18C833.325,1019.65 844.439,1001.64 855.076,984.312C864.409,1003.37 877.794,1020.05 892.258,1036.18C876.778,1052.16 864.773,1069.26 855.127,1087.24C844.426,1068.81 833.162,1052.13 816.39,1036.18Z" style="fill:rgb(212,0,0);fill-rule:nonzero;"/>
        </g>
        <g id="path3740">
            <path d="M36.313,264.874C53.248,248.354 64.362,230.328 75,213.004C84.333,232.071 97.705,248.755 112.181,264.874C96.701,280.868 84.696,297.966 75.05,315.942C64.35,297.515 53.085,280.831 36.313,264.874Z" style="fill:rgb(212,0,0);fill-rule:nonzero;"/>
        </g>
        <g id="path7104-8">
            <path d="M75.941,193.134L75.941,181.418L86.716,181.418L86.716,162.099L32.864,162.099L32.864,148.464L91.132,60.554L100.653,60.591L100.653,148.464L117.123,148.464L117.123,162.099L100.653,162.099L100.339,181.418L109.371,181.418L109.371,193.134L75.941,193.134ZM86.716,92.73L49.723,148.464L86.716,148.464L86.716,92.73Z" style="fill:rgb(212,0,0);fill-rule:nonzero;"/>
        </g>
        <g id="path7159-9">
            <path d="M857.435,1105.9L857.435,1117.62L846.659,1117.62L846.659,1136.94L900.512,1136.94L900.512,1150.56L842.244,1238.47L832.723,1238.45L832.723,1150.56L816.252,1150.56L816.252,1136.94L832.723,1136.94L833.036,1117.62L824.004,1117.62L824.004,1105.9L857.435,1105.9ZM846.659,1206.31L883.652,1150.56L846.659,1150.56L846.659,1206.31Z" style="fill:rgb(212,0,0);fill-rule:nonzero;"/>
        </g>
    </g>
</svg>
