<?xml version="1.0" encoding="UTF-8" standalone="no"?>
<!DOCTYPE svg PUBLIC "-//W3C//DTD SVG 1.1//EN" "http://www.w3.org/Graphics/SVG/1.1/DTD/svg11.dtd">
<svg width="100%" height="100%" viewBox="0 0 934 1300" version="1.1" xmlns="http://www.w3.org/2000/svg" xmlns:xlink="http://www.w3.org/1999/xlink" xml:space="preserve" xmlns:serif="http://www.serif.com/" style="fill-rule:evenodd;clip-rule:evenodd;stroke-linejoin:round;stroke-miterlimit:2;">
    <g id="_5C" serif:id="5C">
        <g id="path7106-7">
            <path d="M36.033,156.804L49.443,156.691C52.002,164.782 57.66,173.049 65.349,175.319C87.063,180.425 101.05,168.295 105.654,154.295C111.236,137.323 105.529,113.489 90.576,105.021C78.182,97.997 59.767,103.917 51.325,118.92L41.917,113.175L46.959,57.253L108.338,57.253L108.338,70.474L58.601,70.474L57.823,93.769C68.511,86.255 84.981,86.33 95.681,91.599C115.94,101.258 125.361,123.236 121.41,149.139C115.953,174.905 103.923,189.507 76.752,191.602C46.571,191.865 35.908,171.104 36.033,156.804Z" style="fill-rule:nonzero;"/>
        </g>
        <g id="path7122-6">
            <path d="M897.986,1143.21L884.564,1143.32C882.018,1135.22 876.348,1126.96 868.671,1124.68C846.956,1119.58 832.97,1131.7 828.366,1145.7C822.784,1162.68 828.491,1186.52 843.432,1194.99C855.838,1202.02 874.253,1196.1 882.695,1181.08L892.103,1186.83L887.048,1242.75L825.681,1242.75L825.681,1229.54L875.419,1229.54L876.197,1206.24C865.509,1213.75 849.039,1213.67 838.339,1208.4C818.067,1198.74 808.659,1176.78 812.598,1150.86C818.067,1125.1 830.084,1110.51 857.255,1108.41C887.449,1108.15 898.112,1128.9 897.986,1143.2L897.986,1143.21Z" style="fill-rule:nonzero;"/>
        </g>
        <g id="path3245">
            <path d="M436.031,769.044C448.031,744.981 456.781,720.29 458.323,693.89C459.74,684.173 453.823,684.01 452.948,690.852C435.948,755.823 345.615,738.231 348.698,677.119C351.24,627.556 400.448,616.894 426.156,633.098C436.281,639.069 435.698,635.494 430.156,629.298C392.031,586.752 415.115,531.96 466.698,530.956C522.448,534.26 536.906,592.915 502.698,627.406C498.448,631.552 489.031,644.873 503.198,635.56C537.74,611.027 585.656,637.402 584.698,675.227C582.865,744.973 497.865,750.177 479.656,691.919C477.906,685.46 472.865,682.215 474.281,693.185C476.781,713.048 481.99,742.994 496.906,769.044L436.031,769.044Z" style="fill-rule:nonzero;"/>
        </g>
        <g id="path3247">
            <path d="M641.615,359.354C653.615,335.287 662.365,310.6 663.906,284.2C665.323,274.483 659.448,274.321 658.531,281.162C641.573,346.133 551.198,328.537 554.323,267.425C556.823,217.867 606.073,207.204 631.74,223.408C641.865,229.379 641.323,225.8 635.781,219.608C597.615,177.063 620.74,122.267 672.281,121.267C728.031,124.571 742.49,183.225 708.281,217.717C704.031,221.862 694.615,235.179 708.823,225.867C743.323,201.333 791.24,227.713 790.281,265.537C788.49,335.283 703.448,340.483 685.281,282.229C683.49,275.771 678.448,272.525 679.865,283.496C682.365,303.358 687.615,333.304 702.531,359.354L641.615,359.354Z" style="fill-rule:nonzero;"/>
        </g>
        <g id="path3249">
            <path d="M230.448,359.354C242.448,335.287 251.198,310.6 252.74,284.2C254.156,274.483 248.281,274.321 247.365,281.162C230.406,346.133 140.031,328.537 143.115,267.425C145.656,217.867 194.906,207.204 220.573,223.408C230.698,229.379 230.115,225.8 224.615,219.608C186.448,177.063 209.531,122.267 261.115,121.267C316.865,124.571 331.323,183.225 297.115,217.717C292.865,221.862 283.448,235.179 297.615,225.867C332.156,201.333 380.073,227.713 379.115,265.537C377.281,335.283 292.281,340.483 274.073,282.229C272.323,275.771 267.281,272.525 268.698,283.496C271.198,303.358 276.406,333.304 291.365,359.354L230.448,359.354Z" style="fill-rule:nonzero;"/>
        </g>
        <g id="path3397">
            <path d="M702.906,940.646C690.906,964.712 682.156,989.4 680.615,1015.8C679.198,1025.52 685.073,1025.68 685.99,1018.84C702.948,953.867 793.323,971.462 790.198,1032.57C787.698,1082.13 738.448,1092.8 712.781,1076.59C702.656,1070.62 703.198,1074.2 708.74,1080.39C746.906,1122.94 723.781,1177.73 672.24,1178.73C616.49,1175.43 602.031,1116.78 636.24,1082.28C640.49,1078.14 649.906,1064.82 635.698,1074.13C601.198,1098.67 553.281,1072.29 554.24,1034.46C556.031,964.717 641.073,959.517 659.24,1017.77C660.99,1024.23 666.031,1027.47 664.656,1016.5C662.156,996.642 656.906,966.696 641.99,940.646L702.906,940.646Z" style="fill-rule:nonzero;"/>
        </g>
        <g id="path3399">
            <path d="M291.698,940.646C279.74,964.712 270.99,989.4 269.448,1015.8C267.99,1025.52 273.906,1025.68 274.781,1018.84C291.781,953.867 382.156,971.462 379.031,1032.57C376.531,1082.13 327.281,1092.8 301.615,1076.59C291.49,1070.62 292.031,1074.2 297.573,1080.39C335.74,1122.94 312.615,1177.73 261.073,1178.73C205.323,1175.43 190.865,1116.78 225.073,1082.28C229.323,1078.14 238.74,1064.82 224.531,1074.13C190.031,1098.67 142.073,1072.29 143.073,1034.46C144.865,964.717 229.906,959.517 248.073,1017.77C249.823,1024.23 254.865,1027.47 253.49,1016.5C250.948,996.642 245.74,966.696 230.823,940.646L291.698,940.646Z" style="fill-rule:nonzero;"/>
        </g>
        <g id="path3460">
            <path d="M60.854,313.017C65.812,302.83 70.646,293.346 73.271,282.18C75.021,271.646 71.437,275.559 69.437,282.463C66.438,292.038 58.063,296.396 50.354,296.501C36.313,296.692 29.271,285.651 29.729,273.776C28.187,261.284 40.854,252.442 50.396,253.121C57.562,253.634 63.854,257.505 67.604,260.517C70.104,261.834 72.771,262.413 69.062,259.026C62.062,251.388 56.229,246.676 56.354,235.23C56.479,224.484 65.687,213.28 77.854,213.63C93.062,214.071 99.979,225.676 99.938,236.467C99.896,244.334 95.979,251.576 89.896,256.063C85.979,259.255 87.062,261.642 91.563,258.621C95.854,254.905 100.979,253.28 106.312,253.167C120.854,252.938 126.562,265.505 125.729,277.184C124.938,288.121 115.604,299.384 103.354,298.109C92.396,296.851 86.646,287.651 83.313,278.205C82.229,275.309 80.521,274.526 80.562,278.842C83.104,299.917 90.937,313.03 90.979,313.017L60.854,313.017Z" style="fill-rule:nonzero;"/>
        </g>
        <g id="path3480">
            <path d="M872.521,988.03C867.521,998.217 862.687,1007.7 860.063,1018.87C858.313,1029.4 861.896,1025.49 863.938,1018.58C866.938,1009.01 875.271,1004.65 883.021,1004.55C897.062,1004.36 904.063,1015.4 903.604,1027.27C905.146,1039.76 892.479,1048.61 882.937,1047.93C875.771,1047.41 869.521,1043.54 865.729,1040.53C863.229,1039.21 860.604,1038.63 864.271,1042.02C871.271,1049.66 877.104,1054.37 876.979,1065.82C876.854,1076.56 867.688,1087.77 855.479,1087.42C840.271,1086.98 833.354,1075.37 833.396,1064.58C833.437,1056.71 837.354,1049.47 843.437,1044.98C847.396,1041.79 846.271,1039.4 841.771,1042.42C837.479,1046.14 832.354,1047.77 827.021,1047.88C812.479,1048.11 806.771,1035.54 807.646,1023.86C808.396,1012.93 817.729,1001.66 829.979,1002.94C840.979,1004.19 846.729,1013.4 850.021,1022.84C851.104,1025.74 852.854,1026.52 852.771,1022.21C850.271,1001.13 842.396,988.017 842.354,988.03L872.521,988.03Z" style="fill-rule:nonzero;"/>
        </g>
    </g>
</svg>
