<?xml version="1.0" encoding="UTF-8" standalone="no"?>
<!DOCTYPE svg PUBLIC "-//W3C//DTD SVG 1.1//EN" "http://www.w3.org/Graphics/SVG/1.1/DTD/svg11.dtd">
<svg width="100%" height="100%" viewBox="0 0 934 1300" version="1.1" xmlns="http://www.w3.org/2000/svg" xmlns:xlink="http://www.w3.org/1999/xlink" xml:space="preserve" xmlns:serif="http://www.serif.com/" style="fill-rule:evenodd;clip-rule:evenodd;stroke-linejoin:round;stroke-miterlimit:2;">
    <g id="_5D" serif:id="5D">
        <g id="path3459">
            <path d="M143.47,241.296C184.804,200.953 211.949,156.973 237.916,114.674C260.684,161.213 293.349,201.932 328.686,241.296C290.89,280.333 261.587,322.068 238.029,365.948C211.912,320.964 184.415,280.233 143.47,241.296Z" style="fill:rgb(212,0,0);fill-rule:nonzero;"/>
        </g>
        <g id="path3463">
            <path d="M143.47,1060.67C184.804,1020.33 211.949,976.351 237.916,934.052C260.684,980.591 293.349,1021.31 328.686,1060.67C290.89,1099.71 261.587,1141.45 238.029,1185.33C211.912,1140.36 184.415,1099.61 143.47,1060.67Z" style="fill:rgb(212,0,0);fill-rule:nonzero;"/>
        </g>
        <g id="path3465">
            <path d="M604.635,241.296C645.98,200.953 673.126,156.973 699.093,114.674C721.848,161.213 754.526,201.932 789.863,241.296C752.055,280.333 722.764,322.068 699.206,365.948C673.089,320.964 645.592,280.233 604.635,241.296Z" style="fill:rgb(212,0,0);fill-rule:nonzero;"/>
        </g>
        <g id="path3467">
            <path d="M374.052,650.972C415.386,610.642 442.532,566.662 468.498,524.363C491.266,570.902 523.944,611.621 559.281,650.972C521.472,690.01 492.169,731.757 468.611,775.637C442.494,730.653 415.009,689.922 374.052,650.972Z" style="fill:rgb(212,0,0);fill-rule:nonzero;"/>
        </g>
        <g id="path3469">
            <path d="M604.635,1060.67C645.98,1020.33 673.126,976.351 699.093,934.052C721.848,980.591 754.526,1021.31 789.863,1060.67C752.055,1099.71 722.764,1141.45 699.206,1185.33C673.089,1140.36 645.592,1099.61 604.635,1060.67Z" style="fill:rgb(212,0,0);fill-rule:nonzero;"/>
        </g>
        <g id="path3742">
            <path d="M817.385,1038.11C834.32,1021.58 845.434,1003.57 856.072,986.242C865.404,1005.31 878.789,1021.98 893.253,1038.11C877.773,1054.11 865.768,1071.2 856.122,1089.18C845.421,1070.75 834.157,1054.06 817.385,1038.11Z" style="fill:rgb(212,0,0);fill-rule:nonzero;"/>
        </g>
        <g id="path3744">
            <path d="M39.441,263.706C56.363,247.185 67.49,229.159 78.127,211.836C87.448,230.903 100.832,247.574 115.308,263.706C99.829,279.7 87.824,296.798 78.178,314.774C67.477,296.346 56.213,279.65 39.441,263.706Z" style="fill:rgb(212,0,0);fill-rule:nonzero;"/>
        </g>
        <g id="path7106-71">
            <path d="M35.69,156.804L49.1,156.691C51.659,164.782 57.316,173.049 65.006,175.319C86.72,180.425 100.707,168.295 105.311,154.295C110.893,137.323 105.185,113.489 90.233,105.021C77.839,97.997 59.424,103.917 50.982,118.92L41.573,113.175L46.616,57.253L107.995,57.253L107.995,70.474L58.257,70.474L57.48,93.769C68.167,86.255 84.638,86.33 95.338,91.599C115.597,101.258 125.018,123.236 121.066,149.139C115.61,174.905 103.58,189.507 76.409,191.602C46.227,191.865 35.565,171.104 35.69,156.804Z" style="fill:rgb(212,0,0);fill-rule:nonzero;"/>
        </g>
        <g id="path7122-7">
            <path d="M897.643,1143.21L884.221,1143.32C881.674,1135.22 876.004,1126.96 868.327,1124.68C846.613,1119.58 832.626,1131.7 828.023,1145.7C822.44,1162.68 828.148,1186.52 843.088,1194.99C855.495,1202.02 873.909,1196.1 882.352,1181.08L891.76,1186.83L886.705,1242.75L825.338,1242.75L825.338,1229.54L875.076,1229.54L875.854,1206.24C865.166,1213.75 848.696,1213.67 837.995,1208.4C817.724,1198.74 808.316,1176.78 812.254,1150.86C817.724,1125.1 829.741,1110.51 856.912,1108.41C887.106,1108.15 897.769,1128.9 897.643,1143.2L897.643,1143.21Z" style="fill:rgb(212,0,0);fill-rule:nonzero;"/>
        </g>
    </g>
</svg>
