<?xml version="1.0" encoding="UTF-8" standalone="no"?>
<!DOCTYPE svg PUBLIC "-//W3C//DTD SVG 1.1//EN" "http://www.w3.org/Graphics/SVG/1.1/DTD/svg11.dtd">
<svg width="100%" height="100%" viewBox="0 0 934 1300" version="1.1" xmlns="http://www.w3.org/2000/svg" xmlns:xlink="http://www.w3.org/1999/xlink" xml:space="preserve" xmlns:serif="http://www.serif.com/" style="fill-rule:evenodd;clip-rule:evenodd;stroke-linejoin:round;stroke-miterlimit:2;">
    <g id="_5H" serif:id="5H">
        <g id="path7106">
            <path d="M35.69,156.804L49.1,156.691C51.659,164.782 57.316,173.049 65.006,175.319C86.72,180.425 100.707,168.295 105.311,154.295C110.893,137.323 105.185,113.489 90.233,105.021C77.839,97.997 59.424,103.917 50.982,118.92L41.573,113.175L46.616,57.253L107.995,57.253L107.995,70.474L58.257,70.474L57.48,93.769C68.167,86.255 84.638,86.33 95.338,91.599C115.597,101.258 125.018,123.236 121.066,149.139C115.61,174.905 103.58,189.507 76.409,191.602C46.227,191.865 35.565,171.104 35.69,156.804Z" style="fill:rgb(212,0,0);fill-rule:nonzero;"/>
        </g>
        <g id="path7122">
            <path d="M897.643,1143.21L884.221,1143.32C881.674,1135.22 876.004,1126.96 868.327,1124.68C846.613,1119.58 832.626,1131.7 828.023,1145.7C822.44,1162.68 828.148,1186.52 843.088,1194.99C855.495,1202.02 873.909,1196.1 882.352,1181.08L891.76,1186.83L886.705,1242.75L825.338,1242.75L825.338,1229.54L875.076,1229.54L875.854,1206.24C865.166,1213.75 848.696,1213.67 837.995,1208.4C817.724,1198.74 808.316,1176.78 812.254,1150.86C817.724,1125.1 829.741,1110.51 856.912,1108.41C887.106,1108.15 897.769,1128.9 897.643,1143.2L897.643,1143.21Z" style="fill:rgb(212,0,0);fill-rule:nonzero;"/>
        </g>
        <g id="path8640">
            <path d="M41.219,252.904C34.636,238.438 33.886,213.717 53.594,210.371C68.428,208.458 74.469,215.363 75.678,225.963C76.261,229.058 78.011,229.246 78.594,225.717C79.428,214.846 90.178,208.5 98.594,210.096C121.636,214.033 120.303,239.379 112.761,256.575C101.386,279.404 89.428,293.817 78.428,316.792C65.761,292.871 51.303,273.438 41.219,252.904Z" style="fill:rgb(212,0,0);fill-rule:nonzero;"/>
        </g>
        <g id="path8524">
            <path d="M185.858,120.531C215.65,118.552 231.15,143.977 234.192,164.015C235.983,167.198 236.983,166.302 237.692,163.84C239.15,138.115 262.15,117.09 283.483,119.965C318.192,120.415 339.275,159.027 333.317,191.71C326.108,231.631 304.608,255.673 288.317,280.431C269.9,306.065 245.108,343.094 237.108,360.919C237.108,360.919 211.9,322.565 179.108,277.46C157.192,247.298 139.65,214.619 137.983,186.481C136.15,154.331 149.358,125.515 185.858,120.531Z" style="fill:rgb(212,0,0);fill-rule:nonzero;"/>
        </g>
        <g id="path8526">
            <path d="M647.067,120.531C676.817,118.552 692.317,143.977 695.358,164.015C697.15,167.198 698.15,166.302 698.858,163.84C700.317,138.115 723.317,117.09 744.65,119.965C779.358,120.415 800.442,159.027 794.525,191.71C787.275,231.631 765.775,255.673 749.483,280.431C731.067,306.065 706.275,343.094 698.275,360.919C698.275,360.919 673.067,322.565 640.275,277.46C618.358,247.298 600.817,214.619 599.192,186.481C597.317,154.331 610.525,125.515 647.067,120.531Z" style="fill:rgb(212,0,0);fill-rule:nonzero;"/>
        </g>
        <g id="path8528">
            <path d="M416.456,530.224C446.248,528.244 461.748,553.669 464.79,573.707C466.581,576.89 467.581,575.994 468.29,573.532C469.748,547.807 492.748,526.782 514.081,529.657C548.79,530.107 569.873,568.719 563.915,601.399C556.706,641.324 535.206,665.361 518.915,690.119C500.498,715.757 475.665,752.786 467.706,770.607C467.706,770.607 442.498,732.257 409.706,687.153C387.79,656.99 370.248,624.307 368.581,596.169C366.748,564.024 379.915,535.207 416.456,530.224Z" style="fill:rgb(212,0,0);fill-rule:nonzero;"/>
        </g>
        <g id="path8588">
            <path d="M185.858,1179.47C215.65,1181.44 231.15,1156.02 234.192,1135.98C235.983,1132.8 236.983,1133.7 237.692,1136.16C239.15,1161.88 262.15,1182.91 283.483,1180.04C318.192,1179.58 339.275,1140.97 333.317,1108.29C326.108,1068.37 304.608,1044.33 288.317,1019.57C269.9,993.931 245.108,956.902 237.108,939.081C237.108,939.081 211.9,977.431 179.108,1022.54C157.192,1052.7 139.65,1085.38 137.983,1113.52C136.15,1145.66 149.358,1174.49 185.858,1179.47Z" style="fill:rgb(212,0,0);fill-rule:nonzero;"/>
        </g>
        <g id="path8590">
            <path d="M647.067,1179.47C676.817,1181.44 692.317,1156.02 695.358,1135.98C697.15,1132.8 698.15,1133.7 698.858,1136.16C700.317,1161.88 723.317,1182.91 744.65,1180.04C779.358,1179.58 800.442,1140.97 794.525,1108.29C787.275,1068.37 765.775,1044.33 749.483,1019.57C731.067,993.931 706.275,956.902 698.275,939.081C698.275,939.081 673.067,977.431 640.275,1022.54C618.358,1052.7 600.817,1085.38 599.192,1113.52C597.317,1145.66 610.525,1174.49 647.067,1179.47Z" style="fill:rgb(212,0,0);fill-rule:nonzero;"/>
        </g>
        <g id="path8656">
            <path d="M819.178,1048.15C812.594,1062.61 811.844,1087.33 831.553,1090.68C846.386,1092.59 852.428,1085.68 853.636,1075.09C854.219,1071.99 855.969,1071.8 856.511,1075.33C857.386,1086.2 868.136,1092.55 876.553,1090.95C899.594,1087.02 898.219,1061.67 890.719,1044.47C879.344,1021.64 867.386,1007.23 856.344,984.258C843.719,1008.18 829.261,1027.61 819.178,1048.15Z" style="fill:rgb(212,0,0);fill-rule:nonzero;"/>
        </g>
    </g>
</svg>
