<?xml version="1.0" encoding="UTF-8" standalone="no"?>
<!DOCTYPE svg PUBLIC "-//W3C//DTD SVG 1.1//EN" "http://www.w3.org/Graphics/SVG/1.1/DTD/svg11.dtd">
<svg width="100%" height="100%" viewBox="0 0 934 1300" version="1.1" xmlns="http://www.w3.org/2000/svg" xmlns:xlink="http://www.w3.org/1999/xlink" xml:space="preserve" xmlns:serif="http://www.serif.com/" style="fill-rule:evenodd;clip-rule:evenodd;stroke-linejoin:round;stroke-miterlimit:2;">
    <g id="_6D" serif:id="6D">
        <g id="path3429">
            <path d="M142.286,239.331C183.62,198.989 210.766,155.009 236.732,112.71C259.5,159.249 292.165,199.968 327.502,239.331C289.694,278.369 260.403,320.104 236.845,363.984C210.728,319.012 183.231,278.269 142.286,239.331Z" style="fill:rgb(212,0,0);fill-rule:nonzero;"/>
        </g>
        <g id="path3431">
            <path d="M142.286,651.389C183.62,611.043 210.766,567.062 236.732,524.763C259.5,571.315 292.165,612.021 327.502,651.389C289.694,690.424 260.403,732.165 236.845,776.046C210.728,731.063 183.231,690.331 142.286,651.389Z" style="fill:rgb(212,0,0);fill-rule:nonzero;"/>
        </g>
        <g id="path3433">
            <path d="M142.286,1062.22C183.62,1021.88 210.766,977.894 236.732,935.595C259.5,982.138 292.165,1022.86 327.502,1062.22C289.694,1101.25 260.403,1142.99 236.845,1186.87C210.728,1141.89 183.231,1101.16 142.286,1062.22Z" style="fill:rgb(212,0,0);fill-rule:nonzero;"/>
        </g>
        <g id="path3439">
            <path d="M607.001,239.331C648.334,198.989 675.48,155.009 701.446,112.71C724.214,159.249 756.892,199.968 792.229,239.331C754.421,278.369 725.117,320.104 701.559,363.984C675.442,319.012 647.958,278.269 607.001,239.331Z" style="fill:rgb(212,0,0);fill-rule:nonzero;"/>
        </g>
        <g id="path3441">
            <path d="M607.001,651.389C648.334,611.043 675.48,567.062 701.446,524.763C724.214,571.315 756.892,612.021 792.229,651.389C754.421,690.424 725.117,732.165 701.559,776.046C675.442,731.063 647.958,690.331 607.001,651.389Z" style="fill:rgb(212,0,0);fill-rule:nonzero;"/>
        </g>
        <g id="path3443">
            <path d="M607.001,1062.22C648.334,1021.88 675.48,977.894 701.446,935.595C724.214,982.138 756.892,1022.86 792.229,1062.22C754.421,1101.25 725.117,1142.99 701.559,1186.87C675.442,1141.89 647.958,1101.16 607.001,1062.22Z" style="fill:rgb(212,0,0);fill-rule:nonzero;"/>
        </g>
        <g id="path3722">
            <path d="M822.574,1033.01C839.508,1016.49 850.635,998.468 861.273,981.142C870.593,1000.21 883.978,1016.89 898.454,1033.01C882.962,1049 870.969,1066.1 861.31,1084.08C850.61,1065.65 839.358,1048.96 822.574,1033.01Z" style="fill:rgb(212,0,0);fill-rule:nonzero;"/>
        </g>
        <g id="path3724">
            <path d="M35.849,258.599C52.783,242.079 63.897,224.065 74.535,206.729C83.868,225.796 97.253,242.48 111.729,258.599C96.237,274.593 84.232,291.691 74.585,309.667C63.885,291.239 52.62,274.556 35.849,258.599Z" style="fill:rgb(212,0,0);fill-rule:nonzero;"/>
        </g>
        <g id="path7108-3">
            <path d="M35.936,150.393C34.243,138.952 34.268,109.373 35.66,100.642C39.95,73.848 50.387,61.604 67.849,57.578C84.796,53.689 108.63,58.029 113.861,80.421L99.674,80.684C91.997,65.543 72.603,69.595 61.69,76.181C52.959,81.437 49.02,103.339 50.713,104.694C50.701,104.694 67.197,92.702 80.192,93.592C107.978,96.427 119.431,120.073 118.465,142.414C117.587,169.284 108.906,190.76 79.452,192.19C51.466,191.136 38.633,176.146 35.936,150.393ZM104.98,143.293C105.143,124.639 96.513,110.69 80.192,109.16C63.885,107.617 47.427,123.247 48.568,142.251C49.71,161.319 57.224,177.388 77.006,177.288C98.281,177.2 104.88,156.564 104.98,143.293Z" style="fill:rgb(212,0,0);fill-rule:nonzero;"/>
        </g>
        <g id="path7161-9">
            <path d="M897.388,1149.61C899.094,1161.05 899.069,1190.63 897.664,1199.36C893.386,1226.15 882.949,1238.4 865.488,1242.42C848.54,1246.32 824.706,1241.98 819.475,1219.58L833.663,1219.31C841.34,1234.45 860.733,1230.4 871.647,1223.82C880.365,1218.56 884.317,1196.66 882.623,1195.31C882.636,1195.31 866.14,1207.3 853.144,1206.41C825.359,1203.57 813.906,1179.93 814.872,1157.58C815.75,1130.71 824.43,1109.24 853.872,1107.81C881.87,1108.86 894.703,1123.85 897.388,1149.61ZM828.344,1156.71C828.194,1175.36 836.824,1189.3 853.144,1190.84C869.452,1192.38 885.91,1176.75 884.768,1157.75C883.627,1138.68 876.1,1122.62 856.318,1122.71C835.043,1122.8 828.457,1143.44 828.344,1156.71Z" style="fill:rgb(212,0,0);fill-rule:nonzero;"/>
        </g>
    </g>
</svg>
