<?xml version="1.0" encoding="UTF-8" standalone="no"?>
<!DOCTYPE svg PUBLIC "-//W3C//DTD SVG 1.1//EN" "http://www.w3.org/Graphics/SVG/1.1/DTD/svg11.dtd">
<svg width="100%" height="100%" viewBox="0 0 934 1300" version="1.1" xmlns="http://www.w3.org/2000/svg" xmlns:xlink="http://www.w3.org/1999/xlink" xml:space="preserve" xmlns:serif="http://www.serif.com/" style="fill-rule:evenodd;clip-rule:evenodd;stroke-linejoin:round;stroke-miterlimit:2;">
    <g>
        <path d="M32.513,156.849C33.177,138.622 39.889,131.773 53.11,122.239C42.573,114.75 38.12,103.749 39.023,94.366C41.193,71.674 59.069,60.321 78.537,60.81C98.019,61.312 114.815,76.491 116.12,92.986C117.262,107.337 112.909,114.249 102.547,121.8C114.853,131.974 122.718,138.672 122.417,156.636C122.116,174.599 106.561,195.975 79.441,196.627C52.32,197.279 31.848,175.088 32.513,156.849ZM108.23,156.912C109.396,140.403 94.531,129.264 77.76,129.101C61.415,128.926 46.8,142.624 46.8,157.439C46.8,173.37 65.805,182.013 78.098,182.063C93.013,182.113 107.226,171.137 108.23,156.912ZM102.873,97.853C103.187,83.954 90.128,73.982 76.668,74.383C64.689,74.747 51.994,83.729 51.981,95.345C51.981,109.896 66.407,117.146 78.726,117.422C89.89,117.673 102.622,108.365 102.873,97.853Z" style="fill-rule:nonzero;"/>
        <path d="M902.468,1143.15C901.804,1161.38 895.092,1168.23 881.871,1177.77C892.408,1185.25 896.861,1196.26 895.958,1205.63C893.788,1228.33 875.925,1239.68 856.444,1239.19C836.962,1238.69 820.166,1223.51 818.861,1207.02C817.719,1192.67 822.072,1185.76 832.434,1178.2C820.128,1168.03 812.263,1161.33 812.564,1143.37C812.865,1125.41 828.42,1104.04 855.54,1103.38C882.661,1102.72 903.133,1124.92 902.468,1143.15ZM826.751,1143.09C825.585,1159.6 840.45,1170.74 857.221,1170.91C873.566,1171.08 888.181,1157.38 888.181,1142.56C888.181,1126.64 869.163,1117.99 856.883,1117.94C841.968,1117.89 827.742,1128.87 826.751,1143.09ZM832.108,1202.14C831.794,1216.05 844.853,1226.02 858.313,1225.62C870.292,1225.26 882.987,1216.28 882.987,1204.65C883.012,1190.11 868.561,1182.85 856.255,1182.58C845.091,1182.33 832.359,1191.64 832.108,1202.14Z" style="fill-rule:nonzero;"/>
        <path d="M651.75,354.779C663.708,330.713 672.458,306.025 674,279.621C675.417,269.908 669.542,269.746 668.667,276.588C651.667,341.558 561.292,323.963 564.417,262.85C566.917,213.292 616.167,202.629 641.833,218.833C651.958,224.804 651.417,221.225 645.875,215.033C607.708,172.488 630.833,117.692 682.375,116.692C738.125,119.996 752.583,178.65 718.375,213.142C714.125,217.288 704.708,230.604 718.917,221.292C753.417,196.758 801.333,223.138 800.375,260.963C798.583,330.708 713.542,335.908 695.375,277.654C693.625,271.196 688.583,267.95 689.958,278.921C692.5,298.783 697.708,328.725 712.625,354.779L651.75,354.779Z" style="fill-rule:nonzero;"/>
        <path d="M651.75,772.479C663.708,748.417 672.458,723.725 674,697.325C675.417,687.608 669.542,687.446 668.667,694.287C651.667,759.258 561.292,741.667 564.417,680.554C566.917,630.992 616.167,620.329 641.833,636.533C651.958,642.504 651.417,638.929 645.875,632.733C607.708,590.187 630.833,535.396 682.375,534.392C738.125,537.696 752.583,596.35 718.375,630.842C714.125,634.987 704.708,648.308 718.917,638.996C753.417,614.462 801.333,640.837 800.375,678.662C798.583,748.408 713.542,753.612 695.375,695.354C693.625,688.896 688.583,685.654 689.958,696.621C692.5,716.483 697.708,746.429 712.625,772.479L651.75,772.479Z" style="fill-rule:nonzero;"/>
        <path d="M220.333,772.479C232.333,748.417 241.083,723.725 242.625,697.325C244.042,687.608 238.167,687.446 237.25,694.287C220.292,759.258 129.917,741.667 133.042,680.554C135.542,630.992 184.75,620.329 210.458,636.533C220.583,642.504 220,638.929 214.5,632.733C176.333,590.187 199.417,535.396 251,534.392C306.75,537.696 321.208,596.35 287,630.842C282.75,634.987 273.333,648.308 287.5,638.996C322.042,614.462 369.958,640.837 369,678.662C367.167,748.408 282.167,753.612 263.958,695.354C262.208,688.896 257.167,685.654 258.583,696.621C261.083,716.483 266.333,746.429 281.25,772.479L220.333,772.479Z" style="fill-rule:nonzero;"/>
        <path d="M429.417,563.629C441.417,539.563 450.167,514.875 451.708,488.475C453.167,478.758 447.25,478.596 446.375,485.438C429.375,550.408 339,532.813 342.125,471.704C344.625,422.142 393.875,411.479 419.542,427.683C429.667,433.654 429.125,430.079 423.583,423.883C385.417,381.337 408.542,326.542 460.083,325.542C515.833,328.846 530.292,387.5 496.083,421.992C491.833,426.137 482.417,439.454 496.625,430.142C531.125,405.608 579.042,431.987 578.083,469.812C576.292,539.558 491.25,544.758 473.083,486.504C471.333,480.046 466.292,476.8 467.667,487.771C470.208,507.633 475.417,537.579 490.333,563.629L429.417,563.629Z" style="fill-rule:nonzero;"/>
        <path d="M220.333,354.779C232.333,330.713 241.083,306.025 242.625,279.621C244.042,269.908 238.167,269.746 237.25,276.588C220.292,341.558 129.917,323.963 133.042,262.85C135.542,213.292 184.75,202.629 210.458,218.833C220.583,224.804 220,221.225 214.5,215.033C176.333,172.488 199.417,117.692 251,116.692C306.75,119.996 321.208,178.65 287,213.142C282.75,217.288 273.333,230.604 287.5,221.292C322.042,196.758 369.958,223.138 369,260.963C367.167,330.708 282.167,335.908 263.958,277.654C262.208,271.196 257.167,267.95 258.583,278.921C261.083,298.783 266.333,328.725 281.25,354.779L220.333,354.779Z" style="fill-rule:nonzero;"/>
        <path d="M713,945.221C701,969.283 692.25,993.975 690.708,1020.38C689.292,1030.09 695.167,1030.25 696.083,1023.41C713.042,958.442 803.417,976.033 800.292,1037.15C797.792,1086.71 748.583,1097.37 722.875,1081.17C712.75,1075.2 713.333,1078.77 718.833,1084.96C757,1127.51 733.875,1182.3 682.333,1183.31C626.583,1180 612.125,1121.35 646.333,1086.85C650.583,1082.71 660,1069.39 645.833,1078.7C611.292,1103.24 563.375,1076.86 564.333,1039.03C566.167,969.288 651.167,964.088 669.375,1022.35C671.125,1028.8 676.125,1032.05 674.75,1021.08C672.25,1001.22 667,971.271 652.083,945.221L713,945.221Z" style="fill-rule:nonzero;"/>
        <path d="M490.708,739.804C478.708,763.871 469.958,788.558 468.417,814.963C467,824.675 472.875,824.838 473.792,817.996C490.75,753.025 581.125,770.621 578,831.733C575.5,881.296 526.25,891.958 500.583,875.75C490.458,869.779 491.042,873.358 496.542,879.55C534.708,922.096 511.583,976.892 460.042,977.892C404.292,974.588 389.833,915.938 424.042,881.442C428.292,877.3 437.708,863.979 423.542,873.292C389,897.825 341.083,871.446 342.042,833.621C343.875,763.875 428.875,758.675 447.083,816.929C448.833,823.388 453.875,826.633 452.458,815.663C449.958,795.8 444.75,765.858 429.792,739.804L490.708,739.804Z" style="fill-rule:nonzero;"/>
        <path d="M281.583,945.221C269.625,969.283 260.875,993.975 259.333,1020.38C257.917,1030.09 263.792,1030.25 264.667,1023.41C281.667,958.442 372.042,976.033 368.917,1037.15C366.417,1086.71 317.167,1097.37 291.5,1081.17C281.375,1075.2 281.917,1078.77 287.458,1084.96C325.625,1127.51 302.5,1182.3 250.958,1183.31C195.208,1180 180.75,1121.35 214.958,1086.85C219.208,1082.71 228.625,1069.39 214.417,1078.7C179.917,1103.24 132,1076.86 132.958,1039.03C134.75,969.288 219.792,964.088 237.958,1022.35C239.708,1028.8 244.75,1032.05 243.375,1021.08C240.833,1001.22 235.625,971.271 220.708,945.221L281.583,945.221Z" style="fill-rule:nonzero;"/>
        <path d="M874.373,993.686C869.406,1003.89 864.573,1013.35 861.935,1024.52C860.19,1035.06 863.765,1031.14 865.794,1024.23C868.798,1014.69 877.135,1010.31 884.877,1010.23C898.923,1010.02 905.927,1021.06 905.494,1032.94C907.027,1045.44 894.365,1054.27 884.819,1053.6C877.64,1053.06 871.385,1049.19 867.598,1046.19C865.115,1044.85 862.456,1044.31 866.16,1047.69C873.152,1055.31 878.981,1060.02 878.852,1071.48C878.731,1082.23 869.544,1093.44 857.373,1093.06C842.156,1092.64 835.24,1081.02 835.273,1070.23C835.315,1062.39 839.248,1055.14 845.323,1050.64C849.256,1047.44 848.152,1045.06 843.665,1048.1C839.352,1051.81 834.219,1053.44 828.894,1053.56C814.352,1053.77 808.665,1041.19 809.498,1029.52C810.277,1018.6 819.594,1007.31 831.869,1008.6C842.831,1009.85 848.59,1019.06 851.89,1028.52C852.981,1031.39 854.706,1032.19 854.66,1027.85C852.127,1006.81 844.277,993.686 844.219,993.686L874.373,993.686Z" style="fill-rule:nonzero;"/>
        <g id="path3458">
            <path d="M60.608,314.157C65.608,303.965 70.441,294.486 73.066,283.319C74.816,272.786 71.233,276.698 69.191,283.602C66.191,293.173 57.858,297.536 50.108,297.64C36.066,297.827 29.066,286.786 29.524,274.915C27.983,262.419 40.649,253.582 50.191,254.261C57.358,254.773 63.608,258.644 67.399,261.657C69.899,262.969 72.524,263.552 68.816,260.165C61.858,252.527 56.024,247.815 56.149,236.369C56.274,225.623 65.441,214.419 77.608,214.769C92.858,215.211 99.774,226.811 99.733,237.607C99.691,245.473 95.733,252.715 89.691,257.198C85.733,260.39 86.858,262.782 91.316,259.761C95.649,256.044 100.774,254.419 106.108,254.302C120.649,254.077 126.316,266.644 125.483,278.319C124.733,289.261 115.399,300.523 103.108,299.248C92.149,297.99 86.399,288.79 83.108,279.344C82.024,276.448 80.274,275.665 80.358,279.982C82.858,301.052 90.733,314.165 90.774,314.152L60.608,314.157Z" style="fill-rule:nonzero;"/>
        </g>
    </g>
</svg>
