<?xml version="1.0" encoding="UTF-8" standalone="no"?>
<!DOCTYPE svg PUBLIC "-//W3C//DTD SVG 1.1//EN" "http://www.w3.org/Graphics/SVG/1.1/DTD/svg11.dtd">
<svg width="100%" height="100%" viewBox="0 0 934 1300" version="1.1" xmlns="http://www.w3.org/2000/svg" xmlns:xlink="http://www.w3.org/1999/xlink" xml:space="preserve" xmlns:serif="http://www.serif.com/" style="fill-rule:evenodd;clip-rule:evenodd;stroke-linejoin:round;stroke-miterlimit:2;">
    <g id="_8H" serif:id="8H">
        <path d="M30.12,156.849C30.785,138.622 37.497,131.773 50.718,122.239C40.181,114.75 35.728,103.749 36.631,94.366C38.801,71.674 56.677,60.321 76.145,60.81C95.627,61.312 112.423,76.491 113.728,92.986C114.869,107.337 110.517,114.249 100.155,121.8C112.461,131.974 120.326,138.672 120.025,156.636C119.724,174.599 104.169,195.975 77.049,196.627C49.928,197.279 29.456,175.088 30.12,156.849ZM105.838,156.912C107.004,140.403 92.139,129.264 75.368,129.101C59.022,128.926 44.408,142.624 44.408,157.439C44.408,173.37 63.413,182.013 75.706,182.063C90.621,182.113 104.834,171.137 105.838,156.912ZM100.481,97.853C100.795,83.954 87.736,73.982 74.276,74.383C62.296,74.747 49.602,83.729 49.589,95.345C49.589,109.896 64.015,117.146 76.334,117.422C87.498,117.673 100.23,108.365 100.481,97.853Z" style="fill:rgb(212,0,0);fill-rule:nonzero;"/>
        <path d="M40.809,262.523C34.184,248.057 33.476,223.332 53.184,219.99C68.018,218.077 74.059,224.982 75.268,235.582C75.851,238.677 77.601,238.865 78.143,235.336C79.018,224.465 89.768,218.119 98.184,219.711C121.184,223.652 119.851,248.998 112.351,266.194C100.976,289.023 89.018,303.436 77.976,326.411C65.309,302.49 50.851,283.057 40.809,262.523Z" style="fill:rgb(212,0,0);fill-rule:nonzero;"/>
        <path d="M903.585,1143.15C902.92,1161.38 896.209,1168.23 882.987,1177.76C893.525,1185.25 897.978,1196.25 897.075,1205.63C894.904,1228.33 877.029,1239.68 857.56,1239.19C838.079,1238.69 821.282,1223.51 819.978,1207.01C818.836,1192.66 823.189,1185.75 833.55,1178.2C821.245,1168.03 813.379,1161.33 813.68,1143.36C813.981,1125.4 829.536,1104.03 856.657,1103.37C883.778,1102.72 904.25,1124.91 903.585,1143.15ZM827.868,1143.09C826.701,1159.6 841.566,1170.74 858.338,1170.9C874.683,1171.07 889.297,1157.38 889.297,1142.56C889.297,1126.63 870.293,1117.99 857.999,1117.94C843.084,1117.89 828.871,1128.86 827.868,1143.09ZM833.224,1202.15C832.911,1216.05 845.969,1226.02 859.429,1225.62C871.409,1225.25 884.104,1216.27 884.116,1204.65C884.116,1190.1 869.69,1182.85 857.372,1182.58C846.208,1182.33 833.475,1191.63 833.224,1202.15Z" style="fill:rgb(212,0,0);fill-rule:nonzero;"/>
        <path d="M892.896,1037.48C899.521,1051.94 900.229,1076.67 880.521,1080.01C865.688,1081.92 859.646,1075.02 858.438,1064.42C857.854,1061.32 856.104,1061.13 855.563,1064.66C854.688,1075.54 843.938,1081.88 835.521,1080.29C812.521,1076.35 813.854,1051 821.354,1033.81C832.729,1010.98 844.688,996.564 855.729,973.589C868.396,997.51 882.854,1016.94 892.896,1037.48Z" style="fill:rgb(212,0,0);fill-rule:nonzero;"/>
        <path d="M186.518,115.552C216.309,113.573 231.809,138.998 234.851,159.036C236.643,162.219 237.643,161.323 238.351,158.861C239.809,133.136 262.809,112.111 284.143,114.986C318.851,115.436 339.934,154.048 334.018,186.732C326.768,226.652 305.268,250.694 288.976,275.452C270.559,301.086 245.768,338.115 237.768,355.936C237.768,355.936 212.559,317.586 179.768,272.482C157.851,242.319 140.309,209.64 138.643,181.502C136.809,149.352 149.976,120.536 186.518,115.552Z" style="fill:rgb(212,0,0);fill-rule:nonzero;"/>
        <path d="M642.934,115.552C672.684,113.573 688.226,138.998 691.226,159.036C693.059,162.219 694.018,161.323 694.726,158.861C696.184,133.136 719.184,112.111 740.518,114.986C775.226,115.436 796.309,154.048 790.393,186.732C783.143,226.652 761.643,250.694 745.351,275.452C726.934,301.086 702.143,338.115 694.143,355.936C694.143,355.936 668.934,317.586 636.143,272.482C614.226,242.319 596.684,209.64 595.059,181.502C593.184,149.352 606.393,120.536 642.934,115.552Z" style="fill:rgb(212,0,0);fill-rule:nonzero;"/>
        <path d="M412.309,324.402C442.059,322.427 457.601,347.848 460.601,367.886C462.434,371.069 463.393,370.173 464.101,367.711C465.559,341.986 488.559,320.961 509.893,323.836C544.601,324.286 565.684,362.898 559.768,395.582C552.518,435.502 531.018,459.544 514.726,484.302C496.309,509.936 471.518,546.965 463.518,564.79C463.518,564.79 438.309,526.436 405.518,481.332C383.601,451.173 366.059,418.49 364.434,390.352C362.559,358.202 375.768,329.386 412.309,324.402Z" style="fill:rgb(212,0,0);fill-rule:nonzero;"/>
        <path d="M186.518,533.252C216.309,531.277 231.809,556.702 234.851,576.74C236.643,579.923 237.643,579.023 238.351,576.561C239.809,550.836 262.809,529.811 284.143,532.686C318.851,533.136 339.934,571.752 334.018,604.432C326.768,644.357 305.268,668.394 288.976,693.152C270.559,718.786 245.768,755.819 237.768,773.64C237.768,773.64 212.559,735.286 179.768,690.182C157.851,660.023 140.309,627.34 138.643,599.202C136.809,567.052 149.976,538.236 186.518,533.252Z" style="fill:rgb(212,0,0);fill-rule:nonzero;"/>
        <path d="M642.934,533.252C672.684,531.277 688.226,556.702 691.226,576.74C693.059,579.923 694.018,579.023 694.726,576.561C696.184,550.836 719.184,529.811 740.518,532.686C775.226,533.136 796.309,571.752 790.393,604.432C783.143,644.357 761.643,668.394 745.351,693.152C726.934,718.786 702.143,755.819 694.143,773.64C694.143,773.64 668.934,735.286 636.143,690.182C614.226,660.023 596.684,627.34 595.059,599.202C593.184,567.052 606.393,538.236 642.934,533.252Z" style="fill:rgb(212,0,0);fill-rule:nonzero;"/>
        <path d="M642.934,1183.64C672.684,1185.62 688.226,1160.19 691.226,1140.15C693.059,1136.97 694.018,1137.87 694.726,1140.33C696.184,1166.05 719.184,1187.08 740.518,1184.2C775.226,1183.75 796.309,1145.14 790.393,1112.46C783.143,1072.54 761.643,1048.49 745.351,1023.74C726.934,998.102 702.143,961.073 694.143,943.248C694.143,943.248 668.934,981.602 636.143,1026.71C614.226,1056.87 596.684,1089.55 595.059,1117.69C593.184,1149.84 606.393,1178.65 642.934,1183.64Z" style="fill:rgb(212,0,0);fill-rule:nonzero;"/>
        <path d="M412.309,978.223C442.059,980.198 457.601,954.773 460.601,934.736C462.434,931.557 463.393,932.452 464.101,934.915C465.559,960.64 488.559,981.665 509.893,978.79C544.601,978.34 565.684,939.723 559.768,907.044C552.518,867.123 531.018,843.082 514.726,818.323C496.309,792.69 471.518,755.661 463.518,737.836C463.518,737.836 438.309,776.19 405.518,821.294C383.601,851.452 366.059,884.136 364.434,912.273C362.559,944.423 375.768,973.24 412.309,978.223Z" style="fill:rgb(212,0,0);fill-rule:nonzero;"/>
        <path d="M186.518,1183.64C216.309,1185.62 231.809,1160.19 234.851,1140.15C236.643,1136.97 237.643,1137.87 238.351,1140.33C239.809,1166.05 262.809,1187.08 284.143,1184.2C318.851,1183.75 339.934,1145.14 334.018,1112.46C326.768,1072.54 305.268,1048.49 288.976,1023.74C270.559,998.102 245.768,961.073 237.768,943.248C237.768,943.248 212.559,981.602 179.768,1026.71C157.851,1056.87 140.309,1089.55 138.643,1117.69C136.809,1149.84 149.976,1178.65 186.518,1183.64Z" style="fill:rgb(212,0,0);fill-rule:nonzero;"/>
    </g>
</svg>
