<?xml version="1.0" encoding="UTF-8" standalone="no"?>
<!DOCTYPE svg PUBLIC "-//W3C//DTD SVG 1.1//EN" "http://www.w3.org/Graphics/SVG/1.1/DTD/svg11.dtd">
<svg width="100%" height="100%" viewBox="0 0 934 1300" version="1.1" xmlns="http://www.w3.org/2000/svg" xmlns:xlink="http://www.w3.org/1999/xlink" xml:space="preserve" xmlns:serif="http://www.serif.com/" style="fill-rule:evenodd;clip-rule:evenodd;stroke-linejoin:round;stroke-miterlimit:2;">
    <g id="_9H" serif:id="9H">
        <path d="M35.892,164.351L48.499,160.424C53.253,172.906 62.875,176.594 73.048,175.803C91.3,174.386 97.359,154.353 98.739,136.64C91.613,144.029 80.926,147.78 71.819,147.416C42.728,145.885 35.277,123.03 35.014,99.083C34.198,78.887 42.703,64.26 57.292,57.561C65.007,54.162 82.682,54.162 90.459,58.189C108.297,67.421 114.908,83.39 113.704,121.487C113.729,152.835 106.93,189.351 72.709,190.129C52.94,192.813 37.911,177.71 35.892,164.351ZM85.417,130.004C91.35,126.316 94.699,122.854 97.371,117.661C99.554,113.408 100.294,111.188 99.667,102.369C98.061,79.639 85.918,66.756 68.319,69.315C58.497,70.745 53.14,76.139 50.054,86.187C44.359,104.715 51.572,126.417 65.082,131.422C71.179,133.667 80.562,133.015 85.417,130.004Z" style="fill:rgb(212,0,0);fill-rule:nonzero;"/>
        <path d="M894.37,1135.65L881.751,1139.57C876.996,1127.09 867.387,1123.41 857.214,1124.2C838.95,1125.62 832.891,1145.65 831.523,1163.37C838.636,1155.97 849.336,1152.22 858.431,1152.58C887.534,1154.12 894.972,1176.98 895.248,1200.92C896.051,1221.12 887.546,1235.74 872.957,1242.44C865.242,1245.84 847.568,1245.84 839.803,1241.82C821.952,1232.58 815.354,1216.61 816.546,1178.52C816.533,1147.17 823.32,1110.66 857.54,1109.88C877.323,1107.19 892.338,1122.29 894.37,1135.65ZM844.833,1170C838.899,1173.68 835.55,1177.15 832.891,1182.34C830.708,1186.6 829.968,1188.81 830.595,1197.63C832.188,1220.36 844.331,1233.25 861.943,1230.69C871.765,1229.26 877.122,1223.86 880.208,1213.82C885.89,1195.28 878.677,1173.58 865.167,1168.58C859.071,1166.33 849.688,1166.98 844.833,1170Z" style="fill:rgb(212,0,0);fill-rule:nonzero;"/>
        <path d="M37.182,243.418C30.557,228.952 29.849,204.227 49.557,200.885C64.39,198.973 70.432,205.877 71.64,216.477C72.224,219.573 73.974,219.76 74.515,216.231C75.39,205.36 86.14,199.014 94.557,200.606C117.557,204.548 116.224,229.893 108.724,247.089C97.349,269.918 85.39,284.331 74.349,307.306C61.682,283.385 47.224,263.952 37.182,243.418Z" style="fill:rgb(212,0,0);fill-rule:nonzero;"/>
        <path d="M188.265,119.877C218.057,117.902 233.557,143.327 236.599,163.364C238.39,166.548 239.39,165.648 240.099,163.185C241.557,137.46 264.557,116.435 285.89,119.31C320.599,119.764 341.682,158.377 335.765,191.056C328.515,230.981 307.015,255.018 290.724,279.777C272.307,305.41 247.515,342.443 239.515,360.264C239.515,360.264 214.307,321.91 181.515,276.806C159.599,246.648 142.057,213.964 140.39,185.827C138.557,153.677 151.724,124.86 188.265,119.877Z" style="fill:rgb(212,0,0);fill-rule:nonzero;"/>
        <path d="M644.682,119.877C674.432,117.902 689.974,143.327 692.974,163.364C694.765,166.548 695.765,165.648 696.474,163.185C697.932,137.46 720.932,116.435 742.265,119.31C776.974,119.764 798.057,158.377 792.14,191.056C784.89,230.981 763.39,255.018 747.099,279.777C728.682,305.41 703.89,342.443 695.89,360.264C695.89,360.264 670.682,321.91 637.89,276.806C615.974,246.648 598.432,213.964 596.807,185.827C594.932,153.677 608.14,124.86 644.682,119.877Z" style="fill:rgb(212,0,0);fill-rule:nonzero;"/>
        <path d="M644.682,392.089C674.432,390.11 689.974,415.535 692.974,435.573C694.765,438.756 695.765,437.86 696.474,435.398C697.932,409.673 720.932,388.648 742.265,391.523C776.974,391.973 798.057,430.585 792.14,463.268C784.89,503.189 763.39,527.231 747.099,551.989C728.682,577.623 703.89,614.652 695.89,632.477C695.89,632.477 670.682,594.123 637.89,549.018C615.974,518.856 598.432,486.177 596.807,458.039C594.932,425.889 608.14,397.073 644.682,392.089Z" style="fill:rgb(212,0,0);fill-rule:nonzero;"/>
        <path d="M416.265,530.227C446.015,528.248 461.557,553.673 464.557,573.71C466.39,576.893 467.349,575.998 468.057,573.535C469.515,547.81 492.515,526.785 513.849,529.66C548.557,530.11 569.64,568.723 563.724,601.402C556.474,641.327 534.974,665.364 518.682,690.123C500.265,715.76 475.474,752.789 467.474,770.61C467.474,770.61 442.265,732.26 409.474,687.156C387.557,656.993 370.015,624.31 368.39,596.173C366.515,564.027 379.724,535.21 416.265,530.227Z" style="fill:rgb(212,0,0);fill-rule:nonzero;"/>
        <path d="M188.265,392.089C218.057,390.11 233.557,415.535 236.599,435.573C238.39,438.756 239.39,437.86 240.099,435.398C241.557,409.673 264.557,388.648 285.89,391.523C320.599,391.973 341.682,430.585 335.765,463.268C328.515,503.189 307.015,527.231 290.724,551.989C272.307,577.623 247.515,614.652 239.515,632.477C239.515,632.477 214.307,594.123 181.515,549.018C159.599,518.856 142.057,486.177 140.39,458.039C138.557,425.889 151.724,397.073 188.265,392.089Z" style="fill:rgb(212,0,0);fill-rule:nonzero;"/>
        <path d="M644.682,910.381C674.432,912.356 689.974,886.935 692.974,866.898C694.765,863.714 695.765,864.61 696.474,867.073C697.932,892.798 720.932,913.823 742.265,910.948C776.974,910.498 798.057,871.885 792.14,839.202C784.89,799.281 763.39,775.239 747.099,750.481C728.682,724.848 703.89,687.818 695.89,669.993C695.89,669.993 670.682,708.348 637.89,753.452C615.974,783.614 598.432,816.293 596.807,844.431C594.932,876.581 608.14,905.398 644.682,910.381Z" style="fill:rgb(212,0,0);fill-rule:nonzero;"/>
        <path d="M644.682,1181.66C674.432,1183.63 689.974,1158.21 692.974,1138.17C694.765,1134.99 695.765,1135.88 696.474,1138.34C697.932,1164.07 720.932,1185.1 742.265,1182.22C776.974,1181.77 798.057,1143.16 792.14,1110.48C784.89,1070.55 763.39,1046.51 747.099,1021.76C728.682,996.118 703.89,959.089 695.89,941.268C695.89,941.268 670.682,979.618 637.89,1024.72C615.974,1054.88 598.432,1087.57 596.807,1115.71C594.932,1147.85 608.14,1176.67 644.682,1181.65L644.682,1181.66Z" style="fill:rgb(212,0,0);fill-rule:nonzero;"/>
        <path d="M188.265,1181.66C218.057,1183.63 233.557,1158.21 236.599,1138.17C238.39,1134.99 239.39,1135.88 240.099,1138.34C241.557,1164.07 264.557,1185.1 285.89,1182.22C320.599,1181.77 341.682,1143.16 335.765,1110.48C328.515,1070.55 307.015,1046.51 290.724,1021.76C272.307,996.118 247.515,959.089 239.515,941.268C239.515,941.268 214.307,979.618 181.515,1024.72C159.599,1054.88 142.057,1087.57 140.39,1115.71C138.557,1147.85 151.724,1176.67 188.265,1181.65L188.265,1181.66Z" style="fill:rgb(212,0,0);fill-rule:nonzero;"/>
        <path d="M188.265,910.381C218.057,912.356 233.557,886.935 236.599,866.898C238.39,863.714 239.39,864.61 240.099,867.073C241.557,892.798 264.557,913.823 285.89,910.948C320.599,910.498 341.682,871.885 335.765,839.202C328.515,799.281 307.015,775.239 290.724,750.481C272.307,724.848 247.515,687.818 239.515,669.993C239.515,669.993 214.307,708.348 181.515,753.452C159.599,783.614 142.057,816.293 140.39,844.431C138.557,876.581 151.724,905.398 188.265,910.381Z" style="fill:rgb(212,0,0);fill-rule:nonzero;"/>
        <path d="M823.89,1038.66C817.307,1053.13 816.557,1077.85 836.265,1081.19C851.099,1083.1 857.14,1076.2 858.349,1065.6C858.932,1062.51 860.682,1062.31 861.265,1065.84C862.099,1076.71 872.849,1083.06 881.265,1081.47C904.307,1077.53 902.974,1052.18 895.432,1034.99C884.057,1012.16 872.099,997.748 861.099,974.768C848.432,998.689 833.974,1018.13 823.89,1038.66Z" style="fill:rgb(212,0,0);fill-rule:nonzero;"/>
    </g>
</svg>
