<?xml version="1.0" encoding="UTF-8" standalone="no"?>
<!DOCTYPE svg PUBLIC "-//W3C//DTD SVG 1.1//EN" "http://www.w3.org/Graphics/SVG/1.1/DTD/svg11.dtd">
<svg width="100%" height="100%" viewBox="0 0 934 1300" version="1.1" xmlns="http://www.w3.org/2000/svg" xmlns:xlink="http://www.w3.org/1999/xlink" xml:space="preserve" xmlns:serif="http://www.serif.com/" style="fill-rule:evenodd;clip-rule:evenodd;stroke-linejoin:round;stroke-miterlimit:2;">
    <g>
        <path d="M37.428,164.351L50.035,160.424C54.79,172.906 64.411,176.594 74.584,175.803C92.836,174.386 98.895,154.353 100.275,136.64C93.15,144.029 82.462,147.78 73.355,147.416C44.265,145.885 36.814,123.03 36.55,99.083C35.735,78.887 44.24,64.26 58.829,57.561C66.544,54.162 84.218,54.162 91.996,58.189C109.834,67.421 116.445,83.39 115.24,121.487C115.265,152.835 108.466,189.351 74.246,190.129C54.476,192.813 39.448,177.71 37.428,164.351ZM86.953,130.004C92.886,126.316 96.236,122.854 98.908,117.661C101.09,113.408 101.83,111.188 101.203,102.369C99.598,79.639 87.455,66.756 69.855,69.315C60.033,70.745 54.677,76.139 51.591,86.187C45.896,104.715 53.109,126.417 66.619,131.422C72.715,133.667 82.098,133.015 86.953,130.004Z" style="fill-rule:nonzero;"/>
        <path d="M895.907,1135.65L883.287,1139.57C878.533,1127.09 868.924,1123.41 858.751,1124.2C840.486,1125.62 834.427,1145.65 833.06,1163.37C840.172,1155.97 850.873,1152.22 859.967,1152.58C889.07,1154.12 896.509,1176.98 896.785,1200.92C897.588,1221.12 889.083,1235.74 874.494,1242.44C866.779,1245.84 849.104,1245.84 841.339,1241.82C823.489,1232.58 816.89,1216.61 818.082,1178.52C818.07,1147.17 824.856,1110.66 859.077,1109.88C878.859,1107.19 893.874,1122.29 895.907,1135.65ZM846.369,1170C840.436,1173.68 837.087,1177.15 834.427,1182.34C832.245,1186.6 831.504,1188.81 832.132,1197.63C833.725,1220.36 845.868,1233.25 863.48,1230.69C873.302,1229.26 878.658,1223.86 881.744,1213.82C887.427,1195.28 880.214,1173.58 866.704,1168.58C860.607,1166.33 851.224,1166.98 846.369,1170Z" style="fill-rule:nonzero;"/>
        <path d="M222.76,287.364C222.843,278.927 216.177,278.764 216.218,284.923C215.677,315.877 189.51,331.118 170.468,327.502C141.177,321.931 131.802,292.827 132.093,275.689C132.968,222.785 186.218,183.777 234.26,115.96C269.468,177.173 327.593,225.252 331.01,272.568C335.593,335.477 255.968,358.943 244.593,285.623C243.885,280.443 237.802,278.118 238.26,285.352C239.968,305.443 237.51,313.814 260.177,363.348L200.927,363.348C214.052,340.202 221.885,311.789 222.76,287.364Z" style="fill-rule:nonzero;"/>
        <path d="M687.51,287.364C687.552,278.927 680.885,278.764 680.968,284.923C680.385,315.877 654.218,331.118 635.218,327.502C605.885,321.931 596.51,292.827 596.802,275.689C597.677,222.785 650.927,183.777 698.968,115.96C734.177,177.173 792.302,225.252 795.76,272.568C800.302,335.477 720.718,358.943 709.343,285.623C708.593,280.443 702.51,278.118 702.968,285.352C704.718,305.443 702.26,313.814 724.927,363.348L665.677,363.348C678.76,340.202 686.593,311.789 687.51,287.364Z" style="fill-rule:nonzero;"/>
        <path d="M687.51,559.577C687.552,551.135 680.885,550.973 680.968,557.135C680.385,588.089 654.218,603.331 635.218,599.714C605.885,594.139 596.51,565.039 596.802,547.898C597.677,494.998 650.927,455.989 698.968,388.173C734.177,449.385 792.302,497.46 795.76,544.781C800.302,607.689 720.718,631.152 709.343,557.831C708.593,552.652 702.51,550.327 702.968,557.56C704.718,577.656 702.26,586.027 724.927,635.56L665.677,635.56C678.76,612.414 686.593,583.998 687.51,559.577Z" style="fill-rule:nonzero;"/>
        <path d="M222.76,559.577C222.843,551.135 216.177,550.973 216.218,557.135C215.677,588.089 189.51,603.331 170.468,599.714C141.177,594.139 131.802,565.039 132.093,547.898C132.968,494.998 186.218,455.989 234.26,388.173C269.468,449.385 327.593,497.46 331.01,544.781C335.593,607.689 255.968,631.152 244.593,557.831C243.885,552.652 237.802,550.327 238.26,557.56C239.968,577.656 237.51,586.027 260.177,635.56L200.927,635.56C214.052,612.414 221.885,583.998 222.76,559.577Z" style="fill-rule:nonzero;"/>
        <path d="M687.552,1014.27C687.593,1022.71 680.927,1022.87 681.01,1016.71C680.427,985.76 654.26,970.518 635.26,974.131C605.927,979.706 596.552,1008.81 596.843,1025.95C597.718,1078.85 650.968,1117.86 699.01,1185.67C734.218,1124.46 792.343,1076.38 795.802,1029.07C800.343,966.16 720.76,942.693 709.385,1016.01C708.635,1021.19 702.552,1023.52 703.01,1016.28C704.76,996.189 702.302,987.823 724.968,938.289L665.718,938.289C678.843,961.435 686.635,989.848 687.552,1014.27Z" style="fill-rule:nonzero;"/>
        <path d="M687.552,742.998C687.593,751.439 680.927,751.598 681.01,745.439C680.427,714.485 654.26,699.243 635.26,702.86C605.927,708.435 596.552,737.535 596.843,754.677C597.718,807.577 650.968,846.585 699.01,914.402C734.218,853.189 792.343,805.11 795.802,757.793C800.343,694.885 720.76,671.423 709.385,744.743C708.635,749.923 702.552,752.248 703.01,745.014C704.76,724.918 702.302,716.548 724.968,667.014L665.718,667.014C678.843,690.16 686.635,718.577 687.552,742.998Z" style="fill-rule:nonzero;"/>
        <path d="M458.01,602.331C458.052,610.773 451.385,610.935 451.468,604.773C450.885,573.818 424.718,558.581 405.718,562.193C376.385,567.768 367.052,596.868 367.302,614.01C368.177,666.91 421.427,705.918 469.468,773.735C504.677,712.527 562.802,664.448 566.26,617.131C570.843,554.223 491.218,530.756 479.843,604.077C479.093,609.256 473.01,611.581 473.468,604.348C475.218,584.252 472.76,575.885 495.427,526.352L436.177,526.352C449.302,549.493 457.093,577.91 458.01,602.331Z" style="fill-rule:nonzero;"/>
        <path d="M222.802,742.998C222.885,751.439 216.218,751.598 216.26,745.439C215.718,714.485 189.552,699.243 170.51,702.86C141.218,708.435 131.843,737.535 132.135,754.677C133.01,807.577 186.26,846.585 234.302,914.402C269.51,853.189 327.635,805.11 331.052,757.793C335.635,694.885 256.01,671.423 244.677,744.743C243.927,749.923 237.843,752.248 238.302,745.014C240.01,724.918 237.593,716.548 260.218,667.014L200.968,667.014C214.093,690.16 221.927,718.577 222.802,742.998Z" style="fill-rule:nonzero;"/>
        <path d="M222.802,1014.27C222.885,1022.71 216.218,1022.87 216.26,1016.71C215.718,985.76 189.552,970.518 170.51,974.131C141.218,979.706 131.843,1008.81 132.135,1025.95C133.01,1078.85 186.26,1117.86 234.302,1185.67C269.51,1124.46 327.635,1076.38 331.052,1029.07C335.635,966.16 256.01,942.693 244.677,1016.01C243.927,1021.19 237.843,1023.52 238.302,1016.28C240.01,996.189 237.593,987.823 260.218,938.289L200.968,938.289C214.093,961.435 221.927,989.848 222.802,1014.27Z" style="fill-rule:nonzero;"/>
        <path d="M73.052,281.152C73.093,277.518 69.302,279.214 68.802,280.356C63.968,288.631 56.885,290.556 49.843,287.573C42.927,284.618 39.01,278.073 39.635,268.731C40.927,254.406 52.302,238.731 57.802,229.873C63.01,221.831 68.718,212.281 74.76,200.064C81.843,214.077 85.427,218.064 93.135,230.86C99.885,242.127 109.343,253.164 110.052,266.785C110.052,277.139 105.718,286.918 95.927,288.702C90.343,289.71 85.177,286.86 81.302,280.214C80.135,278.518 77.76,279.402 77.802,281.723C78.51,290.443 81.802,298.318 89.593,307.606L60.927,307.606C66.802,301.039 72.76,292.173 73.052,281.152Z" style="fill-rule:nonzero;"/>
        <path d="M859.802,1000.92C859.843,1004.56 856.052,1002.86 855.552,1001.71C850.677,993.443 843.593,991.518 836.593,994.502C829.635,997.456 825.76,1004 826.385,1013.34C827.677,1027.67 839.01,1043.34 844.51,1052.2C849.718,1060.24 855.468,1069.79 861.51,1082.01C868.552,1068 872.177,1064.01 879.843,1051.21C886.635,1039.94 896.093,1028.91 896.802,1015.28C896.802,1004.93 892.427,995.152 882.635,993.373C877.093,992.364 871.885,995.21 868.052,1001.86C866.885,1003.55 864.51,1002.67 864.552,1000.35C865.218,991.627 868.51,983.756 876.343,974.468L847.635,974.468C853.51,981.035 859.51,989.902 859.802,1000.92Z" style="fill-rule:nonzero;"/>
    </g>
</svg>
