<?xml version="1.0" encoding="UTF-8" standalone="no"?>
<!DOCTYPE svg PUBLIC "-//W3C//DTD SVG 1.1//EN" "http://www.w3.org/Graphics/SVG/1.1/DTD/svg11.dtd">
<svg width="100%" height="100%" viewBox="0 0 934 1300" version="1.1" xmlns="http://www.w3.org/2000/svg" xmlns:xlink="http://www.w3.org/1999/xlink" xml:space="preserve" xmlns:serif="http://www.serif.com/" style="fill-rule:evenodd;clip-rule:evenodd;stroke-linejoin:round;stroke-miterlimit:2;">
    <g id="AC">
        <path d="M33.11,191.903L33.11,180.5L44.2,180.5L67.795,58.532L81.218,58.532L107.234,180.5L116.179,180.5L116.179,191.903L85.696,191.903L85.696,180.5L93.925,180.5L90.651,161.809L59.88,161.809L57.497,180.5L65.738,180.5L65.738,191.903L33.11,191.903ZM88.017,148.5L74.645,83.207L62.113,148.5L88.017,148.5Z" style="fill-rule:nonzero;"/>
        <path d="M902.929,1107.23L902.929,1118.63L891.84,1118.63L868.244,1240.6L854.809,1240.6L828.805,1118.63L819.848,1118.63L819.848,1107.23L850.343,1107.23L850.343,1118.63L842.102,1118.63L845.388,1137.33L876.159,1137.33L878.53,1118.63L870.301,1118.63L870.301,1107.23L902.929,1107.23ZM848.023,1150.63L861.395,1215.93L873.914,1150.63L848.023,1150.63Z" style="fill-rule:nonzero;"/>
        <path d="M437.384,768.595C449.384,744.528 458.134,719.84 459.676,693.436C461.092,683.724 455.217,683.557 454.301,690.403C437.342,755.37 346.967,737.778 350.051,676.665C352.592,627.103 401.801,616.44 427.509,632.649C437.634,638.615 437.051,635.04 431.509,628.849C393.384,586.299 416.467,531.507 468.051,530.503C523.801,533.811 538.259,592.461 504.051,626.957C499.801,631.099 490.384,644.42 504.551,635.107C539.092,610.574 587.009,636.953 586.009,674.778C584.217,744.524 499.217,749.724 481.009,691.47C479.259,685.007 474.217,681.765 475.634,692.736C478.134,712.595 483.342,742.54 498.259,768.595L437.384,768.595Z" style="fill-rule:nonzero;"/>
        <path d="M56.746,313.199C61.713,303.011 66.546,293.528 69.18,282.361C70.93,271.828 67.355,275.745 65.326,282.645C62.321,292.22 53.984,296.578 46.242,296.682C32.196,296.874 25.192,285.832 25.626,273.957C24.092,261.465 36.755,252.624 46.301,253.303C53.476,253.815 59.734,257.69 63.521,260.703C66.005,262.015 68.663,262.595 64.959,259.207C57.967,251.57 52.138,246.857 52.267,235.411C52.388,224.67 61.571,213.461 73.746,213.815C88.963,214.253 95.88,225.857 95.846,236.649C95.805,244.515 91.871,251.757 85.796,256.245C81.863,259.436 82.967,261.828 87.455,258.807C91.767,255.09 96.901,253.461 102.226,253.349C116.759,253.12 122.467,265.686 121.634,277.365C120.842,288.303 111.526,299.565 99.251,298.29C88.288,297.036 82.53,287.832 79.23,278.386C78.134,275.49 76.413,274.707 76.459,279.024C78.992,300.099 86.842,313.211 86.896,313.199L56.746,313.199Z" style="fill-rule:nonzero;"/>
        <path d="M875.384,987.503C870.384,997.69 865.551,1007.17 862.926,1018.34C861.176,1028.87 864.759,1024.96 866.801,1018.05C869.801,1008.48 878.134,1004.12 885.884,1004.02C899.926,1003.83 906.926,1014.87 906.509,1026.74C908.009,1039.24 895.342,1048.08 885.801,1047.39C878.634,1046.88 872.384,1043.01 868.592,1040C866.092,1038.69 863.467,1038.1 867.176,1041.5C874.134,1049.13 879.967,1053.85 879.842,1065.29C879.717,1076.03 870.551,1087.24 858.384,1086.89C843.134,1086.45 836.217,1074.85 836.259,1064.05C836.301,1056.18 840.259,1048.94 846.301,1044.46C850.259,1041.27 849.134,1038.87 844.676,1041.89C840.342,1045.61 835.217,1047.24 829.884,1047.35C815.342,1047.58 809.676,1035.02 810.509,1023.34C811.259,1012.39 820.592,1001.13 832.884,1002.41C843.842,1003.67 849.592,1012.87 852.884,1022.31C853.967,1025.21 855.717,1025.99 855.634,1021.67C853.134,1000.6 845.259,987.49 845.217,987.503L875.384,987.503Z" style="fill-rule:nonzero;"/>
    </g>
</svg>
