<?xml version="1.0" encoding="UTF-8" standalone="no"?>
<!DOCTYPE svg PUBLIC "-//W3C//DTD SVG 1.1//EN" "http://www.w3.org/Graphics/SVG/1.1/DTD/svg11.dtd">
<svg width="100%" height="100%" viewBox="0 0 934 1300" version="1.1" xmlns="http://www.w3.org/2000/svg" xmlns:xlink="http://www.w3.org/1999/xlink" xml:space="preserve" xmlns:serif="http://www.serif.com/" style="fill-rule:evenodd;clip-rule:evenodd;stroke-linejoin:round;stroke-miterlimit:2;">
    <g id="AD">
        <path d="M373.45,650.552C414.784,610.21 441.929,566.229 467.896,523.93C490.664,570.469 523.342,611.188 558.679,650.552C520.87,689.59 491.567,731.324 468.009,775.204C441.892,730.22 414.407,689.489 373.45,650.552Z" style="fill:rgb(212,0,0);fill-rule:nonzero;"/>
        <path d="M819.223,1038.06C836.158,1021.54 847.284,1003.51 857.909,986.186C867.242,1005.25 880.627,1021.92 895.103,1038.06C879.611,1054.05 867.606,1071.15 857.959,1089.12C847.259,1070.7 836.007,1054 819.223,1038.06Z" style="fill:rgb(212,0,0);fill-rule:nonzero;"/>
        <path d="M34.304,264.365C51.239,247.831 62.365,229.818 73.003,212.494C82.323,231.561 95.708,248.233 110.184,264.365C94.692,280.346 82.7,297.444 73.041,315.42C62.353,296.992 51.088,280.308 34.304,264.365Z" style="fill:rgb(212,0,0);fill-rule:nonzero;"/>
        <path d="M31.758,192.336L31.758,180.933L42.847,180.933L66.442,58.965L79.865,58.965L105.881,180.933L114.826,180.933L114.826,192.336L84.343,192.336L84.343,180.933L92.572,180.933L89.298,162.242L58.527,162.242L56.144,180.933L64.385,180.933L64.385,192.336L31.758,192.336ZM86.664,148.932L73.292,83.64L60.76,148.932L86.664,148.932Z" style="fill:rgb(212,0,0);fill-rule:nonzero;"/>
        <path d="M901.576,1107.66L901.576,1119.07L890.487,1119.07L866.891,1241.04L853.456,1241.04L827.452,1119.07L818.495,1119.07L818.495,1107.66L848.99,1107.66L848.99,1119.07L840.749,1119.07L844.035,1137.76L874.806,1137.76L877.177,1119.07L868.948,1119.07L868.948,1107.66L901.576,1107.66ZM846.67,1151.07L860.042,1216.36L872.561,1151.07L846.67,1151.07Z" style="fill:rgb(212,0,0);fill-rule:nonzero;"/>
    </g>
</svg>
