<?xml version="1.0" encoding="UTF-8" standalone="no"?>
<!DOCTYPE svg PUBLIC "-//W3C//DTD SVG 1.1//EN" "http://www.w3.org/Graphics/SVG/1.1/DTD/svg11.dtd">
<svg width="100%" height="100%" viewBox="0 0 934 1300" version="1.1" xmlns="http://www.w3.org/2000/svg" xmlns:xlink="http://www.w3.org/1999/xlink" xml:space="preserve" xmlns:serif="http://www.serif.com/" style="fill-rule:evenodd;clip-rule:evenodd;stroke-linejoin:round;stroke-miterlimit:2;">
    <g id="AH">
        <path d="M31.758,192.336L31.758,180.933L42.847,180.933L66.442,58.965L79.865,58.965L105.881,180.933L114.826,180.933L114.826,192.336L84.343,192.336L84.343,180.933L92.572,180.933L89.298,162.242L58.527,162.242L56.144,180.933L64.385,180.933L64.385,192.336L31.758,192.336ZM86.664,148.932L73.292,83.64L60.76,148.932L86.664,148.932Z" style="fill:rgb(212,0,0);fill-rule:nonzero;"/>
        <path d="M901.576,1107.66L901.576,1119.07L890.487,1119.07L866.891,1241.04L853.456,1241.04L827.452,1119.07L818.495,1119.07L818.495,1107.66L848.99,1107.66L848.99,1119.07L840.749,1119.07L844.035,1137.76L874.806,1137.76L877.177,1119.07L868.948,1119.07L868.948,1107.66L901.576,1107.66ZM846.67,1151.07L860.042,1216.36L872.561,1151.07L846.67,1151.07Z" style="fill:rgb(212,0,0);fill-rule:nonzero;"/>
        <path d="M36.135,253.519C29.51,239.052 28.802,214.331 48.51,210.985C63.343,209.077 69.385,215.977 70.593,226.577C71.177,229.673 72.927,229.86 73.468,226.335C74.343,215.46 85.093,209.114 93.51,210.71C116.51,214.648 115.177,239.994 107.677,257.189C96.302,280.023 84.343,294.431 73.302,317.406C60.635,293.485 46.218,274.052 36.135,253.519Z" style="fill:rgb(212,0,0);fill-rule:nonzero;"/>
        <path d="M416.468,530.206C446.218,528.227 461.76,553.652 464.802,573.689C466.593,576.873 467.593,575.977 468.26,573.514C469.718,547.789 492.76,526.764 514.093,529.639C548.76,530.089 569.843,568.702 563.927,601.381C556.677,641.306 535.177,665.344 518.885,690.102C500.468,715.739 475.677,752.769 467.677,770.589C467.677,770.589 442.468,732.239 409.718,687.135C387.76,656.973 370.218,624.289 368.593,596.152C366.718,564.006 379.927,535.189 416.468,530.206Z" style="fill:rgb(212,0,0);fill-rule:nonzero;"/>
        <path d="M821.052,1048.05C814.427,1062.51 813.718,1087.24 833.427,1090.58C848.26,1092.49 854.302,1085.59 855.51,1074.99C856.093,1071.89 857.843,1071.71 858.385,1075.24C859.26,1086.11 870.01,1092.45 878.427,1090.86C901.468,1086.92 900.093,1061.57 892.593,1044.38C881.218,1021.55 869.26,1007.13 858.218,984.16C845.552,1008.08 831.093,1027.51 821.052,1048.05Z" style="fill:rgb(212,0,0);fill-rule:nonzero;"/>
    </g>
</svg>
