<?xml version="1.0" encoding="UTF-8" standalone="no"?>
<!DOCTYPE svg PUBLIC "-//W3C//DTD SVG 1.1//EN" "http://www.w3.org/Graphics/SVG/1.1/DTD/svg11.dtd">
<svg width="100%" height="100%" viewBox="0 0 934 1300" version="1.1" xmlns="http://www.w3.org/2000/svg" xmlns:xlink="http://www.w3.org/1999/xlink" xml:space="preserve" xmlns:serif="http://www.serif.com/" style="fill-rule:evenodd;clip-rule:evenodd;stroke-linejoin:round;stroke-miterlimit:2;">
    <g id="KC">
        <path d="M675.336,115.402L333.406,117.064L376.827,199.323C465.694,191.331 543.574,198.439 624.708,201.085L675.336,115.402ZM441.811,404.622C441.452,405.101 427.583,408.682 428.999,411.829C465.207,489.344 481.382,552.417 496.501,632.082C504.144,625.879 516.514,626.128 516.514,626.128C510.409,596.544 547.712,592.855 547.955,623.806C555.118,625.467 562.478,625.492 568.942,632.723C571.844,545.665 603.094,455.59 643.44,393.176C597.456,411.372 529.993,456.723 529.993,456.723C529.993,456.723 473.849,433.539 441.811,404.622ZM721.301,413.891C660.102,471.972 636.15,633.203 640.544,635.426C561.658,632.794 537.75,719.733 606.13,766.612C603.427,775.705 596.751,783.102 591.575,791.136C598.628,795.173 606.329,796.035 614.016,796.882C619.852,803.798 625.592,811.779 631.934,812.436C638.815,808.104 643.702,801.763 649.43,796.281C656.579,794.463 663.671,792.45 670.448,789.354C664.446,780.974 657.322,772.501 657.136,764.65C716.586,722.751 708.431,665.774 654.836,636.606C670.801,540.654 694.087,479.36 721.121,435.772L721.301,413.891ZM299.831,488.023C292.06,491.815 287.819,499.819 282.175,506.101C274.43,506.453 266.973,509.098 259.593,512.386C259.593,512.386 277.326,536.874 276.23,538.191C218.728,575.839 219.196,630.868 274.405,667.116C283.764,745.432 217.191,869.37 213.828,865.768L213.712,891.393C260.035,840.158 286.25,747.084 290.843,670.639C385.456,664.343 388.806,572.963 323.675,538.591C318.671,534.001 340.049,512.767 340.049,512.767C334.623,507.423 325.539,506.817 317.589,506.16C312.573,500.167 308.197,494.192 299.831,488.023ZM700,551.264C713.383,581.01 762.249,544.765 770.731,560.593C777.611,569.569 792.602,570.489 791.788,555.368C788.969,540.392 779.11,537.072 739.981,543.597C725.132,546.071 719.046,547.537 719.135,540.774C708.866,528.382 700.064,545.238 700,551.264ZM745.388,594.672C734.414,594.662 732.55,637.545 732.71,650.42C700.948,700.565 797.874,694.865 755.958,640.237C757.412,633.099 750.609,621.461 750.801,616.315C747.361,615.877 745.856,596.515 745.388,594.672ZM186.601,620.451C169.413,620.884 150.515,636.661 178.075,659.348C179.913,659.979 177.146,664.763 178.094,672.121C185.865,688.877 183.763,713.688 189.548,709.877C196.23,705.472 201.816,686.961 200.375,661.11C200.279,659.414 198.036,657.619 198.453,655.785C213.924,630.274 200.842,620.092 186.601,620.451ZM362.49,668.498C358.076,752.254 337.55,834.432 291.035,905.697C331.074,887.04 369.934,862.97 407.538,842.366L495.405,896.739C500.498,894.531 504.022,893.444 507.391,890.112C466.898,830.905 454.367,745.688 436.725,668.598C430.011,673.355 417.384,675.744 417.384,675.744C416.481,702.483 388.428,711.149 382.701,676.276L362.49,668.498ZM150.406,733.841C141.034,734.434 133.987,757.631 160.541,761.067C179.273,763.716 203.27,754.494 215.173,758.765C229.01,780.831 241.432,748.349 222.937,743.05C203.072,737.356 162.61,752.207 158.132,739.586C155.832,735.276 153.033,733.674 150.406,733.841ZM309.78,1096.63L256.768,1190.24L595.701,1188.2L551.396,1098.91C552.152,1097.92 403.368,1116.6 309.78,1096.63Z" style="fill:rgb(226,207,0);fill-rule:nonzero;"/>
        <path d="M383.332,207.33L388.84,220.463C461.642,211.662 537.809,202.548 614.063,221.938C614.063,221.938 619.659,209.795 619.569,208.917C548.518,190.846 389.631,195.534 383.332,207.33ZM457.005,391.767L526.279,436.574C526.279,436.574 559.46,413.136 573.597,403.219L565.014,390.612C535.718,455.192 484.215,404.118 464.905,373.732C464.905,373.732 459.656,385.502 457.005,391.767ZM643.074,413.445C647.878,413.344 650.538,415.193 652.947,420.079C655.673,425.596 656.717,424.236 654.964,417.356C652.199,406.507 663.725,399.448 674.581,406.69C682.416,411.921 682.074,424.576 673.51,426.92C666.592,428.814 666.407,430.628 672.49,430.333C683.393,429.802 686.289,444.346 678.531,451.459C669.609,459.636 658.243,453.84 657.203,443.584C656.725,440.684 656.111,440.725 655.154,442.367C652.404,447.1 652.148,453.252 652.683,458.821L636.579,448.829C642.31,445.991 645.809,444.276 649.956,439.97C650.492,439.408 650.903,438.998 650.899,438.752C650.893,438.314 649.101,438.901 645.819,439.243C636.089,440.257 628.597,433.949 630.591,424.788C632.291,416.994 636.33,413.595 643.074,413.445ZM572.041,666.211C589.561,646.168 611.324,633.303 641.565,635.102C645.413,551.118 674.537,476.437 721.188,409.157L669.87,378.308L649.279,390.727C599.761,460.948 569.348,550.048 572.041,666.211ZM187.399,469.965C187.399,469.965 152.661,495.981 136.519,508.546L137.3,740.122L141.788,741.659C142.109,742.153 141.392,738.226 143.455,736.429C145.138,734.961 147.804,733.295 149.385,732.719C153.852,731.094 154.046,728.118 149.883,725.545C146.65,723.548 145.42,720.462 145.788,715.333C146.049,711.714 145.897,710.923 144.388,708.466C142.511,705.411 142.352,701.548 143.947,697.541C144.689,695.679 144.617,695.178 143.3,692.665C141.613,689.464 141.416,686.016 142.669,682.303C143.148,680.883 143.493,677.78 143.446,675.384C143.28,666.161 150.892,660.042 164.959,658.113C170.458,657.359 170.628,657.133 168.101,652.522C153.858,626.508 185.862,612.953 188.255,617.117L187.399,469.965ZM625.669,482.882C638.672,482.693 649.362,493.061 649.551,506.061C649.74,519.059 639.356,529.754 626.352,529.943C613.356,530.131 602.659,519.743 602.47,506.744C602.282,493.745 612.672,483.071 625.669,482.882ZM625.89,487.083C615.488,487.234 607.18,495.785 607.332,506.193C607.483,516.601 616.035,524.927 626.438,524.776C636.847,524.624 645.173,516.054 645.022,505.646C644.87,495.238 636.299,486.932 625.89,487.083ZM626.381,493.062C633.44,492.96 639.255,498.59 639.358,505.648C639.46,512.706 633.811,518.522 626.752,518.624C619.693,518.727 613.896,513.077 613.794,506.019C613.691,498.961 619.322,493.165 626.381,493.062ZM159.121,502.732C160.075,502.715 161.096,502.86 162.126,503.188C167.996,505.053 170.045,510.217 166.867,515.113C164.373,518.958 164.66,519.287 169.025,517.664C172.46,516.388 174.215,516.79 176.919,519.471C185.044,527.511 172.952,541.027 165.004,532.839C161.063,528.783 160.689,529.978 163.424,536.946C164.302,539.201 165.763,542.707 165.763,542.707L154.106,542.537C154.106,542.537 155.916,537.891 156.755,535.701C158.774,530.419 158.839,529.647 154.633,532.969C145.151,540.46 134.394,527.643 143.12,519.262C144.895,517.557 147.745,517.48 151.708,519.037C154.595,520.171 154.942,519.382 152.776,516.659C148.057,510.734 152.415,502.85 159.121,502.732ZM400.699,523.485C395.96,554.519 400.097,598.07 399.999,621.342C412.636,623.75 412.774,632.359 414.717,643.059C420.862,640.917 434.295,649.992 436.128,649.194C437.529,617.707 421.158,526.305 400.699,523.485ZM610.405,554.587C628.346,556.026 624.908,569.882 619.564,575.574C617.031,578.493 617.498,579.806 620.28,578.126C627.857,573.548 633.87,576.855 636.31,584.741C640.484,598.212 622.778,609.818 614.876,597.726C612.202,593.629 610.563,594.555 611.221,598.842C611.62,602.974 615.659,611.533 615.659,611.533L598.056,609.956C598.056,609.956 603.436,601.009 604.381,598.599C606.339,593.6 605.301,592.268 601.541,596.298C590.533,606.371 575.277,593.474 582.387,580.118C585.892,573.534 592.358,571.404 599.334,576.648C604.036,579.72 605.055,578.389 600.849,574.665C592.989,567.704 599.841,553.74 610.405,554.587ZM159.97,565.587C160.175,565.577 160.367,565.574 160.572,565.578C162.078,565.607 163.66,566.025 165.236,566.912C169.609,569.372 170.808,574.223 168.069,578.443C166.49,580.872 166.948,582.402 168.783,580.815C171.238,578.691 176.659,580.103 178.77,583.413C184.199,591.914 173.59,603.038 166.818,595.96C163.832,592.835 162.689,592.709 163.033,594.761C164.005,598.612 166.542,605.183 166.542,605.183L154.353,605.395C154.353,605.395 156.982,598.485 157.565,594.979C158.018,592.204 156.909,592.608 154.003,595.886C151.179,599.074 148.615,599.404 145.011,597.018C136.129,591.129 143.246,576.011 152.507,581.091C155.704,582.841 156.15,581.83 153.655,578.532C149.2,572.643 153.747,565.888 159.97,565.587ZM792.935,560.188C773.196,580.578 779.39,568.524 788.54,584.066C788.567,594.316 794.553,602.337 789.809,618.512C788.292,621.671 788.16,623.175 788.994,626.355C787.543,644.223 773.233,643.995 759.313,646.767C761.617,646.615 781.361,683.091 744.525,685.946L744.948,834.23L802.703,791.649L802.455,560.187L792.935,560.188ZM359.507,638.476C343.137,649.029 320.128,675.4 291.195,669.67C287.695,762.187 257.335,833.81 214.022,895.364C228.976,904.205 245.435,914.814 260.731,921.62C273.659,914.948 280.923,912.171 293.61,901.727C345.677,821.298 362.186,733.374 359.507,638.476ZM495.469,655.397C498.395,702.911 506.128,747.906 530.845,784.005L532.518,683.027C523.71,680.918 516.49,675.225 513.923,659.08L495.469,655.397ZM316.843,683.427L333.352,683.817C333.352,683.817 329.61,691.283 327.986,695.457C326.016,700.558 326.954,701.597 330.715,698.052C335.619,693.437 343.429,693.009 347.538,697.126C358.454,708.06 347.04,725.88 334.132,718.063C328.605,714.717 327.68,715.839 332.067,720.576C340.594,728.493 331.687,739.892 321.719,739.941C314.511,739.912 309.84,734.148 309.267,727.799C308.991,723.804 311.003,719.796 314.466,717.848C318.082,715.817 315.494,714.497 311.565,716.609C298.742,723.506 290.169,705.792 299.838,695.712C305.417,689.899 311.319,690.441 316.993,695.989C320.951,699.862 322.368,699.518 321.251,694.936C320.126,689.778 316.843,683.427 316.843,683.427ZM762.668,697.332L774.501,697.346C773.34,700.274 771.832,703.259 770.888,706.154C769.87,709.307 770.619,709.709 773.753,706.66C781.912,701.183 790.609,706.662 788.839,715.337C787.619,721.322 782.606,724.257 776.821,721.658C771.714,719.366 773.356,720.348 776.257,723.84C779.707,727.994 778.829,732.841 774.263,736.05C766.189,741.727 755.526,732.295 760.871,724.063C764.023,719.168 762.576,719.699 759.708,722.067C755.404,725.216 748.894,720.758 748.765,714.577C748.271,705.686 757.245,700.683 763.57,706.974C766.586,709.511 767.338,709.201 765.977,705.511C764.727,702.83 764.327,699.959 762.668,697.332ZM763.306,761.993L775.707,761.852C775.707,761.852 775.529,762.8 773.621,766.389C771.375,770.607 771.721,774.97 774.061,772.009C778.018,767.011 786.425,768.403 789.179,774.512C792.383,781.63 786.129,789.492 779.64,786.503C775.422,784.56 775.134,784.979 777.935,789.031C780.663,792.973 779.452,797.816 775.021,800.646C766.312,806.204 755.868,795.107 763.126,788.005C765.065,786.103 764.456,785.177 762.098,786.458C752.487,791.683 745.398,778.691 753.706,771.083C757.247,767.844 759.953,768.066 765.778,772.089C767.59,773.341 767.937,772.051 766.628,768.873C764.403,763.459 763.306,761.993 763.306,761.993ZM302.906,769.772C316.71,769.571 328.05,780.588 328.25,794.39C328.451,808.193 317.436,819.555 303.632,819.755C289.828,819.955 278.469,808.919 278.268,795.116C278.068,781.314 289.102,769.972 302.906,769.772ZM303.195,774.232C291.851,774.397 282.786,783.709 282.951,795.048C283.115,806.388 292.447,815.453 303.791,815.288C315.129,815.123 324.194,805.791 324.029,794.452C323.864,783.112 314.533,774.068 303.195,774.232ZM303.425,782.118C310.407,782.016 316.139,787.585 316.24,794.565C316.341,801.545 310.774,807.298 303.792,807.399C296.816,807.5 291.059,801.913 290.957,794.932C290.856,787.952 296.449,782.219 303.425,782.118ZM272.007,842.674C272.007,842.674 286.436,849.727 286.436,849.727C286.436,849.727 279.616,855.279 276.903,858.139C273.432,861.824 273.669,863.549 278.359,861.787C287.292,858.425 296.239,863.459 296.412,872.733C296.63,885.112 281.994,891.07 274.964,881.697C272.873,878.91 270.377,877.751 271.352,880.027C273.732,885.567 272.277,892.544 268.135,895.411C264.817,897.706 258.741,898.38 255.681,896.793C245.145,891.334 244.598,879.197 254.676,874.403C259.735,871.993 259.907,869.735 254.921,870.976C244.554,873.561 238.503,861.009 245.983,852.386C253.923,843.234 266.866,845.127 268.299,858.669C268.552,861.078 270.199,859.335 270.927,855.645C271.81,852.903 272.007,842.674 272.007,842.674ZM406.501,863.034C406.501,863.034 353.665,893.098 355.279,894.366C355.589,894.55 366.989,910.588 366.989,910.588C393.202,851.196 455.979,900.383 466.03,930.709C468.215,932.048 468.588,931.665 470.954,932.732C471.179,930.589 475.538,909.524 475.538,909.524L406.501,863.034ZM321.771,1081.4C319.128,1084.72 310.269,1094.12 311.389,1094.46C389.033,1111.16 469.112,1109.83 550.626,1100.99L544.409,1081.41C463.916,1101.92 321.771,1081.4 321.771,1081.4Z" style="fill:rgb(212,0,0);fill-rule:nonzero;"/>
        <path d="M125.724,107.631L130.482,1199.24L811.906,1196.84L807.825,106.316L125.724,107.631ZM332.965,115.408L672.823,114.02C656.888,155.405 610.984,220.789 613.152,220.945C542.455,209.264 469.581,203.369 388.082,220.777L332.965,115.408ZM133.59,118.07L324.312,117.823L387.212,230.571C387.212,230.571 390.909,237.606 388.703,244.969C386.295,253.002 384.226,256.568 382.056,260.668C382.272,258.329 363.934,256.009 365.469,271.713C366.508,282.342 379.96,288.354 389.975,280.084C391.575,279.95 391.564,281.435 391.218,284.03C390.287,290.12 383.822,309.446 379.388,310.729C356.804,292.213 348.748,326.027 363.972,332.769C372.787,336.672 386.342,333.446 392.678,322.85C397.526,314.745 396.988,316.084 398.515,325.921C399.087,329.579 399.885,333.819 400.304,335.726C401.595,341.688 400.305,342.844 390.266,345.55C382.194,348.695 374.006,350.432 365.677,352.234C350.459,354.73 342.675,366.211 342.295,380.183C342.217,383.203 342.32,384.6 341.673,385.497C277.281,409.937 208.852,444.136 137.072,502.532L133.59,118.07ZM566.001,385.784C563.561,381.839 555.764,361.128 553.62,352.488C548.034,310.593 546.972,260.862 540.998,221.864L548.866,222.746C548.866,222.746 551.829,234.038 555.008,264.543C556.586,279.665 558.234,311.101 559.546,325.554C561.537,347.027 571.236,381.365 577.249,390.033C587.052,404.169 606.755,395.025 600.168,378.24C596.749,369.531 583.507,370.942 585.343,379.979C585.372,381.59 586.601,378.826 588.537,377.128C594.258,374.96 600.701,380.915 597.339,388.086C593.166,397.24 580.823,393.062 576.729,381.524C571.838,367.74 588.314,357.407 600.648,365.813C614.379,375.177 614.41,398.918 603.345,406.41C584.729,413.199 572.077,399.637 566.001,385.784ZM612.019,403.248C611.269,402.805 612.043,401.362 612.967,397.935C616.407,385.123 614.237,375.125 605.951,365.702C601.332,360.453 599.596,359.531 602.01,358.579C607.138,356.561 618.47,364.787 621.585,372.875C624.654,380.816 625.427,389.029 621.098,398.007C618.089,399.933 613.411,403.796 612.019,403.248ZM626.048,394.715C626.033,393.216 627.04,388.488 627.276,386.175C628.171,377.236 623.99,368.159 616.596,361.063C610.385,355.108 609.818,354.494 615.692,354.396C630.847,354.14 640.505,378.636 633.518,390.705C631.713,392.617 626.222,396.531 626.048,394.715ZM638.876,386.425C643.339,365.541 623.141,351.622 622.734,352.273C623.743,347.594 631.758,350.284 634.495,352.105C644.704,358.961 650.577,376.879 644.312,387.064C643.625,388.315 642.79,389.032 641.685,389.707C639.583,391.029 638.337,392.093 637.913,391.166C637.583,390.464 638.756,387.424 638.876,386.425ZM461.171,318.673C463.281,316.601 463.914,316.542 467.973,318.074C480.677,322.871 490.828,313.754 487.831,304.171C486.743,300.7 481.985,296.933 479.053,296.63C474.266,296.133 474.168,298.661 479.328,300.59C485.674,302.959 486.309,309.687 480.728,312.722C474.174,317.15 463.433,305.913 455.554,306.861C451.79,307.986 449.381,311.507 451.532,315.809C453.21,318.826 458.874,320.653 461.171,318.673ZM447.075,317.3C442.67,315.254 440.992,315.293 441.832,310.484C442.388,307.319 446.903,286.018 449.045,277.785C455.472,253.128 449.437,239.46 431.238,233.949C418.902,230.213 408.287,232.106 395.725,238.788L393.458,231.817C446.14,218.037 536.034,221.094 535.715,221.627C537.49,228.716 538.164,235.807 538.862,242.897C538.862,242.897 522.014,234.634 513.229,231.885C499.695,227.735 478.298,232.286 474.509,240.055C472.356,244.46 473.475,247.398 482.572,242.501C497.454,234.485 527.86,240.593 538.574,249.091C541.044,251.049 540.915,251.477 540.962,253.773C541.038,257.274 541.24,257.479 536.371,254.873C510.817,241.812 488.985,243.327 481.456,260.474C479.718,259.95 473.096,258.81 473.096,258.81L480.207,269.329L481.559,280.338C481.559,280.338 493.185,286.786 499.593,289.516C505.897,292.189 502.268,289.345 494.527,283.958C488.845,280.003 493.362,278.736 497.113,280.25C504.827,282.019 516.097,284.265 529.15,275.981C533.2,273.407 542.477,275.64 542.622,276.805C542.622,276.805 543.858,286.432 545.085,306.522C545.665,316.025 546.838,328.44 547.502,333.536C549.507,348.932 550.083,349.808 541.986,342.426C539.266,339.948 534.734,335.84 534.687,336.085C533.654,340.859 545.609,349.246 548.393,352.123C552.615,356.491 556.006,367.671 554.312,368.335C553.241,368.754 541.889,359.125 532.954,350.465C529.601,347.221 524.618,342.872 524.472,343.02C522.626,344.251 530.13,352.721 537.16,359.054C545.359,366.443 546.311,367.105 543.553,368.219C538.464,370.275 533.884,367.717 521.524,357.499C520.318,356.504 515.637,353.184 515.417,353.423C514.285,354.927 525.693,365.722 528.282,366.65C533.093,368.374 534.473,373.021 530.681,374.844C528.149,376.061 518.714,370.89 511.148,364.336C509.792,363.162 506.028,361.163 505.782,361.431C504.284,362.396 512.738,369.709 520.811,374.568C528.709,379.324 529.969,380.499 527.957,384.454C526.081,388.527 508.742,379.096 500.067,369.383C498.224,367.316 496.769,366.426 497.132,367.123C500.91,377.592 513.34,385.094 522.59,388.081C524.238,388.622 526.631,389.288 527.713,390.145C530.345,392.237 529.761,394.414 526.909,395.64C517.044,398.406 501.494,386.464 490.369,373.953C489.08,373.42 489.854,375.057 490.188,375.598C499.469,390.405 517.239,401.671 527.94,399.569C534.194,398.339 539.219,400.222 539.268,402.321C539.306,404.041 535.861,406.782 529.128,407.261C513.908,408.346 490.134,391.695 476.224,370.49C475.785,369.829 475.275,369.585 475.243,369.987C474.86,374.481 483.509,385.505 490.142,391.81C509.852,410.545 528.486,416.877 543.023,406.322C551.215,399.972 559.137,386.087 546.929,381.448C540.461,378.991 536.374,387.889 541.905,385.35C549.171,384.476 550.815,388.329 549.875,391.95C548.024,398.169 541.862,399.158 536.852,396.543C528.128,391.821 529.982,375.634 541.268,372.806C551.445,370.35 560.316,378.973 561.485,387.153C563.297,399.86 548.959,413.611 537.464,417.031C498.25,428.698 467.622,374.212 467.444,372.98C465.48,369.194 463.112,367.19 461.62,371.603C460.015,377.993 451.163,396.734 446.434,396.621C447.907,390.01 454.108,378.897 452.602,369.162C449.989,377.156 444.47,394.214 433.909,403.299C431.177,405.791 423.141,408.727 428.673,402.313C435.347,392.932 444.079,380.105 442.271,368.06C440.497,370.766 439.533,377.619 437.51,382.144C432.44,393.472 421.366,406.916 414.055,409.093C408.658,410.701 409.157,408.878 414.685,403.057C420.61,396.817 431.108,378.494 430.416,370.595C430.116,367.106 419.527,400.768 399.633,409.983C394.261,411.948 391.207,409.475 391.207,409.475C399.029,404.972 420.631,383.675 418.594,359.479C418.594,359.479 417.442,363.062 415.739,368.435C408.412,391.528 392.673,406.711 380.409,407.969C370.615,408.972 363.779,405.023 366.207,403.278C378.907,403.371 389.338,398.983 397.487,386.61C405.774,374.033 408.864,353.825 403.844,332.438C399.316,313.149 398.321,295.805 396.738,277.264C410.646,282.015 424.646,285.176 438.19,279.884C436.829,285.409 434.571,286.095 430.999,290.266C428.403,293.315 429.292,294.04 439.407,286.894C442.349,284.815 443.414,283.148 443.948,283.705C444.813,284.608 443.467,290.296 440.524,301.634C436.119,318.588 437.264,319.803 453.554,326.191C456.595,327.383 457.727,328.55 458.79,329.819C459.292,330.413 461.963,335.226 462.215,335.395C462.81,335.793 462.656,330.488 462.323,329.147C461.451,325.585 459.529,322.912 457.841,321.858C454.646,318.914 450.036,318.654 447.075,317.3ZM754.588,538.443L754.748,520.84L771.852,532.972L771.641,538.783L754.588,538.443ZM725.357,542.269L724.729,216.665C724.729,216.665 737.858,207.943 744.42,203.623C748.516,216.532 748.489,244.213 746.95,256.54C744.383,264.567 743.236,300.295 746.152,318.475C748.47,332.966 748.043,356.933 745.852,368.405C745.001,372.887 745.659,393.893 747.267,413.325C748.501,428.176 748.146,441.678 746.349,449.406C744.939,455.496 745.429,477.319 747.043,485.69C749.413,498.006 749.815,537.569 748.757,539.718C745.933,542.91 723.88,543.358 725.357,542.269ZM751.36,201.524C751.36,201.524 764.583,210.256 770.957,214.622L771.045,228.65L751.945,216.177L751.36,201.524ZM554.025,224.192L562.201,224.7C565.458,241.655 566.866,260.929 568.165,280.252C568.579,310.047 572.258,341.47 579.252,362.067L573.244,368.369C563.009,344.767 562.2,307.535 559.918,282.336C558.917,253.994 554.258,224.374 554.025,224.192ZM752.947,221.221L770.728,233.255L770.917,248.512L752.998,236.629L752.947,221.221ZM565.823,225.312L573.004,226.092C575.186,246.222 578.537,259.882 579.807,282.059C581.46,310.741 586.428,334.292 589.521,356.695L584.146,358.482C580.544,360.141 574.573,333.665 571.916,279.998C571.116,263.756 568.365,245.487 565.823,225.312ZM576.681,226.068L585.257,227.605C589.053,278.561 595.046,326.418 601.32,353.84L593.863,354.333C584.612,315.141 584.011,269.793 576.681,226.068ZM589.073,227.874L596.954,229.241C606.43,345.773 612.277,344.27 614.112,348.851L605.577,352.311C596.358,318.824 594.5,271.614 589.073,227.874ZM624.852,342.336C623.505,346.261 620.31,345.896 616.824,346.299C612.914,335.59 610.633,322.824 608.997,310.325C605.402,282.87 604.105,257.128 600.361,230.034L609.761,230.996C609.456,231.203 616.428,326.552 624.852,342.336ZM422.586,239.908C434.979,240.506 445.259,246.067 446.249,254.206C446.474,256.037 445.02,255.148 443.341,253.862C432.684,245.695 420.557,243.15 405.917,248.419C402.724,249.567 400.11,251.376 398.684,251.127C397.404,250.309 397.01,248.323 397.986,246.686C401.401,240.977 416.456,239.612 422.586,239.908ZM393.858,256.252C394.121,269.087 391.001,276.164 384.266,279.129C376.136,282.708 365.716,275.043 370.775,266.468C374.608,259.985 381.19,261.939 382.443,268.75L392.77,245.756C392.77,245.756 393.83,253.038 393.858,256.252ZM771.07,254.194L770.955,267.422L751.895,254.687L753.171,241.968L771.07,254.194ZM433,252.47C442.389,256.188 445.837,260.731 446.187,262.75C445.645,264.255 444.708,263.227 437.85,259.527C427.293,253.053 413.529,251.997 401.443,260.216C398.428,260.812 398.115,259.103 401.136,255.856C410.347,248.641 423.076,248.539 433,252.47ZM504.304,249.993C512.565,249.732 522.437,251.831 530.775,256.016C534.467,257.866 537.777,259.019 540.178,261.147C542.102,262.149 542.255,266.512 540.844,266.841C539.591,267.018 537.533,266.038 534.458,263.891C514.641,251.022 500.376,252.607 488.921,260.527C488.286,260.965 486.313,261.417 485.537,261.357C483.35,261.193 483.234,260.298 484.153,259.115C489.454,253.121 497.382,250.231 504.304,249.993ZM751.955,259.256L771.056,272.601L771.041,285.724L750.738,271.607L751.955,259.256ZM407.222,264.588L410.01,264.668C416.511,280.418 424.664,272.3 428.052,265.994L431.449,266.546C426.13,287.643 404.5,276.604 407.222,264.588ZM402.473,266.688C405.63,267.068 405.522,270.639 406.508,273.238C408.719,279.046 400.345,274.131 398.908,272.717C396.475,270.158 399.933,266.951 402.473,266.688ZM497.003,266.074C505.232,278.6 509.981,271.185 514.675,265.73L516.915,266.444C516.322,275.438 501.187,285.024 493.995,266.295L497.003,266.074ZM522.318,267.491C523.203,267.504 524.974,268.136 526.598,268.793C531.103,270.614 530.866,271.948 525.875,274.166C517.899,277.713 515.125,278.172 517.519,273.162C518.888,270.87 519.799,267.834 522.318,267.491ZM491.036,269.401C493.043,270.875 494.361,272.508 494.592,275.162C494.76,277.033 488.527,274.877 488.541,271.897C488.738,270.002 489.766,268.465 491.036,269.401ZM435.857,270.114C439.948,271.63 439.457,273.579 436.606,275.346C431.49,278.199 429.297,277.638 432.608,273.152C434.135,271.083 434.461,270.157 435.857,270.114ZM750.678,276.716L771.359,291.254L771.174,304.601L750.513,290.517C749.552,284.798 750.457,280.952 750.678,276.716ZM393.25,297.375C394.231,297.4 394.618,300.641 394.847,305.381C395.23,313.26 387.208,324.233 379.1,328.013C369.332,332.565 358.879,326.182 360.626,316.722C362.242,308.003 374.627,307.643 375.097,315.698C373.891,317.817 375.582,319.59 376.272,319.405C379.456,318.55 386.969,311.791 390.025,304.229C391.218,301.282 391.943,298.249 392.792,297.561C392.956,297.428 393.109,297.372 393.25,297.375ZM750.122,294.915L770.785,309.994L770.882,323.255L750.386,309.157C749.577,303.246 749.925,299.031 750.122,294.915ZM499.342,315.916C497.778,318.54 499.064,323.242 502.267,319.237C510.501,309.652 522.426,321.646 516.046,329.268C510.252,336.184 503.128,333.958 488.078,328.213C477.119,324.027 475.39,325.453 472.686,328.476C470.46,330.965 471.597,335.977 474.479,335.918C483.362,337.934 491.054,339.898 500.25,341.811C519.688,345.797 531.543,320.761 513.784,311.561C509.536,309.361 500.749,312.22 499.342,315.916ZM413.557,318.799C405.981,325.594 412.198,343.455 423.357,345.049C425.694,345.383 429.177,345.287 433.14,344.144C440.949,341.891 449.55,337.273 449.902,334.583C451.506,322.357 433.303,333.32 430.896,334.769C425.154,338.252 419.08,337.801 416.022,333.663C409.127,324.337 421.484,313.637 428.992,325.046C430.886,327.925 430.219,323.048 428.153,319.733C425.234,315.053 417.704,315.356 413.557,318.799ZM751.489,314.948L770.915,328.676L770.806,341.445L751.971,327.867L751.489,314.948ZM752.939,333.642L771.34,346.873L771.654,360.145L752.345,347.437C752.724,342.659 752.813,338.168 752.939,333.642ZM649.797,341.265C665.972,341.531 675.103,365.428 666.572,375.371C664.033,378.329 662.007,379.122 660.857,378.019C660.61,377.781 661.014,375.109 661.181,372.088C661.708,362.455 659.658,355.861 652.613,348.544C647.324,343.056 645.326,341.357 649.797,341.265ZM450.625,345.074C447.571,346.162 444.336,348.368 441.836,347.824C439.361,347.287 438.181,348.51 437.21,350.448C433.512,357.863 434.655,360.261 441.994,356.051C445.476,354.053 446.697,354.769 456.019,356.528C462.675,357.785 467.209,357.66 473.068,356.14C480.358,354.25 484.699,354.102 488.387,356.118C492.074,358.133 494.594,360.91 494.69,358.649C494.279,356.002 491.971,349.233 491.438,346.984C491.179,345.902 489.367,346.854 487.652,346.979C481.61,347.417 474.407,341.984 469.739,344.856C466.006,347.155 465.515,347.757 460.39,344.752C456.578,342.513 453.933,343.895 450.625,345.074ZM645.449,346.735C656.403,355.881 659.212,363.996 658.149,370.654C657.605,375.497 657.24,380.848 652.497,383.763C651.625,384.18 650.315,384.439 649.107,384.617C652.79,370.86 648.446,358.54 632.962,345.396C637.466,343.165 642.064,343.91 645.449,346.735ZM398.413,346.713C398.9,346.711 399.433,346.791 399.98,346.971C401.879,347.597 402.176,352.569 400.68,354.128C399.184,355.687 397.98,354.401 396.244,350.449C394.957,348.296 396.305,346.719 398.413,346.713ZM388.295,350.584C392.298,350.502 393.812,354.163 394.495,357.081C395.083,359.567 394.345,366.989 392.225,364.402C391.715,362.83 389.54,357.755 387.804,356.437C383.93,353.502 384.318,350.666 388.295,350.584ZM377.041,354.271C377.624,354.254 378.374,354.326 379.286,354.479C385.529,355.524 390.312,365.46 388.856,371.098C385.555,377.162 384.329,373.073 383.237,367.575C382.384,365.296 379.827,361.724 378.263,359.879C375.01,356.051 374.505,354.343 377.041,354.271ZM752.409,351.384L771.418,365.007L771.45,379.589L751.555,366.218C751.999,361.115 752.223,356.228 752.409,351.384ZM364.687,357.293C374.003,357.311 381.951,368.134 379.015,378.569C375.373,389.451 357.253,387.129 360.26,376.278C361.125,373.157 364.455,370.874 367.636,372.828C372.232,375.649 371.73,371.057 368.81,369.427C364.308,366.911 358.116,368.434 356.735,373.527C351.925,391.279 374.751,397.33 387.17,378.99C391.711,372.288 396.649,365.115 399.373,362.055C401.825,359.307 402.348,359.596 401.951,363.139C400.371,379.634 388.869,400.248 367.3,399.12C346.334,397.129 339.783,374.891 355.612,361.009C358.275,358.677 361.077,357.526 363.791,357.327C364.092,357.305 364.386,357.293 364.687,357.293ZM475.77,358.193C468.104,361.907 461.153,363.313 453.597,360.026C448.019,357.596 448.103,360.234 450.53,362.4C457.543,368.37 470.298,365.668 475.759,362.308C477.537,361.217 478.119,358.059 475.77,358.193ZM771.477,384.558L771.535,397.821L750.314,383.605C749.98,380.432 750.339,375.609 751.036,370.629L771.477,384.558ZM751.02,388.988L771.229,402.293L771.766,415.438L752.131,403.263L751.02,388.988ZM752.429,407.422L771.734,420.771L772.013,435.119L752.891,422.538L752.429,407.422ZM281.705,422.508L269.89,458.197L277.63,458.665L282.847,468.08L288.217,458.431L296.357,457.813L281.705,422.508ZM753.236,427.269L771.841,440.052L772.123,453.304L752.792,439.944L753.236,427.269ZM752.478,443.494L771.553,457.268L771.93,471.346L750.316,456.945L752.478,443.494ZM325.756,451.459L314.054,489.67L320.653,488.773L326.824,498.995L333.059,489.814L338.971,490.149L325.756,451.459ZM237.703,454.3L226.562,492.282L234.025,492.254L240.334,501.833L245.864,492.582L254.33,492.359L237.703,454.3ZM749.995,461.293L772.378,476.994L772.563,491.943L750.869,477.411L749.995,461.293ZM772.121,496.797L772.375,509.889L753.536,496.487L751.493,481.949L772.121,496.797ZM372.557,499.051L358.882,537.651L368.051,537.738L373.612,547.007L378.064,537.693L385.433,537.766L372.557,499.051ZM754.776,502.9L772.249,514.874L772.117,528.316L754.914,516.794L754.776,502.9ZM423.625,659.094L413.671,649.528C413.544,648.746 421.808,644.744 426.9,647.29C433.619,650.652 437.068,662.745 429.543,669.112C423.562,674.177 414.422,669.964 414.241,669.368L423.625,659.094ZM414.766,643.317C414.942,628.539 407.16,624.746 400.723,621.752C400.723,621.752 399.644,528.103 399.783,525.304C399.789,525.713 398.137,515.162 397.948,514.54C397.948,514.547 396.398,514.128 396.405,514.144C396.671,523.639 397.296,620.948 397.145,621.579C385.095,622.97 381.728,631.123 380.644,642.072C371.241,641.367 365.128,647.024 364.943,647.962C361.472,643.196 364.054,636.175 361.317,631.202C352.988,660.322 369.188,677.745 383.317,676.121C385.587,704.08 416.382,709.135 415.338,675.221C452.594,673.035 439.969,638.784 414.766,643.317ZM239.721,525.747L226.232,563.563L235.686,562.485L239.132,569.463C254.276,556.118 261.924,576.722 254.216,559.053L239.721,525.747ZM752.459,593.035C754.2,592.905 756.484,594.474 756.944,596.612C757.274,602.997 748.694,601.562 748.424,597.531C748.229,594.668 750.821,593.155 752.459,593.035ZM758.066,634.554C761.763,631.517 767.657,633.232 767.749,637.807C767.833,641.863 763.182,643.198 759.548,640.92C756.724,639.203 756.549,635.996 758.066,634.554ZM758.588,645.805C778.869,647.349 793.962,633.574 787.495,623.685C792.944,616.838 788.498,612.904 789.991,608.977C794.297,604.563 790.693,595.07 789.616,595.035C788.732,582.297 785.031,580.665 779.525,573.878C777.869,571.911 783.383,569.987 785.5,566.606C779.893,568.758 774.387,564.601 774.418,563.653L772.036,560.692C734.473,562.442 700.747,565.062 702.018,615.989C696.617,637.604 705.77,656.857 731.984,650.909C737.727,645.783 733.941,638.352 733.242,634.782C730.998,624.958 733.584,618.574 734.305,613.972C736.539,599.737 746.97,586.524 748.108,608.836C749.931,606.035 749.067,605.621 752.087,604.46C759.289,601.865 759.279,609.138 757.803,612.074C756.858,613.582 755.427,613.454 753.964,613.286C751.865,613.035 749.131,612.259 749.088,611.492C748.526,613.808 752.894,618.117 752.438,620.29C751.86,622.353 751.492,622.186 753.401,620.82C762.437,614.359 768.092,628.797 755.024,627.147C761.461,630.585 751.933,640.651 758.588,645.805ZM745.216,568.083C752.335,567.72 754.044,567.657 753.714,571.394C755.064,578.291 756.789,581.489 765.786,580.766C774.848,579.587 777.723,579.02 768.602,584.497C763.993,586.526 762.499,586.921 757.04,586.43C751.536,585.934 751.957,585.381 748.813,587.259C747.053,588.308 745.137,589.585 743.712,589.844C741.597,590.227 737.867,591.042 737.867,591.042C735.748,601.752 732.521,607.144 728.084,612.234C721.807,619.368 718.621,620.616 726.321,620.081C729.168,620.258 727.693,618.833 728.937,630.378C729.374,634.421 730.127,639.11 730.727,640.683C732.725,645.944 732.994,648.56 725.388,648.933C706.393,650.37 701.96,631.887 704.489,622.442C704.71,620.957 705.574,616.04 705.761,612.138C705.865,610.006 705.435,608.202 705.487,606.022C705.916,588.41 710.097,583.769 725.73,572.32C730.446,568.867 738.912,568.157 745.216,568.083ZM761.894,569.032C770.662,568.851 779.135,573.063 774.908,575.796C772.179,577.562 762.314,576.829 759.576,574.88C756.041,572.367 757.365,569.126 761.894,569.032ZM370.927,583.986L367.448,590.143L363.821,618.807L364.469,624.623L371.641,634.025L377.317,624.276L386.244,624.432L370.927,583.986ZM780.867,581.129C786.547,582.265 786.77,587.448 785.323,590.638C782.151,597.654 760.911,601.047 760.911,601.05C760.739,598.038 761.158,595.135 758.95,591.745C758.95,591.745 773.093,588.044 776.091,585.316C778.082,583.494 779.298,581.188 780.867,581.129ZM785.071,597.089C787.128,597.117 788.22,598.606 788.776,601.64C789.043,603.266 788.429,604.653 787.103,606.429C781.71,612.288 766.553,616.346 761.079,614.857C760.694,614.349 761.623,608.178 762.019,605.433C769.313,605.653 781.584,599.188 785.071,597.089ZM568.992,633.17C561.748,622.723 545.676,624.255 547.404,624.986C547.517,616.039 545.987,603.75 532.404,602.443C518.711,601.406 511.669,619.473 516.867,627.121C508.417,623.613 495.737,632.408 495.737,633.234C494.654,633.27 484.967,658.869 514.285,660.187C516.953,672.274 521.523,678.119 530.891,683.091L531.126,781.734L534.439,786.211L534.725,682.837C549.733,682.174 551.579,665.006 550.471,661.048C557.132,661.339 563.186,659.998 568.281,656.111L570.037,672.961C570.037,672.961 573.558,667.017 572.782,663.863C566.25,566.986 601.298,462.185 647.312,394.253C649.769,391.401 650.521,387.997 651.738,387.971C662.958,381.927 670.043,377.859 670.043,377.859C688.547,386.75 721.584,408.21 721.584,408.21L722.122,546.257C721.609,544.899 783.681,539.332 782.751,541.01C782.751,541.01 777.313,538.882 777.228,535.249L775.612,212.209L748.458,194.472C748.458,194.472 726.131,209.061 719.879,214.047L720.566,404.233L672.464,376.056C672.464,376.056 673.231,369.33 673.302,367.147C672.534,341.195 659.793,332.487 635.533,340.186C632.28,341.217 630.019,342.122 628.43,340.792C618.219,310.935 613.62,232.475 613.633,232.475L682.091,116.505L798.225,115.866L800.233,558.962L804.439,791.215L745.162,834.381L744.296,685.603C744.296,685.603 735.805,681.544 733.584,681.27C732.744,681.206 731.669,683.074 733.176,684.036C735.355,685.425 740.714,687.37 740.714,687.37L741.972,834.83C741.972,834.83 718.927,850.339 708.623,856.799C700.946,861.572 676.649,873.807 662.259,880.852C656.674,883.585 651.042,885.778 650.517,886.204C630.918,894.625 613.244,900.523 596.905,909.216C585.632,913.826 586.143,909.308 583.738,905.623C560.214,882.362 529.844,880.986 505.231,891.727C501.421,893.141 496.697,894.371 493.513,896.582C492.588,897.263 490.984,898.025 489.931,898.276C487.773,898.789 485.416,899.746 483.427,901.314C479.893,904.111 477.537,908.675 475.514,913.202C474.261,916.007 470.498,929.081 470.003,932.958C469.916,933.606 471.26,933.465 471.305,933.528C471.475,933.763 475.086,917.693 476.522,914.648C479.58,908.152 483.432,904.265 485.479,903.652C486.406,903.495 487.221,904.941 485.954,907.229C483.444,911.774 481.4,921.446 480.791,925.805C480.247,929.83 480.14,933.054 480.892,933.197C481.022,933.323 484.578,921.015 486.181,916.674C490.354,905.346 492.983,900.654 497.003,898.238C501.119,895.761 502.098,896.108 501.284,898.742C495.153,910.7 492.626,919.739 491.427,932.474C491.24,935.013 492.528,935.084 493.544,930.88C496.899,917.511 501.506,899.429 512.402,894.031C517.049,891.93 519.113,892.032 518.616,893.532C505.643,909.914 502.402,928.105 502.558,933.971C502.606,935.931 503.401,935.542 505.063,931.302C509.454,915.157 515.969,901.427 523.694,894.691C526.687,892.085 530.309,891.366 533.34,890.99C542.499,889.854 542.811,893.248 534.837,897.89C525.759,903.177 515.255,922.415 514.088,936.86C513.686,941.857 515.456,942.401 516.704,935.733C522.092,907.022 546.707,888.045 566.433,896.837C575.313,900.791 576.918,906.29 569.194,903.844C553.554,898.896 536.185,909.976 529.023,925.444C522.55,939.428 522.682,946.768 527.24,965.493C530.343,982.792 536.391,1004.88 534.395,1021.83C532.245,1025.12 525.45,1020.47 517.434,1019.49C512.596,1018.58 506.686,1018.35 501.633,1020.28C497.231,1021.97 494.732,1022.39 493.916,1020.02C493.655,1019.25 497.31,1015.53 498.94,1013.47C501.544,1010.17 500.057,1009.65 496.38,1013.22C494.586,1014.97 490.718,1019.07 489.664,1019.29C487.345,1019.76 487.249,1017.14 489.12,1010.49C495.689,984.653 493.927,984.211 482.665,978.98C471.5,974.728 475.031,972.582 470.088,968.354C466.604,971.077 474.64,983.569 483.726,986.294C491.165,988.525 490.259,992.331 487.005,1002.56C483.702,1016.87 478.064,1035.82 481.324,1048.53C488.176,1075.23 515.295,1074.69 536.063,1063.9L538.597,1070.71C521.036,1077.81 428.475,1083.89 397.279,1080.31C394.869,1071.88 394.633,1069.71 393.656,1059.79C393.656,1059.79 412.926,1068.49 422.545,1070C434.553,1071.88 453.045,1071.97 457.779,1060.91C459.231,1057.67 457.743,1054.93 453.6,1056.81C445.981,1060.26 432.961,1062.82 422.444,1062.16C413.614,1061.62 401.024,1058.07 395.589,1054.8C393.003,1053.24 390.819,1050.2 392.846,1046.37C394.64,1045.97 397.001,1047.96 398.395,1048.67C414.331,1056.71 423.067,1058.27 433.459,1055.19C441.337,1052.85 451.958,1044.35 449.335,1041.94C446.677,1042.87 437.84,1050.28 431.752,1051.9C419.217,1055.23 405.855,1050.13 392.835,1041.69C388.813,1038.21 390.646,1035.66 395.569,1038.45C415.073,1048.27 423.208,1054.79 441.87,1041.01C446.041,1037.92 448.366,1038.31 450.815,1040.19C460.506,1048.86 460.474,1043.99 453.379,1034.97C451.767,1032.93 450.303,1030.06 449.336,1027C448.624,1024.75 448.463,1022.49 447.173,1021C444.97,1018.48 441.006,1017.25 436.473,1015.25C429.935,1012.38 427.757,1013.76 432.584,1016.11C441.043,1020.24 445.156,1024.65 434.659,1022.27C425.128,1018.01 409.216,1020.39 400.209,1026.64C393.141,1030.09 390.03,1033.78 388.359,1025.98C384.868,1009.71 388.27,987.636 383.585,959.244C382.692,953.831 381.604,950.4 382.734,949.659C384.188,948.709 387.82,952.212 392.32,958.528C394.367,961.407 398.439,966.941 398.415,965.788C398.572,959.776 389.22,948.495 381.499,944.052C377.261,941.608 374.381,930.317 379.228,932.802C382.977,934.625 402.459,951.756 406.174,957.859C407.894,960.698 409.354,958.889 407.531,955.552C406.432,953.55 401.855,947.671 397.404,943.328C389.507,935.62 388.596,935.985 390.111,934.406C393.109,931.281 399.53,935.307 410.975,945.661C413.912,949.367 417.792,952.712 417.317,950.868C418.486,947.987 407.024,935.673 400.23,932.369C398.963,931.574 398.79,930.737 398.903,929.204C399.549,923.384 412.704,931.932 423.619,941.903C427.71,945.642 424.314,938.612 419.581,933.837C415.862,930.079 409.861,925.413 405.789,923.812C401.754,922.147 401.498,918.621 404.667,917.146C415.609,916.68 426.907,927.862 433.634,936.651C435.495,939.065 437.2,940.924 435.263,936.352C429.028,922.591 416.063,914.841 407.077,913.267C399.78,911.989 399.941,905.406 406.801,906.151C414.341,906.971 426.696,913.777 437.17,924.318C440.22,927.387 445.344,934.347 444.292,930.262C444.263,929.148 441.047,924.793 437.334,920.593C428.766,912.081 418.81,904.563 408.244,902.323C403.31,900.926 388.654,903.753 388.566,901.212C388.532,899.336 390.098,898.212 394.765,896.659C412.88,890.632 439.393,906.192 453.893,930.11C454.93,931.825 456.895,932.552 457.011,932.166C450.019,912.618 428.267,894.899 410.963,891.862C399.192,889.975 387.325,892.977 381.687,900.907C375.339,909.833 377.825,921.765 387.357,920.806C392.354,920.349 391.961,917.51 391.863,917.415C391.525,917.081 388.617,918.449 386.818,918.091C380.303,916.815 380.984,905.027 390.528,906.19C401.497,907.528 403.049,924.832 390.787,928.47C379.47,931.825 375.321,926.657 372.227,920.526C367.695,911.545 372.559,897.07 380.551,891.519C402.929,875.982 431.231,889.003 447.222,904.411C455.13,912.031 460.912,921.096 464.546,930.871C465.476,933.139 467.159,933.005 466.553,930.567C444.071,873.2 376.953,867 366.982,911.011C366.982,911.011 366.637,912.362 360.186,903.184C349.726,888.313 334.096,885 314.856,895.138C295.408,902.442 288.851,907.094 275.37,914.065C273.407,914.76 260.942,923.36 258.943,921.575C239.846,908.911 223.202,904.594 214.136,895.314C214.445,893.611 212.835,867.884 212.835,867.884L213.28,756.953C213.418,755.871 203.174,757.688 186.12,760.362C140.775,769.413 144.741,745.566 138.739,743.889C135.571,743.255 135.802,744.614 134.944,659.09C134.693,634.25 134.199,590.581 133.83,562.042C133.466,533.504 133.371,509.731 133.626,509.229C133.882,508.726 136.426,506.54 139.362,504.46C150.415,496.631 156.619,491.893 180.799,473.446C186.274,469.268 187.654,468.561 187.654,468.561C190.432,519.944 187.941,573.905 189.307,618.077L191.344,618.088L190.555,469.76C186.381,468.667 285.899,410.436 340.429,391.546C341.455,391.191 344.002,392.327 344.002,392.327C375.306,430.685 457.664,419.072 464.302,372.374C477.946,400.841 537.891,456.156 565.286,389.481C565.286,389.481 575.213,408.634 583.727,409.897C602.875,412.438 604.997,409.418 647.133,388.983C598.951,462.07 572.391,539.454 568.992,633.17ZM543.382,614.948C544.434,618.175 544.796,622.347 543.889,625.642C542.658,628.215 540.825,628.18 540.825,628.18L531.496,620.206L522.368,628.668C522.368,628.668 516.783,623.043 519.853,615.243C525.686,604.346 539.053,606.313 543.382,614.948ZM784.453,613.661C790.425,613.284 787.341,620.156 778.503,624.811C772.959,627.732 768.358,628.558 766.369,627.501C765.278,624.275 766.203,621.332 766.882,620.024C770.653,618.089 781.009,614.692 784.453,613.661ZM398.852,626.606C405.487,626.445 411.232,631.17 411.443,639.537C411.531,642.946 409.78,646.326 409.78,646.326L398.699,638.159L390.239,647.184C388.792,647.688 383.611,641.222 387.173,634.185C389.764,629.07 394.317,626.717 398.852,626.606ZM559.073,630.448C568.392,634.674 570.01,647.706 560.947,652.726C556.638,655.113 549.853,656.442 546.682,651.615L555.846,641.626L545.326,632.778C544.916,632.367 553.385,627.869 559.073,630.448ZM782.815,627.022C784.423,627.019 784.829,627.634 785.293,629.135C786.604,633.391 783.277,637.674 777.537,639.029C772.238,640.281 772.74,640.901 770.23,636.163C768.261,632.451 767.737,632.607 770.815,631.433C774.539,630.224 778.523,628.815 782.815,627.022ZM517.702,633.415C517.702,633.415 511.085,640.136 508.192,642.946L518.145,653.33C518.625,654.592 506.665,660.006 500.376,651.839C496.289,646.537 498.59,636.452 504.389,632.992C510.315,629.457 518.802,632.394 517.702,633.415ZM531.959,632.242C537.833,632.156 542.655,636.841 542.741,642.717C542.826,648.591 538.142,653.435 532.269,653.52C526.395,653.605 521.547,648.9 521.461,643.026C521.376,637.15 526.086,632.327 531.959,632.242ZM386.521,650.145L376.972,660.135L387.297,671.367C387.297,671.367 379.128,672.701 376.231,672.158C362.181,669.529 363.556,653.053 374.423,648.696C379.006,647.087 382.416,647.626 386.521,650.145ZM199.195,653.538C199.195,653.538 201.072,674.702 202.785,681.931C201.656,690.179 196.323,695.794 193.922,704.263C192.644,708.031 187.829,713.097 186.907,707.789C183.435,701.23 186.751,693.122 183.884,688.452C182.43,684.094 182.861,681.577 181.891,677.008C179.774,673.296 178.077,671.541 178.361,668.17C177.791,653.208 174.054,656.174 167.415,657.397C161.938,659.201 154.549,659.929 150.219,663.133C140.814,669.753 145.931,673.551 142.386,683.548C142.943,687.929 144.016,689.508 143.245,693.286C139.621,711.148 146.314,709.666 146.113,709.942C143.322,714.047 146.768,723.28 148.1,722.807C156.273,724.811 153.31,730.779 155.97,733.945C158.641,737.006 158.497,738.551 169.694,738.831C189.924,740.411 222.068,737.406 229.014,712.744C233.346,677.969 239.68,647.334 199.195,653.538ZM400.296,650.131C405.971,650.048 410.63,654.577 410.713,660.251C410.795,665.923 406.269,670.586 400.594,670.669C394.925,670.751 390.259,666.222 390.177,660.549C390.094,654.876 394.627,650.213 400.296,650.131ZM208.046,655.526C211.87,655.479 216.38,656.283 220.083,659.836C228.023,667.446 228.367,674.346 224.845,703.634C223.85,711.884 220.946,718.781 217.1,721.785C209.372,727.82 199.907,732.122 192.112,734.041C187.994,735.053 184.42,735.076 181.632,735.054C178.627,735.031 176.871,733.642 176.648,731.122C177.312,724.303 170.351,723.639 166.32,724.025C159.129,724.31 158.391,725.066 162.876,721.592C167.995,717.627 179.796,717.569 182.034,719.892C186.637,715.286 191.435,714.749 197.306,714.064C196.436,712.787 194.33,707.678 195.724,704.397C198.767,699.05 203.884,689.618 209.252,686.081C214.565,679.134 210.056,682.274 206.758,682.393C204.875,682.461 205.033,681.841 204.726,680.581C203.417,675.167 201.528,665.049 201.511,659.024C201.507,656.12 204.228,655.572 208.046,655.526ZM174.199,663.025C176.276,664.87 176.249,667.446 174.067,669.364C171.574,671.557 166.623,670.347 166.499,666.22C166.83,662.055 171.688,660.878 174.199,663.025ZM532.658,677.687C524.041,678.116 516.942,668.894 520.192,659.705C521.969,657.217 522.743,657.574 522.743,657.574L532.551,666.341L541.967,656.494C549.72,665.85 543.065,676.988 532.658,677.687ZM163.703,663.411C162.993,666.101 163.922,668.781 164.037,670.088C162.332,671.305 155.052,673.432 151.153,675.352C148.443,676.283 146.478,673.736 146.854,671.41C147.881,667.079 154.253,664.249 158.885,662.907C160.308,662.557 162.664,662.426 163.703,663.411ZM165.299,675.807C167.922,675.491 167.153,681.206 166.163,684.128C165.188,686.218 162.297,686.131 159.698,686.282C155.108,686.55 149.323,691.844 146.838,690.991C146.012,690.611 145.429,688.434 145.339,687.049C145.875,679.419 158.552,676.621 165.299,675.807ZM179.164,683.755C178.292,685.033 175.476,685.651 173.121,685.004C169.262,683.946 168.669,678.411 172.056,676.51C178.031,674.533 181.623,680.14 179.164,683.755ZM560.113,671.155L554.885,679.119L546.932,678.974L559.78,718.39L565.72,702.987C566.52,695.905 567.455,688.838 568.198,681.748L560.113,671.155ZM391.007,674.478L401.173,682.769L409.892,673.856C416.38,688.314 408.904,694.933 400.95,694.758C392.183,694.565 382.83,686.254 391.007,674.478ZM167.855,689.425C171.081,688.813 169.702,697.517 169.251,697.768C167.199,698.526 158.33,699.685 154.595,702.832C146.645,709.06 143.252,705.26 146.936,697.797C150.423,693.458 163.243,689.508 167.855,689.425ZM177.971,689.839C181.516,689.507 184.001,693.427 181.838,697.161C178.905,699.89 173.75,697.89 173.771,694.024C173.749,691.595 175.762,689.966 177.971,689.839ZM172.75,711.918C173.234,713.949 172.527,713.321 168.801,714.418C166.747,715.023 163.525,716.392 160.166,718.087C155.237,720.573 153.86,721.911 152.107,721.628C150.719,721.325 149.115,720.725 148.684,719.317C146.975,713.693 151.55,707.96 162.224,704.022C164.442,703.203 168.411,702.542 169.767,702.391C173.393,702.401 169.521,707.963 172.75,711.918ZM179.053,703.458C184.209,703.383 185.18,710.229 181.321,711.433C172.283,713.768 173.05,703.451 179.053,703.458ZM172.692,728.677C174.141,730.069 174.347,732.352 172.724,733.542C169.741,735.012 158.299,733.76 158.227,730.549C158.183,728.43 162.004,727.713 165.559,727.643C169.114,727.574 171.529,727.563 172.692,728.677ZM689.277,732.186L679.85,744.796L692.502,776.467L704.061,738.118L694.983,741.713L689.277,732.186ZM155.859,764.726C158.038,862.262 157.671,1085.77 157.671,1085.77L185.43,1104.64L214.655,1083.64C214.357,1013.28 214.075,964.756 213.795,899.624L256.621,923.147C256.621,923.147 257.936,925.043 257.737,933.843C254.778,958.149 278.283,973.927 293.879,964.334C299.897,961.805 300.39,961.356 301.661,963.253C305.171,968.482 309.122,990.874 309.778,1005.16C310.776,1026.68 316.443,1070.57 317.805,1070.86L248.097,1188.97L139.438,1189.5L138.19,750.25C143.842,756.902 146.417,761.263 155.859,764.726ZM560.335,755.322L555.102,763.306L548.797,763.297L559.859,804.121L573.259,764.204L565.878,763.29L560.335,755.322ZM211.302,1080.86C211.302,1080.86 197.739,1090.59 193.404,1093.39C191.129,1094.24 190.023,1094.4 189.485,1092.22C188.818,1089.54 189.885,1084.48 190.833,1076.11C191.708,1068.37 191.701,1067.93 190.413,1056.89C189.067,1045.37 188.906,1044.88 189.999,1029.67C191.213,1012.7 191.448,996.222 190.102,986.022C188.827,976.322 188.845,954.205 189.825,941.858C191.022,926.739 190.631,913.476 188.652,902.511C185.12,882.958 184.541,876.225 188.217,861.514C189.591,856.009 190.279,853.081 189.991,843.863C189.669,833.614 189.48,830.267 185.812,807.571C183.7,794.505 183.533,792.711 185.514,772.037C185.915,767.865 186.054,765.075 187.642,763.751C189.497,762.205 208.842,761.079 208.842,761.079L211.302,1080.86ZM160.426,765.094L181.502,764.865C179.874,771.463 179.511,776.483 179.343,781.257L160.623,768.955L160.426,765.094ZM160.735,773.526L179.266,785.623C179.289,790.727 178.905,795.594 179.645,800.696L160.865,788.232L160.735,773.526ZM160.77,792.72L180.604,806.276C181.379,811.556 182.994,816.895 183.614,821.641L161.129,806.428L160.77,792.72ZM802.066,798.062L803.103,1187.52L605.701,1188.41L543.128,1068.19C543.128,1068.19 543.768,1057.14 545.314,1051.5C547.188,1044.67 547.685,1043.19 550.308,1042.87C557.331,1046.51 565.16,1041.66 567.556,1036.34C570.504,1029.79 564.53,1019.87 555.363,1017.72C551.319,1016.76 546.899,1018.58 542.431,1021.98C539.842,1024.14 539.263,1024.39 538.742,1022.51C537.579,1018.26 541.351,1006.73 548.082,996.834C551.833,991.327 552.842,989.743 554.058,991.84C558.96,1000.31 569.474,998.555 573.46,993.768C578.29,987.977 577.278,974.774 566.349,971.275C544.953,964.429 535.129,985.894 535.397,985.845L530.814,960.105C556.574,953.791 571.438,951.564 579.621,943.757C586.06,937.609 589.129,926.98 588.332,917.529C588.332,917.529 659.884,888.469 693.367,870.423C751.02,839.351 802.066,798.062 802.066,798.062ZM693.12,800.884L687.828,810.191L680.319,810.2L695.504,849.501L707.101,808.469L699.864,809.115L693.12,800.884ZM161.699,812.166L184.421,827.833C184.918,832.919 185.573,837.45 184.888,843.214L160.972,827.393L161.699,812.166ZM605.017,807.35L599.359,814.859L592.84,814.173L605.623,853.09C609.509,841.842 613.042,826.569 616.882,815.306L610.845,815.594L605.017,807.35ZM161.304,832.173L184.813,847.746C184.902,852.555 185.128,857.085 183.454,860.482L161.265,846.249L161.304,832.173ZM649.079,834.419L643.37,845.394L635.769,844.363L649.361,881.666L664.22,844.71L655.021,845.204L649.079,834.419ZM161.344,850.312L181.73,865.281C182.021,865.496 180.592,872.11 180.916,875.855L161.522,863.904L161.344,850.312ZM161.894,868.824L180.901,881.882C180.947,886.832 181.284,891.488 182.063,895.7L161.43,882.305L161.894,868.824ZM161.566,887.689L183.545,903.331L184.707,915.901L161.424,901.265L161.566,887.689ZM342.476,892.93C363.566,900.792 383.344,940.899 382.733,992.816C382.315,1028.86 393.204,1080.31 393.003,1079.72C393.003,1079.72 386.884,1080.54 385.153,1079.18C377.209,1052.71 374.56,1024.75 373.309,1001.68C372.28,982.441 371.173,963.563 369.956,959.16C366.489,943.649 362.734,925.546 352.818,913.76C345.097,904.868 336.284,903.32 331.022,913.302C326.713,921.482 335.79,935.016 343.329,930.518C345.147,929.492 346.237,927.759 343.847,927.806C336.022,928.964 330.772,918.149 335.72,912.99C344.442,903.907 359.69,924.142 352.618,935.278C349.497,940.096 341.347,940.945 334.825,939.169C320.321,932.159 316.682,914.984 321.534,903.67C325.234,895.04 333.366,889.887 342.476,892.929L342.476,892.93ZM316.962,898.085C318.68,898.165 317.509,901.325 315.927,906.254C312.197,918.066 319.191,936.423 328.886,940.075C331.792,942.057 331.636,942.809 329.698,943.901C323.368,947.453 311.886,936.792 308.856,924.913C306.662,916.321 307.2,906.176 311.334,901.871C313.593,899.517 315.389,898.279 316.603,898.111C316.731,898.093 316.853,898.08 316.962,898.085ZM161.338,905.051L184.805,920.384C185.899,925.173 185.416,930.274 184.683,935.423L161.195,919.055L161.338,905.051ZM302.946,904.856C304.688,904.801 304.038,907.717 303.552,913.041C302.43,925.365 306.251,934.324 314.957,941.764C318.629,944.907 319.636,945.892 318.058,947.536C315.811,949.875 309.378,946.74 304.336,941.482C295.099,931.852 292.041,913.682 299.237,907.093C300.817,905.647 302.037,904.884 302.946,904.856ZM563.961,906.997C573.994,906.602 582.457,910.496 583.384,922.745C584.753,940.684 568.033,950.498 556.37,940.199C545.918,929.856 556.517,913.672 568.627,921.255C574.718,925.094 567.452,933.855 562.523,929.327C560.302,927.283 559.328,928.553 560.906,930.914C565.674,938.033 575.063,932.111 574.389,925.842C573.07,913.515 557.92,913.671 552.217,918.501C544.407,925.105 537.533,934.834 532.402,941.924C528.205,948.072 527.305,947.906 527.925,940.311C529.562,920.234 548.317,907.602 563.961,906.997ZM290.88,910.918C292.481,910.863 291.848,913.153 291.966,919.052C292.609,934.208 298.999,943.648 307.103,948.925C309.818,951.923 306.345,954.049 301.237,952.598C289.595,949.013 277.705,924 287.57,913.247C288.957,911.741 290.048,910.95 290.88,910.918ZM279.561,915.888C281.174,915.788 280.268,919.132 280.417,925.454C280.739,938.763 284.855,945.154 294.75,953.276C297.973,955.92 298.372,955.626 297.105,957.092C293.715,960.992 282.231,955.469 277.335,947.5C271.508,938.012 270.654,923.705 276.072,918.303C277.588,916.788 278.716,915.939 279.561,915.888ZM268.301,922.298C269.64,922.304 268.893,924.711 269.099,930.455C269.596,944.389 272.784,951.288 281.623,957.733C287.179,961.779 288.532,960.567 286.832,962.168C283.855,964.973 275.716,962.566 269.612,957.408C260.453,949.686 257.889,930.631 265.329,924.103C266.651,922.937 267.603,922.295 268.301,922.298ZM161.739,924.269L184.287,939.894L183.652,953.089L161.213,937.91L161.739,924.269ZM556.018,949.013C546.835,947.135 543.362,940.51 544.483,933.004C544.857,930.493 546.323,929.056 547.895,932.333C549.246,937.541 552.714,944.75 557.463,946.154C559.374,946.716 557.778,949.372 556.018,949.013ZM358.594,933.429C368.948,959.489 368.766,987.97 370.483,1014.87C372.764,1050.63 379.092,1074.72 381.156,1078.78C381.156,1078.78 371.048,1078.89 370.533,1077.44C370.533,1077.44 360.997,1030.01 362.431,1006.55C362.536,980.308 357.428,957.235 354.305,946.869C351.006,937.684 350.864,943.754 358.594,933.429ZM161.616,943.606L183.31,957.79C183.003,962.644 182.958,967.495 183.016,972.351L161.751,957.302L161.616,943.606ZM453.335,942.394C453.353,943.181 456.47,943.847 461.36,942.668C466.793,941.352 472.204,941.588 476.379,942.732C480.811,943.949 481.303,942.519 477.286,940.771C475.332,939.915 472.222,937.974 467.559,938.055C462.896,938.135 453.297,940.677 453.335,942.394ZM541.21,941.848C541.743,942.82 543.389,945.007 544.868,946.722C547.658,949.955 548.446,949.982 547.171,951.301C544.249,954.348 538.105,949.934 537.446,944.299C536.874,940.187 538.925,937.588 541.21,941.848ZM346.957,942.958C357.091,957.393 358.582,991.257 358.791,1015.33C358.977,1037 366.314,1076.72 366.907,1076.55C364.817,1077.78 362.011,1077.35 359.376,1076.34C356.77,1072.94 355.171,1063.42 352.145,1037.67C351.369,1031.02 349.838,1009.88 349.488,992.85C349.187,977.837 340.796,945.329 340.796,945.329C340.796,945.329 344.056,943.013 346.957,942.958ZM335.682,946.563C344.912,967.168 346.414,987.628 346.832,1012.46C347.225,1035.94 352.442,1063.45 354.412,1075.59C351.297,1075.91 348.007,1076.17 346.699,1074.77C345.869,1073.63 345.209,1071.85 344.804,1069.54C340.601,1049.24 339.595,1027.15 338.394,1008.47C336.584,979.526 336.121,972.363 332.016,957.93C329.687,949.744 328.875,949.916 330.627,948.34C331.962,947.142 334.516,946.541 335.682,946.563ZM439.497,951.308C439.752,960.895 440.989,956.988 444.376,955.459C446.922,955.243 449.006,956.635 453.746,958.373C459.782,960.592 459.242,961.336 463.478,959.257C466.099,957.969 468.182,957.529 469.433,958.542C474.399,962.57 480.799,960.306 484.397,957.037C487.214,955.574 490.281,956.369 492.661,956.59C496.094,956.906 495.197,954.715 495.621,950.384C495.994,946.528 494.528,946.19 490.543,947.491C486.468,948.819 482.422,949.012 478.883,947.93C469.841,945.172 463.217,946.966 458.736,947.671C448.143,949.331 447.577,948.263 445.178,946.747C443.387,945.62 440.429,943.529 439.411,943.595C438.387,943.655 438.725,947.129 439.497,951.308ZM533.46,946.9C534.465,946.386 534.934,947.756 536.331,949.581C538.682,952.635 539.363,954.073 537.4,954.358C532.196,955.113 530.9,954.568 531.084,951.336C531.232,948.758 531.801,947.751 533.46,946.9ZM324.797,951.449C332.431,959.142 334.371,1002.29 335.236,1011.58C337.992,1061.92 342.767,1069.15 340.311,1072.93C337.42,1072.88 336.417,1073.95 334.529,1071.42C327.995,1052.98 328.374,1034.03 327.313,1014.8C325.821,989.318 323.295,975.522 319.71,962.895C317.326,954.498 317.356,954.363 321.654,952.058C322.417,951.644 324.111,951.427 324.797,951.449ZM314.513,957.518C317.203,963.63 322.604,991.421 323.336,1015.41C323.921,1034.46 328.466,1071.7 329.308,1071.91C326.531,1072.16 323.198,1071.6 321.847,1069.49C313.523,1032.78 316.171,997.178 306.55,960.254C307.12,958.465 310.165,955.512 314.513,957.518ZM161.928,962.041L184.427,978.173L184.902,991.941L161.94,975.649L161.928,962.041ZM496.329,960.304C483.625,965.236 480.339,969.282 482.332,972.834C484.016,975.828 489.069,974.78 502.601,969.132C512.714,964.916 515.886,966.754 517.939,973.125C517.839,982.531 508.719,983.625 503.568,982.335C501.357,982.252 501.68,982.452 504.042,985.403C514.515,993.619 527.358,977.549 520.957,967.366C515.946,958.059 507.277,955.411 496.329,960.304ZM416.593,964.121C406.116,972.346 409.855,987.162 418.581,989.387C421.008,990.62 424.626,990.042 426.041,989.099C427.348,988.234 427.34,986.825 424.662,986.377C416.564,985.034 411.967,979.091 415.877,973.069C419.675,967.229 426.713,968.35 440.239,974.176C451.935,979.221 457.063,977.661 458.443,971.612C459.051,968.938 458.31,966.437 452.701,966.23C437.092,965.649 426.741,956.157 416.593,964.121ZM556.861,986.808C556.165,982.545 549.232,986.919 544.639,994.475C540.122,1001.91 539.65,1002.97 538.731,995.253C537.359,983.741 549.305,974.738 556.759,974.451C565.739,973.417 571.629,978.438 571.861,984.22C572.314,995.611 558.721,995.725 556.861,986.808ZM161.427,980.013L185.255,996.369C185.255,996.369 186.061,1005.14 185.547,1009.85L161.619,994.541L161.427,980.013ZM447.509,985.507C437.149,992.532 443.242,1005.36 450.49,1006.8C458.13,1008.32 458.668,1002.99 451.072,1001.42C447.012,999.821 445.97,995.953 447.554,992.97C451.177,987.042 457.877,990.879 461.773,992.725C470.418,996.841 474.899,998.346 477.632,995.5C482.479,990.445 478.152,981.435 471.746,984.61C470.016,985.468 468.714,986.282 465.036,985.374C459.452,984.206 452.751,982.958 447.509,985.507ZM161.626,999.461L185.065,1015.5L184.355,1029.69L162.343,1013.55L161.626,999.461ZM162.114,1018.96L184.158,1034.67C183.828,1040.66 183.978,1043.05 184.22,1046.87L161.926,1032.48L162.114,1018.96ZM551.939,1021.98C569.615,1023.71 563.753,1044.02 551.411,1038.53C548.12,1036.06 547.13,1036.26 543.473,1045.16C538.795,1056.56 537.654,1055.63 538.295,1042.47C538.768,1029.58 544.688,1022.08 551.939,1021.98ZM412.66,1025.08C413.077,1025.08 413.418,1025.15 413.625,1025.32C414.817,1026.66 411.235,1031.96 408.199,1035.07C405.959,1036.54 400.513,1032.57 401.837,1030.63C403.379,1028.75 409.814,1025.37 412.66,1025.08ZM436.249,1035.54L433.09,1035.98C428.316,1025.35 418.408,1027.79 415.348,1037.66L410.991,1037.16C415.389,1025.06 431.087,1017.64 436.248,1035.53L436.249,1035.54ZM525.256,1037.96L519.904,1038.28C515.111,1026.75 508.321,1025.03 502.56,1036.42L498.416,1035.22C505.547,1020.66 517.46,1019.49 525.256,1037.96ZM498.521,1024.81C501.261,1024.64 500.908,1025.9 498.056,1029.79C495.58,1033.18 494.979,1033.71 492.492,1031.86C488.412,1028.83 495.193,1025.03 498.521,1024.81ZM523.859,1025.15C524.378,1025.18 524.988,1025.22 525.682,1025.4C531.193,1026.76 533.723,1029.37 531.023,1032.72C529.336,1034.81 527.695,1035.63 526.586,1034.23C522.864,1028.1 520.807,1024.96 523.859,1025.15ZM440.603,1028.78C441.181,1031.06 439.372,1032.68 437.358,1030.78C436.54,1030.01 435.822,1028.69 435.93,1027.72C437.188,1026.53 440.2,1027.51 440.603,1028.78ZM161.89,1036.62L184.551,1052.89C185.3,1058.62 185.453,1062.98 185.414,1066.89L162.08,1051.44L161.89,1036.62ZM492.261,1041.55C505.32,1050.49 520.625,1050.37 530.204,1042.52C532.344,1040.76 534.207,1040.69 534.245,1042.37C532.881,1048.64 516.231,1056.68 503.23,1052.13C496.088,1049.63 490.216,1047.14 485.531,1040.47C482.745,1036.12 488.475,1038.93 492.261,1041.55ZM486.738,1045.9C505.82,1062.37 520.989,1057.79 532.484,1049.5C534.182,1049.07 534.21,1050.6 534.591,1053.44C535.073,1057.08 532.05,1058.88 523.783,1061.35C507.803,1066.14 489.051,1060.9 485.672,1050.18C485.277,1048.07 484.468,1045.34 486.738,1045.9ZM161.803,1055.76L184.783,1071.53L184.054,1083.57L161.667,1068.44L161.803,1055.76ZM162.174,1074.22L183.863,1088.92L183.796,1098.89L162.692,1083.86L162.174,1074.22ZM319.729,1078.9C412.273,1099.84 477.856,1089.89 542.221,1078.55L599.246,1190.39L255.614,1190.85C278.055,1154.5 296.73,1114.76 319.729,1078.9Z" style="fill:rgb(19,31,103);fill-rule:nonzero;"/>
        <path d="M822.777,1124.01L822.777,1136.41L832.566,1136.41L860.452,1198.99L833.751,1242.7L823.463,1242.7L823.463,1253.79L862.419,1253.79L862.419,1242.7L849.446,1242.7L885.161,1191.16L885.161,1242.7L874.431,1242.7L874.431,1253.79L910.004,1253.79L910.004,1242.97L898.313,1242.97L898.313,1136.41L910.004,1136.41L910.004,1124.01L874.431,1124.01L874.431,1136.41L885.161,1136.41L885.161,1167.88L869.985,1187.42L847.243,1136.41L862.419,1136.41L862.419,1124.01L822.777,1124.01Z"/>
        <path d="M23.329,46.215L23.329,58.408L35.796,58.408L35.796,164.47L23.329,164.47L23.329,177.602L59.563,177.602L59.563,164.47L49.953,164.47L49.953,134.381L64.508,114.222L86.328,164.47L72.394,164.47L72.394,177.602L111.914,177.602L111.914,164.47L102.465,164.47L73.535,99.867L101.024,58.207L111.209,58.408L111.209,46.215L71.971,46.215L71.971,58.408L83.285,58.408L49.953,109.557L49.953,58.408L59.845,58.408L59.845,46.215L23.329,46.215Z"/>
        <path d="M328.383,111.699L345.507,143.708L345.539,145.214L355.007,163.698L356.436,164.615L358.569,168.641L358.806,170.6L364.091,179.052L364.059,180.867L386.475,222.566C404.969,215.664 556.854,203.236 613.094,223.567L621.287,209.685L623.247,209.671L637.693,184.332L637.463,182.201L642.325,176.658L643.03,174.134L658.968,149.192L659.026,145.171L678.956,111.939L328.383,111.699ZM672.293,116.484C672.293,116.484 661.896,136.471 656.534,144.55C652.203,141.131 639.628,143.453 640.384,156.702C619.891,148.941 614.951,173.382 630.794,178.884C622.665,185.982 614.894,177.954 608.725,172.51C602.696,174.003 590.179,178.433 583.093,165.397C583.093,165.397 586.053,166.996 589.013,168.734C605.771,173.829 607.123,151.216 594.657,147.513C593.087,147.101 590.134,146.933 590.134,146.933C594.324,129.543 567.417,123.472 566.911,144.37C566.911,144.37 563.715,143.848 561.287,144.29C547.027,146.89 550.294,167.919 564.868,166.912C566.879,166.773 568.673,167.132 568.673,167.132C568.436,170.501 550.793,176.936 538.084,165.351C532.055,169.941 522.516,175.695 510.076,164.249C518.256,163.917 526.104,161.59 526.014,152.318C525.95,146.282 520.524,140.894 512.696,140.607C512.254,133.862 507.231,127.427 500.71,126.933C492.74,127.398 488.673,133.823 488.615,140.607C481.844,141.306 475.508,147.274 476.962,154.12C478.948,163.459 486.149,164.608 494.361,162.828C484.368,178.888 468.102,170.511 463.093,165.391C457.116,170.962 446.706,178.505 433.88,168.194C440.716,167.024 448.32,163.016 447.032,153.479C446.027,145.964 437.59,143.733 433.919,144.13C433.912,139.165 430.165,130.972 421.311,131.818C411.651,132.742 412.227,144.955 412.343,145.051C404.361,144.393 398.576,153.776 400.85,159.765C403.618,167.054 409.415,169.321 420.069,167.353C407.641,179.015 399.748,174.488 392.964,172.037C386.961,178.33 378.941,180.359 370.722,174.78C389.107,175.656 386.18,143.156 364.373,154.941C362.49,148.844 359.677,141.338 348.262,143.089L335.244,117.965L672.293,116.484ZM251.285,137.263C250.343,137.275 249.388,137.322 248.421,137.384C213.206,139.635 200.202,164.114 201.861,185.79C202.976,200.419 210.958,212.908 222.559,219.683C227.53,223.473 228.575,224.896 227.703,226.67C226.672,228.764 225.275,228.562 222.457,225.969C182.168,187.425 125.429,232.705 150.528,282.685C170.483,322.428 226.486,313.231 238.491,268.511C239.446,264.956 240.983,263.412 242.636,264.387C243.809,265.078 242.88,269.687 241.938,276.699C242.002,302.015 215.653,341.858 214.167,343.203L283.258,343.143C267.409,321.505 258.114,300.28 256.192,269.392C256,260.044 259.497,262.036 262.457,272.635C275.961,320.99 337.454,320.539 351.401,273.435C364.418,229.487 315.475,192.76 283.034,222.346C278.37,226.6 275.212,227.389 275.148,224.288C275.122,222.967 279.478,218.076 283.476,214.959C291.573,208.649 298.319,196.838 298.389,184.87C298.537,160.687 280.548,136.926 251.285,137.264L251.285,137.263ZM214.167,343.203L214.09,343.203C214.077,343.254 214.116,343.251 214.167,343.203ZM500.947,148.514C501.837,148.477 502.779,148.662 503.708,149.135C506.584,150.598 507.122,153.151 505.374,156.923C504.752,158.247 503.868,159.767 504.009,161.167C524.259,198.501 568.897,181.816 573.1,164.47C573.362,163.37 572.85,162.165 572.273,160.987C570.557,158.133 570.787,155.796 573.017,153.839C577.77,149.673 584.58,154.591 581.825,160.206C581.095,161.687 580.332,163.31 580.883,165.29C592.344,191.31 615.163,193.266 634.317,182.968C625.496,198.761 591.3,208.444 576.943,170.415C554.022,201.396 517.654,200.811 501.145,165.831C486.302,201.611 441.517,202.458 425.213,172.738C410.376,206.737 375.962,199.023 366.218,177.743C398.185,200.875 419.249,176.727 423.028,166.432C423.028,166.432 422.292,165.23 421.273,164.23C417.179,160.215 417.295,155.493 421.529,153.62C426.962,151.219 432.042,156.431 429.255,161.547C428.474,162.98 427.782,163.294 428.294,164.53C438.243,187.714 487.238,194.45 497.161,161.927C497.5,160.069 497.308,158.352 496.462,156.942C494.131,153.058 497.097,148.675 500.947,148.514ZM357.929,161.647C365.654,162.086 363.502,168.73 361.952,169.235L357.929,161.647ZM644.888,165.791C644.939,165.916 640.121,174.399 640.121,174.399C637.572,170.326 638.232,165.256 644.888,165.791ZM618.763,208.653C618.763,208.653 613.824,219.567 612.197,220.484C520.659,197.038 392.938,217.425 389.799,219.683L384.175,209.093C464.432,193.059 544.458,196.484 618.763,208.653ZM64.903,204.949C62.071,204.983 59.08,205.631 55.998,207.031C40.079,214.254 38.714,232.509 53.013,246.93C55.294,249.227 57.171,251.409 57.177,251.774C57.209,253.401 55.595,253.106 51.693,250.754C29.823,237.566 8.471,253.393 17.362,276.218C24.537,294.653 52.904,291.857 57.299,272.274C57.882,269.661 59.771,268.059 60.604,269.472C61.309,270.676 59.227,280.647 57.119,286.187C54.345,293.462 52.699,297.271 51.033,300.241C48.996,303.861 48.855,305.05 50.431,305.427C52.699,305.968 77.491,305.288 77.478,304.685C77.472,304.353 76.428,301.931 75.153,299.28C70.175,288.921 66.376,270.99 68.727,268.951C70.053,267.804 70.495,268.388 72.289,273.695C81.162,299.931 114.141,293.603 113.513,265.788C113.084,246.866 95.768,238.555 80.162,249.772C76.607,252.324 75.556,252.465 75.236,250.493C75.101,249.706 75.723,248.798 76.979,247.951C96.742,234.587 84.749,204.71 64.903,204.949ZM464.13,370.85C455.296,404.935 433.9,408.404 408.057,412.55C376.052,417.685 355.193,406.024 345.436,388.206C345.436,388.206 299.658,405.503 282.957,415.553C317.685,431.464 363.572,466.696 389.658,506.701C398.954,518.899 398.486,516.139 398.467,542.896C398.429,600.92 398.569,622.493 398.569,622.493C412.9,624.639 413.682,634.493 412.9,645.561C424.406,640.482 435.469,646.697 435.424,657.551C435.328,677.5 415.732,672.08 411.657,669.881C418.031,687.465 410.549,694.745 402.913,695.609C393.496,696.673 382.688,692.146 385.84,672.022C375.578,676.01 362.573,668.762 360.773,656.646L360.273,636.126C385.667,588.35 353.784,549.504 323.854,536.73C323.854,536.73 332.323,519.223 343.271,514.308C344.386,513.972 336.634,502.601 323.598,505.079C317.595,505.203 318.992,505.162 313.348,497.832C302.188,483.343 296.929,482.35 286.057,497.852C281.272,504.676 280.132,504.862 274.469,504.979C268.229,505.108 258.658,509.586 256.608,513.587C256.141,514.503 258.588,515.438 261.836,519.233C266.512,524.694 273.726,532.196 272.585,539.833C247.941,549.86 207.05,593.862 250.042,650.2L218.953,650.6L217.473,450.046L195.852,462.078L196.813,619.169L190.65,617.128C191.118,567.02 190.362,516.946 188.786,466.862L131.771,508.402L134.314,743.95L140.381,745.232C144.878,777.325 208.453,754.879 212.168,757.663L212.931,888.55L210.144,895.036L260.734,922.681L307.14,898.62C307.14,898.62 313.405,897.493 315.75,896.258C334.988,886.119 349.331,888.393 359.793,903.264C366.244,912.437 367.339,913.795 367.339,913.795C371.247,887.325 394.719,877.569 417.487,884.486C434.233,889.573 457.109,906.258 464.111,926.627C464.111,926.627 465.373,929.695 466.616,931.073L467.577,931.489C467.513,930.964 466.469,928.421 466.072,927.191C442.593,873.264 376.423,864.993 366.218,909.048L356.846,895.917L406.116,865.708L473.439,910.009C473.439,910.009 470.274,925.583 469.915,932.316L471.075,932.854C471.408,932.002 471.882,928.773 472.177,926.749C473.246,919.394 475.2,913.212 477.846,908.491C479.441,905.643 481.286,903.327 483.349,901.602C487.372,899.267 491.101,899.507 495.181,895.677L485.354,888.33L485.13,864.747L504.893,892.414C511.101,890.977 535.303,883.757 549.653,891.753C551.274,892.254 572.325,886.254 585.425,915.615L648.526,889.411C648.526,889.411 652.549,887.145 652.594,886.548C589.673,863.331 526.142,781.127 532.254,779.805C532.254,779.805 532.075,771.37 532.555,750.677C533.067,727.61 532.792,704.063 533.176,680.92C511.767,674.083 517.09,656.826 517.09,656.826C504.214,659.649 502.164,657.15 498.903,654.884L496.68,633.043C504.4,626.475 509.031,625.864 518.583,627.958C518.583,627.958 513.951,618.469 518.16,610.661C521.709,604.486 531.146,600.588 538.686,604.936C548.423,611.571 545.316,625.475 543.926,627.417C554.054,622.883 566.431,627.937 569.474,637.948C570.992,608.344 573.561,575.203 579.506,549.382C590.454,502.779 608.392,453.973 630.852,415.593C634.529,409.181 639.218,402.758 643.004,396.755C646.515,391.408 648.187,387.946 648.187,387.946C648.187,387.946 643.382,390.592 638.302,392.01C630.986,393.993 625.483,395.88 624.644,396.714C619.295,401.216 612.28,404.553 606.547,407.044C586.341,414.909 572.754,403.18 564.362,385.268C559.692,408.017 538.846,427.267 508.096,415.304C490.723,406.084 485.264,400.19 469.018,376.134C467.654,373.676 464.13,370.849 464.13,370.849L464.13,370.85ZM464.803,374.567C476.296,397.296 493.509,413.4 510.236,419.837C540.108,429.629 559.813,410.505 565.368,392.937L571.133,402.698L525.905,434.806L457.66,391.423C458.8,390.377 464.906,375.092 464.803,374.567ZM670.173,376.135L649.91,388.066C649.91,388.066 636.457,409.779 631.934,417.955C608.295,459.697 590.557,505.11 581.306,550.163C577.565,566.661 573.599,596.795 572.273,611.282C570.166,634.392 570.268,643.881 570.877,665.074L572.459,666.795C572.459,666.795 569.974,671.152 568.193,674.824C563.356,684.8 562.171,690.442 562.466,702.01C563.138,728.627 579.32,754.107 602.184,764.49C603.472,765.075 605.188,765.831 605.188,765.831C605.188,765.831 601.268,776.427 594.157,783.889C589.41,788.865 588.398,789.109 590.076,791.556C592.408,794.962 599.935,797.919 609.295,797.782C612.6,797.734 612.581,797.725 618.699,804.389C630.647,817.397 634.234,817.13 645.105,802.387C648.334,798.004 650.173,796.954 654.894,796.841C661.838,796.676 674.51,791.072 674.452,788.454C665.906,784.668 656.002,765.156 657.578,764.951C704.324,740.219 714.228,688.956 680.09,651.26L712.691,650.74L713.895,855.238C720.276,851 734.715,841.885 734.715,841.885L734.235,682.753C736.477,683.179 738.764,684.785 743.12,685.494L744.401,835.959C744.401,835.959 748.642,834.239 752.332,831.835C770.551,819.834 806.221,792.077 806.221,792.077L805.004,560.193L800.238,560.193L800.994,791.956L745.644,832.376L745.285,688.336C745.285,688.336 749.654,687.684 751.288,687.455C767.489,685.189 774.991,664.53 764.241,651.041C760.423,646.252 763.133,646.591 771.25,645.035C785.638,643.766 793.614,632.888 789.424,625.135C787.63,621.81 789.969,622.169 791.487,619.01C792.486,616.525 792.301,613.443 791.871,611.002C791.301,607.798 792.621,606.38 793.428,604.335C794.703,601.132 793.466,597.514 791.346,594.506C789.11,591.331 789.725,587.924 789.706,585.817C789.61,581.108 787.906,580.435 782.922,575.888C779.149,572.447 782.172,571.697 787.726,568.841C796.452,564.348 797.054,548.447 785.439,541.675C779.232,538.055 767.938,538.35 743.46,542.215C734.184,543.681 723.28,544.658 723.28,544.658C723.28,544.658 723.203,453.996 722.563,407.265L670.173,376.135ZM670.173,379.338C670.173,379.338 719.872,408.413 719.481,409.227C702.787,432.087 640.531,523.177 640.083,633.323C594.426,627.594 575.733,663.287 573.516,663.152C567.52,528.329 622.235,431.869 650.269,390.929L670.173,379.338ZM638.821,397.075L638.661,400.378L628.808,415.092L628.552,400.378L638.821,397.075ZM623.606,402.2L623.965,425.903L603.785,441.318L602.607,416.594L623.606,402.2ZM436.565,407.625L446.936,414.792L446.577,438.315L430.959,409.907L436.565,407.625ZM720.442,415.553L720.519,432.569C680.73,488.689 659.859,552.787 653.472,633.964L643.786,633.643C646.348,552.923 673.523,479.272 720.442,415.553ZM450.979,417.295L475.521,433.33L474.464,460.156L452.176,445.862L450.101,440.377L450.979,417.295ZM599.564,418.436L599.461,443.379L580.505,457.453L579.621,432.689L599.564,418.436ZM369.78,424.962C372.592,424.996 374.841,427.044 375.366,430.928C377.448,447.506 390.062,442.721 393.06,447.704C394.194,449.404 391.51,450.88 382.874,450.186C367.045,449.002 355.501,436.198 363.592,427.764C365.674,425.853 367.858,424.939 369.78,424.962ZM479.185,435.652L500.146,449.005L500.088,476.552L479.544,464.02L479.185,435.652ZM574.817,435.732L576.437,460.096L553.497,475.351L552.677,451.147L574.817,435.732ZM618.481,435.832L605.31,463.879L528.455,519.173L464.669,477.873L452.843,450.807L527.251,499.354L618.481,435.832ZM411.222,446.963C431.645,446.713 447.314,468.389 452.683,487.382C456.578,499.94 457.173,504.461 457.583,524.398C458.006,544.707 458.64,548.214 462.452,551.084C464.797,552.851 465.476,552.374 465.77,548.782C466.437,540.801 475.975,545.718 476.142,554.127C476.328,563.465 466.046,566.466 458.448,559.292C454.399,555.472 454.348,555.508 453.08,563.015C452.241,568.044 446.379,599.525 461.35,607.358C464.169,607.625 464.842,605.365 462.747,602.734C458.551,597.457 466.943,591.366 473.778,594.726C482.049,598.787 481.209,612.111 472.382,616.848C462.279,622.267 449.21,616.108 443.112,603.054C438.634,593.471 438.653,580.186 443.189,560.453C445.283,551.358 446.206,545.567 446.674,538.591C446.827,536.302 447.103,533.809 447.276,533.046C447.763,530.921 446.712,530.82 443.092,532.646C433.208,537.629 422.426,534.087 419.768,524.978C416.59,514.088 428.73,502.836 436.225,509.724C439.069,512.338 438.723,514.935 435.322,516.611C429.428,519.513 431.446,527.151 437.705,525.639C458.352,519.461 439.473,461.524 416.225,457.513C400.85,454.861 388.787,472.371 399.908,481.737C404.265,485.406 408.691,483.437 407.737,478.253C406.411,471.023 416.014,471.804 419.569,479.214C425.347,491.273 410.427,501.088 396.487,494.409C371.471,479.554 388.569,447.419 411.222,446.963ZM503.81,451.568L524.413,465.401L524.592,492.287L504.131,480.155L503.81,451.568ZM549.192,453.89L549.294,478.574L529.416,493.027L529.416,466.762L549.192,453.89ZM602.748,470.066L592.575,498.393L528.41,542.275L475.482,509.083L466.373,482.878L528.73,523.277L602.748,470.066ZM186.319,472.127L186.3,615.526C165.512,616.411 153.577,636.975 169.144,656.406C169.144,656.406 166.435,656.771 163.257,657.207C149.196,659.135 139.772,666.59 141.643,675.624C142.213,678.392 141.63,681.188 140.835,682.571C139.586,686.284 139.919,689.12 141.598,692.32C142.917,694.834 142.7,695.844 141.963,697.705C140.368,701.713 140.746,704.801 142.623,707.855C144.935,710.121 144.295,711.951 143.981,715.583C143.609,720.712 144.532,722.775 147.767,724.771C151.931,727.345 153.488,731.565 148.747,731.218C146.396,731.046 138.119,739.025 138.119,739.025L137.338,508.903L186.319,472.127ZM299.049,490.525C302.771,490.516 306.602,495.19 312.105,503.077C315.43,508.726 315.488,507.96 323.092,507.662C330.862,508.228 335.597,510.28 337.627,512.627C338.396,513.515 336.359,513.747 331.445,518.732C326.346,523.903 325.641,525.958 322.252,531.745C321.035,533.832 318.377,534.028 317.127,532.126C316.122,530.586 318.703,525.578 323.534,519.673C330.356,513.09 328.921,512.427 319.011,513.468C312.047,514.199 311.304,513.851 308.659,509.624C300.779,493.952 296.589,494.481 289.043,510.104C286.986,514.476 287.8,514.195 278.87,513.507C271.842,512.965 270.1,514.739 274.065,518.432C280.26,523.517 282.675,535.515 282.335,535.369L277.55,535.809C277.55,535.809 276.089,533.107 275.449,531.405C274.155,527.958 270.663,522.78 266.884,518.693C261.522,512.901 264.462,509.734 276.429,508.443C283.098,507.723 283.252,507.631 286.32,503.138C291.727,495.222 295.334,490.535 299.049,490.525ZM590.095,504.799L583.183,529.263L528.455,567.64L483.932,537.931L478.025,514.929L529.173,547.32L590.095,504.799ZM401.388,524.178C401.388,524.178 417.211,554.997 422.951,574.967C427.948,592.339 434.886,642.64 433.06,645.735C429.172,640.399 416.321,641.602 416.148,641.651C417.231,635.759 412.471,623.882 401.51,621.532L401.388,524.178ZM581.466,535.449L576.002,559.532L529.397,593.225L490.934,566.959L485.892,543.677L528.455,572.104L581.466,535.449ZM310.523,536.79L316.57,538.892L317.71,582.394L364.335,590.141L365.398,597.589L311.407,588.88C310.837,570.328 310.523,536.79 310.523,536.79ZM286.858,538.091L288.159,588.68C287.659,588.512 249.292,593.98 234.609,597.829L235.468,590.903C235.468,590.903 262.137,585.102 281.451,582.874C281.451,568.728 281.342,553.85 281.317,539.433L286.858,538.091ZM720.641,547.4C720.641,547.4 726.983,547.99 740.558,545.599C775.555,539.476 785.029,541.957 789.507,552.745C794.395,569.474 776.054,569.879 772.787,559.259C770.705,552.377 763.191,553.884 738.098,559.833C716.637,564.919 703.037,560.847 703.299,548.689C703.568,536.189 717.809,535.083 720.641,547.4ZM433.041,538.251C437.372,538.189 440.946,541.652 441.01,545.979C441.075,550.306 437.609,553.864 433.278,553.927C428.954,553.989 425.399,550.546 425.335,546.219C425.27,541.892 428.711,538.314 433.041,538.251ZM319.35,539.632L324.879,541.294C324.879,541.294 325.693,574.293 325.859,574.346C337.749,576.967 362.714,581.653 362.714,581.653L364.034,588.18C353.585,585.726 320.273,580.272 320.273,580.272C319.235,565.961 319.35,539.632 319.35,539.632ZM279.011,540.253C279.011,540.253 279.036,566.586 278.594,580.733C278.78,580.608 250.324,585.263 235.871,588.26L236.992,582.975C248.421,580.394 260.862,577.806 273.444,575.167C273.194,564.809 273.207,542.095 273.207,542.095L279.011,540.253ZM299.331,545.919C302.803,545.868 305.686,548.67 305.737,552.145C305.789,555.619 302.989,558.46 299.51,558.511C296.038,558.562 293.194,555.799 293.149,552.325C293.098,548.85 295.859,545.969 299.331,545.919ZM772.832,562.355C776.701,568.09 779.949,567.919 783.761,567.36C782.8,567.642 778.297,570.304 778.553,571.183C778.687,571.622 776.657,578.874 779.738,579.171C791.352,580.292 785.472,592.352 786.862,594.206C790.001,597.783 792.301,600.053 790.148,604.516C788.239,608.476 785.491,608.351 787.624,611.743C792.249,618.698 785.856,620.14 786.426,624.875C786.81,627.734 787.816,631.64 786.766,633.864C783.582,640.568 772.358,644.392 759.879,644.914C758.098,644.994 759.45,642.088 758.617,640.25C755.529,638.299 757.22,635.013 758.258,632.863C759.277,630.008 759.289,630.005 757.374,628.559C752.05,625.249 752.326,623.723 752.749,621.332C753.915,614.261 752.819,613.57 750.686,612.523C747.957,611.182 748.328,608.2 749.546,604.375C750.385,601.732 749.789,601.069 748.508,598.67C747.752,597.259 747.521,596.493 747.502,595.587C747.886,591.936 744.619,591.949 740.039,595.527C736.157,602.218 734.824,610.999 732.39,616.547C730.513,620.809 730.212,625.26 732.447,635.085C736.752,650.102 733.556,652.605 716.656,649.399C703.946,646.273 700.192,632.709 703.722,616.106C704.292,613.421 704.138,610.825 703.882,608.719C702.498,597.29 705.452,586.313 713.434,578.811C726.746,566.29 733.332,564.382 760.859,566.138C771.628,566.9 772.448,567.58 772.448,567.58C772.448,567.58 772.499,562.396 772.832,562.355ZM574.58,565.798L571.377,589.081L545.528,607.318C533.362,597.71 523.964,600.911 515.399,611.202C508.615,607.762 495.06,598.389 495.06,598.389L491.6,571.984L529.173,598.049L574.58,565.798ZM299.895,571.323C303.367,571.273 306.211,574.055 306.256,577.53C306.307,581.004 303.546,583.865 300.074,583.915C296.596,583.966 293.719,581.204 293.668,577.729C293.617,574.255 296.416,571.374 299.895,571.323ZM570.255,595.167L568.833,617.588L559.647,624.495L550.396,623.554L548.212,609.661L570.255,595.167ZM299.735,595.347C303.207,595.296 306.09,598.098 306.141,601.573C306.186,605.047 303.386,607.888 299.914,607.939C296.435,607.989 293.598,605.227 293.546,601.753C293.495,598.278 296.256,595.397 299.735,595.347ZM325.078,596.047C328.55,595.997 331.394,598.758 331.445,602.233C331.49,605.708 328.729,608.569 325.257,608.62C321.785,608.67 318.921,605.888 318.87,602.413C318.819,598.939 321.605,596.098 325.078,596.047ZM274.686,597.249C278.165,597.198 281.022,599.98 281.073,603.454C281.125,606.929 278.364,609.79 274.891,609.841C271.413,609.891 268.53,607.109 268.485,603.635C268.434,600.16 271.214,597.299 274.686,597.249ZM742.723,598.27C744.491,598.126 747.118,600.756 745.843,604.696C744.132,609.192 745.337,610.721 748.187,614.365C750.596,617.448 750.173,617.876 749.808,619.85C749.251,632.795 757.592,627.2 753.972,636.606C753.184,638.653 754.229,641.576 754.594,643.994C753.78,641.78 738.437,641.982 737.137,644.234C734.952,643.908 732.185,629.498 734.395,627.598C734.677,627.592 736.272,630.069 737.098,631.461C739.155,634.956 739.597,634.828 738.956,630.781C736.406,614.717 737.938,598.368 742.723,598.27ZM350.485,599.391C353.957,599.34 356.82,602.122 356.865,605.596C356.916,609.071 354.136,611.912 350.664,611.963C347.185,612.013 344.347,609.251 344.296,605.776C344.245,602.302 347.006,599.441 350.485,599.391ZM248.543,600.552C252.015,600.501 254.859,603.283 254.911,606.758C254.962,610.232 252.194,613.073 248.722,613.124C245.25,613.174 242.367,610.412 242.316,606.938C242.265,603.463 245.071,600.602 248.543,600.552ZM495.341,602.373L514.201,614.605C514.515,618.461 514.015,623.982 515.277,625.856C502.971,624.709 496.744,631.722 496.744,631.722L495.341,602.373ZM301.797,612.483C322.438,612.634 342.438,615.924 361.01,621.932L359.549,628.579C322.393,619.015 280.862,618.511 241.176,629.019L238.094,622.032C258.088,615.807 278.159,612.757 297.672,612.503C299.056,612.485 300.42,612.473 301.797,612.483ZM185.083,621.512C190.49,621.418 196.025,623.434 199.913,627.798C207.229,635.994 203.712,651.194 193.366,656.025C177.895,663.255 161.777,647.795 168.344,631.862C171.073,625.246 178.126,621.632 185.083,621.512ZM568.071,623.454L567.834,630.12L563.125,626.196L568.071,623.454ZM469.595,623.754C476.418,623.655 482.029,629.123 482.132,635.946C482.228,642.768 476.783,648.379 469.96,648.478C463.137,648.577 457.526,643.129 457.423,636.306C457.327,629.483 462.772,623.853 469.595,623.754ZM185.423,624.155C183.757,624.178 180.996,624.857 179.734,626.016C176.441,629.055 179.753,629.141 184.103,629.94C191.822,631.359 193.949,638.01 193.251,645.195C192.61,651.724 194.808,651.623 196.569,649.199C203.77,639.331 197.626,624.951 185.423,624.155ZM543.907,627.438C543.753,627.52 543.567,627.638 543.567,627.638C543.657,627.711 543.772,627.618 543.907,627.438ZM299.792,631.321C309.036,631.13 310.004,646.33 301.836,663.312C299.376,668.417 298.127,667.782 295.43,660.069C288.786,641.057 290.228,631.519 299.792,631.321ZM321.17,631.762C322.957,631.672 324.68,632.352 326.096,633.964C331.067,639.629 327.243,648.798 314.008,662.912C310.785,666.343 309.12,667.652 307.941,667.676C304.629,667.745 304.642,667.195 308.402,654.944C310.061,649.542 311.701,643.611 312.047,641.772C313.149,635.886 317.249,631.96 321.17,631.762ZM287.723,645.355C288.626,649.565 290.209,655.416 291.227,658.367C292.239,661.319 292.912,664.126 292.746,664.594C291.932,666.86 286.032,663.779 281.817,658.888C273.328,649.038 269.946,640.47 271.701,635.87C274.276,632.186 280.856,630.55 283.892,633.772C287.018,637.098 287.486,644.224 287.723,645.355L287.723,645.355ZM346.199,635.545C355.142,640.82 344.841,652.861 324.796,662.852C316.224,667.127 316.833,665.201 323.335,656.766C325.821,653.538 329.158,648.284 330.779,645.075C334.379,637.98 337.98,630.882 346.199,635.545ZM256.909,635.586C259.747,635.562 262.656,638.599 268.043,646.396C270.446,649.87 274.341,654.811 276.711,657.387C279.081,659.961 280.945,662.523 280.856,663.072C279.927,668.539 252.028,651.221 250.023,643.934C249.337,639.489 252.829,635.515 256.909,635.586ZM656.214,651.441C661.249,661.788 661.678,668.22 657.521,670.559C651.608,673.883 643.997,668.814 643.843,661.451C643.792,658.977 641.249,650.343 638.917,644.734C637.002,640.119 636.739,637.27 638.315,637.041C644.484,638.028 653.613,646.58 656.214,651.441ZM622.825,643.593C620.877,649.508 618.814,658.741 618.84,661.43C618.853,662.487 618.206,664.651 617.437,666.235C612.331,676.753 600.243,668.175 604.689,657.186C608.699,647.279 618.898,636.966 622.921,636.624C625.669,636.391 623.1,642.726 622.825,643.593ZM630.967,637.915C632.985,637.716 634.676,642.121 637.277,649.539C640.8,659.558 640.653,667.373 636.861,670.699C628.731,677.83 620.198,667.477 623.484,654.464C626.111,644.063 628.686,638.141 630.967,637.915ZM358.249,639.75C368.364,788.666 292.028,903.237 286.589,906.362L260.612,920.567L215.045,895.744C262.265,831.001 290.491,756.795 292.624,670.619C336.308,674.86 358.774,639.905 358.249,639.75ZM608.577,640.223C611.761,639.349 609.538,642.132 606.38,646.689C603.004,651.553 598.628,664.775 595.156,666.893C587.366,670.637 578.551,663.501 583.273,657.301C587.629,651.591 600.416,642.46 608.577,640.223ZM654.913,641.231C656.137,641.226 658.424,642.032 661.742,643.653C677.963,651.574 685.958,662.021 679.02,667.018C674.145,670.526 668.936,667.805 664.068,658.568C662.415,655.43 659.391,650.773 657.38,648.198C653.728,643.53 652.876,641.239 654.913,641.231ZM746.105,646.536C756.528,646.385 765.093,654.69 765.241,665.114C765.395,675.537 757.066,684.121 746.644,684.273C736.221,684.424 727.656,676.078 727.508,665.654C727.355,655.231 735.683,646.688 746.105,646.536ZM740.359,651.435C728.098,656.868 731.788,676.125 742.358,678.908C746.823,680.157 752.255,678.299 750.02,676.152C736.054,671.769 735.964,661.476 741.589,653.942C742.492,652.731 741.282,651.028 740.359,651.435ZM229.459,677.922C228.985,688.805 231.342,701.426 226.14,713.24C218.261,731.398 192.956,739.696 179.439,738.085C176.62,736.928 173.34,735.832 170.56,737.01C168.882,737.723 166.813,737.632 165.019,736.798C163.289,735.994 161.63,737.047 159.958,736.443C157.998,735.119 154.795,732.114 155.173,729.877C155.781,726.723 155.538,724.385 151.848,723.351C146.736,721.916 145.698,719.154 147.203,711.058C147.53,709.31 147.921,708.518 146.787,707.755C143.02,705.23 141.585,700.561 144.064,695.644C145.672,692.81 146.921,690.808 144.019,688.557C142.879,685.965 143.078,684.98 145.544,681.67C148.171,678.528 148.632,678.169 146.947,675.484C143.154,669.45 147.447,664.997 152.552,662.512C159.388,659.708 165.358,658.261 172.572,657.426C175.256,657.578 175.141,659.937 176.755,662.211C179.132,665.905 175.781,671.248 177.716,673.142C180.509,674.431 181.777,677.006 181.56,679.207C181.464,684.336 181.771,686.09 183.161,688.236C184.699,690.614 185.275,694.98 183.84,697.949C182.559,700.591 182.7,700.411 184.378,701.97C186.044,703.512 186.864,711.242 186.275,711.095L193.289,710.452C192.553,711.233 195.922,695.997 203.924,684.218C203.482,674.99 199.965,666.504 200.279,654.317C217.607,648.113 230.119,662.845 229.459,677.922ZM498.621,657.186C501.126,659.151 513.548,662.607 513.996,662.211C513.612,668.158 517.231,679.712 530.178,683.572C530.332,700.147 530.198,776.682 530.198,776.682C512.164,746.469 500.992,707.466 498.621,657.186ZM197.011,659.889C197.011,659.889 197.703,662.094 198.337,666.355C199.439,675.061 198.248,676.25 195.929,670.299C193.219,663.33 193.078,668.76 196.134,684.713C196.87,688.576 196.845,689.473 195.89,692.08C195.301,693.714 194.237,697.511 193.411,700.488C190.97,709.246 189.548,711.763 187.043,704.792C185.768,701.238 184.699,700.684 185.608,697.901C186.749,694.418 186.473,691.807 184.18,688.416C183.808,687.863 182.982,686.593 182.841,682.992C183.546,674.904 179.945,674.828 179.234,672.737C179.356,669.573 177.882,661.905 180.054,662.111C181.848,662.281 188.337,662.46 191.406,661.33C192.77,660.829 197.011,659.889 197.011,659.889ZM465.796,660.89C472.491,660.793 477.987,666.145 478.083,672.842C478.179,679.538 472.83,685.036 466.136,685.133C459.435,685.231 453.919,679.898 453.823,673.202C453.727,666.505 459.095,660.987 465.796,660.89ZM278.569,668.277L287.762,670.019C289.805,670.701 288.319,797.393 214.769,888.83L214.129,867.65C249.126,817.001 274.328,754.886 278.569,668.277ZM434.38,670.94L436.065,701.209C430.889,696.809 417.75,688.573 417.846,688.396L417.903,677.206C417.916,677.229 429.204,678.071 434.38,670.94ZM363.553,671.36C365.77,672.293 367.704,674.437 369.601,675.984L363.592,680.029L363.553,671.36ZM574.08,672.881C613.753,684.649 652.818,684.309 691.448,675.705L694.094,683.111C652.178,694.473 610.525,693.817 569.134,680.609L574.08,672.881ZM381.933,678.547L384.053,691.6L361.663,706.092L362.752,686.275L374.424,678.707L381.933,678.547ZM580.147,689.418C583.76,689.365 586.739,692.265 586.79,695.884C586.841,699.502 583.939,702.478 580.326,702.53C576.706,702.583 573.753,699.682 573.696,696.064C573.644,692.446 576.527,689.47 580.147,689.418ZM682.082,689.958C685.701,689.906 688.674,692.806 688.732,696.424C688.783,700.042 685.881,703.018 682.261,703.071C678.642,703.123 675.689,700.223 675.637,696.605C675.586,692.986 678.462,690.011 682.082,689.958ZM491.158,710.322C494.092,720.664 493.452,744.034 489.678,759.886C488.544,764.646 487.853,781.542 487.853,781.542C487.154,782.426 510.325,762.365 517.776,788.673C520.338,797.718 509.928,806.294 502.958,803.784C501.6,803.295 502.01,798.816 503.311,796.181C507.174,788.314 496.155,784.224 489.877,791.196C475.367,807.306 490.293,848.093 513.035,852.055C531.921,855.344 547.059,836.549 534.458,825.349C528.948,820.451 520.133,827.202 524.169,833.437C528.481,840.098 520.543,842.754 514.541,836.58C504.073,825.813 515.822,809.607 531.639,813.358C556.911,819.105 551.71,858.619 525.207,860.844C504.944,862.544 491.299,853.716 482.728,838.061C474.675,823.018 474.079,811.029 477.763,784.65C479.954,768.988 478.154,755.792 473.804,755.882C471.414,755.931 469.55,757.081 469.179,759.886C468.403,765.623 467.744,766.694 464.15,764.61C459.588,761.964 457.052,753.441 464.515,747.674C472.164,741.761 482.074,750.988 481.671,752.579C481.85,752.286 482.625,750.786 483.65,744.07C486.994,722.219 479.569,699.131 470.396,702.83C468.384,703.642 468.628,704.553 471.261,706.033C477.366,709.47 471.984,718.275 464.31,717.385C453.445,716.123 450.979,700.966 460.549,694.262C475.623,686.134 487.904,698.86 491.158,710.322ZM416.987,692.12C416.987,692.12 436.257,703.875 437.288,706.894C437.942,708.83 438.723,725.693 438.723,725.693L405.277,704.752L357.314,734.401C358.102,727.893 361.554,711.138 361.554,711.138L387.058,695.003C387.186,695.974 404.7,707.536 416.987,692.12ZM656.476,693.241C660.096,693.189 663.068,696.089 663.126,699.707C663.177,703.325 660.294,706.301 656.675,706.354C653.062,706.406 650.083,703.526 650.032,699.908C649.981,696.29 652.863,693.294 656.476,693.241ZM605.425,693.341C609.045,693.289 612.043,696.169 612.094,699.787C612.146,703.406 609.224,706.402 605.605,706.454C601.992,706.507 599.032,703.606 598.981,699.988C598.93,696.37 601.812,693.394 605.425,693.341ZM631.095,694.823C634.708,694.77 637.706,697.671 637.757,701.289C637.815,704.907 634.913,707.883 631.294,707.935C627.674,707.988 624.702,705.087 624.644,701.469C624.593,697.851 627.476,694.875 631.095,694.823ZM566.828,704.112C584.195,707.726 601.607,711.44 618.263,713.261L618.943,764.37L614.074,764.09L613.376,718.426C597.29,717.274 582.12,713.822 567.872,710.138L566.828,704.112ZM695.977,705.773L695.074,711.779C695.074,711.779 665.029,716.98 649.333,719.006C649.077,729.294 649.109,763.669 649.109,763.669L643.107,764.77L643.081,712.74C660.903,710.803 678.699,708.8 695.977,705.773ZM405.213,708.656L440.588,732.039L444.752,756.823L403.515,729.416C403.515,729.416 366.128,754.579 352.144,763.909L356.404,740.547L405.213,708.656ZM568.513,713.281C582.754,716.294 596.995,719.426 611.236,720.648L611.832,761.767L605.284,760.026L604.766,726.654C593.644,725.69 582.222,723.536 570.736,721.108L568.513,713.281ZM694.497,714.502L693.293,720.087C693.293,720.087 670.5,723.523 658.738,725.632C657.7,725.871 658.078,761.827 658.078,761.827L652.453,762.688L651.793,720.708L694.497,714.502ZM630.653,719.106C634.273,719.054 637.226,721.954 637.277,725.572C637.335,729.19 634.452,732.166 630.832,732.219C627.213,732.271 624.24,729.391 624.183,725.773C624.132,722.155 627.034,719.159 630.653,719.106ZM404.675,733.941L446.494,762.168C446.494,762.168 451.344,776.869 452.381,785.01L404.252,753.94L344.034,793.858L351.003,769.195L404.675,733.941ZM151.188,734.802C153.667,734.835 156.146,736.494 157.434,740.307C159.253,745.673 162.636,747.258 171.547,747.093C189.042,746.16 207.383,737.939 223.898,744.111C231.925,747.067 234.782,758.905 228.062,761.988C220.766,765.333 217.659,763.231 215.128,757.503C212.796,755.068 209.888,755.449 194.212,758.144C187.293,759.266 179.164,760.273 172.328,760.827C154.852,762.239 145.198,756.732 143.02,746.333C141.63,739.683 147.056,734.746 151.188,734.802ZM630.294,744.351C633.907,744.298 636.886,747.178 636.938,750.797C636.989,754.415 634.093,757.41 630.474,757.464C626.854,757.516 623.882,754.615 623.824,750.997C623.773,747.379 626.675,744.403 630.294,744.351ZM502.17,752.339C506.873,752.27 510.748,756.04 510.819,760.747C510.883,765.453 507.116,769.327 502.407,769.395C497.705,769.463 493.849,765.693 493.778,760.987C493.714,756.28 497.462,752.407 502.17,752.339ZM404.732,758.304C404.732,758.304 439.153,781.297 455.085,791.917L463.893,817.221L405.277,779.104L333.547,825.768L342.156,799.744L404.732,758.304ZM653.216,766.212C656.335,774.62 661.999,781.026 667.988,787.532C667.988,787.532 664.651,793.852 652.754,793.478C646.252,793.274 645.906,794.294 643.683,798.703C640.038,804.29 637.072,807.939 634.715,809.754C630.551,812.962 622.735,808.169 616.297,798.423C613.952,794.872 612.978,794.033 605.906,794.179C595.047,794.403 591.12,791.391 596.758,786.511C601.678,780.519 605.214,773.931 609.615,767.633L614.497,768.194C614.702,768.918 610.698,781.015 605.067,785.931C602.21,789.158 606.213,790.328 613.196,788.854C617.623,787.52 618.763,788.043 622.043,794.819C628.879,807.746 632.434,807.122 640.544,794.019C643.376,788.17 643.267,787.589 651.05,789.274C659.41,790.115 661.934,789.066 658.501,786.151C651.556,780.261 647.732,766.372 647.732,766.372L653.216,766.212ZM405.033,783.528C405.033,783.528 467.276,824.294 467.116,823.407L479.589,852.795L406.539,804.208L317.288,862.245L330.645,833.157L405.033,783.528ZM407.436,810.294L429.14,824.568L429.076,850.253L406.917,835.358L407.436,810.294ZM401.869,811.035L402.272,836.38L382.81,847.971L381.734,824.188L401.869,811.035ZM377.186,827.371L377.006,828.352L377.467,828.592L377.628,828.612L378.326,851.454L355.949,866.969L356.026,841.164L377.186,827.371ZM434.502,827.651L454.906,841.264L455.745,868.451L433.599,853.957L434.502,827.651ZM459.685,844.247L480.146,858.461L480.87,885.607L459.966,871.534L459.685,844.247ZM351.401,844.348L351.305,869.432L330.946,883.645L329.985,858.02L351.401,844.348ZM566.732,876.719C562.69,880.93 561.197,880.408 557.744,873.455C554.15,866.241 548.769,862.869 540.966,863.006C531.12,863.177 537.558,856.722 547.994,855.959C566.034,855.164 575.188,867.269 566.732,876.719ZM325.398,862.004L325.936,887.169L305.68,897.699L305.058,885.767L315.488,867.53L325.398,862.004ZM299.273,895.637L299.972,900.221L296.23,901.663L299.273,895.637ZM648.61,958.658C648.558,958.651 648.533,958.671 648.526,958.735L648.77,958.735C648.706,958.696 648.648,958.664 648.61,958.658ZM648.77,958.735C651.383,960.464 674.689,994.251 676.316,1030.77C677.22,1040.44 673.036,1042.28 670.948,1033.09C667.559,1018.13 658.155,1005.04 645.945,998.235C584.266,975.378 557.924,1052.78 598.584,1084.08C613.055,1094.55 640.961,1093.37 650.768,1078.9C653.824,1074.39 656.906,1074.83 657.296,1077.67C657.489,1079.09 656.784,1080.06 653.011,1083.44C637.764,1097.12 628.654,1116.48 633.497,1130.64C639.916,1149.45 657.469,1162.46 677.719,1165.44C699.443,1168.63 722.031,1153.34 728.687,1133.47C734.792,1115.25 729.417,1099.88 712.511,1084.54C704.561,1077.33 704.158,1076.75 705.804,1075.03C707.406,1073.36 708.45,1073.77 712.39,1077.57C724.542,1089.31 747.195,1095.62 762.121,1088.72C786.016,1077.68 796.292,1040.47 779.937,1016.12C770.045,996.307 743.082,988.933 720.538,999.875C708.533,1005.71 697.963,1019.33 694.817,1032.99C693.402,1039.13 689.872,1040.24 689.347,1034.71C691.006,1012.49 694.132,997.941 718.52,958.799L648.77,958.735ZM854.05,996.877C854.05,996.877 862.935,1015.22 864.261,1024.88C865.235,1031.99 865.376,1034.87 863.435,1034.91C862.82,1034.93 861.282,1031.49 860.693,1028.81C855.927,1006.8 823.966,1007.15 819.335,1029.14C814.626,1051.5 834.85,1067.35 852.506,1053.43C859.764,1048.44 860.116,1050.73 852.929,1058.01C839.085,1071.87 845.184,1091.25 862.596,1096.41C886.273,1103.43 900.841,1074.57 880.751,1056.23C878.188,1053.59 875.863,1050.96 875.85,1050.41C875.818,1049 877.573,1048.88 878.951,1050.34C890.475,1062.44 913.691,1058.7 917.247,1043.2C923.929,1014.12 886.382,1001.7 876.049,1027.68C873.525,1034.16 873.909,1035.06 872.609,1033.81C871.878,1033.11 872.083,1030.43 872.884,1026.78C874.511,1019.42 885.017,997.095 885.017,997.095L854.05,996.877ZM543.087,1077.01C457.827,1095.25 376.09,1088.81 317.429,1077.95L290.625,1123.76L288.78,1123.67L281.874,1135.53L282.617,1136.89C282.617,1136.89 260.343,1179.63 250.964,1193.11C360.536,1192.05 601.044,1191.52 601.044,1191.52L586.386,1162.05L587.193,1161.25L572.715,1130.49L568.013,1125.16C568.013,1125.16 565.137,1119.6 562.984,1113.63C561.011,1108.13 552.517,1093.09 552.517,1093.09L551.319,1093.19L543.087,1077.01ZM320.51,1083.46C321.644,1084.35 429.723,1104.72 541.748,1083.8L547.872,1094.05C449.825,1116.62 307.967,1095.06 313.566,1092.97L320.51,1083.46ZM322.374,1103.62C332.259,1103.27 342.272,1108.58 349.018,1117.43C351.17,1120.25 354.687,1128.56 354.687,1128.56C354.687,1128.56 359.415,1120.73 364.053,1116.81C371.074,1110.88 380.171,1105.93 393.342,1106.4C405.469,1106.83 418.813,1113.39 430.857,1132.37C433.9,1121.42 473.74,1084.23 506.552,1130.61C510.306,1118.28 527.866,1093.67 556.303,1110.86C558.244,1115.02 560.243,1119.59 560.243,1119.59C543.465,1107.84 515.796,1115.73 509.256,1134.07C508.666,1136.3 509.409,1137.46 510.274,1139.63C518.923,1151.99 496.424,1151.7 503.086,1141.7C504.336,1139.42 504.438,1137.55 502.446,1134.57C497.174,1126.66 481.293,1116.82 469.64,1117.07C456.18,1117.37 441.267,1126.3 436.283,1134.4C434.444,1137.4 434.028,1140.4 435.642,1143.02C436.814,1145.65 436.417,1147.87 434.444,1149.49C429.806,1153.28 423.983,1148.9 426.212,1143.28C427.679,1140.8 427.455,1137.76 424.45,1133.55C418.422,1125.08 404.348,1116.16 392.099,1116.41C374.572,1116.81 356.865,1129.44 357.986,1139.83C358.479,1144.4 357.23,1146.1 353.502,1145.58C348.973,1144.94 348.454,1140.66 351.663,1137.17C352.137,1136.05 352.906,1133.34 351.445,1131.36C332.932,1106.33 305.218,1113.63 298.87,1119.24C305.039,1108.66 313.655,1103.93 322.374,1103.62ZM305.897,1121C312.842,1121.06 320.324,1126.3 322.694,1130.4C324.411,1128.63 340.119,1121.13 347.756,1131.84C327.762,1130.34 327.512,1151.56 342.291,1153.61C335.552,1174.08 365.77,1175.32 363.854,1156.09C386.43,1159.43 383.643,1130.81 362.394,1133.83C373.528,1125.72 381.106,1128.34 394.482,1137.63C398.979,1131.77 417.327,1126.3 421.83,1136.53C400.805,1135.23 404.386,1159.58 420.088,1159.79C415.424,1176.67 446.315,1182.88 441.549,1157.67C461.158,1159.04 458.314,1132.56 439.531,1134.75C440.921,1129.93 459.992,1127.85 468.416,1137.05C476.161,1129.99 484.707,1125.14 500.146,1135.25C479.095,1131.74 478.833,1159.07 498.384,1157.43C496.559,1175.53 524.201,1175.83 519.582,1154.93C540.633,1149.25 529.057,1126.72 513.599,1132.92C520.479,1124.75 532.164,1128.6 536.802,1130.27C551.127,1113.87 563.606,1127.58 563.606,1127.58C538.679,1124.98 544.099,1160.51 568.391,1147.62C568.366,1154.93 571.505,1161.26 581.428,1162.3L593.215,1186.7L259.075,1188.9L277.512,1156.48C279.376,1157.06 290.036,1158.03 292.323,1145.54C314.283,1152.5 315.757,1126.94 299.35,1122.9C301.336,1121.52 303.585,1120.98 305.897,1121ZM292.867,1130.24C295.052,1133.75 293.22,1136.04 289.459,1136.13C289.459,1136.13 291.906,1132.58 292.867,1130.24ZM567.751,1134.77L569.916,1139.31C567.571,1138.36 567.289,1137.36 567.751,1134.77Z" style="fill-rule:nonzero;"/>
    </g>
</svg>
