<?xml version="1.0" encoding="UTF-8" standalone="no"?>
<!DOCTYPE svg PUBLIC "-//W3C//DTD SVG 1.1//EN" "http://www.w3.org/Graphics/SVG/1.1/DTD/svg11.dtd">
<svg width="100%" height="100%" viewBox="0 0 934 1300" version="1.1" xmlns="http://www.w3.org/2000/svg" xmlns:xlink="http://www.w3.org/1999/xlink" xml:space="preserve" xmlns:serif="http://www.serif.com/" style="fill-rule:evenodd;clip-rule:evenodd;stroke-linejoin:round;stroke-miterlimit:2;">
    <g id="KD">
        <path d="M123.562,103.894C123.916,433.585 127.424,838.751 127.668,1197.83L809.813,1197.67L805.269,105.483L123.562,103.894ZM325.201,110.893C442.891,114.087 561.309,110.633 679.875,111.557C679.875,111.557 636.794,186.589 623.742,210.205C620.885,215.398 620.589,219.072 622.133,221.226C624.514,224.558 624.321,230.194 621.651,233.454C620.505,234.85 619.984,235.755 619.9,236.592C619.816,237.426 620.563,238.34 621.168,239.849C623.272,247.043 617.834,252.021 612.138,254.33C608.316,255.878 599.808,256.9 593.533,256.602C554.191,254.735 477.026,221.485 445.227,218.893C423.166,212.733 394.655,214.887 371.158,216.218C366.724,216.485 367.496,206.142 367.496,206.142C363.796,171.984 339.597,142.244 325.201,110.893ZM686.265,114.011L797.488,114.131L797.99,132.091L751.189,180.058C746.781,184.543 743.306,188.263 743.306,188.263L743.022,231.544C711.12,214.402 704.762,193.919 698.937,171.389C645.611,210.732 643.114,296.829 701.332,341.152C701.808,321.899 716.481,284.067 742.482,281.26L742.842,431.233L710.863,399.999L641.337,400.904C652.8,382.306 653.057,367.535 645.643,350.102C633.145,321.62 613.857,256.606 615.331,256.824C615.331,256.824 615.891,255.426 617.467,255.074C623.227,253.789 626.896,248.226 625.248,241.539C624.939,239.385 624.946,239.891 626.413,237.094C632.07,227.441 625.332,216.963 625.332,216.963L686.265,114.011ZM317.4,114.915L359.13,190.355C359.13,190.355 358.589,193.814 358.808,195.845C359.136,198.767 360.115,201.367 361.788,204.091C362.895,205.893 363.706,208.354 363.957,210.627C364.369,214.372 364.369,214.374 369.852,219.316C371.004,220.354 371.223,220.993 370.798,222.071C368.983,226.654 370.045,236.023 373.63,247.211C378.16,261.34 379.332,261.155 370.894,280.053C369.137,284 367.007,289.267 364.723,294.111C354.309,315.502 352.701,321.303 370.573,332.705C375.605,335.915 377.079,338.7 375.824,345.094C374.833,350.125 374.634,353.339 377.053,356.176C378.617,358.014 380.04,358.317 379.647,359.735C379.377,360.701 378.205,364.885 378.598,368.404C379.653,377.883 368.7,391.848 358.712,396.741C356.71,398.159 356.137,396.428 355.005,394.448C344.656,376.32 318.887,383.666 317.175,405.289C316.725,411.006 316.905,413.485 315.425,414.701C314.929,415.113 313.417,415.968 313.417,415.968C313.417,415.968 274.854,441.047 250.327,453.939C248.725,454.779 247.289,456.165 246.163,456.393C244.863,456.654 243.891,456.42 243.087,455.608C234.032,438.389 239.052,418.049 239.83,410.84C239.631,408.285 237.449,407.821 234.154,407.783C228.581,407.717 220.555,413.373 218.811,418.643C217.325,423.123 216.378,426.024 215.027,426.004C213.675,425.984 213.019,424.176 209.66,417.718C202.67,404.278 201.596,402.575 195.057,394.77C189.85,388.544 185.403,387.719 180.3,392.357C176.747,395.581 176.863,392.779 173.838,391.15C168.625,387.599 160.78,390.777 160.587,395.775C160.426,399.969 160.387,403.121 156.14,403.398C151.416,403.706 149.363,409.813 150.695,418.522C151.397,423.106 151.532,423.842 150.129,425.521C145.553,431 144.961,434.784 147.477,442.435C154.647,464.24 165.04,478.919 174.804,498.747C174.804,498.747 149.994,512.828 135.269,521.011L134.883,115.298L317.4,114.915ZM799.58,136.475L800.159,488.913L746.903,436.562C746.903,436.562 745.867,369.025 745.918,341.414C745.97,313.802 746.375,286.193 746.26,281.058C746.15,275.924 746.536,254.074 746.704,231.644C747.051,184.652 742.752,190.461 751.492,181.445L799.58,136.475ZM695.501,178.73L698.435,187.237C676.116,200.031 648.816,271.282 698.937,323.595L697.933,334.375C645.398,286.722 655.116,218.382 695.501,178.73ZM699.317,188.786C706.982,204.593 715.696,218.59 727.577,227.159C721.179,242.432 718.425,259.282 729.269,282.004C721.662,286.176 711.101,297.249 700.167,319.935C660.613,279.978 669.417,222.048 699.317,188.786ZM405.068,218.652C427.001,218.688 449.88,222.266 470.848,228.587C484.08,295.454 507.313,340.411 507.21,366.594C507.21,366.594 505.382,366.286 501.482,363.476C491.925,356.578 479.382,360.427 472.663,369.208C466.292,377.532 472.708,389.11 469.445,393.966C463.267,403.019 447.37,419.76 444.706,419.206C442.769,418.803 443.084,417.956 449.893,407.501C456.992,396.611 462.437,386.744 460.094,384.332C459.096,383.309 458.569,385.471 453.272,394.67C440.845,416.26 429.91,429.609 425.579,427.874C423.552,427.062 424.601,425.272 433.804,413.112C444.204,399.378 447.087,390.787 446.051,386.987C445.259,384.066 443.651,388.786 439.339,397.224C434.737,406.154 426.428,416.105 419.71,425.662C417.579,429.12 414.844,431.123 411.343,432.701C408.743,433.826 404.611,435.663 402.211,435.355C400.975,435.198 401.825,434.472 403.517,432.822C416.781,419.165 428.179,403.937 434.653,389.32C435.651,387.403 434.216,384.673 432.581,386.685C422.657,404.145 408.846,425.926 393.844,435.537C390.626,437.596 385.78,439.343 381.417,438.975C374.029,438.764 376.642,437.121 383.367,432.802C397.757,423.555 417.953,396.973 421.216,387.57C421.988,385.348 421.125,384.078 419.71,384.232C407.868,403.175 392.222,424.02 374.035,432.741C364.233,437.442 351.877,438.368 345.795,435.396C341.341,433.218 342.461,432.468 350.364,431.957C369.376,430.081 391.656,412.231 402.693,393.342C409.155,382.884 404.618,385.286 397.242,395.373C384.648,412.591 359.651,429.099 344.147,427.793C328.47,426.865 319.447,414.716 321.461,404.303C322.678,398.003 327.157,391.582 335.923,389.742C350.937,386.59 360.765,410.376 347.024,414.862C342.345,416.389 340.563,415.231 342.255,413.353C352.45,408.892 347.919,396.645 339.321,395.394C333.908,394.606 327.64,398.249 327.376,406.636C327.53,412.887 332.679,419 343.002,419.146C355.243,419.318 374.022,410.508 385.42,394.288C393.503,381.89 386.057,386.076 380.027,394.347C374.704,401.647 357.527,411.857 356.214,411.483L356.8,403.076C357.058,404.529 383.251,386.596 381.713,373.25C380.735,363.563 382.151,360.6 392.235,360.721C399.772,360.811 409.361,363.456 412.148,366.915C415.018,370.338 418.236,371.417 416.813,365.648C414.503,356.285 417.27,354.741 411.845,356.517C408.099,357.743 404.779,354.738 401.02,352.073C396.895,349.141 391.669,347.887 385.439,348.111C380.78,348.278 378.682,347.998 379.422,343.606C379.949,340.508 380.542,337.692 379.647,335.662C378.186,332.36 372.355,328.949 365.765,324.097C357.991,318.369 359.432,318.032 376.004,279.832C382.961,263.792 382.994,260.501 378.817,248.658C372.227,229.946 371.19,222.452 383.547,219.838C390.543,219.036 397.757,218.64 405.068,218.651L405.068,218.652ZM475.237,229.492L481.654,231.322C481.699,231.328 501.682,299.715 513.124,333.107C516.619,343.295 519.277,357.061 519.946,369.993C519.631,387.796 509.604,400.573 497.376,401.97C488.72,402.96 479.33,398.469 475.031,388.837C471.408,379.677 474.143,368.873 484.588,365.146C502.673,358.693 515.918,381.772 498.181,388.878C489.01,392.552 480.296,385.929 484.427,378.218C487.324,372.813 495.471,373.399 497.402,378.983C498.972,384.925 501.566,382.122 500.452,378.098C497.093,365.276 480.618,368.297 479.298,380.109C479.298,394.743 495.323,398.181 504.88,389.963C512.288,383.394 513.067,371.524 511.213,361.224C508.671,339.83 496.565,312.082 487.967,280.415C483.674,264.603 477.458,245.751 475.237,229.492ZM730.511,230.256L742.559,235.023L742.282,274.724L732.062,278.243C718.695,257.816 729.81,230.274 730.511,230.256ZM486.339,232.831L495.169,236.229C500.002,264.253 522.797,317.824 530.842,357.805C533.088,381.834 533.442,388.886 517.166,401.689L517.166,401.508L508.362,401.508C508.362,401.508 508.33,400.97 512.178,398.088C533.5,382.146 520.777,347.016 512.725,320.015C498.696,276.893 486.165,232.777 486.339,232.831ZM403.82,235.626C402.7,235.639 401.567,235.685 400.422,235.747C387.106,236.462 384.918,237.315 384.873,240.212C384.796,245.666 387.029,248.087 399.411,246.748C410.133,245.59 425.663,247.253 436.359,251.856C448.567,257.108 451.464,258.346 455.846,260.605C466.858,266.273 464.934,260.634 454.984,254.089C434.653,240.718 420.598,235.424 403.82,235.626ZM499.893,237.557L508.175,240.714C508.175,240.714 510.37,247.174 511.155,250.871C519.219,286.645 541.152,326.878 543.714,368.725C544.293,382.439 541.944,395.224 531.891,401.407L524.31,401.407C532.412,393.345 537.818,391.016 535.553,362.994C531.962,327.004 508.22,282.035 499.893,237.557ZM514.592,243.369L522.237,246.185C531.035,294.495 574.67,366.679 546.893,401.508L539.955,401.508C546.153,391.843 548.708,383.355 547.781,370.314C545.078,326.417 522.688,283.814 514.592,243.369ZM527.405,247.814L535.63,250.328C546.796,299.275 589.716,379.485 559.121,401.669L553.09,401.508C576.137,358.42 541.197,313.834 527.405,247.814ZM541.744,252.379C544.274,253.784 547.884,254.457 550.632,255.255C559.288,292.265 575.114,328.663 582.309,363.135C584.735,382.007 580.59,396.138 568.736,401.508L566.2,401.508C576.845,385.444 574.837,365.181 569.161,343.284C561.521,313.837 546.687,281.439 541.744,252.379ZM412.148,253.023C408.325,252.987 404.328,253.567 400.1,254.913C395.769,256.55 396.303,259.963 400.319,259.257C401.683,259.018 404.09,258.59 405.692,258.312C415.559,256.591 427.716,260.148 442.454,269.072C446.012,271.227 449.88,273.303 450.839,274.019C453.549,276.039 456.438,276.031 455.447,273.456C455.048,272.425 449.365,268.023 444.346,265.21C433.598,258.715 423.61,253.131 412.148,253.023ZM555.723,256.241L564.012,257.508C579.593,329.135 613.805,373.642 584.542,400.221L577.225,400.221C585.231,392.041 588.848,379.236 586.19,364.1C583.48,348.649 575.5,324.124 568.877,302.558C561.2,277.557 555.021,256.416 555.723,256.241ZM567.61,258.252L574.631,259.559C582.849,288.674 596.815,324.767 605.22,354.828C610.388,373.315 608.309,396.086 596.77,400.281L590.836,400.382C600.631,387.295 602.028,373.663 597.555,356.035C588.371,319.852 574.47,288.275 567.61,258.252ZM610.929,258.292C618.021,288.475 635.043,334.524 641.157,350.424C649.292,366.661 646.853,390.704 634.619,400.221L628.826,400.341C635.828,393.798 638.229,382.781 637.116,371.36C633.969,339.085 611.122,294.322 602.845,259.941L610.929,258.292ZM580.14,259.72L587.38,260.383C594.627,291.955 608.734,322.645 617.886,354.225C619.591,361.353 621.078,370.06 620.479,376.468C619.231,389.905 613.664,400.502 608.779,400.502L603.791,400.502C613.979,388.363 613.477,371.813 609.12,354.024C601.912,324.622 584.484,289.174 580.14,259.72ZM391.63,259.881C388.612,259.896 388.561,262.658 393.381,266.88C396.328,269.462 396.103,268.601 395.936,270.238C395.222,277.231 396.316,283.631 399.192,276.433C399.958,274.511 401.085,272.342 402.211,272.611C404.335,273.267 403.253,277.172 404.283,279.148C406.014,282.631 404.174,283.484 399.958,282.406C396.927,281.63 396.753,283.273 394.868,285.362C391.572,289.021 392.113,291.205 397.184,290.068C398.021,289.881 398.729,290.12 399.373,290.27C400.956,290.633 402.404,291.637 406.169,294.513C411.015,298.208 417.875,303.133 422.322,303.885C429.447,305.091 427.857,301.677 422.02,299.441C417.019,297.525 410.815,292.204 410.841,290.732C410.854,289.601 412.424,290.272 421.434,287.796C425.347,286.722 430.843,284.318 433.16,283.251C436.99,281.489 437.17,281.503 443.155,281.682C453.356,281.986 454.913,281.638 447.763,276.332C433.308,265.609 414.027,258.63 403.8,263.079C400.698,264.428 400.769,263.601 398.53,262.314C395.601,260.633 393.214,259.872 391.63,259.881ZM598.501,260.846C608.522,299.436 627.893,334.012 632.611,370.616C633.679,381.086 631.922,391.315 623.221,400.16L617.345,400.261C616.483,400.275 625.544,386.266 624.765,374.276C625.004,367.88 624.296,361.019 622.474,354.245C611.089,321.701 599.885,292.206 591.177,261.188L598.501,260.846ZM417.599,273.517C417.65,273.51 417.702,273.508 417.753,273.517C420.488,273.945 420.585,275.032 419.787,276.453C418.609,278.559 416.53,282.607 416.53,282.607C416.53,282.607 413.756,283.151 413.19,282.446C412.193,280.996 415.848,273.73 417.599,273.517ZM424.536,274.763C424.839,274.759 425.212,274.914 425.798,275.146C428.424,276.182 432.98,278.308 431.011,279.953C428.681,281.9 419.652,282.775 420.089,281.964L423.108,276.392C423.745,275.209 424.028,274.771 424.536,274.763ZM396.882,308.491C396.65,308.504 396.451,308.56 396.296,308.652C395.775,308.965 396.959,311.062 398.69,313.438C406.677,324.216 395.621,327.413 387.788,321.644C380.355,315.863 368.88,316.408 370.534,322.468C371.12,324.605 370.547,325.645 374.698,325.706C378.386,325.761 379.338,325.966 382.659,328.241C395.376,336.937 411.806,325.296 403.781,312.815C402.262,310.459 398.517,308.398 396.882,308.491ZM428.256,325.325C423.635,325.325 420.726,328.768 426.506,329.799C447.158,333.507 433.308,354.921 418.744,343.887C405.615,332.04 388.059,332.122 387.853,340.529C387.82,342.645 387.917,342.717 391.025,343.304C398.343,344.686 409.271,348.013 413.454,350.122C415.912,351.362 418.5,352.521 419.208,352.696C427.954,355.875 439.171,351.744 441.392,344.377C443.425,337.634 441.778,325.325 428.256,325.325ZM169.198,394.227C171.959,394.26 174.9,396.679 176.998,400.221C181.844,408.403 187.739,422.161 191.498,429.745C192.45,431.656 192.483,433.362 192.425,434.27C192.721,438.715 194.214,440.394 196.852,438.392C199.446,436.424 203.044,433.129 198.822,432.6C194.574,429.401 192.206,424.702 194.838,421.84C196.775,419.734 196.016,418.366 194.458,418.281C188.505,418.193 179.637,400.494 183.814,396.681C189.458,391.536 195.7,397.908 208.977,424.254C214.827,435.889 215.098,448.622 210.084,442.314C208.379,440.725 208.726,441.548 206.725,446.558C205.219,450.324 203.99,452.11 198.255,457.619C191.279,464.328 187.051,469.63 186.896,470.793C186.594,473.014 190.661,470.941 193.635,467.072C200.263,460.595 200.508,458.869 200.45,467.454C200.392,475.218 199.993,476.637 201.396,476.585C203.578,476.502 204.743,470.36 205.759,462.949C206.976,456.273 210.445,452.906 216.218,449.192C217.801,448.173 217.827,447.469 217.524,444.526C216.456,435.096 221.823,417.512 224.262,421.861C224.603,422.839 225.665,425.126 226.232,426.728C226.689,429.209 228.252,432.01 230.64,432.198C233.601,434.417 233.594,435.617 234.617,443.742C234.952,446.395 236.13,450.374 236.954,452.491C238.485,456.429 239.856,458.736 239.007,459.912C238.46,460.491 237.314,461.581 237.314,461.581L188.962,490.241C188.962,490.241 185.172,492.339 183.794,492.915C179.965,494.645 177.635,493.367 175.75,490.502C165.504,475.244 158.476,458.103 151.274,442.294C146.956,432.91 151.184,426.704 156.764,434.27C158.933,437.21 157.826,439.085 156.745,444.768C156.552,445.796 157.504,445.403 159.3,445.693C162.125,445.389 163.489,447.911 163.387,452.189C161.604,458.319 164.069,455.009 165.234,454.703C167.467,454.736 167.962,456.079 169.217,458.625C169.996,462.214 171.579,461.175 173.883,458.806C175.788,456.848 175.795,456.896 171.952,452.31C165.317,445.12 156.114,428.888 153.733,419.005C153.07,416.278 153.315,414.101 153.81,412.649C156.809,405.898 160.986,405.875 165.536,415.304C166.308,416.909 167.834,419.494 168.915,421.056C170.665,423.586 171.747,425.76 171.689,429.785C170.344,433.157 170.125,433.225 171.29,433.687C174.173,434.827 179.302,440.041 179.534,444.708C179.765,449.447 180.57,451.965 184.303,449.152C188.55,445.945 186.742,444.656 182.552,440.544C178.157,435.316 177.893,430.783 180.499,427.009C180.924,425.743 180.744,425.385 179.128,425.541C174.031,426.034 169.069,419.574 172.615,414.661C174.25,411.782 174.057,411.04 171.753,410.96C170.55,410.918 168.567,411.148 167.589,410.598C166.077,407.77 162.93,403.818 162.962,400.582C164.448,396.033 166.759,394.198 169.198,394.227ZM472.219,394.468C480.605,399.609 488.9,404.96 498.322,407.4C476.499,446.71 441.398,467.774 412.025,476.002C413.023,481.032 413.731,486.047 418.603,489.134C418.435,488.374 416.279,479.445 416.749,477.611C457.217,467.279 492.833,427.638 501.946,407.199L679.772,405.268C547.942,531.727 542.69,709.708 650.251,858.888L637.881,866.109C554.995,741.963 555.839,622.351 580.7,542.249C598.327,485.456 629.953,442.071 653.99,417.275C653.99,417.275 557.576,415.95 509.585,417.718C502.615,428.383 496.134,437.093 486.757,447.161C486.757,447.161 511.142,423.615 510.512,419.528C554.983,419.504 600.85,416.934 645.257,420.031C593.288,482.23 567.667,546.442 563.227,606.848C563.059,614.705 562.583,610.315 559.983,613.203L551.784,625.934L545.207,612.701C540.734,611.257 531.943,613.586 528.21,612.238C509.926,693.811 528.403,792.265 552.466,856.513C552.466,856.513 546.423,859.899 538.99,859.332C530.855,857.524 528.866,859.77 521.813,861.199C513.71,862.743 510.878,862.73 509.083,864.783C508.085,865.922 506.277,867.512 504.237,868.619C484.492,875.795 461.317,902.69 461.317,902.31L439.577,892.554C459.611,853.218 483.121,839.06 524.451,821.599L520.609,804.023C476.589,820.422 448.574,840.051 426.486,878.195C399.682,877.816 291.104,877.05 290.995,877.391C335.279,827.031 370.199,751.064 374.016,691.841C374.949,680.304 373.334,685.85 378.437,682.408L386.462,672.855L392.757,682.267C392.757,682.267 397.313,688.069 400.196,683.233C408.273,600.643 399.733,506.47 359.934,440.826C366.994,440.36 374.029,440.164 380.793,444.165C396.354,479.413 405.532,522.961 409.509,555.603C414.548,596.919 413.84,643.52 408.704,683.092L411.362,683.454C419.117,632.025 416.492,577.327 409.367,529.519C405.718,504.578 393.947,465.571 385.858,447.563C383.624,442.588 381.887,441.301 384.01,440.564C432.504,436.484 454.797,420.302 472.219,394.468ZM337.75,398.813C341.464,398.813 344.469,401.82 344.469,405.53C344.469,409.24 341.464,412.247 337.75,412.247C334.043,412.247 331.038,409.24 331.038,405.53C331.038,401.82 334.043,398.813 337.75,398.813ZM702.258,402.232C688.061,415.083 676.65,428.402 664.667,442.596C700.134,491.366 739.547,544.235 772.685,586.475C772.685,586.475 784.16,579.679 784.115,578.833C784.089,578.387 783.194,576.141 782.982,576.641C782.493,577.814 773.695,582.734 773.695,582.734L668.812,445.089C668.812,445.089 674.494,438.282 676.251,436.14C684.399,433.461 707.079,405.374 708.192,405.952C725.955,419.563 779.545,477.259 800.178,494.947L800.442,655.096C798.305,661.504 741.175,686.196 700.83,778.319C680.538,789.691 658.058,795.805 637.154,805.69C637.154,805.69 642.477,814.063 645.077,816.354C641.885,809.449 641.318,808.136 648.558,805.188L799.535,743.65L799.258,756.077L796.799,777.534C755.714,802.871 721.038,813.49 664.487,851.706C660.445,852.646 657.195,856.526 652.941,856.739C508.484,643.986 600.831,483.69 685.023,403.157L702.258,402.232ZM231.824,413.112C235.763,413.177 234.772,422.32 233.311,425.481C230.402,427.768 227.499,425.736 227.557,421.459C227.577,420.063 227.306,418.746 226.959,418.522C224.771,417.127 228.426,413.062 231.824,413.112ZM320.052,418.824C323.373,421.343 324.602,424.698 325.825,428.055C321.346,427.352 309.362,423.915 314.987,421.237L320.052,418.824ZM298.235,430.71C402.423,588.283 397.764,755.639 281.483,882.501L428.597,882.276C447.325,845.328 478.519,822.803 518.434,808.934L521.916,820.538C476.042,835.263 452.828,859.673 434.37,893.5L258.912,893.5C326.327,820.969 357.206,759.7 362.065,676.817C366.698,597.882 346.612,525.794 285.621,439.056L298.235,430.71ZM327.595,432.52L352.173,444.124L348.53,469.344L322.787,457.478L327.595,432.52ZM283.291,439.599C414.696,638.378 358.338,778.203 253.423,894.568L234.096,894.89L189.046,853.038L189.87,1107.35C189.87,1107.35 145.946,1150.38 140.9,1155.54C135.912,1160.34 132.173,1152.96 132.173,1152.96L132.289,815.827L134.239,802.614L134.844,729.974L162.839,715.21L267.826,852.813C267.826,852.813 263.604,859.03 261.648,860.137C260.38,860.851 261.306,862.087 262.375,861.945C265.322,861.559 273.734,852.156 271.964,850.644C233.884,803.464 163.084,711.087 163.084,711.087L133.595,726.473C133.595,726.473 134.451,666.161 133.917,643.009C135.05,637.548 139.143,639.011 141.904,636.574C175.859,614.752 199.781,588.116 214.551,562.281C215.632,560.35 222.171,548.752 222.814,547.7C225.118,543.945 230.827,532.208 234.154,524.712C236.014,520.522 237.996,515.446 238.743,514.837C259.17,508.186 280.614,498.743 301.131,490.261L271.584,445.914L283.291,439.599ZM202.76,442.133C201.653,442.117 198.835,443.399 195.018,446.859C187.978,453.249 178.697,463.747 178.665,465.744C180.557,466.426 182.23,465.34 183.736,463.814C189.625,455.12 198.732,451.72 204.067,444.104C204.897,442.696 204.022,442.115 202.76,442.133ZM268.952,451.364C268.952,451.364 289.334,481.065 294.554,488.954C240.828,510.224 184.618,538.318 134.825,556.488L134.825,544.582L142.689,523.203L268.952,451.364ZM348.871,470.993L368.964,481.371L363.294,504.037L343.021,492.694L348.871,470.993ZM365.443,508.703L381.957,520.73L374.415,539.957L357.785,528.513L365.443,508.703ZM230.717,522.801C230.717,522.801 228.175,531.715 223.902,539.695C203.468,575.196 183.472,606.745 142.168,634.14C140.591,632.741 136.092,624.868 136.092,624.868L135.687,614.35C157.588,596.757 176.49,583.843 205.496,532.213L213.907,528.795L221.064,531.892L225.91,523.244L230.717,522.801ZM316.654,522.882C297.617,563.267 278.889,604.922 248.557,636.392L331.559,752.254C358.866,670.45 348.73,593.78 316.654,522.882ZM212.215,531.691L208.231,538.589L215.13,542.571L219.114,535.673L212.215,531.691ZM200.952,532.435C185.912,566.056 163.341,591.924 133.718,610.529L132.572,561.195L200.952,532.435ZM206.242,542.471L202.258,549.369L209.158,553.351L213.141,546.452L206.242,542.471ZM375.882,543.919L390.845,558.117L381.957,573.784L366.615,561.094L375.882,543.919ZM605.117,550.898C605.098,550.904 605.085,550.92 605.078,550.938C578.782,632.673 586.679,710.744 622.757,778.705C640.456,734.652 654.988,705.172 689.548,658.274C668.265,630.411 607.254,550.015 605.117,550.898ZM200.366,552.205L196.183,558.982L202.966,563.165L207.15,556.388L200.366,552.205ZM315.103,561.737C338.812,618.407 336.721,669.501 324.113,713.782L264.904,638.987C286.599,612.061 301.002,586.567 315.103,561.737ZM194.252,561.939L189.773,568.516L196.344,573.021L200.83,566.424L194.252,561.939ZM187.636,571.351L182.732,577.646L189.007,582.553L193.911,576.258L187.636,571.351ZM382.704,578.048L396.116,590.779L387.647,607.291L374.035,594.842L382.704,578.048ZM179.894,581.146L174.746,587.199L180.802,592.348L185.95,586.294L179.894,581.146ZM612.377,582.935L672.107,660.004C652.13,683.782 635.526,711.798 620.685,742.002C604.042,689.851 596.532,638.612 612.377,582.935ZM171.508,590.739L165.999,596.49L171.753,602.001L177.262,596.249L171.508,590.739ZM311.042,598.442L283.709,637.961L315.045,677.963C318.417,656.309 319.177,631.172 311.042,598.442ZM162.601,599.729L156.726,605.119L162.119,610.991L167.988,605.602L162.601,599.729ZM153.971,607.431L147.773,612.459L152.806,618.654L158.978,613.626L153.971,607.431ZM387.409,611.514L398.632,624.627L387.248,638.122L376.59,626.135L387.409,611.514ZM530.083,613.867L537.703,614.149C525.204,737.452 549.77,799.847 571.51,854.1C571.51,854.1 571.458,856.275 570.724,856.919C567.185,858.135 560.022,859.455 554.275,854.402C525.031,779.233 518.646,686.635 530.083,613.867ZM143.938,615.456L137.476,620.122L142.149,626.578L148.604,621.912L143.938,615.456ZM621.67,619.841C619.733,619.841 618.047,670.571 625.351,695.34L652.845,658.093L621.67,619.841ZM550.593,628.207L559.784,640.555L550.034,653.849L540.058,641.259L550.593,628.207ZM136.472,631.565C136.936,631.493 137.689,632.778 139.169,633.798C140.54,635.234 140.347,635.127 138.808,636.352C136.401,638.268 135.687,637.96 135.732,634.965C135.938,632.5 136.118,631.622 136.472,631.565ZM387.949,640.837L398.105,655.378L386.861,669.838L377.253,654.614L387.949,640.837ZM549.789,659.26L560.492,672.292L551.295,686.591L539.614,672.936L549.789,659.26ZM797.527,662.015L798.473,677.038L794.772,671.547L787.976,676.756L792.719,683.051L798.653,678.426L799.013,684.479C761.332,711.712 745.075,742.993 729.79,766.458L722.994,769.328L715.252,766.876L711.468,773.576L704.891,775.12C704.691,775.082 718.097,746.366 741.034,717.141C761.454,691.115 797.417,661.775 797.527,662.015ZM801.89,685.525L802.212,738.939L734.778,764.991C752.277,735.174 772.916,707.496 801.89,685.525ZM785.138,679.029L778.985,684.077L784.295,690.171L790.428,685.123L785.138,679.029ZM775.664,687.074L769.731,692.363L775.259,698.256L781.193,692.926L775.664,687.074ZM550.471,690.03L563.182,703.565L553.869,719.554L540.637,706.864L550.471,690.03ZM766.094,695.722L760.521,701.414L766.616,707.266L772.183,701.575L766.094,695.722ZM757.323,704.712L751.974,710.625L758.449,716.236L763.797,710.323L757.323,704.712ZM748.512,714.788L743.544,721.022L750.282,726.231L755.25,719.976L748.512,714.788ZM554.835,724.361L570.724,734.678L562.963,753.586L547.092,741.494L554.835,724.361ZM740.828,724.442L736.168,730.92L743.344,735.824L748.074,729.131L740.828,724.442ZM733.652,734.659L729.327,741.359L736.587,746.018L740.892,739.106L733.652,734.659ZM727.235,744.776L723.252,751.675L730.775,755.955L734.759,748.978L727.235,744.776ZM721.443,755.234L717.46,762.133L725.787,765.731L729.089,759.153L721.443,755.234ZM563.446,759.494L579.715,770.519L572.514,790.328L555.343,778.177L563.446,759.494ZM799.374,778.982L800.178,1186.61L621.046,1187.23C621.046,1187.23 612.673,1172.5 595.142,1138.44C587.721,1124.03 581.446,1117.9 580.803,1106.48C581.472,1099.78 578.377,1092.17 572.88,1089.11C571.033,1088.08 567.944,1089.32 568.974,1086.45C570.113,1083.3 566.631,1078.43 565.679,1077.4C564.598,1075.57 565.273,1075.13 565.158,1068.33C565.042,1061.76 564.694,1059.01 563.285,1054.05C559.726,1041.52 558.934,1035.25 560.974,1028.75C566.264,1012.26 571.78,999.619 578.911,984.244C583.062,975.247 582.425,971.733 569.701,965.2C560.17,960.309 558.902,960.361 560.105,953.211C560.672,949.864 561.193,947.753 560.492,946.131C560.06,945.147 558.477,943.769 557.55,942.978C556.308,941.916 556.682,939.721 557.956,938.087C559.204,936.49 559.211,934.199 557.975,930.383C555.369,922.358 561.264,911.726 572.398,904.383C577.315,901.132 577.179,901.808 582.309,907.195C597.311,922.95 619.598,913.051 619.636,890.848C619.649,883.923 617.294,884.335 623.839,881.072C646.029,866.952 691.575,841.274 691.272,841.975C694.239,848.018 695.23,853.18 697.11,859.693C698.732,865.272 698.519,865.704 697.914,876.567C697.367,886.388 697.071,888.666 699.382,889.297C712.523,890.745 715.522,886.099 718.045,877.61C719.133,873.864 721.231,874.624 722.531,876.207C727.531,885.307 733.858,894.774 738.015,901.242C743.209,909.505 751.955,913.611 756.537,909.711C757.503,906.5 758.294,906.403 764.099,907.723C771.14,909.319 775.15,905.374 775.825,900.199C776.096,898.133 774.59,898.217 778.361,896.177C787.712,889.252 784.147,879.804 782.744,874.115C782.866,874.411 786.74,871.76 786.824,866.431C787.275,838.77 763.301,798.933 763.842,799.962L799.374,778.982ZM573.202,794.91L592.226,804.107L587.741,826.832L568.195,818.04L573.202,794.91ZM758.327,803.361C769.287,816.065 777.209,837.245 781.296,851.043C783.317,857.916 783.561,865.762 781.759,866.856C779.983,867.93 779.153,866.778 779.487,862.672C779.764,859.249 779.867,856.597 778.4,856.636C774.146,857.736 773.985,851.294 774.416,849.775C774.706,848.765 775.233,848.057 775.465,847.503C776.514,845.006 773.772,845.347 770.941,845.315C768.431,845.373 767.781,843.848 767.903,841.473C767.826,838.834 764.338,839.349 762.349,841.351C760.534,843.179 760.914,845.334 763.379,846.84C766.912,849.003 770.252,854.325 778.477,872.667C783.259,883.312 781.843,890.867 776.147,890.784C772.196,890.668 767.6,879.849 763.881,871.882C762.922,869.823 765.329,867.519 766.172,866.412C768.36,863.541 768.025,862.634 764.782,862.589C761.75,862.544 760.457,862.814 758.629,859.068C757.94,857.659 757.445,855.509 757.683,854.139C759.247,850.013 756.035,849.016 752.921,850.599C748.988,852.24 749.02,855.748 755.012,861.482C758.867,867.815 757.863,867.377 754.208,871.637C753.442,873.143 753.899,874.07 755.514,874.089C760.148,872.68 765.2,881.027 763.816,883.885C762.4,885.114 758.513,889.567 762.272,888.711C769.904,886.639 774.551,897.818 770.052,901.609C763.346,904.968 761.757,903.919 751.427,883.286C748.222,876.876 744.361,869.99 743.891,869.288C743.415,868.58 743.203,866.688 743.222,865.163C743.672,861.43 742.083,860.581 738.839,862.067C736.406,862.647 734.205,864.648 737.288,866.553C740.892,872.764 742.166,873.761 740.184,875.338C735.686,878.923 737.636,878.781 742.681,879.785C745.153,880.525 746.408,881.799 747.083,883.325C749.69,889.175 754.311,897.432 754.768,899.112C756.299,903.404 753.538,905.329 749.761,905.148C745.809,905.238 744.001,902.117 742.076,899.453C734.894,889.471 729.72,879.579 722.389,868.239L723.374,857.64C723.374,857.64 725.298,858.058 726.373,857.543C728.478,856.526 729.733,853.212 730.936,848.81C732.86,844.987 744.239,836.273 748.596,831.594C749.4,831.066 750.076,830.191 750.082,829.663C750.057,827.952 745.146,829.097 741.915,832.804C737.172,837.013 735.151,835.571 735.299,830.191C734.836,823.543 730.782,826.877 730.576,833.364C730.054,838.493 728.272,841.621 724.68,844.485C717.91,849.904 719.036,848.533 719.352,856.05C719.899,869.166 714.84,879.952 711.526,872.802C710.354,870.267 708.977,867.383 706.017,867.255C703.925,867.165 702.889,865.112 701.737,860.034C700.019,851.822 697.625,846.538 695.436,838.976L758.327,803.361ZM589.691,831.613L611.611,840.347L607.511,863.271L585.791,854.969L589.691,831.613ZM756.84,833.731C756.692,833.737 756.525,833.776 756.338,833.847C750.16,838.519 744.464,843.751 737.732,847.767C735.209,849.26 732.262,853.109 732.242,854.139C732.223,855.143 735.242,855.123 738.176,853.843C740.963,852.626 756.859,837.695 756.879,836.324C757.979,835.115 757.87,833.66 756.84,833.731ZM555.543,861.565C560.723,861.553 557.698,863.091 546.391,870.936C535.347,878.594 517.153,902.819 515.036,911.803C514.077,915.883 516.664,916.199 519.58,910.593C532.985,884.824 558.348,861.282 581.569,862.325C592.941,862.84 599.087,865.91 589.671,867.255C563.864,870.421 544.57,885.14 527.689,914.48C527.676,915.137 529.22,915.104 530.984,913.972C546.442,895.083 563.851,870.054 594.44,872.081C616.502,873.414 622.77,899.646 604.454,908.604C588.487,916.411 573.762,897.4 586.994,886.118C591.293,882.456 593.977,884.065 589.851,887.81C580.996,895.842 591.853,910.155 602.646,904.724C609.21,901.969 611.868,892.573 606.082,885.474C593.205,869.694 565.473,881.69 546.146,907.195C544.125,909.879 542.369,915.709 544.08,915.079C547.079,913.843 548.888,911.494 550.651,908.842C557.55,899.279 562.854,894.478 572.192,889.336C579.413,885.365 579.857,886.111 577.16,892.998C576.027,895.9 575.114,896.866 572.314,898.668C560.55,906.706 553.239,917.473 552.949,924.333C552.737,929.34 556.398,935.879 552.428,937.224C545.683,940.41 527.302,937.81 522.334,931.471C518.769,926.914 517.385,929.553 520.062,936.96C521.832,941.858 521.761,944.619 524.432,944.123C527.804,942.334 530.128,942.752 536.679,946.337C539.833,948.062 545.432,949.671 548.843,950.456C555.066,951.891 556.36,951.286 556.225,953.976C556.186,954.8 556.469,957.123 556.289,958.584C555.279,966.687 562.043,969.442 571.271,974.77C576.658,977.885 574.534,981.09 568.292,996.51C565.048,1003.49 562.281,1012.88 558.278,1019.96C554.539,1027.92 554.217,1036.64 556.63,1046.57C561.103,1065.01 564.321,1074.38 556.347,1076.04C535.817,1079.14 490.477,1079.02 465.725,1069.5C459.392,1021.98 425.843,951.486 430.148,933.26C438.734,946.208 474.735,942.785 463.891,906.59C463.891,906.59 466.845,902.181 472.702,896.235C487.813,880.905 491.545,878.369 484.363,891.871C478.848,902.252 471.813,915.793 471.659,918.419C471.53,920.51 473.158,920.993 474.433,919.326C475.372,918.084 476.492,915.079 477.47,912.788C486.474,891.704 501.868,872.693 512.481,868.117C515.216,866.939 515.075,868.194 513.189,870.511C500.703,886.047 491.166,900.412 484.389,919.165C484.086,921.096 486.828,921.907 487.703,920.066C499.416,895.527 502.917,889.954 517.308,872.667C522.965,865.871 528.229,862.441 532.432,862.808C536.068,863.129 534.993,863.728 531.627,867.313C529.059,870.054 525.262,873.864 519.116,881.594C508.285,895.224 497.389,917.408 501.399,916.244C502.094,918.097 505.511,912.202 508.401,906.571C516.317,893.281 524.728,875.711 543.527,864.166C547.459,862.537 551.752,861.604 555.543,861.565ZM191.884,865.845L225.369,899.311L292.719,898.449C281.611,915.709 287.545,942.463 293.665,958.102C305.668,988.755 323.257,1039.36 321.963,1040.09C321.963,1040.09 312.168,1042.62 311.286,1048.82C309.974,1058.03 313.964,1057.35 308.21,1065.66C306.91,1067.53 307.747,1071.06 309.131,1073.86C310.044,1075.92 310.92,1079.02 309.214,1081.42L249.806,1187.41L137.058,1187.95L137.058,1166.76L193.512,1109.6L192.824,1067.55C223.619,1076.7 234.193,1108.47 236.831,1132.01C292.449,1081.25 291.078,1004.83 238.517,956.892C228.278,1007.56 191.582,1018.09 192.386,1017.09L191.884,865.845ZM610.748,871.863C614.352,872.12 619.211,872.699 622.513,874.476C620.28,875.814 618.69,877.404 617.203,879.039C615.401,875.84 612.969,874.089 610.748,871.863ZM704.105,872.223C707.104,872.21 710.786,880.989 708.675,883.042C707.484,884.2 703.616,884.638 702.239,883.769C700.469,882.456 701.37,872.229 704.105,872.223ZM597.877,887.45C601.745,887.45 604.879,890.578 604.879,894.446C604.879,898.314 601.745,901.441 597.877,901.441C594.009,901.441 590.875,898.314 590.875,894.446C590.875,890.578 594.009,887.45 597.877,887.45ZM301.652,897.425L306.698,897.541C297.527,909.808 296.285,920.369 299.541,935.673C303.197,952.895 331.102,1017.63 332.904,1035.45C332.988,1036.26 333.065,1038.52 333.065,1038.52L326.211,1038.99C326.211,1038.99 325.696,1037.15 325.484,1036.44C315.888,1004.16 306.337,979.546 299.657,960.734C293.009,940.448 282.828,910.368 301.652,897.425ZM338.535,897.541C338.587,897.535 338.626,897.548 338.658,897.561L343.504,897.599C343.324,897.709 336.27,912.839 335.762,922.016C335.189,932.423 337.699,943.756 341.148,954.942C349.296,979.14 361.215,1006.09 367.837,1036.64C367.915,1036.99 368.642,1039.95 368.642,1039.95L361.466,1038.99C361.466,1038.99 360.758,1035.86 360.681,1035.43C355.719,1008.56 341.895,980.659 333.651,954.215C329.422,942.199 326.488,927.422 328,916.128C329.062,908.16 337.062,897.696 338.535,897.541ZM397.159,897.606C392.029,905.554 387.357,915.516 387.029,923.323C386.726,937.861 390.961,950.128 395.189,962.967C408.209,1002.5 414.522,1023.35 421.035,1055.06L414.117,1052.1C414.117,1052.1 413.847,1050.32 413.692,1049.81C409.998,1029.96 409.766,1031.69 388.052,964.917C382.961,948.892 378.115,934.836 379.061,921.495C379.274,913.895 385.909,898.848 392.898,897.644L397.159,897.606ZM405.467,897.606L411.922,897.606C411.922,897.606 408.37,901.371 407.34,902.774C396.058,918.412 399.328,935.197 404.927,955.206C412.63,982.731 426.879,1013.52 434.332,1055.48C434.467,1056.26 434.332,1060.31 434.332,1060.31L426.647,1057.21C419.665,1018.74 402.442,978.844 394.147,944.239C389.262,923.921 390.652,911.082 401.928,900.019C404.753,897.837 405.467,897.606 405.467,897.606ZM326.687,897.824L331.514,897.824C331.514,897.824 323.444,911.082 323.45,918.882C322.105,932.848 327.163,948.281 332.969,964.454C341.888,989.309 353.679,1019.37 357.302,1035.19C357.444,1035.81 357.926,1038.64 357.926,1038.64L349.496,1038.2C349.496,1038.2 349.058,1034.37 348.549,1032.62C338.825,998.595 329.352,976.592 318.186,945.526C316.493,940.828 313.796,922.242 316.976,910.194C319.473,900.74 326.687,897.824 326.687,897.824ZM313.758,897.844L318.964,897.985C318.964,897.985 318.186,899.401 316.191,902.812C306.685,920.021 310.945,935.731 316.834,953.23C324.692,976.585 337.029,1005.1 344.733,1032.09C345.164,1033.61 345.756,1038.2 345.756,1038.2L338.233,1038.11C338.233,1038.11 336.708,1032.61 336.605,1032.01C332.376,1006.99 309.51,965.297 303.564,933.562C300.301,916.54 303.1,905.998 313.758,897.844ZM383.528,897.844C383.528,897.844 375.309,912.093 374.556,920.028C373.083,935.589 378.019,948.474 383.669,966.024C393.413,996.304 407.16,1031.84 408.383,1048.08C408.428,1048.61 408.627,1050.6 408.627,1050.6L400.158,1047.58C400.158,1047.58 399.778,1045.88 399.617,1045.28C392.235,1015.89 383.508,986.625 371.783,953.635C368.886,942.501 365.089,931.303 365.424,921.74C367.142,908.958 369.318,905.515 376.931,897.947L383.528,897.844ZM420.771,897.863L427.593,898.005C427.593,898.005 425.553,899.099 420.694,904.28C393.793,928.858 437.434,998.254 447.499,1061.43C447.615,1062.11 447.924,1064.49 447.924,1064.49L440.42,1061.8C439.712,1058.65 439.178,1054.82 438.309,1051.38C430.155,1019.08 419.278,985.872 409.29,955.746C403.685,933.794 401.638,914.467 411.703,903.655C414.857,899.923 420.771,897.863 420.771,897.863ZM350.641,897.902L357.901,898.108C352.655,904.685 349.579,914.931 349.296,924.05C349.019,934.83 351.903,945.314 355.449,956.409C362.734,979.159 373.128,1003.89 380.271,1034.58C380.67,1036.62 381.005,1037.92 381.192,1038.81C381.488,1040.21 382.299,1042.45 382.299,1042.45L374.634,1040.92C374.634,1040.92 373.848,1038.93 373.327,1037.88C372.555,1036.31 371.847,1034.31 371.216,1031.91C367.509,1015.89 353.853,979.559 345.538,954.073C338.941,938.016 337.145,909.956 350.641,897.902ZM441.289,898.185C450.575,897.844 458.968,905.721 460.956,913.129C462.887,920.993 460.416,929.862 451.766,934.244C437.736,941.349 422.631,922.448 433.707,912.041C442.093,904.157 454.508,909.994 451.805,920.086C450.061,926.657 440.098,927.081 438.45,920.446C438,918.245 436.893,916.038 436.095,917.254C430.94,929.366 448.284,935.042 455.486,923.767C459.759,914.731 451.624,903.095 439.66,905.303C423.249,908.34 421.364,929.16 428.173,953.455C437.678,991.844 460.351,1043.49 460.313,1067.18C460.313,1067.5 460.396,1068.47 460.396,1068.47L453.195,1066.32C453.195,1066.32 453.143,1065.92 453.092,1065.57C448.773,1032.47 424.189,977.666 417.135,935.532C414.078,916.321 421.557,902.381 438.393,898.565C439.364,898.346 440.323,898.223 441.289,898.185ZM370.09,898.487C365.038,905.238 361.743,915.381 361.582,922.621C361.434,933.228 365.237,943.557 368.384,954.601C376.339,981.869 394.925,1032.24 394.243,1041.66C394.436,1042.67 394.951,1045.81 394.951,1045.81L387.769,1043.67C387.769,1043.67 387.486,1043.22 386.945,1041.92C384.551,1032.56 373.173,992.456 360.417,957.773C355.513,943.834 353.125,932.97 353.46,923.728C354.496,910.973 358.145,905.65 363.738,898.545L370.09,898.487ZM506.811,943.699C488.199,944.76 489.994,967.446 501.521,971.289C505.646,972.428 508.066,971.443 508.722,970.548C509.469,969.525 508.632,967.961 505.923,967.569C498.103,965.001 495.304,955.791 502.37,951.93C506.232,949.909 512.391,951.209 519.824,956.712C533.101,966.545 549.377,967.163 547.253,957.214C546.738,954.8 545.696,954.478 535.971,953.153C528.075,952.078 524.516,949.581 521.073,947.721C515.641,944.793 510.859,943.576 506.811,943.699ZM240.371,964.795C288.452,1011.75 281.322,1085.34 240.249,1122.19C239.406,1119.21 237.61,1111.93 237.417,1112.13C268.302,1080 282.853,1027.31 238.138,973.303C238.369,973.509 239.135,969.403 240.371,964.795ZM541.706,966.043C541.249,966.056 540.85,966.101 540.496,966.224C528.049,969.628 525.468,981.933 533.539,986.998C538.488,990.107 542.291,988.202 536.132,984.443C530.855,981.225 533.461,972.769 539.852,972.859C542.652,972.904 544.55,974.12 551.662,979.359C557.512,983.671 563.021,984.012 564.269,978.168C565.016,974.687 563.851,973.136 560.125,974.049C558.484,974.455 557.512,973.49 555.279,971.939C550.31,968.489 544.885,965.973 541.706,966.043ZM235.403,975.253C278.741,1025.56 264.827,1078.02 235.602,1108.76C227.583,1085.08 207.909,1070.3 207.909,1070.3C215.323,1053.86 219.744,1036.68 205.882,1014.99C218.773,1003.35 229.462,990.538 235.403,975.253ZM516.986,993.614C514.952,993.582 515.615,995.538 520.403,998.885C531.827,1006.65 532.805,1008.06 521.736,1007.88C518.93,1007.71 514.527,1009.7 512.037,1010.53C497.589,1015.35 496.894,1014.97 489.975,1013.35C487.671,1012.81 485.335,1011.84 484.324,1012.76C482.767,1014.19 481.01,1015.13 482.979,1017.25C484.408,1018.8 487.079,1019.98 490.323,1021.84C507.101,1031.44 508.626,1033.75 528.351,1034.26C530.61,1034.32 531.769,1033.15 533.095,1033.14C536.319,1033.1 538.005,1033.88 541.262,1036.86C547.228,1042.3 547.504,1038.34 543.958,1031.2C542.098,1027.46 540.47,1026.57 541.384,1023.72C543.463,1017.23 540.502,1015.94 536.615,1021.69C533.706,1026.19 533.378,1026.09 530.623,1020.3C526.974,1013.08 528.686,1009.74 534.221,1014.45C538.417,1018.02 539.492,1015.37 541.12,1012.54C543.27,1008.83 542.941,1005.5 539.112,1005.78C536.905,1005.95 534.845,1004.94 533.12,1003.05C529.722,999.348 523.222,994.708 516.986,993.614ZM521.736,1013.17C522.192,1013.19 522.508,1013.38 522.656,1013.85C522.694,1016.23 521.06,1021.09 519.721,1023.64C519.296,1024.78 518.563,1024.92 517.533,1025.13C514.071,1025.77 513.832,1024.7 514.457,1022.56C515.725,1019.25 516.767,1014.54 521.234,1013.19C521.414,1013.17 521.581,1013.16 521.736,1013.17ZM512.944,1014.81C514.347,1014.71 514.392,1015.3 513.832,1016.56C512.835,1018.71 511.071,1020.73 509.765,1022.41C506.998,1024.21 502.48,1018.73 504.481,1017.31C507.262,1016.2 509.36,1015.07 512.262,1014.9C512.52,1014.85 512.745,1014.83 512.944,1014.81ZM202.477,1018.39C203.23,1018.39 203.99,1018.55 204.775,1018.87C215.259,1033.03 214.544,1054.58 206.403,1066.5C205.798,1067.39 205.174,1067.56 204.151,1067.21C200.643,1065.13 196.196,1064.36 192.869,1063.16L192.869,1021.71C196.293,1020.99 199.247,1018.38 202.477,1018.39ZM478.854,1021.77C478.056,1021.81 477.721,1022.36 478.738,1023.4C494.03,1034.47 515.075,1047.3 534.485,1042.33C536.267,1041.94 537.703,1040.97 537.362,1039.13C537.149,1037.98 535.173,1037 533.037,1037.56C528.583,1038.74 520.049,1038.89 516.542,1038.32C503.194,1036.13 491.404,1027.6 481.145,1022.6C480.386,1022.01 479.478,1021.75 478.854,1021.77ZM474.388,1032.33C473.706,1032.3 473.757,1032.98 474.188,1034.26C476.344,1040.67 497.981,1055.61 515.075,1060.55C529.754,1064.79 550.832,1060.62 549.609,1053.65C548.972,1050.02 546.301,1049.15 536.937,1050.33C516.317,1054.34 496.469,1045.9 481.409,1036.53C477.348,1033.98 475.269,1032.37 474.388,1032.33ZM339.359,1041.1C348.369,1040.99 357.296,1041.72 366.956,1043.33C385.742,1046.54 407.52,1052.36 425.939,1060.89C457.249,1072.64 496.617,1081.71 530.018,1080.48C538.172,1080.7 552.91,1080.01 555.761,1079.07C563.207,1077.4 565.267,1078.98 567.043,1088.22C567.359,1090.23 567.983,1090.81 570.564,1092.56C574.522,1095.25 573.859,1097.89 573.382,1103.81C572.977,1108.79 575.982,1111.58 588.043,1133.84C601.764,1159.17 615.15,1188.6 615.15,1188.6C494.847,1188.51 380.078,1184.05 256.982,1187.88C268.051,1161.63 298.235,1114.3 317.156,1076.3C312.58,1064.61 318.231,1062.62 315.856,1059.85C312.027,1053.35 314.794,1044.24 322.89,1042.18C328.534,1041.54 333.96,1041.17 339.359,1041.1Z" style="fill:rgb(19,31,103);fill-rule:nonzero;"/>
        <path d="M258.39,1188.69C258.39,1188.69 297.812,1108.99 314.422,1085.12C338.322,1054.82 446.188,1098.28 499.833,1109.14C521.637,1113.35 572.181,1111.38 572.181,1111.38L614.427,1187.52L258.39,1188.69ZM176.529,1098.14L174.857,850.028L187.202,857.726L190.026,1106.95L136.678,1158.03L136.382,1143.07L176.529,1098.14ZM208.82,1069.83C221.527,1044.25 207.338,1013.02 207.337,1013.03C214.708,1014.85 235.253,975.871 237.074,976.997C268.507,1015.55 273.955,1072.99 235.55,1108.58C225.855,1083.84 208.942,1069.83 208.82,1069.83ZM232.276,894.348C256.162,869.943 275.106,850.928 294.036,823.617C295.588,821.391 193.265,691.429 194.856,689.151C210.638,671.707 231.797,658.89 248.26,637.825C248.26,637.825 332.169,747.666 334.104,746.703C342.602,712.327 348.829,681.206 347.21,645.276C342.029,553.348 302.747,497.07 302.444,498.177C289.155,582.638 158.6,710.569 132.898,701.454L132.749,642.43C134.306,645.383 215.462,590.214 236.857,517.303C238.398,512.065 301.37,491.913 300.927,491.143C298.267,484.299 270.717,445.327 270.717,445.327C270.717,445.327 281.847,440.144 283.083,440.162C318.789,484.564 345.737,543.058 354.905,598.758C366.031,658.752 373.226,771.538 252.919,894.706L232.276,894.348ZM592.931,739.144C574.104,680.715 574.618,620.224 583.274,577.988C596.482,501.457 644.849,446.657 683.64,404.872L700.472,404.88C700.472,404.88 680.351,425.701 673.027,433.277C660.466,447.691 642.266,477.759 642.266,477.759L742.661,608.986L799.884,596.618C799.884,596.618 798.159,655.322 799.935,655.321C755.458,692.134 723.497,725.452 700.55,779.084C686.49,784.288 639.868,804.385 639.868,804.385C617.706,798.966 705.817,660.828 689.058,658.487C682.155,652.794 605.73,549.695 604.239,549.908C569.006,657.771 603.375,771.042 665.361,850.162C658.322,854.717 651.958,858.268 652.537,857.197C625.992,820.367 602.727,776.392 592.924,739.144L592.931,739.144ZM409.517,685.062C413.49,691.211 431.356,553.424 384.409,443.132C388.878,439.746 427.604,432.338 427.604,432.338L438.028,465.361L411.607,476.547L416.483,492.027C436.992,482.08 481.408,467.394 508.728,422.012C508.728,422.012 641.481,420.872 644.302,421.109C647.059,421.339 617.229,449.924 588.942,507.792C576.02,534.224 565.736,568.424 563.599,608.55C563.176,616.479 533.225,571.273 533.225,571.273C540.69,533.077 560.651,495.476 580.547,457.871C580.547,457.871 550.023,456.136 528.693,456.76C495.529,493.003 474.736,512.105 424.732,529.413C442.966,587.829 554.515,615.906 529.706,610.567C524.642,609.373 518.215,664.269 523.585,726.128C524.618,775.587 551.234,858.035 552.166,857.369C552.166,857.369 534.426,861.362 533.009,858.518C535.996,857.798 506.616,865.236 506.616,865.236L496.106,834.508L524.543,821.428L519.944,804.083C519.828,804.094 457.199,823.033 426.516,877.674L289.32,877.834C342.233,820.418 363.813,763.635 375.302,688.559C386.531,690.572 409.517,685.062 409.517,685.062ZM746.938,189.391C764.192,174.955 798.816,137.364 798.816,137.364L799.268,156.624L759.971,197.488L760.372,449.787L747.073,437.047L746.938,189.391ZM728.779,281.734C721.703,285.104 707.597,301.688 700.87,320.32C655.353,279.649 674.096,204.905 699.017,189.345C706.247,205.665 727.19,227.302 726.703,226.847C721.896,243.936 718.204,261.272 728.779,281.734ZM325.718,112.361L676.813,112.977C656.787,152.409 638.414,184.284 617.125,223.104C606.05,236.465 366.287,179.959 365.164,185.588L325.718,112.361Z" style="fill:rgb(226,207,0);fill-rule:nonzero;"/>
        <path d="M689.12,1182C666.114,1137.19 636.579,1096.57 602.69,1061.48C636.432,1024.64 664.558,986.478 688.595,944.787C713.359,986.284 740.564,1025.46 778.567,1063.35C740.902,1100.42 712.613,1140.87 689.12,1182ZM135.929,1138.47L133.587,807.191L173.5,845.956L175.865,1100.37L135.929,1138.47ZM827.278,1046.35C841.814,1030.96 855.021,1013.88 865.915,995.445C879.621,1015.74 894.162,1036.52 906.184,1046.87C892.54,1062.4 879.639,1080.41 867.204,1098.96C856.367,1081.66 844.606,1064.22 827.278,1046.35ZM319.054,1074.27C310.793,1075.53 315.472,1067.89 316.978,1060.62C317.822,1056.57 313.905,1052.76 313.92,1051.52C314.028,1044.33 319.411,1041.3 343.827,1041.58C401.378,1045.57 431.139,1064 464.15,1072.56C495.764,1080.77 527.107,1080.6 561.996,1079.8C564.551,1081.27 573.903,1105.36 572.162,1107.76C493.243,1123.32 392.532,1065.38 319.054,1074.27ZM461.296,902.734C452.983,896.711 445.182,895.595 437.468,894.281C451,870.478 467.391,848.78 494.768,835.205L507.51,866.719C491.407,874.996 475.598,884.855 461.296,902.734ZM295.037,820.886C295.037,820.886 283.219,840.193 272.073,849.588C238.929,805.149 164.819,710.528 164.819,710.528L133.364,726.451C133.364,726.451 133.244,708.135 133.955,706.852C218.894,663.082 277.178,580.354 302.844,502.886C302.844,502.886 316.52,516.841 314.723,522.745C291.753,583.852 252.483,645.132 194.726,691.091L295.037,820.886ZM400.974,730.736L508.214,730.884L512.963,768.165C471.899,781.923 438.009,810.033 406.32,842.546L355.459,841.655C372.138,805.118 395.301,768.059 400.974,730.736ZM797.997,573.68C801.468,584.19 797.972,595.528 799.306,595.052C670.853,658.576 634.149,798.001 634.149,798.001C634.149,798.001 621.958,778.695 622.512,775.712C688.998,627.942 733.477,623.542 742.025,607.494L640.902,476.632L663.78,445.525L772.233,586.656C783.019,581.691 789.162,577.533 797.997,573.68ZM734.665,764.85C756.443,725.676 778.916,702.906 801.303,687.24L800.211,738.933L734.665,764.85ZM134.138,611.101L134.695,560.946L200.866,532.473C182.57,572.35 157.733,593.72 134.138,611.101ZM428.907,566.007L424.992,530.731C465.157,513.212 500.645,489.781 529.288,457.71C560.062,456.232 581.087,458.317 580.92,457.9C580.973,457.838 551.641,500.851 532.223,568.572L428.907,566.007ZM761.681,195.451L798.243,158.511L799.396,488.174L762.674,453.23L761.681,195.451ZM440.371,463.886L428.776,431.201C447.023,424.364 460.835,409.469 473.705,394.718C482.424,402.527 493.685,405.276 497.591,406.777C502.944,408.027 460.6,458.863 440.371,463.886ZM157.578,238.16C196.731,199.949 222.179,159.65 246.766,119.584C268.337,163.669 299.556,202.238 333.026,239.521C298.526,277.02 272.315,317.174 247.149,357.598C222.411,314.991 196.371,275.046 157.578,238.16ZM67.325,304.007C56.037,285.985 44.667,268.637 28.284,251.233C44.233,234.161 57.785,217.238 66.884,200.593C79.448,218.87 91.373,237.962 106.789,252.566C91.77,269.093 79.707,286.603 67.325,304.007ZM371.83,216.357C371.83,216.357 367.268,213.717 367.771,209.997C369.279,205.177 362.893,194.267 362.893,194.267C440.751,170.648 554.12,237.116 621.412,223.135C620.846,227.833 621.622,233.436 619.716,237.866C621.835,247.282 623.33,247.585 614.139,253.334C566.864,266.71 517.044,238.188 470.87,224.553C433.199,212.689 402.603,215.712 371.83,216.357Z" style="fill:rgb(212,0,0);fill-rule:nonzero;"/>
        <path d="M822.777,1124.01L822.777,1136.41L832.566,1136.41L860.452,1198.99L833.751,1242.7L823.463,1242.7L823.463,1253.79L862.419,1253.79L862.419,1242.7L849.446,1242.7L885.161,1191.16L885.161,1242.7L874.431,1242.7L874.431,1253.79L910.004,1253.79L910.004,1242.97L898.313,1242.97L898.313,1136.41L910.004,1136.41L910.004,1124.01L874.431,1124.01L874.431,1136.41L885.161,1136.41L885.161,1167.88L869.985,1187.42L847.243,1136.41L862.419,1136.41L862.419,1124.01L822.777,1124.01Z" style="fill:rgb(212,0,0);"/>
        <path d="M23.329,46.215L23.329,58.408L35.796,58.408L35.796,164.47L23.329,164.47L23.329,177.602L59.563,177.602L59.563,164.47L49.953,164.47L49.953,134.381L64.508,114.222L86.328,164.47L72.394,164.47L72.394,177.602L111.914,177.602L111.914,164.47L102.465,164.47L73.535,99.867L101.024,58.207L111.209,58.408L111.209,46.215L71.971,46.215L71.971,58.408L83.285,58.408L49.953,109.557L49.953,58.408L59.845,58.408L59.845,46.215L23.329,46.215Z" style="fill:rgb(212,0,0);"/>
        <path d="M321.706,107.712L335.922,134.493L333.466,136.161C337.337,142.612 340.627,149.87 344.588,156.269L347.445,155.94C352.115,164.89 354.007,168.201 360.115,178.806L357.36,178.793C358.777,183.507 362.423,186.639 362.498,190.022C362.533,194.231 361.454,198.503 364.036,201.353C367.098,204.727 367.468,205.663 366.841,207.64C365.165,212.892 369.929,218.706 374.759,218.185C408.793,213.637 443.477,217.497 478.147,227.973C503.079,235.836 525.215,244.643 546.173,250.835C552.774,252.808 566.134,255.918 577.628,256.76C609.506,259.095 627.399,252.6 622.027,239.34C621.601,238.278 620.65,237.5 620.563,236.954C620.407,235.945 620.561,234.853 622.37,233.37C627.601,228.028 624.683,224.139 621.492,218.225C621.492,218.225 662.439,145.083 682.888,108.638L321.706,107.712ZM676.21,114.285L646.328,165.875C630.352,162.981 626.6,176.415 626.354,178.304C605.613,172.986 608.794,199.886 619.202,201.703C619.874,205.605 602.151,210.453 592.806,201.312C607.164,203.235 612.25,184.243 594.713,180.022C617.828,162.838 574.461,137.11 573.943,172.658C553.55,169.067 556.203,196.015 569.136,198.11C562.519,205.405 543.064,205.608 532.895,190.23C550.193,199.214 559.555,176.027 541.583,169.536C563.759,150.088 520.338,132.157 521.354,163.582C504.983,153.882 493.726,178.613 515.583,182.407C514.333,186.857 485.714,186.892 478.451,175.388C498.748,180.018 499.679,155.316 481.776,153.305C499.744,130.496 454.124,118.96 461.782,150.088C444.152,143.116 437.495,165.092 454.66,172.15C455.615,175.647 426.861,178.622 416.798,166.006C438.896,162.69 431.163,141.275 416.85,142.988C416.85,142.988 417.06,142.372 417.863,140.288C424.621,118.792 388.285,116.995 393.322,139.79C394.128,141.889 395.019,144.684 395.019,144.684C385,142.644 378.878,146.723 379.607,156.121C382.096,168.599 388.691,167.677 397.122,165.192C400.661,168.887 376.775,181.241 361.786,170.21C380.146,164.935 370.845,143.418 355.481,146.322C354.849,139.455 347.385,129.822 337.653,134.521L327.352,114.269L676.21,114.285ZM706.239,400.898L684.67,401.216C669.516,416.684 559.807,517.744 578.284,670.398C586.188,735.691 604.418,792.179 653.164,858.907L666.191,851.265L668.182,852.594L803.271,774.885L803.34,751.289L646.538,817.073C643.423,813.761 641.596,810.067 638.977,805.991L701.814,779.287C701.814,779.287 703.324,775.471 703.805,773.709C724.463,721.445 766.429,683.607 802.965,654.373C802.772,602.914 802.536,495.179 802.536,495.179L708.057,401.09C695.941,412.166 685.197,423.56 674.454,435.921L782.924,578.699L773.306,584.957L665.976,442.92C678.688,427.635 692.485,414.307 706.239,400.898ZM802.607,493.73C802.607,493.73 802.086,248.594 801.375,130.224L745.077,187.98L745.294,436.452L802.607,493.73ZM797.822,153.562L758.046,194.601L758.494,447.165L748.27,437.089L748.275,191.323L797.959,139.262L797.822,153.562ZM410.746,147.482C411.938,149.579 411.423,152.484 409.509,154.854C401.375,164.944 426.928,182.478 445.307,179.43C459.303,177.111 471.231,168.709 466.085,162.315C461.896,157.109 464.635,151.842 469.667,151.878C474.842,151.914 478.998,156.032 474.509,161.672C464.529,174.219 479.75,188.94 503.033,189.245C519.488,189.461 524.973,185.406 524.085,173.678C523.674,168.186 524.75,166.668 528.575,165.835C534.675,164.504 537.757,171.499 532.693,176.836C521.766,188.36 534.186,205.307 554.861,206.4C562.424,206.801 563.918,206.398 572.357,201.634C578.949,197.91 581.282,192.287 578.044,187.917C573.889,182.294 579.498,175.577 585.97,178.344C590.601,180.323 592.882,183.872 587.761,189.889C581.037,197.794 584.217,204.314 597.174,208.713C607.265,212.14 614.249,211.715 618.973,207.406C620.445,206.065 623.713,203.265 623.665,204.12C620.492,209.603 617.679,214.693 617.679,214.693C596.542,224.122 580.047,206.476 580.593,205.818C558.814,218.381 539.512,215.731 523.194,194.625C518.956,196.976 488.586,202.51 466.662,178.449C444.543,189.548 423.976,184.893 405.702,172.481C392.198,185.229 377.963,187.245 363.17,181.123L358.788,172.311C359.896,171.896 364.663,181.148 387.809,176.836C395.584,175.389 408.952,162.327 401.469,155.96C398.04,151.111 397.937,148.925 400.963,145.985C403.942,143.088 409.027,144.579 410.746,147.482ZM354.04,159.037C355.335,161.538 355.506,165.697 354.082,163.2C353.333,161.883 349.414,155.999 349.598,155.819C351.422,155.667 353.229,157.549 354.04,159.037ZM797.838,161.047L798.098,486.976L764.229,453.373L762.601,198.041L797.838,161.047ZM405.587,176.829L416.25,183.535L397.154,183.421L405.587,176.829ZM465.543,182.438L474.497,191.136L455.669,187.189L465.543,182.438ZM633.314,186.952L629.314,195.158C627.004,192.577 626.334,187.1 633.314,186.952ZM700.994,322.449C707.79,307.188 716.887,287.753 731.614,281.571C720.65,259.795 722.077,238.026 729.851,226.09C718.731,215.74 707.318,203.341 700.237,185.511C665.105,216.531 659.456,280.246 700.994,322.449ZM699.945,191.471L702.363,197.429C671.074,235.72 680.731,285.986 703.397,312.81L700.143,319.567C672.447,290.356 660.322,228.612 699.945,191.471ZM512.897,213.131C549.154,223.769 578.187,240.351 620.107,225.578L620.304,233.738C593.624,250.863 540.473,232.769 504.571,219.518C446.855,198.216 401.937,199.458 369.852,201.892C367.023,201.338 364.778,193.962 369.304,193.912C429.313,193.25 419.616,185.762 512.897,213.131ZM521.088,198.697L532.999,211.328C524.056,208.523 515.364,205.407 507.277,201.534L521.088,198.697ZM702.814,201.814L705.145,205.031C706.157,206.425 698.561,207.148 699.839,205.514L702.814,201.814ZM498.245,224.929C541.522,241.179 589.177,257.397 620.446,242.852C620.446,242.852 620.645,249.045 617.068,250.799C617.068,250.799 613.77,253.466 602.737,254.984C552.135,259.137 519.291,238.189 478.449,225.809C462.955,221.113 438.062,215.423 412.507,214.364C397.328,213.674 374.118,215.853 374.118,215.853C369.059,215.432 369.131,212.445 369.087,209.518C413.082,203.652 453.537,208.029 498.245,224.929ZM707.521,209.349C708.075,209.324 708.647,209.363 709.206,209.45L713.631,215.101L708.386,223.447C708.386,223.447 703.756,219.185 701.403,215.001C700.112,212.291 703.611,209.531 707.521,209.349ZM580.013,210.939L593.715,221.283C583.413,221.789 571.814,222.173 560.334,217.614L580.013,210.939ZM696.091,216.207C697.166,216.181 698.298,217.321 699.629,219.586C702.179,223.938 701.842,224.772 696.89,226.363C690.391,228.452 689.884,227.993 691.982,222.16C693.417,218.187 694.7,216.24 696.091,216.207ZM716.905,218.875L726.172,226.651C721.052,239.964 717.702,256.86 727.979,281.116C726.838,281.191 720.182,287.762 718.09,288.883C712.224,286.424 699.304,238.363 716.905,218.875ZM706.369,229.058L704.011,243.78C703.822,244.987 693.764,236.81 694.699,232.719C696.49,227.86 702.613,228.897 706.369,229.058ZM689.742,234.226C690.958,234.235 692.863,237.177 695.209,241.024C697.042,244.025 696.668,245.159 692.619,248.807C686.655,254.834 685.48,252.867 686.806,242.613C687.456,237.546 688.364,234.216 689.742,234.226ZM702.071,247.567C702.875,247.584 703.586,247.779 704.1,248.191L704.78,262.53C704.841,263.825 693.589,262.02 692.115,256.557C690.246,253.059 697.702,247.478 702.071,247.567ZM687.213,259.688C688.02,259.573 690.539,261.25 692.928,262.664C697.068,265.123 697.159,266.204 693.589,270.789C689.394,276.176 687.311,275.312 686.671,265.943C686.436,262.503 686.174,259.835 687.213,259.688ZM703.73,265.172C704.09,265.172 704.417,265.276 704.696,265.514C706.687,267.219 709.741,281.592 708.46,283.092C706.633,285.228 697.021,282.387 694.879,279.009C692.844,275.795 700.228,265.174 703.73,265.172ZM691.974,282.093C693.076,282.017 695.064,282.777 698.064,284.224C699.87,285.095 702.886,286.734 703.556,288.13C704.729,290.588 702.779,294.233 700.26,297.257C698.59,299.258 697.033,297.77 693.804,291.062C691.202,285.668 690.13,282.218 691.974,282.093ZM711.364,288.521C711.589,288.516 711.788,288.561 711.966,288.662C715.243,290.475 714.691,295.86 710.823,299.844C706.181,304.626 702.144,301.024 705.354,294.957C707.385,291.114 709.818,288.558 711.364,288.521ZM441.466,422.239C438.638,422.367 434.223,424.929 432.299,427.408C429.863,430.541 427.739,430.132 425.04,429.902C421.822,429.854 416.937,430.565 410.318,433.582C406.561,435.292 404.855,435.678 399.353,435.956C395.765,436.137 392.171,436.623 391.372,437.042C390.573,437.461 387.989,438.365 385.64,439.053C380.833,440.46 382.546,441.823 385.301,448.015C399.317,483.958 409.366,525.839 413.025,559.95C417.136,599.085 415.893,646.541 410.42,682.782C396.998,682.872 388.571,682.184 374.438,682.423C364.797,760.794 338.64,823.033 286.358,878.998L427.684,879.362C443.875,836.174 517.764,803.24 520.193,805.665L524.086,821.426C524.086,821.426 470.932,829.023 435.138,896.473C438.794,894.259 452.13,895.795 460.929,904.929C478.508,882.64 507.351,868.074 507.538,868.419L508.499,865.732C508.499,865.732 513.79,863.933 518.434,863.05C519.925,862.767 522.98,862.19 525.014,861.479C528.149,860.383 529.701,859.213 534.547,859.626C544.623,860.59 554.735,857.672 554.517,857.617C524.521,774.877 517.433,700.195 529.147,613.436C540.203,613.522 564.437,613.938 564.437,613.938C566.875,589.562 569.964,565.172 577.451,542.156C587.061,512.607 598.656,485.138 617.321,460.021C627.866,444.247 637.069,433.022 647.964,418.237L509.626,418.557C491.317,449.328 456.041,475.026 427.691,485.732C418.043,489.357 416.681,488.821 415.082,484.284C412.225,476.178 412.361,476.521 419.91,474.369C422.427,473.65 430.496,469.404 443.075,463.509C469.782,449.953 488.146,425.135 498.947,408.383C503.247,401.766 500.363,403.26 493.013,403.194C486.29,402.668 483.211,400.588 477.164,394.948C474.935,392.869 473.982,391.388 472.963,391.509C465.065,402.849 451.811,417.808 441.466,422.239ZM473.932,396.044C480.155,402.701 487.534,406.596 497.244,407.864C481.72,432.217 462.768,451.26 440.975,462.838L429.9,431.681C457.055,419.038 464.314,406.374 473.932,396.044ZM699.424,405.955C553.117,541.219 561.726,711.746 664.181,850.264L653.447,856.717C557.221,727.771 539.809,537.015 686.837,405.378L699.424,405.955ZM607.19,422.453L643.057,422.38L618.637,454.028L585.876,453.907L607.19,422.453ZM601.572,422.715L581.623,454.164L527.819,454.857C495.624,494.548 461.038,513.911 425.834,527.124L418.959,493.232C418.959,493.232 474.701,479.791 510.802,422.286L601.572,422.715ZM546.891,425.316L534.424,439.113L547.374,452.287L559.203,438.912L546.891,425.316ZM575.129,424.995L562.5,438.127L572.353,451.341L585.446,438.51L575.129,424.995ZM512.843,427.388L510.695,448.043L526.944,453.372L529.316,435.714L512.843,427.388ZM611.704,428.158L599.909,446.595L617.669,446.876L630.081,428.52L611.704,428.158ZM426.049,432.869L437.562,464.772L427.454,469.646L417.202,436.329L426.049,432.869ZM412.429,437.987L424.295,470.99L414.357,474.268L403.454,439.918L412.429,437.987ZM426.646,568.291C427.967,614.19 428.631,641.859 420.954,682.204C420.55,684.312 412.312,682.444 412.312,682.444C413.355,682.792 416.953,636.852 416.67,607.996C416.121,553.045 406.807,498.683 385.24,444.222C389.352,441.707 399.493,440.425 399.493,440.425C413.099,481.723 425.163,526.149 426.646,568.291ZM282.997,441.03C330.231,503.695 363.991,588.713 358.346,672.596C352.936,770.137 315.95,826.353 251.008,893.9L234.247,894.286C311.128,820.571 345.146,757.486 347.831,674.253C350.911,578.527 321.679,514.86 272.438,447.011L282.997,441.03ZM131.918,527.174L132.088,550.001L293.002,480.985L269.796,446.796L131.918,527.174ZM509.067,452.407L491.55,453.292L492.133,470.97L510.389,470.528L509.067,452.407ZM665.211,449.048L769.494,585.788L743.685,604.954L644.271,476.461L665.211,449.048ZM583.48,458.388L614.69,458.87L602.621,478.894L572.457,478.653L583.48,458.388ZM577.717,458.881C563.362,485.571 543.566,516.004 532.45,565.187L429.699,565.274C429.511,554.045 428.055,542.816 426.38,531.587C470.661,515.383 504.959,491.161 530.177,459.145L577.717,458.881ZM596.712,460.29L583.323,468.013L591.505,477.425L606.268,471.774L596.712,460.29ZM474.414,470.125L469.987,487.542L486.642,493.958L489.717,473.263L474.414,470.125ZM570.221,483.138L600.168,483.318L587.558,508.499L557.893,508.056L570.221,483.138ZM641.521,479.841L740.199,607.753L730.949,615.073L634.512,490.041L641.521,479.841ZM581.585,485.169L568.094,496.411L578.251,508.137L590.694,498.201C590.962,497.992 581.585,485.169 581.585,485.169ZM450.619,486.094L446.477,503.028L463.795,507.634L466.889,489.473L450.619,486.094ZM426.669,497.356L423.15,514.029L439.46,518.434L442.897,502.364L426.669,497.356ZM291.996,495.684C292.836,495.517 289.271,515.527 284.026,519.135C281.517,520.858 280.224,520.478 278.044,518.131C276.554,516.514 269.765,505.448 269.765,505.448L275.558,502.534C282.595,513.78 282.588,508.341 285.248,498.756L291.996,495.684ZM264.952,507.21C267.25,507.193 270.032,510.048 273.178,515.577C277.729,523.572 277.579,524.094 270.104,526.397C256.646,529.957 251.642,530.81 255.783,521.932C260.239,512.373 261.997,507.232 264.952,507.21ZM305.01,505.624L314.213,521.385C277.293,615.393 217.741,682.83 135.77,723.635L135.582,708.017C232.229,653.008 271.855,588.025 305.01,505.624ZM556.046,512.42L585.105,512.943L577.342,535.167L546.45,534.945L556.046,512.42ZM256.226,511.45C232.567,567.819 200.249,617 135.625,658.522L135.368,643.548C207.942,599.812 239.312,517.889 239.306,517.863L256.226,511.45ZM623.541,511.354C640.744,511.826 658.842,530.585 657.005,546.047C655.712,556.944 657.803,565.029 660.765,560.568C667.324,550.71 686.635,557.263 686.458,569.1C686.366,575.4 682.158,576.436 679.741,570.749C676.175,562.348 666.151,562.14 664.669,570.945C663.281,579.199 670.28,585.264 688.982,592.022C710.899,597.163 724.095,616.809 716.3,628.102C713.589,631.087 711.961,631.821 711.454,630.274C711.307,629.83 710.769,627.501 710.264,625.105C707.782,613.27 702.109,608.298 695.215,612.362C691.761,614.399 692.202,617.096 694.212,620.653C696.896,625.389 695.216,627.229 690.412,624.816C682.832,621.005 680.32,611.976 687.674,607.811C696.419,604.314 693.458,603.561 682.286,599.786C658.504,591.66 648.301,576.756 647.051,548.36C647.505,535.416 645.739,530.801 639.649,529.033C634.078,527.414 627.767,534.494 631.763,538.223C633.941,540.25 635.711,542.092 634.558,543.212C630.865,546.8 621.615,540.974 621.712,534.724C621.772,530.638 623.318,529.795 629.434,524.99C631.131,523.658 629.682,521.145 627.199,521.109C617.851,524.121 618.513,511.757 623.541,511.354ZM569.665,514.632L555.138,522.981L562.701,533.554L578.792,525.998L569.665,514.632ZM286.998,522.837C288.666,522.837 290.032,524.185 290.035,525.854C290.031,527.523 288.668,528.891 286.995,528.891C285.328,528.891 283.981,527.523 283.978,525.854C283.982,524.185 285.325,522.837 286.998,522.837ZM316.778,524.146C347.439,591.065 354.733,667.589 333.391,744.058L250.591,636.329C282.357,600.562 303.716,559.613 316.778,524.146ZM204.788,529.06L130.9,560.103L130.495,615.504C171.775,587.332 189.284,558.491 204.788,529.06ZM275.813,528.598C283.09,528.372 279.499,548.025 270.048,554.732C266.576,557.395 264.239,557.069 263.097,551.742C262.502,548.981 259.599,543.138 255.936,538.435C251.675,532.964 251.722,532.83 257.947,532.442C264.813,532.546 270.446,529.247 275.813,528.598ZM268.617,536.95C263.244,536.871 261.635,539.384 264.832,542.822C267.529,545.718 269.664,545.098 271.469,540.912C272.57,538.361 271.584,536.993 268.617,536.95ZM135.35,608.816L135.53,561.795L198.713,535.19C186.037,562.663 162.577,589.903 135.35,608.816ZM696.673,646.802L688.259,655.264L606.683,548.929L611.799,535.506L696.673,646.802ZM249.627,539.242C252.362,539.283 258.567,548.766 260.307,555.573C261.602,560.624 260.231,561.691 250.654,563.115C246.689,564.202 235.964,563.152 236.839,560.299C238.392,556.181 248.662,539.228 249.627,539.242ZM545.145,540.328L574.909,540.65L568.093,565.066L536.915,564.603L545.145,540.328ZM558.295,541.816L544.441,551.41L555.399,562.21L570.08,553.139L558.295,541.816ZM604.988,552.321L687.51,659.415C662.89,690.73 638.336,726.703 622.19,774.251C592.809,705.533 582.056,638.644 604.988,552.321ZM269.846,561.432C271.519,561.432 272.886,562.779 272.882,564.449C272.885,566.118 271.515,567.486 269.848,567.486C268.175,567.486 266.828,566.118 266.832,564.449C266.829,562.779 268.179,561.432 269.846,561.432ZM260.357,565.515C265.506,565.88 260.646,582.286 252.888,588.269C246.78,592.987 244.147,590.799 242.735,582.167C242.224,579.048 238.944,573.748 236.064,569.565C232.838,564.891 234.164,564.146 242.338,566.025C248.04,567.131 255.08,565.778 260.357,565.515ZM536.139,569.524L567.348,569.713L562.542,606.789L536.139,569.524ZM232.056,571.241C236.977,575.825 243.187,591.91 240,593.068C236.295,594.415 219.516,592.468 217.639,590.534C216.343,589.202 216.343,589.194 219.085,585.526C220.595,583.508 223.466,579.483 225.48,576.576C227.294,574.453 229.301,568.697 232.056,571.241ZM249.432,571.79C244.679,571.949 244.365,572.6 246.618,577.722C248.456,581.901 249.73,582.274 252.894,579.532C257.293,575.719 255.448,571.588 249.432,571.79ZM797.227,575.008L798.352,593.289C678.383,652.795 633.46,793.284 632.81,793.279L624.104,777.072C679.151,641.42 752.367,602.142 797.227,575.008ZM231.924,596.628C239.071,596.479 241.152,595.992 241.118,598.639C241.199,605.758 234.545,615.864 226.412,619.676C220.941,622.243 220.818,622.303 220.198,615.855C219.725,610.894 218.106,604.508 215.531,599.424C214.728,597.538 211.624,593.215 215.523,594.445C219.421,595.675 227.468,596.721 231.924,596.628ZM247.948,594.975C249.615,594.975 250.969,596.323 250.965,597.992C250.968,599.661 249.618,601.009 247.951,601.008C246.277,601.008 244.93,599.661 244.934,597.992C244.931,596.322 246.281,594.975 247.948,594.975ZM209.724,599.142C211.018,599.104 212.252,601.765 213.722,605.678C216.925,614.187 217.912,618.801 216.963,620.803C215.499,623.887 195.812,621.896 192.467,618.449C191.828,618.926 206.945,600.852 209.724,599.142ZM223.899,601.254C221.076,601.447 222.572,603.146 224.661,608.072C226.113,611.482 228.073,612.031 230.316,609.64C233.315,606.443 233.72,603.903 231.826,602.538C229.045,601.422 226.995,601.269 223.899,601.254ZM798.066,619.747L798.17,625.87C793.496,624.477 790.602,622.498 785.278,620.726C782.008,619.63 780.078,618.85 782.964,615.411C787.482,610.024 792.33,606.656 797.834,603.318L797.866,610.255C789.063,614.156 789.92,617.757 798.066,619.747ZM451.286,613.522L484.429,613.522L484.429,635.403L510.35,635.404L508.339,660.342L484.427,660.342L484.427,682.224L451.284,682.224L451.284,660.342L427.609,660.342L429.523,635.404L451.286,635.404L451.286,613.522ZM526.138,613.597C509.357,696.759 524.753,785.051 550.647,856.982L537.581,858.418C517.393,800.897 501.35,719 517.673,613.644C517.673,613.644 523.519,613.539 526.138,613.597ZM772.148,615.212C773.815,615.211 775.162,616.559 775.158,618.228C775.161,619.897 773.818,621.245 772.144,621.245C770.477,621.245 769.13,619.898 769.127,618.228C769.131,616.559 770.474,615.212 772.148,615.212ZM189.086,622.19C190.188,622.157 193.554,623.611 196.546,624.443C201.048,625.693 204.592,626.234 208.697,626.313C216.934,626.472 218.01,626.397 214.466,633.171C211.915,638.05 206.162,644.5 202.137,646.465C196.444,649.507 194.257,649.095 194.6,643.488C194.635,639.687 192.988,633.077 190.838,628.365C189.164,624.7 187.257,622.245 189.086,622.19ZM223.939,624.861C225.613,624.861 226.98,626.209 226.982,627.878C226.979,629.547 225.609,630.914 223.942,630.915C222.275,630.915 220.928,629.547 220.925,627.878C220.923,626.209 222.272,624.861 223.939,624.861ZM781.62,624.463C783.951,624.413 787.962,625.845 791.612,627.62C801.3,632.328 801.043,633.409 787.915,642.724C778.383,649.958 776.123,650.768 775.783,639.366C775.444,629.756 776.482,624.573 781.62,624.463ZM184.119,627.218C187.967,627.274 192.222,647.295 188.766,649.079C183.381,651.858 166.716,646.444 166.783,641.879C166.803,640.395 182.42,627.193 184.119,627.218ZM770.032,626.393C772.332,626.292 772.635,628.095 772.426,634.478C772.315,637.858 772.893,643.372 773.131,645.942C773.623,651.278 773.159,651.646 768.946,649.261C766.251,647.731 760.766,645.229 754.827,644.715C749.968,644.295 749.611,642.294 751.116,639.088C755.412,631.983 763.192,626.997 770.032,626.393ZM198.395,629.41C195.042,629.386 195.873,631.17 197.954,636.188C199.43,639.743 201.985,640.082 204.614,637.053C208.293,632.81 207.567,630.566 202.219,629.752C201.089,629.581 199.174,629.416 198.395,629.41ZM765.589,634.177C764.19,634.307 762.284,635.41 761.366,636.007C758.209,637.984 756.929,639.407 761.504,640.974C765.579,642.369 767.744,642.976 767.42,639.466C767.226,637.352 767.389,634.283 765.589,634.177ZM454.5,636.771L454.501,658.572L480.885,658.572L480.884,636.771L454.5,636.771ZM742.015,638.662C743.689,638.662 745.036,640.01 745.033,641.679C745.035,643.348 743.686,644.695 742.018,644.695C740.351,644.695 739.004,643.347 739.001,641.678C738.999,640.009 740.348,638.662 742.015,638.662ZM248.076,642.061L331.317,748.9L325.786,762.835L240.05,650.045L248.076,642.061ZM798.595,641.558L798.773,655.52C789.37,662.401 729.652,705.677 698.751,778.518L682.576,785.403C705.349,722.715 754.044,669.019 798.595,641.558ZM165.352,647.471C170.775,649.119 175.948,652.887 181.06,653.564C186.943,654.28 188.971,653.906 187.379,656.943C183.809,663.744 177.079,670.867 169.983,673.193C164.901,674.858 162.505,674.236 163.301,671.082C164.801,665.177 165.054,660.331 164.853,654.953C165.658,652.021 163.149,647.913 165.352,647.471ZM158.996,648.718C162.452,651.672 161.769,670.341 157.913,674.36C155.9,676.461 150.051,674.543 141.281,669.573C135.545,666.325 134.48,664.343 137.341,662.353C142.188,659.41 156.389,648.019 158.996,648.718ZM753.7,649.12C755.497,649.081 757.725,649.392 760.398,650.005C770.772,652.335 773.086,654.704 764.24,661.73C760.969,664.327 757.507,667.554 756.501,668.789C751.738,674.623 748.427,670.392 747.39,659.799C746.659,652.384 747.776,648.162 753.7,649.12ZM740.712,650.125C742.399,650.125 743.478,651.005 743.447,653.102C743.406,655.781 745.326,667.368 746.402,670.559C748.27,675.986 746.916,677.211 742.42,674.843C739.149,673.077 730.476,671.739 725.79,672.107C720.453,672.527 720.607,671.099 722.167,666.617C724.933,658.675 735.653,650.129 740.712,650.125ZM170.425,653.987C168.398,653.981 168.311,656.714 169.7,662.977C170.141,664.969 171.856,664.846 175.088,662.575C178.914,659.887 178.757,658.199 174.445,655.616C172.668,654.551 171.346,653.99 170.425,653.987ZM194.017,654.67C195.684,654.671 197.031,656.018 197.027,657.688C197.03,659.357 195.68,660.704 194.013,660.704C192.346,660.704 190.999,659.356 190.996,657.687C191,656.018 192.343,654.67 194.017,654.67ZM730.854,666.396C732.303,667.807 737.659,667.749 738.576,666.898C739.995,665.595 739.336,659.541 738.158,658.814C735.138,657.788 729.052,664.163 730.854,666.396ZM231.242,677.92C233.059,686.552 245.201,686.075 243.828,677.075C243.032,671.82 242.844,671.93 245.481,672.047C258.015,672.661 255.839,692.419 241.396,690.892C238.383,691.252 237.982,692.486 240.531,693.547C243.068,694.601 252.776,697.091 254.269,697.087C269.982,697.032 292.657,721.196 292.099,742.64C291.735,756.666 296.488,766.759 301.353,767.9C305.219,768.805 310.829,765.293 310.338,761.004C309.67,755.077 314.485,756.926 317.261,761.184C321.489,767.059 316.029,775.542 305.955,774.875C301.666,775.714 309.104,778.439 314.618,780.03C319.614,780.317 315.392,786.474 314.465,787.571C311.64,790.849 302.376,788.342 295.116,782.479C286.2,775.28 282.373,765.634 281.317,746.679C280.643,734.495 279.734,732.02 276.189,737.049C269.819,748.253 254.564,742.77 252.661,730.937C251.594,724.669 257.113,720.144 258.892,725.827C263.621,737.632 275.199,734.798 273.314,723.069C272.073,715.334 264.334,711.067 249.039,706.76C230.657,701.582 225.188,695.29 221.604,680.212C220.023,673.538 220.271,670.046 223.802,666.556C225.538,664.832 227.764,663.077 227.764,663.077C227.764,663.077 230.218,673.221 231.242,677.92ZM712.121,668.351C713.788,668.351 715.135,669.699 715.138,671.368C715.14,673.037 713.791,674.384 712.124,674.384C710.45,674.384 709.103,673.036 709.106,671.367C709.104,669.698 710.454,668.35 712.121,668.351ZM135.105,671.217C140.58,673.2 145.285,676.136 150.928,678.056C154.588,679.301 153.59,682.232 149.796,686.395C145.569,691.388 141.413,693.844 135.551,696.626L135.61,688.186C142.735,685.699 147.268,679.763 135.303,677.861L135.105,671.217ZM726.367,675.928C728.439,675.947 731.373,676.022 734.817,676.733C743.539,678.535 744.562,679.311 739.323,685.442C737.378,687.714 734.492,691.141 732.906,693.064C727.753,700.249 724.97,697.784 722.572,688.498C719.589,678.803 718.908,675.084 726.367,675.928ZM162.459,679.387C164.126,679.387 165.473,680.735 165.476,682.404C165.479,684.073 164.129,685.421 162.462,685.421C160.788,685.421 159.441,684.073 159.445,682.404C159.442,680.735 160.792,679.388 162.459,679.387ZM717.571,685.956C718.405,689.02 719.669,692.92 720.63,695.684C725.364,706.124 722.371,702.087 713.884,701.166C708.186,700.547 699.106,701.498 696.862,699.922C695.887,698.651 696.789,695.298 698.619,691.515C701.192,686.191 705.874,681.653 709.36,679.594C718.206,675.51 716.144,680.702 717.571,685.956ZM207.923,682.243L303.002,807.953L295.547,818.584L197.75,689.329L207.923,682.243ZM803.803,682.713C754.382,718.43 735.401,761.779 731.542,767.44L804.005,739.489L803.803,682.713ZM709.439,686.809C706.729,687.554 702.836,692.579 704.507,694.552C705.512,695.581 709.494,695.716 711.405,695.015C714.353,693.935 712.342,686.794 709.439,686.809ZM292.764,822.764L272.507,848.289L166.985,711.787L193.612,692.561L292.764,822.764ZM798.536,690.098L799.279,737.012L737.301,762.856C758.06,727.793 778.383,706.118 798.536,690.098ZM374.741,694.076L399.564,726.392L369.233,725.708L374.741,694.076ZM688.628,696.721C690.301,696.721 691.649,698.069 691.645,699.738C691.648,701.407 690.298,702.755 688.631,702.754C686.964,702.754 685.616,701.406 685.614,699.737C685.611,698.068 686.961,696.721 688.628,696.721ZM706.825,704.367C718.176,704.523 721.963,705.138 718.666,710.717C714.257,716.163 711.655,721.337 706.848,726.374C704.076,729.197 700.606,723.375 697.713,714.061C695.374,706.539 696.553,704.643 701.002,704.581C705.445,704.518 706.201,704.358 706.825,704.367ZM693.707,714.543C694.64,717.515 696.813,722.401 698.537,725.384C700.261,728.364 702.198,731.681 702.078,732.258C701.789,733.656 700.461,733.768 697.475,732.64C691,729.726 675.8,732.805 675.394,731.369C673.14,728.149 676.526,719.374 682.909,713.296C686.032,710.327 688.885,708.396 690.534,708.367C692.182,708.338 692.483,710.623 693.707,714.543ZM163.34,712.233L270.716,851.681L263.283,860.722L154.706,718.588C154.706,718.588 137.558,726.982 132.514,729.789L133.198,801.912L130.259,801.77L130.699,1167.07L190.618,1107.33L189.836,859.459C202.55,871.417 213.428,884.174 227.981,895.894L252.895,895.697C317.947,829.536 353.576,772.916 361.39,671.52C366.623,603.686 344.087,518.387 284.313,435.719L269.713,444.583L298.555,488.045L237.462,515.119C213.134,566.414 184.285,613.756 131.528,640.867L131.238,707.259L130.312,708.632L131.013,729.479L163.34,712.233ZM688.328,716.995C685.473,717.209 681.013,723.359 683.055,725.462C685.468,726.604 689.177,726.524 690.732,724.464C691.791,722.446 691.519,718.175 688.328,716.995ZM368.013,731.358L399.55,731.534L391.304,758.59L360.591,758.01L368.013,731.358ZM667.569,731.237C669.236,731.234 670.584,732.584 670.586,734.251C670.583,735.925 669.239,737.272 667.566,737.268C665.899,737.271 664.551,735.921 664.549,734.254C664.552,732.587 665.896,731.233 667.569,731.237ZM506.913,732.058L510.985,767.191C476.592,779.696 439.508,800.913 407.074,839.92C401.532,839.559 357.305,840.304 357.305,840.304C358.409,840.465 398.28,765.221 402.873,732.565L506.913,732.058ZM382.014,735.331L367.556,745.266L378.858,757.315L393.822,747.177L382.014,735.331ZM682.968,735.48C686.045,735.464 690.165,735.839 693.469,736.425C698.8,737.459 699.583,737.557 697.787,741.96C695.393,747.794 689.987,758.319 688.62,759.158C683.733,762.181 672.877,740.471 676.58,736.719C677.559,735.951 679.634,735.499 682.968,735.48ZM669.14,742.156C670.539,742.032 672.403,744.749 672.954,747.089C673.624,749.933 678.544,757.101 681.651,760.535C685.546,764.852 685.342,765.46 679.754,765.902C673.102,766.434 666.603,767.742 662.859,769.105C657.054,771.21 656.264,770.746 657.008,763.955C658.128,753.741 664.95,742.52 669.14,742.156ZM664.043,763.294C664.774,765.27 673.778,761.638 674.277,759.265C674.193,758.202 670.659,752.037 668.533,751.755C664.931,752.316 663.422,760.496 664.043,763.294ZM359.757,761.909L389.56,762.19L379.787,786.741L350.321,786.665L359.757,761.909ZM373.1,765.195L358.818,774.231L369.938,784.99L383.615,775.557L373.1,765.195ZM676.192,769.649C678.723,769.623 681.402,769.87 681.965,770.794C683.548,773.403 677.098,787.971 677.098,787.971L666.591,792.137C664.33,787.489 660.47,782.657 659.535,777.62C659.162,775.419 660.277,774.614 662.708,773.254C666.329,771.22 671.976,769.691 676.192,769.649ZM648.049,770.839C649.723,770.843 651.07,772.186 651.066,773.86C651.069,775.527 649.719,776.874 648.052,776.877C646.385,776.873 645.038,775.523 645.035,773.856C645.032,772.189 646.382,770.842 648.049,770.839ZM512.136,771.26C512.136,771.26 518.574,807.651 518.922,803.641C469.215,822.357 440.142,849.985 426.368,876.931L333.107,876.862L353.921,844.563L409.134,844.289C435.819,811.906 468.742,786.077 512.136,771.26ZM500.193,779.822L495.589,794.526L509.528,803.417L514.776,787.63L500.193,779.822ZM652.964,780.111C654.144,779.997 655.313,781.993 657.709,786.245C659.482,789.386 661.809,793.958 661.809,793.958L657.642,795.507C654.279,784.016 651.191,788.287 650.832,798.431L645.115,800.712C645.115,800.712 645.738,790.932 648.999,785.216C650.879,781.934 651.92,780.208 652.964,780.111ZM348.972,790.162L377.873,790.524L365.787,815.562L336.405,814.761L348.972,790.162ZM475.033,792.175L472.741,810.756L488.312,814.056L490.438,796.399L475.033,792.175ZM361.265,792.394L346.987,801.63L356.353,813.954L370.092,804.722L361.265,792.394ZM452.709,808.664L449.755,825.779L464.352,829.1L467.675,811.883L452.709,808.664ZM135.391,809.675L171.93,845.889L173.94,1098.6L137.605,1135.04L135.391,809.675ZM334.207,818.925C334.075,819.129 363.357,819.761 363.357,819.761L351.636,840.912L341.628,840.465L354.802,831.473L346.355,820.671L332.817,829.502L340.361,840.423L320.588,840.003L334.207,818.925ZM522.706,825.18L532.633,857.971L520.701,860.039L511.738,829.19C515.395,827.298 519.049,826.365 522.706,825.18ZM428.958,827.227L429.157,846.901L445.091,848.245L445.712,829.801L428.958,827.227ZM508.139,830.369L517.218,861.522L509.649,863.673L498.797,834.105C501.77,832.348 504.869,831.064 508.139,830.369ZM494.321,836.8L505.987,867.297C489.87,873.836 473.158,887.817 460.579,901.776C451.257,894.93 445.766,894.209 440.013,892.659C455.88,863.104 474.615,847.588 494.321,836.8ZM318.251,844.442L348.899,845.369L327.578,877.209L292.911,877.163L318.251,844.442ZM409.49,845.634L407.501,864.252L423.911,873.946L426.404,854.821L409.49,845.634ZM389.722,848.246L378.053,860.572L390.445,874.714L401.809,859.949L389.722,848.246ZM363.635,848.886L349.778,861.599L360.801,875.98L373.473,861.521L363.635,848.886ZM187.084,860.749L188.443,1107.62L137.527,1156.96L137.15,1143.68L177.623,1101.42C177.668,1017.91 177.404,934.408 177.127,850.899L187.084,860.749ZM322.545,852.77L308.49,871.935L325.16,871.978L337.248,853.415L322.545,852.77ZM235.845,972.238C230.305,992.184 204.742,1013.82 204.285,1013.45C216.942,1031.59 216.518,1057.44 205.357,1070.18C205.407,1069.89 225.695,1086.74 228.546,1095.48C230.152,1098.96 230.798,1103.2 232.829,1106.66C233.366,1107.58 235.083,1109.85 235.083,1109.85C284.645,1059.6 261.044,1000.7 235.845,972.238ZM236.59,977.445C284.706,1037.15 252.987,1091.79 236.195,1107.04L232.987,1101.74C268.749,1060.18 253.59,1009.13 232.756,984.96L236.59,977.445ZM231.383,989.068C231.701,990.04 233.576,992.847 232.182,992.668L229.77,992.188L231.383,989.068ZM231.021,995.724C232.064,995.723 232.94,996.048 233.41,996.77C234.392,998.403 229.419,1012.13 226.347,1008.93C225.42,1007.12 224.334,1005.54 223.479,1003.67C222.476,1001.42 223.132,1000.35 225.43,998.116C227.009,996.58 229.277,995.725 231.021,995.724ZM237.939,999.444C240.369,999.635 243.832,1007.29 244.154,1012.76C244.305,1013.33 235.938,1011.47 233.717,1008.92C233.982,1006.68 236.084,1000.98 237.939,999.444ZM219.117,1005.7C233.601,1034.82 232.697,1057.58 219.937,1078.5L209.944,1069.95C216.668,1054.04 219.993,1037.06 208.679,1015.44L219.117,1005.7ZM228.889,1012.98C229.888,1012.89 232.982,1013.35 235.728,1014.23C245.419,1017.33 245.783,1023.67 236.451,1028.33C232.581,1030.25 231.379,1029.4 229.15,1019.7C228.05,1014.9 227.219,1013.13 228.889,1012.98ZM247.609,1024.14C249.482,1024.13 250.341,1027.67 250.568,1033.76C250.781,1039.54 249.557,1040 244.898,1035.87C239.86,1031.4 238.997,1030.35 243.612,1026.67C244.957,1025.61 246.759,1024.15 247.609,1024.14ZM234.4,1033.7C235.315,1033.62 237.995,1035.32 240.612,1037.31C247.243,1042.37 245.772,1045.83 238.243,1048.28C233.018,1049.97 233.278,1050.19 233.412,1041.16C233.478,1036.69 233.214,1033.8 234.4,1033.7ZM322.168,1041.91C314.073,1043.97 310.676,1051.19 313.361,1057.68C314.583,1060.63 316.437,1060.66 314.261,1062.47C311.83,1065.27 310.538,1071.76 313.212,1074.13C316.367,1075.93 317.175,1072.81 313.855,1078.91L252.899,1190.89L618.796,1190.2L574.819,1107.84C574.917,1107.72 578.335,1094.25 571.296,1092.63C569.039,1092.11 567.744,1090 567.29,1088C567.861,1082.27 565.259,1079.83 563.065,1076.87C528.284,1081.78 498.074,1079.34 473.115,1073.72C437.16,1065.63 411.467,1051.64 394.758,1047.24C371.718,1041.17 343.913,1038.54 322.168,1041.91ZM341.877,1042.69C370.227,1042.52 401.962,1051.19 424.172,1060.81C447.215,1070.32 471.627,1077.42 496.293,1081.06C516.652,1083.62 536.951,1082.34 556.423,1080.79C558.547,1080.47 560.756,1080.76 562.342,1082.45C566.376,1086.93 563.629,1089.74 553.533,1090.67C537.321,1092.01 517.222,1091.44 499.388,1088.76C471.156,1085.52 441.228,1076.98 415.406,1066.27C383.133,1054.17 353.493,1050.11 330.071,1053.68C317.207,1055.65 315.316,1055.95 315.371,1052.5C315.47,1045.76 321.047,1042.68 341.877,1042.69ZM248.978,1062.23C247.736,1065.09 238.916,1055.74 239.007,1053.1C239.189,1051.94 246.332,1047.28 249.165,1045.39C250.529,1044.34 250.442,1044.88 250.459,1046.12C250.513,1049.64 250.23,1058.74 248.978,1062.23ZM235.402,1055.34C239.473,1055.88 246.16,1066.87 240.273,1068.57C235.052,1070.08 230.31,1071.05 229.676,1067.55C232.358,1058.95 233.37,1055.56 234.919,1055.36C235.08,1055.34 235.247,1055.33 235.402,1055.34ZM472.011,1092.85C497.982,1097.34 532.075,1100.03 554.357,1098.29C567.131,1097 569.821,1097.41 569.74,1102.74C569.694,1106.08 570.056,1106 553.572,1105.98C539.871,1106.89 527.538,1105.42 514.271,1104.73C486.83,1103.38 461.899,1098.67 438.855,1090.67C413.29,1084.04 391.147,1071.3 366.129,1068.67C343.189,1066.42 322.552,1070.48 318.229,1072.89C316.781,1072.87 316.027,1070.73 316.114,1068.75C316.193,1066.82 316.915,1065.27 318.527,1064.04C384.281,1047.45 419.488,1082.98 472.011,1092.85ZM243.991,1070.88C246.185,1070.91 245.484,1074.15 241.9,1081.02C238.849,1086.86 237.652,1086.83 235.924,1080.84C234.086,1074.43 234.26,1073.73 237.919,1072.79C240.072,1072.28 241.888,1071.15 243.991,1070.88ZM228.646,1074.14C231.214,1074.18 234.864,1085.81 232.991,1088C231.512,1089.73 226.165,1088.55 224.604,1086.51C222.094,1083.22 225.306,1074.09 228.646,1074.14ZM343.596,1077.28C353.8,1077.18 363.964,1078.27 373.307,1079.88C367.93,1081.87 362.574,1083.71 356.988,1086.93C353.127,1083.62 348.742,1080.38 343.596,1077.28ZM356.851,1091.4C392.898,1071.3 408.114,1099.05 413.326,1103.53C444.841,1096.55 451.011,1099.98 468.589,1118.98C500.144,1103.55 515.438,1116.66 528.61,1124.96C544.068,1110.53 563.656,1110.12 573.865,1117.37C575.778,1120.57 578.43,1124.62 578.646,1125.83C578.816,1126.77 577.375,1125.67 573.821,1123.13C555.292,1109.87 524.536,1126.39 532.756,1143.87C534.971,1148.58 534.613,1150.61 531.31,1152.5C526.606,1155.67 520.835,1150.4 524.11,1145.02C529.573,1136.02 525.457,1128.5 512.16,1121.54C493.421,1111.74 462.801,1122.72 469.105,1137.17C473.137,1141.79 469.397,1145.04 464.077,1144.88C458.049,1144.69 456.009,1140.65 459.87,1136.34C464.692,1130.84 463.426,1125.27 457.809,1118.91C440.981,1094.94 406.931,1104.44 411.439,1125.45C413.42,1130.67 407.789,1132.77 401.947,1130.46C398.233,1128.98 398.785,1123.23 402.857,1121.2C407.538,1120.73 408.198,1113.95 407.638,1109.6C406.829,1103.27 397.49,1097.03 388.254,1093.72C381.563,1091.32 375.355,1090.81 370.455,1091.25C360.107,1092.2 354.332,1099.23 356.032,1109.76C357.036,1115.97 355.3,1122.41 348.009,1119C344.019,1117.13 345.019,1112.61 349.097,1108.45C363.421,1094.46 334.575,1077.44 317.157,1089.17C314.204,1091.59 312.054,1092.01 312.054,1092.01C322.974,1064.82 357.167,1090.29 356.851,1091.4ZM404.323,1087.74L426.089,1095.94C421.07,1096.92 417.537,1098.34 413.978,1099.75L404.323,1087.74ZM347.478,1096.58C327.392,1092.77 326.3,1115.22 339.393,1118.88C321.384,1143.62 368.544,1153.23 359.891,1122.69C383.785,1127 379.463,1099.81 361.693,1100.06C365.85,1089.92 398.651,1097.6 397.238,1105.13C375.06,1107.48 383.921,1127.68 393.518,1127.71C370.325,1149.66 416.731,1169.9 415.5,1136.8C434.117,1140.72 436.304,1116.01 418.406,1114.38C424.96,1105.16 448.371,1110.97 454.86,1121.52C436.388,1123.97 437.544,1140.19 452,1142.82C433.674,1166.14 478.766,1174.76 474.082,1147.65C490.244,1153.2 499.108,1131.64 478.175,1125.48C499.622,1112.71 522.903,1131.75 520.385,1132.13C495.913,1130.69 500.784,1155.21 518.495,1153.88C507.226,1179.34 551.872,1180.76 540.552,1154.35C560.629,1154.72 558.87,1131.45 539.632,1129.89C551.748,1121.06 565.407,1120.29 574.196,1128.55C555.882,1133.37 563.494,1154.65 581.911,1148.76C583.618,1166.57 598.096,1162.79 598.421,1162.25L611.376,1186.42L260.299,1186.99L290.267,1131.68C307.977,1132.6 307.345,1115.55 306.567,1115.13C318.346,1123.54 331.009,1102.64 313.78,1096.64C327.854,1081.91 348.726,1095.52 347.478,1096.58ZM233.189,1095.04C232.461,1095.79 232.266,1096.24 231.063,1095.12C227.996,1091.62 236.324,1091.32 233.189,1095.04ZM305.786,1104.3C307.334,1105.57 306.269,1109.03 305.012,1110.22C301.85,1113.61 300.78,1113.34 303.567,1107.49C304.39,1105.72 305.169,1104.28 305.786,1104.3ZM459.597,1105.87L477.851,1110.28L469.184,1115.17C465.982,1111.69 462.901,1108.69 459.597,1105.87ZM516.645,1113.21L536.499,1114.49C533.874,1116.27 531.302,1117.93 528.09,1121.19C525.588,1118.53 520.859,1115.87 516.645,1113.21ZM582.779,1133.46C583.884,1135.77 588.268,1143.77 587.852,1143.98C581.435,1145.1 579.711,1135.54 582.779,1133.46Z" style="fill:rgb(16,15,8);fill-rule:nonzero;"/>
    </g>
</svg>
