<?xml version="1.0" encoding="UTF-8" standalone="no"?>
<!DOCTYPE svg PUBLIC "-//W3C//DTD SVG 1.1//EN" "http://www.w3.org/Graphics/SVG/1.1/DTD/svg11.dtd">
<svg width="100%" height="100%" viewBox="0 0 934 1300" version="1.1" xmlns="http://www.w3.org/2000/svg" xmlns:xlink="http://www.w3.org/1999/xlink" xml:space="preserve" xmlns:serif="http://www.serif.com/" style="fill-rule:evenodd;clip-rule:evenodd;stroke-linejoin:round;stroke-miterlimit:2;">
    <g id="QD">
        <path d="M593.211,110.485C593.211,110.485 698.6,262.818 734.347,289.854C736.975,291.088 781.037,282.671 781.037,282.671C758.452,228.6 743.924,172.658 758.581,109.941L593.211,110.485ZM651.775,351.405C579.114,371.912 506.595,391.197 427.829,357.769L341.811,440.875C341.096,443.018 453.279,491.343 455.044,486.054L427.429,574.195L491.094,588.209L520.318,494.449C520.318,494.449 608.203,486.018 648.993,472.022C680.008,461.381 712.085,453.664 739.776,430.546C682.577,396.166 651.711,350.996 651.775,351.405ZM214.765,375.979C187.229,359.081 165.706,393.86 185.87,411.226C183.5,421.371 182.695,436.47 192.509,443.103C201.531,448.805 218.352,442.892 220.78,442.954C220.954,442.959 221.218,461.215 219.814,461.168C217.206,461.08 207.36,452.692 201.28,450.872C180.756,444.718 151.893,441.682 152.402,442.742C153.258,444.518 147.288,448.727 170.189,463.108C178.696,468.449 205.576,462.433 226.982,469.185C240.023,473.299 252.844,480.139 259.928,476.732C268.88,472.99 279.319,461.178 282.687,451.556C283.64,441.047 228.978,463.784 232.301,464.153L232.134,442.972C254.158,445.396 274.038,429.435 252.387,402.069C268.513,386.046 245.96,347.858 214.765,375.979ZM306.527,472.856C252.355,527.46 141.634,629.936 141.634,629.936L142.819,706.42L250.99,803.212C259.561,700.457 317.952,604.56 373.547,556.586C378.654,541.996 318.299,477.976 306.527,472.856ZM692.462,491.746C684.303,554.927 676.884,641.088 569.699,736.862C588.272,768.494 611.913,800.687 645.934,816.053C648.349,821.488 744.278,716.795 803.293,667.292L802.977,600.242L692.462,491.746ZM209.375,505.309C209.15,506.685 205.189,523.281 204.172,522.841C204.249,523.745 215.145,518.794 216.382,514.243C217.464,510.253 219.956,504.847 220.123,504.083C217.663,487 213.02,499.133 209.375,505.309ZM169.248,549.479C165.352,558.882 161.707,576.154 163.053,587.397C182.244,597.002 187.46,557.045 182.296,553.226C179.204,551.92 171.882,549.387 169.248,549.479ZM761.897,732.682C760.12,740.648 760.5,743.012 764.042,744.57C770.256,747.294 773.045,744.003 778.036,731.027C781.004,723.299 783.651,711.682 781.255,707.058C769.483,698.847 763.262,726.661 761.897,732.682ZM471.678,713.961C467.91,713.994 464.285,714.303 460.93,715.069C429.252,722.314 431.654,777.658 426.277,799.734C326.774,813.928 300.454,820.689 273.188,831.888C230.794,849.308 217.374,859.934 206.155,868.699C213.201,867.874 289.268,938.803 293.19,948.817C288.354,935.087 440.348,901.671 521.303,935.229C531.234,938.79 606.87,861.834 604.481,853.243C614.295,836.055 509.145,816.748 495.885,806.013C485.008,747.449 569.345,715.372 510.942,717.078C500.309,717.387 485.124,713.852 471.678,713.961ZM736.318,779.751C734.444,781.96 732.557,783.132 730.116,785.727L724.565,793.049L728.609,799.592L738.971,788.162L736.318,779.751ZM662.124,853.391C673.04,848.465 711.789,829.679 713.456,834.026L712.632,852.831C706.707,850.892 668.442,857.216 690.569,896.712C676.633,928.087 707.693,944.264 729.447,923.521C775.041,939.164 768.936,893.544 759.527,886.17C766.94,874.656 757.628,850.133 752.984,850.049C752.984,850.049 792.77,859.02 788.88,851.936C787.103,848.703 784.888,843.126 776.039,837.221C765.851,830.42 747.948,832.887 733.459,829.86C717.971,826.614 707.995,821.076 694.974,820.297C675.326,822.087 656.985,839.333 662.124,853.391ZM218.732,1001.46L163.91,1016.11C163.91,1016.11 181.645,1057.27 187.782,1093.95C195.285,1138.84 189.289,1187.63 189.289,1187.63L348.393,1188.44L218.732,1001.46Z" style="fill:rgb(226,207,0);fill-rule:nonzero;"/>
        <path d="M865.928,1255.46C844.986,1248.19 844.561,1235.01 843.84,1218.21C842.603,1192.73 842.822,1165.91 846.48,1145.15C847.884,1138.84 848.631,1135.61 842.333,1133.38C838.855,1132.18 835.378,1132.66 831.906,1132.13L831.906,1116.42C838.507,1116.07 844.638,1116.09 850.209,1119.38C852.72,1120.91 855.515,1122.6 855.515,1122.6C863.719,1114.84 885.28,1113.68 895.52,1123.27C902.314,1130.12 904.51,1135.85 904.947,1151.27C905.276,1162.65 904.947,1163.42 904.947,1163.42L916.771,1163.35L916.771,1178.64L904.947,1178.64C904.947,1178.64 905.212,1186.24 904.947,1202.7C904.748,1215.52 904.497,1223.89 903.602,1229.99C899.577,1251.27 880.637,1260.26 865.928,1255.46ZM888.603,1229.15C892.718,1218.18 890.999,1175.78 890.999,1175.78C873.36,1169 865.877,1158.38 858.696,1150.82C858.696,1150.82 855.702,1197.88 859.276,1223.23C862.528,1244.26 881.506,1247.39 888.603,1229.15ZM888.7,1157.84C889.666,1157.98 890.76,1158.05 890.909,1157.64C892.254,1153.83 889.91,1137.89 885.924,1134.69C875.195,1126.08 865.387,1134.69 865.703,1135.08C870.765,1141.96 876.709,1149.52 884.379,1155.49C885.828,1156.69 887.064,1157.6 888.7,1157.84ZM361.598,1187.88C291.788,1088.24 227.102,993.459 141.221,888.998C141.221,888.998 141.292,848.624 141.593,808.581L405.429,1186.89L361.598,1187.88ZM605.989,1057.69C640.578,1020.16 666.775,980.152 690.03,939.284C716.536,986.354 747.216,1024.7 781.089,1056.36C747.879,1089.93 717.747,1128.35 693.893,1176.63C674.503,1139.73 649.355,1101.24 605.989,1057.69ZM835.551,1045.62C850.305,1030.16 863.005,1012.85 874.938,994.574C888.197,1013.38 896.189,1027.44 914.002,1047.28C898.707,1063.48 885.84,1079.76 875.363,1097.48C862.741,1077.37 849.584,1058.67 835.551,1045.62ZM502.925,1027C500.678,1008.08 496.82,985.431 491.282,965.938L539.452,920.519C534.255,961.105 526.276,992.244 502.925,1027ZM733.157,883.844C743.938,898.163 725.745,906.113 718.874,899.74C704.944,886.82 725.346,873.471 733.157,883.844ZM255.509,793.668C247.515,798.791 269.873,668.803 331.245,601.624C368.574,708.548 302.712,768.497 255.509,793.668ZM558.283,793.187L517.525,782.186L537.823,725.182C537.823,725.182 576.089,734.149 572.824,745.985C562.198,784.519 558.283,793.187 558.283,793.187ZM369.594,771.275C380.632,753.13 389.011,733.124 396.725,712.653L454.682,704.621L421.091,769.768L369.594,771.275ZM615.256,691.282C583.707,628.47 620.872,529.053 689.508,501.688C687.035,565.386 667.277,629.906 615.256,691.282ZM403.229,673.435C404.618,651.125 402.062,627.746 398.976,607.027L542.447,626.15L547.464,686.286L403.229,673.435ZM508.219,577.895C513.081,558.766 517.402,542.846 526.792,527.342C537.237,527.676 579.605,520.708 574.202,528.939C562.687,543.674 557.175,567.593 549.634,582.637C541.719,581.799 505.849,587.975 508.219,577.895ZM413.188,566.937C398.678,561.816 378.838,560.386 371.122,549.165L386.216,501.337L430.917,515.051L413.188,566.937ZM538.635,110.592L573.667,110.258C573.667,110.258 741.993,325.636 805.084,409.45C802.985,417.982 805.786,490.28 805.786,490.28C716.427,364.524 538.635,110.592 538.635,110.592ZM215.846,411.105C206.434,401.001 221.402,392.048 227.627,401.076C233.108,409.028 220.809,416.434 215.846,411.105ZM404.717,375.793C405.261,325.882 440.654,266.648 440.287,268.162C439.877,268.065 445.332,316.954 452.133,332.339C450.298,335.05 406.391,378.921 404.717,375.793ZM253.953,359.229C226.512,306.771 193.538,267.018 164.82,239.173C200.587,205.344 227.404,163.558 254.919,122.393C277.633,165.573 307.162,205.036 340.279,242.541C307.06,275.163 275.671,321.38 253.953,359.229ZM33.223,252.738C49.295,236.706 73.045,200.239 72.813,200.193C84.114,218.652 96.027,237.759 112.429,253.014C112.256,252.849 87.008,279.985 73.97,305.498C62.337,284.237 46.979,265.729 33.223,252.738ZM30.941,136.708L30.941,121.252L42.501,121.252C42.501,121.252 42.369,122.509 42.461,101.434C42.589,71.953 44.062,62.897 49.956,55.37C65.831,35.09 94.958,41.31 102.609,66.613C103.191,68.537 104.505,73.412 104.636,79.865C104.978,96.64 105.006,124.479 104.454,141.865C104.731,148.678 102.301,157.563 100.552,159.083C101.395,165.274 111.138,166.52 117.245,166.039L117.245,182.211C117.275,182.121 111.047,182.803 103.708,182.211C100.617,181.962 93.477,176.075 93.477,176.075C93.477,176.075 82.188,183.837 72.042,183.628C38.844,182.941 42.53,141.507 42.627,136.771L30.941,136.708ZM57.533,140.786C57.533,140.786 57.56,146.606 57.914,150.498C59.085,163.343 67.466,170.001 75.823,167.715C79.992,166.419 82.439,163.907 82.439,163.907C75.333,153.358 66.881,144.495 57.533,140.786ZM88.382,76.486C84.834,57.111 66.587,54.141 59.711,70.536C58.472,73.49 57.438,96.843 57.438,96.843L57.58,124.43C72.384,127.684 80.553,137.182 89.8,147.958C89.8,147.958 91.656,98.376 88.382,76.486Z" style="fill:rgb(212,0,0);fill-rule:nonzero;"/>
        <path d="M134.673,101.455L133.353,1193.45L812.798,1193.58L812.573,103.223L134.673,101.455ZM755.599,110.001C750.074,170.422 749.108,217.772 780.463,280.436C774.796,286.375 732.139,288.059 718.692,295.091C718.447,296.779 722.144,299.698 722.144,299.698C736.209,293.172 791.051,287.218 791.051,287.218C768.086,247.185 749.191,170.183 763.417,111.129L803.003,111.255L802.752,402.21C802.752,402.21 805.862,458.372 807.034,490.014C785.957,462.777 758.008,424.734 739.757,396.495C717.617,365.346 692.965,328.805 667.65,294.523C660.186,283.723 649.547,269.71 640.866,257.092C627.233,237.605 615.963,222.484 601.821,201.508C586.726,179.788 572.256,160.075 554.308,134.855C539.097,113.39 538.388,110.846 538.388,110.846L755.599,110.001ZM495.628,111.129C521.284,155.721 567.22,170.823 578.773,173.83L585.49,183.647C531.337,173.034 502.338,138.269 488.724,116.772C487.662,115.099 487.784,111.255 487.784,111.255L495.628,111.129ZM470.229,111.129C463.132,127.968 453.195,137.643 443.78,147.84L444.109,137.01C444.398,137.689 458.206,122.371 462.958,111.129L470.229,111.129ZM482.651,111.129C482.651,111.129 482.857,114.007 482.001,116.371C476.566,133.927 442.801,167.252 443.774,162.259L443.433,153.662C443.284,154.032 468.793,129.373 475.471,111.129L482.651,111.129ZM458.103,111.129C455.469,116.031 445.654,130.833 444.766,126.732L445.635,111.129L458.103,111.129ZM535.233,111.129C539.49,117.287 543.354,121.79 547.829,128.088C548.66,129.288 549.162,130.708 548.956,131.247C548.274,132.996 546.252,131.698 540.662,126.745C531.498,118.62 525.264,111.129 525.264,111.129L535.233,111.129ZM501.089,111.129L509.383,111.15C526.558,139.671 557.367,154.847 568.031,158.165C570.878,161.301 573.943,167.037 575.134,168.306C546.38,160.517 514.162,136.202 501.089,111.129ZM521.252,111.009C530.403,124.207 544.732,133.459 552.807,139.775C557.148,143.178 562.879,150.127 562.345,151.507C544.365,145.825 523.338,125.896 513.685,111.129L521.252,111.009ZM486.007,119.175L491.004,127.13C478.897,147.093 463.712,165.078 443.465,179.253L443.355,168.827C466.333,152.28 476.263,135.651 486.007,119.175ZM494.114,130.704C508.546,150.149 539.657,180.243 589.547,189.236C589.547,189.236 592.38,191.796 596.508,197.422C601.757,204.56 601.834,204.842 602.53,216.541C602.993,237.95 609.948,267.006 616.858,285.287C616.002,289.831 615.203,292.146 606.632,303.721C570.923,351.952 494.848,397.571 457.368,335.307C444.869,315.359 443.651,277.116 442.859,253.268C442.859,253.268 443.098,251.59 443.188,251.137C444.089,246.808 445.332,247.49 452.094,249.344C458.953,252.288 466.094,249.91 473.352,247.935C481.621,244.597 482.31,247.17 474.337,254.61C471.581,257.182 468.207,261.115 468.561,260.925C468.915,260.736 473.552,258.843 475.6,257.283C481.969,252.434 483.476,254.291 481.119,259.628C471.105,282.263 469.327,283.165 483.411,289.452C486.348,290.762 488.351,292.227 489.999,293.664C499.627,302.727 496.169,297.845 493.477,293.684C489.336,287.171 493.078,283.729 500.071,287.761C504.747,290.457 510.884,292.631 514.226,291.6C520.705,289.491 522.682,282.392 520.763,274.58C519.223,270.26 510.369,262.629 512.41,270.615C517.729,270.376 522.327,277.923 517.704,283.033C514.213,287.739 507.986,285.197 498.442,278.887C493.168,274.922 486.766,276.949 487.011,281.825C487.179,285.099 482.542,284.346 479.528,280.175C477.86,277.858 478.994,271.189 482.136,264.871C501.926,225.085 485.24,186.507 450.967,197.382C447.2,198.578 443.8,199.548 443.8,199.548L443.619,184.328C463.293,170.616 484.165,148.75 494.114,130.704ZM514.123,202.131C508.952,208.369 510.787,213.921 522.128,208.329C531.369,203.777 532.651,203.24 542.716,202.876C557.006,202.36 569.834,206.905 585.702,216.641C596.225,223.094 597.758,223.582 594.898,219.539C586.404,203.279 536.18,178.591 514.123,202.131ZM465.592,203.993C475.51,206.491 485.028,213.042 483.373,215.756C482.774,216.732 482.201,216.918 480.938,216.259C473.681,212.675 462.115,206.815 445.397,213.965C443.555,214.753 442.531,213.53 442.537,211.309C442.557,206.994 449.814,203.549 457.484,203.271C460.215,203.268 463.196,203.408 465.592,203.993ZM523.203,216.607C517.291,219.678 515.263,221.315 512.751,219.942C506.749,216.662 508.018,219.235 511.747,225.838C514.374,230.497 514.348,231.456 513.962,234.31C513.537,237.414 513.601,237.534 516.615,240.851C522.257,248.266 527.872,255.418 536.321,261.042C538.955,262.796 542.471,264.791 542.735,264.799C543.579,264.825 543.257,264.154 541.75,262.686C530.931,252.28 522.398,242.953 533.417,246.915C546.245,251.097 558.449,245.886 568.45,242.485C572.526,241.227 576.815,240.166 577.878,240.167C587.113,240.177 589.296,236.331 583.39,230.467C563.401,208.054 546.818,202.779 523.203,216.607ZM570.633,220.807C574.761,224.623 576.938,226.696 576.525,227.69C576.081,228.756 572.9,226.95 567.574,224.108C556.845,218.39 544.687,217.045 529.495,221.431C517.704,224.837 521.181,219.431 534.325,214.347C544.848,209.494 559.37,210.944 570.633,220.807ZM460.492,213.087C469.501,212.942 478.884,215.9 485.163,221.31C489.542,225.084 486.341,225.963 479.225,223.021C468.464,218.57 459.397,217.861 450.568,221.994C447.792,223.292 444.598,224.836 443.722,224.752C442.248,223.752 441.623,220.849 442.898,218.795C446.446,215.312 453.485,213.199 460.492,213.087ZM608.989,216.178C609.652,216.207 610.644,217.258 612.125,219.338C614.823,223.121 614.926,224.99 612.692,231.614C609.961,239.702 608.866,238.39 608.184,227.106C607.739,219.785 607.727,216.124 608.989,216.178ZM617.921,228.374C618.951,228.228 620.149,230.041 622.068,233.788C623.408,236.402 623.092,237.185 618.906,249.424C617.161,254.546 615.512,258.626 615.467,258.662C614.179,259.675 614.347,259.586 613.799,258.883C610.818,255.073 611.03,247.643 613.6,238.738C615.545,231.989 616.601,228.562 617.921,228.374ZM536.74,229.3C537.068,229.272 539.065,229.707 539.065,229.707C538.859,247.836 552.878,244.189 554.733,231.312C554.733,231.312 558.191,230.956 558.719,231.814C560.381,234.511 556.523,242.266 550.753,244.804C546.541,246.683 540.816,246.226 537.397,243.078C536.444,241.305 533.546,234.569 534.087,231.775C534.756,230.144 535.767,229.384 536.74,229.3ZM528.387,231.418C528.529,231.411 528.664,231.411 528.812,231.418C530.184,231.488 531.189,231.859 531.73,233.526L534.731,242.735C532.522,245.377 524.124,240.024 524.143,236.006C524.15,233.232 526.236,231.524 528.387,231.418ZM471.382,231.399C473.5,231.194 474.247,231.43 474.492,233.407C475.207,239.391 469.224,245.895 461.458,246.248C453.949,247.088 449.892,241.26 450.124,235.578C450.143,231.259 453.859,230.719 454.271,234.133C455.462,243.992 463.886,244.559 467.737,239.115C469.192,236.981 468.857,231.726 471.382,231.399ZM563.626,233.405C564.225,233.381 565.024,233.606 566.202,234.009C573.949,236.482 574.156,237.679 567.529,240.066C559.627,242.913 559.118,243.286 560.973,237.772C562.003,234.696 562.313,233.459 563.626,233.405ZM481.492,234.274C487.237,234.63 487.72,239.49 482.664,241.113C475.142,244.432 472.612,244.216 475.522,239.318C477.107,235.85 478.517,234.34 481.492,234.274ZM445.558,236.022C446.24,236.014 447.026,236.278 447.87,236.907C448.733,239.513 450.194,241.517 451.354,244.212C450.175,245.383 447.361,245.364 445.564,243.942C441.971,241.089 442.582,236.05 445.558,236.022ZM626.158,241.636C628.386,241.649 630.653,245.183 631.393,247.816C623.601,257.828 624.824,276.521 623.015,282.165C621.444,286.757 620.935,282.794 616.601,270.899C614.849,266.098 623.672,242.227 625.713,241.696C625.855,241.659 626.003,241.635 626.158,241.636ZM634.124,251.9C635.856,252.89 638.213,255.163 638.632,258.742C638.87,260.818 637.846,263.578 637.183,266.309C635.611,272.8 633.48,285.064 632.713,296.395C632.391,301.218 632.404,305.555 632.192,305.975C629.848,310.57 624.902,298.206 625.327,288.364C626.866,280.505 627.722,252.979 634.124,251.9ZM645.129,266.027C646.231,267.557 646.933,268.729 647.267,270.048C647.86,272.341 647.364,275.079 646.018,280.919C642.444,296.397 642.959,313.079 645.29,330.205C645.786,333.807 643.281,332.003 639.495,325.797C637.402,322.356 636.056,317.641 635.412,312.072C634.091,299.898 636.635,283.395 638.799,270.376C639.752,264.615 640.422,259.537 645.129,266.027ZM651.067,275.445L657.327,282.992C657.327,282.992 654.654,300.342 654.673,309.597C654.235,313.063 657.784,350.761 658.936,353.811C655.092,349.502 653.295,346.968 649.077,341.555C648.594,341.633 644.949,304.413 647.467,290.176C648.993,281.566 651.067,275.445 651.067,275.445ZM660.888,290.438C661.937,290.4 663.277,291.583 664.951,293.94C666.471,296.066 667.205,297.812 667.289,300.46C667.347,302.39 666.394,303.88 666.362,307.323C666.188,327.829 668.957,347.182 672.447,365.841C673.677,372.517 671.282,369.793 667.321,365.57C663.696,361.703 663.625,360.232 661.693,354.735C661.3,353.638 657.436,315.821 657.475,312.963C657.61,301.212 657.945,294.667 659.297,291.847C659.741,290.926 660.257,290.461 660.888,290.438ZM638.142,331.643C638.142,331.643 630.859,335.393 628.946,334.077C625.868,325.686 614.772,303.224 614.579,299.246C614.778,297.938 619.132,292.028 619.132,292.028C625.262,305.335 630.781,318.949 638.142,331.643ZM501.011,304.665C498.815,307.246 496.194,306.169 490.901,303.842C488.183,303.008 488.602,304.126 484.113,306.458C480.636,308.266 479.412,308.313 477.107,308.293C474.067,308.267 472.972,307.201 472.959,309.34C472.953,310.523 472.779,315.869 472.058,318.633C471.085,322.394 470.229,324.054 470.763,324.707C472.315,326.124 473.61,325.26 476.875,322.109C482.284,316.884 485.929,318.382 491.957,320.325C498.809,322.535 500.232,323.349 506.498,321.158C515.379,318.055 520.724,318.051 524.266,320.303C530.358,324.184 532.2,323.955 529.688,313.344C528.877,309.924 528.819,304.619 528.323,303.7C527.756,302.659 526.204,305.628 524.588,306.719C521.484,308.805 519.88,308.766 512.893,306.478C508.752,305.121 504.115,300.684 501.011,304.665ZM613.419,306.05C616.124,312.423 626.892,333.72 626.563,336.099C624.464,337.982 621.662,339.354 619.995,337.67C614.611,327.85 613.001,322.555 608.628,311.534C607.321,308.899 611.223,302.185 613.419,306.05ZM671.237,305.267C671.997,305.161 673.594,306.744 674.779,308.329C678.462,313.26 678.681,313.872 678.797,319.156C679.222,338.317 681.631,360.871 687.034,378.262C688.096,381.685 690.105,385.847 689.887,386.413C688.077,389.051 679.686,381.985 677.148,371.238C673.658,357.592 671.61,343.353 670.503,334.085C669.092,317.783 669.099,306.117 671.237,305.267ZM606.651,315.835C609.755,321.815 613.664,332.135 616.292,338.326C617.489,341.014 611.359,343.133 609.948,342.219C607.501,340.39 606.342,335.242 604.732,332.157C599.612,320.967 598.691,320.732 601.531,317.246C603.277,314.824 605.363,311.855 606.651,315.835ZM683.389,322.698C683.839,322.698 684.419,323.136 685.16,324.086C688.392,327.91 690.595,330.832 691.439,333.666C692.05,335.722 691.561,337.265 691.78,340.991C692.359,350.752 694.923,364.076 702.187,391.343C702.895,394.002 703.855,397.149 703.732,398.004C703.03,403.01 695.689,394.895 693.551,386.513C691.071,376.998 686.551,364.845 685.218,353.609C682.474,335.774 680.954,322.696 683.389,322.698ZM600.186,329.907C606.291,344.155 606.774,344.13 602.929,345.257C598.865,346.449 598.621,346.059 593.849,336.357C590.365,329.277 589.676,328.389 592.606,325.837C597.081,320.567 598.254,325.593 600.186,329.907ZM515.147,326.509C514.451,326.523 512.41,328.073 510.349,328.887C505.307,330.884 496.349,331.021 490.888,329.376C481.215,325.492 483.939,330.536 492.498,333.606C499.137,335.84 512.294,334.107 514.336,329.968C515.585,328.644 516.042,326.491 515.147,326.509ZM588.716,334.001C594.164,342.425 595.8,345.79 594.879,346.445C594.01,347.316 589.695,348.945 587.918,348.075C585.689,346.983 583.751,341.782 582.772,337.703C583.455,335.711 587.035,332.14 588.716,334.001ZM452.178,337.55C454.612,337.56 460.949,346.076 459.661,347.612C459.307,348.402 456.93,347.65 451.379,346.112C449.531,345.431 445.339,344.882 446.665,342.195C447.322,340.975 451.205,337.546 452.178,337.55ZM582.869,349.222C582.321,350.678 578.213,351.02 576.467,350.913C574.967,347.789 574.568,346.299 574.149,344.231C574.722,342.99 577.536,339.777 578.921,340.407C579.758,341.15 582.444,347.683 582.869,349.222ZM696.268,341.011C697.138,341.042 698.645,342.565 700.879,345.761C705.104,351.8 704.531,351.36 707.558,365.785C710.996,382.143 715.112,393.793 719.272,410.502C719.33,413.275 718.203,412.538 715.124,410.663C710.095,407.598 708.44,404.195 706.856,395.328C704.151,380.68 698.439,367.129 696.249,349.826C695.09,344.103 695,340.967 696.268,341.011ZM569.5,346.856C572.468,346.755 572.069,351.331 571.219,352.072C569.049,353.963 563.066,353.399 562.036,353.505C559.743,349.902 567.561,346.978 569.5,346.856ZM711.364,362.424C712.239,362.544 714.583,365.856 718.969,372.023C723.187,377.949 722.26,376.981 724.784,386.735C728.358,400.212 734.264,409.932 737.722,422.335C737.722,423.753 736.002,423.57 734.367,422.898C731.166,421.559 728.313,419.298 725.609,417.082C723.76,415.084 723.773,412.543 718.306,393.738C716.329,386.953 715.82,385.189 713.353,374.881C711.293,366.261 710.372,362.288 711.364,362.424ZM254.203,402.688C268.545,429.07 263.232,440.77 232.398,444.424C230.17,444.111 232.269,457.94 232.211,464.12C247.66,455.281 266.342,453.217 283.563,447.668C278.874,462.68 270.644,479.694 245.715,477.074C219.666,456.941 188.999,469.037 168.192,460.864C156.877,456.648 152.556,444.079 152.421,441.923C165.99,443.282 181.317,446.19 194.467,445.238C180.1,434.173 184.305,418.859 186.327,411.857C169.519,390.662 183.551,366.822 207.965,372.365C210.489,372.938 215.467,375.392 215.467,375.392C239.018,354.309 266.317,374.116 254.203,402.688ZM730.702,389.854C731.675,389.761 733.832,392.307 738.147,398.346C750.956,416.262 762.045,432.928 761.871,433.866C761.324,436.952 747.974,431.545 744.606,427.125C740.774,422.089 729.981,396.166 729.994,392.047C730.001,390.673 730.194,389.902 730.702,389.854ZM209.15,466.589C215.815,467.567 217.676,468.131 217.605,470.734C218.172,472.946 201.441,473.24 199.168,471.6C197.358,470.29 199.696,467.418 201.486,466.73C204.075,465.948 206.645,466.221 209.15,466.589ZM670.49,468.963C576.989,513.124 538.736,630.58 585.934,720.594L579.436,725.283C533.166,630.116 567.587,528.137 642.766,476.635C645.812,474.471 652.542,472.8 655.671,470.726C655.671,470.726 625.005,477.722 614.624,481.783C612.518,481.711 606.329,483.892 599.683,491.099C593.874,496.482 575.708,521.528 576.287,522.4L528.02,524.344L528.059,526.128L575.437,525.033C526.649,605.359 538.633,681.787 568.759,735.277L569.506,735.773C571.258,736.952 575.862,733.584 585.419,724.523C589.36,720.794 594.319,716.164 596.45,714.219C602.356,708.809 610.773,699.472 616.556,692.729C583.751,625.867 616.111,537.805 692.875,498.121C693.01,496.009 692.057,489.558 692.057,489.558C692.057,489.558 689.159,486.953 687.446,487.22C601.924,524.892 567.658,618.443 602.427,703.516L596.695,709.756C553.001,621.658 599.902,511.546 681.676,480.352C681.637,478.362 679.866,475.821 677.67,477.351C589.386,518.339 550.908,623.009 594.158,712.229L588.71,717.04C539.509,619.354 591.35,509.889 672.621,472.485C675.017,471.93 670.49,468.963 670.49,468.963ZM194.615,469.874C194.615,469.874 193.99,475.076 195.832,476.852C196.676,480.564 195.323,480.161 192.168,479.408C184.395,477.555 190.455,481.977 196.817,485.546C203.077,489.062 202.24,488.944 196.772,492.409C193.102,494.738 193.488,495.612 193.978,497.379C194.712,500.004 195.214,498.256 196.734,496.856C199.934,493.917 202.485,493.182 205.331,493.193C209.594,493.21 210.026,496.627 209.272,499.291C207.579,504.884 201.821,504.586 197.094,503.196C189.373,500.921 176.757,487.524 176.957,479.64C176.416,472.576 186.082,469.551 194.615,469.874ZM229.339,471.6C232.333,472.7 236.101,474.171 240.242,475.907C245.967,477.726 251.769,480.686 255.511,483.18C266.903,490.774 266.207,505.962 265.383,507.471L206.529,563.248C206.529,563.248 203.206,561.625 200.076,560.027C190.178,554.978 187.802,552.319 193.295,549.522C195.961,548.166 196.817,545.25 197.197,542.398C197.706,538.577 197.507,539.229 199.793,537.488C203.773,534.458 203.959,533.207 203.979,528.17C203.992,524.836 204.339,523.301 205.55,521.207C206.516,519.545 207.527,516.075 208.21,512.091C208.319,511.436 208.351,509.8 208.48,509.226C209.176,506.109 210.161,505.191 210.824,504.483C211.481,503.778 212.544,501.375 213.278,499.291C214.92,494.646 214.611,495.335 217.264,495.85C221.115,496.598 220.561,498.844 220.143,502.411C219.937,504.141 218.784,505.355 219.177,504.966C219.698,504.445 222.068,503.327 222.558,503.216C223.788,502.934 225.018,503.357 225.333,505.288C225.507,506.364 225.043,508.345 225.069,509.877C225.147,513.845 225.314,518.6 226.216,521.73C230.588,536.812 229.719,534.723 228.231,522.173C227.877,519.169 227.458,514.757 227.89,511.084C228.193,508.495 228.933,505.289 229.938,503.538C232.527,499.036 232.668,498.146 227.066,495.93C224.979,495.107 221.437,493.665 220.703,492.227C219.808,490.468 217.135,488.074 213.658,487.257C205.202,485.269 200.282,477.1 201.506,475.886C202.304,475.092 205.711,476.132 207.862,476.208C215.583,476.483 217.225,476.086 220.645,473.149C222.468,471.586 223.285,470.195 224.734,470.092C226.261,470.063 228.212,471.2 229.339,471.6ZM629.944,480.636C550.882,544.604 537.023,648.081 576.467,727.929L569.641,733.294C520.067,639.63 553.361,538.594 614.263,483.339L629.944,480.636ZM173.473,488.263C174.864,488.132 176.39,490.179 181.941,496.112C185.683,500.108 189.579,503.579 191.621,504.745C196.27,506.969 195.253,506.043 191.382,509.716C187.428,514.254 189.611,517.986 184.884,515.713C172.578,509.938 163.942,492.924 171.94,488.827C172.546,488.517 173.003,488.307 173.473,488.263ZM167.355,506.154C167.651,506.131 167.98,506.176 168.302,506.255C169.815,506.625 171.657,509.477 173.634,511.467C179.101,516.973 181.639,519.415 186.011,521.348C190.307,523.248 190.423,523.709 187.396,527.063C186.301,528.283 185.644,529.749 185.387,530.565C185.129,531.381 185.058,532.421 184.137,532.598C179.346,533.517 163.433,523.863 162.809,517.203C163.317,510.973 164.895,506.342 167.355,506.154ZM201.081,508.005C203.843,507.934 205.466,510.395 205.447,514.385C205.44,517.148 203.882,518.272 200.72,519.457C193.958,521.987 189.798,517.15 194.518,511.809C196.508,509.564 199.194,508.054 201.081,508.005ZM196.959,524.246C202.06,524.266 203.534,528.566 199.793,532.276C196.283,535.76 189.193,535.778 189.212,531.954C189.218,528.954 193.713,524.233 196.959,524.246ZM165.339,529.391C168.791,530.41 177.189,536.46 180.879,537.171C181.072,539.211 178.618,539.769 182.102,543.606C183.687,545.347 183.822,546.536 182.45,547.268C178.232,549.513 163.639,542.418 162.667,535.113C162.19,531.546 163.375,529.518 165.339,529.391ZM184.382,538.132C189.399,538.341 195.079,538.49 194.48,540.889C194.048,542.629 192.252,547.223 189.953,546.363C188.838,545.945 187.75,544.834 186.977,544.089C184.298,541.519 183.584,538.099 184.382,538.132ZM374.242,558.917C388.867,572.158 442.003,710.471 331.276,811.242L307.783,818.281C414.092,734.807 396.402,616.303 367.719,565.18C367.725,563.679 367.3,563.85 364.654,566.246C362.342,568.344 362.09,568.797 363.024,569.184C395.443,619.07 407.562,759.974 279.827,827.966C277.689,830.195 282.023,829.853 282.023,829.853C282.249,828.024 339.538,814.101 335.494,813.754C388.893,766.556 435.383,653.995 377.508,555.882C376.11,554.963 374.242,558.917 374.242,558.917ZM355.799,574.577L355.058,577.697C401.399,668.681 357.164,780.15 271.018,821.404C272.435,822.448 274.006,823.162 275.59,823.903C373.315,771.283 401.496,659.91 358.864,573.647L355.799,574.577ZM348.052,581.029L347.511,584.331C385.879,661.766 355.419,769.222 263.85,812.813C262.981,817.502 263.869,816.13 268.152,815.905C374.101,759.092 384.057,651.041 350.911,580.874L348.052,581.029ZM341.47,590.315C338.482,594.27 333.002,596.318 331.179,601.409C361.962,682.757 322.183,761.063 254.834,794.073C254.783,798.169 251.846,808.299 258.975,806.676C342.172,768.99 378.377,668.808 341.998,589.951C341.998,589.951 341.521,590.297 341.47,590.315ZM759.386,747.597C762.445,747.816 765.194,748.743 768.034,749.11C778.37,750.45 785.074,757.984 780.457,762.57C778.937,764.076 776.818,763.207 770.108,759.923C767.023,758.416 766.527,757.006 765.89,753.599C765.124,749.522 764.306,749.11 763.269,752.272C762.226,755.473 761.099,757.456 757.57,756.645C747.659,754.339 751.407,747.52 759.386,747.597ZM648.832,816.858C624.019,802.774 593.372,777.381 575.856,748.524C567.143,764.869 556.91,794.608 556.91,794.608L517.961,783.731L517.498,784.542L555.995,795.638L552.247,808.479C551.841,809.87 545.878,824.489 545.878,824.489L606.014,852.554C602.285,858.382 598.221,862.149 593.057,867.591C590.133,870.656 590.056,874.63 590.056,874.63L673.426,795.104C673.426,795.104 684.181,811.055 688.18,814.668C691.934,818.062 693.1,818.886 688.721,819.897C669.131,822.77 653.933,837.601 659.233,857.493C660.089,859.709 661.815,858.897 665.531,856.56C678.533,844.781 710.327,833.878 711.409,836.647L711.537,849.315C677.309,849.811 680.819,874.971 683.324,888.463C683.324,888.752 673.426,897.408 673.426,897.408C676.93,899.243 680.356,901.143 683.588,903.403C680.581,920.185 694.884,944.515 722.975,932.061C725.402,934.553 727.695,937.058 730.374,940.188C733.246,936.858 736.563,929.015 736.563,929.015C750.518,935.332 779.472,921.197 764.66,888.823L772.826,881.037L764.982,876.092C764.782,867.862 763.507,860.507 758.594,853.34C758.594,853.34 771.763,856.695 781.513,857.261C787.534,857.802 792.609,857.957 792.1,854.318C791.952,853.249 791.051,848.007 790.464,846.294C787.56,837.813 772.478,831.586 757.834,830.761C755.444,830.633 752.869,830.703 752.36,830.085C751.4,828.92 753.12,827.271 754.691,827.541C762.715,828.939 770.43,823.014 771.815,815.467C772.092,814.147 773.734,811.725 776.084,809.149C780.257,804.583 780.586,804.699 780.508,798.098C780.45,793.52 781.255,792.502 783.368,789.43C786.098,785.051 787.36,779.333 785.989,773.421C785.557,771.547 783.78,768.9 785.293,764.231C787.753,756.632 782.35,749.69 775.266,745.729C774.7,745.568 774.867,746.129 774.397,746.689C767.97,748.692 760.139,744.081 760.139,744.081C758.529,743.289 765.613,702.093 780.302,705.776C782.75,707.257 783.78,714.412 783.593,714.541C784.269,714.522 784.636,710.329 783.69,707.528C782.692,704.591 780.412,701.79 776.033,702.621C772.632,703.258 768.711,707.773 766.94,710.033C760.075,718.778 759.997,724.362 757.705,733.661C756.604,738.059 756.481,737.802 750.396,733.049C746.029,729.636 743.911,728.548 745.43,726.545C746.113,725.643 748.947,722.803 748.947,722.803L802.121,671.633L802.121,1184.03L501.417,1184.03L503.523,1118.19C509.164,1071.88 499.24,974.654 491.725,965.509C497.521,959.005 515.495,943.311 514.503,942.603L512.12,941.192L502.615,949.938L479.148,942.828C469.134,935.912 458.92,929.523 448.32,926.799C431.016,922.356 397.684,936.511 397.651,936.659C344.4,940.6 301.755,962.225 302.354,962.058C300.036,959.932 296.964,953.132 296.887,953.171C269.434,914.976 242.45,893.576 205.582,867.469L252.278,841.671L141.621,726.055L140.649,632.174L300.95,478.926C301.89,476.279 352.089,514.379 370.778,545.383C374.365,530.227 381.037,516.465 386.601,501.583C387.18,500.223 418.491,513.16 427.777,513.708C429.168,513.79 430.289,512.325 430.289,512.325L388.964,498.887L397.42,474.684C397.42,474.684 400.363,468.108 397.04,467.017C378.203,460.924 360.526,450.184 342.507,441.034C342.507,441.034 350.924,431.679 351.053,431.265C351.168,430.876 354.582,425.856 353.77,424.126C344.6,433.017 269.813,502.375 269.813,502.375C267.688,490.471 264.346,486.31 257.075,478.965C261.036,478.775 267.231,474.859 270.818,472.248C281.779,464.264 287.742,450.016 286.306,441.692C275.79,445.039 266.284,448.964 253.108,451.356C245.703,452.7 238.677,456.044 234.42,459.632L233.763,446.35C233.789,446.502 251.492,449.454 259.696,437.572C266.761,427.333 263.863,415.612 262.24,409.636C262.427,408.309 262.028,408.458 265.08,405.652C267.328,403.579 270.831,400.902 270.831,400.902C270.986,400.148 261.693,396.705 260.121,393.559C262.594,368.942 242.927,359.439 226.28,363.812C223.169,364.751 221.682,365.334 217.985,361.213C217.432,360.599 212.994,355.909 212.994,355.909C212.994,355.909 211.03,360.429 210.026,362.409C206.761,368.847 205.866,366.909 198.827,367.254C180.995,368.128 173.041,382.524 177.131,400.198C178.097,404.346 177.665,403.707 174.941,408.952C173.55,411.631 171.277,415.05 171.277,415.05C171.277,415.05 174.548,416.862 176.751,417.847C180.016,419.306 180.183,421.013 180.17,424.267C180.628,431.439 182.205,436.24 186.327,442.401C172.359,442.722 161.643,441.418 148.995,437.217C150.933,456.666 165.269,463.908 182.824,466.758C182.824,466.758 180.982,468.478 179.043,469.245C174.935,470.436 172.365,474.043 172.404,477.275C171.811,480.361 169.815,483.46 167.98,485.109C165.243,487.475 162.995,490.809 164.071,497.259C163.8,501.932 162.667,503.283 161.295,505.067C158.539,508.65 157.612,512.211 158.301,516.921C158.616,519.112 159.292,523.804 158.842,528.653C158.088,536.736 160.98,539.767 164.657,545.458C167.04,549.144 166.537,549.242 165.983,551.917C164.663,558.34 163.285,561.642 161.862,566.528C158.661,577.459 158.545,585.747 161.153,587.88C165.095,591.094 169.551,590.127 171.625,589.487C187.158,584.691 184.466,569.436 185.284,559.2C185.728,556.568 186.63,555.303 187.499,555.426C191.891,560.567 196.534,563.541 202.517,566.781C181.838,587.822 168.334,600.697 142.201,623.651L142.909,111.129L441.063,111.129C441.063,111.129 441.378,114.921 440.663,133.467C439.375,171.157 437.791,210.639 440.264,249.062C440.676,262.359 440.406,275.49 442.318,288.647C444.18,301.465 444.997,315.287 450.993,327.226C453.395,333.698 453.472,333.2 444.302,341.675C439.807,345.833 435.982,350.259 436.149,351.039C436.201,351.299 435.949,352.274 436.638,351.722C437.096,351.355 440.419,348.065 440.792,347.631C443.272,344.702 447.432,348.462 461.619,352.462C464.394,353.247 468.316,355.866 471.317,358.037C492.517,375.903 522.347,370.332 544.648,360.588C550.978,357.823 552.53,357.537 562.699,356.331C600.366,351.866 640.609,335.41 640.525,335.461L645.445,343.515C645.445,343.515 647.293,343.173 648.613,345.199C670.277,386.115 741,432.867 739.744,430.701L693.512,456.294C727.173,497.879 804.136,568.429 804.136,568.429L802.365,669.828C781.7,686.354 763.526,705.3 745.36,723.795C740.137,728.966 736.447,731.922 738.43,732.019C743.144,731.298 747.221,735.954 751.059,739.18C753.487,741.885 752.901,741.64 750.099,745.343C748.129,747.945 747.407,748.698 747.395,750.579C747.465,754.217 747.44,756.651 744.2,759.382C742.191,761.906 741.045,763.523 740.678,766.517C740.317,769.499 740.343,771.418 738.289,774.058C734.805,774.799 734.476,779.873 735.088,782.14C738.739,785.753 737.071,789.669 737.413,788.844C730.445,796.405 723.136,802.954 727.805,792.386C729.91,788.451 730.638,785.193 730.638,785.193C730.638,785.193 727.289,788.664 725.531,790.306C722.852,792.792 721.867,791.33 721.79,783.615C721.442,777.774 718.982,769.628 718.003,768.069C717.456,767.2 717.365,768.707 717.617,774.329C717.958,781.722 718.84,783.873 716.232,791.253C712.716,801.228 710.217,802.638 715.929,802.297C721.339,801.969 725.918,801.911 728.281,805.144C729.08,806.232 730.11,808.093 732.293,809.194C736.749,811.629 740.291,814.327 742.764,817.019C750.769,825.725 748.477,833.505 732.995,828.231C724.849,825.448 730.181,821.952 738.945,822.763C744.323,823.265 745.231,821.275 740.575,819.852C731.913,818.249 730.516,817.27 724.804,824.064C700.815,821.694 687.349,808.28 680.871,797.358C678.166,792.785 677.335,791.916 679.222,789.327C679.963,788.31 679.518,788.619 678.237,790.029C676.962,791.446 673.478,792.624 672.325,793.642C664.262,801.679 656.097,810.321 648.832,816.858ZM753.242,760.547C757.312,761.05 757.235,764.469 753.596,767.76C750.183,770.342 747.845,770.845 745.913,768.9C742.539,765.5 746.899,760.522 753.242,760.547ZM765.098,762.917C768.382,762.904 772.568,764.418 777.54,768.546C783.477,773.479 784.83,785.425 779.381,787.492C777.095,788.361 776.741,787.511 771.879,782.887C768.595,779.77 765.033,776.95 761.53,775.282C754.375,771.875 753.461,770.587 758.297,768.269C759.315,767.747 760.629,766.517 761.234,765.551C762.477,763.561 762.85,762.93 765.098,762.917ZM757.37,778.824C758.317,778.85 759.592,779.429 761.575,780.492C773.637,787.08 779.53,797.403 775.447,803.231C772.774,807.056 768.414,805.594 765.091,800.172C763.224,797.119 758.259,793.21 752.617,790.351C746.158,787.08 746.023,786.61 750.685,784.375C752.598,783.461 754.034,782.16 754.974,780.511C756.056,778.598 756.146,778.785 757.37,778.824ZM761.234,803.424C770.346,812.511 769.303,817.431 763.385,821.127C759.341,823.652 752.862,824.283 750.737,822.19C747.304,819.189 747.395,815.75 751.188,814.642C754.73,813.889 753.403,812.466 750.093,811.629C738.282,808.273 731.018,802.007 743.859,803.366C747.543,803.753 751.11,800.893 753.042,798.607C755.824,795.22 759.592,801.788 761.234,803.424ZM139.908,806.927L405.817,1187.6L190.841,1187.18C190.841,1187.18 190.036,1184.39 191.788,1161.57C194.37,1130.62 190.397,1103.77 183.068,1073.55C183.996,1073.44 172.777,1036.86 164.051,1018.99C162.467,1015.24 162.725,1014.88 167.877,1014.22C183.094,1011.77 199.484,1008.09 214.688,1001.66C221.753,1001.04 232.127,1003.79 231.567,1002.93C231.316,1002.52 222.377,994.321 222.377,994.321C197.552,1004.24 174.645,1007.86 153.084,1010.33C181.71,1059.04 191.923,1125.35 183.339,1184.91L142.149,1184.79L142.021,891.65L139.908,806.927ZM187.428,863.309C191.183,863.16 200.546,869.761 201.686,874.733C201.918,875.75 204.352,881.855 207.076,887.535C207.134,888.585 216.35,905.232 212.299,903.777C204.243,892.829 189.843,874.185 186.224,865.099C186.23,863.888 186.378,863.347 187.428,863.309ZM216.156,879.956C216.659,882.705 219.447,889.899 221.65,894.639C227.388,906.99 236.275,926.355 234.471,931.867C233.254,935.583 234.504,935.39 231.252,930.805C229.661,928.557 224.696,921.634 223.498,920.037C220.594,916.135 222.551,919.715 220.89,913.366C216.929,895.398 210.534,885.964 206.381,875.467C204.9,870.54 214.25,877.972 216.156,879.956ZM221.27,882.699C222.042,883.24 232.578,890.646 233.647,891.715C237.382,904.994 252.316,947.555 248.452,955.16C247.1,954.104 241.407,947.239 240.622,943.704C238.896,923.354 232.443,908.716 225.514,893.55C223.562,888.978 222.036,884.412 221.27,882.699ZM241.092,897.639C244.427,899.269 247.879,902.997 249.837,906.327C251.144,908.581 251.814,911.241 253.044,916.837C256.863,934.199 264.153,951.799 260.875,970.326C258.827,973.102 254.384,966.817 253.746,960.628C251.64,940.11 249.837,930.283 242.618,906.153C241.22,901.471 240.158,897.8 241.092,897.639ZM258.016,913.559C258.73,913.585 260.186,914.911 262.627,917.197C267.36,921.647 268.03,923.283 268.055,930.663C268.21,941.508 271.823,953.885 272.383,964.833C272.705,971.151 273.864,987.489 272.885,988.461C271.507,990.361 265.389,983.438 265.866,972.825C266.645,960.068 266.008,950.459 260.572,928.39C258.054,918.189 256.786,913.829 257.874,913.578C257.913,913.565 257.964,913.552 258.016,913.559ZM748.953,849.115C767.957,861.306 761.253,883.82 757.19,886.582C783.426,919.735 742.642,936.704 729.698,924.79C710.539,943.826 677.664,927.868 690.324,896.493C690.312,896.493 666.265,850.532 713.714,853.604C713.714,853.604 714.532,835.037 713.192,834.187C696.256,833.048 673.227,849.353 666.703,853.868C663.09,856.057 662.298,855.008 662.298,855.008C661.39,845.373 661.371,840.956 665.286,835.585C672.119,826.202 683.421,823.034 698.265,819.775C716.638,825.429 734.128,834.31 751.149,832.925C760.519,832.983 770.108,834.497 779.195,839.372C785.325,842.263 788.513,853.114 788.513,853.114C778.898,858.144 748.953,849.115 748.953,849.115ZM739.918,780.955C739.995,777.665 743.717,773.994 747.375,774.425C752.405,774.786 753.062,780.743 748.592,782.932C747.298,783.976 743.125,782.437 742.9,783.596C743.202,785.624 741.161,784.768 740.768,784.034C740.072,783.171 739.918,781.941 739.918,780.955ZM736.872,793.932C738.714,792.637 740.259,792.528 742.114,792.283C744.967,791.935 748.618,792.367 749.43,795.355C750.222,798.292 744.593,800.017 740.04,800.095C737.722,800.133 735.036,800.584 734.341,798.961C733.691,797.435 735.938,794.621 736.872,793.932ZM161.817,584.318C165.488,571.576 163.195,564.442 169.306,548.737L184.176,553.688C184.176,553.688 184.807,569.093 181.813,577.675C178.812,586.25 168.946,593.089 161.817,584.318ZM272.608,928.912C274.36,929.124 278.668,935.261 280.613,940.864C282.397,946.067 281.811,952.668 283.112,958.271C286.029,977.475 285.855,996.711 285.082,1002.53C284.696,1005.42 282.828,1004.25 280.272,1001.48C276.556,997.464 277.071,997.38 277.116,986.226C277.149,976.67 275.03,953.048 274.051,948.25C272.248,939.376 271.494,930.908 271.919,929.452C272.042,929.047 272.28,928.873 272.608,928.912ZM446.549,931.211C465.702,934.257 481.016,947.336 489.787,968.858C498.262,990.747 500.348,1020.61 501.662,1048.06C501.565,1054.63 498.861,1052.98 491.764,1048.89C484.017,1045.11 482.368,1046.2 471.053,1048.8C463.995,1050.41 464.633,1045.61 476.244,1037.64C480.198,1035.07 484.802,1031.62 483.289,1031.11C482.523,1030.84 478.987,1031.8 476.43,1033.86C465.032,1043.07 461.941,1045.31 465.231,1036.35C466.056,1034.09 468.696,1027.82 469.804,1024.81C473.932,1013.56 469.173,1008.74 455.153,1001.62C451.65,999.84 449.344,996.865 452.841,1003.09C455.7,1008.18 449.789,1012.29 442.454,1006.33C437.366,1002.19 427.127,1004.95 423.823,1010.11C420.622,1015.12 422.335,1024.45 428.647,1027.47C434.204,1029.87 436.278,1028.14 430.901,1024.42C423.984,1019.62 425.33,1011.53 433.097,1011.57C435.016,1011.57 438.403,1013.71 446.962,1018.37C453.092,1021.68 457.452,1020.28 457.459,1015.33C457.465,1012.02 459.358,1012.29 463.39,1014.28C468.818,1016.96 468.226,1019.39 465.354,1026.89C463.422,1032.13 462.462,1038.08 460.685,1043.55C456.119,1061.98 455.507,1082.84 460.563,1089.35C474.009,1106.65 488.293,1104.82 500.516,1093.39L499.994,1112.33C487.526,1122.33 472.959,1129.15 450.478,1166.25C442.634,1156.39 408.986,1116.13 355.032,1107.03L342.893,1090.42C343.099,1089.39 333.819,1028.64 327.753,1007.96C327.753,1007.96 334.431,997.825 340.491,990.354C364.718,960.512 405.663,926.355 446.549,931.211ZM376.187,948.45C374.114,949.113 373.438,944.973 374.564,944.187C377.063,943.974 377.945,944.052 380.444,944.238C382.331,944.354 382.286,946.518 376.187,948.45ZM285.14,945.353C287.839,947.272 291.123,952.436 294.337,957.144C296.12,959.752 295.109,964.073 295.386,968.336C295.779,974.383 296.449,984.346 296.874,990.47C297.705,1002.42 296.59,1012.4 294.845,1016.01C293.061,1020.33 289.442,1017.34 288.541,1011.45C288.328,1010.02 289.507,995.377 289.507,987.334C289.507,973.501 285.971,956.423 285.14,945.353ZM366.811,945.269C367.758,945.217 368.485,945.249 369.116,946.054C372.021,949.777 373.199,952.031 370.552,954.066C367.043,956.996 363.855,956.255 361.904,950.698C360.654,946.731 363.61,945.481 366.811,945.269ZM355.992,948.547C359.122,950.646 362.232,956.172 362.554,960.158C362.354,961.253 361.395,962.18 359.289,963.88C357.209,965.786 356.552,965.664 354.221,962C350.576,956.294 348.869,952.546 349.584,950.575C351.407,948.682 353.777,947.928 355.992,948.547ZM483.527,949.268C488.756,949.712 493.915,952.102 499.002,953.306L491.242,960.808C488.937,956.964 486.303,953.119 483.527,949.268ZM344.387,953.183C347.259,956.912 352.257,966.675 351.986,970.301C351.259,971.537 350.125,972.638 348.921,973.327C347.968,973.591 347.111,971.917 343.878,966.198C338.25,956.249 336.601,953.441 339.525,952.25C341.058,952.076 343.395,952.153 344.387,953.183ZM333.047,955.495C336.176,958.277 343.685,973.102 343.898,977.275C343.814,978.447 343.466,979.465 342.771,980.257C338.05,985.331 339.242,984.513 332.216,970.049C326.285,958.155 324.72,956.983 328.642,955.643C329.511,955.347 331.681,954.954 333.047,955.495ZM321.77,959.366C323.831,959.333 324.411,962.779 328.423,970.623C335.146,985.454 337.664,987.514 336.144,989.099C334.27,991.462 333.169,993.124 331.392,990.251C327.341,983.663 323.316,975.253 319.542,967.873C316.522,962.36 316.251,961.69 318.19,960.345C319.304,959.572 320.965,959.379 321.77,959.366ZM441.732,963.577C439.208,964.286 429.052,967.499 435.273,968.085C436.529,968.201 439.717,967.403 441.951,967.248C448.243,966.817 461.316,968.002 460.852,966.797C459.661,962.283 445.158,962.695 441.732,963.577ZM312.98,964.962C312.98,965.213 314.609,968.105 316.232,970.938C325.782,989.388 331.095,996.112 329.395,999.029C327.998,1000.79 325.84,1003.01 324.565,1002.48C322.511,1001.63 319.774,995.596 312.941,981.918C305.877,967.789 305.136,966.733 308.768,964.898C310.256,964.208 312.059,963.693 312.98,964.962ZM303.436,971.473C307.828,978.608 307.248,977.674 307.197,1000.9C307.171,1015.35 305.31,1024.57 302.895,1028.12C301.626,1029.99 299.392,1028.89 298.284,1025.25C297.775,1023.58 299.218,1021.11 299.488,1018.46C301.201,1001.08 300.004,983.696 300.049,967.235C301.375,967.1 302.728,970.313 303.436,971.473ZM416.675,977.172C418.723,980.089 418.22,982.44 418.208,986.368C418.182,991.919 418.587,992.331 422.419,989.524C425.819,987.038 426.09,986.883 432.15,990.992C435.75,993.433 440.283,993.71 443.22,991.011C445.287,989.118 446.002,989.968 448.778,990.689C451.791,992.37 452.648,992.628 459.12,989.485C463.493,987.553 463.667,987.276 466.262,988.641C470.834,992.673 471.51,991.211 470.892,985.943C470.905,984.108 471.44,980.669 471.98,978.441C474.254,969.071 470.57,968.968 465.702,974.937C463.815,977.249 459.609,978.254 455.636,976.386C449.95,973.714 441.069,974.796 434.5,975.897C426.734,977.204 423.14,975.06 420.017,972.4C418.253,970.893 414.208,969.547 413.764,970.7C413.313,971.853 414.228,973.675 416.675,977.172ZM312.51,990.309C313.482,990.103 314.976,992.982 317.159,999.087C319.98,1006.96 315.054,1034.35 312.091,1038.83C310.52,1041.18 309.515,1042.63 306.295,1038.27C305.014,1036.35 306.012,1035.74 307.281,1030.36C309.213,1022.17 310.842,1008.91 310.945,1002.75C310.971,994.746 311.409,990.548 312.51,990.309ZM322.414,1016.87C323.116,1016.93 323.934,1018.5 325.048,1021.63C326.632,1025.91 325.866,1034.18 323.78,1040.5C322.575,1044.18 321.429,1048.11 319.375,1051.41C318.673,1053.26 315.092,1052.62 314.101,1048.51C313.476,1045.92 315.633,1042.7 316.676,1038.57C317.726,1034.42 318.924,1029.15 319.516,1026.5C320.611,1020.02 321.39,1016.8 322.414,1016.87ZM399.049,1029.01C398.959,1029 398.881,1029.01 398.83,1029.03C398.843,1029.01 398.785,1029.07 398.766,1029.09C398.605,1029.26 406.236,1037.57 408.284,1039.9C409.359,1040.8 418.555,1051.98 412.83,1049.41C398.398,1043.44 381.513,1046.38 371.113,1056.4C369.812,1057.66 368.736,1056.37 364.795,1056.08C356.72,1055.47 353.783,1058.68 358.697,1062.66C359.45,1063.27 361.021,1063.54 361.73,1064.52C362.38,1065.42 362.187,1067.03 362.522,1067.47C378.145,1088.21 407.067,1092.24 425.233,1078.7C427.513,1077 428.795,1076.4 430.926,1077.03C435.151,1078.28 435.524,1074.75 431.789,1069.8C430.166,1067.65 428.157,1065.16 429.329,1064.44C431.635,1062.46 432.775,1059.22 428.762,1058.01C426,1057.17 422.902,1054.09 421.344,1049.8C419.534,1044.78 401.741,1029.38 399.049,1029.01ZM328.146,1038.09C331.54,1038.01 331.701,1058.06 327.946,1064.15C326.021,1066.45 321.609,1062.16 322.273,1057.77C322.775,1054.42 326.381,1039.35 327.206,1038.57C327.534,1038.25 327.863,1038.09 328.146,1038.09ZM397.355,1050.61C400.208,1050.57 404.104,1051.85 407.208,1054.65C408.883,1056.17 411.819,1062.73 410.602,1065.3C410.261,1066.6 406.738,1066.53 406.416,1065.57C404.484,1052.33 393.755,1050.41 390.349,1062.77C390.349,1062.77 388.14,1064.64 387.856,1061.03C388.623,1054.01 391.92,1050.66 397.355,1050.61ZM483.753,1051.75C487.166,1051.69 490.411,1053.4 492.086,1057.05C493.251,1059.58 493.374,1061.72 492.917,1062.84C492.569,1063.67 491.416,1063.31 491.416,1063.31C485.974,1048.37 478.562,1055.28 475.877,1063.54C475.877,1063.54 473.075,1064.4 472.728,1063.51C472.38,1062.62 472.599,1060.94 473.713,1058.62C475.838,1054.17 479.889,1051.82 483.753,1051.75ZM410.898,1052.68C412.83,1052.58 416.134,1054.14 418.6,1056.63C421.105,1059.16 421.357,1060.66 419.328,1062.54C418.111,1063.67 413.783,1064.78 412.946,1062.82L409.301,1054.31C408.953,1053.5 410.022,1052.72 410.898,1052.68ZM384.662,1053.08C386.82,1053.09 387.277,1053.58 383.883,1061.46C383.162,1063.15 374.461,1060.7 376.116,1057.45C378.609,1054.86 382.498,1053.08 384.662,1053.08ZM471.781,1053.7C472.65,1053.66 473.352,1053.79 473.648,1054.19C472.876,1054.47 469.585,1062.78 469.585,1062.78C466.481,1062.4 462.771,1062.84 462.095,1060.3C461.464,1057.91 462.72,1056.45 467.093,1054.77C468.413,1054.29 470.332,1053.77 471.781,1053.7ZM497.231,1055.84C500.528,1057.05 501.295,1059.83 500.876,1061.27C500.554,1062.36 498.996,1062.37 497.895,1061.53C496.845,1060.32 495.299,1058.24 495.422,1056.85C495.763,1055.45 496.182,1055.44 497.231,1055.84ZM333.163,1063.52C334.174,1065.42 336.003,1076.22 333.864,1075.94C331.791,1075.41 330.825,1072.15 330.464,1069.22C330.387,1068.62 332.235,1063.59 333.163,1063.52ZM369.406,1069.28C370.366,1069.15 372.781,1069.99 376.368,1072.02C388.178,1077.72 400.285,1078.53 413.139,1075.66C420.558,1073.73 422.451,1072.6 423.495,1073.88C425.279,1076.04 422.471,1078.2 411.999,1081.72C400.511,1085.58 388.597,1084.93 372.929,1073.88C368.717,1070.9 368.17,1069.45 369.406,1069.28ZM500.451,1072.26C502.396,1075.88 495.776,1079.33 492.427,1080.29C485.298,1082.35 474.505,1081.39 468.413,1077.73C467.898,1077.42 467.408,1077.09 466.944,1076.75C461.986,1073.06 464.034,1070.42 469.559,1073.27C475.497,1076.33 487.578,1076.89 493.986,1073.8C497.199,1072.25 499.408,1070.31 500.451,1072.26ZM353.809,1079.02C353.152,1079.17 354.266,1080.84 356.565,1083.33C372.723,1101.46 411.259,1111.3 432.929,1092.61C439.71,1086.24 438.68,1083.38 427.977,1088.47C416.14,1092.36 399.326,1092.87 384.778,1090.71C377.63,1089.75 365.98,1087 360.068,1082.68C356.346,1079.96 354.388,1078.89 353.809,1079.02ZM465.199,1079.57C466.185,1079.64 467.91,1080.01 471.665,1081.96C477.139,1084.81 489.568,1083.83 493.638,1082.33C502.209,1079.17 503.974,1083.18 495.847,1087.67C486.799,1093.15 474.299,1091.01 467.009,1083.95C464.748,1081.93 463.531,1079.41 464.523,1079.2C464.62,1079.19 465.058,1079.55 465.199,1079.57ZM358.098,1111.64C389.911,1114.54 437.926,1146.11 456.641,1184.03L445.867,1184.03C427.062,1154.19 398.122,1130.17 363.784,1121.21C362.425,1120.16 357.37,1112.96 358.098,1111.64ZM499.311,1118.59L497.837,1129.07C492.511,1133.44 472.966,1149.62 458.476,1174.98C455.456,1174.84 453.994,1171.2 454.496,1168.72C466.101,1145.84 479.972,1133.2 499.311,1118.59ZM370.733,1126.79C378.036,1126.29 425.523,1151.79 441.513,1184.03L432.755,1184.03C414.769,1160.61 394.779,1145.32 377.031,1139.19C372.716,1134.65 367.996,1126.99 370.733,1126.79ZM497.837,1134.08L497.759,1148.25C486.399,1159.31 478.092,1170.44 471.594,1184.03L462.771,1184.03C462.771,1184.03 460.807,1180.14 461.49,1177.72C471.517,1159.68 481.125,1146.54 497.837,1134.08ZM425.704,1184.03L417.164,1184.03C409.958,1173.85 399.255,1164.04 389.428,1158.21C385.403,1153.22 380.888,1147.06 382.704,1146.06C382.814,1142.38 420.597,1167.91 425.704,1184.03ZM498.023,1155.21L497.837,1163.4C492.06,1170.79 487.217,1176.99 482.593,1184.03L475.316,1184.03C481.949,1169.71 498.616,1151.34 498.023,1155.21ZM400.041,1171.08C402.675,1171.77 412.296,1180.95 411.987,1184.03L407.659,1183.9C405.225,1180.84 402.346,1177.64 400.64,1174.51C399.571,1172.53 398.881,1170.68 400.041,1171.08ZM496.349,1173.61C496.381,1173.6 496.394,1173.6 496.413,1173.61C496.426,1173.61 496.33,1184.03 496.33,1184.03L489.027,1184.03C488.241,1183.88 492.562,1176.16 496.349,1173.61Z" style="fill:rgb(19,31,103);fill-rule:nonzero;"/>
        <path d="M648.291,108.612C612.499,108.607 576.306,108.811 536.038,109.237L807.904,494.974L808.123,409.283L720.882,296.697C740.736,290.574 764.982,286.343 784.07,284.643C759.553,230.288 747.292,179.241 758.091,109.276C719.471,108.833 684.084,108.618 648.291,108.612ZM753.564,111.067C751.432,135.767 748.638,163.311 753.12,193.9C738.971,188.734 735.655,197.559 733.311,198.488C730.644,192.552 720.785,182.284 709.618,194.353C703.816,200.627 706.637,212.43 720.109,217.752C704.679,218.937 696.661,205.75 693.957,192.149C685.617,186.812 676.846,181.535 676.015,162.818L680.291,163.532C678.868,176.591 692.437,183.242 700.377,177.009C705.51,173.076 706.063,167.005 704.035,157.575C708.163,156.731 717.823,152.688 715.266,140.279C711.743,123.147 694.143,125.158 686.106,136.424C679.422,128.153 667.173,126.618 662.259,139.463C659.523,146.619 665.756,154.653 672.847,156.207C657.108,159.225 649.174,137.526 648.291,122.841L641.768,111.269C684.316,111.022 702.921,111.071 753.564,111.067ZM540.462,111.49L572.037,111.51L802.488,409.717L802.971,483.957L540.462,111.49ZM620.297,111.51L625.327,111.571C629.274,137.818 644.369,156.821 670.187,166.068C671.526,187.512 681.869,216.641 721.101,226.482C719.948,250.695 735.5,273.833 752.154,284.924C752.154,284.923 747.659,286.037 744.142,286.373C721.757,268.62 716.238,242.481 714.017,231.695C713.263,230.137 711.125,229.759 709.432,229.38C690.266,222.612 674.141,206.873 667.553,187.662L663.406,168.805C663.412,166.383 662.923,167.521 657.223,165.424C642.444,159.983 628.779,143.993 622.654,124.893C619.428,114.851 620.297,111.51 620.297,111.51ZM599.992,111.571L617.683,111.591C617.683,111.591 617.786,114.711 618.043,116.743C620.426,135.547 637.311,159.145 654.532,166.974C656.966,168.081 660.36,169.637 661.152,170.375C665.962,201.2 679.937,219.765 709.432,232.48C709.902,232.966 711.228,233.275 711.621,233.888C715.646,252.95 724.43,275.048 741.148,287.198L733.922,287.943L599.992,111.571ZM686.403,143.923C690.402,143.923 693.647,147.168 693.647,151.168C693.647,155.167 690.402,158.392 686.403,158.392C682.403,158.392 679.158,155.167 679.158,151.168C679.158,147.168 682.403,143.923 686.403,143.923ZM442.254,183.456C442.673,184.502 343.312,268.548 352.984,426.682L350.106,429.902L350.892,431.029C347.607,434.753 344.452,437.742 340.871,441.373C361.472,454.504 397.387,468.837 397.497,468.46L390.638,484.359L433.56,498.225L427.809,513.339C427.809,513.339 397.941,503.437 385.564,499.311C379.459,512.85 375.762,527.148 371.319,541.231C370.9,542.366 369.921,541.82 368.395,539.621C346.1,501.594 300.3,474.153 301.845,476.873L139.438,630.967L138.337,726.197L250.732,842.031C250.732,842.031 218.204,858.041 202.813,868.538C214.785,878.307 228.328,885.829 240.222,895.064C264.835,912.419 281.444,937.934 297.402,955.212C372.626,917.919 448.385,919.992 513.82,942.635C506.196,950.659 497.688,957.608 489.832,966.301C508.849,1016.2 502.763,1115.31 501.804,1118C541.402,1077.56 600.301,990.818 592.445,868.699L609.111,851.994C608.802,851.137 567.426,828.99 550.186,824.167L554.952,808.988L513.659,796.089L518.264,784.034L559.402,795.947C567.188,776.827 575.437,750.044 575.437,750.044C591.865,774.619 609.974,796.971 647.242,819.717L808.728,665.219L807.678,565.884L697.737,455.943L743.498,432.095C739.106,428.549 732.731,425.184 728.204,421.63C727.882,421.377 729.112,420.612 728.79,420.363C727.644,419.479 726.8,418.762 725.628,417.948C725.37,417.765 724.539,418.955 724.282,418.773C708.755,407.883 693.216,397.167 680.993,384.139C680.69,383.809 681.141,382.454 680.832,382.126C674.482,375.339 668.158,369.024 661.693,362.344C658.698,359.319 653.746,352.14 653.746,352.14L653.463,349.766L646.52,341.031C624.161,354.219 528.838,387.319 436.6,350.671L454.129,333.143C449.46,321.884 446.44,309.321 445.236,299.031C440.412,257.766 442.254,183.456 442.254,183.456ZM733.014,206.821C737.239,206.821 740.665,210.247 740.665,214.468C740.665,218.688 737.239,222.115 733.014,222.115C728.796,222.115 725.39,218.688 725.39,214.468C725.39,210.247 728.796,206.821 733.014,206.821ZM756.932,215.917C760.828,234.923 769.387,262.522 777.913,281.125L767.757,282.251C759.482,276.877 750.743,269.037 749.822,257.915C727.457,258.086 720.92,223.005 729.086,227.216C728.043,239.2 736.64,243.923 745.076,242.747C752.34,241.735 758.619,231.706 749.977,220.637C753.815,219.142 755.696,218.013 756.932,215.917ZM439.961,272.125C441.443,296.431 446.215,314.157 450.671,332.519L406.474,374.217C409.919,336.156 421.099,302.143 439.961,272.125ZM651.917,352.181L657.526,360.231C593.662,397.734 484.654,400.385 418.246,368.763L427.062,360.371C485.459,386.74 580.531,388.699 651.917,352.181ZM237.125,364.698C230.691,364.619 223.266,367.072 215.39,373.07C186.095,359.723 166.904,390.924 185.026,411.589C182.341,426.462 180.312,429.233 191.505,444.291C179.61,445.804 164.605,442.694 151.835,440.729C153.992,462.755 185.535,467.883 198.666,465.462C212.846,462.39 226.222,469.405 226.802,469.567C235.135,471.895 240.319,475.907 248.536,477.839C262.092,481.063 281.946,465.176 284.818,450.087C285.095,448.06 285.72,446.224 284.599,445.921C275.332,448.291 265.151,451.632 256.122,453.609C247.28,455.778 240.615,457.918 233.885,463.188L233.325,444.995C279.222,447.179 259.246,403.541 256.644,401.667C265.177,384.449 254.918,364.917 237.125,364.698ZM654.306,366.066L664.288,390.075L637.769,399.071L630.987,375.565L654.306,366.066ZM235.212,366.791C250.816,366.942 264.765,383.372 249.785,401.768C278.829,427.382 241.607,454.832 223.884,435.778C200.289,457.385 175.225,434.817 188.401,411.287C163.24,388.769 194.274,358.569 215.474,378.021C220.677,370.018 228.122,366.722 235.212,366.791ZM416.334,375.585C420.069,375.585 423.095,378.613 423.095,382.347C423.095,386.082 420.069,389.109 416.334,389.109C412.598,389.109 409.572,386.082 409.572,382.347C409.572,378.613 412.598,375.585 416.334,375.585ZM243.526,376.089C243.14,376.093 242.676,376.268 242.174,376.712C241.42,376.782 239.778,379.603 235.656,384.38C228.495,392.682 227.722,392.76 227.722,392.76C220.091,390.264 214.984,391.612 209.955,394.793C209.955,394.793 204.223,393.706 196.315,387.097C192.702,384.08 190.764,383.426 190.133,385.044C189.463,386.767 191.105,388.465 198.022,393.174C207.604,399.691 207.005,399.193 207.005,399.193C206.413,404.92 207.347,409.575 209.51,413.91C209.51,413.91 207.823,417.978 201.023,426.883C199.097,429.4 197.526,432.137 197.519,432.961C197.507,436.425 200.527,434.097 207.482,425.313C210.206,421.871 213.948,416.942 213.948,416.942C222.107,419.77 224.973,418.05 230.092,416.23C230.092,416.23 231.844,417.535 236.3,421.085C244.447,427.579 246.205,428.27 247.21,427.447C248.555,426.337 248.375,425.974 245.297,423.744C236.107,417.091 232.945,413.246 232.945,413.246C234.813,405.969 232.771,399.948 230.769,396.151C230.769,396.151 230.91,395.224 236.101,389.431C239.907,385.177 245.123,378.463 244.795,377.497C244.878,376.896 244.376,376.079 243.526,376.089ZM431.59,377.558L455.475,384.984L450.207,409.818L424.744,401.607L431.59,377.558ZM604.462,383.656L611.12,407.886L586.269,414.487L582.199,388.767L604.462,383.656ZM621.907,384.058C625.642,384.058 628.669,387.086 628.669,390.82C628.669,394.554 625.642,397.582 621.907,397.582C618.172,397.582 615.145,394.554 615.145,390.82C615.145,387.086 618.172,384.058 621.907,384.058ZM678.398,384.923L699.289,403.518L676.105,415.231L664.932,391.001L678.398,384.923ZM481.415,390.296L505.687,393.154L504.701,419.236L476.849,415.512L481.415,390.296ZM397.22,390.579L424.222,402.432L414.485,429.64L386.832,417.766L397.22,390.579ZM466.829,392.691C476.778,394.249 474.106,405.994 466.829,406.215C463.093,406.215 460.067,403.188 460.067,399.453C460.067,395.719 463.093,392.691 466.829,392.691ZM554.147,392.711L557.47,418.813L532.271,420.342L531.73,393.818L554.147,392.711ZM571.477,395.69C575.212,395.69 578.238,398.717 578.238,402.452C578.238,406.186 575.212,409.214 571.477,409.214C567.741,409.214 564.715,406.186 564.715,402.452C564.715,398.717 567.741,395.69 571.477,395.69ZM220.709,398.138C224.56,398.138 227.69,401.249 227.69,405.101C227.69,408.953 224.56,412.085 220.709,412.085C216.858,412.085 213.741,408.953 213.741,405.101C213.741,401.249 216.858,398.138 220.709,398.138ZM519.069,397.883C522.804,397.883 525.831,400.911 525.831,404.645C525.831,408.38 522.804,411.407 519.069,411.407C515.334,411.407 512.307,408.38 512.307,404.645C512.307,400.911 515.334,397.883 519.069,397.883ZM637.749,399.554L647.564,426.38L620.04,435.255L612.247,407.704L637.749,399.554ZM657.069,400.278C660.798,400.278 663.831,403.306 663.831,407.04C663.831,410.775 660.798,413.802 657.069,413.802C653.334,413.802 650.307,410.775 650.307,407.04C650.307,403.306 653.334,400.278 657.069,400.278ZM704.66,407.885L722.453,420.463L713.637,425.374C711.325,419.845 707.248,413.288 704.66,407.885ZM450.368,410.321L476.63,416.015L472.624,443.526L443.967,437.811L450.368,410.321ZM372.259,411.829L386.208,418.39L377.012,441.313L354.453,429.298L372.259,411.829ZM434.61,413.319C438.345,413.319 441.372,416.346 441.372,420.081C441.372,423.815 438.345,426.843 434.61,426.843C430.875,426.843 427.848,423.815 427.848,420.081C427.848,416.346 430.875,413.319 434.61,413.319ZM586.288,414.829L590.976,442.338L561.353,446.504L559.524,418.451L586.288,414.829ZM697.196,415.351C700.931,415.351 703.958,418.379 703.958,422.113C703.958,425.848 700.931,428.875 697.196,428.875C693.461,428.875 690.434,425.848 690.434,422.113C690.434,418.379 693.461,415.351 697.196,415.351ZM676.182,415.553L685.984,439.803L657.005,451.918L648.433,427.648L676.182,415.553ZM602.285,417.303C606.02,417.303 609.047,420.331 609.047,424.065C609.047,427.8 606.02,430.827 602.285,430.827C598.55,430.827 595.523,427.8 595.523,424.065C595.523,420.331 598.55,417.303 602.285,417.303ZM504.418,420.061L532.155,420.564L531.833,448.376L501.462,447.531L504.418,420.061ZM726.214,421.993L737.123,429.56C624.863,501.744 467.17,510.693 344.11,439.642C344.11,439.642 349.133,434.631 351.999,431.693C462.932,498.085 624.895,488.768 726.214,421.993ZM489.387,425.132C493.123,425.132 496.149,428.16 496.149,431.894C496.149,435.629 493.123,438.656 489.387,438.656C485.652,438.656 482.626,435.629 482.626,431.894C482.626,428.16 485.652,425.132 489.387,425.132ZM546.322,426.662C550.051,426.662 553.084,429.689 553.084,433.424C553.084,437.158 550.051,440.186 546.322,440.186C542.587,440.186 539.561,437.158 539.561,433.424C539.561,429.689 542.587,426.662 546.322,426.662ZM414.241,430.385L443.201,438.757L438.268,461.618L406.513,452.481L414.241,430.385ZM395.082,430.546C398.817,430.546 401.844,433.573 401.844,437.308C401.844,441.042 398.817,444.069 395.082,444.069C391.347,444.069 388.32,441.042 388.32,437.308C388.32,433.573 391.347,430.546 395.082,430.546ZM620.014,435.416L626.937,461.075L594.924,467.917L591.06,442.681L620.014,435.416ZM638.413,439.139C642.148,439.139 645.174,442.166 645.174,445.901C645.174,449.635 642.148,452.663 638.413,452.663C634.677,452.663 631.651,449.635 631.651,445.901C631.651,442.166 634.677,439.139 638.413,439.139ZM220.123,443.123L220.059,461.115C214.753,456.738 208.751,452.079 202.613,447.37C208.873,447.702 214.695,445.974 220.123,443.123ZM154.173,443.566C155.634,443.552 159.054,444.746 163.131,444.733C176.165,444.692 200.52,448.76 207.72,454.675C210.122,456.639 213.716,458.385 215.673,461.558C215.667,463.071 213.529,463.11 210.38,461.155C204.346,457.406 194.3,454.063 180.859,452.2C178.425,451.863 178.123,451.962 178.123,453.105C178.116,454.519 180.357,455.344 187.435,456.506C196.599,458.01 198.55,458.909 200.578,459.465C206.02,460.954 202.543,462.945 196.94,463.48C174.085,465.621 156.974,455.786 153.529,444.552C153.252,443.815 153.509,443.573 154.173,443.566ZM472.605,443.969L501.359,447.692L500.052,471.761L468.58,468.158L472.605,443.969ZM228.051,446.062C233.074,450.006 229.616,461.963 226.885,465.482C225.108,467.458 220.961,466.411 220.986,463.631C221.611,461.134 220.729,449.242 221.27,445.558C223.273,444.418 226.222,444.74 228.051,446.062ZM561.314,447.128L562.802,471.942L531.427,473.371L531.672,449L561.314,447.128ZM455.456,448.799C459.191,448.799 462.218,451.826 462.218,455.561C462.218,459.295 459.191,462.323 455.456,462.323C451.721,462.323 448.694,459.295 448.694,455.561C448.694,451.826 451.721,448.799 455.456,448.799ZM280.632,449.141C281.792,467.35 253.823,479.705 243.365,474.115C238.735,471.64 240.66,470.115 249.843,468.26C261.731,465.112 269.556,462.048 269.569,459.827C269.575,458.464 267.772,458.629 262.923,460.431C255.465,462.936 247.712,464.014 240.589,467.213C235.264,469.63 233.19,470.477 231.992,469.024C229.487,465.977 241.317,458.289 253.585,456.245C262.794,454.711 272.074,449.803 280.632,449.141ZM578.618,451.415C582.353,451.415 585.38,454.442 585.38,458.177C585.38,461.911 582.353,464.938 578.618,464.938C574.883,464.938 571.856,461.911 571.856,458.177C571.856,454.442 574.883,451.415 578.618,451.415ZM515.733,456.366C519.468,456.366 522.495,459.393 522.495,463.128C522.495,466.862 519.468,469.889 515.733,469.889C511.998,469.889 508.971,466.862 508.971,463.128C508.971,459.393 511.998,456.366 515.733,456.366ZM666.407,467.857C711.66,510.948 761.266,560.557 802.185,601.363C802.127,622.715 802.005,665.42 802.005,665.42L645.754,813.921C617.464,796.649 593.507,775.056 571.457,736.701C573.943,734.556 576.133,733.191 578.013,730.847L569.867,735.715C541.042,689.617 528.819,597.773 577.775,524.145L528.31,525.956L536.379,509.112L590.229,506.174L612.009,482.809C612.009,482.809 618.906,481.533 624.625,480.213C630.298,478.904 641.877,475.592 650.365,472.848C658.853,470.103 666.078,467.856 666.407,467.857ZM301.124,479.791C301.124,479.791 347.626,505.065 373.45,555.681C289.977,627.482 258.512,711.096 251.415,798.124C205.981,755.627 183.023,732.122 141.976,690.858L143.463,629.276L301.124,479.791ZM476.688,487.821C464.658,513.544 454.303,541.725 445.03,571.921L432.092,568.098C432.092,568.098 440.464,564.597 444.186,562.382L437.469,551.555L450.207,546.322L442.679,537.146L455.597,529.659L449.138,521.55L460.975,515.633L453.627,507.18L466.043,500.257L459.564,492.168L476.688,487.821ZM480.655,487.881C480.655,487.881 482.323,488.198 484.274,488.585C484.744,488.405 481.943,495.326 482.246,495.568C486.76,496.498 487.024,496.247 488.383,496.655L491.822,489.531L497.476,490.598C486.071,516.342 473.874,544.51 466.867,575L460.208,573.611C460.208,573.611 462.153,567.182 462.16,566.327C461.374,566.161 457.626,564.582 456.467,564.113C456.061,565.118 453.685,572.565 453.685,572.565L448.417,572.424C457.046,539.133 472.09,502.216 480.655,487.881ZM502.325,488.866L514.142,498.647L500.735,503.86L507.683,513.097L493.47,518.228L501.623,527.828L487.559,533.02L495.95,544.632L481.318,549.562L490.553,559.766L477.351,565.944L485.26,573.772C485.26,573.772 477.023,576.488 476.546,576.61C475.226,576.949 469.688,575.584 469.688,575.584C478.034,545.873 488.344,515.757 502.325,488.866ZM214.926,493.817C211.668,495.934 213.529,500.545 209.433,504.483C208.783,505.189 208.725,506.811 208.467,508.227C208.274,509.301 205.041,522.157 205.041,522.157C205.041,522.157 205.859,521.175 207.153,517.074C208.255,513.575 209.214,506.934 209.813,505.825C212.833,504.904 213.291,495.065 216.35,496.412C218.114,497.19 217.779,498.798 216.781,502.572C214.604,510.112 213.748,513.29 217.483,508.146C223.066,501.427 223.614,495.363 217.322,494.079C216.659,493.952 215.313,493.83 214.926,493.817ZM299.334,496.615L153.329,633.704L152.885,684.86L203.702,736.359L239.765,771.315C252.851,693.027 282.886,618.341 356.829,553.708C345.495,535.491 326.085,512.543 299.334,496.615ZM692.888,498.023C607.102,538.342 587.37,621.033 613.941,695.891C654.821,643.31 686.905,593.912 692.888,498.023ZM387.56,502.209L426.521,514.747L411.845,564.777L376.767,554.131L373.186,545.276L387.56,502.209ZM688.579,503.518C684.851,570.42 659.626,635.762 615.731,687.034C593.533,632.279 606.883,544.738 688.579,503.518ZM478.742,503.88L476.289,510.098L481.679,511.628L483.972,505.309L478.742,503.88ZM473.346,518.571L471.137,524.89L476.669,526.761L478.742,520.342L473.346,518.571ZM703.172,519.718C691.162,612.519 641.027,696.967 588.059,740.004C604.938,767.38 624.786,784.993 644.949,799.689L794.155,656.766L793.569,609.091L703.172,519.718ZM308.891,544.351C307.976,547.743 307.648,549.468 307.648,549.468C307.648,549.468 309.367,547.88 313.901,545.399C343.222,530.777 333.761,553.013 319.948,561.237C316.863,562.881 313.688,564.833 313.688,564.833C313.688,564.833 316.618,565.497 319.8,566.087C337.593,569.784 333.8,580.19 315.247,578.571C312.503,578.331 309.283,577.812 309.277,577.965C309.277,578.119 310.391,582.027 311.673,585.262C317.932,601.018 306.263,602.244 298.587,592.226C297.518,590.832 295.096,586.983 295.096,586.983C295.096,586.983 294.337,589.895 293.879,592.709C287.246,617.404 270.889,616.778 276.994,591.724C277.754,589.134 278.688,584.501 278.688,584.501C278.688,584.501 275.01,586.723 271.005,588.511C249.818,597.971 246.379,588.235 265.628,573.999C271.101,569.948 272.956,568.358 272.956,568.358C269.549,568.097 266.407,567.575 263.631,566.878C248.279,563.024 244.183,553.846 268.783,554.277C272.422,554.35 276.118,554.591 276.118,554.591C276.118,554.591 274.907,549.314 273.626,545.339C267.688,526.931 279.654,524.741 289.738,541.231C291.889,544.738 292.501,544.761 292.501,544.761C292.192,544.772 293.139,538.481 295.579,532.663C307.796,510.038 312.581,530.688 308.891,544.351ZM572.765,526.037C562.519,544.143 553.58,562.145 549.317,580.917L509.454,580.233C512.21,563.588 519.249,546.276 527.666,527.969C543.895,527.526 558.532,526.813 572.765,526.037ZM467.511,534.067L465.219,540.728L470.995,542.499L473.088,536.019L467.511,534.067ZM169.384,546.564C165.114,557.662 163.684,570.023 161.314,579.931C160.316,585.673 161.334,588.065 164.779,589.349C169.673,591.176 176.744,588.686 180.698,583.03C182.927,579.839 184.543,573.251 184.884,561.617L185.264,551.253C179.204,550.127 175.07,548.504 169.384,546.564ZM462.121,548.013L460.208,554.131L465.779,556.204L467.917,550.025L462.121,548.013ZM720.315,550.307C727.103,550.474 728.358,551.082 734.502,554.715L746.358,566.91C743.254,569.885 741.309,574.064 741.309,578.703C741.309,587.725 748.625,595.045 757.647,595.045C762.116,595.045 769.123,590.335 769.123,590.335L787.908,609.791C776.954,614.588 766.231,603.551 762.2,599.184C761.253,598.16 761.009,597.457 761.009,597.457C761.009,597.457 761.176,597.994 760.783,600.153C759.212,608.816 750.666,634.382 742.494,633.019C733.291,631.485 742.661,594.938 742.764,595.781C736.434,602.468 705.613,609.588 707.77,602.121C712.059,587.288 735.114,581.572 738.147,578.995C725.892,571.62 710.346,551.168 720.315,550.307ZM170.878,550.787C174.78,551.062 177.459,551.533 180.112,552.642C181.349,552.972 181.407,554.005 181.542,554.976C181.568,559.357 182.663,572.213 178.606,572.344C174.091,572.249 169.86,573.216 166.891,575.483C164.502,577.306 163.71,575.989 164.354,571.318C164.979,566.791 167.233,557.278 168.199,553.427C168.353,551.838 169.615,550.716 170.878,550.787ZM292.688,550.951C283.666,550.951 276.35,558.27 276.35,567.293C276.35,576.314 283.666,583.634 292.688,583.634C301.71,583.634 309.032,576.314 309.032,567.293C309.032,558.27 301.71,550.951 292.688,550.951ZM292.688,556.667C298.555,556.667 303.314,561.428 303.314,567.293C303.314,573.157 298.555,577.898 292.688,577.898C286.828,577.898 282.062,573.157 282.062,567.293C282.062,561.428 286.828,556.667 292.688,556.667ZM377.005,556.865C414.46,621.519 410.119,710.258 365.961,774.818L413.436,771.495L407.202,783.654L356.584,788.58C348.85,795.664 341.811,803.753 334.206,811.326L334.129,813.998C316.773,818.03 299.411,822.666 281.721,829.042C272.383,819.872 254.828,801.55 254.944,801.086L256.071,795.155C376.438,733.745 341.225,610.581 332.75,600.454C345.669,584.95 361.079,570.359 377.005,556.865ZM711.08,568.62C715.955,568.62 719.896,572.58 719.896,577.455C719.896,582.331 715.955,586.29 711.08,586.29C706.205,586.29 702.245,582.331 702.245,577.455C702.245,572.58 706.205,568.62 711.08,568.62ZM750.325,570.996L765.117,586.23C763.198,588.124 760.558,589.309 757.647,589.309C751.787,589.309 747.021,584.568 747.021,578.703C747.021,575.678 748.29,572.931 750.325,570.996ZM242.277,572.887C247.152,572.887 251.093,576.826 251.093,581.702C251.093,586.577 247.152,590.537 242.277,590.537C237.402,590.537 233.441,586.577 233.441,581.702C233.441,576.826 237.402,572.887 242.277,572.887ZM176.59,576.59C180.724,577.972 179.758,581.835 174.42,585.233C170.961,587.433 167.799,587.918 164.76,586.29C158.996,583.206 170.949,574.577 176.59,576.59ZM244.833,598.204L191.646,649.662C194.989,641.112 195.117,632.585 195.369,624.044C211.372,625.693 218.076,617.574 215.731,600.86C226.074,601.477 236.783,600.387 244.833,598.204ZM330.059,604.08C354.723,674.403 333.304,748.827 256.161,791.923C259.342,724.536 287.62,660.112 330.059,604.08ZM400.318,610.238C442.647,621.319 490.836,626.483 540.868,626.519C541.241,645.556 542.156,665.689 546.058,685.122C503.439,673.974 455.836,668.791 403.84,669.707C405.998,649.586 402.539,626.763 400.318,610.238ZM714.216,620.643L669.137,673.349L671.031,644.571C686.216,646.504 691.625,638.496 689.384,622.676C697.666,623.7 705.941,622.25 714.216,620.643ZM276.189,623.561L272.628,644.611C263.631,644.855 254.796,648.049 254.918,668.137L228.032,667.815L276.189,623.561ZM772.298,627.445C777.173,627.445 781.114,631.404 781.114,636.28C781.114,641.155 777.173,645.115 772.298,645.115C767.423,645.115 763.462,641.155 763.462,636.28C763.462,631.404 767.423,627.445 772.298,627.445ZM235.296,630.121C240.171,630.121 244.131,634.081 244.131,638.956C244.131,643.832 240.171,647.771 235.296,647.771C230.421,647.771 226.46,643.832 226.46,638.956C226.46,634.081 230.421,630.121 235.296,630.121ZM752.598,639.178L747.89,671.055C735.61,669.975 725.357,671.868 728.506,693.474C718.113,692.458 703.687,694.912 694.014,695.749L752.598,639.178ZM708.588,644.954C713.463,644.954 717.417,648.913 717.417,653.788C717.417,658.663 713.463,662.603 708.588,662.603C703.707,662.603 699.752,658.663 699.752,653.788C699.752,648.913 703.707,644.954 708.588,644.954ZM170.575,651.796C175.45,651.796 179.411,655.755 179.411,660.63C179.411,665.506 175.45,669.445 170.575,669.445C165.7,669.445 161.759,665.506 161.759,660.63C161.759,655.755 165.7,651.796 170.575,651.796ZM199.857,662.24C211.133,664.771 205.917,691.055 203.38,698.203C203.187,698.396 234.839,681.62 236.725,689.026C237.962,703.87 210.522,714.219 210.522,714.219C210.522,714.219 229.017,730.286 229.539,740.384C229.584,746.914 221.804,745.704 211.706,737.428C207.392,733.184 204.049,730.01 201.081,727.06C204.552,724.066 206.735,719.628 206.735,714.683C206.735,705.66 199.419,698.345 190.397,698.345C185.412,698.345 180.956,700.579 177.962,704.102C175.617,701.842 172.964,699.214 169.403,695.846C163.575,690.394 159.479,686.059 160.065,684.096C167.767,678.677 183.075,693.235 184.44,694.558C183.294,691.723 191.756,663.75 199.857,662.24ZM184.44,694.558C184.498,694.713 184.582,694.803 184.704,694.803C184.704,694.803 184.504,694.622 184.44,694.558ZM665.138,682.767C670.503,682.693 670.168,694.899 668.255,701.243C666.948,706.079 665.66,710.033 665.66,710.033C665.66,710.033 670.181,706.504 672.177,705.57C686.776,698.731 692.218,706.472 684.857,715.449C681.321,720.066 676.498,721.09 672.583,724.967C678.16,725.225 684.567,726.461 689.384,729.295C693.132,731.536 696.075,734.253 696.069,735.934C696.049,739.708 686.783,741.743 678.114,740.764C674.431,740.848 667.489,738.877 667.489,738.877C667.489,738.877 670.367,743.714 671.417,746.605C674.65,755.582 673.516,766.099 668.841,766.086C661.01,763.993 657.191,755.286 654.126,749.039C651.614,756.007 649.18,763.458 643.584,768.636C638.033,773.775 635.186,769.512 635.47,760.811C635.586,757.353 638.129,747.024 638.129,747.024C605.247,758.126 607.694,743.108 633.351,729.958C617.547,722.423 607.946,715.636 634.826,714.103C634.117,713.459 629.423,699.06 634.446,695.685C639.115,692.554 649.064,703.316 649.541,703.838C649.341,702.775 652.162,694.346 656.882,688.523C660.508,684.422 663.193,682.794 665.138,682.767ZM634.826,714.103C634.864,714.135 634.896,714.135 634.909,714.103L634.826,714.103ZM778.763,704.591C773.038,705.113 769.477,710.194 766.824,714.625C766.289,715.52 765.297,715.842 764.93,717.027C762.554,724.664 760.487,733.816 759.218,745.208C762.844,746.702 771.029,749.213 774.648,747.861C775.666,747.436 775.35,744.802 775.691,743.939C781.404,729.565 784.224,718.817 784.224,712.216C784.224,706.89 782.395,704.263 778.763,704.591ZM190.436,703.941C196.302,703.941 201.061,708.7 201.061,714.567C201.061,717.935 199.49,720.936 197.036,722.874C190.191,716.054 186.688,712.474 182.102,707.985C184.054,705.519 187.055,703.941 190.436,703.941ZM780.785,708.996C782.221,712.48 777.611,716.267 771.634,716.248C768.086,716.228 766.927,716.731 768.511,713.652C770.391,709.904 778.042,702.325 780.785,708.996ZM700.673,706.536C705.548,706.536 709.509,710.497 709.509,715.372C709.509,720.247 705.548,724.181 700.673,724.181C695.798,724.181 691.844,720.247 691.844,715.372C691.844,710.497 695.798,706.536 700.673,706.536ZM234.974,707.161C239.849,707.161 243.809,711.096 243.809,715.971C243.809,720.846 239.849,724.806 234.974,724.806C230.099,724.806 226.158,720.846 226.158,715.971C226.158,711.096 230.099,707.161 234.974,707.161ZM652.638,710.741C643.616,710.741 636.294,718.057 636.294,727.079C636.294,736.102 643.616,743.424 652.638,743.424C661.661,743.424 668.983,736.102 668.983,727.079C668.983,718.057 661.661,710.741 652.638,710.741ZM434.249,712.931C429.947,731.761 423.34,749.761 414.988,767.573C399.236,768.52 382.209,769.261 370.971,770.851C389.679,738.092 390.13,730.389 397.053,713.034L434.249,712.931ZM461.316,715.591C465.74,716.112 470.589,716.782 474.956,717.626C466.919,745.929 456.287,774.986 442.557,802.954L434.249,801.666L430.302,796.791L443.503,791.523L433.219,781.013L450.265,775.861L439.781,765.519L456.621,761.314L447.606,750.366L462.72,744.467L453.125,732.07L469.224,727.646L461.316,715.591ZM652.638,716.454C658.505,716.454 663.264,721.219 663.264,727.079C663.264,732.946 658.505,737.686 652.638,737.686C646.772,737.686 642.012,732.946 642.012,727.079C642.012,721.219 646.772,716.454 652.638,716.454ZM477.976,718.064L483.592,718.972L481.859,724.986L488.26,726.358L490.334,719.86C490.334,719.86 495.48,720.33 496.027,720.743C489.323,748.067 465.624,805.247 465.315,804.944L459.223,804.036L460.833,798.259L455.153,797.461L455.153,797.396L452.416,803.675L446.363,803.173C461.039,769.686 471.027,743.971 477.976,718.064ZM776.265,720.24C780.766,720.221 780.489,722.539 777.231,731.027C774.165,739 773.019,742.194 771.531,743.224C767.983,745.742 760.339,743.636 760.963,739.966C762.973,728.052 763.687,722.971 766.759,721.354C769.96,720.723 773.083,720.253 776.265,720.24ZM500.554,721.226L515.205,724.066L502.95,731.349L510.742,740.442L495.686,746.863L504.824,756.323L490.295,762.26L499.125,772.667L484.055,779.023L494.32,787.917L477.371,793.275L483.791,803.134L477.416,806.696L469.546,805.466C482.606,774.999 490.997,749.935 500.554,721.226ZM536.56,728.509L565.256,736.321L570.994,746.56L557.528,792.026L519.294,780.794L536.56,728.509ZM479.528,732.895L476.791,740.365L483.109,741.672L485.543,733.983L479.528,732.895ZM473.97,750.044L471.233,757.508L477.171,758.68L479.972,751.132L473.97,750.044ZM468.381,765.12L465.579,772.545L471.356,773.73L474.112,766.285L468.381,765.12ZM737.999,778.785C738.005,778.785 735.069,780.904 734.296,781.844C734.94,783.551 736.788,786.172 736.511,787.885C736.26,789.179 734.818,790.222 732.654,792.528C727.251,798.813 725.351,798.131 728.487,791.42C729.518,789.314 729.975,787.357 729.975,787.357C728.725,789.102 727.785,791.175 726.942,792.818C725.158,796.25 723.496,799.496 723.496,799.496C726.935,800.681 729.221,803.244 731.443,804.899C731.443,804.899 732.576,801.859 733.356,798.948C734.45,794.891 736.595,793.217 739.235,791.819C740.897,790.944 742.487,789.34 742.487,789.34C739.583,786.378 739.248,782.147 737.999,778.785ZM462.398,780.614L459.442,788.522L465.199,789.933L468.4,781.863L462.398,780.614ZM137.712,800.494C137.184,831.991 138.228,852.728 137.126,886.692L222.397,997.194L209.092,1001.66C209.092,1001.66 208.95,1003.2 208.229,1003.39C190.004,1008.4 160.452,1013.4 160.452,1013.4C182.431,1063.58 196.689,1126.35 186.855,1189.04L407.543,1188.46L137.712,800.494ZM604.442,853.868L596.83,861.492C484.603,800.752 330.02,800.99 217.225,874.533L208.023,867.791C331.14,788.915 482.606,789.411 604.442,853.868ZM141.834,811.545L401.586,1184.68L371.074,1185.12L142.059,885.52L141.834,811.545ZM699.269,818.287C699.269,818.287 691.767,820.232 685.462,822.254C667.411,828.031 658.969,838.47 660.63,852.96C661.12,857.242 662.227,857.184 669.582,852.541C686.795,841.677 687.871,841.194 709.309,834.909C710.971,834.426 713.373,834.786 713.373,834.786L712.426,851.71C676.691,851.582 678.643,879.962 688.921,894.722C685.327,901.542 677.451,925.363 703.372,934.424C716.303,937 729.994,926.497 729.575,925.956C753.422,937.232 781.101,918.324 759.521,885.565C767.635,871.275 761.917,860.675 754.169,851.556C754.169,851.556 755.477,851.665 766.766,853.745C783.889,856.907 790.432,856.341 790.432,856.341C790.452,840.93 777.688,834.046 751.065,831.953C732.216,834.612 699.269,818.152 699.269,818.287ZM411.729,820.078C413.017,820.071 414.292,820.071 415.574,820.097L414.324,846.423L385.326,847.75L383.432,821.527C393.42,820.838 402.7,820.11 411.729,820.078ZM446.485,820.722L477.596,824.508L472.889,849.115L444.231,846.037L446.485,820.722ZM698.181,821.005C701.375,820.934 700.68,824.251 696.932,824.985C691.342,826.086 676.994,834.432 676.987,836.602C676.981,838 677.696,837.794 682.944,834.992C685.572,833.588 691.046,831.199 695.103,829.66C699.154,828.115 703.79,826.26 705.407,825.532C710.224,823.356 712.619,824.862 710.881,828.971C709.728,831.695 709.277,831.908 698.097,835.456C687.987,838.663 686.132,839.494 679.705,843.602C677.309,845.135 673.066,847.589 670.271,849.038C663.663,852.457 662.324,852.47 662.337,847.872C661.976,834.232 677.058,824.006 697.498,821.063C697.743,821.031 697.969,821.011 698.181,821.005ZM429.555,824.206C433.444,824.206 436.6,827.355 436.6,831.244C436.6,835.134 433.444,838.29 429.555,838.29C425.665,838.29 422.516,835.134 422.516,831.244C422.516,827.355 425.665,824.206 429.555,824.206ZM352.579,826.073L354.897,849.965L326.381,857.287L319.858,832.616C330.767,829.944 341.67,828.063 352.579,826.073ZM719.935,827.883C727.753,829.074 727.128,846.977 723.136,850.081C716.979,854.512 713.205,845.251 715.949,832.957C716.721,829.261 718.151,827.973 719.935,827.883ZM368.762,828.849C372.652,828.849 375.801,832.004 375.801,835.894C375.801,839.79 372.652,842.939 368.762,842.939C364.872,842.939 361.717,839.79 361.717,835.894C361.717,832.004 364.872,828.849 368.762,828.849ZM508.063,830.903L540.301,839.7L532.412,864.654L502.164,856.141L508.063,830.903ZM490.514,831.386C494.404,831.386 497.56,834.542 497.56,838.431C497.56,842.321 494.404,845.477 490.514,845.477C486.625,845.477 483.469,842.321 483.469,838.431C483.469,834.542 486.625,831.386 490.514,831.386ZM754.247,833.479C768.137,833.627 786.452,840.595 786.485,851.33C786.208,854.383 757.389,850.332 744.085,844.974C739.364,843.068 733.613,837.285 733.62,834.87C733.626,833.434 736.434,833.537 737.587,834.928C739.454,837.208 746.094,839.584 761.331,843.422C773.038,846.372 774.204,846.488 774.21,844.71C774.217,843.094 767.3,840.866 759.804,839.616C756.03,839.004 752.514,837.865 746.718,837.362C744.02,837.356 743.363,835.662 745.617,834.509C748.071,833.775 751.04,833.447 754.247,833.479ZM729.717,839.037C733.22,840.679 734.483,843.95 736.415,845.676C734.013,846.816 732.944,847.962 729.054,848.252C729.125,845.683 728.423,842.617 729.717,839.037ZM307.519,840.969C311.409,840.969 314.564,844.124 314.564,848.014C314.564,851.903 311.409,855.053 307.519,855.053C303.629,855.053 300.48,851.903 300.48,848.014C300.48,844.124 303.629,840.969 307.519,840.969ZM288.566,842.959L296.172,867.353L268.925,879.202L259.265,855.033C268.68,850.081 278.984,846.488 288.566,842.959ZM414.563,846.945C414.563,846.945 436.271,846.977 443.767,847.067L442.016,874.598L414.93,874.797L414.563,846.945ZM385.564,848.452L387.071,875.944L360.989,879.447L355.837,851.794L385.564,848.452ZM550.463,848.696C554.353,848.696 557.508,851.852 557.508,855.742C557.508,859.631 554.353,862.78 550.463,862.78C546.574,862.78 543.424,859.631 543.424,855.742C543.424,851.852 546.574,848.696 550.463,848.696ZM739.177,849.34C755.052,849.405 770.198,867.675 754.511,886.808C780.244,906.61 752.263,939.898 729.518,920.501C696.983,952.449 678.804,909.064 692.263,897.556C672.383,864.886 696.809,844.246 722.009,858.659C726.645,852.071 732.963,849.315 739.177,849.34ZM473.346,850.126L501.965,856.482L496.207,883.671L468.258,877.998L473.346,850.126ZM568.057,850.789L594.216,863.792L573.93,883.311L558.861,875.802L568.057,850.789ZM400.318,853.868C404.207,853.868 407.356,857.023 407.356,860.913C407.356,864.803 404.207,867.952 400.318,867.952C396.428,867.952 393.272,864.803 393.272,860.913C393.272,857.023 396.428,853.868 400.318,853.868ZM456.847,854.75C460.736,854.75 463.892,857.905 463.892,861.795C463.892,865.685 460.736,868.84 456.847,868.84C446.479,867.218 449.267,854.982 456.847,854.75ZM326.536,858.717L332.918,885.906L306.418,894.857L296.938,868.377L326.536,858.717ZM344.754,860.649C348.644,860.649 351.793,863.804 351.793,867.694C351.793,871.584 348.644,874.739 344.754,874.739C340.865,874.739 337.709,871.584 337.709,867.694C337.709,863.804 340.865,860.649 344.754,860.649ZM737.078,873.187C735.088,875.667 732.467,878.584 732.467,878.584C725.873,875.866 719.484,876.948 715.208,879.885C715.208,879.885 710.662,876.259 706.514,872.904C699.321,867.095 696.919,865.762 696.912,868.196C696.912,868.699 699.353,871.184 702.328,873.728C710.436,880.67 712.098,883.169 712.098,883.169C710.146,889.467 710.166,894.4 713.888,899.694C713.888,899.694 714.042,900.383 711.196,903.39C706.031,908.838 700.699,917.255 701.929,918.492C703.449,920.031 707.77,916.347 713.186,909.025C717.05,903.809 718.209,903.693 718.209,903.693C724.797,905.47 728.449,907.08 735.03,901.645C735.03,901.645 737.516,902.399 742.481,906.494C750.215,912.876 752.991,914.248 753.828,912.084C754.517,910.32 753.5,909.141 746.95,904.157C742.681,900.911 737.941,897.111 737.941,897.111C739.332,894.825 740.324,886.698 735.552,881.134C735.552,881.134 735.738,881.501 742.79,872.363C747.485,866.284 748.296,865.511 746.738,864.21C744.671,861.499 737.78,872.318 737.078,873.187ZM532.676,865.401L558.494,876.246L549.259,903.229L524.324,893.048L532.676,865.401ZM248.575,867.211C252.464,867.211 255.62,870.367 255.62,874.25C255.62,878.146 252.464,881.295 248.575,881.295C244.685,881.295 241.53,878.146 241.53,874.25C241.53,870.367 244.685,867.211 248.575,867.211ZM512.713,867.932C516.602,867.932 519.758,871.088 519.758,874.978C519.758,878.867 516.602,882.023 512.713,882.023C508.823,882.023 505.667,878.867 505.667,874.978C505.667,871.088 508.823,867.932 512.713,867.932ZM230.543,869.864L238.999,890.794L219.776,876.465L230.543,869.864ZM442.434,875.261L468.155,878.301L464.092,902.811L441.913,900.795L442.434,875.261ZM414.363,875.319L414.099,900.518L389.672,901.561L387.599,876.407L414.363,875.319ZM288.663,879.911C292.553,879.911 295.708,883.06 295.708,886.949C295.708,890.839 292.553,893.995 288.663,893.995C284.773,893.995 281.624,890.839 281.624,886.949C281.624,883.06 284.773,879.911 288.663,879.911ZM269.182,880.413L279.126,905.728L263.708,913.172L243.043,893.615L269.182,880.413ZM361.131,880.735L365.117,904.82L339.641,911.125L333.465,886.608L361.131,880.735ZM725.287,880.973C730.831,880.973 735.333,885.475 735.333,891.019C735.333,896.564 730.831,901.059 725.287,901.059C719.742,901.059 715.247,896.564 715.247,891.019C715.247,885.475 719.742,880.973 725.287,880.973ZM427.185,881.739C431.074,881.739 434.223,884.895 434.223,888.785C434.223,892.674 431.074,895.823 427.185,895.823C423.295,895.823 420.139,892.674 420.139,888.785C420.139,884.895 423.295,881.739 427.185,881.739ZM496.574,884.335L523.738,893.132L514.606,914.885L491.139,908.523L496.574,884.335ZM376.168,885.243C380.058,885.243 383.207,888.398 383.207,892.282C383.207,896.178 380.058,899.327 376.168,899.327C372.278,899.327 369.123,896.178 369.123,892.282C369.123,888.398 372.278,885.243 376.168,885.243ZM479.464,887.838C483.353,887.838 486.509,890.994 486.509,894.883C486.509,898.773 483.353,901.922 479.464,901.922C475.574,901.922 472.425,898.773 472.425,894.883C472.425,890.994 475.574,887.838 479.464,887.838ZM306.959,896.087L316.316,917.622L290.756,928.667L279.628,906.713L306.959,896.087ZM325.068,897.375C328.957,897.375 332.113,900.531 332.113,904.421C332.113,908.31 328.957,911.466 325.068,911.466C321.178,911.466 318.029,908.31 318.029,904.421C318.029,900.531 321.178,897.375 325.068,897.375ZM419.231,903.873C461.194,903.79 499.067,912.561 529.476,925.151L520.421,933.638C421.795,899.752 357.299,915.021 291.162,944.026L284.477,935.776C331.231,912.908 377.276,903.963 419.231,903.873ZM530.802,904.137C534.692,904.137 537.848,907.293 537.848,911.183C537.848,915.072 534.692,918.228 530.802,918.228C526.913,918.228 523.764,915.072 523.764,911.183C523.764,907.293 526.913,904.137 530.802,904.137ZM273.793,919.593C279.454,919.928 279.995,930.489 277.355,927.443L271.056,920.16C272.08,919.722 272.982,919.548 273.793,919.593ZM537.442,923.959C537.236,931.97 529.65,985.634 504.057,1022.53C502.505,1003.87 498.004,981.558 492.968,966.662C492.968,966.662 520.511,941.218 537.442,923.959ZM210.039,1005.28L343.222,1184.88L329.234,1184.77C326.311,1171.59 322.086,1158.09 313.779,1148.01C307.036,1139.82 301.002,1133.65 288.908,1128.15C281.631,1124.84 280.69,1125.54 280.233,1119.96C278.037,1088.54 252.6,1068.79 233.119,1061.27C231.239,1042.29 222.667,1023.61 201.184,1007.88L210.039,1005.28ZM197.069,1009.58C209.24,1017.95 222.577,1025.2 229.764,1058.17C230.298,1065.07 230.723,1064.34 236.139,1066.36C257.365,1072.59 275.828,1098.09 277.477,1120.39C277.458,1127.12 279.654,1127.72 287.942,1131.2C298.117,1135.48 308.685,1144.53 314.667,1153.42C323.561,1166.22 326.703,1185.6 325.937,1184.68L318.608,1184.72C313.386,1151.86 292.714,1138.76 270.85,1132.62C272.55,1086.24 236.487,1071.76 223.891,1069.58C224.631,1036.17 203.019,1022.39 189.07,1011.18C191.672,1010.16 197.069,1009.58 197.069,1009.58ZM175.527,1014.2C186.417,1017.75 194.673,1032.93 193.836,1039.92C208.21,1041.73 223.305,1055.62 219.988,1070.09C218.926,1070.7 217.251,1070.83 215.59,1069.17C219.441,1041.09 177.537,1054.99 194.28,1075.3L186.791,1080.19C180.776,1052.1 173.357,1036.19 165.314,1015.89C168.25,1015.12 175.527,1014.2 175.527,1014.2ZM210.219,1073.04C213.941,1073.04 216.942,1076.06 216.942,1079.79C216.942,1083.51 213.941,1086.53 210.219,1086.53C206.497,1086.53 203.476,1083.51 203.476,1079.79C203.476,1076.06 206.497,1073.04 210.219,1073.04ZM246.192,1103.34C262.189,1107.87 267.373,1124.07 266.845,1129.96L263.348,1129.88C257.719,1104.22 228.476,1118.17 240.679,1138.64C225.05,1144.42 226.28,1158.85 230.884,1164.55C237.241,1172.43 253.437,1172.18 258.376,1160.06C273.574,1179.73 294.549,1157.66 276.047,1139.33C291.2,1144.92 293.628,1165.22 291.355,1171.56C298.387,1173.96 306.489,1185.12 305.407,1185.06L191.865,1185.08C191.865,1185.08 197.365,1139.26 191.524,1104.68C199.078,1106.5 204.146,1108.33 212.833,1098.12C226.898,1109.77 237.009,1100.98 236.281,1090.91C235.199,1083.88 231.561,1080.38 225.533,1076.67C237.846,1073.64 247.152,1094.94 246.192,1103.34ZM258.859,1135.62C262.697,1135.62 265.801,1138.73 265.801,1142.56C265.801,1146.4 262.697,1149.51 258.859,1149.51C255.028,1149.51 251.917,1146.4 251.917,1142.56C251.917,1138.73 255.028,1135.62 258.859,1135.62Z" style="fill-rule:nonzero;"/>
    </g>
</svg>
