<?xml version="1.0" encoding="UTF-8" standalone="no"?>
<!DOCTYPE svg PUBLIC "-//W3C//DTD SVG 1.1//EN" "http://www.w3.org/Graphics/SVG/1.1/DTD/svg11.dtd">
<svg width="100%" height="100%" viewBox="0 0 934 1300" version="1.1" xmlns="http://www.w3.org/2000/svg" xmlns:xlink="http://www.w3.org/1999/xlink" xml:space="preserve" xmlns:serif="http://www.serif.com/" style="fill-rule:evenodd;clip-rule:evenodd;stroke-linejoin:round;stroke-miterlimit:2;">
    <g id="X1">
        <path d="M407.3,62.768C407.3,64.388 409.731,65.739 412.702,65.739C420.266,65.739 421.886,76.003 420.806,119.492C419.995,154.607 419.995,154.877 412.972,156.498C400.547,159.469 410.541,160.82 431.34,159.199C442.145,158.119 448.088,157.308 444.576,157.038C437.013,156.498 436.473,155.147 434.312,131.647C432.961,120.302 433.501,113.82 435.392,113.82C437.013,113.82 449.438,124.084 463.214,136.509C483.473,155.147 489.685,159.199 497.249,159.199C502.381,159.199 506.433,158.119 506.433,156.498C506.433,154.877 505.352,153.527 504.002,153.527C502.651,153.527 489.145,142.722 474.289,129.216L447.007,104.906L466.996,85.998C478.07,75.733 490.496,65.739 494.818,63.848C502.111,60.337 501.841,60.337 490.766,60.337C480.231,60.337 478.341,61.957 461.323,81.676C451.329,93.291 440.794,104.095 437.823,105.716C432.961,108.147 432.691,107.067 432.691,88.699C432.691,69.791 433.231,68.44 440.524,64.658C448.088,60.337 447.547,60.337 427.829,60.066C415.944,60.066 407.3,61.147 407.3,62.768Z" style="fill-rule:nonzero;"/>
        <path d="M562.887,70.871L569.91,76.544L562.347,110.308C552.622,154.337 550.732,159.199 542.898,159.199C529.933,159.199 542.628,164.331 574.772,171.624C592.87,175.676 608.537,179.188 609.347,179.188C610.157,179.188 611.508,176.216 612.588,172.435C613.399,168.653 615.019,163.521 615.83,161.09C616.91,158.659 616.37,156.498 614.479,156.498C612.858,156.498 611.508,158.389 611.508,160.28C611.508,162.44 609.347,165.952 607.186,167.843C601.514,172.435 569.1,166.222 566.669,160.28C565.858,158.119 566.939,148.394 568.829,138.94L572.611,121.923L583.686,123.814C600.163,126.245 606.376,130.297 604.215,136.779C603.134,139.751 603.674,142.182 605.025,142.182C607.996,142.182 615.019,113.82 612.858,111.659C611.778,110.578 610.427,112.739 609.617,116.251C607.726,123.544 607.726,123.544 588.548,119.222C579.634,117.331 574.502,114.9 575.312,113.009C576.123,111.118 578.284,102.205 579.904,93.561C583.416,77.354 583.416,77.354 592.33,78.975C613.669,83.296 621.232,87.348 622.853,95.722L624.473,104.095L627.715,94.371C629.606,88.969 630.416,83.567 629.065,82.486C627.985,81.406 614.209,77.894 598.542,74.653C583.146,71.141 566.939,67.9 563.157,66.819L556.134,65.199L562.887,70.871Z" style="fill-rule:nonzero;"/>
        <path d="M295.742,82.756C283.587,86.538 269.541,98.423 264.409,109.228C252.524,133.808 264.138,168.113 288.719,180.808C311.949,192.964 351.656,176.216 361.65,150.015C369.754,128.676 360.3,98.423 342.202,86.268C331.938,79.515 311.679,77.894 295.742,82.756ZM328.156,92.21C342.472,101.934 351.656,120.572 351.656,140.291C351.926,155.958 351.116,157.578 341.392,166.762C332.208,174.866 328.696,176.216 316.541,176.216C304.116,176.216 300.604,174.866 291.15,166.222C279.535,155.958 271.162,137.05 271.162,121.923C271.162,93.831 304.656,76.273 328.156,92.21Z" style="fill-rule:nonzero;"/>
        <path d="M691.462,106.526C694.163,108.687 696.594,111.929 696.594,113.549C696.594,115.44 688.221,133.538 677.956,154.067C660.399,188.642 658.778,191.073 652.295,189.452C640.68,186.481 644.462,189.992 662.29,198.906C681.468,208.63 686.87,209.981 677.146,202.418L670.663,197.285L689.031,160.28C699.025,139.751 708.75,122.193 710.37,121.113C715.232,118.141 733.6,128.406 736.842,135.699C740.623,144.073 736.572,154.337 726.307,160.82C720.635,164.601 717.663,165.142 710.37,162.44C705.238,160.82 700.376,159.199 699.296,159.199C698.215,159.199 700.106,173.515 703.347,190.803C708.479,218.354 710.1,222.676 716.313,226.188C726.037,231.32 728.468,231.32 725.227,225.107C722.796,220.515 713.612,177.027 713.612,170.004C713.612,168.383 716.583,168.113 720.635,168.923C730.899,171.624 746.026,164.331 750.077,154.607C756.29,139.21 750.888,132.728 719.284,116.791C691.192,102.745 682.008,99.233 691.462,106.526Z" style="fill-rule:nonzero;"/>
        <path d="M180.403,134.348C168.788,141.371 164.736,144.883 169.328,144.073C175.54,142.722 178.242,143.802 182.563,150.015C192.828,165.142 228.483,232.13 228.483,236.722C228.483,239.153 225.782,243.205 222.271,245.636C217.408,248.878 216.868,250.768 219.299,253.47C226.862,260.763 239.288,237.263 235.776,222.406C234.696,218.084 224.161,197.015 212.546,175.406C192.017,137.59 191.207,135.969 196.069,130.837C204.173,121.653 199.581,122.733 180.403,134.348Z" style="fill-rule:nonzero;"/>
        <path d="M353.817,240.504C338.691,248.067 331.397,267.245 337.34,283.993C340.581,293.447 340.311,294.797 330.317,306.682C316.001,324.51 306.277,342.068 297.363,366.648C290.34,385.826 289.8,391.229 289.529,430.125C289.529,470.103 290.07,474.154 297.633,493.603C301.955,504.948 309.248,520.614 313.84,528.448L321.943,542.494L314.38,545.735C310.058,547.626 294.392,549.247 279.535,549.247C256.305,549.247 250.363,548.166 236.587,541.954C220.65,534.39 199.311,517.103 194.178,507.919C192.288,504.137 193.368,500.086 198.77,492.252C206.874,480.097 207.684,471.723 201.201,458.488C193.368,441.47 173.92,433.907 157.173,440.93C143.667,446.603 137.184,454.976 135.563,469.292C133.943,484.689 140.155,497.925 152.04,503.867C159.333,507.649 160.414,509.81 160.414,520.344C160.684,557.62 179.052,602.73 206.064,631.632C236.587,664.046 271.972,682.684 323.564,693.489L352.466,699.701L371.645,723.472C393.794,750.483 394.064,749.133 365.162,762.638C343.553,772.903 320.593,772.633 304.926,762.368C298.443,758.046 290.61,750.213 287.639,744.811C284.397,739.408 280.345,735.087 278.455,735.087C270.621,735.087 268.19,742.38 268.19,766.42C268.19,795.322 274.943,820.173 287.909,840.702C292.771,848.265 296.552,855.018 296.552,855.828C296.552,857.989 284.397,851.236 277.644,845.024C269.811,837.731 262.518,840.432 262.518,850.156C262.518,873.386 298.983,920.926 328.426,936.323C335.989,940.375 341.932,944.427 341.932,945.237C341.932,951.72 300.874,952.26 285.208,946.047C272.782,941.185 265.489,942.266 265.489,949.289C265.489,951.72 272.512,961.444 281.426,970.898C302.225,992.507 333.828,1008.71 364.352,1013.31C375.696,1014.93 388.932,1015.74 393.254,1014.93C397.846,1013.85 401.628,1013.85 401.628,1014.39C401.628,1018.17 380.829,1025.46 365.972,1027.08C351.386,1028.43 348.955,1029.51 348.145,1034.91C346.254,1048.15 393.524,1063.01 429.99,1060.31C469.697,1057.34 499.95,1042.48 527.502,1012.5L543.439,995.749L543.168,1012.23C543.168,1022.49 541.008,1033.3 537.496,1041.13C530.743,1055.98 530.473,1060.04 536.686,1062.47C542.628,1064.9 560.186,1052.74 575.042,1036C592.33,1016.28 602.054,995.749 609.887,960.904L611.508,953.07L617.18,960.093C625.824,971.168 631.496,986.565 633.657,1005.74C635.818,1026.54 642.031,1030.05 650.945,1015.47C669.583,985.214 674.175,934.432 661.479,897.426C657.698,886.081 655.267,876.898 656.347,876.898C662.83,876.898 681.738,903.099 687.951,920.116C690.922,928.49 696.594,930.381 701.727,924.168C706.589,918.225 708.75,885.271 705.238,866.903C703.617,857.719 697.675,840.702 692.273,829.357C686.87,818.012 683.359,808.828 684.169,808.828C688.761,808.828 710.911,823.955 713.612,828.817C717.123,835.57 727.117,836.11 729.549,829.897C733.33,820.173 721.985,795.052 706.589,778.305C683.359,753.454 653.916,739.679 606.376,732.115C595.031,730.495 585.847,728.334 585.847,727.793C585.847,726.983 591.249,719.69 598.002,711.586C604.485,703.483 612.858,692.138 616.37,686.466C626.634,669.989 646.083,662.695 680.928,662.695C716.583,662.695 727.658,666.747 727.658,679.443C727.658,701.322 748.997,720.5 768.985,716.719C784.652,713.747 795.997,701.862 797.618,686.466C799.779,669.718 793.296,657.563 778.71,650C770.606,645.678 767.365,642.437 767.365,637.845C767.365,625.149 758.721,597.057 747.646,574.638C726.577,531.959 683.089,493.873 637.709,478.746C625.554,474.695 613.128,471.183 609.887,471.183C597.192,471.183 596.111,467.131 604.485,451.465C619.881,423.373 649.864,402.574 683.089,397.171C703.617,393.93 710.1,395.821 712.531,405.545C715.503,417.43 721.445,424.993 731.709,429.855C743.595,435.528 751.158,435.528 762.773,430.125C787.353,418.511 788.164,380.154 764.123,367.729C755.21,362.867 740.893,362.326 733.6,366.108C729.819,368.269 725.227,366.648 714.692,358.815C681.738,334.775 645.813,323.97 599.893,323.97C533.984,323.7 479.691,352.062 444.036,404.735C436.202,416.35 428.639,426.344 427.019,427.424C418.915,432.286 387.041,402.033 376.237,379.344C368.133,361.786 363.271,332.884 366.242,319.918C368.403,310.734 370.564,308.573 380.288,305.332C396.225,299.659 404.329,288.855 404.329,272.108C404.329,245.366 377.317,228.619 353.817,240.504ZM377.587,252.659C376.237,256.711 377.047,257.791 380.829,257.521C383.53,257.251 385.961,259.142 385.961,261.303C385.961,263.734 383.8,265.625 381.369,265.355C378.668,265.085 376.777,266.975 377.047,269.677C377.317,272.108 375.426,274.269 373.265,274.269C370.294,274.269 369.214,271.837 369.484,267.516C370.294,262.113 369.484,261.303 366.783,263.734C362.191,267.516 354.627,263.464 357.329,258.872C358.409,256.981 361.921,256.441 365.162,257.251C370.024,258.872 370.564,258.332 368.944,253.199C367.323,248.337 368.403,247.257 373.265,247.257C377.857,247.257 378.668,248.607 377.587,252.659ZM356.248,296.688C356.248,297.228 351.116,307.223 344.903,318.568C330.317,345.849 324.374,368.269 324.104,394.47C323.564,434.447 328.426,445.252 354.627,463.89C361.38,468.482 369.754,483.338 374.346,497.655C375.696,502.246 376.507,502.246 382.179,498.465C393.794,491.172 421.346,484.689 435.932,486.31C449.438,487.39 449.708,487.39 449.708,479.557C449.708,449.304 468.076,408.246 491.846,384.206C532.634,343.418 593.68,332.884 659.588,355.033C691.192,365.568 726.307,383.125 722.526,386.637C721.175,388.257 709.29,386.637 694.704,383.125C659.588,374.752 614.209,372.861 593.95,378.803C560.726,388.528 548.571,402.304 545.87,434.447C544.519,450.654 541.548,461.459 535.605,473.344L527.502,489.821L536.145,488.741C564.778,485.499 603.674,513.321 611.508,542.494C614.749,554.919 620.962,556.81 635.008,549.247C647.433,543.034 662.02,544.114 680.928,553.298C709.56,566.804 735.221,598.408 749.537,637.575C755.21,654.052 755.48,655.943 751.428,657.563C748.727,658.644 744.675,657.833 742.244,655.943C715.773,636.764 662.56,631.902 629.335,645.678C616.64,651.08 617.18,651.08 617.18,643.517C617.18,639.736 612.588,629.471 607.186,620.287C598.002,605.431 597.462,602.73 599.893,593.546C607.726,565.724 599.082,534.931 578.824,517.103C551.542,493.333 516.427,491.982 491.306,514.132L478.881,524.936L470.777,516.293C466.185,511.701 458.622,505.758 454.03,503.327C441.605,496.844 415.944,497.655 400.277,505.218C384.34,513.051 366.783,532.499 362.191,547.356C358.139,561.132 357.869,584.092 361.921,595.437C364.622,603 363.811,605.431 355.708,617.046C347.604,628.391 346.254,633.253 345.173,650.54L344.093,670.529L332.478,668.638C325.995,667.558 311.139,663.506 299.524,659.724C223.351,634.333 168.788,571.666 169.058,509.27C169.058,496.034 173.109,499.275 179.052,517.373C181.753,525.476 187.696,540.063 192.288,549.247C211.466,587.603 225.242,597.597 263.868,600.299C290.61,602.46 314.65,610.563 326.805,621.908L332.748,627.85L344.093,615.695C353.817,605.431 355.168,602.46 353.007,596.787C351.656,593.006 350.576,583.281 350.576,574.638C350.576,560.592 349.495,558.431 338.42,547.356C307.897,516.563 290.07,457.947 296.552,408.516C301.415,369.619 319.512,329.372 342.742,304.792C350.576,296.418 356.248,293.177 356.248,296.688ZM765.744,394.47C766.554,395.821 765.204,398.522 762.773,400.683C758.721,403.924 758.991,404.464 764.394,406.625C767.635,407.706 770.336,410.137 770.336,411.758C770.336,415.809 758.991,415.269 758.721,410.947C758.451,409.056 757.37,410.407 756.02,413.919C753.049,420.942 748.997,422.022 745.756,416.89C744.675,415.269 746.296,412.028 748.997,409.867C754.129,406.355 753.859,406.085 748.187,406.085C744.405,406.085 741.974,404.194 741.974,401.763C741.974,396.631 747.916,396.361 752.508,400.953C755.21,403.654 756.02,403.114 756.02,398.252C756.02,392.039 762.773,389.338 765.744,394.47ZM162.305,455.787C163.655,459.568 164.196,459.568 167.167,455.787C169.598,452.815 171.489,452.275 174.73,454.436C178.242,457.137 178.242,457.947 174.19,460.649C169.868,463.62 169.868,464.16 173.92,467.131C176.351,469.022 177.431,471.993 176.351,473.614C173.109,478.746 169.058,477.666 166.356,470.643L164.196,464.43L160.684,470.913C157.173,477.396 152.04,476.856 152.04,469.833C152.04,467.402 153.931,465.511 156.632,465.511C160.954,465.511 160.954,465.241 156.362,461.729C153.391,459.838 152.04,456.597 153.121,454.706C155.822,450.114 160.414,450.654 162.305,455.787ZM449.438,515.212C459.162,520.074 471.858,534.66 476.99,546.546L480.501,554.919L483.743,546.546C488.605,534.12 499.95,520.074 509.404,515.212C513.726,513.051 523.72,511.16 531.013,511.16C574.502,511.16 603.674,556.27 585.847,595.977L580.174,608.402L589.088,617.046C593.95,621.908 599.623,630.011 601.784,635.144C611.238,657.293 603.674,674.31 564.508,719.42C551.002,734.816 535.875,753.995 530.743,761.828C512.375,790.46 488.605,808.558 474.559,805.047C464.024,802.345 447.817,787.219 429.179,762.368C419.455,749.673 403.248,729.144 392.714,716.719C365.702,684.305 356.248,668.098 356.248,655.132C356.248,640.546 362.461,625.96 372.995,615.965C381.369,608.132 381.369,608.132 376.777,598.678C370.564,586.253 368.944,565.184 372.995,552.218C383.26,521.155 423.507,501.706 449.438,515.212ZM781.681,679.713C781.681,682.144 780.33,684.035 778.71,684.035C773.577,684.035 775.738,689.167 781.951,690.517C785.192,691.328 787.083,693.489 786.003,695.109C783.572,698.891 776.009,699.161 776.009,695.38C776.009,693.759 774.388,692.408 772.767,692.408C771.146,692.408 770.606,693.759 771.687,695.38C773.577,698.621 765.204,702.673 762.503,699.971C761.692,699.161 762.503,696.46 764.394,694.029C767.365,690.517 767.365,689.707 763.583,689.707C760.882,689.707 758.991,688.086 758.991,685.925C758.991,679.443 762.503,678.092 767.905,682.954C772.767,687.546 773.037,687.276 773.037,681.604C773.037,678.092 774.928,675.391 777.359,675.391C779.52,675.391 781.681,677.552 781.681,679.713ZM618.801,746.161C623.933,749.133 632.037,757.776 637.169,765.34C642.031,772.903 648.784,781.817 651.755,785.058L657.157,791.271L642.571,794.242C621.232,798.834 593.95,815.041 594.49,822.334C594.761,823.415 602.324,830.438 611.508,838.001C620.692,845.564 628.525,852.857 628.525,854.208C628.525,855.828 620.962,857.179 612.048,857.179C603.134,857.179 593.14,857.989 589.628,858.8L583.416,860.42L590.439,870.415C601.243,886.622 613.669,933.622 606.916,933.622C606.105,933.622 600.433,931.191 594.49,927.949C588.278,924.708 580.174,922.277 576.393,922.277C570.45,922.277 568.019,919.036 560.996,904.449C556.404,894.725 544.249,875.277 533.984,861.231C523.99,847.185 515.887,835.57 516.157,835.03C516.697,834.759 527.772,839.351 541.278,845.564C569.1,858.8 572.071,859.34 563.967,850.696C555.054,840.972 539.657,814.501 541.548,812.34C542.628,811.529 551.272,812.88 560.996,815.851C570.72,818.552 580.985,821.524 583.956,822.334C587.738,823.415 585.307,818.552 576.123,806.397C560.726,786.409 553.433,780.466 543.439,780.466C530.743,780.466 541.278,775.064 562.887,770.742C587.738,765.34 598.542,759.397 603.134,748.592C606.916,739.408 607.456,739.138 618.801,746.161ZM422.967,775.064C428.099,780.736 428.099,781.006 423.237,784.788C420.266,786.949 414.863,795.052 411.352,802.616C407.84,810.449 403.518,817.472 401.628,818.552C396.225,822.064 401.628,826.116 411.082,825.846C415.944,825.575 422.697,825.305 426.478,825.575L432.691,825.846L425.668,836.65C421.886,842.593 415.404,855.558 411.352,865.553C407.57,875.547 401.628,886.622 398.116,890.133L391.903,896.616L401.357,896.616C414.593,896.616 429.45,888.783 434.312,879.329C436.743,874.737 440.254,862.311 442.415,852.047L445.927,832.869L451.059,844.213C457.542,859.34 455.651,890.944 446.467,917.955C437.283,944.697 430.26,948.748 394.875,946.858C381.369,946.317 369.214,944.967 368.403,944.156C367.593,943.076 369.484,938.754 372.725,934.162C377.587,927.409 390.283,901.478 390.283,898.237C390.283,897.696 384.61,896.616 377.857,895.536C358.409,892.564 308.438,865.823 322.213,865.553C333.558,865.553 396.225,829.627 395.685,823.415C395.685,822.334 388.662,817.202 380.018,811.8C371.645,806.397 360.03,796.943 354.087,791.001L343.283,779.926L354.627,781.547C362.731,782.627 371.915,781.276 385.961,776.414C411.082,768.041 416.484,767.771 422.967,775.064ZM512.375,866.903C520.749,879.329 534.525,896.616 542.628,905.8C557.485,921.467 557.755,922.007 553.163,929.03C550.732,932.812 547.76,943.886 546.68,953.881L544.519,971.978L537.496,959.283C528.582,943.346 517.778,935.243 508.594,937.404C498.869,939.835 471.318,958.743 451.329,976.57L434.582,991.697L441.875,980.352C452.409,964.415 453.76,956.582 447.547,946.317L442.145,937.944L451.329,929.3C462.944,918.225 466.726,904.449 466.726,871.225L466.726,844.213L484.823,876.357C494.818,893.915 504.542,914.444 506.703,921.737C510.214,934.702 510.484,934.702 512.645,926.599C514.266,920.386 511.835,910.122 503.461,885.001C492.927,853.668 489.145,835.57 494.548,841.512C495.898,843.133 504.002,854.478 512.375,866.903Z" style="fill-rule:nonzero;"/>
        <path d="M703.077,1051.66C693.083,1067.06 696.054,1078.94 720.094,1123.24C741.434,1162.14 742.244,1164.03 737.382,1169.16C729.278,1178.35 733.6,1177.27 753.319,1165.38C764.664,1158.63 768.715,1154.85 764.123,1155.93C754.669,1158.09 752.779,1155.66 725.227,1104.88C703.617,1065.71 701.456,1057.07 710.911,1054.09C713.882,1053.01 716.043,1050.85 715.503,1049.23C713.612,1043.02 707.939,1044.1 703.077,1051.66Z" style="fill-rule:nonzero;"/>
        <path d="M208.224,1074.89C210.656,1078.94 220.11,1122.7 220.11,1128.92C220.11,1130 214.977,1130.81 209.035,1130.81C189.046,1130.81 175,1148.09 183.104,1163.22C185.535,1168.08 238.207,1197.26 244.42,1197.26C245.5,1197.26 243.88,1194.82 241.179,1191.58C236.046,1185.91 236.046,1185.1 254.955,1147.28C273.052,1111.36 274.403,1108.93 281.156,1110.55C293.581,1113.79 288.179,1108.12 271.972,1100.82C251.443,1091.91 248.472,1091.1 254.684,1096.23C257.386,1098.39 259.817,1102.17 259.817,1104.88C259.817,1109.74 231.725,1166.73 224.972,1175.92C220.92,1181.32 220.65,1181.32 209.845,1175.65C203.362,1172.4 197.69,1166.73 196.069,1162.41C190.667,1147.01 207.684,1131.62 223.891,1137.83C236.317,1142.42 236.587,1141.61 232.805,1124.32C230.644,1115.41 228.213,1101.36 227.133,1092.99C225.512,1080.57 223.891,1077.59 217.138,1073.81C206.604,1068.41 204.983,1068.68 208.224,1074.89Z" style="fill-rule:nonzero;"/>
        <path d="M601.514,1120.27C588.278,1126.76 576.123,1138.91 571.801,1149.99C563.697,1171.59 573.151,1201.58 591.519,1214C610.697,1226.7 649.054,1218.59 664.451,1198.34C679.577,1178.62 675.255,1145.93 655.267,1126.49C646.893,1118.38 643.111,1116.76 629.065,1115.95C617.18,1115.14 609.617,1116.49 601.514,1120.27ZM645.542,1137.56C669.853,1164.3 667.422,1197.26 640.68,1209.14C619.071,1218.87 600.163,1211.3 588.548,1188.61C572.611,1157.55 581.795,1129.73 609.887,1123.78C623.123,1120.81 634.468,1125.13 645.542,1137.56Z" style="fill-rule:nonzero;"/>
        <path d="M321.133,1125.4C315.461,1146.2 315.19,1145.66 322.754,1136.75L329.777,1128.38L347.334,1132.16C357.058,1134.32 365.702,1137.56 366.783,1139.72C367.593,1141.88 366.512,1151.61 364.622,1160.79L360.84,1178.08L351.116,1176.19C332.748,1172.67 327.076,1169.43 329.236,1163.22C330.047,1160.25 329.777,1157.55 328.156,1157.55C325.185,1157.55 318.162,1185.91 320.593,1188.34C321.673,1189.42 323.024,1187.26 323.834,1183.75C325.725,1176.46 325.725,1176.46 344.633,1180.51C360.57,1184.02 360.03,1182.13 351.926,1210.22C349.225,1220.21 347.874,1221.3 340.851,1220.49C322.754,1218.32 312.219,1212.65 310.598,1204.28L308.978,1195.9L305.736,1205.63C303.846,1211.03 303.035,1216.43 304.386,1217.51C305.466,1218.32 320.593,1222.11 337.61,1225.62C354.898,1229.4 370.834,1232.64 373.265,1233.45C375.426,1234.26 374.346,1232.37 370.564,1229.13C362.731,1222.92 362.191,1228.05 376.507,1165.38C381.639,1142.69 382.719,1140.53 388.932,1140.53C404.329,1140.53 393.794,1135.94 363.811,1129.46C346.254,1125.67 329.777,1122.16 327.346,1121.62C324.374,1120.81 321.943,1122.43 321.133,1125.4Z" style="fill-rule:nonzero;"/>
        <path d="M500.76,1140.53C490.496,1141.61 485.364,1142.69 488.875,1142.96C496.438,1143.5 496.979,1144.85 499.14,1168.35C499.95,1178.89 499.68,1185.91 498.059,1185.91C496.438,1185.91 484.013,1175.92 470.237,1163.49C449.978,1144.85 443.766,1140.8 436.202,1140.8C431.07,1140.8 427.019,1141.88 427.019,1143.5C427.019,1145.12 428.099,1146.2 429.45,1146.2C430.8,1146.2 444.306,1157.28 459.162,1170.51L486.174,1194.82L466.455,1214C455.381,1224.27 442.415,1234.26 437.553,1236.15L428.369,1239.66L441.875,1239.66C449.438,1239.93 455.381,1238.85 455.381,1237.5C455.381,1234.26 495.088,1191.58 498.059,1191.58C499.68,1191.58 500.76,1200.77 500.76,1211.57C500.76,1230.21 500.22,1231.83 493.737,1234.26C482.392,1238.58 485.364,1239.93 506.433,1239.93C517.778,1239.93 526.421,1238.58 526.421,1236.96C526.421,1235.61 523.72,1234.26 520.749,1234.26C512.915,1234.26 511.835,1227.51 512.645,1183.21C513.456,1145.93 513.726,1144.85 519.938,1144.04C523.45,1143.5 525.611,1141.88 524.801,1140.53C523.72,1138.91 522.099,1138.1 521.289,1138.37C520.209,1138.64 511.025,1139.72 500.76,1140.53Z" style="fill-rule:nonzero;"/>
        <path d="M393.524,538.442C384.07,543.034 371.915,556 374.616,558.701C375.426,559.511 379.478,557.08 383.8,553.028C394.605,542.764 402.438,539.252 414.323,539.252C426.748,539.252 438.633,545.195 446.737,555.459C454.3,565.184 458.352,561.672 450.789,551.678C438.363,534.931 412.702,528.988 393.524,538.442Z" style="fill-rule:nonzero;"/>
        <path d="M524.801,538.982C513.726,545.735 505.082,556 507.513,558.431C508.864,559.781 510.754,558.431 512.375,556C517.237,547.356 533.444,539.252 546.68,539.252C559.646,539.252 568.289,543.844 579.364,556.27C583.956,561.672 585.577,562.212 585.847,558.971C585.847,554.109 573.962,541.954 563.967,536.821C554.513,531.959 534.525,533.04 524.801,538.982Z" style="fill-rule:nonzero;"/>
        <path d="M402.978,561.942C399.737,563.293 394.064,567.615 390.283,571.936L382.99,579.5L393.524,577.609C402.708,575.988 404.059,576.258 404.869,582.201C406.22,592.195 414.053,595.437 421.076,589.224C426.748,584.092 427.289,584.092 432.961,589.224L439.174,594.626L437.013,584.632C433.501,567.344 416.484,556 402.978,561.942Z" style="fill-rule:nonzero;"/>
        <path d="M538.576,561.942C535.335,563.293 530.473,567.344 528.042,571.126C522.64,578.689 521.559,593.546 526.691,588.414C528.852,585.982 531.283,585.982 534.795,588.143C541.278,592.195 549.111,588.954 551.002,581.661C552.352,576.528 554.243,575.718 563.427,577.069C573.151,578.419 574.232,578.149 571.801,573.557C569.1,568.695 552.352,558.971 547.22,559.511C545.87,559.511 542.088,560.592 538.576,561.942Z" style="fill-rule:nonzero;"/>
        <path d="M474.559,576.528C472.398,581.661 467.536,595.166 464.024,605.971C460.243,617.046 454.3,630.552 450.248,636.494C440.794,651.08 443.225,658.103 462.404,671.339C476.18,680.793 478.881,681.604 485.093,678.902C494.548,674.581 515.076,655.943 515.076,651.351C515.076,649.46 511.565,643.247 507.783,637.305C503.731,631.362 496.438,614.885 491.846,600.569C479.961,565.184 479.421,564.643 474.559,576.528Z" style="fill-rule:nonzero;"/>
        <path d="M529.122,596.517C529.122,610.833 543.168,624.339 558.025,624.339C563.967,624.339 563.967,624.339 556.944,616.776C552.893,612.454 548.841,606.241 547.76,603C546.95,600.029 542.358,595.977 537.766,594.086C529.933,591.385 529.122,591.385 529.122,596.517Z" style="fill-rule:nonzero;"/>
        <path d="M414.863,595.437C409.461,596.247 407.3,598.138 407.3,602.189C407.3,605.431 403.518,611.644 398.926,616.235L390.553,624.339L397.306,624.339C408.38,624.339 418.105,618.667 422.697,608.672C427.289,598.678 428.369,593.006 424.858,593.816C423.777,593.816 419.185,594.626 414.863,595.437Z" style="fill-rule:nonzero;"/>
        <path d="M377.857,650C366.783,653.512 361.921,658.103 361.921,665.397C361.921,675.391 371.375,682.144 388.662,683.494L404.059,684.575L411.352,699.971C419.455,716.178 436.473,732.115 453.49,739.408C467.536,745.081 491.036,744.541 505.622,738.058C521.559,730.765 539.387,711.586 545.059,695.65L549.921,682.684L562.347,683.494C595.301,686.196 608.266,659.724 578.554,650C553.163,641.626 524.801,659.724 539.117,675.661C543.168,679.983 542.628,681.063 533.984,687.816C515.076,701.862 500.22,708.075 480.231,709.155C463.484,709.966 459.162,709.155 443.496,701.592C433.501,696.73 422.427,690.247 418.915,687.006C412.432,681.604 412.432,680.793 416.754,675.931C427.559,663.776 417.835,650.54 396.766,648.379C390.823,647.839 382.179,648.379 377.857,650ZM443.225,708.885C472.938,722.391 511.025,716.449 533.984,694.569C539.117,689.707 543.439,686.736 543.439,687.816C543.439,692.948 534.255,706.184 524.26,715.638C502.381,736.437 479.151,742.38 457.272,732.656C442.145,726.173 417.294,703.753 410.812,691.328L406.22,682.684L417.294,692.408C423.237,697.54 434.852,705.104 443.225,708.885Z" style="fill-rule:nonzero;"/>
    </g>
</svg>
