<svg clip-rule="evenodd" fill-rule="evenodd" stroke-linejoin="round" stroke-miterlimit="2" viewBox="0 0 224 312" xmlns="http://www.w3.org/2000/svg"><path d="m0 301.18c0 5.87 4.76 10.63 10.63 10.63h201.96c5.87 0 10.63-4.76 10.63-10.63v-290.55c0-5.87-4.76-10.63-10.63-10.63h-201.96c-5.87 0-10.63 4.76-10.63 10.63z" fill="#fff"/><g fill-rule="nonzero"><path d="m215.594 297.967h-3.11v-31.507h3.11zm-12.331 0c2.995 0 5.401-2.689 5.401-6.024v-19.461c0-3.336-2.406-6.024-5.401-6.024h-1.743c-2.996 0-5.407 2.688-5.407 6.024v19.461c0 3.335 2.411 6.024 5.407 6.024zm-.9-2.981c-1.768 0-3.192-1.336-3.192-3.001v-19.723c0-1.665 1.424-3.004 3.192-3.004 1.77 0 3.191 1.339 3.191 3.004v19.723c0 1.665-1.421 3.001-3.191 3.001z"/><path d="m7.628 13.837h3.111v31.507h-3.111zm12.33 0c-2.994 0-5.401 2.688-5.401 6.023v19.462c0 3.337 2.407 6.023 5.401 6.023h1.745c2.994 0 5.405-2.686 5.405-6.023v-19.462c0-3.335-2.411-6.023-5.405-6.023zm.901 2.979c1.768 0 3.192 1.337 3.192 3.002v19.723c0 1.664-1.424 3.006-3.192 3.006-1.769 0-3.191-1.342-3.191-3.006v-19.723c0-1.665 1.422-3.002 3.191-3.002z"/><path d="m155.249 150.968c2.88-5.776 4.97-11.701 5.35-18.038.34-2.331-1.08-2.37-1.29-.728-4.08 15.592-25.76 11.37-25.02-3.297.61-11.895 12.42-14.454 18.58-10.564 2.44 1.432 2.3.574.97-.912-9.15-10.212-3.61-23.362 8.76-23.603 13.38.794 16.85 14.87 8.65 23.149-1.02.994-3.29 4.191.12 1.956 8.29-5.888 19.79.443 19.55 9.52-.43 16.74-20.84 17.988-25.2 4.007-.42-1.55-1.63-2.33-1.3.304.61 4.766 1.86 11.953 5.44 18.206zm-103.54 0c2.88-5.776 4.98-11.701 5.35-18.038.35-2.331-1.07-2.37-1.28-.728-4.08 15.592-25.77 11.37-25.02-3.297.6-11.895 12.42-14.454 18.58-10.564 2.43 1.432 2.3.574.97-.912-9.16-10.212-3.61-23.362 8.76-23.603 13.38.794 16.85 14.87 8.64 23.149-1.02.994-3.28 4.191.13 1.956 8.28-5.888 19.78.443 19.55 9.52-.43 16.74-20.84 17.988-25.2 4.007-.42-1.55-1.63-2.33-1.3.304.61 4.766 1.86 11.953 5.44 18.206zm51.72-32.666c2.88-5.775 4.98-11.7 5.35-18.037.34-2.332-1.08-2.37-1.29-.729-4.08 15.593-25.76 11.37-25.02-3.296.61-11.895 12.42-14.454 18.59-10.565 2.43 1.433 2.29.575.96-.911-9.15-10.212-3.61-23.362 8.76-23.603 13.38.794 16.86 14.87 8.65 23.148-1.02.995-3.28 4.192.12 1.957 8.29-5.888 19.79.443 19.56 9.52-.44 16.74-20.85 17.988-25.21 4.006-.42-1.55-1.63-2.328-1.29.305.6 4.766 1.85 11.953 5.43 18.205zm51.82-32.665c2.88-5.776 4.97-11.701 5.35-18.037.34-2.332-1.08-2.371-1.29-.729-4.08 15.593-25.76 11.37-25.02-3.296.61-11.895 12.42-14.454 18.58-10.565 2.44 1.433 2.3.575.97-.912-9.15-10.211-3.61-23.362 8.76-23.602 13.38.793 16.85 14.87 8.65 23.148-1.02.995-3.29 4.191.12 1.956 8.29-5.888 19.79.443 19.55 9.521-.43 16.739-20.84 17.987-25.2 4.006-.42-1.55-1.63-2.329-1.3.304.61 4.767 1.86 11.954 5.44 18.206zm-103.54 0c2.88-5.776 4.98-11.701 5.35-18.037.35-2.332-1.07-2.371-1.28-.729-4.08 15.593-25.77 11.37-25.02-3.296.6-11.895 12.42-14.454 18.58-10.565 2.43 1.433 2.3.575.97-.912-9.16-10.211-3.61-23.362 8.76-23.602 13.38.793 16.85 14.87 8.64 23.148-1.02.995-3.28 4.191.13 1.956 8.28-5.888 19.78.443 19.55 9.521-.43 16.739-20.84 17.987-25.2 4.006-.42-1.55-1.63-2.329-1.3.304.61 4.767 1.86 11.954 5.44 18.206zm14.71 75.199c-2.88 5.776-4.98 11.701-5.35 18.038-.34 2.331 1.07 2.37 1.29.728 4.07-15.592 25.76-11.37 25.01 3.297-.6 11.895-12.42 14.454-18.58 10.564-2.43-1.432-2.29-.574-.97.912 9.16 10.212 3.61 23.362-8.76 23.603-13.38-.794-16.85-14.87-8.64-23.149 1.02-.994 3.28-4.191-.12-1.956-8.29 5.888-19.79-.443-19.56-9.52.44-16.74 20.84-17.988 25.21-4.007.42 1.55 1.63 2.33 1.29-.304-.6-4.766-1.86-11.953-5.44-18.206zm0 65.331c-2.88 5.776-4.98 11.701-5.35 18.037-.34 2.332 1.07 2.371 1.29.729 4.07-15.593 25.76-11.37 25.01 3.297-.6 11.894-12.42 14.453-18.58 10.564-2.43-1.433-2.29-.575-.97.912 9.16 10.211 3.61 23.362-8.76 23.602-13.38-.793-16.85-14.87-8.64-23.148 1.02-.995 3.28-4.191-.12-1.956-8.29 5.888-19.79-.443-19.56-9.521.44-16.739 20.84-17.987 25.21-4.006.42 1.55 1.63 2.329 1.29-.304-.6-4.767-1.86-11.954-5.44-18.206zm103.53-65.331c-2.88 5.776-4.98 11.701-5.35 18.038-.34 2.331 1.08 2.37 1.29.728 4.08-15.592 25.76-11.37 25.02 3.297-.61 11.895-12.42 14.454-18.58 10.564-2.44-1.432-2.3-.574-.97.912 9.15 10.212 3.61 23.362-8.76 23.603-13.39-.794-16.86-14.87-8.65-23.149 1.02-.994 3.28-4.191-.12-1.956-8.29 5.888-19.79-.443-19.55-9.52.43-16.74 20.84-17.988 25.2-4.007.42 1.55 1.63 2.33 1.29-.304-.6-4.766-1.85-11.953-5.43-18.206zm0 65.331c-2.88 5.776-4.98 11.701-5.35 18.037-.34 2.332 1.08 2.371 1.29.729 4.08-15.593 25.76-11.37 25.02 3.296-.61 11.895-12.42 14.454-18.58 10.565-2.44-1.433-2.3-.575-.97.912 9.15 10.211 3.61 23.362-8.76 23.602-13.39-.793-16.86-14.87-8.65-23.148 1.02-.995 3.28-4.191-.12-1.956-8.29 5.888-19.79-.443-19.55-9.521.43-16.739 20.84-17.987 25.2-4.006.42 1.55 1.63 2.329 1.29-.304-.6-4.767-1.85-11.954-5.43-18.206zm-51.35-32.665c-2.88 5.775-4.98 11.7-5.35 18.037-.34 2.332 1.08 2.37 1.29.729 4.08-15.593 25.76-11.37 25.02 3.296-.61 11.895-12.42 14.454-18.59 10.565-2.43-1.433-2.29-.575-.96.911 9.15 10.212 3.61 23.362-8.76 23.603-13.38-.794-16.85-14.87-8.65-23.148 1.02-.995 3.29-4.192-.12-1.957-8.29 5.888-19.79-.443-19.55-9.52.43-16.74 20.84-17.988 25.2-4.006.42 1.55 1.63 2.328 1.29-.305-.6-4.766-1.85-11.953-5.43-18.205zm-105.44-118.264c1.19-2.445 2.35-4.721 2.99-7.401.42-2.528-.44-1.589-.93.068-.72 2.297-2.72 3.344-4.58 3.369-3.37.045-5.05-2.604-4.95-5.454-.36-2.999 2.67-5.12 4.96-4.957 1.73.123 3.23 1.052 4.14 1.775.59.316 1.23.455.34-.358-1.68-1.833-3.07-2.964-3.04-5.71.03-2.58 2.23-5.269 5.15-5.185 3.65.106 5.31 2.89 5.31 5.48-.01 1.89-.96 3.627-2.42 4.704-.94.766-.68 1.34.4.614 1.04-.892 2.27-1.282 3.55-1.31 3.49-.054 4.85 2.962 4.65 5.765-.19 2.625-2.42 5.328-5.37 5.022-2.63-.302-4.01-2.51-4.8-4.777-.26-.695-.68-.883-.67.153.61 5.058 2.49 8.205 2.51 8.202zm196.91 162.003c-1.2 2.445-2.36 4.72-2.99 7.4-.42 2.528.44 1.59.93-.067.72-2.298 2.72-3.344 4.58-3.37 3.37-.045 5.05 2.605 4.95 5.455.36 2.998-2.68 5.12-4.97 4.956-1.72-.122-3.22-1.052-4.13-1.775-.6-.315-1.23-.454-.34.359 1.67 1.833 3.07 2.964 3.04 5.71-.03 2.58-2.23 5.269-5.15 5.184-3.66-.105-5.32-2.89-5.31-5.48.01-1.888.96-3.626 2.41-4.703.95-.766.68-1.34-.39-.615-1.04.892-2.27 1.283-3.55 1.31-3.49.055-4.85-2.961-4.65-5.764.18-2.626 2.42-5.328 5.37-5.022 2.63.301 4.01 2.51 4.8 4.777.26.695.68.883.67-.153-.61-5.058-2.5-8.205-2.51-8.202z"/></g></svg>