<svg viewBox="0 0 228 316" xmlns="http://www.w3.org/2000/svg" xml:space="preserve" style="fill-rule:evenodd;clip-rule:evenodd"><path d="M6927.61-2424.37c0-5.87-4.76-10.63-10.63-10.63h-201.96c-5.87 0-10.63 4.76-10.63 10.63v290.55c0 5.87 4.76 10.63 10.63 10.63h201.96c5.87 0 10.63-4.76 10.63-10.63v-290.55Z" style="fill:#fff;stroke:#bfbfbf;stroke-width:1px" transform="translate(-6702.328 2437.059)"/><path d="M4881.64-1311.99c32.95-32.16 54.59-67.22 75.29-100.94 18.15 37.1 44.19 69.56 72.36 100.94-30.14 31.11-53.49 64.39-72.27 99.37-20.82-35.86-42.74-68.33-75.38-99.37ZM4881.64-1094.99c32.95-32.16 54.59-67.22 75.29-100.94 18.15 37.1 44.19 69.56 72.36 100.94-30.14 31.11-53.49 64.39-72.27 99.37-20.82-35.86-42.74-68.33-75.38-99.37ZM4881.64-872.791c32.95-32.158 54.59-67.22 75.29-100.939 18.15 37.102 44.19 69.561 72.36 100.939-30.14 31.118-53.49 64.393-72.27 99.374-20.82-35.859-42.74-68.33-75.38-99.374ZM4881.64-656.539c32.95-32.157 54.59-67.219 75.29-100.939 18.15 37.102 44.19 69.562 72.36 100.94-30.14 31.118-53.49 64.393-72.27 99.374-20.82-35.859-42.74-68.33-75.38-99.374ZM5068.25-1197.85c32.95-32.16 54.6-67.22 75.29-100.94 18.15 37.1 44.2 69.56 72.37 100.94-30.14 31.11-53.5 64.39-72.28 99.37-20.81-35.86-42.73-68.33-75.38-99.37ZM5066.7-771.556c32.95-32.158 54.59-67.22 75.29-100.939 18.15 37.102 44.2 69.561 72.37 100.939-30.14 31.118-53.5 64.393-72.28 99.374-20.82-35.859-42.73-68.33-75.38-99.374ZM5252.1-1311.99c32.95-32.16 54.59-67.22 75.29-100.94 18.15 37.1 44.2 69.56 72.37 100.94-30.14 31.11-53.5 64.39-72.28 99.37-20.82-35.86-42.73-68.33-75.38-99.37ZM5252.1-1094.99c32.95-32.16 54.59-67.22 75.29-100.94 18.15 37.1 44.2 69.56 72.37 100.94-30.14 31.11-53.5 64.39-72.28 99.37-20.82-35.86-42.73-68.33-75.38-99.37ZM5252.1-872.791c32.95-32.158 54.59-67.22 75.29-100.939 18.15 37.102 44.2 69.561 72.37 100.939-30.14 31.118-53.5 64.393-72.28 99.374-20.82-35.859-42.73-68.33-75.38-99.374ZM5252.1-656.539c32.95-32.157 54.59-67.219 75.29-100.939 18.15 37.102 44.2 69.562 72.37 100.94-30.14 31.118-53.5 64.393-72.28 99.374-20.82-35.859-42.73-68.33-75.38-99.374ZM5426.56-676.617c13.5-13.173 22.37-27.536 30.85-41.348 7.43 15.198 18.1 28.495 29.64 41.348-12.35 12.748-21.91 26.379-29.61 40.708-8.53-14.689-17.5-27.991-30.88-40.708ZM4799.4-1293.96c13.5-13.17 22.36-27.53 30.84-41.35 7.44 15.2 18.11 28.5 29.65 41.35-12.35 12.75-21.92 26.38-29.61 40.71-8.53-14.69-17.51-27.99-30.88-40.71ZM4797.86-1456.38h10.333v104.652h-10.333zM4838.82-1456.38c-9.95 0-17.95 8.93-17.95 20.01v64.64c0 11.08 8 20.01 17.95 20.01h5.79c9.95 0 17.96-8.93 17.96-20.01v-64.64c0-11.08-8.01-20.01-17.96-20.01h-5.79Zm2.99 9.9c5.87 0 10.6 4.44 10.6 9.97v65.51c0 5.53-4.73 9.98-10.6 9.98-5.88 0-10.6-4.45-10.6-9.98v-65.51c0-5.53 4.72-9.97 10.6-9.97Z" style="fill:#d40000;fill-rule:nonzero" transform="translate(-1434.768 454.352) scale(.30106)"/><path style="fill:#d40000;fill-rule:nonzero" d="M3799.25 1636.12h20.5v207.625h-20.5zM3880.5 1636.12c-19.73 0-35.59 17.71-35.59 39.69v128.25c0 21.99 15.86 39.69 35.59 39.69h11.5c19.73 0 35.62-17.7 35.62-39.69v-128.25c0-21.98-15.89-39.69-35.62-39.69h-11.5Zm5.94 19.63c11.65 0 21.03 8.81 21.03 19.78v129.97c0 10.97-9.38 19.81-21.03 19.81-11.66 0-21.03-8.84-21.03-19.81v-129.97c0-10.97 9.37-19.78 21.03-19.78Z" transform="matrix(-.15175 0 0 -.15175 794.182 548.307)"/></svg>