<svg clip-rule="evenodd" fill-rule="evenodd" stroke-linejoin="round" stroke-miterlimit="2" viewBox="0 0 224 312" xmlns="http://www.w3.org/2000/svg"><g fill="#d40000" fill-rule="nonzero"><path d="m33.223 57.404c9.92-9.682 16.434-20.237 22.666-30.389 5.465 11.169 13.304 20.942 21.785 30.389-9.074 9.366-16.104 19.385-21.758 29.916-6.268-10.796-12.867-20.571-22.693-29.916zm0 65.33c9.92-9.682 16.434-20.237 22.666-30.389 5.465 11.169 13.304 20.942 21.785 30.389-9.074 9.366-16.104 19.385-21.758 29.916-6.268-10.796-12.867-20.571-22.693-29.916zm0 66.895c9.92-9.681 16.434-20.237 22.666-30.388 5.465 11.17 13.304 20.942 21.785 30.388-9.074 9.369-16.104 19.387-21.758 29.918-6.268-10.796-12.867-20.572-22.693-29.918zm0 65.105c9.92-9.681 16.434-20.237 22.666-30.389 5.465 11.17 13.304 20.943 21.785 30.389-9.074 9.369-16.104 19.387-21.758 29.918-6.268-10.796-12.867-20.571-22.693-29.918zm56.18-162.967c9.92-9.682 16.438-20.237 22.667-30.389 5.464 11.169 13.307 20.942 21.788 30.389-9.074 9.366-16.107 19.385-21.761 29.916-6.265-10.796-12.864-20.571-22.694-29.916zm-.466 128.34c9.92-9.681 16.435-20.237 22.667-30.389 5.464 11.17 13.306 20.942 21.787 30.389-9.074 9.369-16.106 19.386-21.76 29.918-6.268-10.796-12.865-20.572-22.694-29.918zm55.816-162.703c9.92-9.682 16.435-20.237 22.667-30.389 5.464 11.169 13.307 20.942 21.788 30.389-9.074 9.366-16.107 19.385-21.761 29.916-6.268-10.796-12.864-20.571-22.694-29.916zm0 65.33c9.92-9.682 16.435-20.237 22.667-30.389 5.464 11.169 13.307 20.942 21.788 30.389-9.074 9.366-16.107 19.385-21.761 29.916-6.268-10.796-12.864-20.571-22.694-29.916zm0 66.895c9.92-9.681 16.435-20.237 22.667-30.388 5.464 11.17 13.307 20.942 21.788 30.388-9.074 9.369-16.107 19.387-21.761 29.918-6.268-10.796-12.864-20.572-22.694-29.918zm0 65.105c9.92-9.681 16.435-20.237 22.667-30.389 5.464 11.17 13.307 20.943 21.788 30.389-9.074 9.369-16.107 19.387-21.761 29.918-6.268-10.796-12.864-20.571-22.694-29.918zm52.523-6.045c4.065-3.965 6.735-8.289 9.288-12.448 2.237 4.576 5.449 8.579 8.923 12.448-3.718 3.838-6.596 7.942-8.914 12.256-2.568-4.422-5.269-8.427-9.297-12.256zm-188.813-185.857c4.065-3.965 6.732-8.288 9.285-12.449 2.24 4.576 5.452 8.581 8.927 12.449-3.719 3.839-6.6 7.942-8.915 12.256-2.568-4.422-5.271-8.426-9.297-12.256zm-.463-48.898h3.111v31.507h-3.111zm12.331 0c-2.995 0-5.404 2.689-5.404 6.024v19.461c0 3.336 2.409 6.024 5.404 6.024h1.743c2.996 0 5.407-2.688 5.407-6.024v-19.461c0-3.335-2.411-6.024-5.407-6.024zm.9 2.981c1.768 0 3.192 1.336 3.192 3.001v19.723c0 1.664-1.424 3.004-3.192 3.004-1.77 0-3.191-1.34-3.191-3.004v-19.723c0-1.665 1.421-3.001 3.191-3.001z"/><path d="m215.97 298.066h-3.111v-31.507h3.111zm-12.33 0c2.994 0 5.401-2.688 5.401-6.023v-19.462c0-3.337-2.407-6.023-5.401-6.023h-1.745c-2.994 0-5.405 2.686-5.405 6.023v19.462c0 3.335 2.411 6.023 5.405 6.023zm-.901-2.979c-1.768 0-3.192-1.337-3.192-3.002v-19.723c0-1.665 1.424-3.006 3.192-3.006 1.769 0 3.191 1.341 3.191 3.006v19.723c0 1.665-1.422 3.002-3.191 3.002z"/></g></svg>