<svg clip-rule="evenodd" fill-rule="evenodd" stroke-linejoin="round" stroke-miterlimit="2" viewBox="0 0 224 312" xmlns="http://www.w3.org/2000/svg"><g fill="#d40000" fill-rule="nonzero"><path d="m8.009 13.931h3.111v31.507h-3.111z"/><path d="m20.341 13.931c-2.996 0-5.404 2.689-5.404 6.024v19.461c0 3.336 2.408 6.024 5.404 6.024h1.743c2.996 0 5.407-2.688 5.407-6.024v-19.461c0-3.335-2.411-6.024-5.407-6.024zm.9 2.981c1.767 0 3.191 1.336 3.191 3.001v19.723c0 1.665-1.424 3.004-3.191 3.004-1.77 0-3.191-1.339-3.191-3.004v-19.723c0-1.665 1.421-3.001 3.191-3.001z"/><path d="m212.867 266.562h3.111v31.507h-3.111z"/><path d="m203.648 298.069c2.994 0 5.401-2.688 5.401-6.023v-19.462c0-3.337-2.407-6.023-5.401-6.023h-1.745c-2.994 0-5.405 2.686-5.405 6.023v19.462c0 3.335 2.411 6.023 5.405 6.023zm-.901-2.979c-1.768 0-3.192-1.337-3.192-3.002v-19.722c0-1.665 1.424-3.006 3.192-3.006 1.769 0 3.191 1.341 3.191 3.006v19.722c0 1.665-1.422 3.002-3.191 3.002z"/><path d="m8.906 60.234c-1.59-3.472-1.76-9.405 2.97-10.208 3.56-.458 5.01 1.199 5.3 3.742.14.743.56.789.69-.058.21-2.61 2.79-4.133 4.81-3.75 5.52.945 5.2 7.028 3.4 11.155-2.74 5.48-5.6 8.938-8.25 14.452-3.04-5.741-6.51-10.405-8.92-15.333z"/><path d="m43.406 28.418c7.14-.474 10.87 5.627 11.59 10.436.44.764.67.549.84-.042.35-6.174 5.87-11.22 10.99-10.53 8.33.108 13.39 9.375 11.97 17.219-1.74 9.581-6.9 15.351-10.81 21.293-4.42 6.152-10.37 15.039-12.29 19.317 0 0-6.05-9.205-13.92-20.03-5.26-7.238-9.47-15.082-9.86-21.835-.45-7.716 2.72-14.632 11.49-15.828z"/><path d="m99.586 61.083c7.14-.474 10.87 5.628 11.6 10.437.43.764.67.548.83-.043.35-6.174 5.88-11.22 10.99-10.53 8.33.109 13.39 9.376 11.97 17.219-1.74 9.582-6.9 15.351-10.81 21.293-4.42 6.153-10.37 15.04-12.29 19.317 0 0-6.04-9.205-13.91-20.03-5.27-7.238-9.48-15.082-9.87-21.835-.45-7.715 2.72-14.632 11.49-15.828z"/><path d="m154.936 28.418c7.14-.474 10.87 5.627 11.59 10.436.44.764.68.549.84-.042.35-6.174 5.88-11.22 10.99-10.53 8.33.108 13.39 9.375 11.97 17.219-1.74 9.581-6.9 15.351-10.81 21.293-4.42 6.152-10.37 15.039-12.29 19.317 0 0-6.04-9.205-13.91-20.03-5.27-7.238-9.48-15.082-9.87-21.835-.45-7.716 2.72-14.632 11.49-15.828z"/><path d="m154.936 93.749c7.14-.475 10.87 5.627 11.59 10.436.44.764.68.549.84-.042.35-6.174 5.88-11.22 10.99-10.53 8.33.108 13.39 9.375 11.97 17.218-1.74 9.582-6.9 15.351-10.81 21.293-4.42 6.153-10.37 15.04-12.29 19.317 0 0-6.04-9.204-13.91-20.029-5.27-7.239-9.48-15.083-9.87-21.836-.45-7.715 2.72-14.631 11.49-15.827z"/><path d="m43.406 93.749c7.14-.475 10.87 5.627 11.59 10.436.44.764.67.549.84-.042.35-6.174 5.87-11.22 10.99-10.53 8.33.108 13.39 9.375 11.97 17.218-1.74 9.582-6.9 15.351-10.81 21.293-4.42 6.153-10.37 15.04-12.29 19.317 0 0-6.05-9.204-13.92-20.029-5.26-7.239-9.47-15.083-9.86-21.836-.45-7.715 2.72-14.631 11.49-15.827z"/><path d="m154.936 218.139c7.14.474 10.87-5.628 11.59-10.437.44-.764.68-.548.84.043.35 6.174 5.88 11.22 10.99 10.53 8.33-.108 13.39-9.376 11.97-17.219-1.74-9.582-6.9-15.351-10.81-21.293-4.42-6.152-10.37-15.04-12.29-19.317 0 0-6.04 9.205-13.91 20.03-5.27 7.238-9.48 15.082-9.87 21.835-.45 7.716 2.72 14.632 11.49 15.828z"/><path d="m154.936 283.244c7.14.475 10.87-5.627 11.59-10.436.44-.764.68-.549.84.042.35 6.174 5.88 11.22 10.99 10.53 8.33-.108 13.39-9.375 11.97-17.218-1.74-9.582-6.9-15.352-10.81-21.294-4.42-6.152-10.37-15.039-12.29-19.316 0 0-6.04 9.204-13.91 20.029-5.27 7.239-9.48 15.083-9.87 21.836-.45 7.715 2.72 14.631 11.49 15.827z"/><path d="m99.116 250.692c7.15.474 10.87-5.628 11.6-10.437.43-.764.67-.549.83.042.35 6.175 5.88 11.221 11 10.531 8.33-.109 13.39-9.376 11.96-17.219-1.73-9.582-6.9-15.351-10.8-21.293-4.43-6.153-10.38-15.04-12.29-19.317 0 0-6.05 9.204-13.92 20.029-5.26 7.239-9.47 15.083-9.87 21.836-.44 7.715 2.72 14.632 11.49 15.827z"/><path d="m43.406 218.139c7.14.474 10.87-5.628 11.59-10.437.44-.764.67-.548.84.043.35 6.174 5.87 11.22 10.99 10.53 8.33-.108 13.39-9.376 11.97-17.219-1.74-9.582-6.9-15.351-10.81-21.293-4.42-6.152-10.37-15.04-12.29-19.317 0 0-6.05 9.205-13.92 20.03-5.26 7.238-9.47 15.082-9.86 21.835-.45 7.716 2.72 14.632 11.49 15.828z"/><path d="m43.406 283.244c7.14.475 10.87-5.627 11.59-10.436.44-.764.67-.549.84.042.35 6.174 5.87 11.22 10.99 10.53 8.33-.108 13.39-9.375 11.97-17.218-1.74-9.582-6.9-15.352-10.81-21.294-4.42-6.152-10.37-15.039-12.29-19.316 0 0-6.05 9.204-13.92 20.029-5.26 7.239-9.47 15.083-9.86 21.836-.45 7.715 2.72 14.631 11.49 15.827z"/><path d="m197.716 251.092c-1.58 3.472-1.76 9.405 2.97 10.208 3.56.458 5.01-1.198 5.3-3.742.14-.743.56-.788.7.058.2 2.61 2.78 4.133 4.8 3.75 5.53-.945 5.21-7.028 3.4-11.155-2.73-5.48-5.6-8.938-8.24-14.452-3.04 5.741-6.51 10.405-8.93 15.333z"/></g></svg>