<svg clip-rule="evenodd" fill-rule="evenodd" viewBox="0 0 228 316" xmlns="http://www.w3.org/2000/svg"><path d="m6927.61-2424.37c0-5.87-4.76-10.63-10.63-10.63h-201.96c-5.87 0-10.63 4.76-10.63 10.63v290.55c0 5.87 4.76 10.63 10.63 10.63h201.96c5.87 0 10.63-4.76 10.63-10.63z" fill="#fff" stroke="#bfbfbf" transform="matrix(-1 0 0 -1 6929.672 -2121.131)"/><g fill-rule="nonzero"><path d="m4797.86-1456.38h10.333v104.652h-10.333z" transform="matrix(-.301062 0 0 -.301062 1662.112 -138.432)"/><path d="m4838.82-1456.38c-9.95 0-17.95 8.93-17.95 20.01v64.64c0 11.08 8 20.01 17.95 20.01h5.79c9.95 0 17.96-8.93 17.96-20.01v-64.64c0-11.08-8.01-20.01-17.96-20.01zm2.99 9.9c5.87 0 10.6 4.44 10.6 9.97v65.51c0 5.53-4.73 9.98-10.6 9.98-5.88 0-10.6-4.45-10.6-9.98v-65.51c0-5.53 4.72-9.97 10.6-9.97z" transform="matrix(-.301062 0 0 -.301062 1662.112 -138.432)"/><path d="m9.683589 15.89193776h3.110834v31.5066785h-3.110834z" stroke-width=".151748"/><path d="m3880.5 1636.12c-19.73 0-35.59 17.71-35.59 39.69v128.25c0 21.99 15.86 39.69 35.59 39.69h11.5c19.73 0 35.62-17.7 35.62-39.69v-128.25c0-21.98-15.89-39.69-35.62-39.69zm5.94 19.63c11.65 0 21.03 8.81 21.03 19.78v129.97c0 10.97-9.38 19.81-21.03 19.81-11.66 0-21.03-8.84-21.03-19.81v-129.97c0-10.97 9.37-19.78 21.03-19.78z" transform="matrix(.151748 0 0 .151748 -566.845 -232.386)"/><path d="m1697.37 658.472c.01-2.026-1.59-2.064-1.57-.586-.14 7.429-6.42 11.087-10.98 10.219-7.04-1.338-9.28-8.322-9.22-12.435.21-12.697 12.99-22.059 24.52-38.335 8.45 14.691 22.4 26.23 23.23 37.586 1.09 15.098-18.01 20.729-20.74 3.132-.18-1.243-1.64-1.801-1.53-.065.42 4.823-.17 6.832 5.27 18.72h-14.22c3.15-5.555 5.02-12.375 5.24-18.236z" transform="translate(-1642.378 -587.897)"/><path d="m1753.08 691.137c.02-2.025-1.59-2.064-1.57-.585-.13 7.428-6.41 11.086-10.98 10.218-7.03-1.337-9.28-8.322-9.21-12.435.2-12.696 12.99-22.059 24.52-38.335 8.45 14.691 22.4 26.23 23.22 37.586 1.1 15.098-18.01 20.73-20.74 3.133-.17-1.243-1.64-1.801-1.52-.065.41 4.822-.18 6.831 5.26 18.719h-14.22c3.15-5.555 5.03-12.374 5.24-18.236z" transform="translate(-1642.378 -587.897)"/><path d="m1808.9 658.472c.01-2.026-1.59-2.064-1.57-.586-.14 7.429-6.42 11.087-10.98 10.219-7.04-1.338-9.28-8.322-9.22-12.435.21-12.697 12.99-22.059 24.52-38.335 8.46 14.691 22.4 26.23 23.23 37.586 1.1 15.098-18.01 20.729-20.74 3.132-.17-1.243-1.64-1.801-1.53-.065.42 4.823-.17 6.832 5.27 18.72h-14.22c3.15-5.555 5.02-12.375 5.24-18.236z" transform="translate(-1642.378 -587.897)"/><path d="m1808.9 723.803c.01-2.026-1.59-2.065-1.57-.586-.14 7.428-6.42 11.086-10.98 10.219-7.04-1.338-9.28-8.323-9.22-12.436.21-12.696 12.99-22.058 24.52-38.334 8.46 14.69 22.4 26.229 23.23 37.585 1.1 15.098-18.01 20.73-20.74 3.133-.17-1.243-1.64-1.801-1.53-.065.42 4.823-.17 6.831 5.27 18.719h-14.22c3.15-5.554 5.02-12.374 5.24-18.235z" transform="translate(-1642.378 -587.897)"/><path d="m1697.37 723.803c.01-2.026-1.59-2.065-1.57-.586-.14 7.428-6.42 11.086-10.98 10.219-7.04-1.338-9.28-8.323-9.22-12.436.21-12.696 12.99-22.058 24.52-38.334 8.45 14.69 22.4 26.229 23.23 37.585 1.09 15.098-18.01 20.73-20.74 3.133-.18-1.243-1.64-1.801-1.53-.065.42 4.823-.17 6.831 5.27 18.719h-14.22c3.15-5.554 5.02-12.374 5.24-18.235z" transform="translate(-1642.378 -587.897)"/><path d="m1808.91 767.937c.01 2.026-1.59 2.064-1.57.586-.13-7.429-6.42-11.087-10.98-10.219-7.04 1.338-9.28 8.322-9.22 12.435.21 12.697 12.99 22.059 24.52 38.335 8.46-14.691 22.4-26.23 23.23-37.586 1.1-15.098-18.01-20.729-20.74-3.132-.17 1.243-1.64 1.801-1.53.065.42-4.823-.17-6.832 5.27-18.72h-14.22c3.15 5.555 5.02 12.375 5.24 18.236z" transform="translate(-1642.378 -587.897)"/><path d="m1808.91 833.268c.01 2.025-1.59 2.064-1.57.585-.13-7.428-6.42-11.086-10.98-10.218-7.04 1.337-9.28 8.322-9.22 12.435.21 12.696 12.99 22.058 24.52 38.335 8.46-14.691 22.4-26.23 23.23-37.586 1.1-15.098-18.01-20.73-20.74-3.133-.17 1.243-1.64 1.801-1.53.065.42-4.822-.17-6.831 5.27-18.719h-14.22c3.15 5.555 5.02 12.374 5.24 18.236z" transform="translate(-1642.378 -587.897)"/><path d="m1753.56 800.602c.02 2.026-1.59 2.065-1.57.586-.13-7.429-6.42-11.086-10.98-10.219-7.04 1.338-9.28 8.322-9.21 12.436.2 12.696 12.98 22.058 24.52 38.334 8.45-14.69 22.39-26.229 23.22-37.585 1.1-15.098-18.01-20.73-20.74-3.133-.17 1.243-1.64 1.801-1.52.065.41-4.823-.18-6.831 5.26-18.72h-14.22c3.15 5.555 5.03 12.375 5.24 18.236z" transform="translate(-1642.378 -587.897)"/><path d="m1697.38 767.937c.01 2.026-1.59 2.064-1.57.586-.14-7.429-6.42-11.087-10.98-10.219-7.04 1.338-9.28 8.322-9.22 12.435.21 12.697 12.99 22.059 24.52 38.335 8.45-14.691 22.4-26.23 23.23-37.586 1.09-15.098-18.01-20.729-20.74-3.132-.18 1.243-1.64 1.801-1.53.065.42-4.823-.17-6.832 5.27-18.72h-14.22c3.15 5.555 5.02 12.375 5.24 18.236z" transform="translate(-1642.378 -587.897)"/><path d="m1697.38 833.268c.01 2.025-1.59 2.064-1.57.585-.14-7.428-6.42-11.086-10.98-10.218-7.04 1.337-9.28 8.322-9.22 12.435.21 12.696 12.99 22.058 24.52 38.335 8.45-14.691 22.4-26.23 23.23-37.586 1.09-15.098-18.01-20.73-20.74-3.133-.18 1.243-1.64 1.801-1.53.065.42-4.822-.17-6.831 5.27-18.719h-14.22c3.15 5.555 5.02 12.374 5.24 18.236z" transform="translate(-1642.378 -587.897)"/><path d="m1661.22 659.822c.01-.872-.9-.465-1.02-.191-1.16 1.986-2.86 2.448-4.55 1.732-1.66-.709-2.6-2.28-2.45-4.522.31-3.438 3.04-7.2 4.35-9.326 1.26-1.93 2.63-4.222 4.08-7.154 1.7 3.363 2.56 4.32 4.41 7.391 1.62 2.704 3.89 5.353 4.06 8.622 0 2.485-1.04 4.832-3.4 5.26-1.33.242-2.57-.442-3.5-2.037-.28-.407-.85-.195-.84.362.17 2.093.96 3.983 2.83 6.212h-6.89c1.41-1.576 2.85-3.704 2.92-6.349z" transform="translate(-1642.378 -587.897)"/><path d="m1850.03 832.567c.01.872-.89.465-1.01.19-1.17-1.985-2.87-2.447-4.55-1.731-1.67.709-2.61 2.28-2.45 4.522.31 3.438 3.03 7.199 4.35 9.326 1.25 1.93 2.63 4.222 4.08 7.154 1.69-3.363 2.56-4.32 4.4-7.391 1.63-2.705 3.89-5.353 4.07-8.623 0-2.485-1.05-4.832-3.4-5.259-1.33-.242-2.58.441-3.5 2.037-.29.406-.85.194-.84-.362.16-2.093.95-3.983 2.83-6.212h-6.89c1.41 1.576 2.85 3.704 2.91 6.349z" transform="translate(-1642.378 -587.897)"/></g></svg>