<svg clip-rule="evenodd" fill-rule="evenodd" stroke-linejoin="round" stroke-miterlimit="2" viewBox="0 0 224 312" xmlns="http://www.w3.org/2000/svg"><g fill-rule="nonzero"><path d="m212.872 266.562h3.111v31.507h-3.111z"/><path d="m203.651 298.068c2.996 0 5.404-2.688 5.404-6.024v-19.46c0-3.336-2.408-6.025-5.404-6.025h-1.743c-2.995 0-5.407 2.689-5.407 6.025v19.46c0 3.336 2.412 6.024 5.407 6.024zm-.9-2.98c-1.767 0-3.191-1.337-3.191-3.002v-19.722c0-1.665 1.424-3.005 3.191-3.005 1.77 0 3.191 1.34 3.191 3.005v19.722c0 1.665-1.421 3.002-3.191 3.002z"/><path d="m8.008 13.932h3.111v31.507h-3.111z"/><path d="m20.337 13.932c-2.994 0-5.401 2.687-5.401 6.023v19.461c0 3.337 2.407 6.023 5.401 6.023h1.745c2.994 0 5.406-2.686 5.406-6.023v-19.461c0-3.336-2.412-6.023-5.406-6.023zm.902 2.979c1.767 0 3.191 1.336 3.191 3.001v19.723c0 1.664-1.424 3.006-3.191 3.006-1.77 0-3.192-1.342-3.192-3.006v-19.723c0-1.665 1.422-3.001 3.192-3.001z"/><path d="m53.316 68.615c.01-2.026-1.59-2.064-1.57-.586-.14 7.429-6.42 11.087-10.98 10.219-7.04-1.338-9.28-8.322-9.22-12.435.21-12.697 12.99-22.059 24.52-38.335 8.45 14.691 22.4 26.23 23.23 37.586 1.09 15.098-18.01 20.729-20.74 3.132-.18-1.243-1.64-1.801-1.53-.065.42 4.823-.17 6.832 5.27 18.72h-14.22c3.15-5.555 5.02-12.375 5.24-18.236z"/><path d="m109.026 101.28c.02-2.025-1.59-2.064-1.57-.585-.13 7.428-6.41 11.086-10.98 10.218-7.03-1.337-9.28-8.322-9.21-12.435.2-12.696 12.99-22.059 24.52-38.335 8.45 14.691 22.4 26.23 23.22 37.586 1.1 15.098-18.01 20.73-20.74 3.133-.17-1.243-1.64-1.801-1.52-.065.41 4.822-.18 6.831 5.26 18.719h-14.22c3.15-5.555 5.03-12.374 5.24-18.236z"/><path d="m164.846 68.615c.01-2.026-1.59-2.064-1.57-.586-.14 7.429-6.42 11.087-10.98 10.219-7.04-1.338-9.28-8.322-9.22-12.435.21-12.697 12.99-22.059 24.52-38.335 8.46 14.691 22.4 26.23 23.23 37.586 1.1 15.098-18.01 20.729-20.74 3.132-.17-1.243-1.64-1.801-1.53-.065.42 4.823-.17 6.832 5.27 18.72h-14.22c3.15-5.555 5.02-12.375 5.24-18.236z"/><path d="m164.846 133.946c.01-2.026-1.59-2.065-1.57-.586-.14 7.428-6.42 11.086-10.98 10.219-7.04-1.338-9.28-8.323-9.22-12.436.21-12.696 12.99-22.058 24.52-38.334 8.46 14.69 22.4 26.229 23.23 37.585 1.1 15.098-18.01 20.73-20.74 3.133-.17-1.243-1.64-1.801-1.53-.065.42 4.823-.17 6.831 5.27 18.719h-14.22c3.15-5.554 5.02-12.374 5.24-18.235z"/><path d="m53.316 133.946c.01-2.026-1.59-2.065-1.57-.586-.14 7.428-6.42 11.086-10.98 10.219-7.04-1.338-9.28-8.323-9.22-12.436.21-12.696 12.99-22.058 24.52-38.334 8.45 14.69 22.4 26.229 23.23 37.585 1.09 15.098-18.01 20.73-20.74 3.133-.18-1.243-1.64-1.801-1.53-.065.42 4.823-.17 6.831 5.27 18.719h-14.22c3.15-5.554 5.02-12.374 5.24-18.235z"/><path d="m164.856 178.08c.01 2.026-1.59 2.064-1.57.586-.13-7.429-6.42-11.087-10.98-10.219-7.04 1.338-9.28 8.322-9.22 12.435.21 12.697 12.99 22.059 24.52 38.335 8.46-14.691 22.4-26.23 23.23-37.586 1.1-15.098-18.01-20.729-20.74-3.132-.17 1.243-1.64 1.801-1.53.065.42-4.823-.17-6.832 5.27-18.72h-14.22c3.15 5.555 5.02 12.375 5.24 18.236z"/><path d="m164.856 243.411c.01 2.025-1.59 2.064-1.57.585-.13-7.428-6.42-11.086-10.98-10.218-7.04 1.337-9.28 8.322-9.22 12.435.21 12.696 12.99 22.058 24.52 38.335 8.46-14.691 22.4-26.23 23.23-37.586 1.1-15.098-18.01-20.73-20.74-3.133-.17 1.243-1.64 1.801-1.53.065.42-4.822-.17-6.831 5.27-18.719h-14.22c3.15 5.555 5.02 12.374 5.24 18.236z"/><path d="m109.506 210.745c.02 2.026-1.59 2.065-1.57.586-.13-7.429-6.42-11.086-10.98-10.219-7.04 1.338-9.28 8.322-9.21 12.436.2 12.696 12.98 22.058 24.52 38.334 8.45-14.69 22.39-26.229 23.22-37.585 1.1-15.098-18.01-20.73-20.74-3.133-.17 1.243-1.64 1.801-1.52.065.41-4.823-.18-6.831 5.26-18.72h-14.22c3.15 5.555 5.03 12.375 5.24 18.236z"/><path d="m53.326 178.08c.01 2.026-1.59 2.064-1.57.586-.14-7.429-6.42-11.087-10.98-10.219-7.04 1.338-9.28 8.322-9.22 12.435.21 12.697 12.99 22.059 24.52 38.335 8.45-14.691 22.4-26.23 23.23-37.586 1.09-15.098-18.01-20.729-20.74-3.132-.18 1.243-1.64 1.801-1.53.065.42-4.823-.17-6.832 5.27-18.72h-14.22c3.15 5.555 5.02 12.375 5.24 18.236z"/><path d="m53.326 243.411c.01 2.025-1.59 2.064-1.57.585-.14-7.428-6.42-11.086-10.98-10.218-7.04 1.337-9.28 8.322-9.22 12.435.21 12.696 12.99 22.058 24.52 38.335 8.45-14.691 22.4-26.23 23.23-37.586 1.09-15.098-18.01-20.73-20.74-3.133-.18 1.243-1.64 1.801-1.53.065.42-4.822-.17-6.831 5.27-18.719h-14.22c3.15 5.555 5.02 12.374 5.24 18.236z"/><path d="m17.166 69.965c.01-.872-.9-.465-1.02-.191-1.16 1.986-2.86 2.448-4.55 1.732-1.66-.709-2.6-2.28-2.45-4.522.31-3.438 3.04-7.2 4.35-9.326 1.26-1.93 2.63-4.222 4.08-7.154 1.7 3.363 2.56 4.32 4.41 7.391 1.62 2.704 3.89 5.353 4.06 8.622 0 2.485-1.04 4.832-3.4 5.26-1.33.242-2.57-.442-3.5-2.037-.28-.407-.85-.195-.84.362.17 2.093.96 3.983 2.83 6.212h-6.89c1.41-1.576 2.85-3.704 2.92-6.349z"/><path d="m205.976 242.71c.01.872-.89.465-1.01.19-1.17-1.985-2.87-2.447-4.55-1.731-1.67.709-2.61 2.28-2.45 4.522.31 3.438 3.03 7.199 4.35 9.326 1.25 1.93 2.63 4.222 4.08 7.154 1.69-3.363 2.56-4.32 4.4-7.391 1.63-2.705 3.89-5.353 4.07-8.623 0-2.485-1.05-4.832-3.4-5.259-1.33-.242-2.58.441-3.5 2.037-.29.406-.85.194-.84-.362.16-2.093.95-3.983 2.83-6.212h-6.89c1.41 1.576 2.85 3.704 2.91 6.349z"/></g></svg>