<svg clip-rule="evenodd" fill-rule="evenodd" viewBox="0 0 228 316" xmlns="http://www.w3.org/2000/svg"><path d="m6481.16-2736.18c0-5.87-4.77-10.63-10.63-10.63h-201.97c-5.87 0-10.63 4.76-10.63 10.63v290.55c0 5.87 4.76 10.63 10.63 10.63h201.97c5.86 0 10.63-4.76 10.63-10.63z" fill="#fff" stroke="#bfbfbf" transform="translate(-6255.878 2748.869)"/><g fill-rule="nonzero"><path d="m1947.7-2492.42.55-6.71c1.69-20.72 6.23-27.72 31.96-49.34 12.49-10.49 16.59-15.67 17.16-21.68 1.63-14.15-11.13-18.57-19.44-18.64-10.77-.1-22.95 6.35-17.15 21.3l-12.08 3.55c-2.43-13.95.06-27.05 11.38-32.86 15.1-7.57 34.48-4.6 44.26 7.33 6.57 8.02 8.06 19.09 4.54 27.75-10.3 22.16-45.24 31.91-48.13 57.53h38.63v-14.26h11.38v26.26z" transform="matrix(.301062 0 0 .301062 -576.15 799.069)"/><path d="m2633.97-1766.53-.55 6.7c-1.69 20.73-6.23 27.73-31.96 49.35-12.49 10.49-16.59 15.66-17.17 21.67-1.63 14.15 11.14 18.57 19.45 18.65 10.77.1 22.95-6.35 17.14-21.31l12.08-3.54c2.44 13.95-.05 27.04-11.37 32.86-15.1 7.57-34.48 4.6-44.26-7.33-6.57-8.02-8.06-19.09-4.54-27.76 10.3-22.16 45.24-31.9 48.13-57.53h-38.63v14.27h-11.38v-26.26z" transform="matrix(.301062 0 0 .301062 -576.15 799.069)"/><path d="m414.935-480.903c2.879-5.775 4.976-11.701 5.348-18.037.342-2.332-1.074-2.371-1.288-.729-4.076 15.593-25.763 11.371-25.017-3.296.605-11.895 12.419-14.454 18.582-10.565 2.434 1.433 2.296.575.968-.912-9.155-10.211-3.61-23.361 8.761-23.602 13.38.793 16.851 14.87 8.644 23.148-1.02.995-3.283 4.192.123 1.957 8.287-5.888 19.788.443 19.553 9.52-.433 16.739-20.839 17.988-25.203 4.006-.42-1.55-1.629-2.328-1.295.304.605 4.767 1.856 11.954 5.437 18.206z" transform="translate(-308.6521 568.24)"/><path d="m429.637-339.236c-2.879 5.776-4.976 11.701-5.348 18.037-.342 2.332 1.075 2.371 1.288.729 4.076-15.593 25.763-11.37 25.017 3.296-.605 11.895-12.419 14.454-18.582 10.565-2.434-1.433-2.296-.575-.968.912 9.155 10.211 3.61 23.361-8.761 23.602-13.38-.793-16.851-14.87-8.644-23.148 1.02-.995 3.283-4.191-.123-1.956-8.287 5.888-19.788-.443-19.553-9.521.433-16.739 20.839-17.987 25.203-4.006.42 1.55 1.629 2.329 1.295-.304-.605-4.767-1.856-11.954-5.437-18.206z" transform="translate(-308.6521 568.24)"/><path d="m324.415-491.527c1.192-2.445 2.352-4.721 2.984-7.401.419-2.527-.438-1.588-.925.068-.721 2.298-2.723 3.344-4.58 3.369-3.371.046-5.053-2.604-4.948-5.454-.368-2.998 2.671-5.12 4.962-4.956 1.722.123 3.224 1.052 4.133 1.775.596.315 1.234.454.344-.359-1.677-1.833-3.076-2.964-3.046-5.711.029-2.578 2.234-5.268 5.156-5.183 3.651.105 5.312 2.89 5.303 5.48-.01 1.889-.953 3.626-2.411 4.703-.945.766-.68 1.34.397.615 1.035-.892 2.267-1.283 3.545-1.31 3.491-.055 4.855 2.961 4.655 5.764-.187 2.626-2.423 5.328-5.369 5.022-2.63-.301-4.013-2.51-4.805-4.777-.262-.695-.676-.882-.664.153.607 5.058 2.491 8.205 2.505 8.202z" transform="translate(-308.6521 568.24)"/><path d="m520.228-329.11c-1.192 2.445-2.352 4.721-2.984 7.401-.42 2.528.438 1.589.925-.068.721-2.297 2.722-3.344 4.58-3.369 3.371-.045 5.053 2.604 4.948 5.454.368 2.999-2.671 5.12-4.962 4.957-1.722-.123-3.224-1.052-4.133-1.775-.596-.316-1.234-.455-.345.358 1.678 1.833 3.077 2.964 3.046 5.711-.029 2.579-2.233 5.268-5.155 5.184-3.652-.106-5.312-2.89-5.303-5.481.01-1.888.953-3.626 2.411-4.703.944-.766.679-1.339-.398-.614-1.035.892-2.267 1.282-3.545 1.31-3.49.054-4.855-2.962-4.655-5.765.188-2.625 2.423-5.328 5.369-5.022 2.631.302 4.013 2.51 4.805 4.777.263.695.676.883.665-.153-.608-5.058-2.492-8.205-2.505-8.202z" transform="translate(-308.6521 568.24)"/></g></svg>