<svg clip-rule="evenodd" fill-rule="evenodd" viewBox="0 0 228 316" xmlns="http://www.w3.org/2000/svg"><path d="m6481.16-2736.18c0-5.87-4.77-10.63-10.63-10.63h-201.97c-5.87 0-10.63 4.76-10.63 10.63v290.55c0 5.87 4.76 10.63 10.63 10.63h201.97c5.86 0 10.63-4.76 10.63-10.63z" fill="#fff" stroke="#bfbfbf" transform="translate(-6255.878 2748.869)"/><g fill="#d40000" fill-rule="nonzero"><path d="m1583.27 232.357c-1.58-3.472-1.76-9.405 2.97-10.208 3.56-.458 5.01 1.199 5.3 3.742.14.743.56.789.7-.058.2-2.61 2.78-4.133 4.8-3.75 5.53.945 5.21 7.028 3.4 11.155-2.73 5.48-5.6 8.938-8.24 14.452-3.04-5.741-6.51-10.405-8.93-15.333z" transform="translate(-1572.138 -170.071)"/><path d="m1770.99 423.629c-1.58 3.472-1.75 9.405 2.98 10.208 3.56.458 5.01-1.198 5.3-3.742.14-.743.56-.788.69.058.2 2.61 2.79 4.133 4.81 3.75 5.52-.945 5.2-7.028 3.39-11.155-2.73-5.48-5.6-8.938-8.24-14.452-3.04 5.741-6.51 10.405-8.93 15.333z" transform="translate(-1572.138 -170.071)"/><path d="m1947.7-2492.42.55-6.71c1.69-20.72 6.23-27.72 31.96-49.34 12.49-10.49 16.59-15.67 17.16-21.68 1.63-14.15-11.13-18.57-19.44-18.64-10.77-.1-22.95 6.35-17.15 21.3l-12.08 3.55c-2.43-13.95.06-27.05 11.38-32.86 15.1-7.57 34.48-4.6 44.26 7.33 6.57 8.02 8.06 19.09 4.54 27.75-10.3 22.16-45.24 31.91-48.13 57.53h38.63v-14.26h11.38v26.26z" transform="matrix(.301062 0 0 .301062 -576.15 799.069)"/><path d="m2633.97-1766.53-.55 6.7c-1.69 20.73-6.23 27.73-31.96 49.35-12.49 10.49-16.59 15.66-17.17 21.67-1.63 14.15 11.14 18.57 19.45 18.65 10.77.1 22.95-6.35 17.14-21.31l12.08-3.54c2.44 13.95-.05 27.04-11.37 32.86-15.1 7.57-34.48 4.6-44.26-7.33-6.57-8.02-8.06-19.09-4.54-27.76 10.3-22.16 45.24-31.9 48.13-57.53h-38.63v14.27h-11.38v-26.26z" transform="matrix(.301062 0 0 .301062 -576.15 799.069)"/><path d="m1673.72 200.091c7.14-.474 10.87 5.628 11.6 10.437.43.764.67.548.83-.042.35-6.175 5.88-11.221 10.99-10.531 8.33.109 13.39 9.376 11.97 17.219-1.74 9.582-6.9 15.351-10.81 21.293-4.42 6.153-10.37 15.04-12.29 19.317 0 0-6.05-9.204-13.91-20.03-5.27-7.238-9.48-15.082-9.87-21.835-.45-7.715 2.72-14.632 11.49-15.828z" transform="translate(-1572.138 -170.071)"/><path d="m1673.72 456.393c7.14.474 10.87-5.628 11.6-10.437.43-.764.67-.548.83.043.35 6.174 5.88 11.22 10.99 10.53 8.33-.109 13.39-9.376 11.97-17.219-1.74-9.582-6.9-15.351-10.81-21.293-4.42-6.152-10.37-15.04-12.29-19.317 0 0-6.05 9.205-13.91 20.03-5.27 7.238-9.48 15.082-9.87 21.835-.45 7.716 2.72 14.632 11.49 15.828z" transform="translate(-1572.138 -170.071)"/></g></svg>