<svg clip-rule="evenodd" fill-rule="evenodd" viewBox="0 0 228 316" xmlns="http://www.w3.org/2000/svg"><path d="m6481.16-2736.18c0-5.87-4.77-10.63-10.63-10.63h-201.97c-5.87 0-10.63 4.76-10.63 10.63v290.55c0 5.87 4.76 10.63 10.63 10.63h201.97c5.86 0 10.63-4.76 10.63-10.63z" fill="#fff" stroke="#bfbfbf" transform="translate(-6255.878 2748.869)"/><g fill-rule="nonzero"><path d="m1947.7-2492.42.55-6.71c1.69-20.72 6.23-27.72 31.96-49.34 12.49-10.49 16.59-15.67 17.16-21.68 1.63-14.15-11.13-18.57-19.44-18.64-10.77-.1-22.95 6.35-17.15 21.3l-12.08 3.55c-2.43-13.95.06-27.05 11.38-32.86 15.1-7.57 34.48-4.6 44.26 7.33 6.57 8.02 8.06 19.09 4.54 27.75-10.3 22.16-45.24 31.91-48.13 57.53h38.63v-14.26h11.38v26.26z" transform="matrix(.301062 0 0 .301062 -576.014 799.069)"/><path d="m2633.97-1766.53-.55 6.7c-1.69 20.73-6.23 27.73-31.96 49.35-12.49 10.49-16.59 15.66-17.17 21.67-1.63 14.15 11.14 18.57 19.45 18.65 10.77.1 22.95-6.35 17.14-21.31l12.08-3.54c2.44 13.95-.05 27.04-11.37 32.86-15.1 7.57-34.48 4.6-44.26-7.33-6.57-8.02-8.06-19.09-4.54-27.76 10.3-22.16 45.24-31.9 48.13-57.53h-38.63v14.27h-11.38v-26.26z" transform="matrix(.301062 0 0 .301062 -576.014 799.069)"/><path d="m1307.55 346.303c.01-2.025-1.59-2.064-1.57-.585-.13 7.428-6.42 11.086-10.98 10.218-7.04-1.337-9.28-8.322-9.22-12.435.21-12.696 12.99-22.059 24.52-38.335 8.45 14.691 22.4 26.23 23.23 37.586 1.09 15.098-18.01 20.73-20.74 3.133-.18-1.243-1.64-1.801-1.53-.065.42 4.822-.17 6.831 5.27 18.719h-14.22c3.15-5.555 5.02-12.374 5.24-18.236z" transform="translate(-1194.921 -276.0859)"/><path d="m1307.56 522.236c.01 2.025-1.59 2.064-1.57.585-.13-7.428-6.42-11.086-10.98-10.218-7.04 1.337-9.28 8.322-9.21 12.435.2 12.696 12.98 22.059 24.52 38.335 8.45-14.691 22.39-26.23 23.22-37.586 1.09-15.098-18.01-20.73-20.74-3.133-.18 1.243-1.64 1.801-1.52.065.41-4.822-.18-6.831 5.26-18.719h-14.22c3.15 5.555 5.02 12.374 5.24 18.236z" transform="translate(-1194.921 -276.0859)"/><path d="m1215.43 347.428c.01-.871-.89-.465-1.01-.19-1.17 1.985-2.87 2.447-4.55 1.732-1.67-.71-2.6-2.281-2.46-4.523.32-3.437 3.04-7.199 4.36-9.326 1.25-1.93 2.63-4.222 4.08-7.154 1.69 3.363 2.55 4.321 4.4 7.392 1.63 2.704 3.89 5.353 4.07 8.622 0 2.485-1.05 4.832-3.4 5.259-1.33.242-2.58-.441-3.5-2.037-.29-.406-.85-.194-.84.362.16 2.094.95 3.984 2.83 6.212h-6.89c1.41-1.576 2.85-3.704 2.91-6.349z" transform="translate(-1194.921 -276.0859)"/><path d="m1403.16 520.588c.01.871-.9.464-1.02.19-1.16-1.986-2.86-2.448-4.55-1.732-1.67.709-2.6 2.28-2.45 4.522.31 3.438 3.03 7.2 4.35 9.326 1.26 1.93 2.63 4.223 4.08 7.155 1.7-3.364 2.56-4.321 4.41-7.392 1.62-2.704 3.89-5.353 4.06-8.622 0-2.485-1.04-4.832-3.4-5.26-1.33-.242-2.57.442-3.5 2.037-.28.407-.85.195-.84-.362.17-2.093.96-3.983 2.83-6.211h-6.89c1.41 1.576 2.85 3.703 2.92 6.349z" transform="translate(-1194.921 -276.0859)"/></g></svg>