<?xml version="1.0" encoding="UTF-8" standalone="no"?>
<!DOCTYPE svg PUBLIC "-//W3C//DTD SVG 1.1//EN" "http://www.w3.org/Graphics/SVG/1.1/DTD/svg11.dtd">
<svg width="100%" height="100%" viewBox="0 0 228 316" version="1.1" xmlns="http://www.w3.org/2000/svg" xmlns:xlink="http://www.w3.org/1999/xlink" xml:space="preserve" xmlns:serif="http://www.serif.com/" style="fill-rule:evenodd;clip-rule:evenodd;">
    <g transform="matrix(1,0,0,1,-258.378,-368.221)">
        <g id="Layer-1" serif:id="Layer 1">
            <g id="rect6351-1" transform="matrix(1,0,0,1,-6220.72,3117.09)">
                <path d="M6704.39,-2736.18C6704.39,-2742.05 6699.62,-2746.81 6693.76,-2746.81L6491.79,-2746.81C6485.92,-2746.81 6481.16,-2742.05 6481.16,-2736.18L6481.16,-2445.63C6481.16,-2439.76 6485.92,-2435 6491.79,-2435L6693.76,-2435C6699.62,-2435 6704.39,-2439.76 6704.39,-2445.63L6704.39,-2736.18Z" style="fill:white;stroke:rgb(191,191,191);stroke-width:1px;"/>
            </g>
            <g id="path7102-8" transform="matrix(0.304679,0,0,0.304679,-596.926,1175.84)">
                <path d="M2836.66,-2519.89L2845.12,-2526C2852.48,-2514.26 2860.69,-2506.53 2873.24,-2507.86C2892.09,-2509.13 2899.89,-2528.52 2895.95,-2543.14C2892.14,-2556.25 2876.53,-2562.64 2864.13,-2555.64C2861.21,-2553.99 2857.83,-2551.95 2857.83,-2551.95L2853.41,-2559.15L2882.52,-2593.01L2850.93,-2593.01L2850.93,-2579L2838.81,-2579L2838.81,-2604.12L2900.56,-2604.12L2900.56,-2595.6C2900.56,-2595.6 2884.02,-2578.76 2878.54,-2569.53C2892.01,-2569.04 2902.87,-2560.66 2906.75,-2547.41C2909.03,-2540.44 2908.01,-2524.49 2905.03,-2517.62C2900.07,-2506.16 2886.49,-2496.87 2874.07,-2496.33C2853.24,-2494.95 2842.18,-2509.29 2836.66,-2519.89Z" style="fill-rule:nonzero;"/>
            </g>
            <g id="path7118-5" transform="matrix(0.304679,0,0,0.304679,-596.926,1175.84)">
                <path d="M3522.01,-1744.69L3513.54,-1738.58C3506.19,-1750.31 3497.98,-1758.05 3485.43,-1756.72C3466.58,-1755.45 3458.78,-1736.06 3462.72,-1721.43C3466.53,-1708.33 3482.14,-1701.94 3494.54,-1708.94C3497.46,-1710.59 3500.84,-1712.31 3500.84,-1712.31L3506.07,-1705.56L3476.15,-1671.57L3507.74,-1671.57L3507.74,-1685.58L3519.86,-1685.58L3519.86,-1660.46L3458.11,-1660.46L3458.11,-1668.98C3458.11,-1668.98 3474.65,-1685.82 3480.12,-1695.05C3466.66,-1695.54 3455.8,-1703.91 3451.92,-1717.17C3449.64,-1724.14 3450.66,-1740.09 3453.63,-1746.95C3458.6,-1758.42 3472.18,-1767.71 3484.6,-1768.25C3505.42,-1769.63 3516.49,-1755.29 3522.01,-1744.69Z" style="fill-rule:nonzero;"/>
            </g>
            <g id="path3255" transform="matrix(1.01201,0,0,1.01201,-1179.48,86.9208)">
                <path d="M1525.46,462.617C1528.34,456.841 1530.44,450.916 1530.81,444.579C1531.15,442.248 1529.74,442.208 1529.53,443.851C1525.45,459.443 1503.76,455.221 1504.51,440.554C1505.11,428.659 1516.93,426.1 1523.09,429.99C1525.52,431.422 1525.39,430.564 1524.06,429.078C1514.9,418.866 1520.45,405.716 1532.82,405.475C1546.2,406.269 1549.67,420.345 1541.46,428.624C1540.44,429.618 1538.18,432.815 1541.59,430.58C1549.87,424.692 1561.37,431.023 1561.14,440.101C1560.71,456.84 1540.3,458.088 1535.94,444.107C1535.52,442.556 1534.31,441.778 1534.64,444.411C1535.25,449.177 1536.5,456.364 1540.08,462.617L1525.46,462.617Z" style="fill-rule:nonzero;"/>
            </g>
            <g id="path3257" transform="matrix(1.01201,0,0,1.01201,-1179.48,86.9208)">
                <path d="M1525.4,364.195C1528.28,358.419 1530.38,352.494 1530.75,346.157C1531.09,343.826 1529.67,343.787 1529.46,345.429C1525.38,361.022 1503.7,356.799 1504.44,342.132C1505.05,330.238 1516.86,327.679 1523.03,331.568C1525.46,333.001 1525.32,332.142 1524,330.656C1514.84,320.445 1520.38,307.294 1532.76,307.054C1546.13,307.847 1549.61,321.923 1541.4,330.202C1540.38,331.197 1538.12,334.393 1541.52,332.158C1549.81,326.27 1561.31,332.601 1561.08,341.679C1560.64,358.418 1540.24,359.666 1535.87,345.685C1535.45,344.135 1534.24,343.356 1534.58,345.989C1535.18,350.756 1536.43,357.942 1540.02,364.195L1525.4,364.195Z" style="fill-rule:nonzero;"/>
            </g>
            <g id="path3405" transform="matrix(1.01201,0,0,1.01201,-1179.48,86.9208)">
                <path d="M1540.1,504.157C1537.22,509.932 1535.13,515.858 1534.76,522.194C1534.41,524.526 1535.83,524.565 1536.04,522.922C1540.12,507.33 1561.81,511.552 1561.06,526.219C1560.46,538.114 1548.64,540.673 1542.48,536.783C1540.05,535.351 1540.18,536.209 1541.51,537.695C1550.66,547.907 1545.12,561.057 1532.75,561.298C1519.37,560.504 1515.9,546.428 1524.11,538.149C1525.13,537.155 1527.39,533.958 1523.98,536.193C1515.69,542.081 1504.19,535.75 1504.43,526.672C1504.86,509.933 1525.27,508.685 1529.63,522.667C1530.05,524.217 1531.26,524.995 1530.93,522.362C1530.32,517.596 1529.07,510.409 1525.49,504.157L1540.1,504.157Z" style="fill-rule:nonzero;"/>
            </g>
            <g id="path3456" transform="matrix(1.01201,0,0,1.01201,-1179.48,86.9208)">
                <path d="M1435.57,353.232C1436.76,350.787 1437.92,348.511 1438.56,345.831C1438.98,343.304 1438.12,344.243 1437.63,345.899C1436.91,348.197 1434.91,349.243 1433.05,349.268C1429.68,349.314 1428,346.664 1428.1,343.814C1427.74,340.816 1430.77,338.694 1433.07,338.858C1434.79,338.981 1436.29,339.91 1437.2,340.633C1437.79,340.948 1438.43,341.087 1437.54,340.274C1435.87,338.441 1434.47,337.31 1434.5,334.563C1434.53,331.985 1436.73,329.295 1439.65,329.38C1443.3,329.485 1444.96,332.27 1444.96,334.86C1444.95,336.749 1444,338.487 1442.54,339.563C1441.6,340.329 1441.87,340.903 1442.94,340.178C1443.98,339.286 1445.21,338.895 1446.49,338.868C1449.98,338.813 1451.34,341.829 1451.14,344.632C1450.95,347.258 1448.72,349.96 1445.77,349.654C1443.14,349.353 1441.76,347.144 1440.97,344.877C1440.7,344.182 1440.29,343.995 1440.3,345.03C1440.91,350.088 1442.8,353.235 1442.81,353.232L1435.57,353.232Z" style="fill-rule:nonzero;"/>
            </g>
            <g id="path3484" transform="matrix(1.01201,0,0,1.01201,-1179.48,86.9208)">
                <path d="M1630.65,515.59C1629.46,518.035 1628.3,520.31 1627.66,522.991C1627.25,525.518 1628.1,524.579 1628.59,522.922C1629.31,520.625 1631.31,519.579 1633.17,519.553C1636.54,519.508 1638.22,522.158 1638.12,525.007C1638.49,528.006 1635.45,530.128 1633.15,529.964C1631.43,529.841 1629.93,528.912 1629.02,528.189C1628.43,527.874 1627.79,527.734 1628.68,528.547C1630.36,530.38 1631.75,531.512 1631.72,534.258C1631.69,536.837 1629.49,539.526 1626.57,539.442C1622.92,539.337 1621.26,536.552 1621.27,533.961C1621.28,532.073 1622.22,530.335 1623.68,529.259C1624.62,528.493 1624.36,527.919 1623.28,528.644C1622.24,529.536 1621.01,529.927 1619.73,529.954C1616.24,530.009 1614.88,526.992 1615.08,524.19C1615.27,521.564 1617.5,518.861 1620.45,519.167C1623.08,519.469 1624.46,521.677 1625.25,523.944C1625.52,524.639 1625.93,524.827 1625.92,523.791C1625.31,518.734 1623.43,515.587 1623.41,515.59L1630.65,515.59Z" style="fill-rule:nonzero;"/>
            </g>
        </g>
    </g>
</svg>
