<?xml version="1.0" encoding="UTF-8" standalone="no"?>
<!DOCTYPE svg PUBLIC "-//W3C//DTD SVG 1.1//EN" "http://www.w3.org/Graphics/SVG/1.1/DTD/svg11.dtd">
<svg width="100%" height="100%" viewBox="0 0 228 316" version="1.1" xmlns="http://www.w3.org/2000/svg" xmlns:xlink="http://www.w3.org/1999/xlink" xml:space="preserve" xmlns:serif="http://www.serif.com/" style="fill-rule:evenodd;clip-rule:evenodd;">
    <g transform="matrix(1,0,0,1,-258.378,-368.221)">
        <g id="Layer-1" serif:id="Layer 1">
            <g id="rect6351-12" transform="matrix(1,0,0,1,-6220.72,3117.09)">
                <path d="M6704.39,-2736.18C6704.39,-2742.05 6699.62,-2746.81 6693.76,-2746.81L6491.79,-2746.81C6485.92,-2746.81 6481.16,-2742.05 6481.16,-2736.18L6481.16,-2445.63C6481.16,-2439.76 6485.92,-2435 6491.79,-2435L6693.76,-2435C6699.62,-2435 6704.39,-2439.76 6704.39,-2445.63L6704.39,-2736.18Z" style="fill:white;stroke:rgb(191,191,191);stroke-width:1px;"/>
            </g>
            <g id="path3666" transform="matrix(0.301062,0,0,0.301062,-585.13,1168.13)">
                <path d="M3105.3,-2458.42C3138.25,-2490.58 3159.89,-2525.64 3180.59,-2559.36C3198.74,-2522.26 3224.78,-2489.8 3252.95,-2458.42C3222.81,-2427.3 3199.46,-2394.03 3180.68,-2359.05C3159.86,-2394.91 3137.94,-2427.38 3105.3,-2458.42Z" style="fill:rgb(212,0,0);fill-rule:nonzero;"/>
            </g>
            <g id="path3668" transform="matrix(0.301062,0,0,0.301062,-585.13,1168.13)">
                <path d="M3105.3,-1803.73C3138.25,-1835.89 3159.89,-1870.95 3180.59,-1904.67C3198.74,-1867.57 3224.78,-1835.11 3252.95,-1803.73C3222.81,-1772.61 3199.46,-1739.34 3180.68,-1704.36C3159.86,-1740.22 3137.94,-1772.69 3105.3,-1803.73Z" style="fill:rgb(212,0,0);fill-rule:nonzero;"/>
            </g>
            <g id="path3672" transform="matrix(0.301062,0,0,0.301062,-585.13,1168.13)">
                <path d="M3105.3,-2131.36C3138.25,-2163.51 3159.89,-2198.58 3180.59,-2232.3C3198.74,-2195.19 3224.78,-2162.73 3252.95,-2131.36C3222.81,-2100.24 3199.46,-2066.96 3180.68,-2031.98C3159.86,-2067.84 3137.94,-2100.31 3105.3,-2131.36Z" style="fill:rgb(212,0,0);fill-rule:nonzero;"/>
            </g>
            <g id="path3734" transform="matrix(0.301062,0,0,0.301062,-585.13,1168.13)">
                <path d="M3460.62,-1821.5C3474.11,-1834.67 3482.98,-1849.03 3491.46,-1862.85C3498.89,-1847.65 3509.56,-1834.35 3521.1,-1821.5C3508.76,-1808.75 3499.19,-1795.12 3491.49,-1780.79C3482.97,-1795.48 3473.99,-1808.78 3460.62,-1821.5Z" style="fill:rgb(212,0,0);fill-rule:nonzero;"/>
            </g>
            <g id="path3736" transform="matrix(0.301062,0,0,0.301062,-585.13,1168.13)">
                <path d="M2839.52,-2440.01C2853.02,-2453.19 2861.89,-2467.55 2870.37,-2481.36C2877.8,-2466.16 2888.47,-2452.87 2900.01,-2440.01C2887.66,-2427.27 2878.1,-2413.64 2870.4,-2399.31C2861.88,-2414 2852.9,-2427.3 2839.52,-2440.01Z" style="fill:rgb(212,0,0);fill-rule:nonzero;"/>
            </g>
            <g id="path7102-0" transform="matrix(0.301062,0,0,0.301062,-585.13,1168.13)">
                <path d="M2836.66,-2519.89L2845.12,-2526C2852.48,-2514.26 2860.69,-2506.53 2873.24,-2507.86C2892.09,-2509.13 2899.89,-2528.52 2895.95,-2543.14C2892.14,-2556.25 2876.53,-2562.64 2864.13,-2555.64C2861.21,-2553.99 2857.83,-2551.95 2857.83,-2551.95L2853.41,-2559.15L2882.52,-2593.01L2850.93,-2593.01L2850.93,-2579L2838.81,-2579L2838.81,-2604.12L2900.56,-2604.12L2900.56,-2595.6C2900.56,-2595.6 2884.02,-2578.76 2878.54,-2569.53C2892.01,-2569.04 2902.87,-2560.66 2906.75,-2547.41C2909.03,-2540.44 2908.01,-2524.49 2905.03,-2517.62C2900.07,-2506.16 2886.49,-2496.87 2874.07,-2496.33C2853.24,-2494.95 2842.18,-2509.29 2836.66,-2519.89Z" style="fill:rgb(212,0,0);fill-rule:nonzero;"/>
            </g>
            <g id="path7118-1" transform="matrix(0.301062,0,0,0.301062,-585.13,1168.13)">
                <path d="M3522.01,-1744.69L3513.54,-1738.58C3506.19,-1750.31 3497.98,-1758.05 3485.43,-1756.72C3466.58,-1755.45 3458.78,-1736.06 3462.72,-1721.43C3466.53,-1708.33 3482.14,-1701.94 3494.54,-1708.94C3497.46,-1710.59 3500.84,-1712.31 3500.84,-1712.31L3506.07,-1705.56L3476.15,-1671.57L3507.74,-1671.57L3507.74,-1685.58L3519.86,-1685.58L3519.86,-1660.46L3458.11,-1660.46L3458.11,-1668.98C3458.11,-1668.98 3474.65,-1685.82 3480.12,-1695.05C3466.66,-1695.54 3455.8,-1703.91 3451.92,-1717.17C3449.64,-1724.14 3450.66,-1740.09 3453.63,-1746.95C3458.6,-1758.42 3472.18,-1767.71 3484.6,-1768.25C3505.42,-1769.63 3516.49,-1755.29 3522.01,-1744.69Z" style="fill:rgb(212,0,0);fill-rule:nonzero;"/>
            </g>
        </g>
    </g>
</svg>
