<?xml version="1.0" encoding="UTF-8" standalone="no"?>
<!DOCTYPE svg PUBLIC "-//W3C//DTD SVG 1.1//EN" "http://www.w3.org/Graphics/SVG/1.1/DTD/svg11.dtd">
<svg width="100%" height="100%" viewBox="0 0 228 316" version="1.1" xmlns="http://www.w3.org/2000/svg" xmlns:xlink="http://www.w3.org/1999/xlink" xml:space="preserve" xmlns:serif="http://www.serif.com/" style="fill-rule:evenodd;clip-rule:evenodd;">
    <g transform="matrix(1,0,0,1,-258.378,-368.221)">
        <g id="_3S" serif:id="3S">
            <g id="rect6351-2" transform="matrix(1,0,0,1,-6220.72,3117.09)">
                <path d="M6704.39,-2736.18C6704.39,-2742.05 6699.62,-2746.81 6693.76,-2746.81L6491.79,-2746.81C6485.92,-2746.81 6481.16,-2742.05 6481.16,-2736.18L6481.16,-2445.63C6481.16,-2439.76 6485.92,-2435 6491.79,-2435L6693.76,-2435C6699.62,-2435 6704.39,-2439.76 6704.39,-2445.63L6704.39,-2736.18Z" style="fill:white;stroke:rgb(191,191,191);stroke-width:1px;"/>
            </g>
            <g id="path7102-86" transform="matrix(0.301062,0,0,0.301062,-585.13,1168.13)">
                <path d="M2836.66,-2519.89L2845.12,-2526C2852.48,-2514.26 2860.69,-2506.53 2873.24,-2507.86C2892.09,-2509.13 2899.89,-2528.52 2895.95,-2543.14C2892.14,-2556.25 2876.53,-2562.64 2864.13,-2555.64C2861.21,-2553.99 2857.83,-2551.95 2857.83,-2551.95L2853.41,-2559.15L2882.52,-2593.01L2850.93,-2593.01L2850.93,-2579L2838.81,-2579L2838.81,-2604.12L2900.56,-2604.12L2900.56,-2595.6C2900.56,-2595.6 2884.02,-2578.76 2878.54,-2569.53C2892.01,-2569.04 2902.87,-2560.66 2906.75,-2547.41C2909.03,-2540.44 2908.01,-2524.49 2905.03,-2517.62C2900.07,-2506.16 2886.49,-2496.87 2874.07,-2496.33C2853.24,-2494.95 2842.18,-2509.29 2836.66,-2519.89Z" style="fill-rule:nonzero;"/>
            </g>
            <g id="path7118-50" transform="matrix(0.301062,0,0,0.301062,-585.13,1168.13)">
                <path d="M3522.01,-1744.69L3513.54,-1738.58C3506.19,-1750.31 3497.98,-1758.05 3485.43,-1756.72C3466.58,-1755.45 3458.78,-1736.06 3462.72,-1721.43C3466.53,-1708.33 3482.14,-1701.94 3494.54,-1708.94C3497.46,-1710.59 3500.84,-1712.31 3500.84,-1712.31L3506.07,-1705.56L3476.15,-1671.57L3507.74,-1671.57L3507.74,-1685.58L3519.86,-1685.58L3519.86,-1660.46L3458.11,-1660.46L3458.11,-1668.98C3458.11,-1668.98 3474.65,-1685.82 3480.12,-1695.05C3466.66,-1695.54 3455.8,-1703.91 3451.92,-1717.17C3449.64,-1724.14 3450.66,-1740.09 3453.63,-1746.95C3458.6,-1758.42 3472.18,-1767.71 3484.6,-1768.25C3505.42,-1769.63 3516.49,-1755.29 3522.01,-1744.69Z" style="fill-rule:nonzero;"/>
            </g>
            <g id="path3196" transform="matrix(1,0,0,1,-1160.77,92.1351)">
                <path d="M1530.61,347.075C1530.63,345.049 1529.03,345.01 1529.04,346.489C1528.91,353.918 1522.63,357.575 1518.06,356.708C1511.03,355.37 1508.78,348.386 1508.85,344.272C1509.06,331.576 1521.84,322.214 1533.37,305.938C1541.82,320.628 1555.77,332.167 1556.59,343.523C1557.69,358.622 1538.58,364.253 1535.85,346.656C1535.68,345.413 1534.21,344.855 1534.33,346.591C1534.74,351.414 1534.15,353.423 1539.59,365.311L1525.37,365.311C1528.52,359.756 1530.4,352.936 1530.61,347.075L1530.61,347.075Z" style="fill-rule:nonzero;"/>
            </g>
            <g id="path3256" transform="matrix(1,0,0,1,-1160.77,92.1351)">
                <path d="M1530.69,422.621C1530.7,424.647 1529.1,424.685 1529.12,423.207C1528.98,415.778 1522.7,412.12 1518.14,412.988C1511.1,414.326 1508.86,421.31 1508.92,425.423C1509.13,438.12 1521.91,447.482 1533.44,463.758C1541.89,449.067 1555.84,437.528 1556.66,426.172C1557.76,411.074 1538.66,405.442 1535.93,423.039C1535.75,424.282 1534.29,424.841 1534.4,423.104C1534.82,418.282 1534.23,416.273 1539.67,404.385L1525.45,404.385C1528.6,409.94 1530.47,416.76 1530.69,422.621L1530.69,422.621Z" style="fill-rule:nonzero;"/>
            </g>
            <g id="path3258" transform="matrix(1,0,0,1,-1160.77,92.1351)">
                <path d="M1530.62,521.302C1530.64,523.328 1529.04,523.366 1529.05,521.888C1528.92,514.459 1522.64,510.801 1518.07,511.669C1511.04,513.007 1508.79,519.991 1508.86,524.105C1509.07,536.801 1521.85,546.163 1533.38,562.439C1541.83,547.748 1555.78,536.209 1556.6,524.853C1557.7,509.755 1538.59,504.124 1535.87,521.721C1535.69,522.964 1534.23,523.522 1534.34,521.786C1534.75,516.963 1534.16,514.954 1539.61,503.066L1525.38,503.066C1528.53,508.621 1530.41,515.441 1530.62,521.302L1530.62,521.302Z" style="fill-rule:nonzero;"/>
            </g>
            <g id="path3312" transform="matrix(1,0,0,1,-1160.77,92.1351)">
                <path d="M1439.19,347.861C1439.2,346.989 1438.3,347.396 1438.18,347.671C1437.01,349.656 1435.31,350.118 1433.63,349.402C1431.96,348.693 1431.03,347.122 1431.17,344.88C1431.49,341.442 1434.21,337.681 1435.53,335.554C1436.78,333.624 1438.16,331.332 1439.61,328.4C1441.3,331.763 1442.16,332.721 1444.01,335.791C1445.64,338.496 1447.9,341.144 1448.08,344.414C1448.08,346.899 1447.03,349.246 1444.68,349.673C1443.35,349.915 1442.1,349.232 1441.18,347.636C1440.89,347.23 1440.33,347.442 1440.34,347.998C1440.5,350.092 1441.29,351.982 1443.17,354.21L1436.28,354.21C1437.69,352.634 1439.13,350.506 1439.19,347.861L1439.19,347.861Z" style="fill-rule:nonzero;"/>
            </g>
            <g id="path3334" transform="matrix(1,0,0,1,-1160.77,92.1351)">
                <path d="M1626.18,520.961C1626.19,521.832 1625.28,521.425 1625.16,521.151C1624,519.165 1622.29,518.703 1620.61,519.419C1618.94,520.128 1618.01,521.7 1618.16,523.941C1618.47,527.379 1621.19,531.141 1622.51,533.268C1623.76,535.198 1625.14,537.49 1626.59,540.422C1628.29,537.059 1629.15,536.101 1630.99,533.03C1632.62,530.326 1634.89,527.677 1635.06,524.408C1635.06,521.923 1634.02,519.576 1631.66,519.149C1630.33,518.907 1629.08,519.59 1628.16,521.185C1627.88,521.592 1627.31,521.38 1627.32,520.823C1627.48,518.73 1628.27,516.84 1630.15,514.612L1623.26,514.612C1624.67,516.188 1626.11,518.316 1626.18,520.961Z" style="fill-rule:nonzero;"/>
            </g>
        </g>
    </g>
</svg>
