<?xml version="1.0" encoding="UTF-8" standalone="no"?>
<!DOCTYPE svg PUBLIC "-//W3C//DTD SVG 1.1//EN" "http://www.w3.org/Graphics/SVG/1.1/DTD/svg11.dtd">
<svg width="100%" height="100%" viewBox="0 0 228 316" version="1.1" xmlns="http://www.w3.org/2000/svg" xmlns:xlink="http://www.w3.org/1999/xlink" xml:space="preserve" xmlns:serif="http://www.serif.com/" style="fill-rule:evenodd;clip-rule:evenodd;">
    <g transform="matrix(1,0,0,1,-258.378,-368.221)">
        <g id="_4D" serif:id="4D">
            <g id="rect6353-6" transform="matrix(1,0,0,1,-6443.95,3117.09)">
                <path d="M6927.61,-2736.18C6927.61,-2742.05 6922.85,-2746.81 6916.98,-2746.81L6715.02,-2746.81C6709.15,-2746.81 6704.39,-2742.05 6704.39,-2736.18L6704.39,-2445.63C6704.39,-2439.76 6709.15,-2435 6715.02,-2435L6916.98,-2435C6922.85,-2435 6927.61,-2439.76 6927.61,-2445.63L6927.61,-2736.18Z" style="fill:white;stroke:rgb(191,191,191);stroke-width:1px;"/>
            </g>
            <g id="path3656" transform="matrix(0.301062,0,0,0.301062,-820.66,1167.42)">
                <path d="M3706.59,-2464.92C3739.54,-2497.08 3761.18,-2532.14 3781.88,-2565.86C3800.03,-2528.76 3826.08,-2496.3 3854.24,-2464.92C3824.11,-2433.8 3800.75,-2400.53 3781.97,-2365.55C3761.15,-2401.41 3739.23,-2433.88 3706.59,-2464.92Z" style="fill:rgb(212,0,0);fill-rule:nonzero;"/>
            </g>
            <g id="path3658" transform="matrix(0.301062,0,0,0.301062,-820.66,1167.42)">
                <path d="M3706.59,-1804.44C3739.54,-1836.6 3761.18,-1871.66 3781.88,-1905.38C3800.03,-1868.27 3826.08,-1835.82 3854.24,-1804.44C3824.11,-1773.32 3800.75,-1740.04 3781.97,-1705.06C3761.15,-1740.92 3739.23,-1773.39 3706.59,-1804.44Z" style="fill:rgb(212,0,0);fill-rule:nonzero;"/>
            </g>
            <g id="path3660" transform="matrix(0.301062,0,0,0.301062,-820.66,1167.42)">
                <path d="M4077.05,-2464.92C4110.01,-2497.08 4131.65,-2532.14 4152.34,-2565.86C4170.49,-2528.76 4196.54,-2496.3 4224.71,-2464.92C4194.57,-2433.8 4171.21,-2400.53 4152.43,-2365.55C4131.61,-2401.41 4109.7,-2433.88 4077.05,-2464.92Z" style="fill:rgb(212,0,0);fill-rule:nonzero;"/>
            </g>
            <g id="path3664" transform="matrix(0.301062,0,0,0.301062,-820.66,1167.42)">
                <path d="M4077.05,-1804.44C4110.01,-1836.6 4131.65,-1871.66 4152.34,-1905.38C4170.49,-1868.27 4196.54,-1835.82 4224.71,-1804.44C4194.57,-1773.32 4171.21,-1740.04 4152.43,-1705.06C4131.61,-1740.92 4109.7,-1773.39 4077.05,-1804.44Z" style="fill:rgb(212,0,0);fill-rule:nonzero;"/>
            </g>
            <g id="path3738" transform="matrix(0.301062,0,0,0.301062,-820.66,1167.42)">
                <path d="M4240.44,-1821.67C4253.94,-1834.85 4262.8,-1849.21 4271.28,-1863.02C4278.72,-1847.83 4289.39,-1834.53 4300.92,-1821.67C4288.58,-1808.93 4279.01,-1795.3 4271.32,-1780.97C4262.79,-1795.66 4253.81,-1808.96 4240.44,-1821.67Z" style="fill:rgb(212,0,0);fill-rule:nonzero;"/>
            </g>
            <g id="path3740" transform="matrix(0.301062,0,0,0.301062,-820.66,1167.42)">
                <path d="M3618.58,-2436.54C3632.08,-2449.71 3640.94,-2464.08 3649.42,-2477.89C3656.86,-2462.69 3667.52,-2449.39 3679.06,-2436.54C3666.72,-2423.79 3657.15,-2410.16 3649.46,-2395.83C3640.93,-2410.52 3631.95,-2423.82 3618.58,-2436.54Z" style="fill:rgb(212,0,0);fill-rule:nonzero;"/>
            </g>
            <g id="path7104-8" transform="matrix(0.301062,0,0,0.301062,-820.66,1167.42)">
                <path d="M3650.17,-2493.73L3650.17,-2503.07L3658.76,-2503.07L3658.76,-2518.47L3615.83,-2518.47L3615.83,-2529.34L3662.28,-2599.42L3669.87,-2599.39L3669.87,-2529.34L3683,-2529.34L3683,-2518.47L3669.87,-2518.47L3669.62,-2503.07L3676.82,-2503.07L3676.82,-2493.73L3650.17,-2493.73ZM3658.76,-2573.77L3629.27,-2529.34L3658.76,-2529.34L3658.76,-2573.77Z" style="fill:rgb(212,0,0);fill-rule:nonzero;"/>
            </g>
            <g id="path7159-9" transform="matrix(0.301062,0,0,0.301062,-820.66,1167.42)">
                <path d="M4273.16,-1766.09L4273.16,-1756.75L4264.57,-1756.75L4264.57,-1741.35L4307.5,-1741.35L4307.5,-1730.49L4261.05,-1660.41L4253.46,-1660.43L4253.46,-1730.49L4240.33,-1730.49L4240.33,-1741.35L4253.46,-1741.35L4253.71,-1756.75L4246.51,-1756.75L4246.51,-1766.09L4273.16,-1766.09ZM4264.57,-1686.05L4294.06,-1730.49L4264.57,-1730.49L4264.57,-1686.05Z" style="fill:rgb(212,0,0);fill-rule:nonzero;"/>
            </g>
        </g>
    </g>
</svg>
