<?xml version="1.0" encoding="UTF-8" standalone="no"?>
<!DOCTYPE svg PUBLIC "-//W3C//DTD SVG 1.1//EN" "http://www.w3.org/Graphics/SVG/1.1/DTD/svg11.dtd">
<svg width="100%" height="100%" viewBox="0 0 228 316" version="1.1" xmlns="http://www.w3.org/2000/svg" xmlns:xlink="http://www.w3.org/1999/xlink" xml:space="preserve" xmlns:serif="http://www.serif.com/" style="fill-rule:evenodd;clip-rule:evenodd;">
    <g transform="matrix(1,0,0,1,-258.378,-368.221)">
        <g id="Layer-1" serif:id="Layer 1">
            <g id="rect6353-0" transform="matrix(1,0,0,1,-6443.95,3117.09)">
                <path d="M6927.61,-2736.18C6927.61,-2742.05 6922.85,-2746.81 6916.98,-2746.81L6715.02,-2746.81C6709.15,-2746.81 6704.39,-2742.05 6704.39,-2736.18L6704.39,-2445.63C6704.39,-2439.76 6709.15,-2435 6715.02,-2435L6916.98,-2435C6922.85,-2435 6927.61,-2439.76 6927.61,-2445.63L6927.61,-2736.18Z" style="fill:white;stroke:rgb(191,191,191);stroke-width:1px;"/>
            </g>
            <g id="path7104-6" transform="matrix(0.301062,0,0,0.301062,-820.66,1167.42)">
                <path d="M3650.17,-2493.73L3650.17,-2503.07L3658.76,-2503.07L3658.76,-2518.47L3615.83,-2518.47L3615.83,-2529.34L3662.28,-2599.42L3669.87,-2599.39L3669.87,-2529.34L3683,-2529.34L3683,-2518.47L3669.87,-2518.47L3669.62,-2503.07L3676.82,-2503.07L3676.82,-2493.73L3650.17,-2493.73ZM3658.76,-2573.77L3629.27,-2529.34L3658.76,-2529.34L3658.76,-2573.77Z" style="fill-rule:nonzero;"/>
            </g>
            <g id="path7159-1" transform="matrix(0.301062,0,0,0.301062,-820.66,1167.42)">
                <path d="M4273.16,-1766.09L4273.16,-1756.75L4264.57,-1756.75L4264.57,-1741.35L4307.5,-1741.35L4307.5,-1730.49L4261.05,-1660.41L4253.46,-1660.43L4253.46,-1730.49L4240.33,-1730.49L4240.33,-1741.35L4253.46,-1741.35L4253.71,-1756.75L4246.51,-1756.75L4246.51,-1766.09L4273.16,-1766.09ZM4264.57,-1686.05L4294.06,-1730.49L4264.57,-1730.49L4264.57,-1686.05Z" style="fill-rule:nonzero;"/>
            </g>
            <g id="path3198" transform="matrix(1,0,0,1,-1383,92.1351)">
                <path d="M1698.34,344.402C1698.36,342.376 1696.75,342.338 1696.77,343.816C1696.64,351.245 1690.35,354.903 1685.79,354.035C1678.75,352.697 1676.51,345.713 1676.58,341.6C1676.78,328.903 1689.56,319.541 1701.1,303.265C1709.55,317.956 1723.49,329.495 1724.32,340.851C1725.42,355.949 1706.31,361.58 1703.58,343.983C1703.41,342.74 1701.94,342.182 1702.06,343.918C1702.47,348.741 1701.88,350.75 1707.32,362.638L1693.1,362.638C1696.25,357.083 1698.12,350.263 1698.34,344.402L1698.34,344.402Z" style="fill-rule:nonzero;"/>
            </g>
            <g id="path3200" transform="matrix(1,0,0,1,-1383,92.1351)">
                <path d="M1809.87,344.402C1809.89,342.376 1808.29,342.338 1808.3,343.816C1808.17,351.245 1801.89,354.903 1797.32,354.035C1790.29,352.697 1788.04,345.713 1788.11,341.6C1788.32,328.903 1801.1,319.541 1812.63,303.265C1821.08,317.956 1835.03,329.495 1835.85,340.851C1836.95,355.949 1817.84,361.58 1815.12,343.983C1814.94,342.74 1813.48,342.182 1813.59,343.918C1814,348.741 1813.41,350.75 1818.85,362.638L1804.63,362.638C1807.78,357.083 1809.66,350.263 1809.87,344.402L1809.87,344.402Z" style="fill-rule:nonzero;"/>
            </g>
            <g id="path3260" transform="matrix(1,0,0,1,-1383,92.1351)">
                <path d="M1698.35,520.373C1698.37,522.399 1696.76,522.438 1696.78,520.959C1696.65,513.53 1690.37,509.873 1685.8,510.74C1678.77,512.078 1676.52,519.062 1676.59,523.176C1676.79,535.872 1689.57,545.234 1701.11,561.51C1709.56,546.82 1723.5,535.281 1724.33,523.925C1725.43,508.827 1706.32,503.195 1703.59,520.792C1703.42,522.035 1701.95,522.593 1702.07,520.857C1702.48,516.034 1701.89,514.026 1707.33,502.138L1693.11,502.138C1696.26,507.692 1698.14,514.512 1698.35,520.373L1698.35,520.373Z" style="fill-rule:nonzero;"/>
            </g>
            <g id="path3262" transform="matrix(1,0,0,1,-1383,92.1351)">
                <path d="M1809.88,520.373C1809.9,522.399 1808.3,522.438 1808.32,520.959C1808.18,513.53 1801.9,509.873 1797.33,510.74C1790.3,512.078 1788.05,519.062 1788.12,523.176C1788.33,535.872 1801.11,545.234 1812.64,561.51C1821.09,546.82 1835.04,535.281 1835.86,523.925C1836.96,508.827 1817.85,503.195 1815.12,520.792C1814.95,522.035 1813.49,522.593 1813.6,520.857C1814.01,516.034 1813.42,514.026 1818.87,502.138L1804.64,502.138C1807.79,507.692 1809.67,514.512 1809.88,520.373L1809.88,520.373Z" style="fill-rule:nonzero;"/>
            </g>
            <g id="path3314" transform="matrix(1,0,0,1,-1383,92.1351)">
                <path d="M1660.43,348.191C1660.44,347.32 1659.54,347.727 1659.42,348.001C1658.25,349.987 1656.55,350.449 1654.87,349.733C1653.2,349.024 1652.27,347.453 1652.41,345.211C1652.73,341.773 1655.45,338.011 1656.77,335.884C1658.02,333.955 1659.4,331.662 1660.85,328.73C1662.54,332.094 1663.4,333.051 1665.25,336.122C1666.88,338.826 1669.14,341.475 1669.32,344.744C1669.32,347.229 1668.27,349.576 1665.92,350.004C1664.59,350.246 1663.34,349.562 1662.42,347.967C1662.13,347.56 1661.57,347.772 1661.58,348.329C1661.74,350.422 1662.53,352.312 1664.41,354.54L1657.52,354.54C1658.93,352.964 1660.37,350.837 1660.43,348.191L1660.43,348.191Z" style="fill-rule:nonzero;"/>
            </g>
            <g id="path3336" transform="matrix(1,0,0,1,-1383,92.1351)">
                <path d="M1847.65,520.192C1847.66,521.063 1846.76,520.656 1846.63,520.382C1845.47,518.396 1843.77,517.934 1842.09,518.65C1840.42,519.359 1839.48,520.931 1839.63,523.172C1839.94,526.61 1842.67,530.372 1843.99,532.499C1845.24,534.429 1846.62,536.721 1848.07,539.653C1849.76,536.29 1850.62,535.332 1852.47,532.261C1854.1,529.557 1856.36,526.908 1856.54,523.639C1856.54,521.154 1855.49,518.807 1853.14,518.38C1851.81,518.138 1850.56,518.821 1849.63,520.416C1849.35,520.823 1848.79,520.611 1848.8,520.054C1848.96,517.961 1849.75,516.071 1851.62,513.843L1844.74,513.843C1846.15,515.419 1847.59,517.547 1847.65,520.192Z" style="fill-rule:nonzero;"/>
            </g>
        </g>
    </g>
</svg>
