<?xml version="1.0" encoding="UTF-8" standalone="no"?>
<!DOCTYPE svg PUBLIC "-//W3C//DTD SVG 1.1//EN" "http://www.w3.org/Graphics/SVG/1.1/DTD/svg11.dtd">
<svg width="100%" height="100%" viewBox="0 0 228 316" version="1.1" xmlns="http://www.w3.org/2000/svg" xmlns:xlink="http://www.w3.org/1999/xlink" xml:space="preserve" xmlns:serif="http://www.serif.com/" style="fill-rule:evenodd;clip-rule:evenodd;">
    <g transform="matrix(1,0,0,1,-258.378,-368.221)">
        <g id="_5D" serif:id="5D">
            <g id="rect6355-6" transform="matrix(1,0,0,1,-6667.18,3117.09)">
                <path d="M7150.84,-2736.18C7150.84,-2742.05 7146.08,-2746.81 7140.21,-2746.81L6938.24,-2746.81C6932.38,-2746.81 6927.61,-2742.05 6927.61,-2736.18L6927.61,-2445.63C6927.61,-2439.76 6932.38,-2435 6938.24,-2435L7140.21,-2435C7146.08,-2435 7150.84,-2439.76 7150.84,-2445.63L7150.84,-2736.18Z" style="fill:white;stroke:rgb(191,191,191);stroke-width:1px;"/>
            </g>
            <g id="path3459" transform="matrix(0.301062,0,0,0.301062,-1104.6,1169.27)">
                <path d="M4646.59,-2464.92C4679.54,-2497.08 4701.18,-2532.14 4721.88,-2565.86C4740.03,-2528.76 4766.07,-2496.3 4794.24,-2464.92C4764.11,-2433.8 4740.75,-2400.53 4721.97,-2365.55C4701.15,-2401.41 4679.23,-2433.88 4646.59,-2464.92Z" style="fill:rgb(212,0,0);fill-rule:nonzero;"/>
            </g>
            <g id="path3463" transform="matrix(0.301062,0,0,0.301062,-1104.6,1169.27)">
                <path d="M4646.59,-1811.73C4679.54,-1843.89 4701.18,-1878.95 4721.88,-1912.67C4740.03,-1875.57 4766.07,-1843.11 4794.24,-1811.73C4764.11,-1780.61 4740.75,-1747.34 4721.97,-1712.36C4701.15,-1748.21 4679.23,-1780.69 4646.59,-1811.73Z" style="fill:rgb(212,0,0);fill-rule:nonzero;"/>
            </g>
            <g id="path3465" transform="matrix(0.301062,0,0,0.301062,-1104.6,1169.27)">
                <path d="M5014.22,-2464.92C5047.18,-2497.08 5068.82,-2532.14 5089.52,-2565.86C5107.66,-2528.76 5133.71,-2496.3 5161.88,-2464.92C5131.74,-2433.8 5108.39,-2400.53 5089.61,-2365.55C5068.79,-2401.41 5046.87,-2433.88 5014.22,-2464.92Z" style="fill:rgb(212,0,0);fill-rule:nonzero;"/>
            </g>
            <g id="path3467" transform="matrix(0.301062,0,0,0.301062,-1104.6,1169.27)">
                <path d="M4830.73,-2135.22C4863.68,-2167.37 4885.32,-2202.43 4906.02,-2236.15C4924.17,-2199.05 4950.22,-2166.59 4978.39,-2135.22C4948.25,-2104.1 4924.89,-2070.82 4906.11,-2035.84C4885.29,-2071.7 4863.38,-2104.17 4830.73,-2135.22Z" style="fill:rgb(212,0,0);fill-rule:nonzero;"/>
            </g>
            <g id="path3469" transform="matrix(0.301062,0,0,0.301062,-1104.6,1169.27)">
                <path d="M5014.22,-1811.73C5047.18,-1843.89 5068.82,-1878.95 5089.52,-1912.67C5107.66,-1875.57 5133.71,-1843.11 5161.88,-1811.73C5131.74,-1780.61 5108.39,-1747.34 5089.61,-1712.36C5068.79,-1748.21 5046.87,-1780.69 5014.22,-1811.73Z" style="fill:rgb(212,0,0);fill-rule:nonzero;"/>
            </g>
            <g id="path3742" transform="matrix(0.301062,0,0,0.301062,-1104.6,1169.27)">
                <path d="M5184.38,-1826.69C5197.88,-1839.87 5206.74,-1854.23 5215.22,-1868.04C5222.66,-1852.84 5233.33,-1839.55 5244.86,-1826.69C5232.52,-1813.94 5222.95,-1800.31 5215.26,-1785.98C5206.73,-1800.67 5197.75,-1813.98 5184.38,-1826.69Z" style="fill:rgb(212,0,0);fill-rule:nonzero;"/>
            </g>
            <g id="path3744" transform="matrix(0.301062,0,0,0.301062,-1104.6,1169.27)">
                <path d="M4564.22,-2444.03C4577.71,-2457.2 4586.58,-2471.57 4595.06,-2485.38C4602.49,-2470.18 4613.16,-2456.89 4624.7,-2444.03C4612.36,-2431.28 4602.79,-2417.65 4595.1,-2403.32C4586.57,-2418.01 4577.59,-2431.32 4564.22,-2444.03Z" style="fill:rgb(212,0,0);fill-rule:nonzero;"/>
            </g>
            <g id="path7106-71" transform="matrix(0.301062,0,0,0.301062,-1104.6,1169.27)">
                <path d="M4561.23,-2529.25L4571.92,-2529.34C4573.96,-2522.89 4578.47,-2516.3 4584.6,-2514.49C4601.91,-2510.42 4613.06,-2520.09 4616.73,-2531.25C4621.18,-2544.78 4616.63,-2563.78 4604.71,-2570.53C4594.83,-2576.13 4580.15,-2571.41 4573.42,-2559.45L4565.92,-2564.03L4569.94,-2608.61L4618.87,-2608.61L4618.87,-2598.07L4579.22,-2598.07L4578.6,-2579.5C4587.12,-2585.49 4600.25,-2585.43 4608.78,-2581.23C4624.93,-2573.53 4632.44,-2556.01 4629.29,-2535.36C4624.94,-2514.82 4615.35,-2503.18 4593.69,-2501.51C4569.63,-2501.3 4561.13,-2517.85 4561.23,-2529.25L4561.23,-2529.25Z" style="fill:rgb(212,0,0);fill-rule:nonzero;"/>
            </g>
            <g id="path7122-7" transform="matrix(0.301062,0,0,0.301062,-1104.6,1169.27)">
                <path d="M5248.36,-1742.91L5237.66,-1742.82C5235.63,-1749.28 5231.11,-1755.86 5224.99,-1757.68C5207.68,-1761.75 5196.53,-1752.08 5192.86,-1740.92C5188.41,-1727.39 5192.96,-1708.38 5204.87,-1701.63C5214.76,-1696.03 5229.44,-1700.75 5236.17,-1712.72L5243.67,-1708.14L5239.64,-1663.56L5190.72,-1663.56L5190.72,-1674.09L5230.37,-1674.09L5230.99,-1692.66C5222.47,-1686.68 5209.34,-1686.74 5200.81,-1690.94C5184.65,-1698.64 5177.15,-1716.15 5180.29,-1736.81C5184.65,-1757.35 5194.23,-1768.98 5215.89,-1770.65C5239.96,-1770.86 5248.46,-1754.32 5248.36,-1742.92L5248.36,-1742.91Z" style="fill:rgb(212,0,0);fill-rule:nonzero;"/>
            </g>
        </g>
    </g>
</svg>
