<?xml version="1.0" encoding="UTF-8" standalone="no"?>
<!DOCTYPE svg PUBLIC "-//W3C//DTD SVG 1.1//EN" "http://www.w3.org/Graphics/SVG/1.1/DTD/svg11.dtd">
<svg width="100%" height="100%" viewBox="0 0 228 316" version="1.1" xmlns="http://www.w3.org/2000/svg" xmlns:xlink="http://www.w3.org/1999/xlink" xml:space="preserve" xmlns:serif="http://www.serif.com/" style="fill-rule:evenodd;clip-rule:evenodd;">
    <g transform="matrix(1,0,0,1,-258.378,-368.221)">
        <g id="_5S" serif:id="5S">
            <g id="rect6355-8" transform="matrix(1,0,0,1,-6667.18,3117.09)">
                <path d="M7150.84,-2736.18C7150.84,-2742.05 7146.08,-2746.81 7140.21,-2746.81L6938.24,-2746.81C6932.38,-2746.81 6927.61,-2742.05 6927.61,-2736.18L6927.61,-2445.63C6927.61,-2439.76 6932.38,-2435 6938.24,-2435L7140.21,-2435C7146.08,-2435 7150.84,-2439.76 7150.84,-2445.63L7150.84,-2736.18Z" style="fill:white;stroke:rgb(191,191,191);stroke-width:1px;"/>
            </g>
            <g id="path7106-3" transform="matrix(0.301062,0,0,0.301062,-1104.6,1169.27)">
                <path d="M4561.23,-2529.25L4571.92,-2529.34C4573.96,-2522.89 4578.47,-2516.3 4584.6,-2514.49C4601.91,-2510.42 4613.06,-2520.09 4616.73,-2531.25C4621.18,-2544.78 4616.63,-2563.78 4604.71,-2570.53C4594.83,-2576.13 4580.15,-2571.41 4573.42,-2559.45L4565.92,-2564.03L4569.94,-2608.61L4618.87,-2608.61L4618.87,-2598.07L4579.22,-2598.07L4578.6,-2579.5C4587.12,-2585.49 4600.25,-2585.43 4608.78,-2581.23C4624.93,-2573.53 4632.44,-2556.01 4629.29,-2535.36C4624.94,-2514.82 4615.35,-2503.18 4593.69,-2501.51C4569.63,-2501.3 4561.13,-2517.85 4561.23,-2529.25L4561.23,-2529.25Z" style="fill-rule:nonzero;"/>
            </g>
            <g id="path7122-4" transform="matrix(0.301062,0,0,0.301062,-1104.6,1169.27)">
                <path d="M5248.36,-1742.91L5237.66,-1742.82C5235.63,-1749.28 5231.11,-1755.86 5224.99,-1757.68C5207.68,-1761.75 5196.53,-1752.08 5192.86,-1740.92C5188.41,-1727.39 5192.96,-1708.38 5204.87,-1701.63C5214.76,-1696.03 5229.44,-1700.75 5236.17,-1712.72L5243.67,-1708.14L5239.64,-1663.56L5190.72,-1663.56L5190.72,-1674.09L5230.37,-1674.09L5230.99,-1692.66C5222.47,-1686.68 5209.34,-1686.74 5200.81,-1690.94C5184.65,-1698.64 5177.15,-1716.15 5180.29,-1736.81C5184.65,-1757.35 5194.23,-1768.98 5215.89,-1770.65C5239.96,-1770.86 5248.46,-1754.32 5248.36,-1742.92L5248.36,-1742.91Z" style="fill-rule:nonzero;"/>
            </g>
            <g id="path3202" transform="matrix(1,0,0,1,-1607.23,92.1351)">
                <path d="M1921.62,346.26C1921.64,344.234 1920.04,344.195 1920.05,345.674C1919.92,353.103 1913.64,356.761 1909.07,355.893C1902.04,354.555 1899.79,347.571 1899.86,343.457C1900.07,330.761 1912.85,321.399 1924.38,305.123C1932.83,319.814 1946.78,331.352 1947.6,342.709C1948.7,357.807 1929.59,363.438 1926.87,345.841C1926.69,344.598 1925.23,344.04 1925.34,345.776C1925.75,350.599 1925.16,352.608 1930.61,364.496L1916.38,364.496C1919.53,358.941 1921.41,352.121 1921.62,346.26L1921.62,346.26Z" style="fill-rule:nonzero;"/>
            </g>
            <g id="path3204" transform="matrix(1,0,0,1,-1607.23,92.1351)">
                <path d="M2032.3,346.26C2032.32,344.234 2030.72,344.195 2030.74,345.674C2030.6,353.103 2024.32,356.761 2019.76,355.893C2012.72,354.555 2010.47,347.571 2010.54,343.457C2010.75,330.761 2023.53,321.399 2035.06,305.123C2043.51,319.814 2057.46,331.352 2058.28,342.709C2059.38,357.807 2040.27,363.438 2037.55,345.841C2037.37,344.598 2035.91,344.04 2036.02,345.776C2036.43,350.599 2035.85,352.608 2041.29,364.496L2027.06,364.496C2030.21,358.941 2032.09,352.121 2032.3,346.26L2032.3,346.26Z" style="fill-rule:nonzero;"/>
            </g>
            <g id="path3206" transform="matrix(1,0,0,1,-1607.23,92.1351)">
                <path d="M1977.06,445.522C1977.08,443.496 1975.47,443.458 1975.49,444.936C1975.36,452.365 1969.08,456.023 1964.51,455.155C1957.48,453.817 1955.23,446.833 1955.3,442.72C1955.51,430.023 1968.29,420.661 1979.82,404.385C1988.27,419.076 2002.22,430.615 2003.04,441.971C2004.14,457.069 1985.03,462.701 1982.3,445.104C1982.13,443.861 1980.66,443.302 1980.78,445.039C1981.19,449.861 1980.6,451.87 1986.04,463.758L1971.82,463.758C1974.97,458.203 1976.85,451.383 1977.06,445.522L1977.06,445.522Z" style="fill-rule:nonzero;"/>
            </g>
            <g id="path3264" transform="matrix(1,0,0,1,-1607.23,92.1351)">
                <path d="M1921.63,520.036C1921.65,522.061 1920.05,522.1 1920.07,520.621C1919.93,513.193 1913.65,509.535 1909.08,510.403C1902.05,511.74 1899.8,518.725 1899.87,522.838C1900.08,535.534 1912.86,544.896 1924.39,561.173C1932.84,546.482 1946.79,534.943 1947.61,523.587C1948.71,508.489 1929.6,502.857 1926.88,520.454C1926.7,521.697 1925.24,522.255 1925.35,520.519C1925.76,515.697 1925.17,513.688 1930.62,501.8L1916.39,501.8C1919.54,507.355 1921.42,514.174 1921.63,520.035L1921.63,520.036Z" style="fill-rule:nonzero;"/>
            </g>
            <g id="path3266" transform="matrix(1,0,0,1,-1607.23,92.1351)">
                <path d="M2032.32,520.036C2032.33,522.061 2030.73,522.1 2030.75,520.621C2030.61,513.193 2024.33,509.535 2019.77,510.403C2012.73,511.74 2010.48,518.725 2010.55,522.838C2010.76,535.534 2023.54,544.896 2035.07,561.173C2043.52,546.482 2057.47,534.943 2058.29,523.587C2059.39,508.489 2040.29,502.857 2037.56,520.454C2037.38,521.697 2035.92,522.255 2036.03,520.519C2036.44,515.697 2035.86,513.688 2041.3,501.8L2027.08,501.8C2030.23,507.355 2032.1,514.174 2032.32,520.035L2032.32,520.036Z" style="fill-rule:nonzero;"/>
            </g>
            <g id="path3316" transform="matrix(1,0,0,1,-1607.23,92.1351)">
                <path d="M1885.41,347.794C1885.42,346.922 1884.52,347.329 1884.4,347.603C1883.23,349.589 1881.53,350.051 1879.85,349.335C1878.18,348.626 1877.25,347.055 1877.39,344.813C1877.71,341.375 1880.43,337.613 1881.75,335.487C1883,333.557 1884.38,331.265 1885.83,328.333C1887.52,331.696 1888.39,332.653 1890.23,335.724C1891.86,338.429 1894.12,341.077 1894.3,344.347C1894.3,346.831 1893.25,349.178 1890.9,349.606C1889.57,349.848 1888.32,349.164 1887.4,347.569C1887.12,347.163 1886.55,347.374 1886.56,347.931C1886.72,350.024 1887.51,351.914 1889.39,354.143L1882.5,354.143C1883.91,352.567 1885.35,350.439 1885.41,347.794L1885.41,347.794Z" style="fill-rule:nonzero;"/>
            </g>
            <g id="path3338" transform="matrix(1,0,0,1,-1607.23,92.1351)">
                <path d="M2072.12,520.539C2072.13,521.411 2071.23,521.004 2071.11,520.73C2069.94,518.744 2068.24,518.282 2066.56,518.998C2064.89,519.707 2063.95,521.278 2064.1,523.52C2064.41,526.958 2067.14,530.719 2068.46,532.846C2069.71,534.776 2071.09,537.068 2072.53,540C2074.23,536.637 2075.09,535.68 2076.94,532.609C2078.57,529.904 2080.83,527.256 2081.01,523.986C2081.01,521.502 2079.96,519.155 2077.61,518.727C2076.28,518.485 2075.03,519.169 2074.1,520.764C2073.82,521.17 2073.26,520.959 2073.26,520.402C2073.43,518.309 2074.22,516.419 2076.1,514.19L2069.21,514.19C2070.62,515.766 2072.06,517.894 2072.12,520.539L2072.12,520.539Z" style="fill-rule:nonzero;"/>
            </g>
        </g>
    </g>
</svg>
