<?xml version="1.0" encoding="UTF-8" standalone="no"?>
<!DOCTYPE svg PUBLIC "-//W3C//DTD SVG 1.1//EN" "http://www.w3.org/Graphics/SVG/1.1/DTD/svg11.dtd">
<svg width="100%" height="100%" viewBox="0 0 228 316" version="1.1" xmlns="http://www.w3.org/2000/svg" xmlns:xlink="http://www.w3.org/1999/xlink" xml:space="preserve" xmlns:serif="http://www.serif.com/" style="fill-rule:evenodd;clip-rule:evenodd;">
    <g transform="matrix(1,0,0,1,-258.378,-368.221)">
        <g id="_6C" serif:id="6C">
            <g id="rect6357-4" transform="matrix(1,0,0,1,-6890.41,3117.09)">
                <path d="M7374.07,-2736.18C7374.07,-2742.05 7369.31,-2746.81 7363.44,-2746.81L7161.47,-2746.81C7155.61,-2746.81 7150.84,-2742.05 7150.84,-2736.18L7150.84,-2445.63C7150.84,-2439.76 7155.61,-2435 7161.47,-2435L7363.44,-2435C7369.31,-2435 7374.07,-2439.76 7374.07,-2445.63L7374.07,-2736.18Z" style="fill:white;stroke:rgb(191,191,191);stroke-width:1px;"/>
            </g>
            <g id="path7108-1" transform="matrix(0.301062,0,0,0.301062,-61.2489,821.807)">
                <path d="M1095.47,-1380.22C1094.12,-1389.34 1094.14,-1412.92 1095.25,-1419.88C1098.67,-1441.24 1106.99,-1451 1120.91,-1454.21C1134.42,-1457.31 1153.42,-1453.85 1157.59,-1436L1146.28,-1435.79C1140.16,-1447.86 1124.7,-1444.63 1116,-1439.38C1109.04,-1435.19 1105.9,-1417.73 1107.25,-1416.65C1107.24,-1416.65 1120.39,-1426.21 1130.75,-1425.5C1152.9,-1423.24 1162.03,-1404.39 1161.26,-1386.58C1160.56,-1365.16 1153.64,-1348.04 1130.16,-1346.9C1107.85,-1347.74 1097.62,-1359.69 1095.47,-1380.22ZM1150.51,-1385.88C1150.64,-1400.75 1143.76,-1411.87 1130.75,-1413.09C1117.75,-1414.32 1104.63,-1401.86 1105.54,-1386.71C1106.45,-1371.51 1112.44,-1358.7 1128.21,-1358.78C1145.17,-1358.85 1150.43,-1375.3 1150.51,-1385.88Z" style="fill-rule:nonzero;"/>
            </g>
            <g id="path7161-2" transform="matrix(0.301062,0,0,0.301062,-61.2489,821.807)">
                <path d="M1782.2,-583.67C1783.56,-574.545 1783.54,-550.969 1782.42,-544.003C1779.01,-522.65 1770.69,-512.883 1756.77,-509.682C1743.26,-506.574 1724.26,-510.034 1720.09,-527.891L1731.4,-528.1C1737.52,-516.032 1752.98,-519.258 1761.68,-524.506C1768.63,-528.698 1771.78,-546.161 1770.43,-547.236C1770.44,-547.236 1757.29,-537.68 1746.93,-538.384C1724.78,-540.649 1715.65,-559.496 1716.42,-577.309C1717.12,-598.732 1724.04,-615.847 1747.51,-616.99C1769.83,-616.148 1780.06,-604.202 1782.2,-583.67ZM1727.16,-578.007C1727.04,-563.142 1733.92,-552.023 1746.93,-550.795C1759.93,-549.568 1773.05,-562.028 1772.14,-577.177C1771.23,-592.379 1765.23,-605.184 1749.46,-605.113C1732.5,-605.037 1727.25,-588.584 1727.16,-578.007Z" style="fill-rule:nonzero;"/>
            </g>
            <g id="path3237" transform="matrix(1,0,0,1,-1830.57,92.1351)">
                <path d="M2245.06,462.714C2247.94,456.939 2250.03,451.013 2250.41,444.677C2250.75,442.345 2249.33,442.306 2249.12,443.948C2245.04,459.541 2223.35,455.319 2224.1,440.652C2224.7,428.757 2236.52,426.198 2242.68,430.087C2245.12,431.52 2244.98,430.662 2243.65,429.176C2234.49,418.964 2240.04,405.814 2252.41,405.573C2265.79,406.367 2269.26,420.443 2261.05,428.721C2260.03,429.716 2257.77,432.913 2261.18,430.678C2269.47,424.79 2280.97,431.121 2280.73,440.198C2280.3,456.937 2259.89,458.186 2255.53,444.204C2255.11,442.654 2253.9,441.876 2254.23,444.508C2254.84,449.275 2256.09,456.462 2259.67,462.714L2245.06,462.714Z" style="fill-rule:nonzero;"/>
            </g>
            <g id="path3239" transform="matrix(1,0,0,1,-1830.57,92.1351)">
                <path d="M2145.52,462.714C2148.4,456.939 2150.5,451.013 2150.87,444.677C2151.21,442.345 2149.8,442.306 2149.58,443.948C2145.51,459.541 2123.82,455.319 2124.57,440.652C2125.17,428.757 2136.99,426.198 2143.15,430.087C2145.58,431.52 2145.45,430.662 2144.12,429.176C2134.96,418.964 2140.51,405.814 2152.88,405.573C2166.26,406.367 2169.73,420.443 2161.52,428.721C2160.5,429.716 2158.24,432.913 2161.64,430.678C2169.93,424.79 2181.43,431.121 2181.2,440.198C2180.76,456.937 2160.36,458.186 2155.99,444.204C2155.57,442.654 2154.37,441.876 2154.7,444.508C2155.3,449.275 2156.56,456.462 2160.14,462.714L2145.52,462.714Z" style="fill-rule:nonzero;"/>
            </g>
            <g id="path3241" transform="matrix(1,0,0,1,-1830.57,92.1351)">
                <path d="M2245.06,363.821C2247.94,358.045 2250.03,352.12 2250.41,345.783C2250.75,343.452 2249.33,343.413 2249.12,345.055C2245.04,360.647 2223.35,356.425 2224.1,341.758C2224.7,329.863 2236.52,327.304 2242.68,331.194C2245.12,332.626 2244.98,331.768 2243.65,330.282C2234.49,320.07 2240.04,306.92 2252.41,306.679C2265.79,307.473 2269.26,321.549 2261.05,329.828C2260.03,330.822 2257.77,334.019 2261.18,331.784C2269.47,325.896 2280.97,332.227 2280.73,341.305C2280.3,358.044 2259.89,359.292 2255.53,345.311C2255.11,343.76 2253.9,342.982 2254.23,345.615C2254.84,350.382 2256.09,357.568 2259.67,363.821L2245.06,363.821Z" style="fill-rule:nonzero;"/>
            </g>
            <g id="path3243" transform="matrix(1,0,0,1,-1830.57,92.1351)">
                <path d="M2145.52,363.821C2148.4,358.045 2150.5,352.12 2150.87,345.783C2151.21,343.452 2149.8,343.413 2149.58,345.055C2145.51,360.647 2123.82,356.425 2124.57,341.758C2125.17,329.863 2136.99,327.304 2143.15,331.194C2145.58,332.626 2145.45,331.768 2144.12,330.282C2134.96,320.07 2140.51,306.92 2152.88,306.679C2166.26,307.473 2169.73,321.549 2161.52,329.828C2160.5,330.822 2158.24,334.019 2161.64,331.784C2169.93,325.896 2181.43,332.227 2181.2,341.305C2180.76,358.044 2160.36,359.292 2155.99,345.311C2155.57,343.76 2154.37,342.982 2154.7,345.615C2155.3,350.382 2156.56,357.568 2160.14,363.821L2145.52,363.821Z" style="fill-rule:nonzero;"/>
            </g>
            <g id="path3393" transform="matrix(1,0,0,1,-1830.57,92.1351)">
                <path d="M2259.76,504.172C2256.88,509.947 2254.78,515.873 2254.41,522.209C2254.07,524.541 2255.49,524.58 2255.7,522.938C2259.78,507.345 2281.46,511.567 2280.72,526.234C2280.11,538.129 2268.3,540.688 2262.13,536.799C2259.7,535.366 2259.84,536.224 2261.16,537.71C2270.32,547.922 2264.78,561.072 2252.4,561.313C2239.03,560.519 2235.55,546.443 2243.76,538.164C2244.78,537.17 2247.04,533.973 2243.64,536.208C2235.35,542.096 2223.85,535.765 2224.08,526.687C2224.52,509.949 2244.92,508.7 2249.29,522.682C2249.71,524.232 2250.92,525.01 2250.58,522.377C2249.98,517.611 2248.73,510.424 2245.14,504.172L2259.76,504.172Z" style="fill-rule:nonzero;"/>
            </g>
            <g id="path3395" transform="matrix(1,0,0,1,-1830.57,92.1351)">
                <path d="M2160.23,504.172C2157.35,509.947 2155.25,515.873 2154.88,522.209C2154.54,524.541 2155.95,524.58 2156.17,522.938C2160.24,507.345 2181.93,511.567 2181.18,526.234C2180.58,538.129 2168.76,540.688 2162.6,536.799C2160.17,535.366 2160.3,536.224 2161.63,537.71C2170.79,547.922 2165.24,561.072 2152.87,561.313C2139.49,560.519 2136.02,546.443 2144.23,538.164C2145.25,537.17 2147.51,533.973 2144.1,536.208C2135.82,542.096 2124.32,535.765 2124.55,526.687C2124.98,509.949 2145.39,508.7 2149.76,522.682C2150.17,524.232 2151.38,525.01 2151.05,522.377C2150.45,517.611 2149.19,510.424 2145.61,504.172L2160.23,504.172Z" style="fill-rule:nonzero;"/>
            </g>
            <g id="path3462" transform="matrix(1,0,0,1,-1830.57,92.1351)">
                <path d="M2104.16,351.942C2105.36,349.497 2106.52,347.221 2107.15,344.541C2107.57,342.013 2106.71,342.952 2106.22,344.609C2105.5,346.906 2103.5,347.953 2101.64,347.978C2098.27,348.023 2096.59,345.374 2096.7,342.524C2096.33,339.525 2099.37,337.404 2101.66,337.567C2103.38,337.69 2104.88,338.619 2105.79,339.342C2106.39,339.658 2107.03,339.797 2106.14,338.984C2104.46,337.151 2103.06,336.02 2103.09,333.273C2103.12,330.694 2105.32,328.005 2108.24,328.089C2111.9,328.195 2113.56,330.979 2113.55,333.57C2113.54,335.458 2112.6,337.196 2111.14,338.272C2110.19,339.039 2110.46,339.612 2111.53,338.887C2112.57,337.995 2113.8,337.605 2115.08,337.577C2118.57,337.523 2119.93,340.539 2119.73,343.341C2119.55,345.967 2117.31,348.67 2114.37,348.364C2111.74,348.062 2110.35,345.854 2109.56,343.587C2109.3,342.892 2108.88,342.704 2108.9,343.74C2109.5,348.797 2111.39,351.944 2111.4,351.942L2104.16,351.942Z" style="fill-rule:nonzero;"/>
            </g>
            <g id="path3488" transform="matrix(1,0,0,1,-1830.57,92.1351)">
                <path d="M2301.07,513.945C2299.88,516.39 2298.72,518.666 2298.09,521.346C2297.67,523.873 2298.52,522.934 2299.01,521.278C2299.73,518.98 2301.73,517.934 2303.59,517.909C2306.96,517.863 2308.64,520.513 2308.54,523.363C2308.91,526.361 2305.87,528.483 2303.58,528.319C2301.85,528.196 2300.35,527.267 2299.44,526.544C2298.85,526.229 2298.21,526.09 2299.1,526.903C2300.78,528.736 2302.18,529.867 2302.14,532.613C2302.12,535.192 2299.91,537.882 2296.99,537.797C2293.34,537.692 2291.68,534.907 2291.69,532.317C2291.7,530.428 2292.64,528.69 2294.1,527.614C2295.04,526.848 2294.78,526.274 2293.7,526.999C2292.66,527.891 2291.43,528.282 2290.16,528.309C2286.66,528.364 2285.3,525.348 2285.5,522.545C2285.69,519.919 2287.92,517.217 2290.87,517.523C2293.5,517.824 2294.88,520.033 2295.67,522.3C2295.94,522.995 2296.35,523.182 2296.34,522.146C2295.73,517.089 2293.85,513.942 2293.83,513.945L2301.07,513.945Z" style="fill-rule:nonzero;"/>
            </g>
        </g>
    </g>
</svg>
