<?xml version="1.0" encoding="UTF-8" standalone="no"?>
<!DOCTYPE svg PUBLIC "-//W3C//DTD SVG 1.1//EN" "http://www.w3.org/Graphics/SVG/1.1/DTD/svg11.dtd">
<svg width="100%" height="100%" viewBox="0 0 228 316" version="1.1" xmlns="http://www.w3.org/2000/svg" xmlns:xlink="http://www.w3.org/1999/xlink" xml:space="preserve" xmlns:serif="http://www.serif.com/" style="fill-rule:evenodd;clip-rule:evenodd;">
    <g transform="matrix(1,0,0,1,-258.378,-368.221)">
        <g id="_7S" serif:id="7S">
            <g id="rect6359-6" transform="matrix(1,0,0,1,-5774.27,2805.28)">
                <path d="M6257.93,-2424.37C6257.93,-2430.24 6253.17,-2435 6247.3,-2435L6045.33,-2435C6039.46,-2435 6034.7,-2430.24 6034.7,-2424.37L6034.7,-2133.82C6034.7,-2127.95 6039.46,-2123.19 6045.33,-2123.19L6247.3,-2123.19C6253.17,-2123.19 6257.93,-2127.95 6257.93,-2133.82L6257.93,-2424.37Z" style="fill:white;stroke:rgb(191,191,191);stroke-width:1px;"/>
            </g>
            <g id="path7110-5" transform="matrix(0.301062,0,0,0.301062,-324.685,824.393)">
                <path d="M1984.51,-1353.9C1991.59,-1390.73 1999.15,-1418.37 2018.99,-1448.39L1978.68,-1448.39L1978.68,-1435.47L1967.97,-1435.47L1967.97,-1459.82L2026.94,-1459.82L2034.21,-1448.39C2013.15,-1425.81 1993.86,-1352.83 1997.28,-1353.9L1984.51,-1353.9Z" style="fill-rule:nonzero;"/>
            </g>
            <g id="path7126-4" transform="matrix(0.301062,0,0,0.301062,-324.685,824.393)">
                <path d="M2643.99,-627.171C2636.91,-590.335 2629.34,-562.698 2609.51,-532.679L2649.82,-532.679L2649.82,-545.601L2660.53,-545.601L2660.53,-521.251L2601.56,-521.251L2594.29,-532.679C2615.35,-555.256 2634.64,-628.235 2631.22,-627.171L2643.99,-627.171Z" style="fill-rule:nonzero;"/>
            </g>
            <g id="path3212" transform="matrix(1,0,0,1,-714.312,-219.676)">
                <path d="M1027.84,659.956C1027.86,657.93 1026.25,657.892 1026.27,659.37C1026.14,666.799 1019.86,670.457 1015.29,669.589C1008.25,668.251 1006.01,661.267 1006.08,657.154C1006.28,644.457 1019.07,635.095 1030.6,618.819C1039.05,633.51 1052.99,645.049 1053.82,656.405C1054.92,671.503 1035.81,677.134 1033.08,659.537C1032.91,658.294 1031.44,657.736 1031.56,659.472C1031.97,664.295 1031.38,666.304 1036.82,678.192L1022.6,678.192C1025.75,672.637 1027.63,665.817 1027.84,659.956L1027.84,659.956Z" style="fill-rule:nonzero;"/>
            </g>
            <g id="path3214" transform="matrix(1,0,0,1,-714.312,-219.676)">
                <path d="M1139.37,659.956C1139.39,657.93 1137.79,657.892 1137.81,659.37C1137.67,666.799 1131.39,670.457 1126.82,669.589C1119.79,668.251 1117.54,661.267 1117.61,657.154C1117.82,644.457 1130.6,635.095 1142.13,618.819C1150.58,633.51 1164.53,645.049 1165.35,656.405C1166.45,671.503 1147.34,677.134 1144.62,659.537C1144.44,658.294 1142.98,657.736 1143.09,659.472C1143.5,664.295 1142.91,666.304 1148.36,678.192L1134.13,678.192C1137.28,672.637 1139.16,665.817 1139.37,659.956L1139.37,659.956Z" style="fill-rule:nonzero;"/>
            </g>
            <g id="path3216" transform="matrix(1,0,0,1,-714.312,-219.676)">
                <path d="M1084.28,710.08C1084.29,708.055 1082.69,708.016 1082.71,709.494C1082.57,716.923 1076.29,720.581 1071.72,719.713C1064.69,718.376 1062.44,711.391 1062.51,707.278C1062.72,694.581 1075.5,685.219 1087.03,668.943C1095.48,683.634 1109.43,695.173 1110.25,706.529C1111.35,721.627 1092.25,727.259 1089.52,709.662C1089.34,708.419 1087.88,707.861 1087.99,709.597C1088.4,714.419 1087.82,716.428 1093.26,728.316L1079.04,728.316C1082.18,722.761 1084.06,715.942 1084.28,710.08L1084.28,710.08Z" style="fill-rule:nonzero;"/>
            </g>
            <g id="path3218" transform="matrix(1,0,0,1,-714.312,-219.676)">
                <path d="M1139.37,760.204C1139.39,758.179 1137.79,758.14 1137.81,759.619C1137.67,767.047 1131.39,770.705 1126.82,769.837C1119.79,768.5 1117.54,761.515 1117.61,757.402C1117.82,744.706 1130.6,735.344 1142.13,719.067C1150.58,733.758 1164.53,745.297 1165.35,756.653C1166.45,771.751 1147.34,777.383 1144.62,759.786C1144.44,758.543 1142.98,757.985 1143.09,759.721C1143.5,764.543 1142.91,766.552 1148.36,778.44L1134.13,778.44C1137.28,772.885 1139.16,766.066 1139.37,760.205L1139.37,760.204Z" style="fill-rule:nonzero;"/>
            </g>
            <g id="path3220" transform="matrix(1,0,0,1,-714.312,-219.676)">
                <path d="M1027.84,760.204C1027.86,758.179 1026.25,758.14 1026.27,759.619C1026.14,767.047 1019.86,770.705 1015.29,769.837C1008.25,768.5 1006.01,761.515 1006.08,757.402C1006.28,744.706 1019.07,735.344 1030.6,719.067C1039.05,733.758 1052.99,745.297 1053.82,756.653C1054.92,771.751 1035.81,777.383 1033.08,759.786C1032.91,758.543 1031.44,757.985 1031.56,759.721C1031.97,764.543 1031.38,766.552 1036.82,778.44L1022.6,778.44C1025.75,772.885 1027.63,766.066 1027.84,760.205L1027.84,760.204Z" style="fill-rule:nonzero;"/>
            </g>
            <g id="path3304" transform="matrix(1,0,0,1,-714.312,-219.676)">
                <path d="M1139.38,835.927C1139.4,837.953 1137.8,837.992 1137.82,836.513C1137.68,829.084 1131.4,825.427 1126.84,826.294C1119.8,827.632 1117.55,834.616 1117.62,838.73C1117.83,851.426 1130.61,860.788 1142.14,877.064C1150.59,862.374 1164.54,850.835 1165.36,839.479C1166.46,824.381 1147.36,818.749 1144.63,836.346C1144.45,837.589 1142.99,838.147 1143.1,836.411C1143.52,831.588 1142.93,829.58 1148.37,817.692L1134.14,817.692C1137.29,823.246 1139.17,830.066 1139.38,835.927L1139.38,835.927Z" style="fill-rule:nonzero;"/>
            </g>
            <g id="path3306" transform="matrix(1,0,0,1,-714.312,-219.676)">
                <path d="M1027.85,835.927C1027.87,837.953 1026.27,837.992 1026.28,836.513C1026.15,829.084 1019.87,825.427 1015.3,826.294C1008.27,827.632 1006.02,834.616 1006.09,838.73C1006.3,851.426 1019.08,860.788 1030.61,877.064C1039.06,862.374 1053.01,850.835 1053.83,839.479C1054.93,824.381 1035.82,818.749 1033.09,836.346C1032.92,837.589 1031.45,838.147 1031.57,836.411C1031.98,831.588 1031.39,829.58 1036.83,817.692L1022.61,817.692C1025.76,823.246 1027.64,830.066 1027.85,835.927L1027.85,835.927Z" style="fill-rule:nonzero;"/>
            </g>
            <g id="path3324" transform="matrix(1,0,0,1,-714.312,-219.676)">
                <path d="M991.818,660.968C991.828,660.096 990.923,660.503 990.8,660.777C989.637,662.763 987.935,663.225 986.252,662.509C984.585,661.8 983.648,660.229 983.798,657.987C984.108,654.549 986.834,650.788 988.153,648.661C989.405,646.731 990.781,644.439 992.23,641.507C993.927,644.87 994.789,645.827 996.635,648.898C998.261,651.603 1000.53,654.251 1000.7,657.521C1000.7,660.006 999.657,662.352 997.303,662.78C995.972,663.022 994.725,662.338 993.799,660.743C993.518,660.337 992.951,660.549 992.96,661.105C993.125,663.198 993.916,665.088 995.79,667.317L988.903,667.317C990.313,665.741 991.751,663.613 991.818,660.968L991.818,660.968Z" style="fill-rule:nonzero;"/>
            </g>
            <g id="path3348" transform="matrix(1,0,0,1,-714.312,-219.676)">
                <path d="M1180.63,833.713C1180.64,834.585 1179.74,834.178 1179.62,833.904C1178.45,831.918 1176.75,831.456 1175.07,832.172C1173.4,832.881 1172.46,834.452 1172.61,836.694C1172.92,840.132 1175.65,843.893 1176.97,846.02C1178.22,847.95 1179.6,850.242 1181.05,853.174C1182.74,849.811 1183.6,848.854 1185.45,845.783C1187.08,843.078 1189.34,840.43 1189.52,837.16C1189.52,834.676 1188.47,832.329 1186.12,831.901C1184.79,831.659 1183.54,832.343 1182.62,833.938C1182.33,834.344 1181.77,834.133 1181.78,833.576C1181.94,831.483 1182.73,829.593 1184.61,827.364L1177.72,827.364C1179.13,828.94 1180.57,831.068 1180.63,833.713L1180.63,833.713Z" style="fill-rule:nonzero;"/>
            </g>
        </g>
    </g>
</svg>
