<svg clip-rule="evenodd" fill-rule="evenodd" viewBox="0 0 228 316" xmlns="http://www.w3.org/2000/svg"><path d="m6481.16-2424.37c0-5.87-4.77-10.63-10.63-10.63h-201.97c-5.87 0-10.63 4.76-10.63 10.63v290.55c0 5.87 4.76 10.63 10.63 10.63h201.97c5.86 0 10.63-4.76 10.63-10.63z" fill="#fff" stroke="#bfbfbf" transform="translate(-6255.878 2437.059)"/><g fill="#d40000" fill-rule="nonzero" transform="matrix(.301062 0 0 .301062 -885.78 457.122)"><path d="m3056.57-1323.48c32.96-32.15 54.6-67.22 75.3-100.94 18.14 37.11 44.19 69.57 72.36 100.94-30.14 31.12-53.49 64.4-72.28 99.38-20.81-35.86-42.73-68.33-75.38-99.38z"/><path d="m3056.57-990.494c32.96-32.156 54.6-67.216 75.3-100.936 18.14 37.1 44.19 69.56 72.36 100.936-30.14 31.119-53.49 64.393-72.28 99.374-20.81-35.858-42.73-68.33-75.38-99.374z"/><path d="m3056.57-662.991c32.96-32.158 54.6-67.22 75.3-100.939 18.14 37.102 44.19 69.561 72.36 100.939-30.14 31.118-53.49 64.393-72.28 99.374-20.81-35.859-42.73-68.33-75.38-99.374z"/><path d="m3243.19-1156.99c32.95-32.15 54.59-67.21 75.29-100.93 18.15 37.1 44.2 69.56 72.37 100.93-30.14 31.12-53.5 64.4-72.28 99.38-20.82-35.86-42.73-68.33-75.38-99.38z"/><path d="m3427.04-1323.48c32.95-32.15 54.59-67.22 75.29-100.94 18.15 37.11 44.2 69.57 72.36 100.94-30.13 31.12-53.49 64.4-72.27 99.38-20.82-35.86-42.74-68.33-75.38-99.38z"/><path d="m3427.04-990.494c32.95-32.156 54.59-67.216 75.29-100.936 18.15 37.1 44.2 69.56 72.36 100.936-30.13 31.119-53.49 64.393-72.27 99.374-20.82-35.858-42.74-68.33-75.38-99.374z"/><path d="m3427.04-662.991c32.95-32.158 54.59-67.22 75.29-100.939 18.15 37.102 44.2 69.561 72.36 100.939-30.13 31.118-53.49 64.393-72.27 99.374-20.82-35.859-42.74-68.33-75.38-99.374z"/><path d="m3243.19-826.742c32.95-32.158 54.59-67.22 75.29-100.94 18.15 37.103 44.2 69.562 72.37 100.94-30.14 31.118-53.5 64.393-72.28 99.374-20.82-35.859-42.73-68.33-75.38-99.374z"/><path d="m3606.56-676.617c13.5-13.173 22.37-27.536 30.85-41.348 7.43 15.198 18.1 28.495 29.64 41.348-12.35 12.748-21.91 26.379-29.61 40.708-8.53-14.689-17.5-27.991-30.88-40.708z"/><path d="m2979.4-1293.96c13.5-13.17 22.36-27.53 30.84-41.35 7.44 15.2 18.11 28.5 29.65 41.35-12.35 12.75-21.92 26.38-29.61 40.71-8.53-14.69-17.51-27.99-30.88-40.71z"/><path d="m2971.74-1386.82c.53-14.53 5.88-19.99 16.42-27.59-8.4-5.97-11.95-14.74-11.23-22.22 1.73-18.09 15.98-27.14 31.5-26.75 15.53.4 28.92 12.5 29.96 25.65.91 11.44-2.56 16.95-10.82 22.97 9.81 8.11 16.08 13.45 15.84 27.77s-12.64 31.36-34.26 31.88-37.94-17.17-37.41-31.71zm60.36.05c.93-13.16-10.92-22.04-24.29-22.17-13.03-.14-24.68 10.78-24.68 22.59 0 12.7 15.15 19.59 24.95 19.63 11.89.04 23.22-8.71 24.02-20.05zm-4.27-47.08c.25-11.08-10.16-19.03-20.89-18.71-9.55.29-19.67 7.45-19.68 16.71 0 11.6 11.5 17.38 21.32 17.6 8.9.2 19.05-7.22 19.25-15.6z"/><path d="m3667.75-600.564c-.53 14.533-5.88 19.991-16.42 27.6 8.4 5.963 11.95 14.737 11.23 22.212-1.73 18.092-15.97 27.144-31.5 26.75s-28.92-12.501-29.96-25.649c-.91-11.437 2.56-16.948 10.82-22.969-9.81-8.109-16.08-13.452-15.84-27.769.24-14.316 12.64-31.355 34.26-31.878s37.94 17.169 37.41 31.703zm-60.36-.048c-.93 13.16 10.92 22.04 24.29 22.178 13.03.134 24.68-10.784 24.68-22.6 0-12.692-15.16-19.586-24.95-19.622-11.89-.044-23.23 8.709-24.02 20.044zm4.27 47.078c-.25 11.086 10.16 19.031 20.89 18.711 9.55-.284 19.67-7.443 19.67-16.71.02-11.592-11.5-17.38-21.31-17.598-8.9-.198-19.05 7.223-19.25 15.597z"/></g></svg>