<svg clip-rule="evenodd" fill-rule="evenodd" viewBox="0 0 228 316" xmlns="http://www.w3.org/2000/svg"><path d="m6704.39-2424.37c0-5.87-4.77-10.63-10.63-10.63h-201.97c-5.87 0-10.63 4.76-10.63 10.63v290.55c0 5.87 4.76 10.63 10.63 10.63h201.97c5.86 0 10.63-4.76 10.63-10.63z" fill="#fff" stroke="#bfbfbf" transform="translate(-6479.098 2437.059)"/><g fill="#d40000" fill-rule="nonzero" transform="matrix(.301062 0 0 .301062 -1133.649 452.537)"><path d="m3880.86-1304.8c32.95-32.15 54.59-67.22 75.29-100.94 18.15 37.11 44.2 69.57 72.36 100.94-30.13 31.12-53.49 64.4-72.27 99.38-20.82-35.86-42.74-68.33-75.38-99.38z"/><path d="m3880.86-1087.8c32.95-32.15 54.59-67.22 75.29-100.94 18.15 37.11 44.2 69.57 72.36 100.94-30.13 31.12-53.49 64.4-72.27 99.377-20.82-35.857-42.74-68.327-75.38-99.377z"/><path d="m3880.86-865.594c32.95-32.158 54.59-67.22 75.29-100.939 18.15 37.102 44.2 69.561 72.36 100.939-30.13 31.118-53.49 64.393-72.27 99.374-20.82-35.858-42.74-68.33-75.38-99.374z"/><path d="m3880.86-649.341c32.95-32.158 54.59-67.22 75.29-100.94 18.15 37.103 44.2 69.562 72.36 100.94-30.13 31.118-53.49 64.393-72.27 99.374-20.82-35.859-42.74-68.33-75.38-99.374z"/><path d="m4068.34-977.729c32.96-32.161 54.6-67.221 75.29-100.941 18.15 37.1 44.2 69.56 72.37 100.941-30.14 31.118-53.5 64.393-72.28 99.374-20.82-35.859-42.73-68.33-75.38-99.374z"/><path d="m4251.32-1304.8c32.95-32.15 54.6-67.22 75.29-100.94 18.15 37.11 44.2 69.57 72.37 100.94-30.14 31.12-53.5 64.4-72.28 99.38-20.81-35.86-42.73-68.33-75.38-99.38z"/><path d="m4251.32-1087.8c32.95-32.15 54.6-67.22 75.29-100.94 18.15 37.11 44.2 69.57 72.37 100.94-30.14 31.12-53.5 64.4-72.28 99.377-20.81-35.857-42.73-68.327-75.38-99.377z"/><path d="m4251.32-865.594c32.95-32.158 54.6-67.22 75.29-100.939 18.15 37.102 44.2 69.561 72.37 100.939-30.14 31.118-53.5 64.393-72.28 99.374-20.81-35.858-42.73-68.33-75.38-99.374z"/><path d="m4251.32-649.341c32.95-32.158 54.6-67.22 75.29-100.94 18.15 37.103 44.2 69.562 72.37 100.94-30.14 31.118-53.5 64.393-72.28 99.374-20.81-35.859-42.73-68.33-75.38-99.374z"/><path d="m4426.56-676.617c13.5-13.173 22.37-27.536 30.85-41.348 7.43 15.198 18.1 28.495 29.64 41.348-12.35 12.748-21.91 26.379-29.61 40.708-8.53-14.689-17.5-27.991-30.88-40.708z"/><path d="m3799.4-1293.96c13.5-13.17 22.36-27.53 30.84-41.35 7.44 15.2 18.11 28.5 29.65 41.35-12.35 12.75-21.92 26.38-29.61 40.71-8.53-14.69-17.51-27.99-30.88-40.71z"/><path d="m3799.82-1365.61 10.05-3.13c3.79 9.95 11.46 12.89 19.57 12.26 14.55-1.13 19.38-17.1 20.48-31.22-5.68 5.89-14.2 8.88-21.46 8.59-23.19-1.22-29.13-19.44-29.34-38.53-.65-16.1 6.13-27.76 17.76-33.1 6.15-2.71 20.24-2.71 26.44.5 14.22 7.36 19.49 20.09 18.53 50.46.02 24.99-5.4 54.1-32.68 54.72-15.76 2.14-27.74-9.9-29.35-20.55zm39.48-27.38c4.73-2.94 7.4-5.7 9.53-9.84 1.74-3.39 2.33-5.16 1.83-12.19-1.28-18.12-10.96-28.39-24.99-26.35-7.83 1.14-12.1 5.44-14.56 13.45-4.54 14.77 1.21 32.07 11.98 36.06 4.86 1.79 12.34 1.27 16.21-1.13z"/><path d="m4484.18-591.314-10.06 3.128c-3.79-9.949-11.45-12.883-19.56-12.253-14.56 1.132-19.39 17.102-20.48 31.221 5.67-5.893 14.2-8.887 21.45-8.595 23.2 1.227 29.13 19.446 29.35 38.535.64 16.097-6.14 27.754-17.77 33.094-6.15 2.712-20.24 2.712-26.43-.494-14.23-7.361-19.49-20.091-18.54-50.458-.01-24.991 5.4-54.099 32.68-54.723 15.77-2.139 27.74 9.898 29.36 20.545zm-39.49 27.382c-4.73 2.941-7.4 5.7-9.52 9.838-1.74 3.397-2.33 5.159-1.83 12.192 1.27 18.121 10.95 28.392 24.99 26.352 7.83-1.139 12.1-5.442 14.56-13.446 4.53-14.778-1.22-32.077-11.99-36.062-4.86-1.797-12.34-1.277-16.21 1.126z"/></g></svg>