<svg clip-rule="evenodd" fill-rule="evenodd" viewBox="0 0 228 316" xmlns="http://www.w3.org/2000/svg"><path d="m6257.93-2736.18c0-5.87-4.76-10.63-10.63-10.63h-201.97c-5.87 0-10.63 4.76-10.63 10.63v290.55c0 5.87 4.76 10.63 10.63 10.63h201.97c5.87 0 10.63-4.76 10.63-10.63z" fill="#fff" stroke="#bfbfbf" transform="translate(-6032.648 2748.869)"/><g fill="#d40000" fill-rule="nonzero" transform="matrix(.301062 0 0 .301062 -302.0037 800.759)"><path d="m1306.38-2134.65c32.95-32.16 54.59-67.22 75.29-100.94 18.15 37.1 44.2 69.56 72.37 100.94-30.14 31.12-53.5 64.39-72.28 99.37-20.82-35.86-42.73-68.33-75.38-99.37z"/><path d="m1661.74-1825.74c13.5-13.17 22.37-27.54 30.84-41.35 7.44 15.2 18.11 28.49 29.65 41.35-12.35 12.75-21.92 26.38-29.61 40.71-8.53-14.69-17.5-28-30.88-40.71z"/><path d="m1036.02-2442.51c13.5-13.18 22.37-27.54 30.85-41.35 7.43 15.2 18.1 28.49 29.64 41.35-12.35 12.74-21.91 26.37-29.61 40.7-8.52-14.69-17.5-27.99-30.88-40.7z"/><path d="m1033.99-2499.93v-9.09h8.84l18.81-97.23h10.7l20.74 97.23h7.13v9.09h-24.3v-9.09h6.56l-2.61-14.9h-24.53l-1.9 14.9h6.57v9.09zm43.77-34.6-10.66-52.05-9.99 52.05z"/><path d="m1727.39-1770.25v9.09h-8.84l-18.81 97.23h-10.71l-20.73-97.23h-7.14v-9.09h24.31v9.09h-6.57l2.62 14.9h24.53l1.89-14.9h-6.56v-9.09zm-43.77 34.6 10.66 52.05 9.98-52.05z"/></g></svg>