<svg clip-rule="evenodd" fill-rule="evenodd" viewBox="0 0 228 316" xmlns="http://www.w3.org/2000/svg"><path d="m6257.93-2736.18c0-5.87-4.76-10.63-10.63-10.63h-201.97c-5.87 0-10.63 4.76-10.63 10.63v290.55c0 5.87 4.76 10.63 10.63 10.63h201.97c5.87 0 10.63-4.76 10.63-10.63z" fill="#fff" stroke="#bfbfbf" transform="translate(-6032.648 2748.869)"/><g fill="#d40000" fill-rule="nonzero"><path d="m1033.99-2499.93v-9.09h8.84l18.81-97.23h10.7l20.74 97.23h7.13v9.09h-24.3v-9.09h6.56l-2.61-14.9h-24.53l-1.9 14.9h6.57v9.09zm43.77-34.6-10.66-52.05-9.99 52.05z" transform="matrix(.301062 0 0 .301062 -302.0037 800.759)"/><path d="m1727.39-1770.25v9.09h-8.84l-18.81 97.23h-10.71l-20.73-97.23h-7.14v-9.09h24.31v9.09h-6.57l2.62 14.9h24.53l1.89-14.9h-6.56v-9.09zm-43.77 34.6 10.66 52.05 9.98-52.05z" transform="matrix(.301062 0 0 .301062 -302.0037 800.759)"/><path d="m1359.11 232.88c-1.59-3.472-1.76-9.405 2.97-10.208 3.56-.458 5.01 1.198 5.3 3.742.14.743.56.788.69-.058.21-2.61 2.79-4.133 4.81-3.75 5.52.945 5.2 7.028 3.4 11.155-2.73 5.48-5.6 8.938-8.25 14.452-3.04-5.741-6.5-10.405-8.92-15.333z" transform="translate(-1348.768 -170.071)"/><path d="m1450.39 299.285c7.14-.475 10.87 5.627 11.6 10.436.43.764.67.549.83-.042.35-6.174 5.88-11.22 11-10.53 8.32.108 13.38 9.375 11.96 17.218-1.74 9.582-6.9 15.351-10.81 21.293-4.42 6.153-10.37 15.04-12.29 19.317 0 0-6.05-9.204-13.91-20.029-5.27-7.239-9.48-15.083-9.87-21.836-.45-7.715 2.72-14.631 11.49-15.827z" transform="translate(-1348.768 -170.071)"/><path d="m1547.49 423.567c-1.59 3.472-1.76 9.406 2.97 10.208 3.56.459 5.01-1.198 5.3-3.742.14-.743.56-.788.69.059.21 2.609 2.79 4.132 4.81 3.75 5.53-.946 5.2-7.029 3.4-11.156-2.73-5.479-5.6-8.938-8.25-14.452-3.04 5.741-6.51 10.405-8.92 15.333z" transform="translate(-1348.768 -170.071)"/></g></svg>