<svg clip-rule="evenodd" fill-rule="evenodd" stroke-linejoin="round" stroke-miterlimit="2" viewBox="0 0 228 316" xmlns="http://www.w3.org/2000/svg"><path d="m225.282 12.685c0-5.867-4.76-10.63-10.63-10.63h-201.97c-5.87 0-10.63 4.763-10.63 10.63v290.551c0 5.867 4.76 10.63 10.63 10.63h201.97c5.87 0 10.63-4.763 10.63-10.63z" fill="#fff"/><g fill-rule="nonzero"><path d="m64.616 281.154c-.836 1.194-4.456-7.135-6.78-13.448-1.143-3.103-2.669-5.659-2.038-6.474 1.655-1.673 5.941-.176 9.058 2.214 3.33 2.555 5.681 6.312 5.681 6.312zm-29.214-6.175-.102-4.649c2.869-2.579 6.964-6.308 11.135-11.123l-10.822.067-.85-4.041-.114-176.598s11.863 12.278 12.168 12.282c.177.002.02 73.32.086 122.348.097.231-6.252.087-6.669 3.295-.275 2.119 6.888 1.827 7.002 1.968-.016 22.038-.321 37.86-.167 37.86 5.437 0 6.579.215 6.579.215-6.135 6.338-12.51 11.523-18.246 18.376zm38.658-22.689c-.956-1.902-2.479-9.215-3.644-9.04-5.351 1.772-7.075-6.115-1.539-6.521 2.097-.153 4.438 2.575 5.752 5.97.631 1.778-.02 10.303-.569 9.591zm1.206-10.967c-1.578-2.575-3.089-11.978-5.964-11.445-2.626.596-4.305-1.701-4.049-3.713 1.346-5.652 10.966-.282 13.49 1.02-1.251 2.838-3.019 9.914-3.477 14.138zm-20.175-25.796c-.687-.282 1.07-3.119 1.087-6.388.021-3.706-1.669-7.797-1.469-8.392 6.296-4.933 14.854-10.249 16.411-7.423 1.6 12.022.773 18.705-1.023 27.68l-1.186.62s-1.989-.374-3.465-1.135l-7.753-3.895zm101.258-90.744c-1.165-9.26-.319-23.67 1.335-29.372.634-1.93 12.623 6.054 13.58 6.649.897.557 1.329.473.787 2.909-.626 2.813-.529 6.123.357 9.891.332 1.407.589 1.953-.294 2.57-.918.641-15.46 8.289-15.765 7.353zm-5.688-38.433c.248-.594 1.238-7.526 1.545-7.553 1.004-.087 2.477 6.789 5.038 9.058 4.837-.558 5.403 2.714 4.458 4.296.233.694-1.562 2.203-3.24 2.058-4.169-1.626-9.791-3.065-7.801-7.859zm-64.675-5.645c-1.364-.96 1.223-7.869 8.586-6.284 3.166-5.961 3.339-19.404 4.87-20.237 2.304-.851 25.795-7.368 25.096-1.687-.751 6.099-1.963 35.485-10.81 42.705-.889 1.055 13.999 11.12 13.999 11.12s15.701-9.772 14.803-9.627c-.387.105-.692 8.313-.923 21.586-.221 12.812 1.654 21.983 5.557 35.534-.496 1.64 2.989 9.836 6.887 17.962 4.417 9.215 10.397 18.518 10.397 18.518-10.278-3.46-19.72-2.113-31.244-6.069l-.565 45.54s5.966 3.113 7.116 4.544c.563.7.626 1.674.69 2.557.249 3.439-2.66 7.53-8.189 6.181-1.735 6.065-4.223 20.329-4.318 20.325-8.443 1.136-17 2.358-25.553 1.899 0 0 1.279-4.58 1.77-11.468.178-2.509.305-5.211.6-8.084 1.081-10.587 4.197-22.148 9.227-22.89-.993.394-12.764-9.754-14.369-10.48-6.618 3.452-15.314 9.243-15.314 9.243s1.145-8.388 1.197-17.179c.055-9.423-.611-19.838-.909-22.548-2.281-15.528-8.629-29.661-13.756-40.236-2.06-4.249-5.141-11.048-5.141-11.048 7.56-.87 16.119-.457 29.476 3.531 0 0-.751-45.961-.755-45.706.121.41-3.434-1.463-6.689-3.53-1.745-1.108-1.566-4.053-1.736-4.172zm66.664-10.304c.055-.467.27-5.659.27-5.659 2.091 2.45 3.778 9.634 4.194 9.513 0 0 2.685-.422 3.519.467 2.725 2.897.047 6.319-2.676 5.679-2.708-.696-5.684-5.324-5.307-10zm27.776 155.828s-.712-81.111-.698-121.966c2.914-.475 5.931 1.462 8.657-2.681-1.443-2.989-5.562-2.079-8.66-2.682l-.029-37.668s-5.169-.09-5.173-.429c-.005-.311 2.664-2.822 7.713-8.098.607-.634 1.637-1.735 2.289-2.445 2.547-2.776 6.594-7.4 6.786-7.214 1.587 1.347 1.422 3.536-5.95 10.381-5.374 4.989-5.581 4.656.363 4.572 5.668-.103 6.388-.575 5.593 1.465.013.833.659 1.483.507 1.613-.165.141.037 177.207.037 177.207zm-17.314-188.918c.038.104.782.386 1.581 1.27 3.268 5.349 4.963 12.127 7.53 16.803-5.316 2.361-12.691-2.881-14.471-7.465-2.16-5.771 4.162-13.788 5.36-10.608z" fill="#e2cf00"/><path d="m33.242 29.801.206 257.114 160.806.238-.692-257.647zm53.247 54.057c.217.415.573 1.012.573 1.012s-.387.1-.658.277c-18.608 6.882-38.732 22.216-39.08 22.667l.355-16.973-12.478-12.967.047-45.993h48.392l14.192 23.727c-.852 6.216-3.063 18.248-3.063 18.248-1.303-.315-5.697-.728-8.071 2.676-1.133 1.623-1.737 3.836-.209 7.326zm90.723 52.934 1.838-2.328-3.24.148 2.225-2.413-3.586-.083 2.796-2.373-3.773-.044 2.804-2.335-4.13.187 2.958-2.54-4.082.017 3.045-2.555-3.995-.055 2.596-2.295-3.487-.041 3.942-2.767c1.682.735 3.941 1.153 6.213 1.201l.047 18.629zm2.826-32.303c9.215.031 11.186-4.891.049-5.674 0 0-.871-24.427-.621-34.538.002-1.235.118-2.622.118-2.622l-6.067-.155s16.264-17.552 17.796-18.98c1.39 59 1.328 195.985 1.328 195.985l-12.427-12.431-.136-38.733c-4.159-4.213-6.542-10.358-9.018-14.338l-6.796-3.301 1.598-5.459-.684-1.552-2.121 7.724 7.434 3.532.787 1.597-1.251 7.278 7.034 2.413 1.22 1.673-.441 7.107 1.455.446.015 1.408-1.461-.123-.522 7.979 1.987.583-.004 1.802c-.002-.032-1.158.006-1.727-.043-.784-.424-2.077-2.105-2.077-2.105l.703-8.861-8.918-1.787-.664-.939 1.641-8.856-9.364-2.864c.961 2.364 2.235 4.576 3.296 6.903-1.287.372-2.63.456-3.931.735-.352 11.965.054 24.414-.317 35.667-7.537.543-4.001-.174-7.278-.124-1.283 0-2.324 1.041-2.324 2.323 0 .82.425 1.54 1.066 1.954l-1.298.464-2.271-2.569 4.747-4.552-.029-1.308-5.894 5.893 2.552 2.944-1.518.787-2.328-2.451s-5.01 5.126-4.699 5.22c.156.047.434.305.622.569 3.567 7.7-1.3 11.379-7.184 9.249-1.495 7.086-2.922 13.481-4.099 20.822-4.396 1.66-25.075 2.619-25.302 2.238 0 0-.524-.499-.547-.748.094-.329-.593.683-.593.683 0 .437-18.025-.449-26.914-2.144 0 0-.182-.853-.109-1.977.146-2.254-.029-2.233 2.024-1.905 4.192.28 7.444-1.158 8.737-4.846.725-2.066.385-3.926-.721-9.453-1.072-5.366-1.084-4.788-.957-5.513.15-.853 1.07-1.803 2.39-2.874.995-.808 1.095-2.333.294-1.489-.551.804-1.522 1.091-2.39 1.541-2.04 1.068-1.972 2.098-.767 6.505.564 2.068 1.156 4.297 1.176 4.556.06.81-.233.479-1.448-.356-.778-.569-1.675-1.038-2.474-1.507-2.441-1.302-1.36.123.99 1.687 1.848 1.37 2.155 1.96.56 1.305-1.643-.672-4-.381-5.845.312-.363.202-.63.179-.688-.151-.081-.516.234-1.813.371-4.808.344-7.574 2.128-15.646 7.167-20.311 7.212-6.677 19.064-2.146 25.641 4.04l.71-1.081c-4.415-3.705-12.066-8.327-19.518-7.429 3.116-2.599 9.989-6.903 9.989-6.903 4.713 3.418 8.19 6.828 13.364 10.53l.901-.598-14.232-11.284-15.332 10.109s.637-9.697.877-13.242l-6.653 5.879 5.131 7.595-5.439 5.594s.919-.129-.085 1.598c-1.531 3.104-2.455 8.105-3.162 13.185.137 3.793-.798 7.99-1.086 11.331-.504-3.13-1.097-4.774-2.256-7.614-1.065-2.737-1.481-2.716-2.681-2.317-6.505.546-3.56-12.002 4.127-3.794.337.347.894.773.919.691.16-.503-2.04-7.112-2.891-8.636-.9-1.609-.907-1.836-2.243-1.699-2.5.258-3.346-.632-3.6-3.264.333-4.975 5.717-2.873 9.165-1.344.313.239-1.617-1.757-2.307-2.461-.939-.956-1.091-1.569-1.091-1.569l.203-2.641 5.277-4.817-4.338-6.405.181-2.29 4.636-5.561-4.94-5.362-.062-1.911 4.016-5.343-5.381-4.314-.261-1.721s3.454-6.391 3.362-6.623c-.079-.196-5.832-4.168-5.832-4.168l-.578-2.688 2.499-6.822-5.979-3.414-1.096-3.081 1.683-6.32-6.201-2.864-1.769-3.56 1.153-6.642-6.95-2.058-1.845-2.92.242-5.841-1.703-.176.025-1.441 1.896.014s-.147-.215.062-3.101c.355-4.906.389-4.717-.782-4.921-2.469-.429-1.903-1.945.62-1.664.388.043.715.076.991.128.664.125 1.177.986 1.177.986l-.555 9.06 8.889 1.484.845 1.138-1.49 8.397 8.344 2.413 1.124 2.034-2.365 8.733 8.409 3.698.556 1.621-3.57 7.752 7.728 3.754.483 1.859-4.291 7.993 8.909 6.481s-.238-.634-.593-1.692l-7.064-5.045 3.579-6.822s.285.498.588.393c-.179-1.138-.321-2.283-.403-3.404l-3.646-9.501 11.796-7.931c-5.054-3.043-11.432-2.941-17.286-4.082 0 0-.257-.815-.697-1.546-1.703-2.731-3.236-6.205-5.135-9.789 1.4-.66 2.005-.575 3.509-.869 0 0 3.799-23.805 6.775-35.437 0 0 .459.138.683.145 1.446 0 2.617-1.175 2.617-2.622 0-.79-.352-1.497-.905-1.977.324-.092.666-.184 1.028-.27.478-.007 2.414 2.129 2.414 2.129l-4.973 4.902-.029 1.621c1.984-2.065 6.343-6.523 6.343-6.523l-2.626-2.76 1.299-.607 2.128 2.343 4.774-4.907 1.223.834c-1.608 2.112-2.655 2.8-5.062 5.296 1.257 1.488 6.129 6.182 6.129 6.182l-.014-1.621-4.802-4.656 4.67-4.66.27-.309s3.707 1.603 3.943 1.599c-1.576-1.296-4.407-2.407-5.944-3.528-6.967-4.108-.349-12.608 6.078-10.498.182.685 3.542-17.93 3.164-18.956.34-2.882.415-2.476-.585-4.127-2.99-6.894-11.72-19.941-11.72-19.941l78.545-.502c-.818 1.595-1.642 2.889-2.262 4.751 0 0 4.413 4.598 6.027 10.643.902 3.373 2.196 6.53 4.465 8.775.035.081-.08.181-.218.275-6.21 2.189-13.287-3.109-15.463-9.154l-3.563 5.809c1.609.182-23.719-2.874-29.933-2.102.55.109 1.2.565.834 2.309-.633 3.005-1.76 13.867-1.76 13.867-1.248 10.569-2.212 23.85-9.186 28.242 0 0 1.068 1.137 1.989 1.717.023-.015-.821-.867-.848-.967.004-.307.179-.502.384-.664 1.477-1.198 3.28-3.68 3.214-3.745 5.756 4.998 14.764 9.301 20.192 7.514 2.142-.449 3.093-2.514 4.23-.839-1.475 9.092-1.375 19.093-.801 26.948.887 17.509 4.753 27.542 8.584 39.946-1.97.695-12.08 7.472-12.08 7.472-.061.863 12.196 3.676 17.004 3.177 0 0 .991.964.994.76-.027-.053-.062-.123-.096-.19.715-.397 1.196-1.159 1.196-2.034 0-1.282-1.036-2.323-2.318-2.323-.242 0-.474.037-.692.105-.606-1.482-1.12-2.779-1.12-2.779l6.809 2.964-2.22 7.448.745 1.654 2.707-9.7-8.69-3.722-.589-1.721 3.605-7.358-7.771-4.603-.328-1.465 4.182-7.899-7.524-5.779 5.504-7.112-6.775-5.689.076-.943 5.613-6.462-5.803-5.965-.161-2.413 6.325-5.623-5.462-7.931c2.276-1.529 3.549-3.274 5.04-5.012l1.332.583-4.85 3.675 5.183 7.486 5.466-4.935-2.963-4.832 1.805.821 1.656 2.588-.271 2.646-5.401 4.916 4.643 6.723.038 1.233s-2.887 3.317-4.989 5.784l5.884 6.49-4.812 6.14 6.054 5.153-.169-1.545-4.467-3.769 3.427-4.154c.246-2.502-.297-6.798.982-8.683-2.066-2.023-.988-6.895.029-8.474-1.976-2.337-.847-7.467.414-7.684-1.508-1.889-.909-5.718.352-6.964.402-.215-5.381-2.301-9.03-4.807 3.036-5.649 2.329-10.964 3.286-12.879 1.314 3.79 2.995 7.822 4.447 10.724.153.301.476.233.957.242 6.034.537 5.459 5.51.935 6.783 0 0 9.199 6.852 13.862 7.611.048.121.013.283-.143.606-.661 1.368-1.044 3.735-1.142 5.818-.336 3.097 1.162 7.851 1.162 7.851l-1.91 1.18c-.381 1.636-2.516 1.67-2.722 2.835.45 5.006 10.225 24.175 12.29 26.341.781-13.678-.713-28.525.035-42.177zm-2.23 34.882 1.584-1.303-.038 2.07zm1.546 3.17-.798-.595.804-.892zm-98.303 24.412c.149.943.325 1.877.518 2.793-1.126.294-1.954 1.315-1.954 2.532 0 1.446 1.175 2.621 2.621 2.621.207 0 .405-.03.598-.075.413 1.444.807 2.688 1.114 3.603l.531.379c-1.433-4.986 1.345-7.668-2.759-11.81-.062-.207-.362-.149-.669-.043zm84.7-135.239 25.562.167v9.434l-19.698 20.943 7.595.094-.081 35.923c-2.083.865-4.067 2.207-5.988 3.503l-11.981-6.627-.863-.441s.331-.094 1.035-.555c1.355-.888 1.872-3.072 1.256-4.713-1.007-2.682-3.086-2.198-4.817-2.204-1.44-1.111-2.67-4.827-3.679-7.306-.467-1.077-.913-1.902-1.028-2.527-.108-.577-.105-1.082-.105-1.082s.233.072.573.769c1.909 4.02 6.369 5.963 8.737 2.162 1.202-2.331.372-4.993-1.644-5.737-.618-.228-2.717.014-2.717.014-.123.073-1.522-1.973-3.499-8.699-.811-2.778-1.024-8.805-.25-9.672 1.308-1.589 1.646-3.821 2.753-5.424.504-1.007.477-.379 1.267.745 2.69 3.828 7.419 6.796 11.747 6.609 3.074-.133 4.022-1.182 3.296-2.067-1.687-1.723-2.789-4.141-3.343-6.259-1.288-4.928-2.653-9.325-6.115-13.156zm-12.977 23.403c.323.306.068.776.009 1.626-.149 2.161-.196 2.186-1.437 1.641-2.38-1.044-5.748-.131-7.78 2.072-2.561 2.778-2.641 5.638-1.042 11.283 1.825 6.35 1.783 7.188-.408 8.487-1.317 1.122-2.667 3.473-2.162 3.465.07 0 .253-.142.404-.312.15-.171 1.353-1.139 2.28-1.774 2.542-1.739 3.339-2.628 2.171-5.841-1.153-3.17-2.083-6.269-1.602-6.461.229-.092 1.107.94 1.649 1.251 1.112.638 3.457 1.818 3.746 1.816.397-.003-.028-.288-1.172-1.038-3.061-2.01-4.314-3.831-1.36-2.679 1.582.617 3.255.257 4.2-.052 1.1-.36 1.675-.723 1.792-.308.161 1.955.008 3.97-.114 5.935-.034.126-.183 1.464-.332 2.968-.558 5.713-1.534 10.526-4.043 13.626-8.399 10.372-17.957 7.349-28.693-.953 4.005-11.094 3.729-19.74 4.718-23.259.927-.279 2.013.265 2.688.644 1.495.851 3.197 1.363 4.831 1.451 1.521.083 1.785-.133 1.649.318-.105.347-2.557 1.067-4.059 1.379-2.73.569-2.53 1.2-.23.993 2.42-.219 4.756-1.18 7.234-2.827 1.715-1.141 1.779-1.143 1.318-2.575-.111-.344-.344-.861.473-1.161.848-.312.729-.659.248-1.043-.119-.095-.424-.117-.547-.214-.151-.12.013-.657.011-.73-3.125-2.642-8.635-2.706-13.163.006-.227-.081-.462-.436-.241-.921.477-1.042 5.35-2.291 8.809-2.347 1.579-.025 1.887.175 4.263.901.977.299 1.523.376 1.611.228.203-.338-.149-1.344-.9-1.883-2.538-1.818-6.231-1.673-11.275.328-2.699 1.071-2.417 1.438-1.544-3.888.241-1.478.52-2.607.52-2.607s23.599.84 27.48 2.455zm-3.632 5.002c1.248.008 2.389.321 3.054.967.971 1.076-.049 1.411-1.593.825-1.977-.75-4.224-.323-5.966.759-1.116.694-1.356.322-.415-.674 1.138-1.204 3.098-1.889 4.92-1.877zm-17.945 1.854c2.176-.015 4.169.375 4.988 1.294.748.839.028.924-1.84.195-2.629-1.028-6.134-.703-9.027.734-1.487.739-1.943.889-1.744.048.872-1.363 4.443-2.25 7.623-2.271zm17.405.678c2.074.005 3.835.48 3.509 1.564-.117.387-.22.153-1.702-.303-1.483-.456-3.376-.284-5.277.27-1.775.517-2.115.635-1.318-.133.967-.932 2.958-1.403 4.788-1.398zm4.223 1.042c2.099 3.235 2.47 7.979 4.703 10.549 4.133-.769 6.089 3.117 2.611 5.704-1.767.982-3.923.243-5.507-2.351-1.511-2.472-1.927-3.968-1.975-5.537.136-3.293-.049-5.056.168-8.365zm-24.193 1.485.916.109c.664 2.252 2.151 2.388 3.043.028l.692.114c-1.051 2.892-3.69 3.011-4.651-.251zm-1.417.042c.382-.021.699.381.867.911.357 1.198-.048 1.047-.876.54-.839-.51-1.484-.847-1.002-1.052.363-.193.647-.324 1.011-.399zm7.86.768c.317.392.388.693-.018.977-.399.209-.692.341-1.076.479-.37.112-.596.023-.441-.507.097-.455.382-1.106.597-1.361.358-.064.742.189.938.412zm11.099-.275.725.053c.762 2.059 2.539 1.999 3.224.213l.65-.005c-1.225 3.189-3.714 2.613-4.599-.261zm-1.308.271c.695-.001 1.372 1 .991 1.512-.385.321-2.1-.044-2.253-.678-.059-.382.566-.833 1.262-.834zm6.714.194c.335.08.312.334.321.375.178.843-.831 1.137-1.057.815-.124-.177.407-.851.736-1.19zm-15.976 9.017c-1.697.476-2.488 1.943-2.38 3.58.086 1.324.774 2.403 1.78 2.631 2.026.459 3.43-.955 5.499-1.526.895-.234.686-1.388.114-1.889-.736-.644-1.865-.242-3.38.917-2.971 2.274-3.685-2.099-.977-2.872.42-.119.227-1.087-.656-.841zm-87.86 100.716 1.156.332-1.154 1.368s.006-1.182-.002-1.7zm3.218 4.678-2.379 2.677 3.233-.243-2.193 2.278 3.365.135-2.473 2.558 3.307-.067-2.446 2.47 3.121.089-2.062 2.26 3.434-.264-2.507 2.703 3.678-.065-2.787 2.521 3.668-.026-1.101 1.255.977.491c.998-.465 6.751-2.254 6.941-3.601-1.27-.341-5.011 1.563-5.259 1.247-1.5-6.616-7.969-21.249-12.237-25.516l-.29 41.386c-.101.094-.22.13-.335.186-.639.305-1.47.126-2.031.352-2.164-.112-5.779 3.503-3.89 4.22.987.218 6.457 1.155 6.472 1.427.669 11.986-.414 24.035.085 36.828 1.529.227 6.528.513 6.528.513s-18.335 19.131-18.694 18.745c.428-20.504.203-60.588-.156-60.737.003-1.202.423-3.735.423-3.735l-.395-127.52s-.107-.57-.327-.934c-.376-.622-.404-.782-.431-2.693-.147-1.181.023-1.489.023-1.489l12.543 13.247.149 37.047s11.737 17.549 14.47 25.643c5.99 12.052 5.342 29.616 8.974 36.34.076 0 .149-.003.223-.009.088.98.099 1.373.241 1.526.274 2.192.569 5.187.569 5.187l-1.312 2.086 1.464 1.878.011 5.006-1.954 1.987 1.787 2.266-.498 4.674-1.394 1.243.792 1.066s.132 1.685-.185 3.613c-.214 1.31-1.505 1.133-4.191-.232-3.804-1.442-7.699-4.023-10.704-5.969.179-2.434 3.193-7.984-1.002-14.105-1.55-1.161-6.053-.735-6.447-.91l.036-18.852m-.008-2.177 2.03-.354-2.048 2.051zm96.666-94.107c-.167.019-.373.174-.64.474-.281.317-.732.23-1.874.161-1.221-.074-1.532-.04-2.336.252-.918.332-.938.332-1.575.061-.995-.423-1.618-.473-2.531-.213-1.123.318-1.831.231-2.523-.109-.701-.345-.922-.276-1.166.36-.102.267-.6 1.303-.83 1.655-.748 1.144-.568 1.335 1.001.853 1.077-.331 3.063-.541 4.541.071 1.124.466 2.464.317 4.064-.379 1.403-.611 2.789-.804 4.134.327.783.659.741.16.54-1.204-.224-1.525-.382-2.358-.805-2.309zm-53.229 4.812c-1.446 0-2.621 1.171-2.621 2.617 0 1.447 1.175 2.622 2.621 2.622.686-.57 1.041-5.134 0-5.239zm50.597.021c-1.595.542-3.786 1.267-6.254.543-1.939-.591-1.475.866.631 1.048 1.464.127 1.366.126.223 1.195-.962.9.243.835.901.275.776-.661 2.883-.489 4.072.052.522.237.58-.75-.042-.967-1.566-.547-1.19-.588.517-1.144.633-.144.657-1.242-.048-1.002zm-50.597.856c.829.312.311 3.349 0 3.485-.962 0-1.744-.783-1.744-1.745s.782-1.74 1.744-1.74zm-13.976.109c.668-.228 1.138.882 1.138 1.631 0 .962-.778 1.745-1.74 1.745-1.177-1.148-1.391-2.428-.03-3.148.197-.075.408-.151.632-.228zm6.888 2.565-5.598 5.661 5.495 5.566 5.504-5.689zm66.319 2.243c.801 0 1.45.653 1.45 1.455s-.649 1.451-1.45 1.451c-.803 0-1.455-.649-1.455-1.451s.652-1.455 1.455-1.455zm-66.366 1.901c.803 0 1.451.653 1.451 1.455s-.648 1.451-1.451 1.451c-.801 0-1.45-.649-1.45-1.451s.649-1.455 1.45-1.455zm59.514 1.389 4.011 5.4-4.917 4.409.252-2.74c1.085-.196 1.906-1.149 1.906-2.29 0-.991-.621-1.833-1.493-2.167zm-66.791.299-.057 1.469 5.054 5.007-5.002 5.191.042 1.437 6.225-6.628zm14.285.004-6.178 6.339 5.959 6.51.076-1.65-4.679-4.836 4.77-4.736zm89.145 1.015c1.259-.002 2.336.411 2.665 1.233.258.461.396.861.773 1.033.734.336 1.729.105 1.778-.142.086-.001-1.171-.12-1.385-.313-.983-.885-.817-1.443.579-1.332.449.02 1.704.039 1.733.53.279 1.694-1.974 2.935-4.858 2.708-2.057-.34-2.066.453-2.209 1.55-.091.361-.407.943-.665 1.404-.726 1.303-.966 1.121-.459 1.626.491.641 1.129 1.438 1.119 2.185l-.022 6.873s-4.315-.019-5.814-1.103c-1.57-2.865-2.638-9.044-.332-12.436.807-1.016 1.987-1.501 3.347-2.579 1.048-.83 2.492-1.235 3.75-1.237zm-24.393.773-.156 1.986c-1.095.187-1.934 1.137-1.934 2.285 0 1.019.66 1.882 1.573 2.196l-.136 1.725-3.202-4.594zm-12.563 1.341c.473.264.792.766.792 1.347 0 .683-.438 1.265-1.053 1.47zm-66.758.726c-2.215 1.15-1.454 5.608 0 5.239 1.446 0 2.617-1.176 2.617-2.622 0-1.447-1.171-2.617-2.617-2.617zm14.46.066c-1.446 0-2.622 1.171-2.622 2.617 0 1.447 1.176 2.622 2.622 2.622 1.923-.605.834-5.153 0-5.239zm64.638.664-.227 2.859c-.51-.254-.857-.778-.857-1.385 0-.693.455-1.279 1.084-1.474zm-79.098.147c.962 0 1.74.778 1.74 1.74s-.778 1.745-1.74 1.745c-.574.113-.939-3.184 0-3.485zm14.46.066c1.166.095.198 3.063 0 3.485-.962 0-1.745-.783-1.745-1.745s.783-1.74 1.745-1.74zm58.737 1.655-5.78 5.76 5.709 6.292 4.75-5.775zm-65.725 1.095-5.542 5.708 5.238 5.415 5.529-5.837zm-36.421 3.124 2.024 2.148-2.09.019zm101.695.214c.801 0 1.451.653 1.451 1.455s-.65 1.451-1.451 1.451c-.802 0-1.452-.649-1.452-1.451s.65-1.455 1.452-1.455zm-65.303.787c.801 0 1.455.649 1.455 1.451 0 .801-.654 1.455-1.455 1.455-.803 0-1.45-.654-1.45-1.455 0-.802.647-1.451 1.45-1.451zm7.164 1.697-6.126 6.329 5.916 6.301.081-1.493-4.74-4.77 4.807-4.921zm-14.404.01.062 1.602 4.916 4.874-5.168 5.196.21 1.399 6.352-6.571zm66.118 1.735 4.433 4.409-4.418 4.921-.004-2.555c.91-.315 1.564-1.183 1.564-2.2 0-1.019-.657-1.878-1.569-2.19zm12.224.227.047 1.802c-.997.262-1.736 1.164-1.736 2.243 0 1.12.798 2.056 1.854 2.275l.038 1.427-3.509-3.868zm-102.482.811s1.479 1.578 1.981 2.224c-.393.457-.636 1.047-.636 1.697 0 1.446 1.176 2.622 2.622 2.622.417 0 .807-.102 1.157-.275.269.399 1.451 2.034 1.451 2.034l-6.97-1.119zm38.51 1.048c-1.445 0-2.621 1.17-2.621 2.617 0 1.446 1.176 2.622 2.621 2.622 2.631-.536 2.112-5.113 0-5.239zm-14.593.099c-1.446 0-2.621 1.171-2.621 2.618 0 1.446 1.175 2.621 2.621 2.621 1.447 0 2.617-1.175 2.617-2.621 0-1.447-1.17-2.618-2.617-2.618zm78.63.65.082 2.906c-.616-.205-1.058-.787-1.058-1.469 0-.653.404-1.211.976-1.437zm-64.037.128c1.695.617 1.178 3.6 0 3.485-.961 0-1.744-.783-1.744-1.745s.783-1.74 1.744-1.74zm-14.593.1c.962 0 1.74.777 1.74 1.74 0 .962-.778 1.744-1.74 1.744s-1.745-.782-1.745-1.744c0-.963.783-1.74 1.745-1.74zm66.347.166c.472.263.791.766.791 1.346 0 .579-.316 1.086-.786 1.351zm-87.734.744 2.039 2.622c-.188.069-.39.109-.602.109-.962 0-1.745-.783-1.745-1.745 0-.367.114-.706.308-.986zm94.338 1.19-4.789 5.755 5.883 5.22 4.172-5.167zm-65.437.692-5.872 5.964 4.147 4.31-2.295-.251-3.318-3.386-.076 1.124 1.806 2.067-1.927-.066.337.896c4.757.133 9.285 1.533 13.901 2.449l.281-.622-1.712-.438 1.618-1.934-.018-1.47-2.798 2.996-.948-.218 3.962-4.087-.265-1.247-4.873 4.988-1.419-.322 4.955-5.054zm65.679 3.432c.802 0 1.45.649 1.45 1.451s-.648 1.451-1.45 1.451c-.803 0-1.455-.649-1.455-1.451s.652-1.451 1.455-1.451zm-65.877.754c.802 0 1.45.649 1.45 1.451s-.648 1.451-1.45 1.451c-.801 0-1.451-.649-1.451-1.451s.65-1.451 1.451-1.451zm-32.902.418s-.377 4.771-.589 7.068l7.59 2.03.944-7.624zm-3.311.36 1.058.038-.132 4.399-1.073-1.052zm14.044 1.929s.764 1.227 1.636 2.58c-.469.472-.759 1.121-.759 1.839 0 1.447 1.175 2.622 2.622 2.622.265 0 .522-.04.763-.114.341.644.977 1.669.977 1.669l-6.505-1.906zm81.437.489 5.105 4.158-3.967 4.883-.266-2.096c.895-.323 1.536-1.179 1.536-2.185 0-1.208-.923-2.197-2.1-2.309zm-88.33.071c.801 0 1.45.649 1.45 1.451 0 .801-.649 1.455-1.45 1.455-.803 0-1.457-.654-1.457-1.455 0-.802.654-1.451 1.457-1.451zm102.06.46c-1.284 0-2.329 1.035-2.329 2.318s1.045 2.328 2.329 2.328c.507.372.646-3.989 0-4.646zm0 .777c.138.692.305 3.254 0 3.091-.854 0-1.551-.697-1.551-1.55s.697-1.541 1.551-1.541zm-93.038 1.546c.579.915 1.183 1.901 1.692 2.792-.105.02-.211.029-.322.029-.962 0-1.745-.783-1.745-1.745 0-.408.14-.78.375-1.076zm79.715.398c.699.148 1.224.765 1.224 1.508 0 .605-.352 1.13-.859 1.384zm6.918 1.361-4.315 5.789 6.548 5.106 3.708-6.334zm-98.486 2.356 4.879 1.427-.92 4.992c-.079-.291-.35-.818-.716-1.446.21-.377.331-.808.331-1.27 0-1.447-1.17-2.617-2.616-2.617-.071 0-.141.004-.209.009-.435-.641-.749-1.095-.749-1.095zm7.23 1.214-1.588 7.96 7.338 2.954 1.789-8.411zm92.09.061c.801 0 1.45.649 1.45 1.451s-.649 1.451-1.45 1.451c-.803 0-1.456-.649-1.456-1.451s.653-1.451 1.456-1.451zm-97.955.735c.765.184 1.332.871 1.332 1.693 0 .108-.014.214-.033.317-.419-.673-.876-1.374-1.299-2.01zm104.183.217-3.934 7.412 6.689 4.67-.458-1.584-4.784-3.508 2.781-5.098zm-95.06 2.68c.801 0 1.45.654 1.45 1.455 0 .802-.649 1.451-1.45 1.451-.803 0-1.452-.649-1.452-1.451 0-.801.649-1.455 1.452-1.455zm6.925.74 1.56 2.716c-.643.477-1.062 1.239-1.062 2.101 0 1.446 1.176 2.621 2.623 2.621.215 0 .425-.031.625-.08l1.129 2.394-6.814-2.982zm89.654.023c-.61-.141-1.196.249-1.613.652-.439.423-.71 1.015-.71 1.671 0 1.283 1.041 2.324 2.323 2.324 1.753-.425.811-4.458 0-4.647zm-14.095.64 5.538 3.959-3.235 6.239s-.324-1.26-.734-2.953c.786-.373 1.332-1.172 1.332-2.101 0-1.282-1.041-2.323-2.323-2.323-.01 0-.019 0-.028 0-.217-1.016-.412-1.995-.55-2.821zm14.095.138c.961.294.637 2.992 0 3.091-.844.132-1.546-.692-1.546-1.546 0-.853.693-1.545 1.546-1.545zm-87.709 2.731 1.417 3.01c-.079.011-.159.019-.241.019-.963 0-1.745-.782-1.745-1.744 0-.509.22-.967.569-1.285zm74.34.739c.785.073 1.398.732 1.398 1.536 0 .559-.302 1.046-.745 1.318-.215-.899-.438-1.88-.653-2.854zm7.305.792-3.793 7.496 7.007 4.271 3.224-7.249zm-93.835 1.441 4.319 1.963-1.218 4.457-.526-1.091c.255-.404.408-.881.408-1.394 0-1.351-1.024-2.462-2.338-2.602zm6.823 2.115-2.12 7.495 6.733 3.504 3.072-7.543zm-5.67.27c.564.287.953.872.953 1.55 0 .119-.015.234-.038.346zm93.929.607c.802 0 1.455.653 1.455 1.455s-.653 1.451-1.455 1.451c-.801 0-1.451-.649-1.451-1.451s.65-1.455 1.451-1.455zm6.394.414-3.213 7.845 7.379 4.071-.555-1.43-5.454-3.148 2.338-5.679zm-91.951 2.615c.802 0 1.451.649 1.451 1.451s-.649 1.451-1.451 1.451c-.801 0-1.451-.649-1.451-1.451s.65-1.451 1.451-1.451zm94.271 1.162c-1.283 0-2.323 1.04-2.323 2.323s1.041 2.37 2.323 2.323c2.332-.053 1.142-4.665 0-4.646zm-87.054.261c.441.798.772 1.632 1.075 2.489-.695.47-1.151 1.265-1.151 2.167 0 1.393 1.091 2.535 2.465 2.617.052.003.293.037.293.037l.417 1.579-5.792-3.039c.811-2.181 1.506-3.693 2.693-5.85zm87.054.516c.677.284.859 3.005 0 3.092-.854 0-1.546-.692-1.546-1.546 0-.853.692-1.546 1.546-1.546zm-14.281.901 5.696 3.262-2.86 6.168-.848-2.825c.614-.419 1.019-1.121 1.019-1.921 0-1.273-1.025-2.307-2.295-2.323zm-71.39 1.944.906 3.015c-.921-.046-1.488-.788-1.488-1.72 0-.516.226-.976.582-1.295zm72.343 1.223c.725.127 1.276.756 1.276 1.517 0 .444-.185.842-.484 1.124zm-84.968.199 4.404 2.575-1.986 5.139-.578-1.854c.394-.459.636-1.053.636-1.706 0-1.222-.838-2.243-1.968-2.532zm91.938.105-2.669 7.154 7.724 4.058 1.928-7.32zm-91.084 2.622c.447.314.743.836.743 1.427 0 .21-.039.41-.108.597zm5.769.355-3.134 7.259 6.519 4.295 3.395-7.567zm87.738 1.181c.802 0 1.45.649 1.45 1.45 0 .802-.648 1.451-1.45 1.451-.801 0-1.451-.649-1.451-1.451 0-.801.65-1.45 1.451-1.45zm7.64 3.19c-.651.416-1.036 1.225-1.036 2.053 0 1.283 1.04 2.331 2.324 2.323.285-.002.542-.031.771-.084.669-.897-.28-4.333-2.059-4.292zm-93.43-.208c.803 0 1.451.649 1.451 1.451 0 .801-.648 1.455-1.451 1.455-.801 0-1.45-.654-1.45-1.455 0-.802.649-1.451 1.45-1.451zm95.061 3.737c-.096.051-.21.076-.343.07-.853-.04-1.546-.692-1.546-1.546 0-.486.224-.92.575-1.203 1.335-1.001 1.531 2.88 1.314 2.679zm-86.48 1.236c.267 1.191.562 2.322.85 3.376-.118.025-.24.042-.366.042-.962 0-1.744-.782-1.744-1.744 0-.796.532-1.466 1.26-1.674zm80.939.854-2.019 8.045 7.728 2.816 1.479-7.614zm-94.207.108 4.1 2.831s-1.326 3.196-2.447 4.902l-.317-1.479c.678-.474 1.124-1.257 1.124-2.148 0-1.282-.918-2.349-2.134-2.574zm86.713.385c.852 0 1.541.687 1.541 1.54 0 .56-.168.791-.613 1.062-.338-.763-.806-1.519-1.227-2.545.126-.033.162-.057.299-.057zm-86.178 2.124c.616.267 1.047.882 1.047 1.597 0 .454-.172.866-.455 1.176zm6.158 1.175-3.721 6.467 5.461 4.177 4.268-6.472zm90.113.218c.803 0 1.45.654 1.45 1.456s-.647 1.451-1.45 1.451-1.455-.649-1.455-1.451.652-1.456 1.455-1.456zm6.685 2.011.948 1.469c-.295.389-.474.873-.474 1.399 0 1.283 1.046 2.323 2.328 2.323.174 0 .344-.016.506-.052l.765 1.18-4.846-1.735zm-95.684 1.725c.802 0 1.452.649 1.452 1.451s-.65 1.451-1.452 1.451c-.801 0-1.455-.649-1.455-1.451s.654-1.451 1.455-1.451zm97.096.465 1.432 2.224c-.014 0-.027 0-.042 0-1.354-.026-1.926-1.14-1.39-2.224zm-90.131.1-5.272 6.993 6.994 5.182-.109-1.546-5.112-3.651 3.887-5.177zm76.99 2.365 6.96 2.186-1.49 6.903-1.64-2.726c.446-.424.726-1.019.726-1.683 0-1.283-1.035-2.323-2.319-2.323-.259 0-.511.044-.745.123zm-75.819 1.2c-1.321.134-2.356 1.247-2.356 2.603 0 1.446 1.176 2.621 2.622 2.621.666.08.761-.939 0-.877-.962 0-1.745-.782-1.745-1.744 0-.925.72-1.678 1.631-1.736l-.128-.867c-.009.001-.016-.001-.024 0zm85.272.744-1.209 7.989 7.884 1.683.589-7.244zm-98.58.194 3.721 2.75-2.825 3.954-.151-1.133c.673-.474 1.113-1.261 1.113-2.147 0-1.135-.722-2.093-1.729-2.456zm91.364.996c.855 0 1.542.692 1.542 1.546 0 .38-.138.726-.366.995l-1.503-2.503c.106-.023.215-.038.327-.038zm-25.003 1.048c.166.061.643.098.568.251-.063.129-1.322 1.513-1.322 1.513l.142 1.289 2.238-2.536.9.332-3.142 3.195-.148 1.19 4.186-4.111 1.787.494-4.868 4.793 5.609 5.684 5.613-5.722-3.987-4.357 1.972.185c.832.948 1.747 2.456 3.276 3.262l-.152-1.138c-.079.054-1.855-1.672-1.575-1.954l1.571.114s2.265-.659-.574-.659c-3.726.001-7.743-1.268-10.943-2.219-.356-.107-.901-.392-1.167-.403-.654.655-1.459.516.016.797zm-66.091-.019c.431.316.711.822.711 1.399 0 .409-.142.787-.379 1.085zm101.197 1.389c.802 0 1.452.649 1.452 1.451s-.65 1.45-1.452 1.45c-.801 0-1.45-.648-1.45-1.45s.649-1.451 1.45-1.451zm-95.403.142-4.533 5.761 5.135 4.925 5.257-6.163zm101.781 1.475.36.061.019 3.931-.584-.124zm-35.383 1.825c.801 0 1.451.649 1.451 1.451s-.65 1.451-1.451 1.451c-.802 0-1.456-.649-1.456-1.451s.654-1.451 1.456-1.451zm-65.697.413c.802 0 1.452.653 1.452 1.455s-.65 1.451-1.452 1.451c-.801 0-1.451-.649-1.451-1.451s.65-1.455 1.451-1.455zm6.998 1.142-5.854 6.979 6.285 6.49-.018-1.45-4.884-5.121 4.576-5.333zm65.469.64-6.026 6.088 6.008 6.225.141-1.399-4.637-4.679 4.344-4.485zm-13.246.631.009 1.654 3.779 3.845-3.869 3.95.023 1.678 5.486-5.656zm30.869.725 7.097 1.342-.437 6.704-1.707-2.063c.292-.388.466-.871.466-1.394 0-1.283-1.041-2.318-2.324-2.318-.366 0-.71.086-1.02.237zm-95.651 1.195 3.499 3.679-3.342 3.778-.029-1.284c.931-.402 1.584-1.33 1.584-2.409 0-1.117-.698-2.066-1.683-2.441zm12.972.929c-1.164.267-2.035 1.307-2.035 2.551 0 1.243.871 2.287 2.035 2.555v-.915c-.674-.242-1.158-.885-1.158-1.64s.486-1.395 1.158-1.636zm51.426.247c-1.077.709-.596 4.711 0 4.646 1.282 0 2.318-1.041 2.318-2.323 0-1.283-1.036-2.323-2.318-2.323zm13.744.379c-1.282 0-2.323 1.04-2.323 2.323s1.041 2.323 2.323 2.323c1.021-.337.603-4.414 0-4.646zm20.604.299c.854 0 1.546.687 1.546 1.54 0 .279-.079.542-.208.768l-1.84-2.228c.157-.054.326-.08.502-.08zm-34.348.099c.853 0 1.54.692 1.54 1.546 0 .853-.687 1.545-1.54 1.545.077-.553-.291-3.155 0-3.091zm-64.351.356c.477.31.788.844.788 1.455 0 .585-.285 1.106-.725 1.423zm78.095.023c.192.626.434 3.2 0 3.092-.853 0-1.546-.693-1.546-1.546s.693-1.546 1.546-1.546zm-7.026 2.252-5.656 5.628 5.774 5.903 5.462-5.827zm-65.246.304-5.064 5.466 4.879 6.334 5.723-5.698zm-27.451.199c1.557.002 3.012.268 3.603 1.304 2.385 3.193 1.7 9.753.047 12.009-3.711 3.368-5.809 4.259-9.993 3.489.479-1.892-1.531-2.912-1.82-2.494-.038.007-.193.338-.005.361 1.441.176 1.327 1.897 1.158 1.904-1.595-.049-2.631-.022-2.794-.732-.101-.437.157-1.114 1.085-1.874 1.093-.873 6.116-.853 6.116-.853.02.007-.011-1.429.493-2.252.443-.724 1.057-1.526.636-1.859-.726-.335-1.216-1.148-1.319-2.086-.196-1.965.114-6.696.043-6.746.846-.08 1.816-.172 2.75-.171zm92.688 3.651c.801 0 1.455.648 1.455 1.45s-.653 1.451-1.455 1.451c-.803 0-1.452-.649-1.452-1.451s.649-1.45 1.452-1.45zm-65.199.564c.801 0 1.45.648 1.45 1.45s-.649 1.456-1.45 1.456c-.802 0-1.456-.654-1.456-1.456s.654-1.45 1.456-1.45zm72.115 1.365-5.912 6.031 6.301 6.519-.199-1.769-4.538-4.67 4.438-4.627zm-13.355.114-.161 1.669 4.186 4.399-3.802 3.907-.058 1.897 5.596-5.898zm-64.73 2.276 3.342 4.688-3.976 3.49.103-1.332c1.155-.274 2.015-1.313 2.015-2.551 0-1.097-.674-2.033-1.631-2.423zm12.516.924c-.077.972-.13 1.758-.179 2.475-1.084.321-1.878 1.325-1.878 2.513 0 1.053.625 1.958 1.522 2.375-.071.751-.165 1.582-.299 2.626l-3.996-5.845zm94.495.275.156 16.399 11.847 12.331.129 46.028-48.927.298-12.588-21.358c-.274-.404-.611-.272-.887-.674l3.732-19.928c5.874 2.705 10.816-4.292 7.608-9.96 18.109-6.613 38.93-23.136 38.93-23.136zm-28.892.09c-1.284 0-2.323 1.036-2.323 2.319 0 1.282 1.039 2.327 2.323 2.327 1.282 0 .796-.793.796-2.076 0-1.282.486-2.57-.796-2.57zm-13.527.138c-.645.733-1.013 4.677 0 4.646 1.282-.04 2.323-1.045 2.323-2.328s-1.04-2.318-2.323-2.318zm13.527.64c.852 0 .464.835.464 1.689 0 .853.388 1.402-.464 1.402-.854 0-1.546-.697-1.546-1.55 0-.854.692-1.541 1.546-1.541zm-13.527.137c.854 0 1.541.688 1.541 1.541s-.687 1.546-1.541 1.546c.093-.257-.387-2.982 0-3.087zm-64.81.612c.494.306.825.854.825 1.479 0 .723-.44 1.343-1.067 1.607zm12.484 1.555c-.073 1.112-.124 2.027-.2 2.954-.44-.317-.73-.83-.73-1.413 0-.668.378-1.249.93-1.541zm58.836.536-5.513 5.513 5.741 5.965 5.457-5.775zm-65.587 1.431-5.776 4.637 3.717 5.699 1.296.777 5.285-4.523zm-23.183.384 13.592 7.254s-3.526 1.476-3.429 3.831c.139 2.633 1.719 4.785 4.85 3.978.719-.104 1.047.193 1.74 1.811 1.326 3.095 2.636 6.495 2.124 6.391-1.667-1.332-1.418-1.405-3.38-2.286-3.661-1.008-5.888 2.398-4.732 5.153 1.079 2.543 2.872 2.689 4.67 2.428.264.06.487.35.664.682.571 1.159 1.437 3.218 2.115 6.387 1.044 4.886 1.279 11.003.516 12.541-1.053 2.125-2.508 5.007-2.508 5.007-2.834-5.404-9.011-10.139-15.952-8.465-.235.146-.282.909.032 1.357 2.251 2.955 2.633 5.662 3.437 8.567 2.064 7.446 6.227 11.706 6.169 10.946l-2.18 3.951s-18.875.092-26.6 0v-9.07l20.236-20.725-8.017-.34.278-35.728c2.929-.611 6.375-3.67 6.375-3.67zm88.87 2.29c.801 0 1.45.649 1.45 1.451s-.649 1.456-1.45 1.456c-.802 0-1.456-.654-1.456-1.456s.654-1.451 1.456-1.451zm-66.305 1.47c.803 0 1.457.649 1.457 1.451s-.654 1.455-1.457 1.455c-.801 0-1.45-.653-1.45-1.455s.649-1.451 1.45-1.451zm59.813 1.332.143 1.432 3.978 4.167-3.684 3.746c-.537.735-1.91.575-2.342.626-.002.047.091.543.417.687.344.152.756.124.919.218.384.219.632.251.632.251l5.352-5.475zm.063 3.238c-.965.304-.795 4.41 0 4.647 1.283 0 2.322-1.041 2.322-2.324 0-1.282-1.039-2.323-2.322-2.323zm13.64.631c.097.38.24 3.056 0 3.091-.854 0-1.546-.692-1.546-1.546 0-.853.692-1.545 1.546-1.545zm-13.64.147c.852 0 1.545.692 1.545 1.545 0 .854-.693 1.546-1.545 1.546-.208-.356-.553-3.04 0-3.091zm-47.828.744c-.231.088-.549.033-.801.033-.807.002-1.808-.568-2.03-.464-.252.119-.167.647-.153.884.027.219.642.292.893.458.405.267.296.36-.165.469-.41.096-.74.123-1.001.494-.163.23-.176.632.1.628 1.611-.023 3.653-.686 5.581-.04 1.1.394 1.818.638 1.995.487.366-.315-.924-1.547-2.157-1.778-1.244-.232-1.69-.137-1.288-.508.209-.192.49-.117.51-.255.057-.386-.226-.783-.563-.838-.363-.059-.646.321-.921.43zm6.927 3.869c-.13.002-.32.094-.575.299-.734.487-1.883 1.14-4.654.379-1.525-.501-3.235-.063-4.23.217-.775.218-1.887.431-2.778.025-.869-.418-1.822-1.052-1.645-.399.044.167.098 1.125.108 1.693.029 1.337.122 2.452 1.086 1.403.419-.454.923-.458 1.868-.085.675.266 1.147.446 1.669.104.74-.484 1.379-.604 2.746-.142.648.219 1.327.239 2.147-.265 1.364-.839 2.227-.024 2.75.834.414.679.621-.289 1.384-2.304.393-.962.516-1.764.124-1.759zm-6.528 7.49c-.742.419-1.777.545-2.529 1.04-1.593 1.099-.1 2.012 1.006 1.783.452-.103.975-.328 1.555-.713 1.993-1.321 3.098-1.129 3.286.473.203 1.731-2.462 2.511-2.214 3.315.334.524 1.628-.196 2.429-1.282 2.376-3.221-.239-6.476-3.533-4.616zm10.321 9.081c-2.702.307-6.772 1.611-8.815 3.147-1.605 1.251-2.045 1.564-1.365 2.063.624.455 1.102.472.247 1.346-.305.311-.822.963-.82 1.09.009.627 3.823 2.487 6.012 2.778 1.687.225 4.418-.032 5.888-.626 1.939-.783 2.004-1.317.173-.779-1.431.421-3.157.738-4.858.613-1.531-.109-3.03-.576-3.976-.914-2.344-.838-1.936-1.813.431-.982 2.724 1.177 6.256 1.158 9.391-.256 1.265-.571 1.62-1.02 1.849-.824.056.047.185.358.218.444.079.208.088-.531.199-1.706.094-.974.185-2.281.185-2.281s-.188.553-.185.812c.026 1.705-.802 1.713-3.143.407-2.751-1.512-4.087-1.364-6.703-1.348-1.144.008-1.196-.323.416-.855.766-.254 1.945-.663 3.698-1.223 1.451-.464 1.842-.983 1.158-.906zm-20.733 3.441c.997 0 1.887.847 2.144 2.488l-.993-.07c-.329-2.45-2.108-1.895-2.806-.437l-.873.025c.686-1.348 1.65-2.006 2.528-2.006zm2.532.152c.404-.037 2.279.872 2.394 1.151.124.307-.589.637-1.214.821-.719.211-.572.241-.799-.184-.317-.596-.874-1.764-.381-1.788zm-4.783.118c.019.264-.551 1.227-.964 1.352-.485.145-.868-.498-.469-.826.358-.186 1.357-.902 1.433-.526zm19.281.127c1.26-.05 2.433 1.222 2.532 2.727l-.636-.014c-.589-3.133-2.996-2.424-3.536-.19l-.75-.213c.625-1.619 1.528-2.273 2.39-2.31zm-2.475.223c.345-.022.299.258-.114 1.091-.195.393-.335.616-.678.603-.465-.07-.776-.219-1.015-.589-.162-.364.217-.649 1.024-.906.369-.115.625-.188.783-.199zm5.295.233c.222.001.624.144 1.258.421 1.617.715 1.808 1.009.962 1.414-.377.179-.689.316-.939.398-.759.253-.736-.172-.94-.697-.115-.297-.254-.565-.402-.881-.206-.441-.214-.657.061-.655zm-23.71 2.655c.27-.002.853.353 2.026.773 1.682.601 3.378.38 5.613-.332.921-.293 1.237-.478.872.056-.288.425-1.858 1.2-3.138 1.517-2.401.595-5.57-.532-5.571-1.763.018-.177.077-.25.198-.251zm7.943 2.025c.242.005.006.37-.504.939-.788.88-1.992 1.484-3.22 1.701-2.58.458-4.719-.246-4.739-1.692-.017-1.042.167-1.056 1.441-.399 1.08.558 3.512.693 5.471.062.643-.17 1.303-.562 1.417-.593.055-.013.099-.02.134-.018zm19.845 1.399c-1.959.517-4.039 1.037-5.941 1.403-2.037.399-5.007.032-6.557-.731-1.144-.563-1.546-.231-1.042.863.327.715.825 1.464 2.294 1.977 2.134.745 7.136-.464 10.853-2.385 2.161-.959 1.745-1.541.393-1.127zm-32.263 14.72 3.344-5.68c22.641 4.383 47.138 1.2 54.636.163 0 0 8.186 13.545 11.13 18.299.277.505 1.039 2.218 1.039 2.218l-77.309-.06c1.084-2.177 2.111-4.99 2.111-4.99-2.362-.948-4.195-4.477-5.328-7.455-.996-2.613-2.721-8.995-4.989-12.106 3.968-2.249 13.944 2.772 15.366 9.611z" fill="#131f67"/><path d="m140.348 285.402-76.568.001 9.977-19.941c18.612 2.817 36.961 2.467 55.1-.404zm-104.632-15.895-.226-9.627 9.939.02zm83.186-63.178-.113-31.047 14.013 9.217-.512 31.525zm-33.508-7.32c.503-11.104-2.154-21.465-4.201-31.97l14.509-9.531.792 35.052zm-38.199-29.179.393-40.035c13.051 18.772 20.984 37.463 23.26 63.203-3.548 1.431-7.01 3.011-10.65 4.287-4.192-9.621-8.419-18.935-13.003-27.455zm132.246 17.235c-12.061-15.323-19.337-36.336-23.134-61.487l11.041-5.361c3.666 8.88 7.229 17.916 11.866 25.285zm-47.621-27.292-1.174-33.602 11.052-6.715c.587 11.53 2.408 22.342 4.586 31.424zm-24.042-17.935-11.928-6.938.677-30.375 10.907 8.547zm74.465-84.228c.855-3.181 6.606-7.24 9.068-9.429l-.101 8.995s-8.53.603-8.967.434zm-83.607-4.864-12.375-21.118 77.571-.651-9.966 21.265c-20.544-3.756-38.12-2.06-55.23.504z" fill="#d40000"/><path d="m29.175 14.958h-10.242v3.498h3.809s-.044-.664-.012 7.14c.023 5.472.017 8.967-.047 11.265.017 3.063-.488 4.936-1.693 6.061-1.908 1.604-5.641 1.444-7.018-.068-1.023-1.185-1.24-3.452-1.177-6.121h-3.478s.002 1.291 0 1.97c-.607 12.592 16.262 10.457 16.803 1.671.113-1.876.056-1.195.009-11.597-.049-11.15-.008-10.321-.008-10.321h3.056zm105.013 227.735c.177.056 2.576-1.567 3.82-3.957 1.344-2.64.129-5.235.528-5.244 2.474.738 1.763 5.457.901 6.919-.73 1.271-2.128 2.129-3.574 2.373-1.428.241-1.675-.091-1.675-.091zm4.034-10.317c-.499.007-.716-.077-1.044-.418-.457-.473-1.003-.79-1.294-.749-.391.057-.571-.013-.574-.222-.003-.172.172-.2.815-.143.393.035 1.22-.584 1.22-.584l.009-44.603c3.506 1.454 8.749 2.291 12.777 2.769l.269 39.756s5.911-3.095 8.056-4.332l.077-35.586 4.186-.458-6.61-13.432c-.929.714-13.94-.502-17.189-2.616l11.873-7.408c-1.206-3.678-2.303-7.193-3.312-10.917-.03-.115-.25-.103-.281-.217-.244-.909-.417-1.318-.646-2.233-.043-.171.026-.448-.023-.618-2.558-8.811-4.304-20.488-4.659-30.94.038-.099.416-.014.416-.014l-.076-6.386-.422.281.041-2.89.429-.424c.011-.56.05-1.617.05-1.617l-.549-.343.284-4.842.566-.083.309-7.665-15.034 9.732s-9.813-7.026-14.105-10.67c4.723-3.211 5.974-9.471 7.146-14.666 1.197-5.141 1.589-9.386 1.929-13.688.374-4.741 1.159-10.803 1.788-13.791.379-1.806.365-2.004-.167-2.034-.184-.011.006-.07.421-.133 9.642-.385 19.995 1.05 29.188 2.246 0 0 2.275-4.238 3.064-5.8 0 0 .462 1.434.955 2.43 1.117 2.115 3.669 4.358 5.85 5.566.815.536 3.158 1.321 4.741 1.589.932.154 2.432-.142 3.543-.584.381-.159.68-.359.683-.559.003-.202-.298-.407-.683-.773-.329-.311-.768-.914-.977-1.342-.668-1.355-1.687-3.631-2.258-5.76-1.602-4.235-2.791-9.346-6.473-11.598l2.541-5.085-80.015.021 12.381 20.853s.375.622.498.843c.366.658.516.564.516.564-.807 7.291-1.953 14.47-3.47 21.524 0 0-.161-.563-2.512-.529-6.88.099-9.291 7.746-3.537 11.132.543.322 1.466.939 2.376 1.417.261.135 3.561 2.071 3.561 2.071l-3.954-1.778-.287 45.888s-8.244-2.477-13.68-2.71l.055-39.788-7.59 4.097-.346 35.572-4.157.269s1.575 3.351 1.925 4.055c.703 1.41 2.472 4.546 3.679 6.528.428.701 1.426 2.261 1.426 2.261 5.541.147 11.212.979 16.364 3.269l-11.926 7.76c4.981 14.033 11.193 34.568 7.731 67.712l.836-.53.229-3.571 14.845-10.216 18.314 14.748s-1.329-.036-1.628-.048c-4.67-.165-7.959 4.612-9.088 8.6-1.989 7.031-2.25 8.765-3.166 19.914-.363 4.409-1.235 8.661-2.124 12.862-.469 2.112-.399 2.321-.399 2.321 9.314.298 19.042-.685 26.339-2.298 0 0 3.081-14.621 4.18-20.827 1.036.595 1.958.855 2.893.834 7.223-.784 6.604-10.689 2.881-10.966zm-32.148-200.431 3.785 13.284-9.273.858-7.699-14.033zm57.008-.186-9.534 20.222c-19.999-2.807-31.541-3.074-54.753.213l-12.068-20.162 3.176-.028 9.098 16.098 13.512-1.347-3.734-14.731 3.57-.11 3.694 14.456 20.915-.111c.678-4.843 1.991-14.316 1.991-14.316l3.861.043-2.573 14.636 12.354 1.549 7.138-16.362zm-26.823.187-1.219 12.296-17.299.133-2.768-12.437zm20.96-.236-5.872 14.594-8.559-1.143 2.337-13.248zm-101.641 23.756c1.336 1.048 1.755 1.319 1.529 1.757-.253.491-.555.394-1.687-.555-3.379-2.872-6.997-3.537-10.083-2.705-8.686 3.04-10.198 13.084-4.149 19.927 6.014 5.315 16.582 2.106 18.281-6.207.049-1.537 1.381-2.133 1.382-.147-.666 6.957-3.946 12.956-6.719 17.388h15.987c-3.876-5.791-5.179-9.184-6.322-17.83.054-1.359.938-1.565 1.242-.289.92 6.129 5.692 10.994 12.009 10.007 12.865-2.594 12.931-20.068 1.683-22.894-2.803-.581-6.172.158-8.766 2.471-.943.841-1.276.975-1.607.654-.367-.356.076-.713 1.142-1.66 5.94-4.379 5.671-12.369.266-16.839-5.081-3.537-11.074-3.234-15.379.549-5.583 5.197-3.699 12.716 1.191 16.373zm112.194-9.456c.38 1.247.767 2.468.859 2.717 1.396 3.784 1.969 5.034 2.883 6.291.15.208.195.184-.026.362-4.203 2.054-11.8-3.002-13.63-7.633.229-.447 1.246-2.327 1.246-2.327.531 1.035.133 2.058.481 2.987.086.396.955-2.678.955-2.678s.838 1.365.941 3.989c.015.405 1.091-1.76 1.091-1.76 1.353 1.821 1.277 4.978 1.277 4.978 1.525-1.849.574-2.91 2.928 1.805.272-.49.141-1.011.496-.873 1.035.401 2.49 1.125 3.019.98-.691-.866-2.031-1.321-2.398-2.469 0 0 1.062.09 1.132.038-1.203-.654-2.361-1.22-3.264-2.477.269-.1 1.358.087 1.311-.029-1.629-1.471-4.075-2.66-.539-2.328-2.298-1.617-4.859-2.734-.867-2.613-2.848-1.345-3.616-2.175-3.086-2.404.299-.128 1.151.384 2.509-.05-2.289-.933-3.231-1.36-3.322-1.667-.111-.373.977-.577 1.722-1.384 0 0-.923.209-1.325-.217 0 0 .448-1.29.792-2.033 2.915 2.643 4.06 6.387 4.815 8.795zm24.545-5.132s-12.873 13.869-19.248 20.751l6.228.092.285 37.555c2.171.291 5.933.006 7.358 1.451.884 1.308-2.538 3.881-4.465 3.341-1.285-.347-2.873-.072-2.873-.072l.13 41.847c-4.11-7.629-7.252-12.457-11.802-25.704 1.319-.917 2.673-1.624 2.901-1.779-1.749-4.217-2.958-10.85-.519-16.629l1.684 1.003c-1.233 3.527-1.688 8.743.329 13.564l.463-.486s-.499-.962-.819-2.024c-.287-.947-.7-2.168-.703-3.432-.08-2.241-.012-4.167.518-5.965.182-.586.441-1.461.578-1.73.135-.269.267-.518.265-.593-4.952-2.006-8.502-4.941-12.772-7.04-.163-.079-.298-.147-.405-.207-.542-.301-.4-.405.447-.741 1.783-.71 2.509-1.57 2.47-3.3-.056-2.46-1.372-3.419-4.248-3.257-1.044.059-1.112.044-1.299-.313-.435-.835-1.937-4.154-1.939-4.286-.001-.078-.314-.825-.696-1.659-.592-1.332-1.274-2.704-1.552-4.094-.141-.691-.542-.962-.643-.249-.762 5.296-1.463 8.092-2.831 11.274-.407.948-.715 1.745-.683 1.773.132.117 2.421 1.18 3.494 1.622 4.183 1.721 6.084 2.783 5.439 3.039-.449.178-.611.49-.727 1.379-.299 2.332-.265 3.525.125 4.263.408.774.399.829-.27 1.265-.583.379-.457.381-.615 2.328-.186 2.312-.061 3.782-.061 3.782l1.043 1.337-1.061 1.318-.242 6.055 1.43 1.086-1.338 1.32.478 5.522s-.174.51-.407.763c2.265 23.353 11.018 46.888 24.129 62.928l.13 38.364 12.849 12.856zm-1.006 2.469v3.024l-10.911 11.751 10.911.189v2.563l-16.751-.032zm-.169 5.133.028 8.468-8.155.011zm-172.259 3.417c-6.815.258-5.702 7.937-2.748 10.212 1.791 1.657 1.81 1.783-.394.533-4.008-2.605-8.246-.79-8.367 3.58-.216 7.064 8.117 7.644 9.832 1.761.135-.774.83-1.727.779-.283-.113 2.377-3.123 8.289-3.365 8.214h7.604c-.566-1.408-2.476-5.029-2.516-7.941.046-2.019.537-.701.829.306 1.693 5.994 9.919 5.019 10.161-1.267.103-4.573-4.254-7.345-7.845-4.639-2.043 1.429-2.062 1.065-.422-.741 3.725-3.819 1.636-9.931-3.548-9.735zm97.431.851 1.7-.071c-.067 1.707-.742 9.588-1.552 16.49-.912 7.781-2.778 14.494-3.135 14.494l-1.643-.995c2.72-8.927 3.444-20.416 4.63-29.918zm7.715-.244c-.24 4.817-1.249 8.187-1.558 13.883-.381 6.958-1.578 15.62-4.708 22.805-1.054 2.42-3.001 4.692-5.734 5.763-4.792 1.879-8.859-4.06-5.62-8.428 2.56-3.452 6.569-3.408 7.785.086 1.005 2.886-2.225 6.511-4.802 5.385-1.792-.782-1.335-4.01.678-4.769.833-.315 1.54.743 1.127 1.692-.323.748-.359 1.215.081.898 1.82-1.283.449-4.34-1.81-3.197-3.013 1.525-2.505 6.008.529 6.204 3.843.377 6.807-4.354 8.705-13.339 2.082-10.055 1.565-19.058 3.56-26.952zm-4.909.168 2.019-.06c-.161.746-.19 1.542-.328 2.456-.795 5.275-1.267 12.974-2.083 19.009-1.15 8.515-3.213 13.691-3.266 13.059-.229-1.032-.882-1.869-1.382-2.686 2.081-5.663 2.922-10.815 3.456-15.666.623-5.669.801-10.928 1.584-16.112zm-8.633.489 1.772-.092c-.69 11.289-2.344 21.523-3.322 25.916-.302 1.325-.404 1.899-.654 2.009-.279.122-.744-.326-1.872-.953 1.717.243 3.096-19.193 4.076-26.88zm2.763-.163 1.924-.188c-.286 4.081-.974 10.497-1.745 16.282-.933 6.994-2.156 13.192-2.764 13.1l-1.604-.556c1.074.336 3.717-20.53 4.189-28.638zm-3.65.199c-1.257 8.546-1.376 18.532-3.98 26.512l-1.802-.838c.493.161 1.775-5.192 2.207-11.249.378-5.273 1.331-11.01 1.613-14.188zm-2.971.314c-.716 3.018-.716 7.465-1.253 11.174-.665 4.593-1.373 13.921-2.435 13.707l-1.84-.932c.965.291 2.649-17.383 3.674-23.66zm-4.844.748 1.869-.253c-.9 6.9-2.526 22.989-3.488 23.109l-1.751-.929c.682-2.826 2.413-12.436 3.37-21.927zm-1.161.269c-.773 7.585-1.499 15.265-3.116 21.164l-1.915-.864s1.33-6.487 1.961-11.043c.622-4.498.716-5.139.914-6.311.437-2.584.559-2.68.559-2.68zm82.045 7.774-.185 36.421-2.124-.081.088-36.397zm5.016.288c.801 0 1.45.649 1.45 1.451 0 .801-.649 1.455-1.45 1.455-.803 0-1.451-.654-1.451-1.455 0-.802.648-1.451 1.451-1.451zm-34.207 13.365c1.504 2.75 2.657 3.758 3.981 4.284 2.39.949 5.686-1.389 4.486-4.66-.629-1.72-2.23-1.975-4.26-1.633 0 0-.874-.621-1.902-3.737-1.219-3.69-3.129-7.486-3.129-7.486-.121 4.628-1.21 9.447.824 13.232zm36.354-9.985c.802 0 1.456.649 1.456 1.451s-.654 1.451-1.456 1.451c-.801 0-1.451-.649-1.451-1.451s.65-1.451 1.451-1.451zm-3.981.057c.801 0 1.45.649 1.45 1.451s-.649 1.455-1.45 1.455c-.803 0-1.457-.653-1.457-1.455s.654-1.451 1.457-1.451zm-32.547-.348c1.347 2.793 1.632 4.896 2.938 7.426.572 1.105 1.085 2.052 1.085 2.052 4.268-2.007 5.909 3.047 2.449 4.66-3.408 1.588-7.242-4.446-6.87-10.945.103-1.791.398-3.193.398-3.193zm34.457 3.771c.801 0 1.45.649 1.45 1.451s-.649 1.455-1.45 1.455c-.803 0-1.451-.653-1.451-1.455s.648-1.451 1.451-1.451zm3.843 2.726v3.104l-7.585 7.359v-3.001zm-99.731 2.39c1.451.019 2.146.448 1.185.829-3.184 1.265-4.6 3.281-4.774 6.804-.008 1.781.205 2.014-.891 1.02-2.799-3.917 1.234-8.676 4.48-8.653zm2.663 1.274c.354-.013.702.032 1.053.142.853.268.54.288-.898 1.243-2.743 1.821-3.578 3.604-3.699 7.249-.035.549.079 1.005.032 1.235-.038.175-.25.119-.378.112-.525-.087-.846-.641-.998-1.109-1.739-3.472 1.476-8.743 4.888-8.872zm2.971 1.206c.236-.003.443.034.611.118.671.335.423.384-.806 1.26-2.18 1.554-3.258 3.838-3.512 6.39-.162 1.638 1.1 3.584-1.135 1.98-1.571-1.304-1.259-4.693.41-7.019 1.027-1.435 3.157-2.714 4.432-2.729zm94.097-.71v3.534l-7.585 7.205v-3.617zm-91.662 1.842c.861.009 1.248.562.242 1.195-2.456 1.544-3.932 4.488-3.788 7.562.14 1.856.209 2.19-.977.963-1.91-1.977-.563-7.343 3.139-9.35.504-.265.992-.374 1.384-.37zm2.513 1.029c1.414-.034 1.612.681.346 1.565-2.413 1.685-4.026 4.654-3.987 7.353.019 1.254-.08 1.41-.635.986-2.789-2.129.2-9.557 3.978-9.885.104-.009.204-.017.298-.019zm49.881.232c.346.025.965 1.253 1.934 3.822.935 2.477 2.444 5.6 2.764 5.717.099.037.524-.111.944-.331 3.181-1.671 5.422 3.068 2.285 4.831-2.232 1.253-4.339-.091-6.283-4.016-2.291-4.627-2.919-8.062-1.81-9.914.046-.076.1-.113.166-.109zm-47.292 1.262c.384-.017.755.055 1.104.237.824.426.704.742-.56 1.484-1.301.764-1.816 1.242-2.564 2.375-1.168 1.766-1.363 2.446-1.365 4.722 0 1.855-.551 1.957-1.66.308-1.91-2.842 1.921-8.989 5.045-9.126zm3.177 1.664c1.248-.028 2.072.482.876 1.114-3.804 2.01-5.402 4.897-4.674 8.448.228 1.113-1.044.171-1.816-1.346-1.129-2.215.953-6.497 3.793-7.804.595-.274 1.252-.4 1.821-.412zm42.93 3.266c.238.017.514.65 1.122 2.21.398 1.016.93 2.232 1.187 2.702.255.47.434.912.393.981-.214.357-1.977-.25-2.57-.886-.915-.983-1.206-3.181-.587-4.438.18-.367.311-.579.455-.569zm36.534 2.679c.801 0 1.45.649 1.45 1.451s-.649 1.455-1.45 1.455c-.803 0-1.451-.653-1.451-1.455s.648-1.451 1.451-1.451zm-148.902 2.342c.801 0 1.45.654 1.45 1.456 0 .801-.649 1.45-1.45 1.45-.803 0-1.45-.649-1.45-1.45 0-.802.647-1.456 1.45-1.456zm59.989.436c1.585-.055 2.075.694 2.341 3.101.183 1.653.54 1.807 3.139 1.37 2.744-.461 3.662.283 3.859 3.124.155 2.254.135 2.236 3.258 2.257 3.072.021 3.401.332 3.755 3.48.262 2.339.172 2.274 3.195 2.233 3.346-.045 3.647.202 3.873 3.162.183 2.4.343 2.554 2.456 2.38 2.071-.17 5.89-.189 6.604-.033 1.781.388 1.854.315 2.238-2.086.504-3.162 1.13-3.558 5.016-3.167 1.911.192 2.133.153 2.403-1.528.361-2.241.81-2.898.811-.956.003 4.905-.338 5.133-3.612 4.261-2.458-.656-2.497-.152-2.755 2.215-.226 2.087-.578 2.942-1.346 3.276-.596.259-2.605.038-3.409-.191-.306-.087-2.215-.133-4.475-.109-5.445.057-5.503.07-5.5-3.755.003-1.61-.35-1.956-3.201-1.87-3.576.107-3.388.204-3.996-4.09-.211-1.488-.331-1.545-3.291-1.503-3.225.047-3.958.093-3.768-2.625.173-2.471-.43-3.119-3.12-2.493-2.867.667-3.415-.55-3.694-2.759-.259-2.046-.432-1.534-1.801-1.641-1.517-.118-1.339-1.824.27-1.982.275-.027.522-.063.75-.071zm91.155.745c.803 0 1.451.648 1.451 1.45s-.648 1.451-1.451 1.451c-.802 0-1.45-.649-1.45-1.451s.648-1.45 1.45-1.45zm-4.087.08c.803 0 1.452.654 1.452 1.456s-.649 1.45-1.452 1.45c-.801 0-1.45-.648-1.45-1.45s.649-1.456 1.45-1.456zm-144.881 2.418c.802 0 1.456.649 1.456 1.451s-.654 1.451-1.456 1.451c-.801 0-1.451-.649-1.451-1.451s.65-1.451 1.451-1.451zm-4.077.033c.801 0 1.45.649 1.45 1.451s-.649 1.451-1.45 1.451c-.802 0-1.45-.649-1.45-1.451s.648-1.451 1.45-1.451zm75.869 1.236 15.095 11.263 14.287-9.561-.086 3.488-14.186 9.433s-12.071-9.348-17.906-13.862zm75.123.168c.801 0 1.451.653 1.451 1.455s-.65 1.451-1.451 1.451c-.802 0-1.45-.649-1.45-1.451s.648-1.455 1.45-1.455zm-24.723 1.901 3.581 5.817-3.575 2.593 3.253 4.159-3.508 3.595 3.856 2.45-3.605 5.021-4.992 2.217 4.992-6.559-4.131-2.836 3.918-4.221-3.515-4.608 3.638-2.844-3.937-6.457.258-.312zm-66.177-1.284 26.523 19.84s2.448 1.843 3.151 2.289c1.488.943 1.785.566 3.272-.454 3.351-1.99 11.464-7.51 11.464-7.51l-.066 2.857s-8.159 6.106-12.675 8.638c-.642.354-1.329.019-1.81-.346-9.851-7.801-19.931-15.365-29.917-23.008zm60.943.315c.111.2.469.272.64.539 1.176 1.819 3.306 5.052 3.306 5.052l-3.729 2.958 3.424 4.496-4.278 4.348 4.371 2.974s-2.716 4.155-4.767 6.055l-.05-3.227 1.754-2.114-2.012-1.384-.006-4.438 2.045-2.154-1.874-1.894.334-4.852 1.787-1.414-1.474-2.019zm-119.084.99c.803 0 1.457.649 1.457 1.451s-.654 1.451-1.457 1.451c-.801 0-1.45-.649-1.45-1.451s.649-1.451 1.45-1.451zm152.482 5.292-7.378 6.819v-3.097l7.378-7.242zm-148.264-3.33v3.737l-7.879 7.275v-3.608zm148.264 4.286v3.709l-7.378 6.933v-3.674zm-8.681.583.154 120.594 8.565 9.064.006 3.008-10.841-11.232-.247-121.335zm-139.583-.36v4.198l-7.879 7.188v-3.951zm53.9.77 10.421 8.112-.043 28.278c-4.22-3.173-7.607-5.064-10.81-6.672zm90.933 9.146c.802 0 1.45.649 1.45 1.451s-.648 1.451-1.45 1.451c-.801 0-1.455-.649-1.455-1.451s.654-1.451 1.455-1.451zm-77.374 1.383.038 28.855-2.053-1.876-.12-28.617zm-71.163.277c.801 0 1.451.649 1.451 1.451s-.65 1.455-1.451 1.455c-.802 0-1.456-.653-1.456-1.455s.654-1.451 1.456-1.451zm150.475 2.057c.803 0 1.451.649 1.451 1.451s-.648 1.456-1.451 1.456c-.801 0-1.45-.654-1.45-1.456s.649-1.451 1.45-1.451zm-4.134.181c.803 0 1.452.648 1.452 1.45s-.649 1.451-1.452 1.451c-.801 0-1.45-.649-1.45-1.451s.649-1.45 1.45-1.45zm-74.014-.141 6.356 5.943-6.548 6.211-.053-2.866 3.644-3.513-3.662-3.798zm2.419.525 5.3 3.912-.83 1.006zm-72.597.877c.801 0 1.45.649 1.45 1.451 0 .801-.649 1.45-1.45 1.45-.803 0-1.452-.649-1.452-1.45 0-.802.649-1.451 1.452-1.451zm-4.254.071c.802 0 1.452.653 1.452 1.455s-.65 1.451-1.452 1.451c-.801 0-1.451-.649-1.451-1.451s.65-1.455 1.451-1.455zm104.164.526c1.02 11.545 1.728 19.535 4.711 30.42l-13.71 8.766.124-33.435zm37.784 26.415-.054 39.647c-12.938-18.411-19.914-39.932-22.161-60.327 0 0 6.947-3.2 10.32-5.164 3.572 8.373 2.03 8.362 11.895 25.844zm8.87-24.737c.801 0 1.45.654 1.45 1.456s-.649 1.451-1.45 1.451c-.803 0-1.451-.649-1.451-1.451s.648-1.456 1.451-1.456zm-148.656 1.56c.802 0 1.451.649 1.451 1.451s-.649 1.456-1.451 1.456c-.801 0-1.451-.654-1.451-1.456s.65-1.451 1.451-1.451zm80.891-.134 5.036 3.844.012 2.913-6.023-5.793zm-1.725 1.54 6.297 6.223-6.602 6.585-6.51-6.17zm47.405.217-6.07 2.489c2.322 21.04 8.347 36.81 16.47 49.595l.185-29.511c-4.194-6.637-7.369-14.633-10.585-22.573zm25.518.435v3.309l-7.556 6.93v-3.296zm-72.927 1.82-4.011 3.916 4.038 3.907 3.889-3.907zm-75.515-.433v3.52l-7.502 7.244v-3.742zm84.466 1.972.062 33.675-1.669.789.117-35.18zm-9.027.51 1.821 1.829-1.907 1.916-1.792-1.83zm73.003.351v3.817l-7.556 7.056-.125-3.64zm-83.605 14.312c7.798 6.748 13.79 16.99 20.368 22.715 2.661 2.305 9.166 5.905 12.677 7.012 3.991 1.258 7.097 1.773 11.104 1.844 3.163.056 3.177.075 3.177.075l1.339 2.38-2.215-.03-.144 8.404c2.344.114 4.641-.016 6.906-.297l.819 1.531c-16.128 2.186-31.896-3.926-41.376-11.736-4.326-3.555-7.839-7.896-12.116-14.215-8.234-12.841-22.734-19.041-36.24-19.186l-1.118-1.739 2.256.075s.229-1.615.258-4.36c.033-3.091.015-3.634-.228-3.723-1.635-.19-6.566-.088-6.422.121l-1.015-1.815c16.099-1.66 31.942 3.944 41.97 12.944zm-64.837-12.673v3.452l-7.502 7.076v-3.457zm82.457.293-.198 3.086-3.576 3.537 3.805 3.694-.091 2.578-6.709-6.222zm-49 1.098c-.346 0-.554.029-.593.095-.09.149-.04 1.475-.332 6.272-.107 1.758-.228 1.765 1.245 1.943 1.238.042 4.007.751 5.849.968 1.553.206 1.229-.266 1.665-1.507.477-1.357.736-2.56 1.329-4.497.542-1.774.293-1.831-3.204-2.485-2.416-.451-4.924-.789-5.959-.789zm34.892-.294 6.074 6.059-5.978 6.071-.106-2.933c1.154-1.026 2.527-2.194 3.541-3.352l-3.523-3.597zm-30.448 1.964.652 1.072 1.564.258-.273 1.09.795 1.124-.978.735.034 1.357-1.225-.043-1.064.761-.842-1.069-1.227-.04.066-1.521-.794-.672.949-.851-.123-1.348 1.511.253zm-9.86 1.827.965.632-.98.677-.044 1.037-.601.511-2.203-4.311 1.434.581 1.094-.727zm17.676-.997c-.771.012-.871 1.437-1.705 4.132-1.165 3.759-1.249 3.411.986 4.195.994.349 2.896.991 3.902 1.464 2.453 1.153 2.465 1.148 3.38-.417.407-.694 1.177-2.399 1.717-3.283 1.345-2.207 1.381-2.1-1.09-3.291-1.455-.7-2.335-.986-5.394-2.227-.849-.344-1.393-.58-1.796-.573zm2.447 2.493 1.071.672 1.203-.502.241 1.295 1.317.51-.374 1.274.579.954-1.121.218-.815 1.764-1.23-.863-1.306.471-.363-.971-1.337-.645.486-1.07-.668-1.443 1.531-.117zm26.922 1.324 6.702 6.567-6.102 6.116-6.699-6.589zm69.918 1.196c.803 0 1.45.649 1.45 1.451s-.647 1.451-1.45 1.451-1.452-.649-1.452-1.451.649-1.451 1.452-1.451zm-87.815.319c-.389.006-.611.364-.948 1.053-.142.29-.969 1.836-1.734 3.033-1.723 2.698-1.725 2.561-.004 3.617.728.448 2.407 1.831 3.852 3.135 1.335 1.207 1.189.921 4.067-1.955 1.877-1.877 3.034-2.404 2.303-3.393-1.78-1.525-3.238-2.638-5.166-4.096-1.274-.95-1.93-1.4-2.37-1.394zm18.211.734-3.954 3.873 4.456 4.036 3.694-3.794zm-67.708-1.315.042 30.296c4.347 7.432 8.81 14.932 11.131 23.296l6.377-3.125c-3.05-24.75-10.145-38.475-17.55-50.467zm-11.353 1.903c.801 0 1.45.649 1.45 1.45 0 .802-.649 1.451-1.45 1.451-.803 0-1.45-.649-1.45-1.451 0-.801.647-1.45 1.45-1.45zm79.109 1.616 1.906 1.75-1.754 1.906-1.925-1.991zm71.333.285c.802 0 1.456.649 1.456 1.451s-.654 1.45-1.456 1.45c-.801 0-1.451-.648-1.451-1.45s.65-1.451 1.451-1.451zm-3.896.147c.801 0 1.454.649 1.454 1.451s-.653 1.45-1.454 1.45c-.803 0-1.451-.648-1.451-1.45s.648-1.451 1.451-1.451zm-84.8-.095 1.103.817 1.294-.556.092 1.524 1.179.58-.742 1.08.448 1.421-1.275.041-.992 1.3-.889-.854-1.736.117-.276-1.481-.751-.588.584-.98-.427-1.304 1.485-.102zm-63.879 1.617c.801 0 1.45.649 1.45 1.451 0 .801-.649 1.45-1.45 1.45-.803 0-1.451-.649-1.451-1.45 0-.802.648-1.451 1.451-1.451zm4.176.042c.802 0 1.451.654 1.451 1.456s-.649 1.451-1.451 1.451-1.45-.649-1.45-1.451.648-1.456 1.45-1.456zm84.03 3.463-3.462 3.231 3.412 3.555-.103 2.726-6.052-6.035 6.149-6.038zm-34.218-.702-12.988 8.616-.79-2.156 11.579-7.583zm96.62-.703c.803 0 1.451.654 1.451 1.456 0 .801-.648 1.45-1.451 1.45-.802 0-1.452-.649-1.452-1.45 0-.802.65-1.456 1.452-1.456zm-77.869.876c-.601.042-1.216.753-2.381 1.991-1.142 1.216-2.491 2.643-2.779 2.846-.903.635-.859.789.71 2.551.478.535 1.377 1.628 2.001 2.432.624.803 1.617 1.81 1.814 2.017.638.668.988.529 3.916-1.574 3.558-2.553 3.541-2.175.272-6.396-1.883-2.429-2.781-3.921-3.553-3.867zm-70.649.892c.801 0 1.451.649 1.451 1.451s-.65 1.451-1.451 1.451c-.802 0-1.456-.649-1.456-1.451s.654-1.451 1.456-1.451zm76.179.527 2.347 2.517-.21.251zm75.879.56v4.363l-7.231 6.679v-3.991zm-80.972 1.275.879 1.21 1.49-.096-.22 1.424.792.579-.772 1.078-.062 1.361-1.231-.292-1.008 1.212-.991-1.162-1.168.136.039-1.415-1.192-.676.842-.921.025-1.585 1.736-.064zm35.77.091.723 2.2-18.077 11.762-1.579-1.814zm-47.323 1.473 1.439 1.083-18.973 12.2-.572-1.59zm-55.494-.468v3.628l-8.004 7.712v-3.746zm75.133.87.23-.19 6.204 5.957-1.171 1.246zm-17.136 1.749.171 35.184-1.653-1.144.124-33.382zm1.019.812 1.348 1.185-1.29 1.261zm89.003-.3v3.568l-7.231 6.866v-3.731zm-148.019 1.714v3.353l-8.004 7.65v-3.388zm74.596.456c-.208-.003-.431.131-.759.389-.297.234-1.025.74-1.616 1.124-2.178 1.415-4.024 2.741-4.106 2.937-.169.405 2.017 3.256 5.05 6.674 1.193 1.344 1.159 1.604 2.356.408.951-1.08 4.438-4.038 4.336-4.829-.192-.906-1.389-1.935-4.365-5.958-.396-.507-.631-.74-.896-.745zm-13.442.368 4.759 6.809-.634.633-5.839-5.76zm-9.298.803.009 32.827-8.933 6.345c.164.086-1.097-19.723-4.512-30.287zm22.213 1.157.876 1.633 1.324-.223-.174 1.501 1.121.88-1.103 1.526.146 1.087-1.299-.295-1.185 1.224-.812-1.557-1.706.027.238-1.496-1.191-1.001 1.3-.768.181-1.365 1.119.097zm7.753.254.146 1.342-.795-.693zm-22.837 2.384-.013-1.919 5.696 5.496-5.817 5.451.041-2.589 3.31-3.154zm47.067-1.062.809 2.447-11.701 7.204-2.359-1.225zm38.546 4.045c.801 0 1.455.649 1.455 1.451 0 .801-.654 1.455-1.455 1.455-.803 0-1.451-.654-1.451-1.455 0-.802.648-1.451 1.451-1.451zm-74.467 4.722-4.112-4.115.516-.56zm10.589-3.699c-1.392 1.191-4.366 4.626-4.36 5.194.005.565 4.116 4.119 6.589 5.697.777.495 1.085.511 1.385.062 4.272-6.384 4.455-6.169 2.763-7.414-1.719-1.315-3.729-3.271-5.102-3.944-.578-.284-.678-.108-1.275.405zm-15.406.311 6.777 6.498-6.285 6.06-6.523-6.88zm-69.192.491c.803 0 1.451.649 1.451 1.451s-.648 1.451-1.451 1.451c-.801 0-1.45-.649-1.45-1.451s.649-1.451 1.45-1.451zm85.619 1.306 1.141 1.015 1.36-.355.305 1.343 1.312.483-.704 1.366.097 1.723-1.32-.247-.916 1.413-1.341-1.35-1.537.129.085-1.506-1.358-.657.862-.99-.539-1.355 1.627.256zm64.786.605c.802 0 1.451.649 1.451 1.451 0 .801-.649 1.45-1.451 1.45s-1.456-.649-1.456-1.45c0-.802.654-1.451 1.456-1.451zm-84.774 3.424 4.013 4.106 3.691-3.54-3.912-4.133zm80.772-3.367c.803 0 1.451.649 1.451 1.45 0 .802-.648 1.456-1.451 1.456-.801 0-1.45-.654-1.45-1.456 0-.801.649-1.45 1.45-1.45zm-148.404 1.512c.803 0 1.452.654 1.452 1.456 0 .801-.649 1.45-1.452 1.45-.801 0-1.45-.649-1.45-1.45 0-.802.649-1.456 1.45-1.456zm4.253.014c.802 0 1.452.654 1.452 1.456s-.65 1.451-1.452 1.451c-.801 0-1.451-.649-1.451-1.451s.65-1.456 1.451-1.456zm67.187.324 1.825 1.882-1.688 1.782-1.887-1.943zm24.792 1.291c-.935.67-3.475 5.479-3.91 6.536.005.255 1.226 1.031 2.755 1.745 1.303.609 5.533 2.306 5.923 2.4.85.206.997-.116 1.138-.67.076-.293.411-1.411.786-2.626 1.311-4.256 1.703-4.055-.246-4.702-.672-.223-2.782-.934-4.111-1.547-1.317-.607-1.912-1.145-2.335-1.136zm54.126.77c.801 0 1.455.649 1.455 1.451s-.654 1.455-1.455 1.455c-.802 0-1.452-.653-1.452-1.455s.65-1.451 1.452-1.451zm-69.31 1.992.228 28.536-2.233-1.747-.063-28.631zm-9.987 4.862-6.166 6.275-.038-3.197 3.452-3.125-3.515-3.676.073-2.47c2.248 1.841 4.169 4.104 6.194 6.193zm-69.089-5.474c.803 0 1.452.649 1.452 1.45 0 .802-.649 1.456-1.452 1.456-.801 0-1.455-.654-1.455-1.456 0-.801.654-1.45 1.455-1.45zm95.144-.062 1.243 1.037 1.042-.626.599 1.068 1.496.208-.67 1.631.878 1.259-1.459.27-.363 1.739-1.429-.85-1.086.47-.791-1.473-1.692-.068.924-1.601-.87-1.265 1.227-.08zm-19.026.113-.012 2.517-2.683 2.719 2.693 2.93-.013 2.927-5.576-5.676zm28.601 1.653c-.562.017-.566.61-.997 2.54-.094.419-.391 1.541-.66 2.494-.812 2.889-.915 2.943 1.593 3.441 1.45.216 7.731 1.679 7.86.678.158-1.701.26-5.705.283-7.066.054-.456-.054-.886-.509-.94-2.864-.342-6.049-1.094-7.57-1.147zm-24.468.122c3.566 2.435 7.019 4.917 11.119 7.139l.103 29.347-11.248-8.376zm71.585.084v3.598l-7.496 7.159v-3.437zm-43.921 1.249.65 1.392 1.365-.455-.007 1.663 1.216.768-1.467.677-.13 2.023-1.487-.458-1.224.758-1.085-1.138-1.328-.025.487-1.799-.857-.822 1.246-.611.101-1.606 1.332.797zm-103.85-.267v3.468l-8.162 7.512v-3.032zm114.07 2.173 1.831 3.096-.662 1.252-1.227-.599-1.349.498.207-1.655-1.041-.828 1.053-.968-.047-1.215zm-48.344 1.022 6.259 6.485-6.375 6.583-6.259-6.577zm82.045 4.06-7.496 6.963v-3.387l7.496-7.109zm-147.771-2.833v3.384l-8.162 7.647v-3.135zm65.742 1.21-4.065 4.022 4.031 4.045 4.072-3.946zm.054 2.305 1.74 1.786-1.662 1.728-1.795-1.745zm-6.979 2.472 6.205 6.37-.713.841-5.498-4.271zm13.319.516.166 2.875-3.385 2.889 3.092 3.244.085 2.987-5.882-6.055zm72.299 2.918c.803 0 1.451.649 1.451 1.451s-.648 1.451-1.451 1.451c-.802 0-1.452-.649-1.452-1.451s.65-1.451 1.452-1.451zm-148.324 1.755c.801 0 1.451.649 1.451 1.45 0 .802-.65 1.456-1.451 1.456-.802 0-1.45-.654-1.45-1.456 0-.801.648-1.45 1.45-1.45zm29.707.889-4.578 6.847 3.607 2.417-3.416 4.592 3.554 4.276-3.577 3.069 3.631 6.216c-1.443-.285-2.912-1.248-4.241-1.916l-2.738-5.208 3.149-2.709-3.195-3.708 3.352-3.971-3.361-2.358 3.665-5.637zm120.351.912c.803 0 1.452.649 1.452 1.451s-.649 1.451-1.452 1.451c-.802 0-1.45-.649-1.45-1.451s.648-1.451 1.45-1.451zm-90.041-.113 31.598 24.356-.129 3.231-31.604-24.289-13.421 9.475.12-3.449zm86.173.308c.802 0 1.451.648 1.451 1.45s-.649 1.451-1.451 1.451c-.803 0-1.451-.649-1.451-1.451s.648-1.45 1.451-1.45zm-73.549 3.109-.333.063-3.448-2.517.752-.846s2.261 2.496 3.029 3.3zm-70.492-1.403c.801 0 1.455.654 1.455 1.456s-.654 1.451-1.455 1.451c-.803 0-1.452-.649-1.452-1.451s.649-1.456 1.452-1.456zm-3.913.019c.803 0 1.456.649 1.456 1.451s-.653 1.451-1.456 1.451c-.801 0-1.45-.649-1.45-1.451s.649-1.451 1.45-1.451zm150.088 1.916c.803 0 1.451.653 1.451 1.455s-.648 1.451-1.451 1.451c-.802 0-1.452-.649-1.452-1.451s.65-1.455 1.452-1.455zm-148.337 1.607c.801 0 1.45.654 1.45 1.455 0 .802-.649 1.451-1.45 1.451-.803 0-1.452-.649-1.452-1.451 0-.801.649-1.455 1.452-1.455zm151.673 2.703v3.204l-7.086 6.868v-3.093zm-95.649.962c1.055-.01 2.466.044 4.367.109 1.626.056 3.425.091 3.996.076 2.253-.061 2.988.705 3.029 3.138.037 2.164.028 2.157 2.86 2.276 3.412.143 4.315 1.019 4.36 4.243.019 1.255 1.034 1.748 3.021 1.465 3.133-.445 3.743-.015 4.105 2.897.304 2.43.142 2.305 3.012 2.285 3.086-.021 3.776.496 3.811 2.873.021 1.38.358 1.794 1.55 1.901 1.276.115 1.826.769 1.196 1.418-.115.118-.705.19-1.635.204-1.968.028-2.618-.59-2.983-2.845-.255-1.565-.414-1.647-3.03-1.574-3.336.093-3.597-.109-3.958-3.02-.31-2.5-.73-2.756-3.599-2.214-2.086.394-3.19-.525-3.462-2.873-.303-2.634-.42-2.731-3.38-2.835-2.964-.105-3.79-.626-3.816-2.409-.039-2.761-.389-3.011-4.035-2.901-1.769.053-3.581.022-4.623-.086-2.207-.228-2.197-.239-2.417 1.883-.33 3.17-.795 3.462-4.988 3.152-1.751-.129-1.875-.047-1.995 1.285-.15 1.669-.768 2.697-1.242 2.067-.248-.328-.251-.359 0-2.802.277-2.733.309-2.753 3.873-2.479 2.414.185 2.297.273 2.555-1.92.314-2.669.265-3.284 3.428-3.314zm-52.004-.25v3.516l-8.28 7.689v-3.408zm25.728 4.133 1.802 2.461-.586 4.578-1.529 1.152 1.083 2.176-.346 2.674-.43.245-3.006-5.836 3.558-3.13-3.647-4.447 3.445-4.643-3.576-2.513 4.297-6.325c.743-.904.787 2.685.787 2.685l-1.78 2.695 1.991 1.718h.004l.007 4.263zm2.274-2.073.192-5.74-1.552-1.202 1.199-1.991-.082-5.084-.361-.248c-2.986-36.397-20.804-57.904-23.593-62.782 0 0-.619-.497-.505-1.748.048-.543.073-3.751.051-7.131-.112-17.252.034-29.072.034-29.072l-13.099-13.961.076 5.108.643.464-.003 23.259-.545.031s-.168 6.253-.124 10.549l.78.022-.047 15.983-.665.079.038 10.355.722-.002s.17 10.858-.089 16.138l-.537.032.036 10.293.61.047.04 14.722-.751.113.203 9.719.613.034c.22 6.005.115 16.385.115 16.385l-.699.032.171 9.649.502.033-.145 16.939-.459.055.176 10.004.493.046-.083 8.32-.34.057-.08 3.112.362.825.023 11.086-.276.121-.08 5.568 20.314-20.54-7.478-.225.005-6.637c.003-10.954.148-19.795-.181-30.48-.097-.095-.839-.213-1.649-.261-3.849-.225-4.894-.537-4.908-1.46-.015-1.143 1.73-2.558 3.177-2.579.328-.005.877-.33.877-.33l-.466-121.545-9.089-9.518.039-3.023 11.2 11.853.42 121.484.425-.201.032-40.797c5.739 8.584 8.958 17.091 12.15 25.597 0 0 1.131-.389 1.176-.412.009-.01-.403-.144-.403-.144-3.256-10.872-7.378-18.754-12.723-26.982l.077-39.538c13.686 19.331 20.303 36.717 23.052 61.775l-6.926 3.459-.672.898-5.233 2.615-.5-.835-3.173 2.197c2.45 4.275 2.361 10.418.363 13.673l.86.534c.059.236 3.286-6.653-.325-13.659l2.364-1.456c3.409 7.047 1.827 14.637.22 16.593 0 0 2.468 1.572 4.242 2.534 1.927 1.047 3.64 2.004 5.95 2.749 1.423.579 2.329-.102 2.323-.117l.692-3.933-1.099-1.499 1.281-1.032.582-6.023-1.374-1.39zm119.651 1.607v3.88l-7.086 6.715v-3.818zm-147.653 4.156-8.28 7.6v-3.161l8.28-7.774zm144.836 5.171c.803 0 1.456.653 1.456 1.455s-.653 1.451-1.456 1.451c-.801 0-1.45-.649-1.45-1.451s.649-1.455 1.45-1.455zm-141.53 2.35.009 35.806-2.186.002.102-36.245zm-7.313-.326c.801 0 1.451.649 1.451 1.451s-.65 1.451-1.451 1.451c-.802 0-1.45-.649-1.45-1.451s.648-1.451 1.45-1.451zm146.778 1.384c.801 0 1.451.649 1.451 1.451s-.65 1.456-1.451 1.456c-.802 0-1.456-.654-1.456-1.456s.654-1.451 1.456-1.451zm3.911.062c.803 0 1.451.649 1.451 1.451s-.648 1.451-1.451 1.451c-.802 0-1.455-.649-1.455-1.451s.653-1.451 1.455-1.451zm-148.422 2.181c.801 0 1.455.654 1.455 1.455 0 .802-.654 1.451-1.455 1.451-.803 0-1.452-.649-1.452-1.451 0-.801.649-1.455 1.452-1.455zm74.757.043c7.564.936 5.56 8.871 2.371 10.52-4.342 2.022-7.819-2.05-5.046-6.177 2.034-3.028 5.905-1.026 4.41 2.293-.843 1.869-2.588 1.65-2.573-.239.624-1.797.052-1.157-.435-.523-1.531 1.991 1.556 4.103 3.143 2.138.974-1.206 1.179-2.638.845-3.782-.569-1.954-2.825-3.097-5.376-1.289-3.05 3.657-4.679 8.389-5.58 13.681-1.918 11.264-2.014 23.115-3.66 26.12l-1.792-.042c2.605-12.891 2.618-23.925 5.398-34.088 1.376-5.038 4.887-8.623 8.295-8.612zm-78.726.061c.803 0 1.451.654 1.451 1.456s-.648 1.451-1.451 1.451c-.801 0-1.45-.649-1.45-1.451s.649-1.456 1.45-1.456zm30.693.199c-1.995.04-4.019 1.692-3.862 3.803.188 2.562 1.706 3.704 4.204 3.447 1.336-.138 1.3-.16 2.199 1.45.811 1.449 2.945 7.634 2.959 8.572-1.026-1.361-3.421-3.889-5.632-3.783-2.374.172-4.372 2.422-2.577 5.608.954 1.563 2.65 1.868 4.377 1.352 2.582 4.017 3.069 8.042 3.891 12.712 0 0 1.02-9.995 1.329-13.982.587-6.111 1.422-10.068 3.785-14.913-1.971-1.138-4.082-2.031-6.205-2.849-.843-.325-1.729-.33-2.565-.876-.578-.388-1.238-.554-1.903-.541zm120.011.815c.803 0 1.451.649 1.451 1.451s-.648 1.455-1.451 1.455c-.802 0-1.45-.653-1.45-1.455s.648-1.451 1.45-1.451zm-115.924 3.206c1.495 2.429 2.953 5.935 3.082 8.142.05 1.461-.239 3.255-.486 4.933-.123.828-.437.02-1.003-1.772-2.351-7.435-2.972-8.858-4.607-8.487-.93.211-1.898.247-2.532-.102-2.071-1.143-2.261-4.973.763-5.706 2.391-.52 3.929 1.603 4.783 2.992zm-.054-1.849c3.014 1.188 4.94 2.978 4.39 5.889-.242 1.096-.403 1.999-.698 1.882-.338-.134-.805-1.449-1.741-3.709-.213-.732-2.361-4.047-1.951-4.062zm49.885.127c.159-.023.408.127.747.445 2.378 2.34 1.088 7.614-2.076 9.133-1.304.896-3.702.749-3.714-.118-.005-.337.071-.427.405-.432 2.662.02 5.492-3.68 4.707-7.62-.095-.593-.276-1.379-.069-1.408zm-82.846 1.281c.801 0 1.45.649 1.45 1.451s-.649 1.455-1.45 1.455c-.803 0-1.457-.653-1.457-1.455s.654-1.451 1.457-1.451zm85.343.445c.167-.025.743.224 1.125.684 2.24 2.699.421 7.294-3.098 8.87-1.344.727-2.476.225-2.19-.523 2.397-.995 4.659-3.568 4.422-7.088-.091-1.234-.504-1.906-.259-1.943zm-47.456.491.813.386-.335.705c-.158-.422-.155-.586-.478-1.091zm50.001.292c.178-.004.578-.064.956.303 1.448 1.406 1.677 5.35.285 7.3-.652.914-2.676 2.575-3.28 2.742-.704.086-1.192.191-2.362-.342-.393-.012.176-.383.914-.809 2.621-1.513 4.36-4.213 3.905-6.747-.283-1.568-.759-2.439-.418-2.447zm2.655 1.272c.695.059 1.232.67 1.563 1.187 1.721 2.471.291 7.67-3.231 8.747-2.344.718-3.218.04-1.32-1.069 2.727-1.591 4.143-4.701 3.354-7.171-.378-1.18-.736-1.669-.366-1.694zm2.841 1.809c.82.012 1.454.64 1.743 1.288.679 1.596.573 3.832-.311 5.405-.882 1.569-2.57 2.874-4.444 3.065-.49.045-.915-.028-1.285-.187-.824-.355-.54-.408 1.01-1.218 2.47-1.291 3.928-3.976 3.555-6.941-.141-1.113-.589-1.409-.268-1.412zm-89.44-.54v3.832l-8.06 7.608v-3.741zm68.485.496c.153.159 1.065 2.333 1.179 2.781-1.889 2.715-2.422 7.172-2.714 10.548-1.065 9.569-2.173 21.122-2.657 21.228l-2.098.047c.799.532 1.825-15.866 3.451-26.257.126-.815 1.868-8.832 2.839-8.347zm24.385 1.697c2.768 1.873 1.289 7.719-2.561 9.167-1.397.537-1.91.605-2.543-.009-.399-.389-.78-.519.237-.879 2.846-.742 4.856-3.4 4.375-6.486-.057-.751-.763-2.734.492-1.793zm19.181.497c3.277 3.893 5.592 9.77 6.376 13.989.374 2.11.568 4.091.398 4.56-.304.835-.774.668-1.059-.321-2.676-12.814-16.696-13.243-21.102-2.347-4.026 10.491 7.263 19.974 15.702 13.12 1.181-.959 1.587-1.288 1.921-.898.22.258-.328 1.004-1.374 1.878-9.619 8.904-1.003 19.257 8.084 18.739 10.769-.613 14.445-13.446 5.479-19.703-.594-.462-.967-.65-.933-.975.068-.684.553-.587 1.644.331 8.658 7.726 19.368-.639 17.823-9.667-2.626-15.333-19.555-11.465-22.142-.736-.419 1.321-1.12 1.514-1.138.262-.012-.862.091-1.869.291-2.964.66-6.008 6.624-15.268 6.624-15.268zm-41.576 1.122 1.26.809c-1.358 4.049-1.86 8.823-2.416 13.444-.672 5.591-1.263 11.346-2.078 16.834l-1.927.07c1.006-3.392 1.47-12.867 2.465-20.804.582-4.017 1.214-9.544 2.696-10.353zm2.185 1.322 1.614.936c-.57 2.258-1.245 4.734-1.578 7.104-.741 5.268-1.033 11.658-2.738 21.49l-1.746.149c.44-3.159 1.271-10.192 1.981-16.664.824-7.514 2.12-13.197 2.467-13.015zm-72.66-.253v3.762l-8.06 7.42v-3.465zm75.391 1.442s1.39.782 1.566.874c-1.049 4.151-1.562 8.009-2.079 11.771-.696 5.076-1.214 10.015-2.175 15.593l-1.86.117c.925-4.278 1.985-14.329 2.818-21.416.484-4.114 1.486-7.019 1.73-6.939zm-44.372 8.449c.023 2.835-.597 7.23-.597 7.23-.246.14-1.006-6.437-3.664-9.412-3.236 1.541-6.029-2.074-3.822-4.559 4.309-3.705 8.082 4.207 8.083 6.741zm46.799-7.317 2.253 1.039c-.277-.049-.808 1.503-1.326 3.925-1.579 7.374-3.145 21.91-3.4 21.904l-1.738.143c.563-3.904 1.336-10.073 2.145-15.528.916-6.183 1.772-11.452 2.066-11.483zm3.132 1.414 1.711 1.028c-.149-.109-.768 1.722-1.068 2.998-1.541 7.357-2.238 13.806-3.191 20.942l-1.866.243c-.139.207 1.612-14.044 3.056-21.241.493-2.458 1.22-4.054 1.358-3.97zm2.668 1.279 1.834.907c-1.995 5.645-2.18 11.044-4.091 22.376l-1.939.35c.781-7.255 1.889-15.045 3.477-22.144.22-.954.698-1.468.719-1.489zm77.304.276c1.545 2.121 2.434 4.908 2.71 7.461.086.872.016 1.459-.266 1.462-.238.005-.356-.182-.564-.899-1.053-5.441-7.967-5.697-9.638-.736-1.873 4.829 2.867 8.881 6.622 6.775 1.227-.769 4.031-2.468 1.285.204-1.033 1.056-1.989 2.189-2.077 3.356-.282 3.736 2.175 6.146 5.049 6.382 3.219.264 5.448-2.022 5.554-5.102.048-1.652-.734-3.53-2.257-4.982-1.446-1.376-1.542-1.901-.082-.948 1.608 1.049 3.353 1.869 4.718 1.594 6.509-1.311 5.134-9.97-.503-10.521-2.072-.17-4.103 1.059-5.12 3.626-.984 2.312-1.212 1.52-.823-.15.682-2.728 1.587-5.297 3.301-7.522zm-74.681 1.049 2.064.829-4.321 20.803-1.743.235c1.084-5.997 1.647-12.932 3.11-18.398.309-1.158.482-2.46.89-3.469zm-89.877 3.296c.801 0 1.455.648 1.455 1.45 0 .803-.654 1.45-1.455 1.45-.803 0-1.452-.647-1.452-1.45 0-.802.649-1.45 1.452-1.45zm1.896 3.404c.801 0 1.455.652 1.455 1.455 0 .801-.654 1.45-1.455 1.45-.803 0-1.452-.649-1.452-1.45 0-.803.649-1.455 1.452-1.455zm-3.779.09c.802 0 1.456.649 1.456 1.45 0 .803-.654 1.455-1.456 1.455-.801 0-1.451-.652-1.451-1.455 0-.801.65-1.45 1.451-1.45zm1.811 3.346c.801 0 1.451.654 1.451 1.455 0 .803-.65 1.452-1.451 1.452-.802 0-1.456-.649-1.456-1.452 0-.801.654-1.455 1.456-1.455zm13.13 4.848-17.41 17.636-.054-3.526 11.934-11.716-12.025-.182.027-2.387zm-7.981 3.362-9.327 8.904-.079-9.053zm9.965.652s-.05.325.825 1.858c2.544 4.423 3.133 8.51 5.383 13.251 1.12 2.594 3.641 5.213 4.206 5.362l-2.803 5.128 79.066-.166-12.658-22.092c-20.088 3.718-38.136 3.066-55.1.094-.973 1.306-2.039 3.964-3.061 5.888-2.533-6.818-10.636-11.218-15.858-9.323zm2.878.592c4.178-.06 7.66 1.926 10.753 6.139.983 1.343 1.366 1.948 1.363 2.513-.105.651-1.401 2.735-1.401 2.735s-.751-2.068-.928-3.07c-1.124 4.137-1.572-.657-2.004-1.921-1.37 3.996-2.109-1.498-2.041-2.98-1.864 2.564-1.744-1.646-2.653-2.427-.023 2.219-1.329.701-3.021.227.885 1.241 2.608 2.076.407 2.349 2.195 1.516 3.295 1.283 1.165 2.121 1.641.906 4.343 1.995 1.356 2.591 1.825 1.152 4.763 1.636 1.605 2.734 2.385 1.459 5.561 1.355 1.094 2.528 1.619.945 4.471 1.3 1.279 2.122.493.222 1.347.795 1.347.795l-1.379 2.177s-.496-.039-.836-.394c-1.464-1.53-2.888-4.344-4.164-8.287-.939-2.901-2.056-5.967-3.288-8.511-.666-1.346-.604-1.413 1.346-1.441zm70.612 4.976 10.926 18.697-2.593.039-9.647-16.007-13.016 1.47 4.286 14.311-3.867.105-3.841-14.077c-7.266.292-14.199.374-20.242-.111l-2.048 14.281-3.691-.123 2.339-14.135-12.214-1.563-6.625 15.854-3.816.073c2.462-4.154 8.613-17.569 9.761-18.892 26.606 4.259 40.421 1.964 54.288.078zm71.972 12.519v18.581h-3.14v3.615h10.342v-3.615h-3.468c-.018-6.35-.012-12.7 0-19.05-.176-8.807 9.601-7.283 9.722-2.084l.027 3.058h3.467s.113-.071.049-2.539c-.038-5.937-3.183-8.313-8.325-8.263-8.099.412-8.909 6.867-8.674 10.297zm-74.526-8.185 8.273 14.384-13.29.061-4.465-13.319zm-49.725.422c2.623.763 5.443.93 8.286 1.035l-2.416 12.868-11.776-.024zm33.149 1.514 3.124 12.497-22.168.114 1.829-12.458c5.819.348 11.503.028 17.215-.153z"/></g></svg>