<svg clip-rule="evenodd" fill-rule="evenodd" stroke-linejoin="round" stroke-miterlimit="2" viewBox="0 0 224 312" xmlns="http://www.w3.org/2000/svg"><path d="m223.23 10.63c0-5.87-4.76-10.63-10.63-10.63h-201.97c-5.86 0-10.63 4.76-10.63 10.63v290.55c0 5.87 4.77 10.63 10.63 10.63h201.97c5.87 0 10.63-4.76 10.63-10.63z" fill="#fff"/><g fill-rule="nonzero"><path d="m30.967 288.008-.51-263.006 163.133.307.204 262.594zm58.481-219.154c-5.834-1.59-5.692 4.205-1.42 4.42 4.787.413 6.835-7.745 4.551-10.961 0 0-1.989 6.146-3.131 6.541zm-37.856 32.762-7.008 3.126-.028 5.23c2.924-2.324 5.207-5.158 7.036-8.356zm47.823 157.158c-1.378-.696-3.041-2.191-2.785-2.453.126-.13.873.106 1.551.411 5.475 2.306 9.726 2.158 16.254-.212.495-.179 1.233.763.958 1.279-2.891 4.277-12.247 2.758-15.978.975zm-2.886-6.418c-1.257-1.888.41-.456.97.079 4.051 3.766 9.54 5.044 14.251 1.494.22-.244.249-.47.184-.638-.133-.349-.136.023-2.151.72-4.523 1.694-8.334.303-12.051-2.541-1.529-1.18-2.241-1.76-2.241-2.069 0-.284.286-.461.801-.372.319.054 1.208.24 1.86.293 1.132.092 1.045.045 2.204-.491 2.479-1.143 4.762-1.56 7.351-1.096.599.106 1.353.304 1.456.27.58-.193-.276-.957-2.471-2.697-.431-.342-.969-.636-1.147-.933-.277-.461.025-.583.337-.58.903.011 4.957 3.4 6.348 5.412.422.613.714.678.716 1.313-.082.661-.187 1.295.527 2.22.514.663 1.01 1.731 1.015 1.782.005.058-.102.393-.572.083-.214-.04-.319-.269-.71-.213-.341.051-.896.318-1.505.606-5.681 3.653-10.912 1.872-15.172-2.642zm12.445-.255c.114.011-.393-2.088-.965-2.708-1.128-1.221-2.848-1.443-3.887-.194-.585.703-1.228 2.664-1.228 2.664s.911.267 1.166.267c.036-.439.039-1.667.942-2.386.445-.351 1.404-.34 1.779-.05.741.364 1.053 1.836 1.064 2.41.405.125 1.338.013 1.129-.003zm-6.869-3.025c-.801.357-1.842.597-2.08 1.133-.316.707.796.921 1.375 1.159.801.387.818.244 1.078-.371.162-.387.374-.888.578-1.351.599-1.156.002-.996-.951-.57zm8.668 2.009c.461-.461.547-.766.136-1.289-.186-.236-.718-.477-1.295-.672-.742-.249-1.065-.553-.6.453l.665 1.435c.342.688.642.506 1.094.073zm-75.797-49.052c.282 0 3.077-.917 4.073-1.359.986-.377 1.104-.367.711-.913-.147-.204-.266-.781-.193-1.413l.074-.881c-1.723-.351-4.297.603-5.181 1.809-.63.77-.567 2.484.516 2.757zm-.351 4.299c.523.524.668.543 2.24-.041.55-.368 1.701-.828 2.508-.881 1.892-.503 1.894-.304 1.357-1.516-.246-.558-.328-1.02-.251-1.535.093-.611.166-.695-.179-.803-.905-.283-5.118 1.292-5.873 2.517-.53.863-.459 1.602.198 2.259zm98.917 37.21c-.276.411-.753 1.141-.953 1.634-.346.851-.136 1.014.002 2.682.08.969.1 2.472.103 3.279.005 1.547-.017 2.028.456 2.118.417.08.608-.232.808-1.038.1-.404.339-.824.411-1.08.297-1.74.848-4.644 2.102-5.865.174-.143.684-.235 1.609-.246 1.134-.013 1.496-.046 1.847-.309 1.983-1.734.42-3.977-1.349-4.134-2.049-.178-4.874 2.651-5.036 2.959zm7.871-.727c.125 1.995-1.864 3.356-3.885 2.894-.82-.208-1.066-.019-1.615 1.15-1.193 3.208-1.664 6.427-1.981 8.532-.137 1.895-.831 6.824-.328 8.395 5.763 7.122 11.83 14.475 18.474 21.806l39.51.054.238-46.516-11.475-10.853.022-17.205c-12.284 5.788-24.531 11.656-36.791 17.494 2.672 8.569-6.388 10.366-8.374 4.622-1.719 1.578-3.129 10.084-2.495 10.505 0 0 .227.306.608-.369.628-1.116 1.446-1.935 2.323-2.478 2.555-1.581 5.594-.802 5.769 1.969zm-31.448-.868c-1.939-1.541-.9-3.892.71-4.597.854-.373 2.224-.322 3.732.21 1.324.608 2.116.523 3.473.356.902-.1.735 1.785-.207 2.272-.662.344-2.183.181-4.033-.872-3.189-1.816-4.59.538-2.615 2.663 1.095 1.173-.78.234-1.06-.032zm-65.676-28.173c1.704-1.097.996-3.033-.592-3.357-2.14.045-2.684 2.501-1.153 3.35 0 .298-.761.055-1.172-.253-.637-.478-.056-2.345-.65-2.419-.451.007-4.87 1.57-5.347 1.882-1.984 1.126-.122 3.669 1.03 3.378 2.393-.604 5.646-1.141 7.884-2.581zm-9.874-3.633c.04 1.132.357 1.636 1.101 1.646 1.554-.27 3.001-1.011 4.451-1.481 1.134-.371 1.594-.789.73-1.498-.261-.299-.493-.729-.366-1.546.297-.934.069-.981-.326-1.026-.396-.046-1.298.332-3.612 1.221-1.219.468-1.452.67-1.768 1.34-.142.513-.23.828-.21 1.344zm12.881 14.615c.267-.314.861-2.288.861-2.776-.12-.812-.725-.996-1.26-.472-.65.582-.475 1.462-.862 2.136-.134.235-.277.559-.237.691.209.709 1.082.84 1.498.421zm5.067-10.745c19.801-21.087 32.066-50.268 10.609-90.514-2.407-1.024-3.149 2.888-3.38 3.048l-2.742 2.388c14.525 25.048 12.002 53.86-5.757 74.348l.018 1.299c.042 2.862.867 2.738 2.07 1.399 1.276-1.345.422-.249-.099.304-.449.476-1.163 1.423-1.353 1.67.233 1.716 1.314 4.916.634 6.058zm-1.315-6.336c-.203-.569-.419-1.871-.53-2.872-.069-.653-.096-1.268-.13-1.906-.211-1.267-.727-4.176-1.148-4.817-.452-.691-1.559-1.196-2.793-1.275-1.057-.068-1.143-.049-1.369.295-.387.59-.121 3.568.27 4.66.443 1.28.183 1.976-.176 3.245-.124.46-.17.492.057.524.989-.069 1.317-1.281 1.708-.92.131.132-.212 1.126-.673 2.131-.487 1.06-.631 2.521-.053 4.317.324 1.006.186 1.324-.009 1.931-.131.405-.36 1.648-.368 2.885.463 1.55.231 2.244-.042 2.756-.589 1.316-1.044 3.098-.727 4.099.14.44.503.064.769-.689.416-1.485.902-1.816 2.121-1.816.889 0 .972.311 1.266-.086.667-.903 2.297-4.1 2.328-4.991.63-2.272.661-4.225-.501-7.471zm9.471 14.927c.536-.204 1.364-1.342 1.365-1.734.002-.433-3.319-3.661-4.702-4.552-.626-.404-.925-.117-2.031 1.373-.985 1.324-1.113 1.336-.931 1.59.22.307 3.604 2.507 4.727 3.131.388.216 1.047.392 1.572.192zm6.22-5.746c-.495-.38-4.468-4.786-5.647-5.004-.448-.083-1.885 1.553-1.885 1.924 0 .255 2.481 2.781 4.238 4.316.503.438 1.058.797 1.233.797.558-.287 1.992-1.443 2.061-2.033zm4.223-4.156c0-.261-.439-.798-1.508-1.849-2.725-2.676-4.243-3.901-4.721-3.897-.522.173-1.466 1.761-1.522 2.314.178.331 4.736 4.465 5.326 4.866.728.703 2.323-.936 2.425-1.434zm4.275-4.268c.116-.393-.111-.729-.69-1.282-.408-.391-1.862-1.814-3.229-3.161-2.866-2.825-2.873-2.827-3.793-1.507-.948 1.358-.943 1.369 1.852 4.095 2.979 2.906 3.676 3.496 4.137 3.496.708-.326 1.477-.87 1.723-1.641zm-31.949-2.55c-.498-.149-.957-.061-1.349.252-2.112 1.796.884 4.106 2.115 2.665.821-.809.787-2.548-.766-2.917zm36.335-1.879c0-.301-.615-.975-2.745-3.009-5.271-5.031-5.033-4.84-5.618-4.527-.365.195-1.071 1.548-1.071 2.05 0 .377.505.898 4.411 4.546 2.29 2.139 2.968 2.679 3.364 2.679.623-.309 1.632-.978 1.659-1.739zm-36.2.189c1.034-.45 1.228-1.57.642-2.455-1.126-.992-2.692-.173-2.718 1.106.195 1.198 1.211 1.704 2.076 1.349zm40.531-4.414c0-.601-9.025-9.039-9.667-9.039-.436 0-.748.353-1.158 1.309-.356.828-.319 1.319.128 1.749.653.628 2.391 2.231 4.046 3.728.978.886 2.102 1.944 2.498 2.35.928.953 1.951 1.691 2.342 1.691.558-.327 1.336-.768 1.811-1.788zm-41.005-1.088c.01-.339-.077-.685-.32-.942-.618-.66-1.771-.313-2.06.561-.263 2.055 2.297 2.145 2.38.381zm6.684-65.681 1.766-5.396 5.392-.139.756-5.364 5.55-.799.09-5.542 5.308-.725-.328-5.935 4.923-1.166-.244-5.495 4.474-1.372-.179-4.783.769-.603-1.935-1.967-1.666.541-.031 4.916-4.468 1.438.471 5.439-4.516 1.03-.057 5.914-5.189.582-.37 5.218-5.061.997-.756 5.111-4.911.334-1.499 4.493-3.245.037v3.007zm58.673 96.547c-.169-.405.273-.345 1.044.142.807.509 1.981.935 2.816.936.348 0 1.593-.221 2.766-.493 1.401-.514 2.643-.545 4.099-.23 1.081.146 2.171.264 2.42.261.722.102 1.949-.791 2.277-1.352.889-1.522.677 1.242.682 1.558.015 1.416.193 3.045-.821 2.287-.6-.309-1.649-.586-2.486-.028-.841.563-1.539.684-2.526.09-.81-.32-1.237-.387-1.843.176-.676.627-2.314.404-3.191.116-1.508-.252-2.353-.47-3.364.33-.539.309-.678.079-1.084-1.117s-.726-2.527-.789-2.676zm3.84-.999c-.096-.155.713-.948 1.259-1.23 1.606-.83 4.793-.793 7.073.049 1.188.439 1.372 1.19.215 1.031-2.405-.504-5.422-.919-7.747.188-.183.097-.755.035-.8-.038zm2.034-3.758c-1.644-.61-2.451-1.26-2.451-1.467 0-.223.352-.182 1.645.171 1.762.654 3.845.998 5.584.389 1.25-.462 1.873-.754 1.873-.476 0 .294-.515 1.06-1.375 1.5-1.709.697-3.966.366-5.276-.117zm35.709-4.569 1.22-.168-.423-5.094 4.496-1.335-.316-5.067 4.794-1.649-.287-5.703 4.981-.981.649-4.991 4.702-.334.975-5.43 5.05-.174 1.041-4.513 3.361-.021-.016-2.535-5.234.017-1.109 4.884-4.94.143-1.049 5.366-5.18-.039-.663 5.784-4.872.798.004 6.228-4.698 1.219.363 5.325-4.694 1.713.53 5.081zm31.395-119.54c-.671.478-.925 1.426-.718 2.198.662 1.747 2.99 1.203 3.266-.069.139-.551-.228-1.383-.864-1.564-.111-.031-.505.006-.711-.206-.15-.154.776-.629 1.322-.448.683.225 1.239 1.126 1.241 1.906 0 .303-.085.752.025.902 1.126-.028 2.416-.647 3.624-.982 2.04-.565 2.779-1.736 2.326-3.107-.378-1.142-1.547-1.595-3.083-1.017-2.108.793-4.584 1.173-6.428 2.387zm-87.128 125.073c6.911-4.855 10.98-7.63 19.849-8.109-3.164-1.301-3.681-3.011-4.57-4.648-10.988 1.039-16.822 4.548-22.042 7.824 2.156 1.015 4.409 2.196 6.763 4.933zm38.521-6.734c-3.352-2.368-7.339-3.8-11.476-4.906l-3.171 3.285c-.184-.117 9.181.095 14.647 1.621zm32.176-31.164c-21.613-33.213-7.094-62.438 7.935-81.06.483-.611.6-.642.49-1.128-.142-.641-.32-3.869-.21-5.734-27.78 27.533-28.492 63.401-11.067 91.867 1.245-1.113 3.757-2.596 2.852-3.945zm3.242-2.842c-3.548-5.908-22.446-37.901 6.418-73.591 0 0-.099-1.82-.314-2.504-.389-1.225-.99-1.719-.99-1.719-12.123 18.197-29.742 40.968-7.737 80.514zm-16.526-60.213c.431-.352 1.059-1.632 1.059-2.161 0-.471-.34-.865-3.596-4.168-4.342-4.404-5.09-5.078-5.645-5.078-.526 0-1.895 1.3-1.895 1.798 0 .238 1.276 1.614 4.292 4.623 5.594 5.585 5.33 5.357 5.785 4.986zm3.998-8.111c0-.265-.402-.791-1.353-1.77-2.511-2.583-6.088-5.857-6.402-5.857-.401 0-1.496.887-1.784 1.443-.202.391-.198.481.039.851.442.691 6.042 6.005 7.633 7.342.956.877 1.821-1.341 1.867-2.009zm2.162-3.295c.444-.237 1.286-1.81 1.183-2.211-.046-.188-1.467-1.717-3.155-3.397-3.341-3.323-3.534-3.443-4.366-2.699-.755.674-1.227 1.35-1.134 1.621.113.331 5.114 5.414 6.136 6.237.807.651.902.682 1.336.449zm25.488-.246c1.57-1.507-.208-3.16-1.501-2.397-.551.34-.877 1.081-.709 1.574.279.817 1.388 1.263 2.21.823zm3.109-.384c2.656-.698 3.929-1.164 4.486-1.992.385-.574.428-.926-.005-1.861-.4-.863-.866-1.126-2.532-.214-1.143.626-3.687.926-4.578 1.452-.356.307-.183.303.105.485.64.407.953.684.883 1.222-.151 1.171-.031 1.351 1.641.908zm-2.813-4.166c1.29-.66 1.03-2.252-.412-2.885-1.9-.501-3.125 1.788-1.569 2.904.417.292 1.475.24 1.981-.019zm4.287-.645c1.866-.639 2.583-1.14 3.122-2.171.425-.816.244-1.181.187-1.972-.085-1.197-.687-1.06-2.425-.434-.85.328-4.911 1.471-4.967 1.887 1.96 1.121 1.459 1.712 1.476 3.142.102.325 1.022.092 2.607-.452zm-25.428-1.907c0-.54-5.212-5.645-5.764-5.645-.862 0-2.094 1.338-1.91 2.072.083.333 4.971 5.253 5.582 5.617.854.5 2.037-1.229 2.092-2.044zm2.996-3.182c.225-.177.622-.633.885-1.015.562-.817.521-1.272-.15-1.703-.246-.157-1.338-1.146-2.428-2.197-1.091-1.051-2.122-1.963-2.294-2.027-.899-.119-2.523 1.32-2.354 2.057.096.385 4.091 4.319 4.982 4.907.577.38.854.375 1.359-.022zm7.058-7.604c0-.145-.908-.729-2.359-1.518-4.439-2.411-4.514-2.428-5.902-1.298-.476.387-.864.829-.864.981 0 .155.962 1.186 2.187 2.347 2.545 2.408 3.172 2.928 3.526 2.928.735-.539 3.298-2.772 3.412-3.44zm6.213-2.267c.548-.656 1.163-2.93.871-3.388-.269-.269-.96-.228-1.293.073-.342.31-1.186 3.167-1.056 3.505.131.345 1.002.184 1.478-.19zm-48.489 96.802c.419-.057 1.242-.57 2.439-1.597 1.278-1.098 5.328-3.542 5.768-4.525.196-.558.054-1.36-.368-1.421-.322-.046-.39.199-3.083 2.141-1.817 1.309-5.008 3.649-5.488 4.146-.209.531.262 1.2.732 1.256zm-.378 15.644c2.772-1.924 5.018-3.917 8.633-6.144.28-.368.321-.916.151-1.364-.21-.554-.501-.335-1.596.425-2.663 1.795-5.403 3.908-7.698 5.476-.736.498-1.356.774-1.202 1.055.208.372 1.344.484 1.712.552zm2.696 1.18c1.822-1.491 4.005-2.916 5.952-4.358.272-.272.344-1.189.064-1.565-.222-.297-.038-.242-.577.064-.788.447-5.504 3.662-6.382 4.389-.512.424-.939.635-.812.783.589.379 1.214.613 1.755.687zm2.291 1.155c.377-.252 3.619-2.324 3.879-2.6.299-.315.212-1.725-.077-1.836-.82.651-5.141 3.284-5.151 3.708.441.396 1.023.76 1.349.728zm3.466.289c.498-.456.597-.534.608-1.045.019-.926-.21-.887-1.53.057-.921.596-1.483 1.015-1.317 1.373.654 1.025 1.583.216 2.239-.385zm.358 1.891c.258-.095.261-.229.224-.552-.042-.36-.095-.345-.486-.345-1.05.039-.103.99.262.897zm-12.62-5.182c.476-1.573 1.144-2.817 2.235-3.996 4.36-3.863 3.027-8.619.274-12.491 3.562-4.987 7.119-10.27 10.18-15.111l-.011-7.871.412.043c-.143 17.176.642 45.338.642 45.338l3.542 2.702-.478.236c.583-.091-10.311-6.912-16.796-8.85zm3.202-1.961c3.014-2.276 5.948-4.065 8.94-6.489.317-.262.505-.277.513-.872.019-1.133-.209-1.145-1.325-.345-.495.354-2.31 1.622-4.031 2.784-1.796 1.212-3.46 2.291-3.794 2.678-1.683 1.951-2.305 2.87-2.132 3.149.18.292.522-.024 1.829-.905zm3.288-5.516c1.55-1.02 5.257-3.594 5.594-3.911.588-.552.692-1.433.161-1.534-.26-.049-3.129 1.864-5.554 3.703-1.18.895-1.443 1.102-1.443 1.945 0 .511.308.413 1.242-.203zm1.545-4.008c4.752-3.378 4.629-3.092 4.527-4.35-.035-.425-.13-.618-.318-.654-.147-.028-.989.575-1.934 1.241-.945.665-2.072 1.558-2.637 1.951-1.652 1.145-2.198 1.454-2.198 2.11 0 .648.174 1.056.461 1.056.107 0 1.052-.609 2.099-1.354zm-.682-2.616c2.189-1.545 4.601-3.289 4.929-3.704.399-.503.327-1.597-.182-1.597-2.196 1.468-4.84 3.396-6.697 4.92-.24.212-.546.414-.641.691-.018.358.43.83.61.844.362.002.918-.403 1.981-1.154zm-1.425-5.231c1.671-1.132 3.191-2.477 4.851-3.619 1.247-.853 1.599-1.117 1.525-2.19-.043-.619-.586-.263-2.697 1.144-1.549 1.031-2.26 1.439-2.809 2.144-.385.891-1.655 1.726-1.722 2.744-.003.378.249.199.852-.223zm5.131-6.804c1.284-.85 1.404-.869 1.265-1.999-.175-1.413-.319-1.329-1.545.544-.806 1.232-1.083 1.588-.961 1.817.209.391.441.168 1.241-.362zm-4.674-10.399c-.136-.629-.33-.493-.975.075-1.189 1.043-1.376 1.799-.635 2.195.392.21.697.186.931-.329.502-1.111.645-1.503.679-1.941zm-6.659 9.881c-.153-.574-.855-1.356-1.389-1.633-.53-.274-.85-.222-1.358.421-.465.592-.249.945.452 1.831.513.649.722.855 1.126.855.49-.191 1.271-.851 1.169-1.474zm-25.771 24.776c-.34-.656-1.061-1.348-1.391-1.232-.349.122-.691.624-.696.94.146.644.689 1.079 1.106 1.092.789-.112 1.267-.249.981-.8zm3.141-.999c-.679-.716-2.02-2.295-2.239-2.295-.344 0-1.164.86-1.164 1.213 0 .418 1.222 2.128 1.629 2.265 1.027-.096 2.914.02 1.774-1.183zm3.879.201c-.071-.346-3.891-4.407-4.173-4.407-.365 0-1.084.799-1.084 1.168 0 .296 1.234 1.906 2.374 3.097.568.593.619.678 1.313.569.758-.118 1.747.046 1.57-.427zm6.752-.907c0-.82-.43-1.269-2.155-3.136-.626-.677-1.683-1.854-2.349-2.615-1.29-1.472-1.842-1.923-2.356-1.924-.405-.002-1.027.657-1.027 1.076 0 .269 3.174 3.91 6.051 7 .637.685.923.885 1.536.559.351-.24.3-.646.3-.96zm-4.971-9.752c-.647.53-.887.747-.89 1.101-.004.54 5.476 6.561 5.964 6.561.288 0 .243-.039.413-.687.339-1.965-.194-2.542-1.614-3.838-.953-.869-2.873-3.861-3.873-3.137zm9.664-4.029c-1.529-1.829-2.376-2.67-2.687-2.67-.212 0-.531.204-.874.584-.571.541-.517.522-.155 1.166.189.334.715.992 1.17 1.462.843.87 1.274 1.147 1.681.729.359-.369 1.247-.805.865-1.271zm-.799-4.564c-.372-.004-.999.668-.999 1.034 0 .309 1.241 1.865 2.107 2.64.701.628 1.03.796 1.517.383.364-.529.282-1.013.054-1.416-.618-.706-1.973-2.61-2.679-2.641zm4.3.448c-.009-.533-1.574-2.569-2.071-2.772-.411 0-1.287.96-1.287 1.403 0 .237.336.766.904 1.425 1.118 1.297 1.404 1.582 1.647 1.38.397-.332.817-.913.807-1.436zm1.767-2.292c.103-.447-.174-.907-.799-1.693-.782-.981-1.166-1.047-1.902-.287-.272.28-.399.526-.399.662 0 .374 1.64 2.458 1.944 2.458.704-.087.919-.599 1.156-1.14zm-2.885 5.161c-.147.673-.43 1.112-1.078 1.424-5.007 3.608-4.846 9.486-5.915 14.913-8.106-.081-20.922 3.245-20.843 3.419l43.083-43.463s.534.133.208.514c-3.488 2.506-3.27 7.38-5.564 9.821-3.831 4.63-7.392 8.647-9.891 13.372zm-23.385 17.753c.071-.492-.38-.625-.776-.23-.387.387-.234.69.317.626.289-.034.425-.15.459-.396zm13.279-1.827c.158-.413-.22-.8-2.529-3.362-2.337-2.594-2.868-3.201-3.271-3.201-.344 0-1.182.849-1.182 1.197 0 .159.368.685.818 1.168.449.483 1.301 1.431 1.895 2.107 1.021 1.165 1.505 1.727 1.895 1.999.38.266.669.252 1.28.252.839 0 1.021.028 1.094-.16zm3.993-8.156c.16-.51.386-.961.387-1.152.003-.357-2.948-3.365-3.448-3.688-.597-.386-1.721.875-1.441 1.612.077.203.956 1.235 1.952 2.294 1.265 1.346 1.899 1.98 2.105 1.948.21-.032.238-.349.445-1.014zm1.235-3.161c.215-.317.391-.736.391-.931 0-.221-.493-.82-1.2-1.613-1.315-1.48-1.654-1.651-2.374-.96-.718.687-.475 1.005.787 2.434 1.579 1.79 1.758 2.007 2.396 1.07zm11.281-14.128c.492-.584.503-.873.053-1.406-.19-.227-.469-.557-.617-.735-.405-.485-.941-.405-1.493.225-.264.3-.439.604-.437.707 0 .103.283.519.629.923.78.908 1.261 1.006 1.865.286zm1.73-2.23c.334-.51.184-1.069-.441-1.64-.591-.54-.886-.563-1.301-.101-.555.617-.466.824.13 1.484.676.747 1.217.859 1.612.257zm1.385-1.85c.461-.462.454-.857.039-1.383-.387-.493-.789-.626-1.196-.408-.709.38-.635 1.032.064 1.768.424.447.623.494 1.093.023zm-32.965 92.709c8.824.988 18.303 1.679 35.013-.918l.084-5.671c-5.211 4.064-12.054 1.279-12.448-3.4-.047-4.17 1.067-8.98 2.006-12.409.698-2.549.899-3.533.244-4.029-1.441-.813-3.999-.915-4.654-2.61-.314-.894-.343-1.85.115-1.168.21.313 1.874 1.086 3.174 1.377 2.262.506 2.627.674 2.884 1.604.161.586-.212 2.611-.807 4.439-.427 1.309-.925 3.409-.925 3.816 0 .442.346.515.735.391.168-.054.963-.849 1.464-1.296 2.173-1.94 2.805-1.882.948.015-.739.755-1.757 1.796-1.757 1.875 0 .402.378.356 1.211.054 1.286-.464 4.3-.408 5.641.266 1.668.838 1.737.801 1.7-1.738-.3-4.744-1.073-10.359-2.618-14.739-2.359-6.681-7.255-12.881-14.488-12.601-8.818.459-14.14 3.97-20.139 8.177 3.623 8.037-1.613 14.195-3.509 15.007-.184.079 2.374 8.171 3.466 12.282.992 3.734 2.66 11.276 2.66 11.276zm37.538-193.873c-.206-.529-5.111-16.513-6.483-23.199-13.261-.771-23.067-1.872-34.743 1.443 0 0-.254 4.503-.132 4.722.119.556.521.543.849.361 5.394-2.963 11.239-1.629 11.644 5.68.154 2.79-.783 4.757-.953 7.405-.15 2.311-1.969 5.393-.866 7.149.141.216.919.641 1.98 1.096 1.979.848 2.756 1.626 2.901 2.921.215.893-.331 1.493-.496.576-.104-.583-.207-1.096-2.651-1.932-2.382-.816-3.026-1.762-3.262-2.26-.328-.687-.266-1.174.04-2.269.653-2.33 1.296-4.706 1.236-5.828-.022-.404-.469-.208-1.041.279-.726.617-3.833 2.663-3.92 2.576-.041-.041.512-.865 1.383-1.697 1.055-1.009 2.368-2.231 2.368-2.455 0-.397-.154-.121-1.178.183-1.784.491-3.838.421-5.219-.19-1.172-.515-1.994-.814-2.168-.532-.434 7.118.624 14.456 3.611 20.181 2.674 5.201 8.236 11.714 16.598 10.253 8.64-1.51 17.046-8.46 16.745-8.468-3.225-7.301.45-12.738 3.757-15.995zm-68.493 194.346c-3.829-3.834-13.48-8.004-20.112-9.919-.531-.115-1.054-.367-1.058.261l-.078 13.16-11.854 11.108.209 5.421 25.15-.122 16.693-24.477s.806-.143.894-.293c-3.064-12.997-7.679-23.377-10.61-28.581.049.064-4.215 3.445-7.966-.757-2.103-2.36-.812-6.502 1.185-8.02-1.686-1.239-5.175-3.485-7.463-4.133-.476-.117-1.185.846-1.418 1.717-.418 1.416-1.112 2.682-1.579 4.109-.514 1.193-1.007 1.373-1.773 1.038-1.192-.354-1.508-.477-1.508-.477l.039 15.47c9.149 3.173 18.567 11.308 21.249 24.495zm38.03-165.318 2.711-2.944c-4.289-.527-8.785-1.293-14.045-2.945 3.652 2.716 7.478 4.397 11.334 5.889zm-14.898-8.282c4.781 1.594 10.83 5.31 18.383 3.911-6.885-2.731-12.112-9.113-14.341-22.105-.488 2.522-1.494 7.766-3.08 8.333-2.227-8.622-11.186-3.607-7.594 3.425-9.078 6.237-19.994 9.757-29.895 14.568 0 0-1.489 4.574-8.906 10.839-1.4-7.346.269-18.244-.6-25.625l-11.627-10.98c.18 2.091.098 3.388.005 5.837.319.427.759.65 1.208.917.75 42.316-.26 84.146-.251 122.581-.114 23.554.509 48.096.163 70.335l-.433.804.017 5.316 11.872-11.303s-.552-8.022.07-14.151c7.492 1.508 14.48 5.028 20.744 8.89.789.22-3.843-15.399-20.692-22.336 0 0-.023-4.88-.023-15.484 0-10.23-.159-11.313-.386-11.479-.683.741-9.304 3.646-9.742 3.155.232.077-2.431-18.109-.13-20.871l8.249.174c2.359 1.904 1.411-.415 2.781-.797.821-.221 4.636 1.265 4.636 1.265 15.72-18.556 14.149-49.073 2.867-66.244-2.889 2.347-5.962 5.528-8.859 6.894-.036-.1-.053-9.468-.053-9.468 15.02-9.641 31.358-37.568 30.317-37.663 0 0 4.651 4.53 6.456 7.091l-14.828 21.475c3.396 6.839 6.833 13.041 9.062 19.054.302.814 1.23.791 1.463 1.647.201.731-.693 1.747-.569 2.554 3.129 11.968 3.839 24.666.752 36.17-.652 2.59.541 4.689 2.136 6.637.131.169-1.487-1.4-1.631-1.487-.555-.333-1.478.835-1.673 2.309.127.903.617 1.062 1.267 1.794 1.144.951 5.69 5.428 7.693 7.472 1.779 1.816 2.238 1.898 3.437.61.337-.315.688-.745 1.016-1.012.062.099.504-.362.656-.51l26.776-26.136c3.111-3.036-26.738 27.424-26.738 27.424s-14.474 14.209-18.023 17.712c-3.668 3.618-4.164 4.41-4.31 4.679-.262.48 1.182.467 1.839.369.053-.008-.552.139-1.163.135-3.769-.843-5.053 3.324-7.428 4.163-6.288 4.465-2.061 11.634 3.945 9.267l1.463-.703c3.641 6.76 8.892 19.078 11.358 29.785l-.993.459-15.84 23.759h89.824c-6.453-6.422-11.941-14.309-17.531-20.211-8.957 2.679-36.043 2.133-35.616.968 0 0-4.102-16.604-6.42-24.759 7.364-6.308 6.609-16.256-4.08-20.723 7.781-6.144 15.615-8.226 23.253-8.725 2.481 6.301 8.304 6.697 11.054.928.019-.064 10.327 3.169 14.129 6.669-5.636-.583-11.203-1.705-16.843-1.974 4.965 1.96 10.019 7.079 11.639 12.934.793 2.091 2.004 8.994 2.326 9.019 0 0 1.881-7.973 3.339-7.534 3.72 7.763 10.134 1.924 7.432-4.261 9.475-4.522 20.135-9.573 28.852-13.765 2.543-3.835 8.798-11.12 9.208-11.152 0 0 11.506-65.908 11.503-87.94-.382-26.488.53-55.973-.611-80.748l-.011-7.121-24.299.01-17.346 25.508s-.13.405-.127.58c2.367 10.292 5.404 19.051 10.171 28.56 6.577-4.968 12.119 3.212 7.186 7.962-.925.892-.677 1.117.249 1.737.913.612 7.155 3.752 7.446 3.752 1.129-1.676 1.456-4.153 2.217-6.045.191-.721.736-.81 1.825-.682 1.398.164 1.39.746 1.344-8.15l-.04-7.64c-8.433-3.884-19.599-13.759-20.12-24.029 4.877 3.548 16.08 8.706 19.071 9.167 1.315.367 1.112-1.923 1.154-2.842.356.238.484 3.776.484 3.776-4.95-1.496-7.543-1.19-19.895-8.348 2.119 10.1 12.234 18.067 19.569 21.7 0 0 .306 4.798.29 10.172-.046 16.389.118 17.111.118 17.111 0-.008 4.035-1.029 5.157-1.585 2.001-1.602 5.207-.373 5.651.807.651 6.185.025 11.92-.113 17.827-3.418.244-5.291.963-6.977 1.032-1.096-.146-1.761-.153-2.323-.777-1.632-3.526-1.527-1.29-1.725 1.358-.15.784-4.238-.58-4.644-.816-17.651 20.318-16.146 43.709-4.159 65.372 1.979-1.336 5.39-3.886 8.799-5.561.082 2.756.128 8.429.128 8.429-13.817 10.138-30.365 36.996-29.805 37.07l-5.614-6.702s3.534-5.618 4.779-7.103c.145-.17.238-1.913.238-1.913l8.58-12.404c-3.879-6.871-6.529-12.746-9.288-19.503-.157-.565-.831-2.994-.682-3.224-5.723-25.857.478-38.719.021-39.698 0 0-.076-.518-.198-.618-.187-.156.048-.306.26-.675.407-.716 1.058-2.185.835-2.62-.164-.322-4.804-4.963-8.783-8.784-2.093-2.01-2.01-2.24-3.092-1.142-.401.407-1.388 1.565-1.388 1.565-14.375 13.301-25.785 25.413-40.213 39.573l-.693-.63c20.989-20.86 42.17-41.513 62.955-62.576l-3.657.062c.104-.264.255-.511.469-.583 1.96.001 3.975-.593 5.432-1.42 2.965-2.202 7.22-5.151 7.553-8.055-.212-5.591-4.928-6.401-8.333-3.667-4.733-8.501-8.48-18.729-10.486-28.276-.096-.474-.763-1.292-.863-1.833 1.014-3.171 17.088-25.073 17.088-25.073h-90.265l17.18 20.456c0-.817 24.481-3.707 35.695-.293l6.828 24.256c-6.204 5.998-8.036 15.86 3.372 20.994.221.481-1.081 1.272-1.081 1.272.181-.295.496-.601.368-.873-3.075-1.344-6.368-4.748-6.368-4.748-6.863 5.362-13.278 8.347-19.563 8.612 0 0 3.318 2.25 3.96 4.721 0 0-.308-.038-.39-.137-.68-.832-2.246-3.525-3.565-4.318-2.238-.537-3.56-.146-5.327 1.071l-2.389 2.308c-5.485-1.668-11.574-4.396-14.931-8.537zm-.917 59.367 2.503-2.469c.286-1.833.782-4.163 2.898-6.701 2.345-2.816 4.939-5.463 6.849-7.969 2.292-3.012 3.537-5.737 2.934-7 3.418-.615 6.557-3.632 6.657-9.107.04-2.876 1.428-7.072 1.533-7.013 0 0 23.858-.812 40.27-16.458 0 0 1.151.25.88.458-6.218 6.228-12.831 10.82-20.649 13.744l-43.113 43.065zm4.773-4.941c.644-.644.789-.856.425-1.158-.556-.462-1.627.491-1.627 1.447 0 .609.483.43 1.202-.289zm2.232-2.194c.512-.491.493-.848.07-1.272-.584-.583-1.431-.225-1.716.715-.286.947.84 1.328 1.646.557zm1.964-1.987c.265-.301.48-.609.48-.684 0-.334-.823-1.09-1.185-1.09-.462 0-1.29.777-1.29 1.212 0 .363.831 1.108 1.234 1.108.155 0 .497-.246.761-.546zm1.852-3.7c-.586-.494-.972-.498-1.456-.014-.563.562-.504 1.18.167 1.77.509.532.729.48 1.419.055.578-.592.682-1.144-.13-1.811zm2.174-.33c.635-.534.543-.972-.148-1.664-.727-.728-1.29-.733-1.807.038-.195.289-.23.579-.23.662 0 .281 1.2 1.351 1.517 1.351.173 0 .407-.167.668-.387zm2.09-2.064c.54-.563.47-.965-.303-1.761-.65-.67-1.103-.721-1.675-.19-.593.549-.47 1.129.198 1.797.677.676 1.18.781 1.78.154zm2.368-2.397c.396-.419.289-.385.009-.839-.434-.702-1.7-1.865-2.06-1.865-.452 0-.849.725-.844 1.438.003.709.349.998 1.249 1.707.597.47.415.513.874.243.255-.15.603-.457.772-.684zm1.879-1.718c.848-.965.687-1.151-1.359-3.308-.695-.731-.84-.815-1.335-.774-.472.04-.504.156-.747.653-.447.916-.116 1.381 1.172 2.751 1.326 1.41 1.521 1.53 2.269.678zm2.099-2.253c.328-.287.546-.622.546-.835 0-.376-1.658-2.215-2.249-2.554-.42-.239-.858-.104-1.401.364-.326.28-.319.348-.241.657.126.505 2.259 2.752 2.61 2.752.146 0 .435-.12.735-.384zm2.082-2.019c.351-.359.63-.794.63-.984 0-.406-1.787-2.473-2.339-2.763-.47-.246-.744-.143-1.208.508-.534.751-.325 1.093.735 2.315 1.005 1.158 1.328 1.509 1.515 1.509.062 0 .319-.232.667-.585zm1.964-2.114c.452-.275 1.041-.853.803-1.325-.255-.483-3.383-3.798-3.72-3.978-.659-.354-.64.155-.64 1.797v.852l1.44 1.41c2.099 2.055 1.629 1.554 2.117 1.244zm2.545-2.335c.249-.249.484-.668.481-.824-1.3-1.581-5.075-6.581-5.757-6.396-.071.019-.101.023-.149.166-.17.501-.238 1.537-.12 2.375 1.192 1.146 4.003 4.876 4.638 5.107.379.146.548-.069.907-.428zm2.029-2.129c.238-.229.433-.538.433-.688s-.419-.676-.866-1.202-1.321-1.591-1.943-2.367c-3.557-4.437-3.816-4.769-4.358-4.318-.358.296-.444 1.342-.265 1.732.309.675 4.195 5.361 5.448 6.57.796.769.954.845 1.551.273zm2.046-1.961c.305-.287.552-.667.552-.845 0-.177-.572-.9-1.174-1.605-.6-.706-1.6-1.909-2.222-2.675-1.598-1.964-1.61-2.035-2.801-2.157-1.805-.186-1.565.212.481 2.599.495.577 1.429 1.718 2.077 2.534 1.516 1.911 2.186 2.615 2.486 2.615.133 0 .298-.18.601-.466zm2.088-2.045c.925-.779.743-1.034-2.267-4.142-.987-1.019-1.057-1.181-1.824-1.181-.772 0-1.019.159-1.019.533 0 .229 3.921 4.888 4.206 5.003.386.154.431.185.904-.213zm2.192-2.246c.247-.264.449-.606.449-.759 0-.335-.851-1.416-1.648-2.115-.374-.328-.844-.667-1.146-.667-.512 0-1.39.29-1.54.534-.099.159 1.065 1.597 2.21 2.803.758.799 1.055.869 1.675.204zm1.926-1.91c.484-.484.481-.928-.016-1.578-.359-.47-.467-.517-1.206-.517-1.398 0-1.44.358-.356 1.517.806.861 1.027 1.129 1.578.578zm2.061-2.027c.545-.693.078-1.073-.815-.666-.212.097-.326.348-.369.464-.277.72.66.867 1.184.202zm-34.417 5.85c-1.991 1.258-5.336 3.641-7.61 5.234-.06.342-.103 1.212.002 1.89 1.288-.877 5.433-3.524 7.314-5.015.095-.559.232-1.546.294-2.109zm3.65-5.774c-.066-.339-.289-.125-.878.373-.772.653-7.316 5.501-9.055 6.721-.66.464-1.282.856-1.353 1.019-.067.154-.132 1.471.119 1.803 1.418-1.083 8.147-5.596 8.249-5.752.694-1.11 2.245-3.046 2.918-4.164zm-.75 14.614s-8.027 9.649-10.609 14.456c0 0-.017 5.499-.093 8.665l-.436.123s-.037-8.487-.147-17.698c-.27-23.016-.496-28.604-.496-28.604l-2.606-1.909-.109-.905s11.567 8.099 17.211 9.39c-4.124 6.462-7.937 8.955-2.715 16.482zm-9.526 11.54c.161-.388.053-.369-.28-.354-.243.01-.382.235-.393.482-.012.281.014.348.232.306.158-.03.364-.247.441-.434zm1.93-2.859c1.156-1.423 2.111-2.345 2.282-3.392-.74.123-4.998 3.108-5.066 3.424.042 1.58-.318 1.77.981 1.073.571-.309 1.033-.691 1.803-1.105zm.365-3.525c1.241-1.032 5.768-3.467 6.286-4.666.201-.551-.444-1.069-.546-1.018.084.073-6.481 4.005-8.875 6.068-.215.266-.159.72-.017 1.095.263.691.786.129 3.152-1.479zm-1.506-1.898c1.35-.9 4.542-3.107 5.337-3.659 1.351-.938 1.62-1.253 1.133-1.949-.195-.277-.458-.442-.905-.245-3.909 2.722-4.246 3.182-7.214 5.089-.2.536-.15 1.335.159 1.619.226.013.603-.264 1.49-.855zm-.016-2.937c3.562-2.576 5.483-3.879 5.609-4.163.14-.314.181-1.539-.051-1.67-1.326 1.008-4.868 3.177-7.288 5.14-.064.404-.138 1.309.058 1.505.491.203.638-.063 1.672-.812zm-.424-9.299c2.593-1.923 4.989-3.596 7.686-5.399 2.288-1.519 2.67-1.857 1.791-2.31-.301-.156-.909-.403-1.301-.272-3.037 2.453-6.414 4.8-9.634 7.184-.079.356 0 1.054-.02 1.369-.031.487.611.071 1.478-.572zm-.357-2.744c.214-.187 1.57-1.086 3.016-2.133 3.879-2.806 4.336-3.079 4.336-3.377 0-.815-1.119-.988-2.138-.159-1.87 1.523-6.332 4.297-6.343 4.69-.015.58-.113 1.151.056 1.406.215.322.529.052 1.073-.427zm1.12-3.801c3.946-2.753 3.789-2.624 3.789-3.119 0-.43-.383-.237-.988-.281-.569-.041-.58.118-1.661.936-2.303 1.74-3.146 2.216-3.387 2.73-.076.161-.129.8.01.94.279.278.599-.063 2.237-1.206zm.261-2.738c.772-.642 1.392-1.114 1.444-1.249.112-.293-.472-.816-.912-.816-.476 0-.846.246-2.026 1.262-1.041.896-1.253.708-1.171 1.214.048.294.053.941.15 1.059.253.304.792-.036 2.515-1.47zm-1.597-1.777c.833-.702 1.008-.846.4-1.454-.55-.551-1.192-.688-1.531-.35-.187.248-.005 1.7-.025 1.99-.034.466.586.293 1.156-.186zm17.869-15.145c0-.301 1.451-1.363 2.54-1.605 1.388-.308 3.13-.149 4.35.46 1.051.525 2.192 1.787.503 1.019-1.551-.69-4.875-.699-6.078-.142-.894.453-1.315.569-1.315.268zm-1.08-5.317c.113-.113 1.564.261 2.364.472 2.142.564 3.902.233 6.148-.415.526-.152.789.212.464.479-1.142.79-2.62 1.25-3.896 1.369-2.808.261-5.827-1.172-5.08-1.905zm-13.764-4.144c1.197-.586 2.66-8.802 2.189-10.216-1.467 2.24-3.111 3.245-5.453 2.857-3.834-.636-3.976-5.356-1.014-5.831 1.183-.189 2.632.591 2.869.408 1.264-.593 2.254-4.835 2.561-6.208.226-1.345.56-5.076.611-6.264.107-2.525.005-6.249.005-6.249l-18.66-22.324-40.871-.176s-.13 31.27-.033 47.267l11.573 11.105.147 17.952c12.93-5.643 25.446-11.57 37.699-17.98-1.421-1.698-1.38-5.976 1.21-7.594 3.814-2.383 6.983.771 7.167 3.253zm10.244 3.806c.087-1.013.838-1.845.892-2.874 0-.229.186-.495.794-.172.793.421 1.036.124 1.933-.289 1.592-.732 2.046-.715 3.271-.225.794.424 1.038.421 1.781.036 1.017-.672 2.097-.89 2.991-.576 1.335.465 1.799.721 2.561.353.382-.186.864-.881.947-.829.548.814.438 2.095.787 2.816.619 1.223.378 2.099-.352 1.497-1.535-1.264-2.729-1.295-4.93-.75-1.288.319-1.936.567-3.364.398-4.422-.525-4.722-.392-5.621.209-.873.583-1.543.643-1.69.406zm11.871-8.016c-1.276-.319-2.736-1.48-3.793-1.169-1.304.089-2.046-1.449-1.378-2.291 1.145-1.113 2.92.01 3.612.533 1.497 1.138 1.71 1.228 2.317 1.228 2.487-.049 2.011-2.373.809-3.22-.713-.748-.784-1.233-.633-1.415.246-.297.956-.047 1.734.772 1.489 1.398 1.523 4.185-.303 5.027-.908.507-1.505.75-2.365.535zm5.191-8.054c-1.157-.839-3.218-2.721-3.756-3.391-.909-1.133-1.273-1.857-1.16-2.767.09-.708.197-1.129-.258-1.363-.483-.249-.947-1.319-.854-1.88.026-.156.571-.063.902.349.417.068.331-.18.784-.481 4.73-3.174 8.524-2.562 13.011-.381 1.302.626 4.7 3.203 2.88 2.366-.108-.049-1.301-.566-2.504-1.173-3.892-1.862-8.226-2.99-11.755-.596-.608.425-.975.752-.503.752 1.985-.386 3.947-1.212 5.984-1.083 3.04.04 4.877 1.539 7.155 2.575 2.475 1.105 2.952 1.483 2.05 2.395-.254.282-.458.273-1.654.182-1.283-.098-1.39-.062-2.112.401-1.894 1.213-4.354 1.876-6.54 1.692-2.574-.216-2.849-.422-2.903-.052-.033.237.52.647 1.282 1.345.579.53 1.357 1.31 1.425 1.43.215.379-.766.192-1.474-.32zm-.723-4.12c-.004-.304-.572-1.629-.911-1.971-.324-.329-.58-.201-1.271.287-.521.366-.575.655-.098 1.08 1.018.904 2.29 1.131 2.28.604zm3.878.183c1.038-.503 2.096-2.286 1.615-2.865-.285-.344-.534-.017-1.078.949-.262.463-.71 1.05-.904 1.184-.849.595-1.969.04-2.44-1.272-.285-.792-.585-1.296-.916-.995-.599.543.079 2.501 1.27 3.008.704.299 1.723.344 2.453-.009zm3.231-.293c1.055-.326 1.558-.8 1.469-1.259-.074-.381-.833-.83-1.347-.83-.232 0-.683-.01-.846.206-.359.477-.928 1.926-.953 2.083.123.319.48.17 1.677-.2zm3.643-7.854c-5.256-2.01-9.408-2.816-14.405-.685-1.601.695-2.515.768-2.595.201-.067-.478 1.085-1.895 2.331-2.549 3.489-1.595 7.677-1.746 11.188-.061 1.312.642 4.993 3.259 4.993 3.497 0 .261-.332.058-1.512-.403zm61.509 58.885c1.253-.661 1.828-1.958 1.061-2.724-.224-.225-.538-.224-.8-.224-.437 0-3.726.881-4.363 1.222-.416.223-.264.612.132.971.184.166.32.521.348.909.037.499-.062.951.269.873.67-.154 1.729-.301 3.353-1.027zm-4.673 1.203c.358-.649.206-1.539-.731-2.085-.489-.253-.874-.117-1.267.443-.931 1.698 1.38 2.427 1.998 1.642zm-4.691.797c.201-2.17.104-8.579.104-8.579s-1.168.986-1.903 1.02c.27-.937.562-1.281.981-2.2.241-.973.374-2.694.306-3.678-.072-1.077-.832-1.106-.049-3.043.4-.989.472-2.031-.047-3.255-.224-.605-.295-.953.287-1.719.541-.713.327-1.069.317-2.554-.014-2.059-.002-2.394-.625-.733-.931 1.375-1.358 1.112-2.777.946-1.371 3.075-2.975 6.298-3.039 8.947-.04 1.662-.062 1.92.975 5.414.386 1.301.519 1.734.541 3.306.022 1.501.133 2.029.362 2.858.407 1.475 2.059 3.914 4.567 3.27zm-47.714 138.259.004-3.091s-4.943 1.525-7.452.588c-2.584-.699-2.575-.827-2.524-.548.09.5 2.008 1.512 3.782 1.928 1.25.292 3.749-.003 4.976-.367.696-.206.77-.012.492.201-3.032 2.37-6.877 1.279-9.292-.688-1.29-1.264-2.154-1.271-1.458.427 3.318 6.722 11.554 2.756 11.472 1.55zm-3.338-4.593 1.125.021s-.345-1.959-.929-2.531c-1.19-1.168-2.876-.99-3.945.158-.489.527-.863 2.386-.863 2.386l.905.019c.334-.868 1.76-4.942 3.707-.053zm-4.499-2.963c-.639-.175-2.04.462-2.724.906-.252.279-.254.319.046.715.656.863 1.657 1.276 1.728.953.291-.455 1.016-2.398.95-2.574zm7.429 2.179c.148-.603-.42-1.633-1.306-1.993-.382-.096-.761-.172-.65.249.126.473.39 1.248.638 1.764.179.389.294.585.671.438.297-.099.546-.192.647-.458zm48.248-40.974.01-5.236c-2.644 2.68-6.098 7.176-7.145 8.859zm-80.748-144.277c1.12-.48 1.943-1.944 1.66-2.683-.177-.459-.642-.091-1.112.589-.757 1.093-.949 1.212-1.614 1.212-.708 0-.99-.182-1.475-1.134-.334-.901-.571-1.042-.883-.649-.147.177-.135.431.055 1.087.498 1.715 1.784 2.258 3.369 1.578zm3.053-.542c1.242-.427 1.496-.563 1.436-.977-.061-.433-1.049-1.011-1.609-.904-.405.245-1.455 1.906-1.395 2.203.144.231.56.025 1.568-.322zm-7.166-.724c-.043-.383-.096-.759-.201-.886-.399-.48-1.24-.141-1.24.469 0 .464.66.989 1.194.989.377 0 .323.092.247-.572zm7.021-3.13c1.766.666 2.663.74 1.701-.163-1.321-1.466-7.378-3.14-10.629-.748-.23.33-.182 1.594.07 1.524 2.645-1.784 6.03-1.688 8.858-.613zm-6.049-5.055c-1.485.494-2.88 1.271-3.058 1.994-.288 1.165.233 1.177 2.175.566 2.501-.819 5.299-.448 7.43.783 1.619 1.178 2.099.788 1.825-.201-.905-3.273-5.964-3.863-8.372-3.142z" fill="#131f67"/><path d="m191.733 34.893-10.922 10.821.153 12.806c1.097 2.012-16.856-5.738-19.689-8.084.329 8.554 12.004 18.301 19.597 21.868l.207 27.164s3.055-1.185 4.737-1.77c1.246-.431 4.093-.391 5.032-.841 1.489-18.621 2.761-42.847.885-61.964zm-60.743 13.403c-1.064.018-1.701.306-1.687.991-.32-.054 4.035 15.989 6.018 22.688-3.859 3.899-7.887 10.672-2.122 16.941 1.23 1.338 3.483 2.472 5.625 3.755.956.927-11.719 9.098-23.001 9.103-3.618-7.93-8.669-3.545-11.456-.778-2.177-.192-10.301-5.032-14.457-7.802-.067-.045-.022-1.192-.014-1.401.289 1.89 16.282 5.967 17.004 4.074-.462 0-7.175-4.54-9.102-9.019-2.459-5.053-4.431-11.992-4.431-11.992-.896 2.566-.59 6.122-3.055 7.395-.74-8.352-12.666-4.092-6.728 4.074-3.337.979-6.189 2.706-9.426 4.142 6.774 9.217 16.098 15.348 25.946 18.963-1.299 2.767-8.968 8.994-2.668 16.336.284.226-6.02 7.103-9.121 12.481-2.334 4.048-1.63 7.155-1.363 7.254 8.541-9.788 13.341-18.067 13.341-18.067-.073 1.138 10.137.523 9.967-8.671.225-2.481.674-5.171 1.628-7.472 15.579.733 28.975-4.818 40.297-16.473 0 0 2.306.658 3.76.885.73.113 1.763-.362 1.933-.411.656-.034 1.603-.161 2.484-.658 1.21-.679 2.43-1.848 3.723-2.895 1.694-1.372 3.386-2.695 3.988-4.108.674-1.572.147-3.466-.43-5.143-3.635-4.28-6.046.322-7.657-.275-5.591-7.602-10.254-29.104-11.015-29.272-3.125-.63-13.808-4.716-17.981-4.645zm-38.378 14.674c-.416.028-1.915 6.713-3.244 6.661-5.622-3.622-5.744 3.874-.908 3.533 4.085-.288 6.368-6.88 4.172-10.189-.006-.003-.013-.005-.02-.005zm-60.104 12.717c.186 40.645.917 81.273 1.87 121.906 3.674-.908 6.345-1.6 9.947-.025.339-11.551-.677-40.7-.435-68.926 13.73-10.677 23.374-22.454 30.147-37.845l-20.962 9.817s-6.852 9.818-9.039 10.449c-.311-1.398-.661-18.02-.378-25.148zm46.581 25.139-4.119 5.959s.096 20.468.334 30.331c.17 1.963 1.955 3.765.526 5.523.871 0 4.677 26.556 1.059 37.321-.648 1.927-.041 3.29.972 3.731l7.849 7.965c2.477.823 4.886.501 6.965 0 7.431-6.796 17.985-18.706 17.985-18.706l-27.904-26.376c-2.393-6.397-3.667-45.748-3.667-45.748zm101.69 85.36c-20.202 15.102-28.887 36.593-29.02 36.448.072.25-.1 1.132 1.165.434 5.228-2.83 18.672-8.936 18.672-8.936 3.192-3.836 5.649-7.539 9.303-11.189 0 0 .396 16.653.073 25.008 3.298 2.452 11.127 10.111 11.127 10.111-.001-.001 2.162-118.322-2.504-121.324-4.53.877-6.804 2.532-8.494-2.722-1.196 24.09-.013 48.264-.322 72.17zm-43.873-66.592c-4.873 3.982-21.626 20.416-21.592 20.586 4.444 7.451 21.991 22.376 30.404 30.721l1.217 42.511c1.238-1.664 2.138-3.231 3.48-4.897 0 0-.219-21.524-.739-31.616-.153-2.983-.838-5.334-.623-5.605-2.368-12.249-3.349-25.779.001-38.911-7.945-6.844-10.471-11.394-12.148-12.789zm1.304 48.552c-.012.005-.024.014-.037.03-4.114 5.857-11.979 18.576-12.544 18.545-.167-.381-8.128-.025-9.633 4.983-1.263 3.729-1.359 7.161-2.281 11.007-15.974-.522-27.668 4.528-39.982 15.878-3.502.138-6.569.424-8.725 1.222-1.805.668-2.775 1.873-3.886 2.679-3.126 2.264-3.972 4.198-3.819 6.563.279 4.287 7.853 4.897 8.241 1.876.385 0 7.414 16.056 8.097 18.792 1.657 4.422 3.434 12.699 3.644 12.711 2.829.183 18.716 4.637 18.773 3.022 1.497-.643-5.524-23.618-5.524-23.618 12.272-10.296-1.257-21.298-4.437-20.896 6.988-4.974 15.005-8.324 23.849-8.765 1.369 4.914 7.713 7.438 10.909.908 0 0 13.744 4.92 13.688 6.55-5.659-.854-10.313-1.299-15.981-1.842 10.86 5.893 11.192 13.661 13.409 21.393.301-1.369 3.166-7.352 3.166-7.352 3.683 8.167 10.686 2.5 7.797-4.094l8.714-4.04c1.004-.51-13.026-16.292-25.787-18.527.644-1.175.897-2.281 1.563-3.238 3.198-3.14 5.679-7.735.787-13.234 3.229-4.512 10.717-15.404 10.242-15.599 0 0 .145-5.09-.243-4.954zm-104.918 50.199c-.122 0-.348 37.767-.083 56.515-.314.776-.517 4.925-.517 4.925l11.619-10.914.348-14.109c3.035-.725 21.945 8.874 20.432 8.821 1.443-.608-8.73-19.818-20.596-21.948-.221-10.884-.332-23.205-.643-26.517-4.121.788-10.56 3.252-10.56 3.227zm103.164 22.719c-3.254.97-4.61 7.81-3.557 11.127.195.614.071.746.589.144 1.268-1.86.868-5.566 3.109-7.524 5.915 1.783 5.328-5.909-.141-3.747z" fill="#e2cf00"/><path d="m197.896 301.91v-3.48h3.132v-18.773s.017-4.518.223-5.087c2.414-8.23 15.787-7.658 16.452-.315.281 1.249.204 5.402.204 5.402h-3.539s-.025-1.324-.071-2.303c.458-7.795-9.006-6.176-9.475-.94-.196.939-.217 3.243-.217 3.243v18.773h3.654v3.48zm-136.717-16.301 15.382-23.236c18.366 6.136 37.112 6.247 56.059 3.218l16.933 20.018h-6.923l-10.657-15.22c-3.863.893-7.877 1.283-11.877 1.832l4.988 13.388h-5.429l-3.917-13.243c-9.192.356-15.454-.462-21.837-1.209l-2.298 14.452h-5.525l3.729-14.923c-4.342-.813-8.723-1.511-12.361-2.677l-11.293 17.6zm17.615-13.674 6.387 1.729-3.118 11.945h-11.684zm16.493 13.674 1.805-10.552c4.289.845 9.885 1.015 15.786.956l2.773 9.596zm30.227-9.783 5.038-1.335 7.551 11.118h-9.178zm39.873 7.933c-5.324-10.705-12.595-20.019-20.499-28.88 7.717-8.113 14.224-17.49 20.473-28.151 6.2 10.76 13.351 20.73 21.23 28.569-8.668 8.621-15.305 18.005-21.204 28.462zm42.903-19.275c-2.565-4.192-5.633-8.383-9.403-12.575 3.442-3.868 6.441-8.013 9.141-12.346 3.111 4.778 6.32 8.923 9.618 12.495-3.487 3.897-6.411 8.168-9.356 12.426zm-156.264-55.811c24.571-28.577 21.302-58.576 7.728-82.774l2.887-2.968c15.696 25.794 19.037 62.469-9.89 90.892-.305-1.714-.725-5.15-.725-5.15zm97.982-32.049c3.53 6.008 5.687 12.09 9.418 18.132l-8.85 11.961zm-105.714 18.927c-.229-18.856.057-57.062.057-57.062l8.29-6.341c9.919 12.041 15.333 43.779-2.481 64.902-1.296-.944-4.822-.551-5.866-1.499zm117.706-3.805c-22.738-38.351-11.175-66.318 10.739-91.152.063 1.914.207 3.82.38 5.727-18.814 21.541-26.337 53.4-7.891 82.223zm-41.175-5.571 10.355-14.11s1.963-5.613 3.616-7.271l1.9-1.68c.632.61 1.837 1.383 1.8 2.084-.04.662-1.016 4.164-1.016 4.164l-12.111 17.709s-3.675-.644-4.544-.896zm55.08-68.487c.326-.37 4.437 1.345 4.437 1.345l.263 57.983-8.228 5.287c-2.389 1.213-21.046-36.84 3.528-64.615zm-86.692 24.425c3.746-5.104 7.693-9.522 11.325-14.21.939.323 3.404.378 3.404.378.262.14-.829 3.889-3.515 6.473-2.701 2.752-9.13 10.293-9.319 14.092-.057 1.171-2.687 2.513-2.687 2.513l-1.871-1.971c.573-2.889 1.469-5.104 2.663-7.275zm-23.369-22.241 8.245-10.697.823 28.421zm-28.178-63.032c7.849-8.356 14.788-17.946 21.343-27.857 5.981 9.84 12.616 19.901 20.916 28.059-7.557 8.288-14.72 18.232-20.97 28.09-6.001-9.599-12.711-19.534-21.289-28.292zm-31.326 2.506c3.736-3.619 6.841-7.625 9.372-11.985 2.902 4.403 5.641 8.94 9.521 12.544-3.58 3.838-4.728 5.058-9.609 12.22-2.755-4.463-5.615-8.864-9.284-12.779zm86.492-11.571-16.325-20.405h7.905l9.723 14.44 11.645-1.329-4.099-13.111h4.826l3.407 12.9c7.143.169 14.123.725 20.903 1.404l3.483-14.304h4.914l-4.46 14.968 13.151 3.452 11.716-18.42h5.822l-16.607 23.783c-21.71-6.521-39.146-5.774-56.004-3.378zm-87.304-10.425c-.253-1.803-.309-3.582.019-5.312h3.526s-.021 1.3.027 2.406c.003 6.986 8.363 6.087 9.599 1.686.434-1.555.368-4.042.368-4.042l.014-18.588h-3.583v-3.61h10.609v3.61h-3.308v18.538s-.026.08-.008.4c.062 1.119.098 3.801-.495 5.058-3.351 8.353-15.612 6.458-16.768-.146zm134.372 1.884 3.72-11.877 11.126.012-8.515 13.567zm-26.926-2.889-2.353-8.975h19.617l-2.533 10.034c-5.18-.874-9.912-1.041-14.731-1.059zm-23.517-8.975h7.83l3.05 9.288-4.516.511z" fill="#d40000"/><path d="m73.946 26.055 18.905 22.618c3.94-1.409 23.792-3.674 35.703-.957 2.074 8.13 4.271 16.34 6.592 23.742 0 0-.744.868-1.28 1.421-7.606 8.764-2.223 17.23 4.737 19.992-1.254 2.606-14.592 9.096-22.715 8.324.014-.08-2.493-5.956-7.577-3.97-1.737.679-2.453 1.986-3.799 3.262-4.852-1.463-11.258-4.652-14.588-8.16 6.231 3.102 12.367 4.773 18.529 3.951 0 0-.764-.637-1.63-1.034-.521-.24-1.776-.995-2.789-1.679-2.864-1.928-4.767-4.256-6.728-8.236-2.258-4.03-2.626-8.369-3.864-12.195-.654 1.961-.937 7.139-2.648 8.212-.442.291-.524.203-.855-.894-1.305-3.981-6.083-3.477-7.661-.641-.8 2.436-.684 3.506.326 5.77l-2.896 1.609-.007.479-1.783.851-.371-.252c-8.292 4.004-16.419 8.173-24.878 12.009 0 0-4.493 7.453-8.604 10.418l-.161-25.312-12.174-10.997-.059 6.023s.585.611.876.919c.167 42.374.026 84.059.052 122.529l.058 35.413-.744.044-.039 4.131.838.187-.117 5.833-.435.029-.063 3.692.663.104-.011 20.845-.657.846.014 5.95 12.712-12.08.285-13.736c10.027 1.893 20.508 9.097 20.508 9.097-1.765-11.506-13.961-20.988-20.966-22.882l.022-27.262s-5.208 2.172-7.78 2.504c-1.275.181-1.765-.012-2.373-.932-.444-.67-.455-1.281-.054-2.669.187-.646.181-.816-.053-1.469-.327-.914-.331-1.327-.009-2.943.336-.948.187-1.456-.165-2.334-.378-.941-.407-1.117-.246-1.658.425-1.428.45-1.658.227-2.296-.438-1.246-.452-2.145-.048-2.954 1.875-3.146 6.077-2.369 8.357-2.257 1.155 1.286 1.845 2.003 1.952.141.809-2.224 3.947.053 5.412.998 12.474-16.715 18.627-39.344 2.979-67.667l-8.705 6.966.02-8.719c11.543-7.418 24.529-24.283 30.153-37.582 1.87 2.191 4.017 4.345 6.042 6.554l-1.323 2.213-.391-.221c-3.581 6.832-13.305 19.755-13.463 19.623 3.601 6.671 6.806 13.407 9.531 20.222l.715-.32.637 2.054-1.259.376c4.26 13.971 4.399 26.906 1.194 38.836l.752 3.169s4.505 4.365 5.721 5.647c3.175 3.075 6.714 6.507 6.714 6.507l4.113-4.026-.238-.343 36.055-35.797 2.248 2.15c-22.083 22.238-60.438 60.637-60.438 60.637l-1.33.193c-.755.111-1.873.161-2.585.111-1.174-.081-1.318-.055-2.258.392-1.06.504-1.935 1.25-3.107 2.652-.537.642-.905.919-1.499 1.133-7.517 4.482-.721 13.509 5.673 8.757 4.687 8.954 8.654 19.382 10.843 29.697 0 .076-.842.363-.842.363l-16.848 24.984h6.481l.677-1.15h-4.858l15.501-22.389c19.721 5.372 37.82 6.136 56.189 2.939l15.99 19.45h-6.342l.903 1.15 8.207.13-18.794-22.178c-6.728 1.799-24.478 3.245-35.611 1.361-1.703-8.272-4.51-17.26-6.589-24.415 10.627-8.316 2.648-19.295-3.909-20.826-.318-.602 13.297-8.878 22.997-8.304 2.778 6.671 8.859 5.682 11.043.719 4.023 1.477 9.243 2.951 13.387 6.247-5.526-1.211-11.93-1.873-17.199-1.954 10.024 3.887 12.836 12.077 14.07 19.803.218 1.281.905 2.934.905 2.934.854-2.789 1.551-5.67 3.233-8.058.773 2.731 3.619 4.853 6.486 3.229 1.665-1.205 2.243-3.274 1.717-6.134-.147-.795-.221-1.231-.221-1.231l2.227-1.205.291.247s2.441-1.042 3.652-1.631c.19-.093-.223-.472-.223-.472l22.522-10.621c-.085-.047 5.678-7.915 8.986-10.95.099 9.428.076 13.302.07 24.496l1.271 1.242c1.129 1.101 3.589 3.385 9.13 8.477 1.249 1.146 2.121 1.714 2.121 1.714l-.17-164.865h-.186l-.003-3.173.26-.013.005-8.25-.234-.135-.001-2.599.309-.227.022-22.269-.358-.061-.021-5.341-12.554 13.276.095 12.52c-5.602-.724-12.533-4.309-17.305-7.202-1.54-.94-2.402-1.19-2.352-.652.669 7.454 11.461 18.854 19.753 21.837l.015 28.043c0 .015 1.958-.979 3.154-1.482l.179.5 2.673-1.108.218-.577 2.317-.292c.025.473.105.408.105.408 2.065.577 2.979 1.986 2.147 3.567-.291.531-.346 1.282-.107 1.479.896 1.412 1.13 2.657.048 3.992-.416.683-.413 1.069.016 1.794 1.117 2.254.482 2.104-.357 3.446-.191 1.015.921 1.675.555 2.629-.172.63-.835 1.368-1.286 1.702-.528.382-.962-.328-.962-.328s-1.673.718-2.876.947c-1.182.383-3.219 1.07-3.924-.523-.404-.911-.079-1.745-.107-2.764l-1.736-.189-.061 4.631c-.993.527-4.941-1.49-4.941-1.49-16.935 21.951-16.461 46.297-3.9 66.693.122.328 8.85-5.969 8.85-5.969s-.017 5.162.057 7.961c-11.094 9.175-21.812 21.523-29.474 36.744l-4.747-5.627c.818-.721.849-1.865.832-2.73l3.446-5.138.03-1.335 8.96-12.516c.141.749-9.245-16.805-10.495-22.519l.621-.168c-4.212-15.937-3.349-27.097-.307-40.095l-.867-.839-11.823-11.806c-.959.886-1.917 1.777-2.873 2.671-.145.136-.866.056-1.013.192-6.222 5.834-12.203 11.69-18.123 17.773-.153.158.104.806-.048.964-5.93 6.108-12.078 11.903-18.079 18.001l-2.192-2.09c21.252-21.244 61.284-60.704 61.284-60.704s.173-.312.45-.323c1.114-.043 2.11-.295 3.21-.614 1.319-.306 1.532-.404 2.088-.976.34-.351.897-.843 1.237-1.094.578-.425 1.906-1.539 3.978-3.344 1.267-1.102 2.048-2.708 2.02-4.142-.048-2.552-1.738-4.729-3.915-5.042-.904-.128-2.678.342-3.577.948-.685.463-1.007.673-1.301.467-4.337-8.795-8.558-19.857-10.347-28.984-.096-.576-.044-.746.425-1.47.292-.45.928-1.443 1.417-2.208 3.876-5.606 8.372-12.416 12.59-18.561.701-1.021 2.06-2.987 2.06-2.987l1.029-1.689h-6.687l-.826 1.315h5.505l-16.373 23.565c-30.174-9.863-54.899-3.611-55.492-3.476l-16.311-20.089h7.46l-.905-1.315zm14.684 0 .831 1.315h7.825l-.444-1.315zm13.05 1.315h4.824l-.277-1.315h-4.949zm8.634-1.315.306 1.315h19.615l.348-1.315zm23.983 1.315h4.914l.37-1.315h-4.942zm9.726-1.315-.421 1.315h11.143l.835-1.315zm47.651 9.094.175 3.653-8.034 8.466.009 11.821-2.338-.542-.093-12.217zm-2.252 7.786c.068 3.621-.518 7.092.439 10.784.472 1.817 1.428 3.947 1.547 6.095l-2.65-.063c-.335-1.084-.467-2.28-.864-3.615-.978-3.291-1.771-6.759-1.049-10.247zm-57.833 5.906c.096.18.413 1.709.707 3.128 1.39 7.789 3.254 13.569 5.156 19.45 2.418 7.411 5.995 16.741 9.474 21.064.461.54.687 1.154.521 1.421-.28.453-1.7-.179-2.652-1.183-.392-.411-1.14-1.564-1.692-2.597-1.216-2.275-2.85-5.585-3.012-6.109-.066-.212-.707-1.849-1.426-3.635-1.257-3.125-2.003-5.264-3.055-8.739-.833-2.756-1.602-5.641-2.532-8.545-1.522-4.75-2.402-8.528-3.248-12.896-.125-.641-.339-1.39-.26-1.543.48-.347 1.788-.208 2.019.184zm.85.296c-.15-.126 1.382-.15 1.872.261.145.145.405 1.059.628 2.233 1.384 7.166 3.469 14.57 5.891 21.586 1.937 5.605 4.051 11.002 6.685 15.371.826 1.456 1.944 3.012 3.369 4.693.798.942.863 1.075.648 1.333-.264.319-.725.279-1.615-.144-.829-.394-1.727-1.256-2.57-2.474-.29-.418-.727-1.044-.976-1.392-3.887-6.718-6.244-13.1-8.382-19.581-2.192-6.646-4.162-13.367-5.502-21.113-.015-.258-.03-.515-.048-.773zm4.882 1.01c.34.346.535 1.008.832 2.393 1.618 6.643 2.942 12.58 4.852 18.033 1.029 2.933 1.92 5.864 3.022 8.628 1.76 4.414 3.915 8.436 6.563 11.785.874 1.101 2.459 2.462 3.789 3.252.924.548 1.062.687 1.001 1.006-.08.284-.98.403-1.276.382-1.457-.249-3.61-1.378-4.224-2.215-4.454-4.812-7.639-12.689-9.959-19.152-3.986-11.125-7.202-25.023-6.591-24.591-.04-.323 1.596.048 1.991.479zm1.915.401c.144.003.306.028.488.078.833.227.941.343 1.14 1.261 1.425 6.353 2.933 11.956 4.616 17.285 1.714 5.423 3.475 10.537 6.221 15.902 2.013 3.915 4.562 6.62 7.303 7.989.788.394 1.49.772 1.562.841.072.071.051.276-.043.455-.145.271-.312.325-.982.314-1.244-.022-2.116-.408-3.451-1.305-3.5-2.415-6.561-7.881-7.913-10.982-1.647-3.783-3.161-7.715-4.529-12.001-2.451-7.692-3.979-12.781-5.099-19.271 0-.373.254-.574.687-.566zm52.463 10.383-.025 2.252c-8.815.585-17.852-3.142-25.117-6.496 5.472 7.259 11.314 13.7 25.117 15.03l.025 2.324c-17.979-.253-30.641-18.46-29.974-22.997 7.393 4.776 20.752 10.3 29.974 9.887zm-49.616-9.537c.432.019 1.015.203 1.242.43 1.47 5.485 2.54 11.574 4.968 17.686 2.985 7.51 4.64 14.138 10.175 20.325 1.721 1.768 5.094 1.715 5.094 1.715s-.425.958-1 1.117c-1.185.179-2.045.233-2.91-.047-3.204-1.353-5.656-4.777-6.921-7.097-1.185-1.739-4.077-8.903-6.462-16.207-2.597-7.951-4.735-16.219-4.49-17.883.091-.035.159-.045.304-.039zm2.962.923c.212.001.494.081.832.242.361.172.518.279.706.957.122.442.102 1.126.318 2.238 1.25 5.726 2.973 10.376 4.684 14.906 1.625 4.305 3.37 8.529 5.52 12.349 1.086 1.924 2.162 3.725 2.843 4.404 1.851 1.853 4.994 1.944 5.921.106.513-1.045.408-2.699-.608-3.557-.789-.752-2.574-.433-2.622.473 0 .242.444.135 1.087.059 1.798-.209 2.361 2.973.05 3.503-2.927.673-4.957-3.283-2.374-5.707 4.378-2.968 7.719 1.087 6.685 4.988-1 2.305-2.675 3.48-4.887 3.562-2.855.091-4.036-.792-6.964-5.047-3.357-5.385-4.814-10.644-7.179-16.534-2.236-5.572-3.726-11.512-4.428-16.7.062-.161.204-.242.416-.242zm2.777.92c.258.009.802.145 1.042.293.144.089.35.287.35.287 3.936 14.363 7.218 22.967 10.56 29.041 0 0-.054 1.116-.276 1.433-.398.568-.593.429-1.112-.47-2.102-4.069-4.104-8.562-5.969-13.195-2.195-5.451-4.144-11.094-4.97-16.462.044-.692-.111-.886.375-.927zm26.553 8.211c.557 0 1.01.448 1.01 1.005s-.453 1.01-1.01 1.01c-.556 0-1.01-.453-1.01-1.01s.454-1.005 1.01-1.005zm-81.793-.184c-1.166 1.589-2.123 7.283-3.337 7.352-1.335-.021-2.961-.788-4.01.42-1.272 1.468-.491 3.089 1.079 3.983.722.357 2.258.442 3.19.174 3.819-1.281 5.272-7.478 3.078-11.929zm85.611 1.493c.806 0 1.455.656 1.455 1.46 0 .805-.649 1.455-1.455 1.455-.805 0-1.454-.65-1.454-1.455 0-.804.649-1.46 1.454-1.46zm-85.543.692c1.307 3.282-.139 7.208-1.729 8.531-1.465 1.217-3.763 1.373-5.076.188-1.094-1.027-.606-3.494 1.431-3.311.686.023 1.501.646 1.962 1.305 1.327.137 2.857-6.594 3.412-6.713zm90.619.802c.908 0 1.643.736 1.643 1.644 0 .907-.735 1.643-1.643 1.643s-1.644-.736-1.644-1.643c0-.908.736-1.644 1.644-1.644zm5.819 1.16c.926 0 1.678.751 1.678 1.677 0 .927-.752 1.678-1.678 1.678-.927 0-1.677-.751-1.677-1.678 0-.926.75-1.677 1.677-1.677zm-54.158 7.627c.25-.001.425.239.589.72.34 1.001.333 1.119-.198 1.788-5.16 7.141-.456 14.443 7.017 15.235.631.045.949.755 1.281 1.581-.045.391-.048.39-1.745.421-1.109.02-1.996-.05-2.552-.198-2.618-.705-5.826-3.072-7.138-5.264-1.511-2.527-1.765-5.139-.832-8.622.599-2.237 1.358-3.713 2.534-4.931.468-.486.793-.728 1.044-.73zm48.904.793.088 24.501-2.611.952.107-26.057zm4.938.945c3.251 8.072 3.395 15.472.46 22.203l-2.965.429c4.067-9.483 2.337-16.272.04-22.825zm-155.945 1.346 10.556 9.962.368 110.981-1.683-.594-.671-109.16-8.57-7.859zm103.088.318c.017 0 .036.003.053.006.283.035.541.39.779 1.063.278.794.274.817-.039 1.606-1.449 3.549-.267 6.927 3.31 7.993.85.269.992.407 1.49 1.46.323.684.469.931.343 1.083-.187.136-.642.199-1.987-.091-5.323-1.816-7.254-7.638-4.834-12.258.302-.529.579-.815.832-.856.017-.003.036-.006.053-.006zm-42.38-.439s1.112 3.929 1.005 4.82c-.281 1.721-2.728 4.471-4.867 5.475-1.984.761-4.98.379-6.235-.942-4.555-5.332 3.943-10.683 6.08-5.134 1.284 3.643-3.939 4.504-4.171 1.706-.002-.72.232-.946.905-1.415.597-.417.529-.789.014-.789-1.973.72-2.017 2.539-1.131 3.685 1.777 1.857 3.977.776 5.492-.588 2.04-1.838 2.441-4.473 2.908-6.818zm44.074 4.052c.103 0 2.191 4.989 2.467 5.7-.068.501-.614.464-1.546-.187-.946-.659-1.228-1.126-1.628-2.657-.121-.545-.324-2.526.707-2.856zm-42.377 2.105c.459 0 .937 1.69.721 2.553-.376 1.497-4.299 4.026-7.053 4.548-.553.106-1.145.217-1.315.246-.569.102-1.234-.216-1.929-.923-.489-.498-.721-.993-.603-1.111.096-.095 1.359.124 2.43.107 3.002.036 5.319-2.117 7.101-4.685.272-.404.563-.735.648-.735zm-59.669 1.25s2.032 1.839 3.103 2.894c-.115 4.892-1.921 10.198-1.92 14.572.043 3.806 2.506 6.974 2.756 10.285.149 2.143-.481 5.324-1.537 7.734-.984 2.244-1.5 4.637-1.499 6.96.125 5.407 4.009 11.319 2.645 16.666-1.282 5.025-2.741 7.927-2.354 10.595.745 5.149 3.483 9.712 2.755 13.993-.678 3.987-2.48 7.97-2.286 11.566.222 4.153 1.775 7.624 2.213 11.413.286 2.466-.412 6.305-.412 6.305l-2.847.233c1.565-5.832-.767-11.105-1.661-16.713-.761-4.774 1.378-8.572 2.015-12.645.396-2.529-.052-4.937-1.305-8.159-2.477-5.947-1.586-9.823.198-15.003 2.207-5.515-.828-9.882-1.586-15.167-.388-4.553-.085-7.774 1.624-11.823 1.276-3.898 1.635-6.157-.266-9.899-1.2-2.363-1.514-3.76-1.517-6.872.622-6.176 2.288-9.639 1.881-16.935zm61.027 2.463c.442 0 .662.312.662.943 0 1.152-1.719 2.611-4.756 4.04-1.575.741-2.491.852-3.412.416-.86-.407-.819-.764.125-1.039 2.376-.693 4.06-1.641 5.98-3.364.609-.548 1.242-.996 1.401-.996zm-13.747.795c7.837 8.389 15.522 12.706 21.398 14.724l-.925 2.192c-7.719-2.99-15.593-7.15-22.264-16.09zm15.1 1.37c.212 0 1.01 1.012 1.01 1.282 0 .156-.291.664-.648 1.12-.518.665-.976 1.007-2.27 1.717-1.756.96-2.815 1.195-3.578.792-.756-.399-.501-.735 1.387-1.845.976-.574 2.277-1.499 2.891-2.056.614-.555 1.156-1.01 1.208-1.01zm-20.76 1.237c6.421 8.786 14.689 14.623 24.409 17.736l-1.528 2.067c-8.88-3.06-17.563-8.594-25.498-18.339zm22.423 1.083c.323 0 1.049.82 1.049 1.185 0 .175-.143.496-.314.716-.344.436-2.136 1.783-2.9 2.179-.597.31-1.046.305-1.697-.02-.772-.383-.641-.707.618-1.517.618-.396 1.55-1.134 2.075-1.633.524-.502 1.05-.91 1.169-.91zm-25.829.64c-.182.231-9.453 21.464-29.093 36.518l-.093-3.526c10.88-8.628 18.789-20.44 24.755-30.755zm27.694 1.525c.297-.007.508.194.716.591.249.474-.023.896-1.121 1.725-.687.518-.942.62-1.508.609-1.462-.026-1.425-.379.179-1.812.833-.744 1.352-1.102 1.734-1.113zm37.929 1.051 4.094.314c1.103.767-16.001 11.96-27.86 10.957l.314-2.682c10.411.295 23.736-8.107 23.452-8.589zm-35.118 1.047c.94.527 2.112 1.151 1.82 1.355-.436.272-3.212.096-3.853-.248-.478-.255-.451-.39.209-1.13.807-.908.948-.464 1.824.023zm-36.495-.667c-6.487 11.446-14.214 21.892-23.159 28.699l-.119-6.053c8.513-6.554 14.957-18.524 14.974-18.566zm81.258.73 1.983 1.159c-12.371 11.45-25.731 16.386-38.57 15.15l1.031-2.32c20.836 1.645 34.671-13.768 35.556-13.989zm3.007.407s.665-.085.594.051c-4.108 4.026-9.748 8.323-13.441 10.72-17.492 17.964-32.464 32.139-47.701 48.14l-2.436-2.549 2.206-2.334c.006-4.609 5.651-9.78 8.999-13.761 1.396-1.573 4.019-5.622 3.722-7.322-.102-.39-.116-.537-.116-.537 5.295-1.058 6.562-5.35 6.675-9.145.247-2.537.586-4.842 1.44-6.927 23.96 1.921 39.399-15.719 40.058-16.336zm-41.754 2.648c2.718-.009 4.772 2.142 4.766 5.192-.023 1.275-.472 2.243-2.201 5.616-1.675 2.883-1.893 4.637-2.551 7.967l-1.703-1.529-3.098 2.792.044-4.068s1.068-1.358 2.796-3.298c2.19-2.431 4.172-5.562 4.082-7.319-.059-1.758-1.917-3.191-3.817-2.042-1.651 1.154-2.413 3.242-3.385 9.483-.173 1.106-.334 2.409-.423 2.693-.245.767-2.633 3.027-2.633 3.027-.203 0-1.146-4.581-1.146-4.581l-2.413.397c2.796-3.033 4.965-6.694 6.374-10.525 1.296-2.365 2.945-3.78 5.308-3.805zm-52.497.971s-4.804 9.98-13.236 16.47l-.056-3.907c4.9-3.799 8.634-10.348 8.628-10.334zm115.62.254c-16.675 17.266-38.439 49.059-11.429 93.723l3.567-4.116c-21.748-40.395-6.335-61.333 7.98-82.341zm-90.167 1.424c4.883 3.471 9.979 6.917 16.568 9.108-.351 1.173-9.41 8.797-2.909 15.846.272.369-.419 1.266-1.479 2.539-3.105 4.244-6.205 7.267-8.8 12.044l-.107 8.976-2.595-2.291zm89.525.826.112 5.12c-24.776 30.11-21.985 57.222-7.981 82.195l-2.682 2.721c-22.955-39.508-8.634-69.291 10.551-90.036zm-61.121 3.029c-1.094 2.884-5.871 7.828-5.871 7.828s.632-4.814 1.031-6.332c.303-1.159.99-2.726 1.668-3.476 1.928-2.12 3.852.288 3.172 1.98zm-32.872-2.707.464 40.343-3.482-3.511-.513-30.849zm-4.704 7.895.693 27.392c-3.477-8.207-8.363-17.19-8.46-17.104 0 0 3.998-5.303 7.767-10.288zm27.505 8.57s.531-.446 1.364-1.401c1.807-1.826 1.969-1.838 1.802.623-.063.946-.009 2.161-.009 2.161 1.057-.614 3.55-3.558 4.254-3.027.544.512.985 1.577.996 3.234-.062 3.243-1.897 6.222-4.806 7.192-8.027 2.487-13.412-6.771-7.837-12.643.555-.583 2.133-1.662 2.892-1.449.939 1.715.907 3.619 1.344 5.31zm79.653-2.91c.467 1.278 1.064 2.542 2.691 3.112-.249 39.227-.063 108.671-.063 108.671l7.888 7.401-.051 3.234-10.454-9.57s-.562-81.895-.011-112.848zm7.834 1.818c.281 3.794-.362 7.791.289 11.687.643 2.696 1.618 5.126 1.697 7.777.072 2.425-.085 3.806-1.122 7.192-.722 2.365-.795 2.741-.962 5.104-.389 3.291.675 6.272 1.49 8.894 1.084 3.477.782 7.681-.953 13.224-.623 1.995-.742 2.837-.653 4.645.24 3.797 1.597 7.405 2.288 11.131.373 2.136-.009 4.93-1.326 9.667-.488 1.764-1.005 4.834-1.005 5.994 0 1.245.399 3.59.784 4.601 1.824 4.795 1.914 5.654 2.006 8.535.014 2.164-.611 4.353-1.378 6.257-1.279 3.042-.439 6.165 0 9.584l-3.144-2.686c-.928-2.927-.602-5.664.258-7.847 1.224-3.416 1.53-3.733 1.513-5.699-.023-2.608-1.518-5.691-2.136-7.525-1.098-3.254-1.102-6.447-.01-9.888.536-1.691 1.311-5.007 1.484-6.352.334-2.587.082-4.63-1.218-9.822-.634-2.532-.768-3.51-.812-6.032-.041-2.336.299-4.763 1.049-7.579 1.08-4.473 1.067-7.16-.339-11.31-1.136-3.43-1.455-5.757-1.164-8.488.168-1.584.601-3.07 1.328-4.552 1.348-3.364 1.553-6.581.553-9.794-1.725-6.572-1.696-9.911-1.527-15.844zm-8.837 2.151c-.273 26.881.005 57.656.005 57.656s-7.962 5.575-7.931 5.285c-10.261-16.92-14.171-41.844 3.75-64.323 0 0 2.885 1.231 4.176 1.382zm-121.11 6.407c14.522 27.115 16.412 54.509-7.601 82.611.774 2.484.649 4.8.263 7.066 4.681-3.645 42.221-41.14 10.605-93.348zm74.004-2.207 7.133.419.48 6.136-2.306 2.286s-.042-1.269-.073-2.402c-.036-1.388-.232-2.6-.362-2.557-.119.039-.251 1.656-.353 3.421l-.106 2.634-.797.798c-1.064 1.063-1.279.979-1.321-.516-.088-3.254-.08-3.477-.318-3.239-.133.133-.209 1.247-.242 2.929-.026 1.335-.12 2.614-.207 2.842-.181.465-1.537 1.676-1.881 1.676-.331 0-.312-.47-.314-2.493-.001-1.707-.181-2.645-.454-2.015-.065.148-.18 1.845-.203 3.223-.025 1.378-.115 2.637-.198 2.793-.297.554-1.697 1.739-1.943 1.645-.354-.137-.442-1.15-.431-2.843.006-.829.136-1.53-.183-1.754-.32-.225-.377.734-.291 3.171l-.023 2.649-.895.976c-1.417 1.459-1.515 1.389-1.518-1.131.064-1.995-.007-2.87-.4-2.713-.395.16-.237 1.123-.16 3.089.07 1.757.047 2.639-.072 2.862-.096.177-.556.696-1.021 1.15-.464.454-1.038 1.083-1.106 1.083-.108-2.117-.291-6.676-.291-6.676l-7.438-.327s1.524-1.809 2.17-2.157c.336-.179.862-.201 2.725-.12 1.272.055 2.981-.053 3.134-.112.558-.215-.606-.406-2.249-.512-1.095-.078-1.38-.049-2.595-.227l1.082-1.117.812-.807 2.375.077c1.435.048 2.502.041 2.668-.052 1.404-.277.088-.597-1.514-.6-1.563-.002-2.446-.005-2.446-.348 0-.348 1.75-1.935 2.248-2.039.258-.054 1.529-.107 2.827-.116 2.232-.019 3.041-.051 2.915-.421-.125-.371-1.602-.261-2.586-.304-2.73-.005-2.856-.107-.991-1.74l.905-.794 1.71.05c2.583.072 3.833-.031 3.833-.276 0-.221-1.681-.436-3.107-.436-.854 0-1.547.016-1.547.016.637-.831 1.321-1.505 2.068-2.243l2.306-.043c1.683.024 2.716.088 2.746-.219.027-.307-.604-.304-1.378-.309-1.048-.006-2.291-.096-2.455-.261-.176-.177.153-.668.885-1.324zm-70.617.08c19.953 32.594 12.75 67.814-9.498 89.736l-.653-4.279c21.005-25.54 24.672-51.912 7.68-82.94zm37.106 4.376c-3.581 5.387-9.059 10.7-11.126 15.099-.423.495-.561 1.61-1.218 1.833-.328 0-.435-.621-.353-2.059.062-1.083.164-1.446.687-2.504 2.827-5.16 6.103-8.869 9.719-13.771zm.84.523 3.311.21c-.736 2.342-1.729 4.014-2.9 5.534-1.503 1.949-3.31 3.913-5.415 6.311-3.05 3.474-4.578 7.009-4.436 8.564-.762.804-1.293 1.359-2.261 2.182l-1.932-1.775c1.432-7.346 8.368-14.094 13.633-21.026zm40.511 2.982 1.074.063c3.671.215 5.962.439 6.094.599.082.099.188.663.242 1.252.079.896.004 1.491-.47 3.624-.309 1.405-.657 2.65-.773 2.766-.422.428-.591.001-.787-1.992-.119-1.202-.166-2.079-.324-1.982-.075.047-.241 1.338-.193 2.302.122 2.506.107 3.12-.673 3.876-1.364 1.324-1.438 1.189-1.542-1.16-.042-.975-.274-2.396-.342-2.466-.295-.295-.394 1.057-.397 3.341v2.435l-.648.707c-.845.915-1.119 1.055-1.429.744-.194-.192-.123-.61-.123-2.002 0-1.63-.284-2.57-.594-2.256-.058.058-.072 1.636-.077 3.011s-.022 2.591-.039 2.702c-.051.33-1.597 1.884-1.874 1.884-.327 0-.586-1.794-.586-3.262 0-.981-.209-1.152-.415-.614-.053.135-.093 1.511-.093 2.745v2.243l-.908.937c-1.215 1.258-1.413 1.185-1.416-.535-.004-1.483-.103-2.267-.401-2.267-.172 0-.213.702-.213 2.368 0 1.143-.075 2.273-.164 2.513-.09.24-.489.766-.885 1.17-.396.405-.803.734-.903.734-.169 0-.407-1.404-.344-2.011.013-.126.014-1.011 0-1.965-.032-2.28.122-2.183-3.514-2.297-4.267-.135-4.329-.16-3.045-1.402 1.22-1.18 1.048-1.136 3.876-.948 2.272.152 2.547.143 2.774-.086.14-.14.219-.291.175-.334-.043-.044-.909-.123-1.924-.178-2.81-.157-3.055-.359-1.865-1.547l.671-.677h2.875c1.942 0 3.262-.086 3.334-.202.187-.301-.584-.375-2.429-.484-.991-.058-1.924-.14-2.074-.184-.469-.139-.294-.612.498-1.353l.764-.716h2.537c2.357 0 3.509-.153 3.509-.464 0-.22-.468-.308-1.676-.323-1.711-.022-2.852-.188-2.93-.421.418-.808.995-1.259 1.668-1.934l2.581.093c2.598.091 3.412-.001 3.412-.455 0-.236-1.112-.406-2.552-.318-.926.056-2.049-.167-2.049-.494 0-.14.372-.629.832-1.082l.835-.822 2.529.101c1.409.057 2.914.043 3.025-.034.421-.288-.554-.512-2.14-.603-2.449-.143-2.61-.333-1.315-1.558zm-88.144 1.353c13.098 23.451 11.135 45.546-2.812 64.348-1.602-.933-3.308-1.44-5.133-1.634l-.353-56.623zm93.669 9.164c.261-.04.257.392.184 1.301-.06.73-.17 1.496-.247 1.701-.15.396-.27.413-1.542.232-1.448-.207-1.428-.468.165-2.035.77-.758 1.208-1.163 1.44-1.199zm-70.313 1.054s1.726-.011 2.587.02c0 0 .135 4.388.487 6.92l5.613.269-2.179 2.266-4.256-.135s-1.295-6.228-2.252-9.34zm66.89 2.654c.79-.014 2.866.342 3.109.584.189.191.195.659.028 3.49-.06 1.021-.121 3.214-.135 4.872-.024 3.004-.024 3.016-.372 3.065-.458.065-.509-.095-.633-2.074-.07-1.113-.223-2.088-.353-2.131-.15-.05-.136.933-.136 2.963v2.624c-.447.371-.86.861-1.372 1.121-.314 0-.482-.492-.639-1.865-.154-1.363-.304-2.325-.487-2.02-.043.071-.026 1.556.062 2.774l.159 2.218-.985.992c-1.011 1.019-1.138 1.103-1.301.84-.375-1.01.158-5.64-.753-6.226-.147-.076-1.356-.11-2.761-.168-2.369-.101-3.713-.14-4.044-.426-.201-.173.918-1.471 1.492-1.73.415-.188.883-.198 2.838-.067 2.262.15 3.403.135 3.103-.155-.079-.075-1.23-.244-2.131-.334-1.819-.181-2.461-.363-2.461-.7.424-.752.943-1.194 1.567-1.838l.878.093c.484.048 1.629.17 2.543.275.914.104 2.761.121 2.015.057.243-.241-.7-.49-2.01-.652-2.467-.305-2.692-.585-1.45-1.807l.764-.75c1.297.099 2.605.132 3.89.329.941.149 1.451.096 1.451-.222 0-.223-.468-.214-1.605-.439-.412-.082-2.537-.052-2.571-.678.501-.694 1.398-1.96 2.3-2.015zm-57.517 5.322c.375-.022.394.895.434 3.319.044 2.656.087 3.114.314 3.341.218.217.763.292 3.094.411 3.569.181 3.661.232 2.402 1.445-.876.843-.913.736-1.634.653-1.885-.221-4.643-.17-4.751.004-.186.302.015.362 1.74.494 2.099.159 2.673.233 2.673.589 0 .156-.358.617-.792 1.024l-.794.741-2.208-.088c-2.325-.095-3.519-.127-3.519.188 0 .192 1.327.403 3.432.61.546.054 1.106.063 1.135.155.076.228-.987 1.545-1.642 2.033-.534.4-.715.177-3.046.127-2.38-.051-2.586.039-2.141.478.106.105.499.118 1.388.18 1.455.102 2.154.32 2.154.68 0 .345-1.313 1.705-1.928 1.997-.542.257-.775.269-1.977.102-.947-.133-1.126-.331-1.101-1.219.011-.4.08-2.993.154-5.766.141-5.353.186-5.625.894-5.525.302.044.373.409.455 2.224.085 1.932.167 2.314.487 2.314.121 0 .14-.765.064-2.629-.118-2.889-.122-3.319.758-4.156.393-.373.705-.671.891-.401.372 1.14.266 2.385.375 3.528-.01 1.151.438 1.392.542.296-.053-1.74-.065-3.301-.078-5.158l1.074-1.063c.566-.563.923-.916 1.151-.928zm-6.956 2.165c.425-.071 2.815-.031 3.162.048-.602.95-1.881 2.186-2.757 2.73-.219.013-.447-2.303-.405-2.778zm67.653 5.253.509 3.573-3.901-.266zm-52.559.581c.027-.003.051.004.068.01.282.106.362.796.474 4.112.052 1.563.161 2.785.257 2.901.112.136.598.202 1.503.202.733 0 2.117.047 3.073.102 2.087.121 2.142.208.9 1.436l-.841.832-2.615-.107c-2.681-.11-3.128-.065-3.128.305 0 .25.458.369 1.315.348.34-.01 1.194.035 1.894.1 1.567.147 1.598.265.43 1.524l-.839.903-.819-.111c-1.313-.181-4.763-.136-4.963.063-.322.322.097.459 1.667.555 2.438.149 2.862.222 2.862.498 0 .135-.345.591-.763 1.01l-.759.76-3.094-.159c-2.168-.038-2.909 0-2.958.139-.084.244.272.32 2.508.552 2.149.221 2.461.442 1.644 1.458-.897 1.117-1.234 1.242-2.924 1.079-1.86-.18-3.76-.185-4.036-.01-.428.271.011.453 1.334.551 2.003.15 3.17.363 3.17.657 0 .331-.662 1.183-1.304 1.672l-.527.402-2.286-.241c-2.277-.243-3.443-.122-3.118.203.094.094.942.227 1.881.295 1.718.124 2.57.347 2.57.701 0 .105-.438.625-.971 1.155-.541.537-1.149.893-1.149.893l-7.038-.633s-.36-1.256.347-4.668c.637-3.078.898-3.768 1.203-3.195.085.159.164.906.223 1.416.142 1.235.445 2.011.628 2.011.205 0 .204-.735-.062-2.461-.371-2.406-.413-2.501.502-3.471.786-.83 1.23-1.025 1.474-.648.07.107.163 1.197.257 2.113.164 1.609.259 1.978.469 1.77.134-.137.235-.596.086-2.982l-.188-2.321 1.03-1.048c.94-.959 1.049-1.026 1.237-.78.13.17.274 1.166.344 2.354.1 1.757.241 2.334.496 2.079.122-.121.062-4.108-.066-5.031-.085-.604-.044-.692.719-1.547.909-1.019 1.386-1.44 1.635-1.446.326-.006.504.994.507 2.326.002 1.42.113 1.981.246 2.159.342.458.38-1.144.3-2.73l-.093-2.89.939-.938c.886-.888.959-.926 1.208-.677.206.207.192.697.275 2.156.126 2.017.52 3 .635 1.599.058-.315.049-.933-.021-1.372-.069-.439-.128-1.434-.125-2.208.003-1.182.06-1.496.348-1.963.416-.675 1.644-1.726 2.029-1.764zm40.656 2.198s1.57 1.343 1.57 1.726c0 .171-.622.908-1.465 1.736-1.553 1.523-1.7 1.785-1.879 3.421-.068.611-.376 1.42-1.094 2.862-.549 1.106-1.342 2.397-1.342 2.397-2.48 2.964-4.82 5.676-9.166 11.931-.249.574-.262 1.151-.515 1.628-.195.354-.634.644-.828.725-.286.119-.86.475-1.276.792-1.622 1.239-2.669 2.872-3.141 4.901-.255 1.097-.407 2.084-.851 5.466-.182 1.392-.793 3.815-.793 3.815-9.339-.133-18.083 1.484-25.877 5.883zm12.479 1.437 2.078 9.44-2.14-.045-.214-6.853-6.678-.638 2.386-2.311zm-10.136.865c.572.583 1.285 1.222 1.803 1.856-1.786 5.97-7.442 13.718-13.06 21.402l-4.117-.449c-.073-.168 5.702-8.224 8.468-11.277 1.053-1.274 1.769-2.484 2.708-4.363.339-.679.933-2.439 1.391-4.274.969-1.171 2.813-2.878 2.807-2.895zm2.219 2.093 3.112 3.156.761 44.693c-4.801-3.768-10.458-6.56-16.494-8.684l1.054-2.402 1.161-1.248c4.104-4.439 3.188-9.22.067-12.599 3.803-5.547 7.248-9.678 10.146-15.092l-.039-3.712c-.034-3.421.232-4.112.232-4.112zm-37.241 1.865c.325-.033.366.793.448 3.137.078 2.191.169 3.229.314 3.457.195.304.382.331 2.968.409 2.729.084 3.296.163 3.296.455 0 .084-.351.504-.778.933l-.778.778-2.431-.039c-1.295.042-2.826.017-2.866.054-.215.2.594.472 1.779.474.738.001 1.91.131 2.044.184.461.176.245.631-.759 1.594l-1.001.967-2.208-.043c-1.213-.022-2.689.014-2.88.077-.672.223-.338.405.773.421 1.858.024 3.14.179 3.194.468.028.141-.317.656-.773 1.145l-.826.885-3.248-.135c-3.071.023-3.485.251-.924.507.979.098 2.521.339 2.577.348.054.01.142.124.193.257.107.28-1.129 1.674-1.789 2.016-.339.174-.576.187-1.165.052-.691-.156-3.667-.128-3.987.064-.269.16.315.344 1.141.361 1.242.025 2.725.386 2.725.683 0 .242-.629 1.023-1.299 1.608-.311.272-1.048.03-3.104.098-1.406.046-2.343.177-2.343.27 0 .085.697.361 1.594.426.888.063 2.107.275 2.191.357.208.209-1.374 2.076-1.374 2.076l-6.753-.095-.623-7.153.575-.662c1.293-1.493 1.575-1.276 1.833 1.403.189 1.961.329 2.559.613 2.275.105-.104.061-1.224-.044-2.871-.086-1.355-.159-2.591-.159-2.745 0-.373 1.536-1.986 1.837-1.929.296.057.46.725.619 2.557.13 1.506.201 1.916.498 1.619.138-.139.158-.926.019-2.832l-.184-2.489.652-.773c1.31-1.553 1.567-1.38 1.726 1.14.107 1.7.271 2.595.585 2.595.105 0 .108-1.27.043-3.189l-.095-2.882.816-.83c.45-.456.908-.828 1.015-.828.317 0 .501.724.7 2.432.225 1.915.301 2.244.485 2.058.077-.077.06-1.235-.044-2.725l-.227-2.852.994-1.01c.55-.554 1.1-.985 1.224-.962.3.059.493.92.517 2.142.021 1.14.216 2.121.468 2.373.125.125.163-.576.132-2.611-.05-3.131-.129-3.37 1.28-4.838.376-.391.622-.645.794-.662zm36.462 1.279.029 4.371c-1.751 3.749-5.8 9.243-9.903 15.139l-2.141-1.16c5.134-6.73 9.426-13.001 12.015-18.35zm-58.62 1.375c.097-.001.204.003.324.009 1.108.065 1.137.447.107 1.412-.433.404-.923.724-1.112.724-.319 0-.336-.046-.237-.878.121-1.024.245-1.262.918-1.267zm66.901 3.151 3.025 2.977.758 32.008-3.184 5.194zm3.789 4.219c2.727 6.419 5.562 12.437 8.699 17.317l-8.088 11.421zm-27.212 9.978c3.718-.053 7.142 2.891 7.574 5.882.812 3.434-.956 7.134-3.859 8.27-1.012.362-1.604.387-1.604.387-.353-2.071-.201-4.066-.671-6.168 0 0-1.74 2.295-2.721 3.099-.507.28-.735.356-.668-.309.032-1.162.122-3.743.122-3.743l-4.298 4.447s-.348-.483-.763-1.59c-1.349-3.613.402-7.387 3.171-9.121 1.206-.792 2.476-1.137 3.717-1.154zm57.169-.272.084 3.913c-6.746 5.228-16.365 16.247-24.609 30.605l-3.63 1.531c5.593-13.365 17.399-26.976 28.155-36.049zm.074 5.146.072 5.831c-5.951 5.721-11.121 11.631-15.621 19.238-2.628 1.262-7.494 3.658-7.494 3.658-.607-.147 13.257-21.732 23.043-28.727zm-60.026 4.994c.271-.003.257.523.172 1.282-.192 1.722-.395 2.347-1.024 3.185-2.179 2.574-5.643 6.074-6.114 9.33-.238 1.738 1.118 3.365 2.453 3.198 4.142-.518 4.587-7.879 4.937-11.512.145-.9.212-1.655.362-1.94.874-1.113 1.813-2.199 2.99-3.079l.507 5.627 2.335-.778c-6.584 8.946-4.691 9.506-8.163 13.172-3.228 3.406-9.488-.475-7.885-5.652 1.392-3.485 3.546-6.98 4.128-10.712.158-1.109.249-1.878.249-1.878l1.497 3.123c.761-.752 2.984-3.235 3.556-3.366zm60.272 1.93-.015 4.017c-3.069 3.457-5.718 6.111-8.854 10.889l-4.981 2.27c3.251-6.194 8.587-11.988 13.85-17.176zm-60.857 3.544s.33 1.876-.397 5.282c-.347 1.615-1.901 6.329-4.357 5.218-2.087-1.843.456-5.262 1.737-6.876.99-1.16 2.065-2.415 3.017-3.624zm-6.556.482-1.358 2.905c-12.202.045-24.054 4.408-34.603 13.32l-2.668-.874c11.176-10.57 25.029-15.708 38.629-15.351zm12.828 2.232c13.752 4.605 20.103 11.325 25.305 18.372l-2.175 1.114c-5.451-7.053-12.179-13.509-24.706-17.243zm-15.756 4.347-.585 2.488c-7.702.232-15.829 2.965-23.737 8.454l-2.852-.454c7.959-6.246 17.049-9.811 27.174-10.488zm35.197 16.815-2.442 1.153c-7.29-9.455-13.88-12.148-21.368-14.556l.807-2.098c10.063 2.67 17.446 7.779 23.003 15.501zm-101.636-11.15.212 25.233-1.757-.351-.251-24.402zm-4.069 1.369c-3.349 12.551-.752 15.801.459 23.125l-2.773-.444c-2.701-7.42-2.978-14.171-.701-22.048zm84.292 1.927c.211.2-.17.815-.686 1.122-.5.295-.389.249-1.19-.039-.776-.282-1.768-1.016-1.768-1.296.566.011 3.146-.017 3.644.213zm2.364.178c.459.056 1.786.031 1.87.445.031.248-.491.65-1.556 1.377-1.618 1.106-2.169 1.324-2.644.798-.45-.496-.318-1.013.44-1.711.739-.68 1.166-.912 1.89-.909zm-55.241.275c.925 0 2.584 1.146 3.585 2.475 1.015 1.589 2.181 3.219 3.123 4.824 2.141 3.65 3.794 7.355 5.177 11.146 3.624 9.017 5.749 17.759 7.515 26.444-.032.732-.668.719-1.189.546-.271-.087-.538-.268-.594-.405-.749-2.129-1.008-4.303-1.581-6.439-1.429-5.341-1.942-8.4-4.697-15.931-1.431-3.907-3.5-9.349-5.762-13.529-1.449-2.679-3.127-5.157-5.302-7.347-.577-.573-1.291-1.095-1.291-1.208 0-.37.362-.576 1.016-.576zm58.769.291c.86.21 2.932.453 2.147 1.14-2.916 1.121-3.859 2.336-5.405 3.573-.233 0-1.155-1.143-1.155-1.421 1.254-1.541 2.834-2.198 4.413-3.292zm-54.556.009c1.219-.043 2.411 1.532 2.973 2.523 3.748 5.514 6.955 13.378 9.596 21.085 2.839 8.293 4.643 16.27 5.427 21.929-.068.175-.419.24-.823.237-.767-.006-.875-.183-1.072-.794-1.953-9.36-4.578-19.024-7.753-27.226-1.705-4.371-3.64-8.761-6.36-13.166-1.856-2.721-2.91-4.148-2.828-4.36.056-.144.362-.218.72-.218.04-.005.081-.008.12-.01zm-8.375.164c1.644-.004 4.363 1.946 6.21 4.453 3.916 5.367 6.157 11.639 8.483 17.724 2.67 6.973 4.596 14.722 5.747 20.822.196.875.516 1.257-.31 1.533-1.248-.358-1.22-.322-1.574-1.842-.488-1.634-.636-3.284-1.099-4.945-2.638-9.499-5.596-20.041-10.506-28.619-5.901-9.443-7.616-6.816-8.566-8.482.073-.376.73-.641 1.615-.644zm14.195 2.306c5.071 8.821 7.306 14.238 8.848 19.566 2.337 8.074 5.104 14.522 6.319 23.95 0 0-1.331.024-1.865-.194-.221-.219-.456-1.161-.594-1.933-1.217-6.657-3.2-14.533-5.308-20.74-2.271-6.909-4.971-13.48-8.966-19.827-1.046-1.709-1.245-2.382-.604-2.412 1.143.078 1.648.958 2.17 1.59zm52.821-.941c.235.001.329-.033.759.116.671.23.885.375.922.641.056.387-.361.514-1.657.817-1.02.238-3.01 1.301-4.394 2.452-.642.533-1.194 1.106-1.349 1.106-.318 0-1.078-.836-1.078-1.184 1.06-1.619 4.433-3.84 6.797-3.948zm-69.859.216c4.292.132 7.65 5.117 9.412 8.478.685 1.316 1.574 2.747 2.247 4.248 3.483 7.788 6.439 17.556 7.884 23.797.694 3.002 1.497 5.203 1.212 5.79-.352.223-1.101.053-1.444-.238-.222-.185-.341-.872-.73-2.126-1.001-3.215-2.659-12.407-6.981-22.064-.096-.217-2.187-6.326-5.8-12.123-1.469-2.359-3.848-3.842-6.017-4.327-1.092-.177-1.416-.048-1.348-.637.043-.376.16-.478.744-.662.259-.082.533-.128.821-.136zm26.826 19.919c-.294 0-.554-.56-.749-1.479-.095-.452-.229-.773.619-1.305 5.324-5.661.746-13.975-5.945-14.699-.621-.094-1.42-.096-1.654-.182-.339-.194-.962-1.397-1.233-1.881 9.248-2.241 19.062 10.997 8.962 19.546zm46.069-18.497c.55.137 1.748 1.251 1.599 1.494-.179.29-1.217.3-2.711.564-3.18.563-4.545 2.637-6.023 4.176-.328.101-.62-.127-.914-.628-.215-.369-.392-.812-.392-.985 1.654-2.408 6.08-4.841 8.441-4.621zm-75.07.709c2.704 0 5.406 1.312 6.926 3.448 5.552 8.306 11.786 26.771 13.273 35.878-.15.293-.545.324-1.315.102-.428-.124-.376-.262-.647-1.108-1.743-6.634-3.654-13.076-5.902-18.986-1.158-3.045-2.521-6.021-3.803-8.694-.812-1.692-2.445-4.702-3.064-5.622-1.46-2.742-4.41-3.545-6.267-2.66-1.925 1.041-2.166 3.526-.703 4.629 1.216.848 3.134.708 3.836-.606.241-.464.166-1.043.011-1.188-.15-.143-.422-.101-.479.052.1 1.615-1.959 1.719-2.857 1.083-1.437-1.073-.481-4.47 3.432-3.103 1.51.794 2.017 2.296 1.301 3.89-.733 1.632-1.869 2.375-3.621 2.365-2.127-.038-4.54-1.531-4.558-4.216.006-2.003.934-3.669 2.672-4.784.645-.413.898-.48 1.765-.48zm22.896 1.249c6.561.301 9.576 8.022 6.125 12.683-.88 1.112-1.437.909-1.813-.528-.185-.591-.389-.679.14-1.135 3.073-2.945.549-8.668-4.514-8.898 0 0-.945-1.377-1.039-2.108.337-.123.793-.016 1.101-.014zm54.71.53c.498.122 1.552 1.134 1.552 1.49 0 .419-.206.34-1.372.139-2.76-.494-5.524 1.104-7.831 4.587-1.118 2.092-1.258 1.894-1.845.093-.304-.925-.308-.905.864-2.611 2.19-2.808 5.423-4.091 8.632-3.698zm2.568 3.544c2.308 2.097 1.231 6.715-1.89 7.193-2.75.318-5.194-2.657-3.462-4.68 1.128-1.222 2.537-1.347 3.403-.295.897 1.084.517 2.564-.758 2.717-.15.053-.272.169-.272.255 0 .271 1.132.197 1.519-.116.776-.855.789-2.163.096-3.098-.613-.827-1.923-1.484-2.973-1.058-1.85.662-3.735 3.171-4.813 6.333-.304.887-.481 1.721-.61 1.918-.263.402-.244.392-.489.236-.213-.136-.607-2.071-.607-2.807 0-.56.482-2.039 1.121-3.307 2.003-3.724 6.51-6.221 9.735-3.291zm-56.259-.938c2.687.163 4.812 3.968 3.644 6.617-.361.487-.883.818-1.124.512-.088-.11-.501-1.353-1.073-2.673-.573-1.317-1.1-2.607-1.263-2.929-.426-.914-.734-1.536-.184-1.527zm-18.255 2.209c3.061 5.421 5.62 11.638 7.744 17.705 1.653 4.729 3.008 9.366 3.789 13.466.075.414.177.631-.004.812-.3.3-1.762-.447-1.762-.447-2.56-8.819-4.628-17.66-10.722-28.891 0 0-.263-.446-.334-.738-.082-.702.124-1.591.552-2.089.172-.186.406-.198.737.182zm-34.342 10.239c14.474.972 25.671 7.07 31.65 23.181-2.125-1.199-12.904-9.469-31.486-10.566l-.029-2.233c13.321-.108 26.315 6.824 26.045 6.723-4.956-10.216-17.409-14.356-26.219-14.625zm100.416 3.256c-.913 1.429-.873 1.372-1.311 2.605.051.4.124 2.898.185 4.355.077 1.856.129 2.665.275 2.842.249.3.752.346.971.077.087-.105.238-.506.339-.889 1.196-4.514 1.757-6.203 2.238-6.761.317-.408.425-.371 1.735-.223 2.95.262 3.954-3.254 2.025-4.669-2.58-1.436-5.316.971-6.457 2.663zm3.113.959c-2.107 1.734-2.17 4.232-2.809 6.533-.343 1.547-.826 2.362-1.019.028-.359-3.237.091-5.655 1.496-7.557.869-1.398 2.296-2.34 3.579-2.43 2.761-.193 3.042 1.995 2.275 3.169-.557.854-2.104 1.225-3.522.257zm-99.701 1.043c1.041 0 1.886.843 1.886 1.883 0 1.041-.845 1.886-1.886 1.886-1.039 0-1.884-.845-1.884-1.886 0-1.04.845-1.883 1.884-1.883zm6.009 1.29c.93 0 1.686.751 1.686 1.681 0 .931-.756 1.687-1.686 1.687-.931 0-1.683-.756-1.683-1.687 0-.93.752-1.681 1.683-1.681zm5.475 1.846c.758 0 1.369.614 1.369 1.372s-.611 1.374-1.369 1.374c-.757 0-1.371-.616-1.371-1.374s.614-1.372 1.371-1.372zm3.887 2.46c.585 0 1.058.477 1.058 1.064 0 .584-.473 1.058-1.058 1.058-.586 0-1.064-.474-1.064-1.058 0-.587.478-1.064 1.064-1.064zm-13.615 3.384c-.404 2.043-.089 4.143.382 5.591 1.072 3.121.584 8.707.584 8.707l-3.143 3.146c.226-2.931.574-6.011.413-8.472-.113-1.635-.85-3.161-1.044-4.801-.178-1.517.092-4.556.092-4.556zm5.09.94.11 13.324-10.755 10.42-.014-2.75 9.169-9.092-.193-12.344zm26.52 30.381-.706 1.15h12.133l.255-1.15zm15.703 0-.284 1.15h5.616l.187-1.15s-2.953.003-5.519 0zm9.203 0-.177 1.15h20.851l-.31-1.15zm24.372 0 .332 1.15h5.555l-.46-1.15zm9.285 0 .405 1.15h9.546l-.792-1.15z"/></g></svg>