<svg clip-rule="evenodd" fill-rule="evenodd" viewBox="0 0 228 316" xmlns="http://www.w3.org/2000/svg"><path d="m2466.97 494.567c0-5.867-4.77-10.63-10.63-10.63h-201.97c-5.87 0-10.63 4.763-10.63 10.63v290.551c0 5.867 4.76 10.63 10.63 10.63h201.97c5.86 0 10.63-4.763 10.63-10.63z" fill="#fff" stroke="#bfbfbf" transform="translate(-2241.688 -481.882)"/><g fill-rule="nonzero"><path d="m2152.5-307.075-74.28 48.419-1.03 56.468c-44.05-21.138-63.2-55.755-70.13-96.31-12.46 15.716-9.99 95.058-9.99 95.058-11.32 5.875-15.46 13.544-22.69 20.44 7.1 11.733 27.21 31.705 27.21 31.705-.14-.353-9.22 82.613 1.77 85.917 10.04-35.359 23.4-66.213 72.61-98.56 0 0 .74 131.716-2.41 258.969-20.82-14.329-64.84-40.07-93.28-66.406 36.88-47.559-.72-109.551-55.75-68.375-35.67-19.304-41.14-110.487-49.97-158.25-1.69-9.581-10-37.672-10-37.672s-117.53-32.505-168-29.859c42.39 110.456 34.16 245.065-153.44 270.281-89.88 41.104-193.73 86.924-294.65 172.522-18.6 127.452-84.33 190.204-130.75 224.916.33 51.648-.35 102.775 1.78 154.906-.05.316 42.37-27.842 49.03-22.656 35.44 230.352 165.23 276.023 152.25 282.406-2.09 1.028-42.53 42.594-42.53 42.594l-158.41-104.344c-5.43 159.268-2.28 321.676 0 481.216 27.97-15.81 79.38-53.62 79.38-53.62l.78-54.19c-.24-5.15 72.03 45.14 72.21 105.05 5.63 3.82 17.96-86.21 6.73-95.96l29.62-30.56-31.9-30.72s8.09-50.98-8.44-80.351c-10.72 67.231-66.53 88.201-66.53 88.201s-1.09-245.757-2.53-245.973l99.56 63.032c-7.41 1.525-26.37 36.766-6.6 65.312 12.05 17.39 55.36 16.235 58.69-3.781 61.23 57.06 37.66 125.27 64.44 206.22l173.75 31.87c-71.61-132.85 6.1-284.225 146.72-273.403 26.34-10.972 50.19-26.812 50.19-26.812s-17.49-28.577-39.57-55.094l-300.96-4.969 140.29-263.049-92.27-2.969s74.99-159.044 58.79-171.857c-5.69-4.499-3.31-55.781-3.31-55.781l82.42 3.064c3.26-36.709-39.86-176.587-100.71-268.064l338.29 3.032-190.44 265.593 102.28 2.938-61.03 125.375 9.78 97.781-90.75 2.938c15.64 135.563 116.35 278.388 151.75 322.5 58.52-13.873 167.79-97.496 235.6-149.49 8.79-90.97 40.11-168.412 122-226.183l.25-149.759s-46.74 30.173-46.73 28.088c.19-32.415-16.7-99.888-47.87-160.031-33.44-64.537-88.35-122.991-100.98-126.651 29.05-43.938 41.44-47.874 41.02-48.571l158.18 101.44zm-797.28 319.325s-30.77 11.709-57.5 11.344c-47.91 2.469-84.44 6.332-103.88 45.625-3.94 11.961 4.71 16.369 11.07 19.5 36.11-44.836 132.08 14.388 150.31-76.469zm-212.66 205.75c0 6.332 7.08 16.681 10.63 5.938 3.08-7.667 3.7-20.098.25-27.75-9.62-5.416-10.76 15.61-10.88 21.812zm518.78 216.938-46.78.218-.28 54.907 47.66 2.25zm459.54 273.343c-1.03 5.456-6.08 29.984 5.34 25.719 13.47-10.372 2-58.06-5.34-25.719zm-44.04 137.838c-5.53-8.05-22.62 11.962-36.64 12.712-62.33 3.335-108.25-5.004-116.01 60.2 35.94-22.947 86.3-12.486 118.75-19.906 23.45-7.784 50.36-29.022 33.9-53.006z" fill="#e2cf00" transform="matrix(.155159 0 0 .155159 -139.84 85.869)"/><path d="m-154.19 1118.65c-10.369-571.628-10.352-1135.931-11.729-1701.218l1055.171-.313c-.448 564.185 2.176 1130.07 13.035 1699.821zm38.624-1100.083c.809-16.362-5.958-23.096-11.726-11.81-1.364 2.668-5.726 31.12 5.037 32.003 7.067.58 6.342-13.172 6.689-20.193zm-16.961 19.293c-.086-3.859-2.478-5.525 2.587-39.163-10.076-3.818-18.876-20.084-11.615-30.442 2.831-4.04 1.993-4.923.806-8.295-2.934-8.334-1.449-15.152 6.274-20.524 4.935-3.433 5.146-4.339 3.533-8.809-4.158-11.519-.39-22.812 10.629-26.715 7.633-2.704 6.157-3.075 6.933-7.932 1.738-10.866 7.699-17.469 18.599-16.435 10.135.961 10.802.963 11.642-3.991 2.325-13.708 18.835-28.758 40.445-39.049 10.729-5.109 28.548-8.791 62.728-8.9 19.574-.456 43.967-3.214 57.591-15.326 2.247-2.123 5.352-7.684 6.451-6.937 2.562 1.743 2.021 15.379-2.906 27.838-14.359 36.308-34.026 46.404-89.786 46.404-16.629-.694-41.107 1.7-51.427 12.335-3.071 3.294-5.116 6.4-3.946 8.076 23.119 3.139 46.9 13.423 60.972 58.922 41.715-29.943 108.215-75.821 190.769-117.42-10.265-54.413 36.921-63.094 63.478-52.412 0 0 .652-3.555-.397-7.672-1.023-4.014-2.522-9.246-7.45-15.985-1.245-2.457-8.71-7.096-7.266-10.808 2.365-6.08 1.286-7.741-3.823-13.297-3.315-3.606-1.174-11.376-.392-14.508 1.009-5.842 4.802-14.189 1.388-17.309-5.276-4.822-23.192-12.935-32.435-19.411-10.218-7.34-10.455-13.998 4.313-38.415 6.707-14.187 13.035-29.418 18.387-39.614 8.102-15.418 8.888-25.556 3.872-34.339-6.552-11.471-5.558-25.129-5.406-24.779 0 0-61.705-86.702-87.117-120.778l-286.279.756 1.046 654.524 50.758-47.37-13.476-15.753c-1.837 9.203-.068 18.186-11.403 18.775-3.862.15-7.444-1.44-8.077-5.242zm175.267 871.674c1.479-25.89-11.162-68.185-29.993-97.425.937 22.282 2.699 49.527-1.647 71.345zm452.148 64.872c-2.259-.713-21.054-1.75-32.861-2.307-39.14-1.846-64.656-20.462-81.767-46.319-4.207-6.357-2.479-6.081 6.809 1.088 26.094 20.142 50.485 32.135 71.815 28.966 30.243-4.494 46.634 6.503 42.517 19.458-.719 2.266-.976.862-6.513-.886zm-102.837-57.13c-6.088-5.216-6.552-7.57.663-2.83 22.055 14.489 48.719 38.204 81.415 24.029 6.772-4.4.521-3.787-10.849-2.51-17.382 1.953-38.624-6.754-64.8-24.598-12.781-8.713-7.218-16.163 7.154-9.364 4.439 2.1 8.935 3.638 11.795 3.804 14.051-9.45 43.707-9.517 43.015-9.46 3.362-2.922-7.745-7.48-24.27-13.609-10.733-3.981-13.332-5.627-5.363-5.984 6.961-.312 17.941 3.095 25.874 8.164 13.237 8.396 19.905 13.053 23.843 13.581 6.471.472 13.077 1.364 2.004 6.578-5.031 2.369-4.582 2.965-3.969 8.625.959 8.847 1.488 8.745 5.602 13.724 6.932 7.549 10.017 21.66.14 12.877-2.123-.967-2.33.914-8.102 3.283-33.913 9.787-59.308-5.024-84.152-26.31zm62.715 2.155c1.879-2.505 4.69-8.896 5.065-10.675-.679-4.126-4.342-2.811-6.185-.476-3.148 3.91-7.55 9.661-3.891 11.591 1.73.917 3.42 1.681 5.011-.44zm-11.614-2.612 7.472-13.501c-1.872-.861-27.416 4.572-23.386 8.218 3.569 3.228 15.914 5.283 15.914 5.283zm28.529-45.326c-11.685-6.16-15.162-19.574-6.511-28.543 7.272-7.538 19.679-6.974 34.572 2.072 5.241 3.185 8.457 4.797 12.024 3.459 5.972-2.24 8.28 1.103 7.816 5.797-1.024 10.332-17.088 12.954-27.304 1.23-13.505-15.499-28.02-4.544-23.678 6.695 2.211 5.723 6.44 6.592 11.305 8.716 0 1.127-4.826 2.366-8.224.574zm-53.52-69.094c19.271-5.316 48.087 14.926 63.63 12.054 6.737-1.479 5.843 8.238-1.14 11.8-8.163 4.165-19.816 1.463-44.578-11.264-20.4-10.863-36.745 7.441-23.074 20.944 2.931 2.73 7.192 4.358 12.4 4.083 6.872-.363 8.905 1.502.055 3.833-5.089 1.339-14.577-.671-19.189-5.284-11.015-11.017-8.444-32.348 11.896-36.166zm-408.789-57.205c-.709-22.937 11.473-35.752 11.783-35.849l-87.09-58.332 2.678 235.024c42.818-27.539 56.722-62.01 58.926-106.415 85.413 94.537 59.613 210.386 7.005 276.578-2.417-40.31-14.734-87.879-63.876-112.011l.197 48.099-80.966 58.132.805 53.14 191.293-.54 91.717-135.627c-17.097-61.17-14.883-112.167-26.369-140.133-8.627-22.994-24.937-52.67-35.332-47.991-35.087 28.114-69.908-4.242-70.771-34.075zm73.155 26.692c30.174 21.458 38.4 56.765 44.744 88.153.208.267 16.401 106.434 16.903 107.859 2.049 5.817 1.413 11.635-3.714 16.092-27.519 38.22-81.278 120.16-81.278 120.16l531.649-.02c-28.609-41.09-51.002-81.75-78.147-115.516 1.122-1.816-2.252-24.967-6.788-32.431-4.672-7.689-5.761-11.727-2.668-18.803 7.67-17.431 15.536-36.326 22.631-52.323 13.572-30.648 15.146-30.914-3.696-40.728-22.337-12.833-26.331-17.024-21.749-31.849 1.67-5.395 1.873-7.548-5.029-8.915-3.195-.634-10.972-2.444-16.193-3.858-15.055-4.65-10.686-1.733-16.16 2.188-4.176 2.09-7.824-5.823-12.787-15.172-5.704-10.744-7.134-10.99 2.232-5.495 17.347 10.176 48.006 6 37.126-5.835-5.306-5.773-10.21-8.722-9.732-21.864.473-13.044.653-16.868-8.213-18.629-17.736-3.522-36.984-1.894-53.451 2.32-50.104 12.821-90.105 56.586-105.18 89.021-3.402 5.659 4.492 5.323 7.896 5.323 16.438-1.562 28.259 24.574 17.568 36.387-4.947 5.271-9.929 2.083-4.658-4.758 5.99-11.304-3.127-26.147-16.347-22.276-16.637 4.871-16.981 26.419-18.957 41.442-5.423 43.289 16.894 100.985 22.338 112.753 0 0 1.186 1.75.784 1.75s-3.028 2.456-4.158 1.188c-3.88-4.357-13.827-39.685-19.259-64.935-10.645-69.856 7.062-134.254 65.021-171.114 51.311-37.478 77.311-29.628 106.56-31.517 9.967-3.654 23.798-9.188 34.266-14.396 51.368-28.456 92.983-52.701 136.631-76.802 42.365-23.393 70.673-56.598 109.409-77.471 1.762-.95 3.574-3.144 5.382-4.046 48.085-42.282 95.605-83.802 124.259-112.707 3.474-3.536 6.336-8.299 6.336-8.299l-6.317-242.306s-4.884-4.009-4.884-7.866c0-8.41-3.111-6.785-20.324 5.478-21.638 15.416-23.122 14.658-23.122 14.658-12.153-111.114-72.922-220.088-146.178-283.59l2.971-4.11s24.472 15.951 36.686 23.537l-.091-15.503-29.459-18.208s-2.624-2.107.209-6.006c1.558-2.144 5.583-.585 5.583-.585l23.622 17.201-.084-14.157-19.084-12.006 6.044-7.707 10.222 6.548c-4.386-11.177 1.725-10.819 8.04-3.43 2.628 3.385 6.018 7.727 7.469 11.844.554 1.571 2.201 5.425 2.201 5.425l16.746 12.305s-.676-6.039-.094-7.897c2.759-8.805 23.051 19.439 20.527 20.119l17.146 12.207c4.007-6.19 19.293 6.001 19.954 12.049 1.357 2.626 59.081 39.277 59.081 39.277l.507-20.436 6.151-8.105.005-472.045-76.067 49.262-.5 57.149c-36.136-11.454-67.688-63.517-72.452-96.08-2.356-1.267-12.415 64.352-6.721 93.013-9.495 7.156-25.455 23.844-25.328 23.928l29.113 31.478s-5.494 48.498-4.004 72.568c1.241 11.418 1.476 12.575 4.893 12.575 2.771 0 5.244-3.01 5.244-5.624 6.626-28.867 28.677-73.981 67.201-89.528 2.554-.093 1.31 257.159 1.31 257.159l-96.211-64.805c-4.799-4.071 6.235-3.875 12.84-25.686 17.033-56.252-43.32-75.738-66.391-43.088-3.828 0-19.935-19.664-22.376-27.904-17.933-35.605-21.566-76.059-25.2-108.502-2.165-14.749-7.726-38.918-12.301-53.46-2.444-7.767-2.721-13.383 2.413-20.661 23.548-32.196 46.329-66.018 66.131-98.998 18.111-24.086 14.541-25.274 14.541-25.274l-533.039 1.422 85.874 111.747 8.649 3.309c-14.733 1.987-9.646 14.847-3.84 28.678 7.136 16.997 6.379 20.522-11.269 55.731-25.872 51.617-27.308 47.108-1.099 62.882 16.188 10.228 19.132 12.467 16.844 26.501s-2.974 9.701 10.348 10.768c7.124.57 12.806 1.823 16.019 3.255 3.651 1.628 6.374 3.91 11.049 2.347 7.87-2.631 8.074-.726 8.423 5.052.149 2.462 3.901 7.518 5.066 9.402 3.067 4.962 1.65 5.799-3.935 2.327-17.204-10.694-45.833-5.912-35.22 5.76 4.37 4.806 8.832 20.86 9.253 28.85.752 14.292 10.068 19.306 29.553 16.247 37.441-3.009 121.624-50.005 140.994-102.343-43.171 14.987-34.595-38.156-19.168-36.572 0 0-4.089 9.437-4.191 14.811-.357 18.99 15.556 20.365 26.43 6.854 4.724-7.09 10.353-33.366 7.333-62.969-3.657-35.851-18.432-75.893-21.122-85.836 62.735 147.303 6.308 212.571-80.37 255.46-33.214 14.099-37.781 14.041-57.394 15.073-13.422 1.164-25.491 7.909-38.351 12.219-74.17 35.939-165.318 80.746-246.692 147.268-58.415 43.811-104.787 83.156-150.82 133.63l1.346 260.546c13.922-2.249 36.457-15.95 49.805-23.837 15.916 97.223 66.627 209.622 149.917 276.526-.045-.03-1.934 3.688-1.979 3.658-11.853-7.77-23.696-15.501-35.172-21.445l-.524 12.404 28.009 19.015c.756 2.973-4.739 7.166-4.739 7.166l-23.121-15.772-.102 12.628 17.893 11.261c4.847 4.796-5.793 7.374-5.793 7.374l-10.603-7.592s.792 6.13.477 7.218c-2.702 9.337-18.075-11.161-20.891-21.411l-15.058-8.801c2.165 6.065-3.203 6.946-7.462 5.45-11.308-5.651-10.739-15.259-13.124-20.938l-20.043-12.547c-3.323 19.045-23.776-7.629-20.607-14.063l-25.712-17.277c1.415.521-9.749 2.899-13.546.451-4.373-2.818-5.971-14.419-5.971-14.419l-15.41-9.415.098 16.64 158.579 109.332-2.251 4.296-165.402-111.736 9.561 489.129 79.988-56.035c-1.649-18.297 1.633-34.666-.006-55.516 41.42 25.439 55.411 42.83 73.928 96.661 11.597-30.77 9.353-60.223 3.903-87.449 10.501-8.695 20.722-17.143 25.948-30.192-10.008-13.604-19.737-17.38-30.264-29.995-.91-15.448 7.866-61.524-4.363-76.632 0 0-21.795 66.99-69.47 87.373-1.869-70.589-1.268-248.079-1.268-248.079s49.321 33.612 74.451 47.237c11.809 6.215 20.036 10.109 20.217 14.579.092 2.275-4.618 5.205-6.675 8.419-1.277 1.997-6.604 21.125-4.4 36.046 1.027 11.001 6.255 17.932 11.255 23.178 15.855 16.633 44.674 8.575 56.023-4.399zm94.335-125.497 187.377-265.401c23.049 97.122 61.521 185.965 111.499 266.412zm91.786-278.339s13.033-26.213 18.995-40.113l-23.142.137 13.752-15.606 34.453-.204-18.201 39.383 14.624-.086 19.989-39.393 53.684-.317-18.545 39.385 12.366-.073 19.854-39.393 49.916-.294-17.324 39.377 11.695-.069 10.137-19.88 2.717 36.055-49.587.292 19.365-40.115-15.982.095-21.907 40.13-46.452.274 19.908-40.118-17.655.104-21.892 40.13zm152.162-141.641 19.779-42.433-15.848.093-21.913 41.562-49.511.292 19.242-41.072-12.336.113c-8.287 12.963-21.476 39.277-21.476 39.277l-52.508.31s14.687-27.912 20.464-41.553l-12.953.076-10.446 16.875c-3.75-6.253-1.402-22.941-2.066-30.012l49.494-.292-19.644 40.728 15.792-.093 21.439-40.739 52.261-.309-21.049 40.737 12.375-.073 20.873-38.509 53.172-.314-18.408 38.495 16.419-.097-7.144 16.725zm-49.354-73.446-10.01 1.944c-13.476-109.582-74.819-221.017-100.777-267.025l301.962 2.462zm350.787-635.231s-28.577 37.192-30.134 99.32l27.296-22.064c-2.113-63.018 2.838-77.256 2.838-77.256zm-29.798 103.98c-.188 46.22 12.105 75.616 27.565 98.592.086-29.771 2.902-59.927 4.624-67.835zm-742.299 888.694-98.033-66.672.087 14.738 116.507 78.136zm-17.805-35.99c-26.232-12.974-80.362-53.303-80.362-53.303l.08 13.447 86.146 59.766c1.694 1.65 3.956 1.215 4.738-.645-3.41-5.679-7.523-13.411-10.602-19.265zm-24.304-58.242-56.316-38.804.072 12.176c14.456 12.797 61.963 43.169 61.963 43.169zm-56.368-47.707 52.963 33.794-3.369-15.082-37.628-25.226zm945.394-478.362 1.388-243.039c-54.823 26.322-65.276 102.205-63.429 104.551-55.059-56.076-76.403-177.558-.126-259.786 5.926 26.195 8.088 64.227 62.592 98.675l1.092-51.485 75.792-49.045-.977-58.483-182.485-.346c-28.096 36.023-56.147 77-83.923 115.215-10.426 14.328-13.011 21.052-10.954 28.495 18.802 66.052 15.595 147.533 54.468 185.824 51.549-49.048 100.547 24.048 60.519 69.536zm-782.244 1055.532c7.143 22.09 2.582 66.763 2.13 66.763 8.344-4.6 30.725-69.377 24.888-93.635m257.096-1188.417c-12.929-3.585-22.677-9.072-36.298-7.692-10.724 1.175-14.389-2.355-7.882-8.233 8.514-7.3 16.791-10.338 32.697-2.136 47.86 24.677 49.114-11.781 27.616-14.233-6.103-.696-5.841-4.588.242-3.64 33.344 1.13 23.446 45.352-16.375 35.934zm-56.001-36.069c-6.325-2.265-13.966-6.072-16.769-5.301-7.071 1.944-7.338-1.95-6.522-6.565 1.971-11.145 13.365-9.192 28.467.296 21.633 13.592 29.775-6.182 10.101-16.71-6.62-3.543-4.586-4.545-.732-4.727 10.212-.482 19.914 13.367 17.271 24.758-6.763 18.285-23.484 11.234-31.816 8.249zm62.952-34.06c-13.957-2.339-34.266-20.967-43.649-22.196-5.27-.568-11.458.11-13.155-1.997-5.192-6.445 9.4-6.53 10.38-8.886.003-5.462.322-8.882.094-10.746-2.596-3.473-12.824-17.365-12.511-24.122.24-.421 5.343 3.707 7.956 3.706 24.822-13.273 41.876-7.549 62.944 1.6 8.706 3.781 31.221 21.025 31.519 23.779.505 4.659-9.528-4.026-17.36-9.213-19.301-13.249-36.648-22.645-60.729-14.581-3.75 1.314-3.096 2.001 9.258 1.176 12.075-.806 21.99 2.837 37.479 12.812 3.85 2.48 8.502 6.719 11.27 8.018 19.469 9.138 23.749 18.205 11.381 15.816-2.647-.511-7.79-3.235-12.836-4.986-8.89-3.086-5.746-2.157-14.261 1.871-2.988 1.414-10.186 4.4-16.104 5.137-4.537.782-19.26.747-12.712 6.928 6.954 6.88 18.449 11.916 26.347 15.026 5.689 2.49 1.317 1.968-5.311.858zm1.48-30.146c9.071-3.421 1.917-11-9.68-12.614-2.653-.369-8.247 12.183-8.356 14.818-.081 1.962 13.066-.33 18.036-2.204zm-25.082 1.497c2.077-1.336 9.002-11.47 9.002-13.078 0-6.476-8.287-4.625-10.163 2.132-2.282 8.216-2.452 13.269 1.161 10.946zm-29.35-52.044c-7.491-3.261-17.735-17.655-6.104-15.283 2.508.561 15.55 1.161 23.967 1.148 28.652-.044 57.281 12.767 75.554 31.54 10.168 10.446 10.866 18.217.576 11.04-36.525-32.393-58.78-26.196-93.993-28.445zm289.609 1122.428-10.107 5.453c.058 5.621 2.077 4.734 6.594 8.686 0 0-6.217 1.049-10.768.774-7.411-.447-9.108-.315-5.803 4.878 1.529 2.401 3.623 5.946 3.623 5.946s-4.013.892-10.068-.731c-9.177-2.46-13.863-1.168-10.369 3.904.964 1.401 2.817 4.032 2.817 4.032-6.695-1.478-19.013-7.38-19.013-7.38l-8.648 2.682c17.482 33.657 78.825 12.003 61.742-28.244zm299.521-49.939c9.453-8.029 4.781-17.778-9.141-24.862-5.794-2.949-5.224-2.993-14.557 2.562-11.503 6.846-12.315 7.2-4.043 15.871 9.986 10.465 20.791 12.331 27.741 6.429zm-35.401-22.329c8.718-3.927 5.475-3.252 4.831-12.382-2.612-10.509 3.341-11.277 6.229-21.119 1.187-5.379-3.344-3.369-12.124 4.898-7.244 6.156-9.396 7.661-9.396 4.685.806-2.488-5.052-8.836-10.275-9.672-4.416-.707-4.004-1.721.272-7.321 7.424-9.722 10.428-21.944 5.346-32.67-6.422-13.556-8.526-15.54-22.478-3.587-7.142 6.65-17.252 11.786-22.105 19.989-3.472 6.036-1.406 11.846 4.213 23.635 14.021 29.422 35.499 42.548 55.487 33.544zm49.106-.035c15.372-6.127 9.058-22.722-15.119-39.342-14.574-10.019-18.689-9.891-6.301.986 7.925 6.958 9.172 9.426 5.825 14.484-2.792 4.218-5.723 9.175-2.902 13.003 4.443 6.029 12.015 13.452 18.497 10.869zm-867.639-22.538-16.855-10.502.085 14.5 16.853 9.931zm839.407 8.152c3.317-2.362 6.142-8.958 6.142-11.87.716-6.75-10.259-5.067-15.461 2.424-5.85 8.424 1.167 15.25 9.319 9.446zm37.471-23.053c7.605-8.063 3.832-16.58-11.943-26.665-6.092-3.936-9.195-6.514-8.403 1.359.241 2.402-2.374 5.598-4.059 7.506-5.409 6.126-2.985 7.204 12.596 16.95 7.932 4.962 7.519 5.399 11.809.85zm-877.026-10.242-16.853-10.042.078 13.162 16.86 11.234zm-36.638 13.355.14-13.201-21.844-14.338-.222 14.717zm855.62-10.385c-2.759 7.572 8.498 4.081 9.143 3.309 1.931-3.834.202-4.183-.761-4.581-1.987-.821-9.653.544-8.382 1.272zm4.864-9.572c3.86-1.268 4.316-.786 3.737-7.755-.875-10.519.703-11.369 7.666-16.04 5.565-3.734 5.611-3.176 5.481-9.629-.156-7.791.36-11.147 10.598-12.795 4.191-.674 6.582-1.715 6.912-5.027.553-5.564-8.444-14.905-19.599-20.26-1.638 0-26.365 21.77-33.261 29.284l-4.212 4.588 5.128 9.472c7.995 14.768 6.731 20.232 2.196 39.906-.922 5.267 3.133 4.478 4.157-1.858 1.361-5.92 2.158-8.076 11.197-9.886zm37.568-52.644c-1.843 11.947 4.383 19.249 10.185 13.287 3.157-3.244 5.671-29.611 3.44-33.78-12.069-12.764-13.17 17.62-13.625 20.493zm-191.94 198.775c44.416-26.359 101.824-5.364 133.969-26.96 14.953-16.675 30.021-27.34 21.423-38.728-6.696-8.87-11.024-10.206-11.024-10.206.476.627-23.395 20.976-58.224 16.505-58.026-1.653-85.338 16.723-86.144 59.389zm75.799-62.583c28.392.82 51.436-4.25 61.939-12.543 6.522-5.149 7.507-6.054-2.767-6.82-22.056-1.646-44.53-27.072-51.667-51.823-1.452-5.089-3.166-10.618-3.166-10.618-58.455 47.222-187.297 121.82-187.297 121.82 8.812 39.854-19.955 63.824-59.194 49.885-6.815-.577-5.879 8.184-4.574 11.775 2.17 5.892 6.932 10.81 7.861 11.596 5.858 4.96 6.964 8.252 6.114 13.042-.839 4.73-.754 4.568 2.567 6.321 5.901 3.116 5.624 7.605 2.469 16.882-3.38 13.045-3.599 16.324 5.797 22.468 12.093 7.669 35.791 15.996 32.369 27.659-7.757 26.434-20.613 49.221-31.888 73.974-4.202 6.859-3.226 18.142.148 23.386 4.192 8.044 3.77 17.701 9.18 25.075 29.951 43.895 55.742 82.525 83.028 122.165l283.008 1.01-10.891-652.622s-43.372 43.218-43.218 46.25c.184 3.616 10.301 9.208 14.637 9.902.167-1.959-.084-9.691.46-12.406.376-3.934 12.976-2.987 17.164.404 2.935 2.376 2.13 18.001-.75 30.733-2.356 10.416-2.019 10.554 2.478 16.539 5.48 7.292 7.397 13.495 6.733 21.775-.364 4.537-.307 8.12.996 11.113 3.064 7.038 2.234 16.978-1.065 21.62-4.785 6.736-4.857 7.758-3.785 11.336 4.028 12.402 2.611 22.99-11.211 28.452-1.77.7-3.692 3.778-4.81 6.43-5.923 19.914-17.258 19.956-32.792 14.322-10.717 42.834-55.286 53.845-87.441 52.768-33.504-1.122-67.552 1.59-82.578 23.587 3.241-51.914 26.313-77.069 82.146-75.457zm100.57-86.765c5.681-2.16 6.352-8.098 1.547-11.878-7.377-5.803-15.775.195-12.281 8.632 1.959 4.729 5.215 5.345 10.734 3.246zm-881.764-13.635-22.398-15.322.211 13.841 22.315 14.14zm42.144 11.12-15.894-18.839c-46.7-28.179-87.221-59.769-126.067-85.168l-.191 17.546 11.097 5.513s.914-3.863 1.658-6.095c1.397-4.19 14.259 7.504 18.392 16.907 1.028 2.341 3.267 7.575 3.267 7.575l14.96 8.145s.198-4.231.198-5.41c0-8.978 16.022 3.281 23.381 17.918 1.784 3.548 4.115 7.306 4.115 7.306l14.083 8.442c5.493-7.597 19.664 2.673 23.326 11.839 4.646 11.628 12.713 12.59 13.032 12.627zm-84.003-2.052-.05-13.445-23.346-15.155-.217 13.631zm957.415-4.552c.586-3.531-2.975-17.24-8.2-17.976-3.267-.461-8.344 4.51-8.344 7.963 0 4.48 15.909 13.839 16.544 10.013zm-19.013-16.197c5.048-5.578-1.406-12.771-9.154-10.214-9.206 3.038-5.967 11.374 4.357 11.489 2.305.026 3.691-.053 4.797-1.275zm-939.755-4.347.014-12.817-21.568-14.071-.372 12.531zm-42.274-4.274.141-12.335-14.174-9.755.087 14.774zm.292-36.963-14.468-9.31.079 13.374 15.114 8.525zm58.316-41.016c-1.518-3.942-7.679-16.411-7.679-16.411l-65.656-45.254.083 14.047 73.435 48.766zm-31.24-108.272-.802-5.71-5.803 3.139zm-13.847 1.507-9.115 5.002 27.734 17.803-2.299-12.76zm958.401-157.036 7.094-5.201-12.634-8.449-.891 8.652zm12.7-8.28 9.313-7.784-31.438-21.886 2.302 13.717zm22.119-11.683-.055-9.431-50.972-33.981 3.611 17.214c8.981 5.117 19.96 12.608 31.44 20.575 7.278 5.07 7.315 7.04 15.976 5.623zm-.103-17.465-.088-14.961-58.961-38.647 4.875 17.528zm-.132-22.468-.067-15.685-71.369-46.552 7.903 20.703zm-.233-39.396-89.975-59.446 11.602 22.918 78.463 51.768zm-.135-22.912-112.918-74.153 12.753 20.866 100.245 66.919zm-.144-24.325-4.208.01c-.271 10.721-11.934 3.016-16.373-8.749-3.347-7.877-4.095-9.863-4.095-9.863l-22.741-15.174c.49 3.112 1.855 11.987 1.855 11.987l-15.315-9.225s-4.493-14.722-4.637-14.818l-26.174-17.559c.571 3.013 1.04 7.988-.654 8.337 0 0-7.945-3.336-11.603-8.589-3.805-5.467-4.407-10.983-4.407-10.983l-21.354-13.642-5.292.601s-2.877-1.926-5.586-4.093c-5.101-8.992-11.015-10.317-18.093-13.947 0 0 15.073 17.388 23.135 27.664 7.401 9.49 16.351 16.241 16.351 16.241l119.29 78.572zm-.144-24.455-9.215-5.46.758 14.471 8.544 5.732zm-926.511-26.386c.557-.912-1.798-1.944-4.413-7.606-6.477-14.021-7.134-18.919-3.805-33.712 1.588-7.058-4.831-10.043-7.73-2.51-2.255 5.861-5.794 9.172-9.203 8.766-3.215-.384-3.889.968-2.468 5.397 1.744 6.131-1.915 14.154-7.054 16.364-5.194 1.368-6.123 4.669-4.633 9.434 2.474 7.908-6.037 14.661-12.757 14.319-10.384-.53-6.257 8.896 6.307 17.82 4.653 3.305 6.735 5.096 10.367 3.392 9.415-9.003 26.952-21.908 35.389-31.664zm901.003 23.689-.603-13.796-26.217-17.482 3.325 18.448zm25.457-5.938-.082-13.904-10.789-6.839.637 14.773zm-983.063-15.731c2.517 2.516 5.004 2.731 8.965.316 4.567-2.419 2.793-6.029-2.015-8.357-4.49-2.33-10.721 4.876-6.95 8.041zm-7.831-6.05c-.371-2.908 3.153-6.849 5.605-7.01 5.365-.35 4.397-3.208-1.759-6.887-2.888-1.725-8.013-5.766-9.882-7.106-9.213-6.606-18.016 3.724-11.15 12.372 5.748 7.239 14.189 11.507 17.186 8.631zm962.71 2.936-2.114-15.348-23.679-15.534 1.961 16.901zm-857.588-32.373c1.271-2.14 1.65-4.174 1.506-6.745-.541-9.66-5.59-20.989-12.631-30.451-5.239-7.041-11.581-13.048-17.988-16.563-18.097-9.17-42.146-5.033-38.573 6.893 2.541 8.059 2 14.824-4.906 18.926-4.696 2.788-5.272 6.512-.29 6.489 3.617-.016 13.191-3.389 17.157-9.714 5.589-8.914 8.786-14.096 7.605.407-.494 6.065.262 5.61 9.659 5.07 12.745-.732 10.397 1.67 2.978 7.457-10.8 8.425-12.869 22.585-7.322 34.583 3.432 7.423 5.801 11.371 10.212 10.347 9.508-6.324 25.009-19.011 32.593-26.699zm815.816 13.108-23.304-15.143 1.009 16.344 25.152 14.646zm-890.983-9.697c-8.575-10.687-18.479 3.088-11.989 9.046 4.71 4.089 16.51-.196 11.989-9.046zm-20.109 1.615c-1.078-3.34 5.04-8.751 5.994-10.892 2.78-6.239-22.516-23.399-30.291-13.095-5.358 7.101-1.573 14.149 13.044 23.734 8.819 5.783 13.03 5.754 11.253.253zm908.691-15.725-21.537-13.236.458 14.115 22.868 13.603zm-37.752 12.855-.085-14.417-21.704-14.943-.265 14.929zm-840.517-12.083c3.9-3.9 2.567-5.153-5.017-4.719-4.791.274-6.265-.514-6.575 1.683-.687 4.864 7.585 7.043 11.592 3.036zm-18.021-5.346c.385-1.005-2.341-2.96-6.787-6.643-8.486-7.031-9.469-11.429-1.38-16.996 11.53-7.935-.676-19.053-14.086-14.426-10.837 3.739-10.805 14.672-4.313 21.667 8.876 5.836 25.011 22.728 26.566 16.398zm858.32-19.478-21.347-14.449.084 14.195 21.334 12.273zm-854.398 5.972c9.439-4.882 9.875-16.987.419-12.499-3.9 1.85-8.995 6.835-8.995 9.078 0 4.362 3.757 5.912 8.576 3.421zm6.789-27.824c12.232-6.667 10.32-12.781-1.956-20.371-14.973-8.467-25.327 8.004-12.968 19.094 6.469 5.805 7.958 5.074 14.924 1.277zm15.848-11.989c19.824-21.551 33.057-20.535 59.404-20.116 67.949.211 88.584-32.386 86.299-55.141-32.924 16.59-62.446 7.961-93.848 12.893-54.157 12.424-60.365 37.965-64.063 52.582zm271.965-74.623c17.511.053 16.728.592 9.443-13.76 17.057 2.232 23.981 10.358 18.254-6.571 9.061 3.169 14.491 5.617 23.847 8.636l5.907-3.47c-36.271-34.882-76.094-4.911-65.346 30.431l13.356-6.484z" fill="#131f67" transform="matrix(.155156 .00091561 -.00091561 .155156 57.573 115.838)"/><path d="m921.198 1211.15-.136-23.1 20.838-.12s-.124 8.07-.443-75.06c-.279-72.5.282-73.05 2.348-80.1 14.238-48.61 100.555-49.063 106.405 4.77.45 26.22.62 31.71.79 31.74l-23.1.14s-.06-6.57-.06-10.34c-.03-27-8.48-38.9-29.839-38.94-16.251-.03-25.281 5.87-30.313 19.19-2.822 6.49-3.082 12.54-3.042 18.43.203 29.9.783 130.05.767 130.03l23.232-.14.427 22.95zm-623.368-106.43 8.147-40.68 74.87 3.2s8.844 25.45 12.431 36.92zm-172.857.04 39.325-65.82 56.482 14.97-12.672 51.34zm109.697.34 16.67-70.11c-32.301-6.91-62.759-11.4-98.42-20.8l-57.258 91.65-34.779-.72c29.723-40.09 83.963-121.016 83.963-121.016 125.758 42.436 252.329 48.976 379.583 25.416 0 0 47.3 61.64 64.317 95.11l-33.107-1.43-41.53-68.62c-28.617 3.27-56.759 7.26-86.628 8.68l20.814 60.58-32.869.19-19.003-60.42c-35.847-1.17-65.951 1.8-108.938-4.66l-14.757 65.89zm236.844-1.38-11.572-42.98 40.365-4.96s18.929 32.72 29.273 47.58zm117.559-129.718c1.795-29.978 7.627-53.538 35.234-93.457 35.285-51.021 99.37-150.399 100.924-155.064 0 0 66.908 99.099 96.84 143.881 25.535 38.366 41.208 81.215 42.195 107 1.894 49.438-29.071 80.558-70.841 85.948-28.671 3.7-58.608-22.11-61.046-52.68-.999-12.516-7.842-16.271-9.611-5.27-2.181 38.13-32.228 60.89-66.862 57.71-51.445-4.72-68.801-55.21-66.833-88.068zm360.117-6.641c-13.218-4.122-22.755-17.579-24.52-34.598-2.017-19.452 4.901-39.381 28.451-75.897 11.159-17.744 22.859-36.451 32.037-55.288 14.101 20.444 21.452 36.155 35.682 57.284 32.67 51.687 39.01 79.57 22.64 99.547-11.55 14.094-36.05 14.608-46.259.971-3.064-4.093-3.814-5.969-6.004-15.012-.976-4.031-3.88-4.541-4.679-.823-4.112 19.14-19.953 29.241-37.348 23.816zm-842.532-261.499c49.792-76.66 225.767-323.907 225.767-323.907l25.848 2.314s-156.287 220.708-232.168 332.63zm-256.906-117.281 62.135 44.185 2.492 346.845-62.613 44.619zm253.502-568.957 37.886 73.072c-158.239 151.706-125.976 328.44-39.981 454.129 0 0-10.857 28.293-34.697 58.416-115.792-75.382-152.043-272.853-151.175-274.973 126.437-114.122 143.361-150.323 187.967-310.644zm653.448 536.486c7.556-111.671 61.721-184.95 122.635-229.89l3.799 113.518c-39.821 38.672-81.936 78.606-126.434 116.372zm-166.819-111.456c138.592-130.968 142.254-315.821 39.929-450.891l41.206-58.266c59.265 62.684 117.405 128.39 142.89 281.74-87.845 70.085-165.151 185.493-185.213 301.648zm-192.927-150.292-.569-53.188 52.122-.569-1.171 53.115zm-110.195.235-1.059-53.001 51.534.068-.485 53.738zm88.402-142.45s171.312-242.802 238.594-330.475l14.468 10.51-227.832 321.163zm-404.464-166.701c.394 95.396-60.31 171.348-122.481 221.035l.213-108.613zm35.359-173.812s-125.306-165.614-139.009-237.9c-4.709-44.015 20.056-90.378 63.24-96.546 33.571-4.302 66.122 19.622 70.384 53.915.789 6.743 2.33 8.567 5.874 6.952 2.574-1.172 2.958-2.527 4.022-14.193 3.03-33.213 33.865-51.771 66.007-49.138 57.605 7.029 78.145 78.833 62.273 115.226-33.517 76.849-139.784 224.529-132.791 221.684zm-330.387-190.154c-4.915-19.45 2.28-44.596 16.21-50.994 20.718-9.516 40.745 2.219 44.19 20.652 1.296 6.932 4.226 6.451 5.337-.759 2.735-17.754 23.275-27.88 41.209-18.782 22.238 11.282 26.814 40.753 10.481 73.727-18.299 31.365-55.643 91.435-55.643 91.435-1.17-3.444-53.222-80.824-61.784-115.279zm1199.865-101.724 2.862 423.413-58.582-34.806 2.856-355.11zm-278.092 26.715c-131.976-33.485-252.087-43.029-378.135-15.237-16.565-19.52-72.32-100.895-72.32-100.895l31.906.28 45.578 72.004 85.956-11.748-22.494-58.659 35.465-.056 18.011 57.552c-.184-.453 69.987.28 109.007 4.668 6.074-21.445 17.354-64.054 17.354-64.054l39.068-.254c-4.898 20.474-18.092 69.188-18.092 69.188 32.024 4.261 91.464 18.997 92.011 19.646 20.648-29.551 39.83-59.097 58.489-88.637l38.07-.408c-11.101 19.065-77.758 117.544-79.874 116.61zm-921.694-76.426 23.695-.14c-.68 17.287-.299 37.852 15.669 45.152 28.338 9.479 46.992-7.762 48.748-32.602 1.106-28.465-.203-131.409-.203-131.409l-22.5.133-.138-23.275 69.095-.408.137 23.275-22.699.134s2.131 88.173.65 132.16c-.844 43.396-33.898 58.259-61.282 56.843-56.73-1.788-52.245-42.369-51.172-69.863zm897.082 25.816-58.297-13.231 14.899-51.395 81.372-.527zm-334.413-16.588-27.35-47.456 52.084-.307 17.494 41.835zm118.175-10.398-8.111-37.869 94.591-.558-9.43 40.446z" fill="#d40000" transform="matrix(.155156 .00091561 -.00091561 .155156 57.573 115.838)"/><path d="m1415.78-376.969 84.13 121.406c.39-.39 47.14-9.31 93.09-11.562 45.68-2.239 100.16.615 100.62 2 0 0 14.38 43.403 19.26 64.719 6.43 28.478 5.75 61.252-1.04 83-9.95 31.865-15.2 41.425-37.43 63.312-16.49 15.981-39.78 33.367-63.82 42.656-33.29 13.903-36.68 13.831-56.3 14.747-12.98.606-14.3 1.109-21.4 4.791-2.19.764-3.61 3.045-5.56 3.701-1.64.554-4.76-.072-4.76-.072-108.21 47.426-192.91 100.307-256.9 147.531-.74.55-1.22 2.995-1.94 3.582-5.23 4.284-10.06 7.532-15.16 11.446-.7.538-2.28-.424-2.97.112-75.29 58.001-117.94 105.028-133.62 118.605l1.54 270.056s34.28-17.608 51.86-28.342c12.34 104.566 64.49 206.14 146.84 276.687l-35.72 49.25-164.62-113.343 2.28 498.277 87.53-60.78v-52.56c26.08 17.56 51.54 24.41 70.06 104.41 14.81-28.1 13.51-69.95 6.87-97.91.11 0 22.23-18.28 29-32.28l-32.53-28.85s8.43-69.86-6.9-83.932c-12.14 31.712-21.81 65.312-67.16 89.782l-.56-242.72c22.6 14.313 43.97 30.44 66.31 45.125l3.08-.621 23.11 15.84s-2.45 4.948-4.69 8.344c-28.08 42.594 18.71 94.842 56.78 63.406 14.91-12.309 42.88 38.866 48.16 88.096 5.37 31.8 8.27 71.28 16.9 98.9 2.68 8.06 1.63 12.58-4.06 17.47-29.17 41.05-87.81 123.75-87.81 123.75h42.25l3.06-4.84h-31.15c26.82-35.69 52.42-77.28 80.25-112.13 103.69 39.03 273.54 48.04 376.12 24.38 21.19 29.71 41.78 60.86 62.16 91.12h-29.5l4.06 6.35h39.91l-84.07-123.75c-57.94 17.23-199.19 10.52-196.62 9.09 0 0-.39-.96-5.28-15-24.26-78.29-26.5-147.78 34.34-203.936 32.32-28.736 68.41-47.688 108.72-44.094 18.02-.352 18.36-1.327 25.88-4.719 4.14-1.868 12.71-3.812 12.71-3.812l40.84-22.644 5.38-1.075 11.75-6.188 2.43-2.875 18.98-9.641 2.12.173 25.66-14.761.34-2.083 10.1-6.219 2.4 2.531c2.8.234 100.57-63.926 141.35-99.687l2.53.937c47.61-38.528 112.36-99.274 131.56-122.343l-1.03-115.594-1.62-1.406-.66-128h-3.72l-.16-15.791c-21.05 7.797-44.22 27.354-45.78 26.541-13.4-108.371-63.31-208.197-144.84-281.5l34.72-47.938 161.22 108.469.43-31.687h2c1.98-121.513 3.07-436.469 3.07-436.469l-1.6-.157-.03-25.145-82.41 52.614-1.15 53.156c-36.54-11.933-59.67-55.824-67.35-94.937-10.64 4.269-15.58 45.459-11.65 97.625-11.29 6.739-18.52 14.106-25.44 23.031 8.95 11.267 18.88 20.506 29.82 29.957-2.28 4.921-7.12 74.531-2.32 83.168 2.2 6.37 9.81 5.46 9.85-1.24 11.11-54.29 62.61-89.919 65.5-86.635l-1.26 250.319-91.49-64.118c19.21-21.69 23.25-58.268-.94-76.17-24.26-17.948-48.01-2.723-53.63 8.688-29.7-19.356-39.69-91.079-44.03-119.156-1.08-13.659-4.58-32.204-8.62-48.938-2.53-10.486-5.55-20.515-5.94-29.906-.17-4.423.35-6.337 4.37-11.875l88.94-126.188-45.4-.156-.44.781 35.72.094-80.22 113.906c-120.67-37.911-245.8-47.079-379.66-23.031l-66.12-93 30.06-.125-1.19-2zm69.78 1.063 1.28 2.281 51.97-.156-.78-1.938s-52.36-.187-52.47-.187zm77.06.281 1 2.75 35.47.125-1.09-2.688zm181.07.969-.36 1.25 39.08.062.34-1.25zm-119.75.031.37 1.594h94.28l.34-1.5zm181.53.844-.38 1.312 81.38-.062.69-1.25zm343.34 69.406.25 17.125-54.65 34.75c-1.37 73.252-3.47 355.031-3.47 355.031l-13.1-8.594 2.57-352.843s48.36-31.078 68.4-45.469zm-143.43 13.781h1.84l.56 3.969h-3.19zm3.87 10.344 1.44 5.375-8-.031 1.34-5.188zm137.97 2.781v11.188l-47.16 29.468v-11.093zm-145.56 9.313 12.34.156 2.06 6.187h-15.53zm-302.88 3.312 8.25 1.235c18.9 45.093 23.78 83.817 27.06 124.109 7.54 52.298 22.74 104.72 33.32 127l-12.1-.125c-1.4-.179-26.93-75.892-32.25-120.594-1.42-8.852-.86-17.075-1.31-25.281-2.69-34.566-7.42-60.544-22.97-106.344zm15.5 1.822 10.53 1.076c7.36 32.021 18.08 62.246 22.44 94.415 6.97 51.454 10.68 104.001 35.5 154.718l-9.84-.093c-15.06-34.288-24.38-70.053-30.38-108.719-4.69-22.176-4.73-38.827-7.22-58.875-3.02-24.073-12.29-54.678-21.03-82.522zm16 1.491 10.53 1.562c6.93 31.798 18.82 66.79 21.97 95.531 6.41 58.535 15.6 113.076 34.06 151.782l-7.37-.219c-28.53-55.249-28.98-104.476-36.97-156.25-4.71-30.49-14.68-60.988-22.22-92.406zm16.78 2.468 9.32 1.438c6.46 31.635 18.07 67.442 20.78 99.531 4.78 56.799 14.85 99.801 36 145.656l-8.72.157c-25.53-44.663-28.96-99.48-36.91-155-4.39-30.667-14.29-61.526-20.47-91.782zm400.16.063v13.844l-47.16 30.281v-13.656zm-384.94 2.687 9.72 1.5c6.26 30.511 17.91 63.076 20.66 92.782 4.7 50.77 14.03 102.042 34.96 149.281l-8.96.562c-22.14-47.699-31.78-91.113-35.97-145.937-2.35-30.739-14.18-68.214-20.41-98.188zm256.84.157 3.38 8.218-22.59 1.094.28-9.219zm-240.84 2.875 11.56 2.25c12.25 48.669 15.46 94.749 23.8 141.008 10.43 57.478 21.41 86.369 30.39 97.085l-9.56.313c-23.34-49.763-31.61-99.242-37.03-150.5-3.2-30.241-13.12-60.042-19.16-90.156zm17.63 3.281 8.81 1.781c10.51 39.777 15.24 76.981 19.87 112.986 8.4 68.38 31.19 120.392 36.03 122.795l-9.71-.437c-21.08-29.132-28.89-78.727-39.25-148.719-4.56-30.768-9.09-59.715-15.75-88.406zm14.18 2.844 9.88 2.437s8.9 34.994 15.62 81.438c5.61 38.704 8.55 114.862 50.63 158.656 21 21.863 58 40.852 83.25 20.219 10.79-9.195 17.74-23.934 11.25-39.688-10.9-26.385-47.82-21.864-35.53 5.813 1.37 6.639-7.3 6.919-13.35.437-6.34-6.924-4.76-14.819-.26-22.078 9.49-15.301 34.91-16.87 49.83-3.203 23.83 23.342 13.52 63.397-16.66 76.094-34.76 14.77-79.57-15.718-97.31-44.813-29.35-50.681-33.9-98.796-40.78-149.969-3.5-27.635-10.24-56.648-16.57-85.343zm14.88 4.093 10.03 2.438c.03.135 10.99 49.326 14.62 78.469 4.5 36.017 9.46 78.455 24.88 111.218 9.59 20.375 23.54 37.515 37.66 47.5 12.13 8.584 23.01 14.014 39.15 10.5 18.64-4.057 19.44-32.895 1.66-32.968-9.09-.037-3.17-8.783 4.37-9.032 26.8-.883 27.58 41.359 2.35 50.782-28.89 10.79-60.13-9.548-79.47-35.094-33.84-52.556-32.51-100.495-39.94-142.875-1.98-22.323-14.56-79.887-15.31-80.938zm202.78 1.469 6.13 8.188-34.04-.157.16-7.781zm-187.84 2.719 9.59 3.344c.27 0 9.62 38.183 15.44 83.312 6.9 43.512 9.15 79.729 31.68 111.156 9.38 13.075 27.08 30.517 38.22 32.594 6.91 1.492 14.06-.031 15.82-5.281 2.87-8.598 10.24-4.647 10.4 3.156-.03 5.459-4.04 11.126-10.81 13.094-33.12 5.732-63.43-35.851-72.63-56.938-12.45-30.672-17.78-64.949-23.18-107.625-2.29-18.064-13.22-75.663-14.53-76.812zm307.31 1.531-.16 13.781-47 29.625v-13.406zm-292.88 2.688 10.75 2.937s8.97 33.581 14.32 75.063c5.42 42.068 17.07 90.939 38.84 116.218 1.98 2.423 3.33 4.142 4.19 5.563 1.56 3.437-.3 9.243-1.91 9.25-38.78-20.182-47.95-101.273-51.28-128.688-4.91-42.401-14.91-80.343-14.91-80.343zm150.82 6.5 34.22.968 8.15 8.032-45.31-.407c-4.78-4.937-1.8-4.365 2.94-8.593zm142.06 11.187v11.438l-47.16 29.875v-11.688zm-140.88 3.625 50.07.875 17.56 10.438-76.5-.625zm140.88 14.5v13.719l-47.16 29.562v-12.875zm-159.41 2.594 85.07.906.21 9.219-92.25-2.375zm-11.09 15.781 96.22.25.25 10.188-87.5-.844zm170.5 1.563v14.312l-47.16 29.219v-13.563zm-152.41 15 73.75.343-8 8.532-55.62-.563zm152.41 5.031v13.5l-47.16 29.656v-13.312zm-96.91 10.312-8.93 8.688-38.22-.531 1.31-7.907zm96.91 9.469v14.469l-47.16 28.812v-12.531zm-144.6 5.281 31.54.688-4.82 6.625-27.59.125zm-283.56 11.532c4.76 36.396 31.17 109.773 31.16 109.75l-10.41.093c.52.703-18.88-46.222-25.87-90.437-.85-4.219 2.03-18.446 5.12-19.406zm281.5 2.093 24.28.438-5.28 9.375-19.78-.031zm146.66 2.219v12.656l-47.16 29v-11.531zm-147.44 12.813 16.1.5-3.82 8.687-12.47-.375zm147.44 6.812v13.5l-47.16 29.25v-13.031zm-438.1 2.875c4.74 26.51 24.85 79.756 26.38 83.25l-8.91.125c-.4 1.215-20.9-47.742-23.09-68.687-1.05-4.387 1.27-13.065 5.62-14.688zm290.5 5.625 9.54.438-1.63 4.968-7.72.188zm.85 11.938 4.97.125-1.19 4.718h-3.09zm146.75.25v10.906l-47.16 29.844v-10.344zm-449.91 1.187c7.16 21.25 14.31 42.903 22.78 63.625l-10.56-.25c-7-14.942-11.91-31.736-17.37-48.219-1.51-6.878 1.7-12.766 5.15-15.156zm-10.53 14.188 17.56 49.062h-9.96c-4.11-9.868-8.72-20.901-11.96-31.06-3.3-10.534-3-10.879 4.36-18.002zm460.44 3.062v12.938l-47.16 29.187v-11.156zm-467.79 18.979 9.63 27.177-12.31-.312c-3.61-8.553-5.82-16.024-6.72-24.349-.34-4.041-1.07-8.068 1.75-9.769 5.56-3.146 4.93-.554 7.65 7.253zm-13.08 11.127 5.12 15.925-11.5-.281c-3.38-7.527-4.68-12.944-3.66-20.824 6.92-7.986 7.44-3.81 10.04 5.18zm480.87-9.356v13.531l-47.16 28.344v-12.562zm-497.19 9.719 4.81 15.687-10.37-.25c-1.72-3.679-.63-8.158-.69-12.312zm-13.59 8.031c.15.008.28.046.34.125 1.48 6.941.04 7.375.13 7.313l-14.5-.094s11.75-7.455 14.03-7.344zm510.78 4.063v10.812l-47.16 29.406v-10.968zm-560.72 17.125 283.38.812 9.43 13.344s-27.57.75-117.87.187c-76.02.98-228.78-1.625-228.78-1.625l14.87-7c20.58-.481 39.26-5.824 38.97-5.718zm560.72 1.593v11.907l-47.16 28.562v-11.531zm-797.41 11.426c-22.78 10.096-44.05 12.581-59.93 11.293-34.22-2.773-86.57 11.533-97.1 44.406-3.3 11.609-3.34 11.932 2.94 17.844 3.12 2.934 6.14 5.159 6.72 4.938 5.5-4.884 12.8-13.948 20.62-16.594 10.29-3.11 15.86-3.535 32.72-4.281 36.33-1.609 44.53-3.139 53.56-5.532 19.89-5.265 39.94-24.821 41.15-46.615.13-2.497-.68-5.459-.68-5.459zm-.97 2.981c-3.83 45.463-53.09 51.388-74.72 50.093-43.86-2.624-61.13 10.473-68.08 18.601-2.29 2.179-3.62 1.665-3.25-.319 5.09-25.172 45.76-26.122 66.24-25.844 50.18 2.287 62.9-21.909 61.48-22.146-3.81 1.708-6.63 3.211-10.49 5.042-1.66.691-1.31-.321-5.65-2.834-.07.329-5.02 11.58-11.43.907.16.532-4.56 9.478-13.32 1.121.06.9-5.28 8.567-13.84.725-8.04 6.89-11.87 3.097-15.33-1.746-2.54 1.523-9.99 11.585-16.21.753-6.62 4.216-9.38 8.78-15.08 6.022-13.3 2.381-24.81 16.03-29.5 28.531-1.47 4.295-4.43 4.969-4.78.25-1.58-13.041 19.88-35.633 41.43-41.874 16.76-4.853 28.18-8.356 65.01-6.949 20.94.8 47.52-10.333 47.52-10.333zm537.6 3.437 13.28 9-231.16 318.719-20.4-.531zm-370.82.219h26.29v43.437h-22.66l-8.09-12.031c2.09 1.232 4.52 1.969 7.12 1.969 7.78 0 14.1-6.318 14.1-14.094s-6.32-14.062-14.1-14.062-14.09 6.286-14.09 14.062c0 .691.06 1.367.15 2.031l-8.46-12.562s3.6-2.142 12.18-5.969c2.22-.99 7.56-2.781 7.56-2.781zm81 0h44.54v43.437h-44.54zm97.57 0h46.09v43.719l-46.09-.282zm99.53 0h46.06v43.437h-46.06zm352.81 1.031.69 13.563-47.16 28.656v-13.406zm-331.47 4.5c-8.23 0-14.94 6.646-14.94 14.875s6.71 14.906 14.94 14.906 14.91-6.677 14.91-14.906-6.68-14.875-14.91-14.875zm-196.06.782c-8.23 0-14.91 6.646-14.91 14.875 0 8.228 6.68 14.906 14.91 14.906s14.91-6.678 14.91-14.906c0-8.229-6.68-14.875-14.91-14.875zm97.12.281c-8.22 0-14.9 6.646-14.9 14.875s6.68 14.906 14.9 14.906c8.23 0 14.91-6.677 14.91-14.906s-6.68-14.875-14.91-14.875zm50.19 1.781c6.91 0 12.5 5.596 12.5 12.5s-5.59 12.5-12.5 12.5c-6.9 0-12.5-5.596-12.5-12.5s5.6-12.5 12.5-12.5zm-197.59.188c6.91 0 12.5 5.596 12.5 12.5 0 6.903-5.59 12.5-12.5 12.5s-12.5-5.597-12.5-12.5c0-6.904 5.59-12.5 12.5-12.5zm296.19.437c2.97 0 5.67 1.13 7.71 2.969l-13.62 18.5c-3.37-2.018-5.62-5.691-5.62-9.906 0-6.381 5.15-11.563 11.53-11.563zm-195.69.063c6.91 0 12.5 5.596 12.5 12.5 0 6.903-5.59 12.5-12.5 12.5s-12.5-5.597-12.5-12.5c0-6.904 5.59-12.5 12.5-12.5zm-150.94.906c5.15 0 9.31 4.166 9.31 9.312 0 5.147-4.16 9.344-9.31 9.344s-9.34-4.197-9.34-9.344c0-5.146 4.19-9.312 9.34-9.312zm-28.59.5c79.42 101.135 121.62 203.667 140.19 315.406l-13.32-.625c-22.07-121.526-71.75-225.755-139.12-309.875zm325.37.094c5.45 0 9.88 4.397 9.88 9.843 0 5.447-4.43 9.875-9.88 9.875-5.44 0-9.87-4.428-9.87-9.875 0-5.446 4.43-9.843 9.87-9.843zm-196.06.781c5.45 0 9.88 4.397 9.88 9.844 0 5.446-4.43 9.875-9.88 9.875s-9.88-4.429-9.88-9.875c0-5.447 4.43-9.844 9.88-9.844zm97.12.281c5.45 0 9.88 4.397 9.88 9.844 0 5.446-4.43 9.875-9.88 9.875-5.44 0-9.87-4.429-9.87-9.875 0-5.447 4.43-9.844 9.87-9.844zm247.13 7.063c5.23 40.027-5.1 65.872-35.63 70.062-38.92 5.343-43.97 8.272-44.18 45.125-.26 43.682-6.72 56.297-37.66 59.75-34.81 3.885-42.9 8.008-39.78 51.281 2.28 31.576-10.17 45.013-36.97 50.875-20.96 4.584-39.1 11.599-46.87 32.719l-19.16.25c4.98-33.262 38.41-49.148 59.84-50.25 23.11-5.48 27.93-13.225 24.19-53.719-2.82-30.487 8.37-39.751 44.19-46.718 28.63-5.645 35.65-13.863 34.09-37.282-3.34-50.213-.04-57.768 28.5-63.875 14.54-3.444 38.23-4.987 47.25-16.093 10.27-12.634 7.65-23.387 6.72-38.907zm183.97 1.343v13.125l-47.16 29.094v-12.781zm-693.1 7.782c-10.08 43.534 24.59 52.997 45.69 60.343 24.55 8.547 30.51 20.932 27.72 64.188-2.11 32.72 1.5 39.951 22.69 51.187 32.41 16.722 41.11 40.49 26.72 75.282-8.88 21.449-4.22 27.464 1.4 46.187l-15.72-.156c-1.14.358-14.41-23.353-3.09-48.875 13.42-30.241 13.04-45.424-16.87-59.031-23.15-10.529-30.25-20.459-31.69-42.125-.61-9.124-.54-13.668 1.59-33.5 2.7-25.005-6.22-35.761-43.18-49.5-16.48-6.123-27.67-20.369-31.04-42.969-.94-6.326-.09-13.625-.09-13.625zm552.88 4.718 140.59 93.532-.97 20.812-149.15-99.656zm-90.59 2.063c6.8 0 12.31 5.513 12.31 12.312 0 6.8-5.51 12.313-12.31 12.313-6.81 0-12.31-5.513-12.32-12.313 0-6.799 5.51-12.312 12.32-12.312zm-442.32 5.375c6.18 0 11.16 4.984 11.16 11.156s-4.98 11.188-11.16 11.188c-6.17 0-11.18-5.016-11.18-11.188s5.01-11.156 11.18-11.156zm672.72 1.312-.47 12.532-46.28 28.625v-12.532zm-733.69 8.75c42.52 55.413 84.31 112.507 116.54 220.094l-13.75 5.281c-26.61-86.591-67.53-158.533-115.79-218.031zm111.05-.53 320.3-.001-8.22 11.063-306-3.125zm623.05 10.405v13.719l-35.47 21.594-10.44-6.813zm-752.91 1.469 6.28 8.25s-6.8 5.337-14.5 10.844c-20.97 15-23.69 16.704-25.09 26.469-3.32 23.191 20.53 34.626 44.47 21.218 8.58-3.924 27.41-15.843 27.41-15.843l5.4 7.968s-26.98 20.182-42.81 24.782c-34.73 10.091-60.67-33.925-35-60.063 3.92-3.995 12.21-9.361 18.81-13.625 6.77-4.373 15.03-10 15.03-10zm142.97 5.469 295.13 1.75-188.47 257.594-8.38-.469c-14.61-96.351-50.84-180.525-98.28-258.875zm-128.69 10.906 17.25 24.094s-11.24 10.751-29.81 20.906c-14.89 8.142-30.99-6.659-21.62-20 9.61-13.248 34.18-25 34.18-25zm738.63 2.469v12.562l-20.44 12.532-9.34-5.969zm-740.78 9.656c-8.19.433-21.76 9.713-26.38 17.719-1.98 3.441-1.27 6.327.56 8.687 2.8 3.592 6.1 3.387 15.91-1.843 20.04-10.68 23.8-17.021 14.97-23.282-1.22-.865-2.68-1.25-4.31-1.281-.26-.005-.49-.014-.75 0zm-.66 5.156c1.3-.124 2.79.267 4.03.157 3.47 1.425 2.41 5.733-1.22 6.75-.79-1.259-6.8-1.425-6.4 4.687-1.46 3.463-1.4 3.198-5.81 3.688-2.93-.708-4.87 1.314-5.44 2.593-3.04 1.627-6.78 1.118-7.47-.718-.67-1.781 1.82-6.919 3.94-6.907 1.01.082 2.82-1.434 4.68-2.687-.06-3.344 3.86-3.827 5-3.813 1.12.234 4.88.284 6.69-2.781.52-.642 1.23-.894 2-.969zm741.44 3v19.375l-14.81-9.468zm-818.88 2.438c53.75 63.466 92.46 131.014 117.1 224.5l-10.78 7.437c-16.29-65.543-41.36-134.806-115.54-224.843zm628.85 1.062c24.33 20.668 124.06 114.53 143.06 281.125l-13.34 8.188c-10.72-87.931-45.31-188.744-138.35-278.094zm-48.1 5.782c6.8 0 12.32 5.513 12.32 12.312s-5.52 12.313-12.32 12.313-12.31-5.514-12.31-12.313 5.51-12.312 12.31-12.312zm-595.71 4.812s11.29 11.61 11.28 14.375c-.04 5.472-4.39 8.574-30.35 18.031-4.38 1.597-23.56 6.016-23.56 6.016l-.69-9.302c9.78-3.527 36.05-9.821 37.97-15.401.94-2.194-3.74-7.75-2.75-7.75zm179.07 2.364c6.17 0 11.15 5.016 11.15 11.188 0 6.171-4.98 11.187-11.15 11.187s-11.19-5.016-11.19-11.187c0-6.172 5.02-11.188 11.19-11.188zm452.39 3.199c81.25 79.361 125.96 177.421 136.41 278.687-94.62 76.952-158.9 173.698-184.44 294.719-12.62-21.04-23.36-45.23-35.03-68.875 126.26-110.946 152.82-310.754 43.63-450.813zm-496.87 15.125 5.69 8.812s-1.19 1.083-18.88 12.063c-25.87 16.062-30.14 26.533-21.5 42.968 8.83 16.805 18.68 17.702 46.47 4.25 9.81-4.751 18.16-9.75 18.16-9.75l4.43 9.219s-12.44 10.121-36.4 18.906c-22.54 8.263-43.84-5.814-47.85-31.843-2.91-18.923 5.35-29.067 38.22-47.719 3.7-1.958 11.66-6.906 11.66-6.906zm387.12 4.187c6.81 0 12.31 5.513 12.32 12.313 0 6.799-5.51 12.312-12.32 12.312-6.8 0-12.31-5.513-12.31-12.312 0-6.8 5.51-12.313 12.31-12.313zm-502.06.467 7.44 7.013s-3.21 4.717-21.53 15.74c-16.47 9.909-18.17 8.304-9.97 15.232 15.29 12.915 36.5 41.513 36.39 48.902-.11 7.118-6.49 13.678-18.71 19.179-6.7 3.012-33.19 12.457-37.08 13.135-7.73.846-9.91 3.947-2.17 10.978 13.14 15.074 24.35 47.334 19.85 57.171-5.08 11.08-11.17 12.954-59.84 15.183-5.55.254-8.2-1.316-5.19 5.781 2.18 5.157 4.47 12.241 8.81 34.125 3.87 19.517 3.2 28.29-4.37 32.313-4.36 2.31-38.21 1.497-52.19-1.25-16.01-3.145-17.75-3.358-15.16 7.062 3.36 14.391 5.45 52.964-5.43 60.407-4.53 2.948-9.41 2.224-29.29-4.469-12.67-4.27-23.65-9.156-23.65-9.156l.22-11.969c10.33 4.253 38.66 16.488 46.72 12.625 9.55-13.688-3.72-61.69-8.79-71.969-6.11-12.275.28-14.955 14.38-7.344 7.4 5.213 71.13 30.345 67.51 7.864-3.89-21.334-10.82-45.616-24.26-60.865-12.43-14.102-6.24-19.869 7.59-13.686 24.49 10.94 75.09 8.26 72.57-3.082-3.33-18.444-20.09-43.447-43.02-62.832-6.38-5.391-6.62-7.7.9-9.027 21.42-1.706 82.72-8.003 74.15-22.394-7.35-11.78-17.17-24.803-25.53-31.814-13.74-11.514-27.59-16.512-33.73-18.906l.39-8.825c27.92-2.319 42.43-10.725 62.99-25.122zm-67.59 8.689c-10.01 104.944-53.91 191.409-144.53 251.719l-.5-11.75c79.66-59.84 117.91-144.89 128.28-227.187zm193.06 6.594c.04.001.06.017.06.031 0 0 14.58 26.213 14.56 28.594-8.65 8.018-31.36 19.756-40.65 17-14.33-4.567-16.58-19.856-2.81-28.875 11.88-8.655 26.69-16.19 28.68-16.719.07-.017.12-.032.16-.031zm-116.12-1.632 7.45 6.678s-1.92 2.91-12.64 11.485c-8.35 6.421-5.43 3.888.25 11.53 5.06 6.065 14.06 18.252 14.06 18.252l-2.69 16.218c-9.43-13.432-17.25-23.207-31.25-37.562-7.11-7.328-6.71-7.527 3.44-12.813 7.61-4.206 13.8-9.316 21.38-13.788zm203.43 10.45c6.17 0 11.16 4.984 11.16 11.156s-4.99 11.188-11.16 11.188-11.19-5.016-11.19-11.188 5.02-11.156 11.19-11.156zm-90.37.932c-10.65 2.807-21.08 12.313-26.94 16.5-2.13 1.525-.45 9.18 1.59 11.813 2.63 3.379 7.48 2.816 13.29-.407 2.43-1.35 6.82-3.557 9.74-4.906 8.19-3.778 11.62-6.6 11.32-9.75-1.31-4.238-4.66-13.557-9-13.25zm.59 4.844c2.99.124 5.15 3.975 4.19 6.25-5.13 2.773-7.97.427-7.31 4.312 0 0 .51 6.046-7 6.188-1.83-.801-5.02-.657-6.57.906-5.24 2.173-9.83-2.42-4.12-5.031 1.54-.706 5.36-1.9 6.4-4.25.55-2.914 2.96-5.242 5.6-3.625 1.4.1 4.55.321 5.56-1.906-.39-2.504 1.39-2.717 2.66-2.813.2-.026.39-.039.59-.031zm-214.79-.778c2.3 11.778-4.81 32.462-8.83 44.121-23.84 31.176-58.39 47.115-91.25 58.001-7.3 2.423-17.11 1.198-17.11 1.198 45.46-46.772 84.45-81.061 117.19-103.32zm-83.05 10.59c.32-2.623-11.66-5.801-12.81-4.156-2.22 2.075-5.74 34.568-3.44 36.906 3.19 3.249 12 4.14 12.84.271 2.76-12.748 2.09-22.271 3.41-33.021zm203.78-.968 7.78 9.656c-16.48 156.579-128.33 292.041-247.75 345.75l-.34-10.375c136.61-71.751 218.82-191.215 240.31-345.031zm540.47.656 14.81 20.375-21.22.656zm-748.2 3.782c-.13 5.356-.74 16.476-2.8 22.687-1.29 4.834-5.03 3.732-6.44-.719-1.47-4.627-.24-17.767 2.53-23.154 2.95-5.077 5.3-4.226 6.71 1.186zm113.02 2.844c7.33 0 46.24 23.942 41.04 35.87-4.14 9.492-36.71 10.263-51.64 8.933l2.25-9.148s4.55 1.586 21.9-.25c18.22-1.217 16.88-7.472-4-20.687-8.98-5.625-11.07-7.01-11.07-7.01zm107.83 12.843c12.06 20.32 23.47 43.22 34.19 68.875-147.11 138.814-135.69 327.859-42.94 451.937l-39.96 53.938c-79.92-76.249-123.43-170.056-138.13-269.688 116.65-83.925 171.46-209.163 186.84-305.062zm546.29 6.156 8.78 16.781-21.1-.344zm-91.1 8.406c6.8 0 12.31 5.513 12.31 12.313 0 6.799-5.51 12.281-12.31 12.281s-12.31-5.482-12.31-12.281c0-6.8 5.51-12.313 12.31-12.313zm-342.28 3.313 4.19 9.531c.19 1.195-29.77 10.653-39.41 22.812-8.9 11.231-8.07 22.947-3.06 31.032 8.54 11.524 14.59 13.136 29 8.718 11.75-3.602 20.38-8.464 32.03-14.406l1.84 4.813c.02-.255-16.72 9.833-29.5 17.031-4.79 2.702-10.56 3.839-15.56 3.719-29.06-.7-44.46-38.198-20.5-60.344 3.51-3.245 15.38-9.749 25.38-14.906 6.65-3.433 15.59-8 15.59-8zm384.72 5.906c95.94 138.389 30.26 290.037-31.69 343.687l-1.65-16.281c104.3-118.815 68.02-257.571 24.56-319.25zm61.75 6.219 7.53 17.093-22.28-2.343zm-386.73 5.599c6.17 0 11.18 5.015 11.18 11.187s-5.01 11.156-11.18 11.156c-6.18 0-11.16-4.984-11.16-11.156s4.98-11.187 11.16-11.187zm313.54 2.182c84.1 122.168 37.19 316.971-123.22 376.312l-.81-13.656c163.56-68.377 179.62-250.412 113.91-353.125zm-364.53.75 10.63 28.687c-13.37 8.956-18.62 10.481-33.6 14.125-11.8 2.696-21-17.713-11.94-25.531 10.35-8.924 21.49-12.783 34.91-17.281zm-272.75.094c1.98-.094-.11 4.802-5.19 17.093-11.18 27.083-11.93 27.661-40.09 32.125-14.66 2.323-25.58 2.907-36 1.907-15.72-1.511-22.43-5.953-12.25-8.094 29.53-6.491 62.17-21.786 83.41-36.594 5.53-3.969 8.77-6.374 10.12-6.437zm534.52 3.333c7.63 0 13.84 6.208 13.84 13.844s-6.21 13.813-13.84 13.813c-7.64 0-13.82-6.177-13.82-13.813s6.18-13.844 13.82-13.844zm-418.05 3.831-1.18 10.652s-17.06 9.012-25.14 12.411c-6.17 2.499-6.6 3.053-4.62 8.773 4 11.424 11.69 25.593 11.69 25.593l-7.13 16.149c-4.35-14.525-8.93-29.87-16.93-43.399-7.59-10.584-9.01-11.9 2.8-14.114 15.25-5.132 27.12-8.849 40.51-16.065zm152.34 3.461c-8.34.365-25.77 7.385-27.5 14.093-.98 3.79.11 9.091 3.31 10.282 8.68 3.221 26.1-3.918 30.69-10.438 1.43-2.011-.74-6.179-2.28-8.781-1.17-1.988-.95-5.299-4.22-5.156zm.44 5.718c.15-.015.29-.013.44 0 1.41-.123 6.56 6.393.78 5.844-1.99-.189-3.81.554-5.44 2.25-.2 3.128-4.68 4.315-6.84 3.25-1.61-.792-3.87.843-4.1 1.813-3.24 2.339-7.35 2.225-7.87.562-1.1-1.166 2.18-5.958 5.03-5.781.61.038 2.64-1.33 4.53-2.969.91-3.268 4.36-2.703 6.53-2.531 2.47.991 4.72-2.213 6.94-2.438zm451.78.5 6.16 17.125-22.03-1.968zm-94.69 19.731c-4.56 5.811-8.76 5.872-15.42 5.563 5.45 6.449 7.85 15.364 2.55 21.206-8.07 8.223-23.62-4.378-22.47-5.531l27.91-37.197c7.41 2.1 11.51 9.024 7.43 15.959zm-606.19-9.701s33.93 29.229 34.17 42.327c.1 4.991-1.5 6.612-5.49 7.934-13.33 4.419-50.43-6.946-50.43-6.946l4.76-9.047c5.84 1.61 34.59 9.05 37.06 5.39 2.57-3.801-24.01-29.727-24.07-29.755zm168.41 12.22 4.06 14.125-13.87-3.437zm541.85 2.532 3.62 19.531-22.22-5.188zm-423.57.312 3.32 11.469c-147.39 68.342-190.43 225.29-113.57 354.812l-8.68 11.938c-102.89-166.707 1.31-335.901 118.93-378.219zm-132.78 12 2 17.406-17.12-1zm-202.83-.457c2.91.041 3.47 1.612 3.46 3.332-.02 2.347-14.89 21.338-19.71 25.612-10.45 4.221-50.78-12.628-56.8-25.665-1.19-3.819 2.8-2.139 11.73-.322 22.62 6.452 45.55-2.408 61.32-2.957zm392.66.224c6.17 0 11.19 4.985 11.19 11.156 0 6.172-5.02 11.188-11.19 11.188s-11.15-5.016-11.15-11.188c0-6.171 4.98-11.156 11.15-11.156zm-464.26 13.752c11.22 10.082 27.7 18.422 42.32 21.331 9.1 2.005 6.46 2.941-1.98 11.656-7.89 8.249-7.25 9.293-15.28 5.217-13.41-6.8-28-22.256-27.41-30.661.24-3.5.85-7.56 2.35-7.543zm837.15 1.887 2.78 18.563-21-7.282zm-583.59 6.688 6.84 16.625-18.62-.532zm473.31 15.875c-.01 2.324-.56 6.25-.56 6.25 10.95-6.971 25.49-1.247 25.06 10.016-.61 15.879-8.37 16.027-21.06 13.921 6.94 11.52-1.3 22.617-14.36 18.371-11.91-3.87-9.61-16.43-4.05-23.871-28.09 4.58-35.59 44.533-3.15 56.406-6.53-10.092-8.14-22.143 6-24.168 13.14-1.881 18.7 8.081 13.03 20.069 12.34-4.29 23.97 2.782 20.26 14.805-4.49 14.518-17.4 13.513-25.01 4.669 5.46 13.161-7.19 22.643-16.74 17.544-15.05-8.039-7.61-22.383 2.48-26.199-38.76-3.992-47.75 49.609-19.18 57.253-7.34-4.599-8.17-25.707 8.58-22.816 16.44 3.308 12.53 18.584 1.98 25.531 12.73-2.718 24.66 8.409 16.91 19.656-9.14 13.259-21.73 3.804-26.41-5.219 1.47 12.101-6.23 19.806-16.13 15.267-17.01-7.79-4.44-27.297 8.85-26.048-26.97-15.933-63.63 17.486-42.03 45.156-.84-12.569 5.42-22.885 14.06-21.462 7.6.857 14.25 9.519 12.11 16.327-1.99 5.805-8.61 10.269-15.55 11.667 20.63 2.287 22.38 16.875 13.84 24.064-14.51 12.208-21.25-1.887-24.62-10.127-2.95 20.481-27.1 13.517-27.93-1.281-.83-16.215 17.88-15.88 21.34-14.969.43-.561-14.48-15.32-30.39-17.42l.09-9.407c62.76-39.355 84.34-108.065 64.42-173.204l3.78-4.344c10.24 7.817 20.5 24.581 39.43 18.433 0 0-4.4-3.1-6.58-5.245-9.74-9.601-4.27-20.907 9.28-21.532 8.78-.404 12.19 6.376 12.25 11.907zm-425.72-.031 6.5 9.531c-95.16 111.478-77.81 239.031-23.09 323.469l-7.97 9.625c-48.43-62.089-87.97-212.62 24.56-342.625zm81.1 15.406c-.13 2.482.05 4.481.05 4.481s2.04-2.544 3.7-5.595c8.13-13.585 25.62-5.767 22.75 9.833-1.35 7.316-13.68 10.175-17.04 8.084 3.2 8.719 11.84 10.768 22.38 14.541 3.68.704 10 2.5 10 2.5l.25 5.906c-57.08 35.958-89.39 96.931-68.47 180.312l-6.31 8.532c-11.52-27.696-22.02-27.09-40.95-28.176 0 0 4.71 3.319 7.42 6.519 5.73 6.784 3.19 18.613-4.75 19.844-18.41 2.852-18.59-10.19-16.16-19.031 0 0-3.29 2.765-4.91 3.812-7.3 4.746-16.39-.182-17.25-9.593-.8-8.858 2.23-14.587 11.35-15.688 3.06-.369 7.78.406 7.78.406s-1.82-3.48-2.81-5.437c-4.37-8.56 5.21-15.885 14-14.037 13.87 3.344 12.78 15.311 4.74 24.717 21.52 1.617 32.8-12.447 31.22-26.414-1.94-17.039-9.78-26.251-26.71-29.22 0 0 2.73 4.287 3.9 6.36 4.33 7.683-1.89 17.116-11 17.063-9.33-.056-15.31-8.616-11.72-17.063.88-2.058 4.38-4.638 3.85-4.875-.37-.163-5.18 1.325-6.5 1.531-11.22 1.749-18.42-8.113-13.72-17.968 3.33-6.981 13.35-8.862 20.62-5.438 1.16.424 2.56 2.045 2.79 1.688.21-.346-.74-2.636-1.04-4.25-2.3-9.028 2.04-13.847 11.82-13.219 13.69.879 18.79 12.033 9.59 22.094-2.37 2.596-6.03 6.434-6.03 6.434.46 1.979 19.54 3.42 29.28-6.778 11.28-11.802 13.05-36.433 1.72-44.469-1.87-1.326-5.63-3.965-5.63-3.965 5.4 10.824-4.53 23.283-13.3 20.955-17.52-4.227-16.01-18.574-4.48-23.107 0 0-11.7-4.368-15.06-9.072-4.76-6.65-3.16-12.78 2.55-17.454 7.2-5.78 17.42-1.994 22.35 5.142 2.98-9.077 7.18-15.208 19.6-10.268 8.68 4.145 8.61 15.732-.95 22.04-3.07 2.022-8.52 3.904-8.52 3.904s8.22 4.682 18.22 4.794c19.29.216 34.56-22.525 26.78-39.906-1.58-3.529-5.52-8.081-5.52-8.081s-.43 6.074-1.63 8.407c-4.46 8.667-14.7 8.823-20.76 3.358-5.51-4.968-3.9-11.618.37-16.147 3.24-3.437 6.16-4.111 10.69-6.217-5.14-1.736-10.86-2.987-13.36-8.303-2.32-5.068-.69-11.305 5.47-15.167 11.12-5.81 19.84 4.027 19.34 11.681zm-382.69-14.027c7.86 4.538 13.1 11.386 20.43 17.371 5.67 4.591 5.61 5.412.92 9.776-10.53 10.162-16.45-4.548-19.86-10.563-4.17-8.056-4.6-16.28-1.49-16.584zm842.53 2.808 1.31 19.656-21.91-8.406zm-603.69 1.156 7.88 17.875-20.35-.093zm425.09.031c19.13 70.667-7.76 121.395-58.78 161.125l-5.65-7.406c39.87-33.876 69.72-73.804 56.53-144.937zm-234.37.313 224.28 4.125-6.72 11.812-17.47.094-34.65 61.25-161.19-.031zm-328.16 51.115c-7.82 12.347-54.41-14.229-53.8-15.63l5.84-5.619c7.4 3.001 30.43 15.704 35.53 13.697 1.78-11.56-11.8-26.529-16.92-36.49l5.7-7.149s29.55 38.249 23.65 51.191zm76.44-44.959-7.75 14.02c-7.26 2.228-29.17 2.62-30.94 4.074 2.65 7.186 5.55 28.295 5.55 28.295l-8.63 11.044c-2.3-13.581-6.14-30.748-9.54-43.339-2.91-10.68-2.09-8.331 20.66-10.094 10.19-.576 20.7-1.867 30.65-4zm46 16.907 9.22 16.375-18.69.187zm-224.59 1.093c1.02-.416 6.8 6.064 7.79 7.934-.42 4.258-7.02 6.586-8.04 5.066-.41-.613-.53-10.164.12-12.812.03-.102.06-.16.13-.188zm846.03.219-.19 20.5-22.22-9.844zm176.41 4.625-.32 13.281c-80.57 39.35-200.75 145.001-235.03 334.5l-7.03-7.75c34.26-180.93 152.51-287.909 242.38-340.031zm-810.47 18.281 10.03 15.094-18.1 1.969zm634.5 5.782-1.79 18.156-21.87-12.125zm-420.91 3.781c.09 4.308.45 7.417.72 11.719-49.65 32.139-66.42 82.721-58.16 146.375l-6.87 10.156c-16.16-57.715.15-128.834 64.31-168.25zm575.62 3.75c5.07 2.968 21.47 7.805 21.47 7.805l-.18 12.07-33.79-12.125zm-970.6 51.36c-7.27 5.924-24.03-3.936-31.64-7.954l-.22-10.187s5.8 2.977 11.65 5.312c12.02 5.328 12.05-1.018 5.47-18.806-2.32-6.255-4.61-13.494-4.61-13.494l7.91-7.494s18.91 42.587 11.44 52.623zm169.6-38.204 12.94 13.531-18.03 4.125zm788.6 1.625c11.45.014 33.53 9.313 33.53 9.313l-.15 13.39c-11.21-3.246-24.23-9.477-36.08-11.224-9.36-1.294-8.81 3.95-8.86 17.177-.07 17.921 4.43 34.111 13 52.032 7.09 14.842 3.4 18.813-8.19 12.187-20.86-14.315-65.31-25.117-72.16-16.789-7.03 8.566 6.82 51.223 22.85 71.57 6.5 8.266 6.91 9.59 3.87 12.813-2.46 2.608-6.44 2.767-13.47.531-23.11-7.355-56.55-9.01-66.19-2.78-9.56 6.185 15.33 48.899 36.22 62.686 13.55 9.668 10.94 14.477-10.97 14.969-35.76.168-63.27 8.142-61.74 17.906 2.59 16.596 25.75 39.357 52.34 51.438 16.27 6.646 9.47 9.289-1.35 13.13-18.09 6.109-35.48 15.888-52.49 25.026l-8.19-10.469s17.12-10.884 35.75-21.343c4.36-2.453 4.14-3.345-1.97-8.469-19.84-16.633-34.4-35.194-37.44-47.688-2.96-12.142 3.1-19.807 21.13-26.656 11.13-4.232 15.23-5.483 25.06-7.687 14.16-3.177 14.4-3.615 8.34-14.5-2.71-4.882-7.16-12.941-9.87-17.907-21.1-36.079-9.97-49.103 39-49.843 12.02-.633 14.31-.669 13.65-4.817-2.6-16.997-10.12-36.515-9.05-50.918 2.24-21.719 24.58-26.97 63.83-17.172 9.1 2.269 9.73 1.809 8.13-5.531-7.6-33.069.32-62.905 21.47-60.375zm-144.06 2.313-3.44 21.062-20.91-13.906zm-781.85 4.968 57.66 3.782-9.16 10.75-34.84-.657-1.31 29.75-11.16 9.563zm373.69 2.282h47.47l-.38 50.187h-47.31zm56.56 0h44.19v50.187l-43.81.469zm52.91 0h47.37l-.43 50.187h-46.91zm413.75 4.002c-1.12 12.904 1.59 36.234 2.68 46.252-.77 2.982-2.84 2.554-15.24-.254-8.61-2.877-32.46-3.723-32.46-3.723l10-10.586c8.17.971 14.62.894 23.08 1.95-.12-8.45.23-24.581.23-24.581zm-767.13 9.935 13.25 13.344-16.96 4.344zm647.47 4.344-5.28 21.469-19.19-17.25zm181.74 11.408.07 10.955-18.87-8.488c-.21 12.495 10.84 35.062 10.84 35.062l-8.96 4.219c-7.77-12.691-13.17-24.093-13.62-38.392.1-5.175-.61-13.928 4.05-14.17 9.6-.226 17.63 3.027 26.49 10.814zm-835.68 10.842 15.76 9.375-17.47 7.062zm647.91 4.812-7.72 22.094-16.84-19.125zm-835.25 7.032 42.5 14.406-7.56 8.031-35.31-11.156zm596.28 5.843 3.5 78.282-224.56-1.844 7.81-11.063 14.6-.125 38.43-64.812zm-411.94 6.094 16.69 11.781-17.34 7.657zm839.69 6.906.03 12.813c-54.22 40.056-112.83 109.09-122.81 231.156l-14.62 12.5c7.14-119.187 56.77-201.357 137.4-256.469zm-197.81.469-7.88 19.875-15.59-18.5zm152.79 27.025-5.23 5.85c-1.47.491-22.15-10.589-38.4-13.187 5.32 10.525 7.84 18.383 19.62 35.062l-7.59 7.5c-2.29-.508-31.76-44.029-23.96-53.853 12.66-8.525 43.35 9.352 55.56 18.628zm-88.18-23.361c-.33 11.815 9.23 48.486 9.23 48.486-14.78.728-29.12-.966-45.07 3.512l7.51-13.407s6.95-.723 13.03-1.931c12.57-2.497 11.27-.985 8.35-11.913-2.75-10.276-2.9-12.415-2.9-12.415s8.95-12.397 9.85-12.332zm-828.77 12.68c19.4 117.524 65.77 198.224 138.91 270.844l-7.44 9.718c-85.98-78.682-132.91-178.824-145.19-273zm121 4.937 15.82 8.625-16.25 9.469zm840.76.344-.1 17.243-9.91-9.993c2.68-2.417 5.92-4.833 10.01-7.25zm-208.44 3.531-10.78 19.782-14.08-18.742zm207.28 44.751c-2.22-3.487-21.96-15.762-30.91-20.911-.58-1.514 13.87-14.414 16.73-15.306 14.35 1.994 18.95 30.641 14.18 36.217zm-839.38-21.501 17.88 8.719-16.22 11.438zm594.69-.01 22.94 2.166-12.19 18.938zm212.34 8.416c2.98.019 6.33 1.268 10.5 3.594 16.16 9 24.65 18.863 23.75 27.625-.41 4.024-2.66 4.832-5.28 1.906-4.71-5.27-20.61-12.131-34.31-14.812-10.38-2.032-11.33-2.918-8.22-7.719 4.72-7.283 8.61-10.625 13.56-10.594zm-276.4 8.313c24.85 94.089 68.53 166.495 123.37 226.094l-11.37 9.687c-41.64-47.774-87.44-103.685-124.85-224.562zm49.61 5.029 22.95 3.471-13.44 17.125zm-323.77 1.002c2.66.09-7.9 40.141-44.37 42.906-23.09 3.833-25.69 7.717-26.04 43.657-.47 48.717-8.33 60.114-48.15 63.125-26.37 1.993-29.84 7.359-25.38 45.218 4.25 36.035-9.37 54.408-42.97 54.375-29.09 2.41-41.12 15.98-41.09 42.938.01 10.921.19 13.562.19 13.562l-18.81 1.469s.05-17.746 1.47-26.375c5.73-34.877 20.67-48.843 52.15-48.687 24.34-1.852 28.12-5.798 27.28-42.688-.94-37.523-1.45-37.267 8.35-47.094 6.3-6.327 13.5-9.171 26.28-10.375 39.8-3.749 42.94-6.406 42.84-47.218-3.69-33.907 5.68-54.668 27.22-56.375 43.58-3.455 42.55-27.111 40.62-28.094l20.29-.313c.05-.019.08-.032.12-.031zm89.13 0c25.56 137.852 106.43 266.945 150.81 314.594l-8.66 4.594c-64.69-80.343-123.48-172.606-152.56-318.969zm-46.16.063 20.22.218-232.91 327.782-12.28-9.25zm28.25.218c21.88 79.457 39.1 157.154 107.91 261.094l-291.88-1.906zm80.59.313c1.7-.787 8.56 40.203-1.66 59.127-9.19 25.613-4.7 40.041 15.29 49.373 34.32 16.024 42.98 32.024 38.62 71.375-3.04 27.552 5.3 40.866 31.16 49.719 30.85 10.559 44.35 27.155 44.19 54.344-.03 4.174-1.6 8.937-1.6 8.937l-17.22 10.125s.22-3.699.88-8.125c4.49-30.142-1.23-38.317-36.81-52.531-33.61-13.425-41.94-28.948-36.22-67.656 1.87-12.625-.71-25.39-5.94-35-8.79-15.665-28.24-15.508-42.22-29.813-11.55-12.25-12.83-29.359-2.99-58.65 6.1-18.155 7.02-25.036 2.27-40.162-3.12-9.963-4.34-10.844-4.34-10.844zm-405.37 4.375 19.81 5.469-14.9 15.469zm786.36 4.104c6.8-.186 19.94 2.194 30.7 7.552 24.69 12.296 29.17 22.374 7.53 16.938-12.2-3.066-29.74-2.372-46.65 1.812-17.89 4.422-17.5 4.621-11.35-6.187 7.8-13.686 9.83-19.845 19.77-20.115zm-44.81 14.52-4.49 7.72c-9.81-1.626-20.12-6.439-35.07-5.255 6.13 11.724 13.39 17.79 23.13 28.13l-3.62 7.745c-.88 1.048-28.47-21.965-34-37.433-2.5-6.985-.23-10.025 9.81-10.281 14.97-.228 30.06 4.054 44.24 9.374zm-368.68-7.586c7.4 0 13.38 5.983 13.38 13.375 0 7.391-5.98 13.406-13.38 13.406-7.39 0-13.37-6.015-13.37-13.406 0-7.392 5.98-13.375 13.37-13.375zm188.5 3.624 22.6 4.057-15.06 16.875zm-422.59.167c5.35-.425 13.61 9.935 13.58 9.952l-27.39 37.837c-13.03-2.622-10.25-22.364 1.69-22.965 2.76.016 7.8.486 7.8.486s-3.68-2.005-5.79-4.811c-8.01-9.663-.43-19.661 10.11-20.499zm511.18-3.384s21.8 43.127 20.41 44.774c-13.51 5.956-28.27 9.033-43.12 14.447l2.86-12.539s4.94-.352 21.54-6.677c7.96-3.029-8.67-25.129-8.67-25.129zm-150.84 12.743c31.82.264 32.22 39.306 26.13 52.218-4.43 8.861-11.17 13.77-31.53 22.969-17.65 7.973-19.63 7.438-19.63 7.438l-4.22-9.407s10.28-4.532 21.35-9c22.88-9.237 28.44-16.297 25.93-32.843-3.54-23.428-21.64-27.076-56.65-11.375-4.06 1.821-9.19 3.656-9.19 3.656l-2.4-4.719c.55-.465 28.03-14.865 43.43-18.437 2.41-.347 4.66-.518 6.78-.5zm-492.06 4.25 18 5.937-13.12 12.906zm801.85 5.031c15.9-.044 29 2.641 28.96 8.312-.01 2.692-.62 2.927-14.91 4.907-21.71 3.01-57.99 21.539-78.4 38.736-12.09 10.185-8.97 7.809-3.87-6.955 5.06-14.687 12.62-32.221 16.72-34.896 10.23-6.683 33.47-10.054 51.5-10.104zm-260.1 2.031 15.31 3.344-9.97 9.656zm-51.31 8.313c5.48-.081 8.19 2.505 10.34 7.75 4.66 11.337.06 17.991-17.69 25.593-8.04 3.601-15.22 8.669-24.03 10.282l-11.15-29.938s3.52-1.294 15.12-6.094c13.23-5.47 21.93-7.513 27.41-7.593zm-51.75 3.625c35.41 100.186 78.76 165.263 124.62 219.187l-11.09 6.938c-48.71-57.628-93.54-125.158-125.84-224.563zm49.12 3.562c-4.29.121-10.72 2.719-19.31 6.031-12.49 4.818-13.56 10.641-7.97 17.844 2.44 3.142 4.97 2.443 16.97-2.312 12.26-4.857 17.54-7.012 18.28-11.375 1.07-6.362-2.45-10.343-7.97-10.188zm344.32 1.367c-.02 4.202-63.71 64.573-100.14 95.312-16.6 14.005-16.03 13.894-17.44 12.165-.9-10.406 6.16-47.556 10.44-54.034 24.33-25.758 61.86-46.716 98.38-54.595 5.74-1.147 9.3-1.026 8.76 1.152zm-343.19 2.008c2.29.073 4.27 2.051 4.25 4.594-.01 1.947-2.83 3.829-5.75 3.812-1.04-.006-3.57.578-5.16 2.219-1.57 2.283-2.59 4.477-5.43 3.938-1.66-.315-4.72-.416-5.91.625-5.59 4.869-11.15.826-8.56-4.063.65-1.232 2.91-1.855 4.75-1.844 1.59.009 5.22-.358 5.75-2.312.63-2.333 4.19-2.984 6.68-2.906 2.71.363 4.9-.994 5.6-2.125 1-.901 2.19-1.817 3.31-1.907.15-.012.32-.036.47-.031zm-481.66 1.063 20.28 2.75-12.78 16.375zm193.61-.275c7.39 0 13.4 5.983 13.4 13.375 0 7.391-6.01 13.406-13.4 13.406s-13.38-6.015-13.38-13.406c0-7.392 5.99-13.375 13.38-13.375zm211.23 10.599c7.39 0 13.38 5.984 13.38 13.375s-5.99 13.375-13.38 13.375-13.37-5.984-13.37-13.375 5.98-13.375 13.37-13.375zm-395.77 15.113 22 1.406-12.6 16.844zm116.15 3.219c7.39 0 13.37 5.984 13.38 13.375 0 7.391-5.99 13.375-13.38 13.375s-13.37-5.984-13.37-13.375 5.98-13.375 13.37-13.375zm549.63 8.344c9.17-.148 19.81.781 19.81.781l-2.57 10.29c-11.18 1.068-25.56-2.039-37.56 2.979 4.46 7.288 30.58 17.603 33.47 20.173.27 1.083-2.15 10.901-2.15 10.901.7 2.506-44.2-18.226-45.69-35.718.04-5.933 19.39-9.161 34.69-9.407zm-154.41 10.687c25.51.235 38.1 35.854 28.19 51.625-3.93 7.128-12.79 15.585-24.47 23.031-5.62 3.582-20.5 10.875-20.5 10.875l-6.69-10.343s5.94-2.384 11.53-5.438c14.06-7.936 42.57-24.847 28.78-47.875-7.73-12.462-19.32-14.899-43.37-2.687-17.96 9.116-22.03 9.968-22.03 9.968l-4.57-8.25c1.2.683 35.86-20.178 53.13-20.906zm-498.06 3.719 20.03.031-8.56 18.062zm580.25-2.375c12.18 23.567 33.02 41.373 38.71 45.651 0 0-20.75 13.328-33.15 21.818l-7.28-8.563 17.8-15.278-20.05-27.972zm195.45 5.678c-2.26 11.641-2.62 23.997-3.57 37.594 4.39 4.011 8.34 6.018 11.79 5.786 3.88-12.228 6.66-26.116 4.82-40.415-3.67-2.861-8.49-2.541-13.04-2.965zm10.04 8.852c-.06 7.676 1 17.26-2.28 24.665-1.87 4.214-6.13 2.629-6.28-3.098-.2-7.748 1.38-14.249 1.82-21.307.26-4.025 2-6.433 4.4-5.501 2.5 1.209 2.29 2.993 2.34 5.241zm-289.21 5.282c13.15.981 18.22 11.978 13.37 19.875-11.88 15.183-24.03 17.937-39.62 26.719l-15.56-29.094s30.28-17.09 41.81-17.5zm-.36 6.496c-8.7 1.016-14.2 5.259-21.51 8.844-8.95 4.383-11.86 11.168-5.79 17.317 6.7 7.466 30.09-10.327 33.95-14.628 2.37-3.69 1.98-7.06-1.35-9.716-1.45-1.151-3.24-1.801-5.3-1.817zm-479.74 1.223 19.6.219-10.6 14.969zm481.53 3.063c3.34 2.366 3.05 6.611-1.65 7.812-2.38.609-6.48.623-6.57 3.793-.07 2.364-3.68 3.252-5.74 2.916-2.11-.343-5.67-.524-6.36 2.115-1.8 3.592-3.15 3.653-5.67 1.145-2.71-2.737-1.45-6.203 3.84-6.782 2.26-.246 4.22-1.891 5.03-3.625-.12-2.244 1.45-3.545 3.94-3.031 3.51-.037 5.81-1.335 8.31-4.613 1.75-.82 3.67-.576 4.87.27zm-114.64.386c7.39 0 13.38 5.984 13.38 13.375s-5.99 13.406-13.38 13.406-13.37-6.015-13.37-13.406 5.98-13.375 13.37-13.375zm-285.67 24.614c7.4 0 13.41 6.015 13.41 13.406s-6.01 13.375-13.41 13.375c-7.39 0-13.37-5.984-13.37-13.375s5.98-13.406 13.37-13.406zm-320.09 11.875 153.22 104.781-10.47 15.281-142.31-96.781zm769.28 3.406c9.97.008 17.66 5.745 25.09 17.312 14.77 22.97 7.36 41.084-23.21 59.594-14.21 8.6-14.32 8.688-14.32 8.688l-7.21-8.907s10.34-6.085 14.62-8.781c25.14-15.878 32.2-29.93 21.16-45.75-10.65-15.245-21.84-14.028-52.88 5.719-6.28 3.992-13.78 7.125-13.78 7.125l-6.81-9.25s17.57-9.034 23.56-12.844c13.75-8.783 24.98-12.913 33.78-12.906zm114.22-3.947.1 10.07c.33.453-20.83 9.783-33.23 15.4-4.02 2.194-2.45 6.466-2.21 10.859l-5.97 4.036s-8.25-6.02-9.33-9.882c-3.02-12.197 35.81-26.797 50.64-30.483zm-221.21 10.823c7.39 0 13.4 5.984 13.4 13.375s-6.01 13.406-13.4 13.406-13.38-6.015-13.38-13.406 5.99-13.375 13.38-13.375zm-415.09 3.755c7.39 0 13.37 5.984 13.37 13.375s-5.98 13.375-13.37 13.375-13.38-5.984-13.38-13.375 5.99-13.375 13.38-13.375zm521.52 10.681c5.08-.183 8.89 3.131 10.97 8.188 5.32 12.942-1.92 22.521-28.1 37.187-2.19 1.231-6.84 3.75-6.84 3.75l-19.28-26.625s6.79-4.669 13.19-8.5c14.34-9.38 23.53-13.764 30.06-14zm-2.56 6.375c-1.24.033-2.66.512-4.32 1.469-6.72 3.872-17.95 8.079-23.25 15.094-3.09 4.292-1.69 8.558 4.19 14.062 4.98 3.293 30.67-15.628 31.31-21.125-2.17-5.817-4.23-9.599-7.93-9.5zm-765.07 1.438 4.28 2.875-4.28 3.375zm769.15 4.662c1.9 2.315.76 6.242-3.27 6.931-2.03.348-5.03.904-6 3.907-.81 1.978-3.58 3.663-6.31 3.593-3.16-.726-4.82 1.181-4.99 2.569-1.55 2.652-5.39 3.079-7.73.588-1.83-1.942 1.44-7.529 3.59-7.447.39.181 2.75.716 5.62-3.115.58-2.785 3.82-4.49 6.17-4.39 2.39.814 3.79-1.829 4.74-3.292 2.2-1.163 6.64-1.156 8.18.656zm-758.96 2.025 6.16 4.156-16.35 11.594v-9.344zm11.94 7.813 8.37 5.593-30.5 21.844v-11.844zm15.62 9.968 8.85 5.844-46.6 31.469v-12.125zm16.79 8.5v10.125l-54.54 38.063v-10.25zm6.15 7.282 11.75 8.031 2.94 343.125-73.47 50.47.06-15 61.69-44.6zm886.29 9.275c-16.48 18.812-38.58 20.081-57.85 19.568-51.93.726-84.18 3.496-90.85 65.423 21.16-15.815 43.59-17.857 69.57-17.11 32.89-.046 47.69-2.203 61.06-8.875 21.48-10.717 35.06-29.912 32.47-43.374-2.55-2.907-9.23-14.913-14.4-15.632zm-892.44 3.006v11.875l-54.54 36.531v-12.062zm622.66 1.1c7.39 0 13.41 5.984 13.41 13.375s-6.02 13.375-13.41 13.375-13.37-5.984-13.37-13.375 5.98-13.375 13.37-13.375zm-355.98 1.369c96.35 2.995 300.97 1.843 300.97 1.843l10.91 15.719-321.72-3.375zm625.22 10.312c-11.53 11.304-23.48 16.834-61.37 16.156-40.04-.715-55.64 5.61-66 23.438-3.02 5.181-2.95 7.199 1.4 3.28 3.66-4.347 11.98-12.726 15.42-4.793 6.8-4.45 12.68-11.23 16.24-2.661 1.97-.438 13.51-11.994 16.24-1.757 5.51-6.163 10.24-8.095 12.82.649 7.84-3.715 12-10.752 16.46-1.026 6.31-4.52 11.1-10.167 14.78-1.563 5.39-1.585 10.87-11.463 13.98-3.592.58.192 20.05-11.516 25.56-23.1 4.52-10.216 8.67-3.435 3.53 7-13.19 25.559-35.76 34.89-87.56 34.969-31.44.034-44.45 3.116-54.32 8.874-15.86 9.249-7.32-14.03 3.79-28.155 14.01-17.8 29.98-23.063 73.72-21.469 23.91.14 39.19-3.159 45.65-8.375 5.49-4.424 9.46-7.422 12.41-7.618 2.94-.196 3.34 3.772-2.75 9.743zm-707.92-4.328c7.39 0 13.41 6.015 13.41 13.406s-6.02 13.375-13.41 13.375-13.37-5.984-13.37-13.375 5.98-13.406 13.37-13.406zm-183.98 9.922v12.062l-54.54 37.219v-12.344zm263.65 5.781h42.31v44.656h-42.31zm94.81 0h45.54v44.656h-45.54zm101.35 1.438h43.93v43.218h-43.93zm95.19.875 29.24 1s16.24 20.66 23.1 30.187l-21.63 11.094-30.71.062zm-271 3.031c-8.23 0-14.91 6.646-14.91 14.875s6.68 14.906 14.91 14.906c8.22 0 14.9-6.677 14.9-14.906s-6.68-14.875-14.9-14.875zm97.29 1.47c-8.23 0-14.91 6.646-14.91 14.875s6.68 14.906 14.91 14.906 14.9-6.677 14.9-14.906-6.67-14.875-14.9-14.875zm99.5.386c-8.23 0-14.91 6.646-14.91 14.875s6.68 14.907 14.91 14.907 14.9-6.678 14.9-14.907-6.67-14.875-14.9-14.875zm-237.48 3.019c2.94 2.095 4.87 5.492 4.87 9.375 0 6.381-5.18 11.563-11.56 11.563-2.25 0-4.35-.64-6.12-1.75zm40.69.156c5.44 0 9.87 4.398 9.87 9.844s-4.43 9.875-9.87 9.875c-5.45 0-9.88-4.429-9.88-9.875s4.43-9.844 9.88-9.844zm295.84.407c-8.23 0-14.91 6.646-14.91 14.875 0 8.228 6.68 14.906 14.91 14.906s14.9-6.678 14.9-14.906c0-8.229-6.67-14.875-14.9-14.875zm-247.56.437c6.61 0 11.96 5.361 11.96 11.969 0 6.607-5.35 11.969-11.96 11.969s-11.94-5.362-11.94-11.969c0-6.608 5.33-11.969 11.94-11.969zm197.15-.469c6.61 0 11.97 5.361 11.97 11.969s-5.36 11.969-11.97 11.969-11.93-5.361-11.93-11.969 5.32-11.969 11.93-11.969zm-529.43 1.281v12l-54.54 38.094v-11.812zm381.29-.186c5.45 0 9.87 4.397 9.87 9.844 0 5.446-4.42 9.875-9.87 9.875s-9.88-4.429-9.88-9.875c0-5.447 4.43-9.844 9.88-9.844zm99.5.387c5.45 0 9.87 4.397 9.87 9.843 0 5.447-4.42 9.875-9.87 9.875s-9.88-4.428-9.88-9.875c0-5.446 4.43-9.843 9.88-9.843zm-49.89 1.237c6.61 0 11.97 5.361 11.97 11.969 0 6.607-5.36 11.968-11.97 11.968s-11.97-5.361-11.97-11.968c0-6.608 5.36-11.969 11.97-11.969zm148.94 2.344c5.45 0 9.87 4.397 9.87 9.843 0 5.447-4.42 9.875-9.87 9.875s-9.88-4.428-9.88-9.875c0-5.446 4.43-9.843 9.88-9.843zm-424.13 10.343c25.4-.297 52.88 12.602 68.38 34 23.45 31.361 39.13 71.354 46.25 123.843 3.52 26 15.65 104.06 22.53 122.5l-9.47-1.81c-1.28.61-13.43-49.1-21.09-114.75-2.84-24.32-8.01-55.7-22.13-84.345-16.12-32.707-43.49-67.372-80-70.125-21.29-1.606-41.28 11.735-43.44 30.531-3.06 14.848 5.65 28.68 17.07 33.313 11.21 4.55 24.62 1.157 26.12-14.125.26-2.512 0-5.041-.93-7.375 5.19-.844 9.14 1.496 11.24 5.875 1.1.137.05 22.167-17.28 26.5-20.9 6.843-45.03-13.85-46.9-34.938-1.43-17.763 12.09-39.708 29.12-45.656 6.48-2.26 13.42-3.354 20.53-3.438zm-155.71 6.844v12.25l-54.54 37.625v-12.344zm156.9 7.781c30.51-.867 60.21 33.134 72.78 55.532 13.13 23.377 23.52 60.506 27.1 95.436 6.09 59.42 17.47 108.01 19.87 110.22l-8.31-1.81c-1.74 1.16-13.21-52.47-20.19-112.19-3.91-33.49-16.34-66.696-31.12-92.281-13.65-23.613-32.04-41.252-53.82-43.813-13.65-1.371-27.68 2.571-30.43 16.938-1.46 8.44 2.95 16.716 12.96 17.437 2.37.17 4.62.364 5.04.438 5.3.944-3.03 9.544-8.5 8.781-19.56-2.724-28.57-28.852-13.16-42.75 9.02-8.131 18.44-11.672 27.78-11.938zm65.31 8.719 342.53 3.469s.29 6.133-21.03 5.125c-18.12-.857-29.82 1.675-41.84 5.531l-269.13-.593zm-222.21 3.969v11.375l-54.54 38.156v-12.562zm159.18 4.813c6.58-.09 13.29 1.604 18.35 4.531 42.42 24.572 58.63 85.576 64.21 123.966 7.63 56.87 16.43 109.7 18.88 111l-9.25-2.09c-1.23.04-11.35-49.26-17.66-104.5-5.09-44.66-20.36-89.507-50.65-108.376-19.44-13.227-23.26-14.566-32.25-6.844-7.76 6.662-15.66-3.367-9.16-11.531 4.49-4.193 10.95-6.067 17.53-6.156zm-159.18 15.406v9.344l-54.54 37.968v-11.062zm249.31.25c.7-.647 29.47 48.198 38.56 125.191 4.79 40.53 18.49 109.65 20.69 110.22l-9.97-1.07c-10.19-40.76-15.84-79.35-21.28-114.12-6.16-39.35-11.11-74.296-35.63-119.909l7.6-.25c0-.035.02-.052.03-.062zm6.53.406 8.9.125c15.24 29.006 31.44 74.06 37.04 119.22 4.83 39.01 9.72 78.69 23.68 120l-9.56-2.63c-11.99-33.53-16.24-74.06-22.69-116.06-7.13-46.43-18.31-86.853-37.37-120.655zm54.97.063c15.58 40.357 25.72 59.612 32.84 109.282 5.53 38.55 13.33 86.77 31.09 137.84l-9.02-.39c-13.16-35.25-23.23-82.47-27.85-127.83-6.27-61.598-33.93-119.108-34.19-118.746zm-15.35.156c.84-1.255 29.72 56.51 36.41 119.996 4.45 42.25 14.33 84.05 27.91 124.41l-9.22-.2c-10.65-12.31-18.62-70.65-27.41-125.11-8.97-55.58-21.6-89.781-35.62-119.002h7.9c0-.05.02-.074.03-.094zm-23.28.062 8.19.031c21.41 46.802 30.31 74.653 36.91 119.903 8.34 57.24 16.35 108.87 25.22 122.32l-10-.66c-13.8-41.25-20.02-82.46-24.91-123.72-5.3-44.67-18.14-82.938-35.41-117.874zm45.19.375 9.72.157c16.75 33.936 30.68 75.212 35.59 122.402 2.7 25.59 7.41 64.87 26.63 125.47l-7.78-.5c-15.75-40.64-25.21-88.47-30.85-130.18-5.69-42.08-15.74-76.799-33.31-117.349zm59.87.282c9.19 23.535 16.76 46.91 21.72 70.967l-5.5 10.72c-8.61-31.755-18.32-56.481-27.96-81.531zm-44.34.031 11.84.281c20.35 47.218 30.8 97.155 33.66 113.905 0 0 2.82 14.83 3 19.69-.68 41.26 6.46 70.69 21.81 115.06l-7.03-.5c-17.82-51.56-22.63-88.19-27.18-123.19-3.78-43.99-18.09-89.322-36.1-125.246zm27.34.375c12.13 30.265 21.37 59.451 29.79 88.661-.38 6.63-1.03 13.88-5.35 19.24-9.88-35.72-18.23-72.835-33.5-107.839zm22.38.25 9.38.156 18.68 53.531-7.31 8.094c-5.49-17.723-11.11-37.207-20.75-61.781zm54.72.375 6.84 16.093-7.37 6.25s-7.53-15.061-9.5-22.156zm13.9 0 3.44 9.281-6.18 4.719-4.82-13.813zm-53.68.187 9.65.063c3.9 11.243 14.29 38.781 14.29 38.781l-6.94 7.281s-13.08-34.81-17-46.125zm14.97 0 8.56.094c2.58 7.308 10.59 27.531 10.59 27.531l-5.9 5.625zm44.78.375 8.47.406-1 2.094-5.28 2.625zm-277.75 11.906c35.47 18.7 45.24 74.708 49.09 105.498 6.71 53.74 14.25 97.45 15.85 98.63l-7.88-1.25s-5.82-27.61-9.84-53.88c-3.35-21.85-5.94-40.15-6.85-48.53-.56-5.23-1.44-11.33-1.93-13.53-4.96-22.07-6.55-27.13-12.94-40.56-6.14-12.899-8.3-16.13-18.5-27.628-3.92-4.413-7.73-7.64-9.06-10.468-1.91-4.042 2.06-8.282 2.06-8.282zm-179.56 2.875v10.563l-54.54 38.5v-12.063zm0 18.532v12.156l-54.54 35.965v-10.78zm0 20.718v11.283l-54.54 38v-11.66zm91.06 11.403h4.81l.34 7.91-7.43-.47zm-91.06 9.75v12.07l-54.54 36v-11.25zm85.43 4.6 11.53.12-.12 8.28-14.81-.5zm-6.69 13.28 18.94.34v7.88l-23.47-.38zm-78.74 1.72v12.65l-54.54 36.25v-12.71zm69.09 13.15 27.72.32-.16 6.59-33.09-.22zm-69.09 7.35v12.37l-54.54 34.91v-11.13zm57.53 5.87 38.06.53-.94 6.38-43.41-.19zm-57.53 13.47v11.91l-54.54 35.5v-11.44zm43.24 0 50.1 1.16 10.56 9.59-77.97.47zm-15.15 17.56 86.12 1.07 6 5.56-92.4.34zm-28.09 2.72v12.63l-54.54 35.72v-11.54zm28.18 11.1 95.44.43-6.91 7.66-88.65.25zm-28.18 9.56v11.56l-54.54 37v-13.28zm25.81 6.03 82.5.28-9.69 7.6-57 1.31zm-25.81 14.28v11.03l-54.54 39.07v-12.38zm49.93 1.41 48.44.22.91 6.5-41.66-.1zm13.41 13.4 37.19.38 1.75 8.41-33.1-.44zm-63.34 5.88v10.25l-54.54 38.06v-11.34zm103.09 8.41.44 8-22.19.84-6.25-8.38zm-.19 14.18-.19 8.41-15.47.25-3.46-8.1zm-13.75 14.97 12.19.09-1.03 6.47-9.44.13zm3.66 15.53h5.93l-1 5.06h-3.03zm120.62 85.56-2.84 3.66h85.25l.94-3.66zm109.91 0-1.5 4.94h38.47l1.06-4.94zm62.84.97-1.18 4.66h98.34l-1.63-4.66zm117.66 0 2 5.66h33.09l-2.19-5.66zm114.17 0-58.08.03 2.1 6.32h60.06z" transform="matrix(.155159 0 0 .155159 -139.84 85.869)"/></g></svg>