<svg clip-rule="evenodd" fill-rule="evenodd" viewBox="0 0 228 316" xmlns="http://www.w3.org/2000/svg"><path d="m2090.89 600.582c0-5.867-4.77-10.63-10.63-10.63h-201.97c-5.87 0-10.63 4.763-10.63 10.63v290.551c0 5.867 4.76 10.63 10.63 10.63h201.97c5.86 0 10.63-4.763 10.63-10.63z" fill="#fff" stroke="#bfbfbf" transform="matrix(.999995 0 0 .999995 -1865.599 -587.895)"/><g fill-rule="nonzero"><path d="m1327.12 110.531-.24 1699.089 1052.09 2.29.62-1700.16zm334.16 9.938 476.69 1.75s-54.61 70.653-65.91 102.812c-8.77 11.257-12.75 9.215-27.22 6.282-38.74-10.131-104.04-9.942-136.46-10.532-61.23-2.731-116.23 16.248-177.54 19.344-21.18-35.421-51.9-79.887-69.56-119.656zm-320.97 3.094 306.57.906 71.87 131.156c2.61 3.647.12 11.172-1.44 15.406-8.87 24.975-16.71 39.45-34.65 69.219-17 28.195-23.1 54.017-17.07 71.375.91 2.133 1.69 5.368 1.38 8.094-.99 8.656-8.26 18.674-18.16 25.531-6.72 1.079-20.69 1.94-28.78 9.938-6.93 6.854-12.61 16.885-11.72 35.218.42 6.557 1.25 10.719 1.25 10.719-91.41 38.032-156.92 82.586-154.75 84.219-.86-.396-80.35-36.977-113.43-46.031zm814.66 2.312 210.15.188 1.26 599.687-80.66-52.281c6.61-4.607 10.7-7.34 17.66-12.063 1.23-.374 3.57-.411 5.09-.75 14.05-3.132 23.84-13.64 18.97-24.531-3.31-7.394 1.21-6.943 5.28-12.969 4.58-6.783 3.63-12.824.72-18.531-1.45-2.832-.65-3.953 1.78-9.187 6.43-7.981 1.78-21.481-6.53-25.844-.87-1.285.91-3.271 1.31-5.125 2.35-10.814-1.96-20.307-11.31-22.719-4.82-1.241-6.42-2.078-4.72-6.375 3.01-7.626-.96-10.461-7.22-12.937-10.53-4.167-7.55-4.834 5.47-10.688 26.65-11.983 32.93-47.609 14.59-79.937-2.33-4.111-8.56-13.756-12.78-20.219-4.93-7.554-9.72-14.063-9.72-14.063l35.28-49.187s-24.56-29.097-33.31-45.188c2.06-7.942 26.65-32.882 29.84-57.093 5.01-37.963-23.82-62.259-51.09-59.407-18.91 1.979-42.18 14.077-40.44 49.219.55 10.916 4.81 22.19 12.53 35.844 5.4 10.215 12.4 21.027 19.1 31.406l-35.5 48.531 35.87 45.438s-.47.731-1.25 1.969c-3.57 5.677-13.94 22.391-18.43 32.187-13.23 26.16-17.92 54.88 9.25 75.125 4.75 2.918 8.41 5.4 10.43 7.406 2.67 2.645 1.01 4.655-3.28 5.657-5.04 1.064-10.18.993-15.5 3.093-17.03 6.215-34.1 16.244-46.25 26.063-6.81 5.511-17.8 22.956-24.5 37.125-7.28 15.399-9.31 18.812-9.31 18.812l-124.78-79.875s-3.17-2.502-4.03-3.468c-2.33-2.603-1.49-4.113.12-7 1.37-2.446 1.42-9.635.82-15.094-.18-10.469-.1-10.51 5.93-20.125 2.13-3.388 3.01-6.773 1.78-12-1.95-5.873-2.14-4.002 1.6-8.031 1.45-1.794 3.21-2.681 3.5-4.625.38-2.603.14-7.145.19-15.625.09-16.996-.14-15.595 9.4-23.063 11.86-9.276 16.27-13.649 18.16-17.844 2.7-6.013 0-10.551-6.66-22.562-3.04-5.487-7.75-12.894-10.03-17.031-4.26-7.438-10.41-17.232-13.34-26.594-4.44-7.19-3.77-19.65.34-26.969 5.15-9.187 6.59-14.74 6.41-33.312-.17-17.215-1.42-15.612 2.96-21.375 32.79-43.393 84.85-124.063 84.85-124.063zm133.56 63.469c.7-.001 1.42.029 2.13.062 10.32.491 20.57 3.808 30.09 13.032 12.95 12.982 12.07 31.687 7.81 51.156-1.96 5.654-3.42 11.403-7.4 17.312-2.22 3.288-4.03 6.338-4.04 6.75 0 .412-3.19 5.546-7.09 11.438-3.81 5.756-8.19 13.781-8.19 13.781s6.1 10.938 16.91 24.625c8.16 12.12 13.44 22.682 14.06 22.063 0 0-2.07 5.24-4.9 8.968-8.58 11.263-24.37 34.763-25 37.219-.16.591-1.78 1.194-1.75 1.781.11 2.182 3.24 4.768 7.96 11.25 28.5 39.129 32.54 72.162 11.13 91.563-10.65 9.653-21.16 12.68-32.44 11.469-20.66-2.22-39.73-19.851-37.5-45.563 1.01-11.812.39-15.333 7.35-29.062 3.14-7.73 10.24-20.977 14.96-27.657 4.14-4.795 8.54-11.625 8.54-11.625s-10.14-15.615-28.78-37.562c-3.37-4.013-5.44-9.438-5.44-9.438l31.94-47.312s-3.72-9.18-9.94-18.469c-12.77-19.048-21.01-39.299-20.93-50.696.19-28.404 18.76-45.043 40.52-45.085zm79.53 675.906c-18.86 10.032-37.22 44.285-1.33 20.398l.89 19.696c-18.66 26.489-55.15 7.07-45.87-20.358-25.2 3.265-29.13-22.313-27.85-34.481-33.14-7.221-21.69-42.318-21.69-42.318-19.15-16.007-22.51-32.773-7-50.447-15.68-9.754-20.1-16-37.33-23.084 13.21 117.528 76.64 178.568 143.4 232.969 0 0 1.48 37.845-6.16 30.875-95.32-71.225-156.6-152.673-167.15-284.417-.8 2.069-45.19-34.362-52.53-32.427-15.39 213.335 154.45 353.564 225.09 381.204 0 0 1 29.72-.22 29.83-107.04-46.7-226.07-183.738-249-346.784l-63.15 97.813-23.66-10.125 102.12-160.906-69.06-43.282-112.43 178.156s-2.99 14.855 5.15 14.626c157.83 16.886 392.55 206.502 313.91 515.122-6.82-2.69-17.68-7.98-18.22-7.75 12.33-26.59 46.75-198.89-56.78-338.06-47.43-63.763-121-131.625-239.03-151.656 9.75 20.128 5.5 65.781 5.5 65.781l27.5 5.563c-9.28-9.81-17.04-17.891-20.72-28.532-5.15-16.576 2.4-26.393 20.75-16.531 7.29 4.089 9.12 3.931 16.22-1.344 14.77-10.984 31.64.327 27.75 18.594-.58 2.699.14 4.4 7.15 5.031 15.9 1.581 31.91 9.46 42.28 21.813 5.09 6.514 6.24 5.547 10.75 1.625 11.1-9.633 29.47 3.715 26.19 18.625-1.87 8.523-.84 10.563 3.09 12.219 21.68 9.112 27.01 14.861 33.76 33.843 2.47 6.954 4.5 9.24 5.78 8.844.89-.277 4.46-1.469 7.59-2.656 16.18-6.129 25.66 13.441 14.19 28.781-2.35 3.14-.61 6.16 3.56 8.44 13.47 7.35 22.63 24.9 24.22 43.31.61 7 1.34 7.01 8.34 6.72 17.92-.75 26.45 23.44 11.88 32.34-5.08 3.1-4.13 7.1-.19 11.78 10.45 12.4 12.89 21.35 11.97 35.47-1.23 18.81-.03 18.44 5.97 20.72 17.41 6.63 14.16 34.46-2.91 34.36 12.3 28.65-3.9 63.59-3.37 64.23 32.81 18.47 3.18 38.08-6.35 34.63 0 0-4.86 12.87.66 19.5-28.78 38.08-66.46 44.4-108.19 63.31l-1.31-134.06c17.36 13.97 34.56 27.01 51.75 40 0 0 4.36-1.31.39-4.98-7.65-7.06-26.88-19.5-32.27-24.46-11.61-8.81-54.18-49.51-61.75-59.15-3.39-6.43-8.51-2.71-8.37-2.32 5.09 8.79 8.88 19.04 15.48 28.18 14.23 19.73 28.05 41.66 26.61 63.36-.03 12.14-4.86 24.68-7.56 30.78-2 8.33-15.28-1.42-11.94-8.44 5.91-19.23 10.8-34.98-10.31-65.88-10.29-15.06-23.63-42.4-23.63-42.4l-8.53 2.06.32 174.91c-7.16.29-25.3 4.99-21.57 5.12 56.55-11.3 73.86 69.62 19.25 72.25-10.37.37-21.09 18.22-22.18 27.91.47 23.49 3.91 48.27-13.29 70.84-4.51 5.93-6.59 15.35-10.78 22.75-20.99 37.17-30.35 58.47-28.22 68.06.56 2.47 1.07 5.72 1.07 5.72-66.86 16.71-116.99 20.99-184.35 22.56-.65-1.05 22.61-66.5 39.6-100.06 12.55-24.8 19.02-41.75 15.5-46.87-53.41 2.68-43.17-75.63 7.94-72.88 0 0 12.81-45.11 27.15-65.47 13.59-7.56 40.92 2.74 56.25-7.4 36.11-11.08 59.75 31.62 59.75 31.62l9.72-40.62-319.31-1.53s-32.9 12.32-49.72 5.37c-10.75-4.44-23.09-17.03-23.1-17.03 0 0 122.02-195.98 139.94-224.25 1.46-2.3-3.18-7.24-3.18-7.28-.68-6.42-142.04 213.94-141.47 223.66 0 0-3.76 5.34-10.57.62-79.95-55.17-271.03-173.78-271.03-173.78l-.25-87.88c66.47-41.88 60.44-58.99-1.06-13.34-.86.72-1.31-33-1.31-33 46.88-41.89 7.89-28.77-1.36-14.26.22-10.44-2.21-24.62 4.48-30.86 20.49-18.89 44.63-1.55 45.84 26.37 26.73 5.24 23.42 28.72 30.3 38.16 27.25 15.38 12.9 38.72 19.66 46.65 28.7 18.1 8.68 47.19 2.61 46.53 3.62 2.44 39.28 26.35 42.34 25.47-3.09-125.35-141.13-245.03-144.97-238.747l2.94-27.032s172.51 110.349 171 287.409l55 32.69c-4.89-181.67-86.01-304.283-224.72-382.286l-2.93-34.219c116.43 54.196 224.41 163.879 249.56 343.655l64.47-100.06 22.71 11-103.5 166.08 64.63 42.51c50.14-66.01 91.95-146.95 117.44-185.47-.67-3.52-2.07-8.56-2.07-8.56-246.46-40.65-385.29-271.612-319.12-512.936l17.12 7.531c-51.39 178.729 32.42 435.985 300.47 488.595-.53-19.01-3.87-65.75-3.87-65.75s-35.22-10.59-30.04-6.35c8.63 7.38 28.01 39.17 19.82 50.47-5.89.83-15.75-2.47-26.53-10.37-4.07-2.98-4.18-2.35-8.75 2.53-12.67 13.53-31.08 5.78-31.25-12.81-.07-7.85-.37-9.52-11.5-9.6-16.89-.12-24.47-3.01-34.59-16.56-7.19-9.606-6.53-9.649-14.97-6.75-16.19 7.71-29.11-8.474-24.03-21.811 2.5-6.249-.17-8.249-7.54-9.469-14.33-2.372-30.55-20.365-33.53-35.062-.61-3.004-2.11-3.762-10.56-3.469-16.58.574-25.76-9.482-19.22-23.563 3.54-7.615 4.53-10.689-2.09-15.843-8.12-6.321-12.71-10.713-16.32-18.375-2.85-6.078-3.28-9.967-5.24-22.907-.69-4.501-2.18-5.233-8.07-6-17.14-2.236-23.9-19.779-11.31-31.156 3.84-3.473 3.83-3.389-2-10.937-11.22-14.521-15.42-33.476-10.53-46.094 1.32-3.417.03-7.598-3.97-8.594-15.63-3.893-15.9-21.23-.94-30.969 4.35-2.827 4.57-4.701 1.28-10.406-5.75-9.993-5.46-36.164.1-48.687 3.59-8.097 3.57-8.284-2-11.844-11.88-7.591-8.49-28.468 5.56-31.906 6.82-1.67 7.28-2.56 5.44-10.844-3.28-14.765-3.84-18.604 4.87-24.438 23.97-15.563 85.35-45.312 85.35-45.312l20.28-9.656s2.02 123.88.72 138.531c-.79 6.307 4.87 10.126 11.46 16.687 13.63 13.397 21.1 29.597 39.29 40.844 0 0 11.33-6.302 18.34-10.812l.69-176.532c1.43-4.007 2.44-4.448 7.09-5 3.87-.746 13.59-1.829 16.85-2.781 7.83-2.291 9.06-5.452-1.22-4.406-3.1.315-7.75 1.634-12.94 2.687-32.14 9.644-55.91-40.404-31.44-65.625 4.7-4.207 22.25-11.529 30.22-12.031 2.31.018 9.16-8.425 13.84-16.219 4.71-7.833 6.67-13.655 3.97-21.5-5.67-16.516-.26-41.875 16.69-69.562 18.36-26.132 32.53-55.296 39.97-86.344 65.04-7.842 120.21-24.015 179-20.437 2.3 19.87-64.28 137.012-50.38 143.875 52.38 12.543 34.5 74.652-5.31 72.593-5.96-.032-6.55.496-10.34 13.688-7.23 19.259-11.9 33.954-19.66 51.875-.02 4.608-3.25 4.155-25.03 4-19.91-2.948-33.64 7.902-48.13 8.531-18.46.842-34.21-8.009-40.62-22.687-2.86-6.541-5.51-2.24-5.59 13.281-.07 12.348-.57 19.562-.57 19.562s76.32.225 163.28.375c175.8.304 158.29 2.999 172.22-3.968 8.15-4.071 13.51-8.482 27.6.718 22.56 14.74 21.82 12.728 15.25 22.219-44.19 65.523-141.85 223.188-141.85 223.188l6.85 6.687s98.63-155.855 143.56-228.875c2.04-2.371 11.44.625 11.44.625l269.06 175c-2.27 26.445.37 85.715.37 85.715-75.62 40.16-52.52 60.622-.45 11.982zm-456.59-629.687s78.05.632 117.19 6.906c34.27 5.494 32.51 4.485 32.37 29.375-.1 17.676-.12 17.274-4.65 25.75-8.36 15.624-6.94 31.025 6.28 52.594 12.83 20.936 22.22 36.396 22.22 39.375-.01 4.621-.8 10.263-11.91 18.031-13.12 9.165-15.62 15.569-15.44 24.875.15 7.534-1.28 9.993-5.78 9.969-1.8-.01-8.18 2.956-15.03 6.187-12.05 5.685-12.07 5.685-23.31 5.594-5.64-.046-8.37-2.175-9.94-1.563-3.03 1.412-5.78 11.546-5.69 14.5.32 1.046 1.93.417 5.25-.718 18.64-6.381 46.38-3.514 47.16-.719 3.76 3.405 3.76 8.668-1.91 14.125-3.68 5.781-5.35 8.768-3.81 17.719 2.09 12.158.53 16.983-5.69 21.187-18.96 12.822-44.27 14.437-84.75 6.656-42.66-8.2-71.83-24.468-96.09-53.593-10.84-13.011-13.52-17.57-8.16-18.469 6.61-1.023 13.93-2.392 20.72-5.313 29.98-12.903 29.45-67.804-10.94-73.531-16.47-.584 34.02-78.265 51.91-138.937zm38.51 37.821c-14.5 8.117-22.08 18.02-22.1 23.397-.02 2.203.48 1.803 7.4-2.75 20.1-13.216 73.04-32.302 91.94-21.281 13.62 8.179 18.91 5.514 11.02-5.486-18.51-25.815-68.45-4.675-88.26 6.12zm51.77 8.647c-2.14.018-4.38.264-6.59.719-13.98 3.12-29.36 14.637-42.1 24.781-6.28 5.004-15.17 14.909-16.56 17.5-3.14 5.866 3.8 12.33 13.25 7.157 5.5-3.01 5.99-2.33 11.28-1.594 12.2 3.678 26.11 9.371 47.63 7.562 2 .459 1.85.93 1.15 2.813-1.27 3.442-8.89 10.015-18.84 17.375-5.13 3.795-9.62 6.905-9.97 7.469-1.58 2.53 5.27 2.728 12.78-1.532 10.66-6.044 22.93-19.413 30.44-30.156.71-1.023 1.7-1.865 2.03-2.969.73-2.486-3.75-1.459-6.16-2.125-1.03-.287-.82-2.892-1.09-4.093-.71-3.151.52-8.364 1.09-12.844.47-3.623 4.36-6.499 6.91-9.156 11.24-11.689 10.36-16.987-4.75-8-2.54 1.513-4.56 2.425-7.03 2.625-22.3.701-35.19-.163-53.78 15.5-8.27 6.661-13.24 7.312-5.88.218 11.22-9.088 25.29-22.019 40.85-25.437 9.39-2.338 18.32 4.853 22.43 3 .03-5.14-7.81-8.89-17.09-8.813zm-3.23 32.307c2.55 1.683 5.06 10.407 4.82 13.35-.27 3.417-6.15 2.001-6.96.375l-3.19-9.688c-1.39-3.271 2.83-5.126 5.33-4.037zm-11.36 1.975c2.73 2.693 3.35 8.53 4.9 13.343-.99 3.473-22.94-1.219-25.69-5.102 3.29-4.278 14.6-9.399 20.79-8.241zm38.5 62.562c-1.65-.109-3.84.694-5.82 2.719-9.88 10.118-6.69 27.357 5.19 32.937 5.8 2.721 14.56.72 27.47-3.25 6.15-1.891 10.6-2.756 11.75-2.75 5.04.028 7.79-7.791 4.25-11.375-4.09-4.142-13.78-3.532-24.22 4.532-5.28 4.078-9.05 6.054-13.31 6-10.43-.133-15.51-10.875-4.85-22.157 3.55-3.755 2.29-6.474-.46-6.656zm-73.14 74.172c12.31 9.931 35.68 4.725 51.39-5.672 14.03-9.29 19.86-12.034 31.12-10.094 13.81 2.378 13.29-3.05 7.31-9.875-6.78-7.738-23.52-5.349-37.53 3.938-31.06 20.59-42.29 24.034-51.3 12.894-9.69-11.968 1.84-27.326 13.24-18.944 9.35 6.365 9.21 1.577 5.35-2.787-22.53-18.987-38.79 15.042-19.58 30.54zm-109.18 9.766c15.68 19.875 30.68 36.293 53.22 48.406l.25 3.75-72.87-.156c5.09-8.89 19.55-51.409 19.4-52zm-246.75 51.781c-1.54 29.958 3.83 47.555 21.38 68.5 18.65 22.261 17.26 56.962 5.27 78.4-5.31 9.487-16.11-2.178-11.02-8.244 7.24-9.105 7.67-31.33 4.25-45.219-7.68-22.957-25.1-34.202-32.16-58.468-2.37-10.356-1.62-28.969-1.62-28.969zm22.82 2.531c1.27-.201 3.3 1.118 6.31 3.719 10.31 8.921 8.55 34.459-3.25 50.844-3.62 4.969-6.61 3.551-10.06-1.063-4.67-4.609-3.05-5.067.87-13.156 4.09-8.436 5.4-17.935 4.56-29.031-.56-7.473-.3-11.019 1.57-11.313zm668.47 8.75c9.09-.136 20.46 1.793 21.5 5.094.98 4.015-1.18 7.231-6.26 9.375-13.31 5.621-30.9-2.243-26.46-11.844 1.1-1.716 5.76-2.543 11.22-2.625zm-23.07 2.188c2.62-.059 4.65.584 6.25 1.312 4.37 2.248-2.49 17.611 19.22 17.313 5.19.763 9.03-.43 8.31 1.906-1.08 3.54-10.39 8.849-20.5 10.344-30.25 4.472-28.93 2.963-27.56 24.343.9 13.956-.01 18.661-1.91 27.125-3.28 14.674-4.58 28.852-2.37 24.188 2.95-6.236 10.48-25.928 10.44-37.125-.07-16.515 5.82-19.781 8.19-7.813 1.01 7.923-2.54 12.392 2.78 20.469 3.01 4.539 4.39 4.462 2.37 11.5-1.78 6.209-.54 8.035 1.63 11.188 2.18 3.174 4.38 3.903 2.53 8.343-3.99 9.575 2.26 18.64 11.34 19.407 4.2.354 5.36 2.182 4.09 3.781-2.21 2.761-6.63 4.074-10.31 4.875l-96.09-61.406s7.13-14.301 9.25-18.125c13.8-30.27 24.75-44.06 65.12-59.907 2.79-1.2 5.19-1.673 7.22-1.718zm51.07 19.875c2.65-.1 4.61 1.287 6.84 4.156 5.9 7.582.75 17.059-13.75 25.219-12.4 7.05-16 7.891-18.69-3.188-.62-1.999-2.27-4.455-3.34-5.437-2.87-2.626-2.22-4.812 1.44-6.75 1.74-.928 7.32-3.211 11.78-6.157 7.75-5.118 12.31-7.715 15.72-7.843zm-40.91 22c3.03.047 6.16.781 8.47 2.281 3.84 2.5 3.88 8.779 0 11.281-7.72 3.148-19.91-1.07-18.88-8.156.53-3.604 5.35-5.486 10.41-5.406zm49.44 7.75c2.73-.073 4.79 1.207 6.5 3.843 4.52 6.99-.79 14.005-16.03 21.469-10.03 4.911-22.85 7.044-22 4.156.68-2.324-2.91-13.794-4.5-15.625-.62-1.942.18-.193 12.84-4.187 4.58-1.447 10.12-3.832 12.69-5.438 4.35-2.727 7.76-4.146 10.5-4.218zm-720.91 18.125c-7.05 16.945-8.17 24.431-4.81 42.25 2.79 14.832 6.03 22.271 21.25 44.187 11.58 16.68 15.29 23.17 12.5 28.438-1.97 2.838-6.39 5.486-9.14 2.758-5.66-7.399-9.06-16.39-14.58-24.633-21.27-31.202-22.75-39.141-25.47-63.782-1.24-11.259 5.23-35.23 10.76-38.812 6.2-2.428 11.4 5.7 9.49 9.594zm491.5-7.813c-.5.063-1.03.346-1.56.875-2.89 2.896-11.16 16.369-10.88 18.406.63 4.469 4.29 1.548 13.88-12.531 2.3-3.382.74-7.024-1.44-6.75zm183.09 7.656c8.52.257 11.53 7.891 7.72 11.875-5.56 5.811-15.56 1.424-15.56-6.718 0-3.452 1.61-5.232 7.84-5.157zm47.22 10.875c4.88.209 5.53 5.061 2.94 12.094-3.24 6.53-7.14 7.635-18.84 11.281-14.02 4.367-16.3 3.73-18.41-9.156-.81-4.951-.41-3.852 12.5-7.281 5.54-1.472 12.01-4.099 15.47-5.531 2.61-1.058 4.72-1.476 6.34-1.407zm-827.6 5.777 3.44 26.03 5.6-19.494zm782.07 8.755c6.9.027 10.59 6.2 7.1 9.906-1.95 2.065-6.92 2.108-9.32.906-5.47-4-4.48-10.84 2.22-10.812zm-210.62 13.593 13.43 8.282-109.15 172.343-13.16-.281-1.25-2.75zm247.68 1.657c8.06-.114 8.76 7.484-1 14.468-4 2.565-8.48 3.19-11.96 3.344-4.86.215-8.13-1.047-8.5-4.406-2.11-8.229-3.31-10.272 4.18-9.781 1.5.097 5.58-.139 8.85-1.532 3.34-1.425 6.18-2.062 8.43-2.093zm-33.37 7.531c5.57.03 9.11 6.072 5.37 9.031-4.62 3.656-10.37 1.4-10.34-4.125.02-3.53.98-4.928 4.97-4.906zm-785.44 12.187-29.69 26.306c10.88 12.88 20.02 25.742 29.44 39.248zm600.5 1.688c12.89-.518 17.11 5.717 11 9.906-8.3 5.551-15.42 5.285-24.84 4-12.47-2.317-2.55-12.301 11.12-13.719.94-.097 1.86-.153 2.72-.187zm-13.69 18.75c2.61-.07 6.44.662 11.41 2.344 8.43 2.856 18.93 11.693 18.44 16.593-.8 7.932-15.73 3.837-27.75-7.531-7.53-7.122-7.82-11.253-2.1-11.406zm-11.4.125c7.31.691 14.6 25.426 8.94 33.031-5.56 7.454-15.35-8.588-13.57-21.187.71-4.988 1.96-11.573 3.91-11.813.23-.029.48-.054.72-.031zm-477.32 5.437c4.12.984 9.4 6.678 8.26 11-.83 1.736-2.57 1.232-4.44.782-3.39-1.432-6-6.146-5.35-10.063.32-1.059.77-1.657 1.53-1.719zm553.88 4.25 21.47 14.563-21.47.844zm-88.97 29.469c16.47.089 19.96 5.418 7.66 11.906-5.12 2.697-17.56 3.204-24 .969-10.22-3.547 2.04-12.953 16.34-12.875zm133.25 11.094 1.13 14.937-41.35 3.625-2.12-15.562zm-142.94 7.437c2.87-.181 7.43 1.144 13.41 4.219 11.25 5.788 17.65 15.495 11.84 18.563-5.26 2.779-14.63-.518-21.25-7.469-8.76-9.201-9.46-14.967-4-15.313zm-14.06.031c7.51.451 14.01 21.037 9.06 31.219-2.7 5.571-6.13 4.353-11.06-4.812-4.76-8.863-5.02-24.51.47-26.219.51-.158 1.03-.218 1.53-.188zm-537.74 5.812-18.07 36.345 32.74 28.585zm699.84 28.001 2.9 14.375-39.69 9.781-3.87-15.656zm-173.32 2.812c4.84.086 9.39 1.235 12 3.532 3.62 3.184 2.83 4.613-5.72 8.093-15.22 6.198-33.97 2.448-23.09-6.812 3.84-3.27 10.59-4.923 16.81-4.813zm257.82-.842c-15.16 10.161-.56 15.75 10.27 8.069-.81-2.617-7.09-8.028-10.27-8.069zm-268.94 20.374c10.84.354 32.11 15.226 27.56 22.343-2.47 3.899-16.69.572-22.34-4.843-7.43-7.117-11.36-16.633-7.25-17.375.62-.112 1.31-.149 2.03-.125zm-13.69.687c5.6-1.042 14.54 25.034 7.78 31.719-2.52 2.499-3.23 2.35-7.47-1.406-8.47-7.505-7.01-21.334-1.94-29.063.49-.739 1.05-1.142 1.63-1.25zm333.14 13.742c-1.48-2.76-3.32-4.04-5.34-5.559-52.7 20.248-39.19 39.538 5.34 5.559zm-124.86 1.789 5.25 14.563-39.97 15.844-5.87-15.938zm-683.65 27.563-13.54 35.625c14.72.086 27.98 7.035 41.41 13.219zm696.93 10.469 8.47 14.312-37.59 20.344-7.5-15.094zm-873.37 27.875 15.4 10.875-22.62 28.125-2.06-3.969.25-23.344zm893.9 8.844 9.1 13.125-36.19 25.156-8.87-14.281zm-855.09 16.875 16.63 12.812-26.29 31.719-15.9-12.156zm182.94 7.843-.78 38.157 39.12 1.5zm452.21 17.198 44.47 25.607-6.69-39.084c-11.62 2.263-26.53 9.833-37.78 13.477zm244.26-8.01 10.37 12.906-33.44 28.094-10.71-13.438zm-845.47 11.312 15.5 14.407-27.31 29.5-14.35-13.532zm874.03 20.938 12.03 12.219-30.47 31.687-12.03-12.219zm-838.81 15.531 12 14-31.19 24.785-11.56-14.066zm179.71 3.281 8.76 37.374c-.64-2.72 38.82-11.146 43.96-8.311zm459.43 3.16 37.24 39.324 4.19-37.879zm230.33 6.184 13.46 10.531-25 35.629-15.25-11.97zm-842.63 23.75 11.09 16.03-32.68 19.47-9.28-14.16zm877.91 3.78 2.06 2.06-.03 25.44-10.38 15.25-14.15-8.34zm-210.71 28.57 32.95 59.9 9.29-44.67c-12.18-.18-31.47-7.98-42.24-15.23zm-641.14 7.99 7.85 17.28-34.54 15.76-7.87-17.19zm18.66 41.25 6.31 17.35-36.72 12.18-5.81-16.71zm-164.16 31.41 11.44 8.02c59.57-31.31 41-40.56-11.44-8.02zm336.69-19.91c2.25-.23 4.85 2.88 6.94 9.75 3.16 10.39 1.48 23.27-5.56 23.1-4.75-.58-6.52-12.76-6.54-16.28-.05-10.43 2.27-16.27 5.16-16.57zm32.66 6.22 14.18 1.53-.06 4-113 179.41-13.69-8.69zm-60.85 4.16c4.51.04 11.1 3.14 16.94 9.34 3.42 3.71 7.08 8.97 7.97 14.35-.1 1.77-3.13 1.1-6.06.68-7.51-1.06-18.55-6.25-22.07-12.65-4.32-7.87-1.88-11.77 3.22-11.72zm519.5 6.39 15.06 73.47c4.67-18.39 14.53-28.99 21.83-43.44-19.21-8.84-27.09-19.32-36.89-30.03zm-649.25 14.86 3.53 19-38.06 8.81-3.94-18.44zm141.97 6.59c.54-.01 1.08 0 1.59.06 13.92 1.56 15.9 4.66 6.54 10.94-5.68 3.81-21.03 4.35-23.57.28-2.7-4.33 7.35-11.2 15.44-11.28zm-276.19 11.16 11.82 6.91c20.23-14.63-1.87-17.56-11.82-6.91zm256.16 6.41c4.25.05 6.82 7.64 8.31 14.62 1.45 6.76 1.95 12.86-.65 16.25-3.19 4.16-6.31 4.89-8.85.78-7.42-12.05-7.18-31.76 1.19-31.65zm-31.38 11.03c1.99-.07 4.49.43 7.41 1.53 9.88 3.72 22.97 18.85 17.44 20.94-8.17 3.08-26.02-5.88-29.38-14.94-1.69-4.57.17-7.38 4.53-7.53zm-81.43 12.18.9 18.79-40.03 1.62-1.18-18.69zm98.06 15.82c3.94-.12 7.88.4 11.06 1.78 5.73 2.47 1.56 6.96-8.28 10.37-6.49 2.26-15.75 2.83-19 .25-7.59-5.99 4.39-12.06 16.22-12.4zm-309.56 2.18c27.42 16.66 83.93 53.75 83.93 53.75-2.68.53-5.53 2.64-8.18 4.69-2.05 1.68-4.26 3.24-6.19 4.03-3.04 1.25-5.83 1.42-8.37 1.97-17.68 3.84-26.33 13.85-20.82 26.28 2.17 4.89 2.73 4.1-1.03 8.22-10.54 10.06-9.25 13.07-5.5 25.94.05 1.82-12.55 17.29-1.41 28.94 6.17 5.37 6.46 2 4.22 14.21-.78 7.35 1.23 13.37 11.91 15.47 5.94 2.73 5.86 1.78 3.75 6.82-1.44 7.22.62 10.21 5.69 12.84 4.6 2.88 6.47 3.66 3.22 6.19-35.59 18.22-46.53 49.92-12.97 96.62 3.95 5.51 13.91 21.05 13.91 21.05-11.31 16.79-22.11 30.62-33.65 45.62l33.58 46.97c-5.44 8.52-18.15 25.86-25.97 42.96-11.74 25.69-3.98 61.69 29.78 72.46 14.48 4.62 33.6.88 45.65-13.12 9.78-11.36 15.11-33.91 6.18-57.41-11.28-26.32-24.81-39.23-29.19-46.71l35.96-45.14s-24.78-35.64-34.66-48.58c67.43-82.54 12.35-105.62 1.78-112.69-1.64-1.1-1.25-6.38-1.25-6.38 60.56-6.94 81.25-40.22 99.06-82.34 36.13 23.27 87.86 54.56 124.1 79.03 3.49 3.24 5.78 5.25 5.25 7.03-.44 1.46-1.84 8.16-1.91 15.03 1.69 10.95.88 15.91-3.53 20.1-4.15 3.94-3.32 5.73-2.65 10 1.15 7.4 2.27 8.14-1.04 11.87-4.08 4.6-5.44 6.75-4.68 17.91.45 6.62 1.29 11.59-.44 15.5-2.25 5.09-8.43 7.66-16.53 14.03-14.18 11.14-12.27 14.54 7.31 54.97 16.68 34.45 18.59 42.33 12.19 54.56-5.33 10.18-7.34 18.05-6.69 32.75.16 3.75.48 7.81.47 9.78-.04 4.76.02 4.22-2.72 7.19-2.13 2.32-5.68 6.9-7.87 10.19-23.29 34.92-84.54 123.78-84.54 123.78l-205.96-.35zm288.84 16.25c2.41-.17 5.33 4.15 8.63 12.88 1.9 5.04 1.7 13.79-1.38 17.16-6.13 6.7-14.57-9.01-11.9-21.44 1.2-5.62 2.77-8.46 4.65-8.6zm579.26-9.44c.04 31.83-.65 73.13-11.6 103.57l12.42 5.63c-4.01-31.26.97-56.92 29.64-70.44-13.05-8.86-23.02-23.82-30.46-38.76zm-610.13 20.07c.99-.03 2.14.22 3.4.62 4.65 1.28 10.31 4 13.75 7.5 5.89 6.01 11.97 13.23 10.44 13.91-9.74 4.28-34.46-8.79-31.22-19 .71-2.16 1.97-2.99 3.63-3.03zm-43.32 1.34.25 15.6-23.93-15.32zm546.66 7.5c3.88.34 9.87 5.42 8.94 8.94-1.67 3.82-3.72 3.46-6.39-.55-3.33-5-4.68-8.12-2.55-8.39zm-485.03 19.28c5.81-.15 10.83 1.13 11.37 4.16-.01 2.87-4.43 6.57-9.87 8.25-13.61 4.19-23.82 1.49-20.09-5.19 2.33-4.42 11.12-7.01 18.59-7.22zm474 17.69c-5.75 10.31-6.47 43.29 3.69 56.75 15.77 17.42 30.33 40.1 28.65 70.28l-15.15 6.78c.83-24.82-.16-40.96-19.54-62.37-23.07-25.08-17.65-68.53-9.68-81.31 6.84-12.62 16.68 5.24 12.03 9.87zm-664-13.72c4.85-.28 10.77 2.58 21.5 9.66 27.43 19.41 42.3 26.91 69.5 46.12 3.98 3.73 3.78 3.2 3.09 6.13-10.4 39.79-40.59 71.37-85.34 77.15-5.18.67-2.51-2.57-5.63-8.81-3.21-6.42-9.13-9.22-15.71-9.28-18.48-.17-2.68-10.53 19.87-13.5 7.46-1.15 16.44-2.16 21.19-6.65 1.03.48-3.92-31.13 1.15-42.26 2.59-10 .14-14.84-2.65-8.68-1.76 3.86-4.21 14.01-5.53 24.4-1.12 8.78-2.97 9.99-5.03 5.72-.95-1.94-.93-6.55.56-10.18 1.68-8.28-8.76-14.52-6.66-22.1 2.8-6.33-.11-13.31-3.62-15.62-1.92-4.11-1.69-7.07-1.44-9.94.59-6.71-3.88-13.16-10.94-15.97-3.12-1.58-2.19-3.28 1.06-4.91 1.52-.75 3.01-1.18 4.63-1.28zm-22.44 11.35c1.78-.03 3.54.16 5.22.59 3.63 2.21 6.55 14.79 2.5 15.28-1.49.18-6.16.75-9.78 1.81-12.27 3.61-18.08 3.12-17.85-3.93.25-7.2 10.32-13.59 19.91-13.75zm16.31 1.28c4.83.02 8.73 5.68 5.69 8.69-3.14 3.1-9.18.83-9.15-3.66.01-2.42 1.11-5.05 3.46-5.03zm3.28 19.59c1.39-.05 2.92.24 4.57 1 4.49 2.08 7.07 9.8 4.22 12.63-2.18 2.15-8.39 1.39-11.72-1.44-5.95-5.06-3.06-11.96 2.93-12.19zm-15.21 1.13c2.78.05 4.78.95 5.31 2.87.46 1.65-.31 3.18.44 5.53 1.17 3.71 3.52 6.55 1.46 8.03-9.4-.56-28.94 11.25-34.59 10.69-4.7-.63-5.24-4.96-1.15-12 4.71-8.13 20.19-15.3 28.53-15.12zm5.68 22.84c2.05-.13 2.4 1 1.57 4-.59 2.13-.11 7.2 1.34 10.47 1.55 3.51 4.37 5.59 2.91 6.97-2.41.69-10.49 2.31-17.29 4.84-8.76 4.85-33.38 19.46-27.18-3.91 1.97-7.8 11.03-13.22 26.84-18.74 6-2.1 9.76-3.5 11.81-3.63zm12.91.28c3.8-.28 8.15 1.56 10.09 6.28 5.71 11.37-10.67 13-15.9 3.53-3.1-5.6.92-9.45 5.81-9.81zm3.12 26.47c8.52.05 15.12 10.6 8.94 14.59-4.58 2.76-10.25 2.24-15.5.94-7.88-3.46-4.24-15.59 6.56-15.53zm814.88.22c32.38 16.95 76.42 32.58 119.12 44.19l-1.43 420.06-290.53.19-79.94-138.78s-2.65-4.52-3.5-6.5c-1.61-3.78-1.04-6.86.06-10.79 2.65-9.46 10.67-28.02 18.06-41.18 19.31-35.45 46.73-74.32 31.88-108.38-1.7-3.89 15.34-25.01 15.34-25.01 26.24 2.14 47.94-14.97 40.18-55.36 54.78-22.4 99.92-40.61 150.76-78.44zm-829.97 2.06c.74-.03-1.49 9.19 3.16 14.84 2.9 4.46 2.43 4.31-7.41 8.19-3.67 2-7.36 5.03-9.44 6.88-14.07 12.56-28.01-3.87-14.4-17.07 10.98-9.87 22.47-12.02 27.9-12.71.08-.09.14-.13.19-.13zm669.4 8.68c4.72.84 10.84 7.13 8.88 10.55-6.66 11.16-6.96 17.16-7.56 28.71-.66 12.89 1.54 14.79-3.37 12.56-3.21-1.5-9.19-4.07-10.54-7.34-3.09-7.56 4.82-45.86 12.59-44.48zm-673.99 32.35c5.23-.09 10.72 1.62 13.81 5.6 2.58 3.31 2.85 6.14.28 7.5-6.09 3.21-26.26 1.54-27.28-2.6-1.57-6.38 5.54-10.36 13.19-10.5zm305.56 8.19c24.64.1 53.4 5.34 75.66 15.06 31.59 11.92 59.43 42.29 65.72 55.28 1.91 3.95-2 3.95-5.38 4.32-37.63 6.21-50.16 52.52-18.41 74.65 9.96 6.23 18 5.57 18 5.57 8.06-.69-35.79 83.45-53.25 135.87-54.01-2.21-94.82 6.11-147.62-12.06-5.68-9.43-4.33-30.25-.19-41 3.79-9.77 8.79-17.3 6.38-28.53-4.21-19.57-22.04-45.06-28-61.22-5.24-12.34-4.9-16.94 4.21-24 10.75-8.33 13.4-10.07 16.35-14.28 2.75-3.92 1.58-4.83 1.62-13.66.06-10.72-.19-9.05 8.66-10.62 3.09-.55 10.37-2.88 15.94-5.82 11.54-6.08 19.59-5.87 26.37-2.09 2.95.79 2.67-2.26 3.91-6.31.54-1.77 1.79-4.66 1.69-5.54-.21-1.81-4.11-1.28-8.41-.68-17.23 2.41-30.8 2.94-37.78.34-6.05-2.25-6.07-6.33-2.53-13.09 3.15-6.03 5.38-5.93 4.09-18.5-1.62-15.78.58-19.1 7.94-24.28 9.18-6.46 25.86-9.49 45.03-9.41zm89.06 13.91h80.1c-7.86 12.68-16.61 32.23-21.57 50.78-.72 1.44-1.58 2.86-3.43 1-10.81-15.47-23.1-32.02-55.1-51.78zm-66.4 56.4c-9.58.28-21.55 4.88-36.6 13.5-10.22 5.86-18.58 9.5-29.44 7.5-6.2-1.14-7-.26-7.81 1.75-3.65 9.06 9.91 18.78 23.6 12.41 3.97-1.67 34.5-17.49 36.18-18.85 1.84-1.47 14.48-5.19 17.82-5.15 10.09.12 16.32 8.06 15.09 17.22-1.65 12.23-18.99 12.84-20.12 1.97-.88-8.38-4.37-4.66-4.69-.54-.02 3.52 2.63 11.54 5.53 13.35 14.65 9.15 33.97-8.66 24.72-27-5.67-11.22-13.43-16.47-24.28-16.16zm-65.73 42.63c-9.94 1.9-16.4 5.76-27.12 6.65-8.84 1.96-8.18 9-2.65 12.66 4.24 2.81 9.59 1.11 25.06-8.72 15.19-9.66 28.21 10.46 16.06 20.76-7.65 6.49-2.4 8.19 2.84 4.29 13.46-10.04 5.74-39.43-14.19-35.64zm47.04 51.78c-1.17-.08-3 .34-5.47 1.47-11.38 5.21-20.14 10.71-25.59 18.03-.94 1.59-.43 4.27-.88 6.37-.35 1.66-1.67 3.76-1.44 4.88.21.98 3.42 2.02 3.91 2.94 1.98 3.72.7 13.2-.44 20.06-.54 3.28-5.42 4.3-7.37 6.28-6.42 6.52-4.81 8.51 2.03 5.97 4.77-1.78 2.75-5.07 14.56-2.78 15.3 2.96 27.43-1.19 39.47-7.88 13.37-7.42 18.21-11.54 18.75-10.65.89 1.46.19 2.23-9.34 10.15-23.9 19.86-41.66 24.47-55.07 17.03-4.01-2.72-7.22-3.84-4.18 2 .39.64 3.63 3.17 5.9 4.19 13.77 6.22 31.04.96 53-16.4 4.82-3.82 9.08-8.09 14.66-12.76 18.23-15.25 13.43-22.23-7.16-14.81-6.49 2.34-8.32-.18-17.09-3.59-11.79-4.58-15.66-5.01-29.22-5.25-11.81-.21-13.57.9-13.56-1.09.01-2.53 7.95-11.46 16.87-15.35 8.71-3.79 11.15-8.57 7.66-8.81zm21.72 37.66c2.2 2.22-.96 3.64-9.47 7.68-4.82 2.29-9.26 4.17-9.88 4.16-.75 1.37-8.79-16.74-6.59-17.63.94-.37 20.61 1.29 25.94 5.79zm-30.91-1.91c1.98 4.11 3.48 8.4 4.25 12.37.18 1.22 1.05 2.99-.87 2.97-1.52.22-4.01.35-4.91-1.06-1.93-3.02-4.06-13.32-3.34-15.31 1.47-2.01 4.08-.6 4.87 1.03zm70.06 32.56c-.71.01-2.05.54-4.15 1.78-33.89 20.01-74.53 30.44-100.66 20.57-8.81-3.33-10.42-2.16-7.22 3.87 2.23 4.18 6.64 9.09 13.35 10.94 21.35 5.87 55.73-2.68 82.18-20.03 10.77-7.07 19.59-17.15 16.5-17.13zm199.44 53.63s59.89 123.44 71.53 129.25l-487.25-.88 82.1-117.34c.72 6.52 198.02 33.62 333.62-11.03z" fill="#131f67" transform="matrix(.156485 0 0 .156485 -176.6378 7.326)"/><path d="m-1336.74 1087.2 76.76-117.488c116.73 20.196 221.22 6.778 335.557-15.58l78.502 127.548zm609.798-443.204-1.644-68.972 24.177 8.537c-8.87-31.946 11.635-65.821 30.787-67.469-62.038-45.215-11.956-95.498-13.027-96.538-67.595-33.483-34.844-87.147-39.571-91.832-82.008-19.823-51.193-85.172-57.257-78.378-47.301 15.08-74.139-24.325-75.477-56.705-40.75 23.996-104.855-7.989-85.552-45.437 0 0 21.961 9.983 25.776 7.831 33.18-24.974 31.129 10.118 38.236 17.615 24.99-4.043 40.093 14.887 46.489 24.097 36.95-.574 35.285-9.41 36.197 26.42 27.954 6.609 27.094 21.681 43.564 41.979 35.1-.194 29.383 11.326 21.761 30.881 25.63 19.722 27.94 35.453 32.413 53.699 27.763 9.549 32.783 13.537 15.155 37.101 24.958 36.112 13.587 57.453 17.322 59.384 30.728 21.41 15.684 29.592 2.56 38.225 5.088 29.039 8.847 33.257-1.37 63.076 35.317 24.196-4.947 36.038-7.015 35.557l.307 24.547zm-848.218-165.886-2.12-85.461 299.09 186.334-36.43 59.31zm395.2 119.3 67.52-147.607-27.77-159.323 200.546 1.068c23.382 50.863 37.695 94.203 96.848 178.051l-60.701 20.022 3.819 102.629zm170.81-41.35c-2.11-4.203-3.3-7.077-2.95-8.975.71-2.45 2.58-2.369 4.99-1.097 8.589 3.996 17.166 7.422 23.316-.513 3.076-4.148 2.16-9.973-.566-13.302-4.97-9.706-19.97-2.373-25.05-1.939-4.72.184-6.6-3.757-2.82-9.474 2.27-2.5 3.68-5.238 4-8.443 2.29-22.429-35.73-13.836-22.14 7.652 6.15 7.944 2.72 12.834-6.2 7.896-9.82-5.433-23.26.007-22.62 11.766.49 8.908 11.77 14.233 21.1 8.698 2.16-1.277 3.83-2.651 5.36-3.348 4.35-1.976 7.52-.459 6.15 4.496-3.82 6.226-8.27 15.156-4.32 20.91 3.99 8.43 17.24 7.419 21.71 2.061 3.07-3.69 3.85-9.619.04-16.388zm455.039-456.548-299.677-187.267 9.983-16.416c13.155-7.626 18.469-16.94 17.806-29.782l7.76-17.881 262.967 162.673zm-464.649-57.299 32.933 154.644-206.943 6.368c-12.24-51.902-85.28-168.633-85.06-166.572l52.95-136.558 274.684-4.866zm-78.63-56.482c5.16-4.89 4.69-12.218-1.23-20.374-5.73-7.901-3.33-13.708 5.73-8.443 5.03 3.253 12.93 3.818 18.23 2.033 6.73-2.417 9.45-7.868 8.34-14.671-1.35-8.229-10.53-10.341-20.25-6.579-2.81.642-4.49 2.977-6.91 4.115-5.22 2.406-7.43-3.895-2.74-12.183 5.19-9.188-.52-18.857-10.35-19.554-10.52-.746-16.57 11.299-12.18 17.778 6.3 9.302 1.95 15.923-6.97 9.78-12.83-8.84-29.2 2.905-22.12 16.251 3.44 6.476 14.36 8.007 24.06 3.709 8.1-3.593 10.59.346 5.78 8.788-9.88 17.349 7.07 32.176 20.61 19.35zm-302.85-147.369-.82 82.71c-31.28-18.429-26.68-18.74-27.82-18.436 9.52 24.699-.6 55.584-26.62 71.106 48.07 43.627 23.01 75.266 15.59 96.48 61.05 34.116 31.37 95.288 31.56 92.143 59.64-.649 59.29 51.505 61.37 73.231 73.65-5.848 64.74 53.222 74.55 58.129 35.47-16.586 77.3-11.791 89.17 36.063 7.62 27.135-19.1 1.305-30.53 2.642-40.33 26.051-33.13-12.808-35.52-18.162-33.69 3.76-38.5-12.258-53.47-23.428-36.34 7.617-33.54-4.423-31.75-26.6-28.7-5.32-35.21-23.066-46.89-40.343-39.47 1.925-23.82-26.227-23.76-31.712-4.87-4.21-27.91-26.146-29.45-51.669-40.72-10.785-15.61-31.656-14.26-38.695-15.65-18.852-19.91-32.877-15.17-57.028-36.26-16.233-6.47-32.453-4.08-42.059-12.25-31.163-3.86-40.69.49-57.731-23.6-26.764-9.74-25.487 6.93-42.236 2.1-3.005-4.05-16.541-3.85-24.57zm202.84-309.836-66.81-115.085 463.488-7.66s-49.285 70.732-68.262 106.224c-115.887-16.334-223.906-5.887-328.416 16.52z" fill="#d40000" transform="matrix(.156464 .00258585 -.00258585 .156464 280.794 121.847)"/><path d="m-1496.45 1014.38c-40.8-8.57-48.55-59.552-11.09-102.676 3.03-3.487 5.04-8.84 5.04-8.84s-6.98-11.06-25.19-35.424c-3.39-4.534-8.34-11.805-8.34-11.805 9.52-14.231 19.57-26.05 30.23-41.485 1.43-2.085 4.1-4.435 3.69-6.327-.58-2.693-4.59-5.325-9.44-12.224-28.2-40.093-31.5-56.117-17.93-80.462 12.77-22.888 44.1-26.024 63.53-6.358 20.99 21.254 20.36 40.892-5.79 81.276-5.74 8.865-9.86 16.847-9.86 16.847s-.19 2.785 9.72 15.156c13.75 17.163 23.88 31.917 23.88 31.917s-6 7.919-11.69 14.828c-15.24 18.514-22.02 31.216-22.02 31.216s1.12 3.624 3.48 6.216c43.4 47.558 40.96 103.045-7.13 108.555-2.48.28-8.5.01-11.09-.41zm332.43-621.577c-1.15-1.811-149.24 246.958-149.24 246.958l17.55 10.854 141.8-230.042c2.23 1.63 4.41 3.582 4.01 6.357 0 0-116.67 197.358-136.12 228.915-.53.849 30.03 18.276 31.05 18.31 44.22-22.71 230.51-6.759 353.861-16.365.494.371-1.179 43.411-1.179 43.411s-28.696-32.104-34.388-32.208c-28.089-.516-57.421 11.931-78.594 10.937-13.44 4.357-28.04 53.841-30.87 66.233-24.63-2.448-47.94 23.656-41.86 47.512 8.47 26.475 22.24 24.242 37.18 24.432-.89 30.146-52.76 110.418-52.34 149.542 56.17-5.376 117.011-7.408 174.736-25.861 0 0 20.755-63.027 47.568-104.786 8.807-15.949 12.766-39.744 8.84-54.631-2.6-16.335 4.388-20.588 10.5-32.152 3.718-7.227 17.9-7.165 19.702-7.719 36.724-11.298 22.751-58.8 6.912-67.026-19.763-10.263-47.18 6.599-58.177-14.695-11.637-22.535-8.767-69.583-8.767-69.583l-278.584 5.935s76.25-150.887 74.23-151.953c-21.72-11.461-57.55-51.952-57.82-52.375zm-184.1 139.236c1.06-15.15-.59-261.019-234.89-379.386l.7-32.338c1.4-1.687 212.87 91.242 253 341.051l63.09-102.57 23.98 8.956c-34.32 53.482-102.22 183.026-105.88 164.287zm-142.51-86.225c9.1-28.542-6.35-13.226-20.68-14.151-9.87-5.161-19.59-11.878-28.77-17.707 67.28-37.09 26.89-34.684-12.24-8.773-10.35-5.392-23.52-17.354-24.32-16.311 75.79-50.544 47.04-51.061-1.39-14.577 1.14-33.486.15-20.909.62-32.167 41.05-45.466 2.53-20.495-.33-19.912-11.02-44.504 38.33-35.965 43.4-2.265 8.77 6.296 25.92 13.985 31.4 41.609 23.87 14.655 21.6 27.159 20.8 45.203 9.39 8.977 33.57 27.852 6.04 46.107zm-91.48-202.391 1.16-24.739c3.04-10.128 184.29 114.721 174.09 279.167 2.1-1.188-20.01-11.14-26.4-16.676-1.9-120.856-146.18-243.798-148.85-237.752zm1029.763 121.657c-120.438-52.81-236.106-182.216-244.891-352.868l-65.642 114.197-24.133-9.752c2.269 1.815 51.855-93.982 103.439-160.481 18.417 215.195 104.559 313.981 233.751 384.637zm-627.283-68.433c-116.05-12.462-286.13-167.389-239.61-381.978 6.74-21.826 120.43 96.596 120.43 96.59.62-5.465 103.05 153.64 100.77 185.09 84.62 22.602 248.626-2.866 248.626-2.866 137.188 28.27 282.539 173.375 234.407 383.804 0 0-36.724-23.259-67.552-50.521-93.719-87.648-124.203-160.438-158.223-240.728-118.278-8.744-228.658 14.275-238.848 10.609zm624.152-188.391c2.194 10.613 1.251 32.69 1.647 32.64-30.228 34.031-33.411 34.693 4.996 23.282-4.251 32.223-27.924 37.895-42.223 27.188-5.27-3.945-5.685-26.096-5.685-26.096-23.5-5.477-31.65-12.384-28.748-37.612-27.009-2.773-26.163-15.913-24.402-43.342-24.769-13.401-19.019-35.479-4.655-45.103l12.279 8.162c-3.836 3.548-1.58 25.34 19.666 8.748 0 0 17.438 14.001 25.798 19.406-61.576 41.05-23.995 31.628 13.908 4.706 7.275 4.788 17.228 12.65 22.399 16.029-49.907 37.053-65.979 67.611 5.02 11.992zm5.271 136.025-1.581 28.885c-124.124-73.156-159.026-171.76-169.905-277.216 0 0 16.694 11.874 24.321 16.79 13.217 136.057 139.488 225.984 147.165 231.541zm-679.123-346.371 294.712-2.987-75.682 150.768 42.057 48.056s99.731-161.235 149.821-245.655l-17.982-10.353-143.1 233.339-5.943-6.377 141.025-233.116c-8.778-5.548-25.368-14.401-25.368-14.401s-250.89 8.177-359.98 9.539c3.29-15.118 3.62-41.816 3.62-41.816 16.46 22.833 34.04 43.174 71.17 19.856 0 0 44.38.765 45.98-1.374 5.28-8.87 14.44-36.634 25.14-67.996 42.74-3.57 38.14-24.192 42.89-31.057-4.28-60.764-37.84-27.451-35.27-49.609 8.98-39.558 56.78-129.564 50.43-137.28-12.85-8.228-138.48 18.678-175.09 23.802-3.42-1.251-20.35 57.585-38.83 82.925-20.09 27.565-26.94 56.884-15.99 84.246-10.38 30.453-31.26 27.695-47.85 36.543-18.64 20.878-12.89 52.277 5.4 64.157 12.74 8.274 32.07 7.512 51.52-8.821zm582.087-221.108-35.245-45.743 32.62-49.263c-13.538-20.703-35.824-52.358-32.342-77.799 7.684-50.459 75.674-44.2 82.377 3.838 3.582 22.288-12.246 49.956-28.397 73.546 11.242 19.722 15.994 22.891 32.241 45.442-9.157 16.802-31.575 49.758-31.575 49.758 14.714 23.854 35.071 50.075 34.034 74.605-1.166 21.068-23.743 42.772-45.22 38.644-66.778-12.837-30.787-84.625-8.493-113.028z" fill="#e2cf00" transform="matrix(.156464 .00258585 -.00258585 .156464 280.794 121.847)"/><path d="m1241.5 17.375v22.25h22s.52 21.452.72 67c.19 44.204 1.1 66.137-1.75 78.719-7.74 29.032-50.55 29.171-59.06 8.312-4.96-12.146-3.62-21.573-3.88-33.781h-23.65s.12 6.146.15 13.656c.13 32.663 11.15 48.239 36.91 54.407 26.48 7.018 57.42-3.677 68.44-25.907 6.57-12.665 5.81-13.502 5.96-90.062.11-51.1.91-72.344.91-72.344h20.25v-22.25zm416.31 101.781c18.28 34.335 70.19 126.969 70.19 126.969 123.44-25.602 227.25-32.118 336.34-8.219l77.94-118.187zm16.1 6.969h22.31l43.78 90.094 75.53-15.094-12.87-74.812 21.37.125 10.81 71.937 110.97-2.812 14.38-69.438 20.47.25-14.69 70.563 87.87 11.843 43-82.656h29.54l-65.38 102.063c-116.3-22.667-231.83-15.052-328.53 8.75zm42.09 0h65.16l15.62 60.813c-8 4.177-37.88 11.319-47.87 10.312-11.94-20.911-24.28-51.151-32.91-71.125zm125.66 0h99.15l-8.47 51.781-83.15 2.657zm157.18 0h76.41l-30.16 62.875-57.62-7.844zm-488.46 15.75c-15.34 32.992-36.93 65.179-55.04 88.969-53.65 70.142-65.18 90.107-75.78 131.406-16.6 64.646 40.62 116.878 90.25 81.75 11.69-8.275 24.64-31.089 24.69-40.937.04-7.085 4.88-10.91 8.81-6.938.79.8.99 3.971.75 8.5-2.75 29.293-14.5 76.924-37.25 106.813h90.91c-27.52-36.488-36.72-73.26-36.22-107.844.07-14.863 8.87-13.401 10.84 1.812 9.7 74.613 105.92 60.603 110.41-14.031 2.64-39.025-21.99-80.606-54.09-126.687-26.19-37.596-58.05-78.192-78.28-122.813zm779.37 47.188c-4.47-.025-8.59.363-12.37 1.156-19.82 4.151-30.21 19.382-30.38 44.25-.07 11.397 8.32 31.546 21.09 50.594 6.23 9.288 10.38 17.843 10.38 17.843l-33.25 48.875 35.37 46.219s-5.51 6.463-8.78 11.094c-16.22 22.948-23.72 44.402-22.69 62 1.13 19.007 12.21 33.512 32.97 40.469 11.4 3.817 27.64-.851 38.57-10.75 8.81-7.989 13.25-18.372 13.43-30.563.27-17.416-8.14-38.514-24.9-61.531-4.55-6.249-6.78-11.156-6.78-11.156s23.46-33.408 32.31-48.688l-32.06-46.062c25.49-38.31 30.63-46.799 31.34-70.344-1.15-23.332-18.08-43.265-44.25-43.406zm-3.19 2.812c1.1-.018 2.21.009 3.32.094 29.11 2.243 44.48 23.881 40.62 51.656-3.95 26.487-27.83 51.167-31.66 59.687 11.49 18.661 33.13 45.188 33.13 45.188-9.19 16.698-32.91 49.062-32.91 49.062s1.37 2.677 2.88 4.813c24.76 35.096 31.58 51.683 29.87 72.719-1.34 16.593-14.44 31.399-30.78 34.406-25.88 4.763-47.11-13.605-49.72-38.406-1.59-21.71 12.41-42.816 23.28-59.282 4.61-6.898 8.57-13.5 8.57-13.5l-35.25-46.281s2.52-3.978 4.15-6.344c6.2-8.995 14.22-20.132 18.32-25.468 7.41-9.65 11.81-16.313 11.81-16.313s-5.26-8.456-10.13-16.156c-19.33-30.537-24.72-46.188-21.75-63.063 3.66-20.758 19.74-32.538 36.25-32.812zm2.63 15.656c-10.76.286-21.03 8.22-25.13 19.688-5.91 21.507 16.73 54.07 27.03 62.812 19.31-22.197 31.6-47.098 24.47-64.531-4.69-10.542-15.62-18.255-26.37-17.969zm2.65 6.969c19.5.403 26.8 23.548 11.75 49.875-5.19 8.986-12.84 18.375-12.84 18.375s-7.14-8.902-11.44-15.625c-17.42-27.275-12.93-48.571 8.47-52.375 1.41-.181 2.76-.277 4.06-.25zm-387.96 12.031c-51.04.27-119.23 8.77-179.16 22.375-5.2 32.149-21.34 64.392-38.94 90-16.95 27.687-23.07 51.796-17.4 68.313 5.3 15.463-9.18 38.549-25.1 40-19.78 1.803-32.37 15.575-32.12 35.187-.57 31.422 21.12 50.686 50.56 40 2.96-.37 4.94 1.563 4.94 1.563l-1.72 179.844c-16.57 2.601-27.63 6.206-41.72 13.687l-5.94-6.375c-3.26-3.505-7.39-7.995-9.19-10-1.79-2.005-5.05-4.802-7.21-6.187-2.17-1.386-5.11-4.378-6.54-6.657-3.47-5.565-18.2-19.725-26.25-25.218-1.37-.936-4.84-3.882-7.71-6.532l-5.26-4.812.04-59.719c.01-32.843-.32-60.066-.75-60.5s-7.16 2.434-14.97 6.375c-26.83 11.74-52.46 27.933-72.13 41.063-8.71 5.834-9.58 9.078-6.31 23.843 1.84 8.285 1.38 9.174-5.44 10.844-14.04 3.438-18.44 25.816-6.56 33.406 5.57 3.56 5.6 3.747 2 11.844-5.56 12.523-5.35 36.476.41 46.469 3.28 5.705 3.06 7.547-1.29 10.375-14.96 9.738-13.94 30.575 1.69 34.469 4 .995 5.04 2.708 3.72 6.125-4.89 12.618-.43 31.791 10.78 46.312 5.83 7.548 5.81 7.465 1.97 10.938-12.59 11.377-5.77 31.763 11.38 34 5.88.767 5.91.78 6.59 5.281 1.97 12.937 2.86 16.548 5.72 22.625 3.61 7.66 7.94 12.836 16.06 19.156 6.62 5.155 6.63 5.228 3.09 12.844-6.53 14.079 3.86 28.042 20.44 27.469 8.45-.293 8.46-.316 9.06 2.687 2.99 14.698 20.45 31.94 34.79 34.313 7.37 1.219 8.53 2.971 6.03 9.218-4.03 10.056-1.42 16.536 8.75 21.754 6.82 3.49 8.81 3.62 16.28 1.06 8.45-2.9 8.54-2.86 15.72 6.75 10.12 13.54 16.83 16.94 33.72 17.06 11.13.08 11.55.37 11.62 8.22.17 18.59 19.83 26.34 32.5 12.81 4.57-4.87 4.56-4.85 8.63-1.87 17.82 13.06 33.62 16.43 32.15 4.22-3.44-28.59-24.12-46.04-24.12-46.04l25.84 6.76c1.14 30.18 2.21 66.58 8.5 91.74l-115.19 183.47s-6.98-4.27-14.34-9.34c-10.83-7.47-24.09-16.25-32.22-21.34-4.16-2.61-9.47-5.79-13.66-9.32-4-3.34 2.48-7.75 3.85-11.28 26.52-47.36 68.03-104.28 98.25-159.62l-29.25-11.31c-22.38 35.23-38.86 63.58-59.69 96.06-20.75-152.22-126.98-285.851-255.5-342.128l.44 39.844c134.92 69.019 231.22 211.464 228.66 379.464-.53.64-11.3-5.81-25.85-15.5-7.67-5.1-23.11-15.2-25.03-16.18 6.24-186.06-178.28-296.077-178.59-290.878 0 0-1.16 24.044-1.69 35.188 78.63 52.68 140.4 148.52 146.66 233.81.06.7-36.91-23.06-36.91-23.06 22-10.95 15.94-39.34.09-47.03-4.96-2.23-5.25-3.3-2.78-10 5.07-13.75-4.23-34.44-17.03-37.91-5.61-1.52-6.54-2.99-6.81-10.87-.5-14.41-8.48-23.84-22.85-27-3.96-.88-4-.91-4.21-5.88-1.22-27.916-28.52-39.287-49-20.4-2.29 2.11-4.69 6.12-4.69 6.12l-.16 30.28c7-3.85 17.61-17 21.97-16.47 4.82.57 2.48 3.8-8.34 13.16-7.03 6.07-13.85 12.47-13.85 12.47l.44 39.87c11.67-7.57 23.35-16.13 34.28-23.75 9.42-6.57 14.25-8.71 15.41-6.81 1.3 2.13-.8 4.92-6.16 8.13-14.36 9.56-31.07 20.79-43.16 30.25l-.03 27.46 2.32 3.41.68 24.06-2.15.53.03 30.32 283.78 181.28 144.41-227.81 2.37 2.4-144.44 226.85s5.94 5.11 11.57 8.06c5.73 3.21 12.9 7.49 19.03 11.56 2.89 4.74 7.95 8.91 13.37 8.31 4.97-5.42 26.67-11.16 28.75-13.67 80.8-1.19 312.72.39 312.72.39l1.31 37.1c-10.42-35.97-44.04-43.39-70.46-27.29l-43.41.07c-.34 0-25.69 46.19-29.41 70.31-18.24-2.48-42.52 15.3-43.75 33.34-2.95 25.68 13.92 44.4 35.97 40.75.4.16-3.46 25.44-15.94 45.19-16.55 34.86-25.08 54.36-35.18 84.09-6.84 18.69-4.51 22.01-3.35 22.47 64.76-.93 124.33-7.2 185.78-27.03 0 0-1.13-4.38-1.68-6.84-2.22-9.95 6.14-30.32 29.78-72.38 18.25-32.48 23.48-44.88 25.31-60.22.93-7.76.76-9.77-1.94-24.25-.17-1.34-1.22-3.29-.94-4.75 1.92-9.75 16.76-26.88 17.1-26.46 0 0 5.38-1 7.53-1.19 33.48-2.35 43.85-47.85 15.59-68.38-13.77-8.43-21.87-9.07-36.46-5.25l-.26-176.47 20.35.77 22.37-11.05c35.94 30.69 59.38 62.06 98.07 85.69l-.63 1.56-28.75-19.71.06 115.62c33.28-17.32 64.31-33.3 94.22-57.53l-6.03-5.22.25-16.53c28.11 2.22 30.82-33.57 7.72-37.84 0 0 .53-2.89 2.75-7.44 7.09-14.55 7.97-28.25 2.81-43.38-3.15-9.23-3.01-11.55.72-11.53 17.08.09 15.51-30.21-1.91-36.84-5.99-2.29-5.56-.39-4.34-19.19.92-14.12-2.52-23.7-12.97-36.09-3.94-4.68-3.61-6.94 1.47-10.03 14.58-8.9 4.02-34.6-13.9-33.85-7 .29-6.99.29-7.6-6.72-1.59-18.41-11.87-35.96-25.34-43.31-4.18-2.28-4.79-4.14-2.44-7.28 11.47-15.342.75-36.316-15.44-30.189-3.13 1.187-6.45 2.379-7.34 2.656-1.28.396-2.31-1.391-4.78-8.344-6.73-18.929-12.71-24.865-34.13-33.875-4.21-1.771-4.46-3.019-2.56-11.656 3.28-14.909-17.25-28.787-28.34-19.156-4.52 3.923-4.67 3.889-9.75-2.625-10.13-11.656-26.62-19.778-41.28-21.313-7.02-.631-8.08-1.178-7.5-3.875 3.89-18.267-13.88-30.169-28.66-19.187-7.1 5.274-8.93 5.433-16.22 1.344-15.32-8.595-22.03-8.918-23.62-1.157-.5 6.465.93 14.115 2.5 18.875 3.72 12.834 8.55 17.596 19.12 26.625 0 0-17.54-4.864-21.97-5.75.44-.459-1.27-60.899-12.78-95.125l112.16-178.5 64.25 42.375-102.75 162.532 29.9 12.156s39.94-66.347 60.85-98.875c13.69 161.556 138.58 303.224 251.72 345.254-.39.19.36-23.23.84-34.57-119.36-52.55-232.9-199.417-225.75-375.684l47.94 30.687c13.91 141.276 75.45 224.065 178.03 294.067v-43.285c-70.64-52.281-129.34-120.569-144.91-229.844 0 0 23.95 15.132 34.69 22.312 0 0-3.03 1.729-4.6 3.032-12.81 10.667-8.96 32.55 7.94 44.937 2.75 2.013 2.77 2.017.19 8.906-5.13 13.672 2.78 30.197 16.13 33.657 7.65 1.984 7.61 1.89 7.74 10.656.28 17.021 7.14 24.865 25.32 28.937 2.48.556 2.57.813 2.53 8.438-.1 18.814 17.97 31.468 33.72 23.594 4.93-2.466 20.43-15.438 20.43-15.438v-30.281s-7.02 5.742-12.09 10.469c-8.88 8.275-11.68 9.302-11.65 4.25.01-3.665 4.1-8.472 12.62-14.813 4.42-3.288 11.12-10.312 11.12-10.312v-35.282s-3.96-6.283-3.71-13.812c.13-4.095 1.28-10.313 1.28-10.313l4.25.094-.06-40.844-5.16-4.031.22-27.062-280.6-181.562-146.15 232.437-3.66-4.281 146.31-230.969-38.87-24.844-23.47 11.563s-162.41-2.562-320.81-.531c0 0-.38-4.371-.31-16.719.08-15.521.79-17.697 3.65-11.156 6.41 14.678 22.32 23.529 40.78 22.687 10.43-.476 11.88-.901 23.47-7.156 4.31-2.325 5.09-2.395 25.41-2.25 21.78.155 25.69-.642 25.72-5.25 7.58-17.249 15.04-37.262 19.37-52.313 2.09-7.293 3.01-10.51 4.72-12 1.32-1.154 2.37-.894 5.53-1.093 13.94-.897 17.81-1.797 27.85-11.594 20.12-20.218 8.58-61.342-20.57-61.5-7.72-.042-2.44-20.584 13.88-53.906 16.87-34.478 19.24-39.765 27.97-62.875 5.7-15.106 8.42-25.937 9.12-32.532-1.61-.008-3.26-.009-4.9 0zm-1.54 9.969c4.04 3.387-6.04 28.286-24.22 65.969-14.99 31.107-21.7 46.664-24.9 57.937-.92 3.251-2.24 7.936-2.94 10.407-.98 3.476-2.27 5.192-5.72 7.656-2.45 1.75-5.86 4.328-7.59 5.719-4.91 3.941-6.08 2.689-4.88-5.25 2.24-14.733 8.08-30.626 21.57-58.282 10.69-22.009 21.14-45.598 29.28-69.656 1.83-5.618 2.68-11.325 5.72-13.406 4.37-2.452 8.99-1.968 13.68-1.094zm-21.87 1.438c2.78 1.924-10.41 36.025-33.25 83.375-28.5 59.08-30.01 100.468-4.38 110.593 20.22 7.983 40.57-14.286 28.1-30.531-6-7.81-18.93-8.469-23.41-.375-2.44 4.416.95 9.507 5.28 3.313 6.31-9.014 18.93 1.392 15.88 12.062-2.09 7.318-12.34 13.205-18.69 11.938-28-5.59-22.73-45.078 6.31-47.25 27.79-2.08 40.43 35.235 20.25 56.593-6.4 6.916-13.89 10.361-26.94 10.344-18.08-.024-34.99-14.964-33.28-28.812 2.4-12.677 2.76-22.92-1.53-32.907-1.38-3.207-3.06-6.397-2.97-10.437.26-11.228 9.51-28.659 30.13-71.719 7.39-15.429 16.46-42.175 20.94-59.062 1.58-4.939.8-6.327 2.65-7.01 4.62-1.015 11.2-2.402 14.91-.115zm-23.85.593c4.24.183-5.5 31.25-17.78 57.719-9.31 20.266-22.03 46.3-31.5 70.375-3.02 5.105-5.05 5.502-11.25 2.188-6.83-3.652-4.81-9.461 11.32-41.532 12.15-24.356 23.84-51.91 32.03-79.656.74-3.332 1.86-6.215 4.62-7.812 4.21-1.839 8.31-1.468 12.56-1.282zm-22.68 3.5c2.25 2.984-12.52 44.866-35.38 92.094-4.88 10.027-8.18 19.193-13.09 29.438-2.36 2.373-11.45 3.578-16 4.5-4.69-.626-.24-9.431 13.12-36.469 10.9-22.041 14-28.278 19.72-41.688 4.17-9.818 10.25-26.686 15.94-42.437.46-1.271.9-4.098 2.13-4.75 4.24-1.791 9.41-2.519 13.56-.688zm-22.32 2.625c.38 1.008-.47 3.087-.78 4.688-3.59 16.854-11.81 32.545-17.81 48.656-.72 2.196-7.3 15.912-14.62 30.469-7.33 14.557-14.05 28.457-14.94 30.906s-3.33 8.95-5.41 14.438c-13.15 28.214.99 50.453 18.41 52.007 27.17 2.249 29.74-35.84 10.57-39.503-7.23-1.215-15.18 2.75-15.22 11.063-.51 4.349 4.83 9.393 4.76 3.151-.29-11.35 15.57-10.827 17.52-1.187 3.81 18.786-17.54 27.967-30.26 13.219-5.23-6.075-5.19-13.005-4.22-19.219 2.64-16.811 22.02-28.971 39.97-16.281 24.57 17.362 16.09 55.752-15.65 62-10.85 2.826-24.53-.789-33.1-9.594-5.45-5.607-9.03-13.87-10.4-24.125-.77-5.708-1.07-12.427-.19-18.719 2.57-19.711 16.95-48.497 29.56-72.875 9.74-20.227 17.39-46.943 26.25-68.437 2.5-1.832 15.94-3.526 15.56-.657zm-23.96 2.688c1.44.446-5.98 23.799-16.57 49.031-11.65 25.594-26.77 54.877-35.34 80.063-2.7 6.179-4.67 5.995-12.34-1.157-4.06-3.775-1.78-9.4 12.43-38.406 21.86-44.621 29.98-63.656 33.25-74.281 1.54-4.994 2.78-11.121 6.07-13.063 4.2-1.985 8.33-3.444 12.5-2.187zm-21.85 5.594c-2.31 7.512-9.89 29.776-22.84 56.156-8.13 16.651-16.07 35.097-24.09 52.281-4.49 10.604-4.61 10.593-12.26 12.188-12.87 2.687-12.87 2.544-1.5-20.532 3.39-6.857 9.89-19.451 14.47-27.968 8.46-15.698 21.52-46.262 26.25-61.5 1.27-4.081 3.04-7.911 5.1-10 1.32-.705 11.46-3.733 14.87-.625zm-28.15 2.812c2.3-.083 4.37.329 5.34 1.594.57 5.24-13.58 38.751-22.28 54.281-2.66 4.762-5.29 10.933-8.28 16.438-11.09 17.635-24.41 51.528-27.85 65.593-5.45 22.347 20.09 39.242 33.33 22.994 8.41-9.835-.34-27.528-12.45-22.587-4.23 1.725-2.5 3.614 3.27 4.099 9.54.801 10.27 15.507.16 18.738-11.24 3.44-19.52-6.306-19.48-16.283.09-20.461 22.47-27.979 36.48-16.801 13.98 11.639 16.21 39.306-4.96 50.028-20.64 10.452-46.05-3.716-51.16-28.5-3.9-18.915.33-36.248 18.53-65.406 10.46-16.785 26.72-45.761 35.03-71.188 1.63-4.31 3.07-7.879 4.57-9.687 1.38-1.606 5.91-3.174 9.75-3.313zm-497.35 5.125s-8.23 15.784-19.59 34.719c-13.86 23.417-34.28 46.535-37.28 72.719-.81 7.456.42 14.939 1.94 19.531 6.33 19.266 33.92 22.173 43.56 5.937 2.89-4.877 3.87-5.779 6.68-4.25 1.22.656 1.72 2.551 1.66 5.219-2.39 17.287-9.06 26.789-18.62 39.781h46.03c-9.69-10.669-17.91-25.386-18.91-40.281-.3-6.101 3.43-6.615 9 .063 17.96 24.817 46.18-3.065 43.88-26.219-2.57-25.769-29.52-59.096-36.94-72.188-11.23-16.611-21.41-35.031-21.41-35.031zm1050.63 54.406-27.72 35.25c8 11.553 27 34.282 27 34.282l26.28-33.938zm.25 19.719 11.47 14.875-13.13 15.5-12.31-14.469zm1.03 76.625s-33.51 36.722-25.81 63.969c6.87 24.274 43.39 30.174 52.28-5.344.62-2.828.13-6.652-.25-11.406-.76-14.466-26.22-47.219-26.22-47.219zm0 7.25s9.62 13.953 16.4 26.313c7.6 11.756 9.59 44.614-17.37 43.593-14.61 1.507-28.56-17.755-16.94-41.312 3.17-7.174 17.91-28.594 17.91-28.594zm-553.13 5.906c1.87-.29 3.74 3.733 4.91 6.657 1.6 3.975-2.97 15.426-7.78 21.125-.92.958-7.07 1.487-16.22 6.156-.02-4.288 2.59-13.683 4.31-17.844 6.24-6.164 11.53-13.506 14-15.687.26-.233.52-.365.78-.407zm-66.78 2.063c4.12 4.662 8.17 8.708 8 11.594-.24 4.222-5.21 9.443-8.97 13.156-4.71 4.659-14.12 1.888-14.09-4.156.01-2.234 13.45-20.603 15.06-20.594zm141.85 6.062c3.98 2.133 8.01 9.396 8.53 12.688-5.84 31.404-27.42 69.784-26.69 68.344 0 0-13.23 2.357-18.84-.5 14.53-20.18 24.27-45.854 30.87-66.875 2.84-9.067 4.12-13.631 6.13-13.657zm-12.25 4.407c2.22-.129 3.08 1.668 1.21 6.531-8.54 34.727-27.74 71.23-42.84 77.875-19.82 8.727-39.53 1.481-48-13.438-9.16-16.148-7.53-41.638 23-47.218 17.96-1.842 36.37 12.319 26.78 35.093-10.67 16.894-39.34 7.478-30.94-14.312 6.36-7.985 19.66-1.059 15.32 7.969-2.21 4.579-.08 7.394 3.18 4.218 10.46-10.18-6.74-27.649-18.34-18.906-18.92 14.26 4.45 45.605 26.47 32.156 6.71-4.098 18.85-27.091 23.41-43.843 1.96-7.211 3.72-14.06 8.37-18.438 4.42-4.165 9.52-7.523 12.38-7.687zm-50.16 1.375c1.08.041 2.35.579 4.09 1.437 2.21 1.087 4.8 3.07 4.5 5.625-.34 2.957-2.03 9.382-5.43 12.5-2.05-.702-7.71-2.962-11.57-4-2.42-.652.8-5.866 2.28-8.75 2.39-4.647 3.71-6.597 5.66-6.781.15-.014.32-.037.47-.031zm-62.41 1.187c2.85-.053 7.37 3.106 10.35 3.531.57 4.311-4.91 13.541-13.85 24.438-7.32 8.938-7.28 8.954-12.15-.875-3.17-6.401-3.26-6.225 5.78-17.469 4.86-6.044 7.2-8.812 9.31-9.562.17-.034.37-.06.56-.063zm28.35 3.156c.13 2.305-1.04 7.388-2.03 10.344-10.13 30.255-33.79 60.229-53.32 67.594-25.48 8.327-48.81-5.095-49.4-36.031.64-36.453 44.04-46.557 57.15-13.313 5.92 15.01-10.21 37.576-24.15 33.813-14.07-3.798-19.95-25.759-8.35-31.188 7.61-3.558 15.47 2.407 13.82 10.469-.58 2.796-.42 3.181 1.21 2.875 7.24-1.352 3.42-15.878-5.12-19.5-16.13-6.846-28.33 14.888-17.44 31.094 13.04 19.401 33.54 15.682 45.35-8.25 2.01-4.074 5.83-9.921 8.47-12.969 7.15-8.276 9.42-11.53 15.74-22.469 3.49-6.026 5.35-9.836 7.13-11.812 2.83-.193 4.77.592 10.94-.657zm57.15 1.594c3.06.024 5.42 2.011 5.35 6.25-.06 3.546-5.13 18.488-7.5 22.063-.91 1.372-3.03 6.175-3.35 5.125-2.97-9.943-8.3-13.017-9.06-15.625-.89-3.06 1.8-5.996 3-8.75 2.55-5.856 7.63-9.093 11.56-9.063zm53.88 4.719c3.69-.031 8.92 1.664 10 4.406 3.37 5.919-19.45 61.021-20.28 61.188l-17.03-.75c10.22-21.972 19.27-43.745 25.84-64.719.45-.077.94-.121 1.47-.125zm228.5 87.219 21.66 12.875-142.76 226.843-20.74-15.875zm-356.16 4.687c133.34.497 316.97.25 316.97.25l-7.75 14.719s-200.57-1.957-309.22-1.75zm-180 9.281-.28 74.563s-1-.437-13.72-8.906c-15.26-10.162-32.01-20.634-37.4-23.375-7.95-4.042-6.91-5.992 8.37-15.719 15.01-9.03 43.03-26.563 43.03-26.563zm570.91 7.407 13.41 8.468-150 238.75-8.35-16.375zm-390.88 3.312h20.88v23.594h-20.88zm47.82 0h25.34v23.594h-25.34zm55.37.25h26.06v23.594h-26.06zm54.34.094h26.35v23.593h-26.35zm54.76.156h26v23.594h-26zm54.78.5h26.59v16.625l-4.03 6.969h-22.56zm143.34 7.688 254.41 164.593-.16 22.719-264.84-171.156zm-16.69 19.25 2.19 1.562-10.78 16.5-2.22-1.25zm-393 2.437h285.57l-8.6 14.469-276.97-.406zm-234.43 7.375c1.92-.123 5.67 1.571 11.5 4.844 14.04 7.879 22.87 24.498 16.81 30.5-5.4 5.338-18.04-6.099-25.88-22.438-4.15-8.661-5.24-12.726-2.43-12.906zm505.28 14.25-92.13 147.25c-20.83-28.542-44.17-53.202-95.15-36.5-26.58-20.552-54.69-23.723-84.6-6.281l.34-103.969zm-474.25.063 7.18 6.218c-2.12 4.055-3.09 9.924-4.47 15.157-.1-7.176-.73-14.317-2.71-21.375zm584.03 1.531 283.84 186.75v17.312l-293.75-189.25zm-621.69 4.25c3.67-.071 7.26 1.498 9.97 4.75 4.29 5.159 2.52 14.616-3.5 18.656-12 8.045-26.39-7.526-16.88-18.25 2.99-3.361 6.74-5.086 10.41-5.156zm47 2.219 15.5 12.406c-26.9 153.435 49.96 308.334 215.5 354.75l1.87 19.651c.32.94-70.33-20.976-101.18-44.057-42.19-28.538-77.83-68.725-102.41-115.469-16.76-30.141-25.96-63.332-31.91-90.156-7.02-46.021-6.82-91.576 2.63-137.125zm-17.59 20.812c5.94.243 6.58 4.524 1.81 12.75-6.14 10.577-15.34 17.94-30.25 24.219-8.22 3.458-10.36 1.888-9.41-6.875 1.43-13.176 10.6-22.82 26.47-27.906 3.81-1.058 7.66-2.21 11.38-2.188zm45.62 1.656c2.43 2.054 3.19 2.7 6.16 5.219-5.09 1.743-8.75 6.542-8.75 12.219 0 7.145 5.79 12.937 12.93 12.937 6.41 0 11.69-4.64 12.72-10.75 2.32 1.986 4.5 3.842 6.19 5.313-2.98 7.527-10.32 12.844-18.91 12.844-11.22 0-20.34-9.117-20.34-20.344 0-7.443 4.03-13.9 10-17.438zm10.34 10.188c.71 0 1.39.124 2.04.312 1.62 1.381 2.93 2.506 4.5 3.844.45.944.72 1.978.72 3.094 0 4.003-3.25 7.25-7.26 7.25-4 0-7.24-3.247-7.24-7.25s3.24-7.25 7.24-7.25zm-48.84 4.687c-1.68 19.788-1.16 40.477-.53 61.188-3.82-16.413-12.34-28.694-26.53-37.094 9.8-6.77 20.05-15.004 27.06-24.094zm74.6 15.532 13.78 11.906c-11.85 162.421 130.49 224.058 134.31 221.344l6 18.375c-98.29-33.452-166.23-135.045-154.09-251.625zm792.84 389.392-.72 20.45c-111.53-43.28-238.65-202.948-237.03-355.936-28.64 43.903-44.73 73.203-69.31 112.75l-19.57-9.316c32.18-47.943 62.77-99.221 95.05-146.32 3.67-5.319 6.68-7.758 6.85 3.872-.02 52.639 16.31 269.197 224.73 374.5zm-906.88-376.705c3.59-.229 8.72 1.508 15.19 5.844 10.2 6.838 21.64 27.972 17.69 32.687-3.56 4.241-18.68-.804-26.19-8.75-14.87-15.745-15.85-29.195-6.69-29.781zm86.97 2.125c11.23 0 20.35 9.085 20.35 20.313 0 11.227-9.12 20.343-20.35 20.343-11.22 0-20.34-9.116-20.34-20.343 0-11.228 9.12-20.313 20.34-20.313zm45.53 1.938 13.28 15.562c2.6 136.318 110.2 178.352 109.19 178.688l3.25 14.656c-5.99.84-133.12-57.032-125.72-208.906zm-45.53 5.437c-7.14 0-12.93 5.792-12.93 12.938 0 7.145 5.79 12.937 12.93 12.937 7.15 0 12.94-5.792 12.94-12.937 0-7.146-5.79-12.938-12.94-12.938zm0 5.688c4 0 7.25 3.247 7.25 7.25 0 4.002-3.25 7.25-7.25 7.25s-7.25-3.248-7.25-7.25c0-4.003 3.25-7.25 7.25-7.25zm68.75 12.343c1.64.009 9.32 11.157 9.32 11.157s-8.43 2.956-12.07-.719c-3.61-3.65-1.66-10.462 2.75-10.438zm589.16 5.032 19.94 13.625c9.31 91.966 61.99 175.861 141.43 234.062l-.5 22.781c-96.76-65.386-150.49-154.224-160.87-270.468zm-747 1.562c.32-.02.65-.005.97 0 12.19.205 17.36 18.942 4.31 24.313-8.2 3.376-17.13-1.5-18-9.844-.61-5.875 3.75-12.164 9.69-13.906 1.05-.309 2.05-.504 3.03-.563zm166.37 12.281c3.2.01 6.68 1.845 9.97 5.563 8.75 9.862 8.67 12.726-.56 16.469-12.97 5.263-23.76-2.05-19.44-13.188 2.27-5.85 5.92-8.85 10.03-8.844zm-132.84.469c1.05-.022 2.04.117 2.94.469 9.56 3.729-11.17 41.713-24.88 45.562-8.71 2.447-10.53-.952-7.69-14.281 3.17-14.816 19.44-31.539 29.63-31.75zm61 .875c11.23 0 20.34 9.085 20.34 20.313 0 11.227-9.11 20.343-20.34 20.343s-20.34-9.116-20.34-20.343c0-11.228 9.11-20.313 20.34-20.313zm0 7.375c-7.14 0-12.94 5.792-12.94 12.938 0 7.145 5.8 12.937 12.94 12.937s12.94-5.792 12.94-12.937c0-7.146-5.8-12.938-12.94-12.938zm-50.84 1.094c1.8 18.811 4.86 36.214 13.21 59.375-7.83-12.527-19-18.75-29.71-25.844 7.5-11.177 16.19-22.354 16.5-33.531zm50.84 4.594c4 0 7.25 3.247 7.25 7.25 0 4.002-3.25 7.25-7.25 7.25s-7.25-3.248-7.25-7.25c0-4.003 3.25-7.25 7.25-7.25zm115.13 2.218c21.21-.456 36.21 17.013 35.28 33.75.62 19.438 1.32 31.886-.28 56.032l-17.22-31.532c-.25-8.936 1.27-15.701.59-24.593-1.95-23.913-25.39-20.593-26.5-18.219l-7.41-12.031c5.44-2.242 10.64-3.302 15.54-3.407zm74.71 2.407c19.88-.023 31.4 11.173 32 31.093 1.17 38.14-.87 125.219-.87 125.219l-43 .031-23.47-58.187s-.93-5.597-.75-9.657c1.49-18.66.56-39.43 1.19-56.281 2.47-17.865 17.16-32.199 34.9-32.218zm-99.5 6.031c2.77-.035 5.33.808 7.29 2.781 9.97 10.086 9.91 16.699-.19 21.25-13.37 6.018-20.32 4.878-24.88-4.062-4.47-8.765 7.91-19.845 17.78-19.969zm626.88 2.75 10.91 7.031s-2.3 3.587-3.54 5.719c-6.19 10.653 4.34 16.903 18.91 11.25 2.63-1.021 4.87-2.469 4.87-2.469l9 6.125s-6.48 3.505-13.56 6.969c-18.19 8.901-31.26 5.124-35.65-10.281-1.75-6.115 0-13.773 3.4-18.25 1.74-2.291 5.66-6.094 5.66-6.094zm-461.25 1.281c16.64-.567 32.84 12.435 36.69 29.906 1.59 8.183-.47 116.375-.47 116.375l-66.03-.031 1.15-113.5c-.43-7.177 0-14.279 3.85-19.375 7.25-9.038 16.09-13.078 24.81-13.375zm-68.56 4.969c-13.34.614-20.91 22.217-7.19 32.406 5.73 4.256 5.85 5.056 2.78 19.438-3.5 16.407.12 38.884 8.31 51.531 6.28 10.473 5 5.12 1.78-4.219-4.13-17.51-2.1-30.374 8-50.719 9.04-17.138 17.79-43.491-10.93-48.25-.94-.155-1.86-.228-2.75-.187zm548 4.937 5.96 4.032s-.89.744-2.18 2c-2.39 2.312-7.14 2.68-8.6.906-2.41-2.941 4.82-6.938 4.82-6.938zm-475.69 8.375c-14.34-.481-23.77 26.106-5.44 32.532 4.17 2.69 4.87 6.212 2.28 11.187-3.47 6.683-6.94 22.559-6.4 29.188.77 9.515 3.21 21.937 5.12 26.25 4.81 11.881 3.85 7.135 2.59-6.594-.48-15.342 2.61-26.405 11.54-41.063 10.6-17.577 25.19-46.162-8.28-51.375-.48-.073-.95-.109-1.41-.125zm-246.63.094c11.23 0 20.35 9.085 20.35 20.312 0 11.228-9.12 20.344-20.35 20.344-11.22 0-20.34-9.116-20.34-20.344 0-11.227 9.12-20.312 20.34-20.312zm94.28 2.062c3.51-.034 6.15 2.299 9.35 7.063 8.78 13.096 7.77 15.778-9.16 25.094-17.94 9.868-29.93-14.95-12.78-26.438 5.19-3.472 8.86-5.399 11.88-5.687.24-.023.48-.03.71-.031zm-186.18.969c18.92.195 48.48 27.207 34.06 31.125-2.06.561-4.65.942-5.75.875-23.77-1.451-51.01-32.232-28.31-32zm91.9 4.344c-7.14 0-12.93 5.792-12.93 12.937 0 7.146 5.79 12.938 12.93 12.938 7.15 0 12.94-5.792 12.94-12.938 0-7.145-5.79-12.937-12.94-12.937zm749.38 3.812 9.44 6.407s-5.77 2.653-12.57 6.281c-18.45 9.856-23.81 17.088-17.43 23.531 2.27 2.302 4.96 3.301 9.81 1.469 12.79-4.968 24.72-13.716 36.65-20.625l7.1 4.875c-.16-.326-28.21 19.944-43.53 28.469-24.05 12.347-37.79-12.896-24.41-29.75 10.32-10.263 21.38-13.628 34.94-20.657zm-749.38 1.875c4.01 0 7.25 3.248 7.25 7.25 0 4.003-3.24 7.25-7.25 7.25-4 0-7.25-3.247-7.25-7.25 0-4.002 3.25-7.25 7.25-7.25zm764.13 6.782 5.15 3.468s-.55.261-16.31 9.313c-17.14 9.849-17.89 10.02-18.84 8.469-.84-.468.33-4.491 5.59-8.032 9.23-6.203 25.55-13.743 24.41-13.218zm-446.03.5c11.68-.226 23.58 5.32 30.37 17.187 3.47 9.014 3.76 17.38 3.72 26.844l-.28 63.531h-66.5s-3.09-43.304 0-79.344c3.02-18.106 17.67-27.928 32.69-28.218zm-206.53 9.406c4.22-.309 7.33 3.835 11.34 12.813 3.97 8.891.99 13.919-11.5 19.312-1.58.682-3.38 1.184-4 1.125-12.63-1.205-17.79-15.758-8.72-24.594 5.62-5.476 9.59-8.415 12.88-8.656zm675.87 6.5 5.78 3.594s-2.96 2.681-24.44 18.344c-17.34 12.649-19.84 16.088-16.21 23.187 2.92 5.73 9.26 4.984 18.03-1.75 12.15-9.341 31.28-25.156 31.28-25.156l.62 10.812c-12.58 10.116-27.78 27.371-39.87 33.938-23.34 11.495-40.08-20.072-18.75-35.625 18.38-13.408 43.56-27.344 43.56-27.344zm-466.81.031c-17.38-.144-23.85 25.657-5.16 31.125 5.38 2.882 4.93 4.368 1.35 17.219-2.18 7.78-2.88 17.372-1.69 23.469 1.4 7.772 3.12 7.591 2.41-.75.02-4.563 4.71-16.737 9.4-24.375 17.34-24.163 12.79-46.456-6.31-46.688zm-405 .313c11.47.078 17.88 16.051 7.94 22.937-7.05 4.88-21.8-1.074-21.75-8.781.03-6.569 5.2-12.824 11.46-13.938.81-.143 1.58-.224 2.35-.218zm33 1.343c3.61-.01 5.68 5.28 5.65 15.75-.03 15.017-5.37 28.102-14.56 35.75-13.3 11.072-16.27-19.105-3.84-39.062 5.18-8.313 9.56-12.432 12.75-12.438zm851 3.969c3.27-.051 2.76 2.455-1.03 5.094-2.95 2.047-7.95 6.149-23.44 19.219-2.81 2.371-6.84 5.468-8.94 6.875-5.16 3.458-9.53 2.558-7.03-1.438 2.46-3.932 37.49-29.703 40.44-29.75zm-779.31.688c11.22 0 20.34 9.086 20.34 20.312 0 11.228-9.12 20.344-20.34 20.344-11.23 0-20.35-9.116-20.35-20.344 0-11.226 9.12-20.312 20.35-20.312zm0 7.375c-7.15 0-12.94 5.794-12.94 12.937 0 7.145 5.79 12.938 12.94 12.938 7.14 0 12.93-5.793 12.93-12.938 0-7.143-5.79-12.937-12.93-12.937zm-243.28.375c137.58 69.563 223.36 199.706 244.53 347.966l66.84-106.03 18.06 6.81-97.4 158.75-4.22-1.31c-.41-155.09-77.71-301.803-228.13-382.311zm243.28 5.312c4 0 7.25 3.249 7.25 7.25 0 4.003-3.25 7.25-7.25 7.25-4.01 0-7.25-3.247-7.25-7.25 0-4.001 3.24-7.25 7.25-7.25zm-56.78.844c6.01 13.305 13.34 27.264 24.65 43.219-11.47-10.778-24.01-10.313-36.44-11.938zm163.59 2.875c2.14-.104 4.27.797 5.94 3.094 5.62 7.734 6.66 14.907 2.75 18.781-5.37 5.305-13.9 3.208-17.75-4.344-4.01-7.855 2.65-17.219 9.06-17.531zm674.75 10.75.22 12.031s-2.57 3.086-5.28 5.625c-7.67 7.174-18.16 18.613-18.91 21.532-2.43 9.488 6.95 12.969 16.19 6 3.19-2.407 7.78-6.063 7.78-6.063v14.813c-7.8 6.63-15.58 13.147-26.22 11-6.2-1.893-11.65-6.771-12.78-13-4.44-18.662 13.63-29.078 27.66-41.563 4.52-4.03 11.34-10.375 11.34-10.375zm-752.91 10.5c.35-.017.68 0 1.03 0 11.23 0 20.35 9.085 20.35 20.313 0 11.227-9.12 20.343-20.35 20.343-11.22 0-20.34-9.116-20.34-20.343 0-10.877 8.57-19.769 19.31-20.313zm408.5 4.563c11.09-.044 16.96 14.886 8.03 23.343-3.5 3.325-11.42 5.685-15.9 2.563-12.36-8.61-3.26-25.34 7.87-25.906zm-22.12 11.843c6.41 6.805 11.27 26.575 7.5 30.313-8.37 8.631-32.66-20.08-31.21-38.841 2.58-11.253 21.33 6.011 23.71 8.528zm-297.31-10.781c4.64.025 5.51 4.195 4.46 6.656-1 2.344-4.63 2.532-7.53 1.344-4.92-2.018-2.61-8.031 3.07-8zm-88.04 1.75c-7.14 0-12.93 5.792-12.93 12.938 0 7.145 5.79 12.937 12.93 12.937 7.15 0 12.94-5.792 12.94-12.937 0-7.146-5.79-12.938-12.94-12.938zm-96.84 5.688c24.54.03 50.42 19.354 27.91 23.187-16.72 2.845-27.55-.458-40.57-12.344-6.61-6.039-4.25-9.248 7.78-10.593 1.61-.18 3.25-.252 4.88-.25zm96.84 0c4.01 0 7.25 3.247 7.25 7.25 0 4.002-3.24 7.25-7.25 7.25-4 0-7.25-3.248-7.25-7.25 0-4.003 3.25-7.25 7.25-7.25zm33.97 18.406c.35-.018.72 0 1.07 0 11.22 0 20.34 9.086 20.34 20.312 0 11.228-9.12 20.344-20.34 20.344-11.23 0-20.35-9.116-20.35-20.344 0-10.875 8.54-19.77 19.28-20.312zm399.78 1.031c5.81-.097 10.9.993 13.85 3.688 3.6 3.295-1.81 9.62-12.85 15-12.89 6.285-35.37 5.41-35.34-1.375.05-9.026 19.51-17.064 34.34-17.313zm-489.75 5.344c11.28.059 14.33 35.028 4.54 51.781-5.09 8.693-11.93 2.883-16.82-14.281-4.01-14.076 3.69-37.547 12.28-37.5zm91.04 1c-7.15 0-12.94 5.793-12.94 12.937 0 7.145 5.79 12.938 12.94 12.938 7.14 0 12.93-5.793 12.93-12.938 0-7.144-5.79-12.937-12.93-12.937zm421.53 2.281c.95.016 2.17.494 3.78 1.281 12.31 6.046 21.26 34.261 14.84 46.844-6.75 13.248-21.94-12.253-21.81-36.625.04-7.971.56-11.18 2.78-11.469.13-.015.27-.034.41-.031zm-544.53 1.813c.26-.011.52-.01.78 0 11.13.273 19.22 15.662 8.75 23.562-4.59 3.458-11.64 4.004-15.97 1.25-8.54-5.426-8.07-18.634.81-23.25 1.9-.987 3.8-1.488 5.63-1.562zm123 1.593c4 0 7.24 3.249 7.24 7.25 0 4.003-3.24 7.25-7.24 7.25-4.01 0-7.26-3.247-7.26-7.25 0-4.001 3.25-7.25 7.26-7.25zm-76 2.438c6.09 9.065 30.77 32.996 34.18 35.062-10.9-3.528-22.12-2.032-33.34-.531 1.26-8.284 2.6-21.875-.84-34.531zm396.59 2.062c167.28 39.156 269.4 216.664 229.03 383.184 0 0-14.09-7.86-16.31-11.62 5.91-28.82 9.56-74.45 2.15-120.35-12.56-77.84-75.66-192.065-213.9-231.245-1.53-5.034-.97-19.969-.97-19.969zm90.14 1.22c1.89 11.387 3.71 22.862 6.52 33.108-11.78-8.466-25.13-15.742-38.8-21.62 9.76-2.052 18.67-3.78 32.28-11.488zm48.23 3.655c6.66-.172 13.43 4.575 13.28 12.782-.06 3.612-3.91 10.099-6.9 11.625-11.12 5.673-22.53-5.132-17.63-16.688 2.2-5.183 6.7-7.6 11.25-7.719zm-420.28 4.407c11.23 0 20.35 9.084 20.35 20.312s-9.12 20.344-20.35 20.344c-11.22 0-20.34-9.116-20.34-20.344s9.12-20.312 20.34-20.312zm0 7.375c-7.14 0-12.94 5.792-12.94 12.937s5.8 12.938 12.94 12.938c7.15 0 12.94-5.793 12.94-12.938s-5.79-12.937-12.94-12.937zm-346.15 1.937c83.12 49.058 157.68 153.39 163.21 271.38l-20.12-13.16c-8.67-79.47-49.35-165.94-143.75-236.814 0 0 .24-7.631.66-21.406zm460.28 0h107.43v23.156l32.22-16.593v51.218l-32.22-19.5v22.344h-107.43v-23.5l-32.91 15.906.38-50.968 32.53 18.281zm-114.13 3.75c4 0 7.25 3.247 7.25 7.25s-3.25 7.25-7.25 7.25-7.25-3.247-7.25-7.25 3.25-7.25 7.25-7.25zm42.25 4.063c.13-.01.28 0 .41 0l1.28 7.375c-.21-.01-.41-.032-.62-.032-7.15 0-12.94 5.793-12.94 12.938s5.79 12.937 12.94 12.937c1.72 0 3.36-.323 4.87-.937l1.25 7.406c-1.94.614-3.98.938-6.12.938-11.23 0-20.35-9.117-20.35-20.344 0-10.877 8.54-19.738 19.28-20.281zm242.69 2.562c.36-.014.71 0 1.06 0 11.23 0 20.35 9.085 20.35 20.313 0 9.642-6.74 17.69-15.75 19.781l-1.22-7.313c5.5-1.488 9.56-6.495 9.56-12.468 0-7.146-5.79-12.938-12.94-12.938-.29 0-.59.013-.87.031l-1.25-7.312c.34-.036.7-.08 1.06-.094zm142.66 6.875c25.08.136 35.5 14.539 14.93 20.656-9.52 2.835-21.99 1.331-34.31-4.125-10.27-4.547 3.87-16.615 19.38-16.531zm-524.41 1.375c6.07-.022 11.94.912 16.28 2.969 10.49 4.969 10.25 8.344-.97 14.812-15.64 9.02-52.47-.11-41.34-10.25 5.23-4.764 15.92-7.495 26.03-7.531zm140.13 2.219c.55 0 1.1.069 1.62.187l2.25 13.188c-1.12.713-2.45 1.125-3.87 1.125-4.01 0-7.26-3.248-7.26-7.25 0-4.003 3.25-7.25 7.26-7.25zm242.74 2.594c3.98.035 7.19 3.268 7.19 7.25 0 3.157-2.02 5.818-4.84 6.812zm44.26 5.187c11.22 0 20.34 9.085 20.34 20.313 0 11.227-9.12 20.343-20.34 20.343-11.23 0-20.35-9.116-20.35-20.343 0-11.228 9.12-20.313 20.35-20.313zm-396.04 5.125c1.21-.067 2.58.493 4.04 1.688 12.19 9.968 18.26 31.062 13.46 46.752-4.57 14.96-23.58-11.616-23.46-32.815.05-9.777 2.35-15.425 5.96-15.625zm526.72 1.781c1.68.014 3.46 1.293 5.22 4.219 7.57 12.605 7.23 38.64-.62 46.75-4.46 4.6-6.11 3.73-10.75-5.66-7.93-16.042-1.95-45.373 6.15-45.309zm-130.68.469c-7.15 0-12.94 5.792-12.94 12.938 0 7.145 5.79 12.937 12.94 12.937 7.14 0 12.93-5.792 12.93-12.937 0-7.146-5.79-12.938-12.93-12.938zm-379.88 3.469c15.36 9.694 31.08 18.541 47.44 25.906-15.31-3.62-26.62 1.521-38.28 8.435 2.23-12.795-2.13-23.199-9.16-34.341zm461.56 2.738c11.45 1.617 22.79 3.492 36.06.995-2.45 11.255-3.31 22.724-2.23 34.448-9.88-12.781-20.89-24.777-33.83-35.443zm-81.68-.519c4 0 7.24 3.247 7.24 7.25 0 4.002-3.24 7.25-7.24 7.25-4.01 0-7.26-3.248-7.26-7.25 0-4.003 3.25-7.25 7.26-7.25zm-419.44 5c2.26.043 4.66.682 7.15 1.906 9.42 4.617 9.69 16.033.53 22-11.51 7.496-26.52-5.664-19.34-16.969 2.76-4.341 6.46-6.675 10.69-6.906.32-.018.64-.038.97-.031zm460.25 8.5c11.22 0 20.34 9.084 20.34 20.312 0 11.23-9.12 20.34-20.34 20.34-11.23 0-20.35-9.11-20.35-20.34 0-11.228 9.12-20.312 20.35-20.312zm119 3.406c1.96-.038 4 .405 6.03 1.469 7.23 3.79 8.75 13.397 3 18.997-6.37 6.21-15.06 5.14-19.34-2.37-4.89-8.578 1.81-17.935 10.31-18.096zm-196.22 3c100.13 34.086 167.19 145.476 151.03 252.716l-12.5-11.81c9.52-60.77-23.86-176.89-135.38-224.56zm77.22.969c-7.15 0-12.94 5.792-12.94 12.937 0 7.14 5.79 12.94 12.94 12.94 7.14 0 12.93-5.8 12.93-12.94 0-7.145-5.79-12.937-12.93-12.937zm0 5.687c4 0 7.25 3.25 7.25 7.25s-3.25 7.25-7.25 7.25c-4.01 0-7.25-3.25-7.25-7.25s3.24-7.25 7.25-7.25zm-380.72 1.281c5.11.45 13.73-.47 15.75 4.349 2.27 6.09-10.22 16.62-26.06 18.68-6.46.39-20.28 2.03-23.19-2.62-2.73-5.8 15.92-20.232 33.5-20.409zm-317.88 3.559c13.54-.59 28.8 17.52 15.1 32.29-10.97 11.34-33.41 26.81-33.41 26.81v-9.94s21.99-16.08 22.34-23.31c.05-8.41-6.87-13.15-14.59-8.1-1.53 1-7.56 5.91-7.56 5.91l.5-16.66c4.09-4.48 11.31-6.72 17.62-7zm345.79 4.25c10.03.39 33.3 36.26 27.37 43.6-4.69 5.81-23.59-7.08-30.69-20.94-3.81-7.44-2.66-20.7 1.94-22.44.42-.16.88-.23 1.38-.22zm154.74 4.35s1.04 83.46-3.65 91.34c-18.81 34.05-59.41 16.33-62.88-9.19-2.49-15.38-1-82-1-82zm5.94 0h64.88s-.29 117.48-2.91 124.22c-2.13 5.48-11.55 14.94-17.47 17.53-19.05 8.32-39.42-3.49-44.47-25.78-3.63-16.08-.03-115.97-.03-115.97zm70.32 0h43.06s1.48 6.23 3.18 11.34c2.99 8.93 13.15 34.53 14.32 36.09 5.26 7.03 5.52 83.82.31 92.57-18.99 28.48-50.6 20.19-62.16-11.35-2.89-10.1 1.29-128.65 1.29-128.65zm50.21 2.9c77.24 36.69 136.34 114.47 128.94 214.29l-14.19-14.16c5.18-68.89-47.26-155-108.46-180.6zm106.35 2.35c11.22 0 20.34 9.08 20.34 20.31s-9.12 20.34-20.34 20.34c-11.23 0-20.35-9.11-20.35-20.34s9.12-20.31 20.35-20.31zm76.18 2.06c7.56.11 16.79 2.72 23.69 8.41 8.25 6.8 9.4 12.18 3 14.15-12.36 3.81-27.21.12-36.53-9.06-8.66-8.53-1.19-13.66 9.84-13.5zm-76.18 5.31c-7.15 0-12.94 5.8-12.94 12.94s5.79 12.94 12.94 12.94c7.14 0 12.94-5.8 12.94-12.94s-5.8-12.94-12.94-12.94zm-406.94 1.63c10.84.06 15.81 15.31 7.5 23.03-3.41 3.16-12.7 3.84-16.75 1.22-11.13-7.23-4.61-24.33 9.25-24.25zm143.22 3.87c-3.59 10.31-9.35 21.95-14.13 29.91-12.78 21.32-11.12 35.62 2.38 42.84 19.82 10.61 34.23-17.86 14.69-29.03-6.86-3.91-6.86-3.96-4.38-14.53 3.09-13.18 3.63-28.91 1.44-29.19zm263.72.19c4 0 7.25 3.25 7.25 7.25s-3.25 7.25-7.25 7.25c-4.01 0-7.25-3.25-7.25-7.25s3.24-7.25 7.25-7.25zm-194.19 4.19c-.91-.06-.21 5.24-.28 14.65-.11 15.2-1.38 19.82-11.09 40.19-12.41 26.02-10.75 43.8 4.62 49.56 11.94 4.48 23.55-4.65 23.62-18.59.04-6.64-2.92-11.84-7.46-13.19-4.12-.26-8.67-2.18-8.35-4.15 2.52-15.54 15.98-44.8-1.06-68.47zm256.56 2.09c10.04 6.32 20.37 12.31 35.31 13.06-6.36 15.27-5.71 26.43-6.78 38.6-6.39-16.4-16.26-34.53-28.53-51.66zm-766 2.38c.81-.01 1.61.04 2.41.15 9.6 1.5 17.7 13.79 15.12 22.94-2.25 7.99-2.95 9.34-33.84 29.97-17.14 11.45-18.94 11.94-18.94 11.94l-9.18-6.19s7.77-5.19 20.09-13.47c23.7-15.93 27.19-19.73 24.75-26.84-2.65-7.74-11.52-6.11-25.53 4.68-20.75 15.98-22.91 17.04-22.91 17.04v-9.54s9.1-7.23 13.03-10.62c9.62-6.84 22.91-19.94 35-20.06zm613.78 4.15c2.33-.02 4.13 2.15 3.32 4.22-.39.99-1.76 1.64-3.57 1.63-3.72-.02-3.92-5.31-.22-5.82.16-.02.32-.03.47-.03zm208.29 11.09c4.38 15.04-5.05 40.11-10.83 43.32-6.15 6.08-10 .28-11.33-15.47.03-12.77 14.66-52.69 22.16-27.85zm-246.97-8.43c1.88 21.66 2.56 39.65-7.6 57.25-13.17 22.81-9.75 42.37 4.35 46.69 14.04 4.29 26.45-5.75 23.96-19.41-.75-4.18-6.5-11.01-10-11.91-4.31-1.1-4.83-3.78-2.37-12.37 4.76-16.64 3.16-37.71-4.03-52.94-.66-2.27-3.3-7.39-4.31-7.31zm47.25 7.22c11.84.06 17.43 15.46 8.56 23.59-4.94 4.53-8.08 2.48-13.25-8.62-4.8-10.3-3.32-15.02 4.69-14.97zm110.31 3.15c11.23 0 20.34 9.09 20.34 20.32 0 11.22-9.11 20.34-20.34 20.34s-20.35-9.12-20.35-20.34c0-11.23 9.12-20.32 20.35-20.32zm0 7.38c-7.15 0-12.94 5.79-12.94 12.94 0 7.14 5.79 12.93 12.94 12.93 7.14 0 12.94-5.79 12.94-12.93 0-7.15-5.8-12.94-12.94-12.94zm0 5.69c4 0 7.25 3.24 7.25 7.25 0 4-3.25 7.25-7.25 7.25s-7.25-3.25-7.25-7.25c0-4.01 3.25-7.25 7.25-7.25zm-87.28 5.34c1.66-.07 3.28.21 4.78.94 10.71 5.18 9.54 20.01-2.28 28.87-7.49 5.61-10.65 3.67-17.63-10.81-3.78-7.85 6.15-18.63 15.13-19zm-621.13 1.69c1.09.03 2.11.2 3.1.47 11.04 3.04 18.04 15.92 15.28 25.71-6.09 15.1-26.72 20.19-42.38 26.5l-8.12-5.93s11.48-6.52 22.62-11.66c10.44-4.81 12.13-6.72 11.35-12.78-1.53-11.84-7.25-11.41-33.19 2.56-10.56 5.69-18.31 10.72-18.31 10.72l-5.75-4.72c8.58-5.65 13.74-8.78 23.12-15.19 15.67-10.72 24.6-15.33 31.16-15.65.38-.02.76-.04 1.12-.03zm825.17 8.77c3.78 11.48-3.93 21.54-15.53 17.03-6.3-2.45-10.77-10.5-6.86-17.96 5.22-8.18 19.86-6.77 22.39.93zm-232.85-3.99 18.28 32.84s.24 9.14.4 14.22c.7 21.33 5.27 28.38 17.75 26.31.9-.14 5.35-1.43 5.35-1.43l7.93 13.37s-8.58 3.75-10.81 4.22c-14.7 3.09-35.05-7.96-38.22-22.72-3.06-14.28-.68-66.81-.68-66.81zm-598.88 13.5c5.52.4 3.17 4.62.62 6-10.73 5.47-20.88 11.41-32.09 17.87l-7.5-4.65s5.79-3.23 9.78-5.69c12.29-7.55 24.8-13.35 29.19-13.53zm734.69 4.22c11.22 0 20.34 9.08 20.34 20.31s-9.12 20.34-20.34 20.34c-11.23 0-20.35-9.11-20.35-20.34s9.12-20.31 20.35-20.31zm-86.07 2.78c4.68-.14 8.59 1.88 11.13 6.09 5.43 9.02-.32 20.04-13.5 25.91-7.36 3.28-8.59 2.6-16.44-9.03-5.3-7.87-5.27-9.28.6-14.28 6.57-5.61 12.91-8.54 18.21-8.69zm-713.96 1.78 291.34 188.66-8.31 14.12-282.47-184.9zm865.68 2.44c17.71.34 40.82 20.84 32.63 28.94-.87.86-2.55 1.5-3.75 1.43-25.27-1.49-53.17-30.84-28.88-30.37zm-65.65.37c-7.15 0-12.94 5.8-12.94 12.94s5.79 12.94 12.94 12.94c7.14 0 12.93-5.8 12.93-12.94s-5.79-12.94-12.93-12.94zm-389.1 3.6 7.72 20.06-145 230.84-14.25-9.15zm389.1 2.09c4 0 7.25 3.25 7.25 7.25s-3.25 7.25-7.25 7.25c-4.01 0-7.25-3.25-7.25-7.25s3.24-7.25 7.25-7.25zm53.25 2.41c7.1 13.2 18.92 21.29 32.37 26.97-12.69 10.47-19.09 24.06-18.59 38.28-3.22-21.34-6.01-42.55-13.78-65.25zm-766.53 6.97c3.1.02 5.91.67 8.12 2.18 27.17 18.62 2.22 37.04-.09 35.6l-9.25-5.85c3.18-5.27 10.4-12.42-1.22-19.09-6.59-2.88-13.94.58-20.35 5.03l-9.71-6.66s19.03-11.31 32.5-11.21zm640.81 10.53c1.02-.04 2.02.03 3 .21 15.34 2.97 14.27 19.25-1.75 26.79-9.12 4.29-10.73 3.42-18.69-10.25-3.73-6.42 7.55-16.43 17.44-16.75zm-645.72 5.97c1.63.04 3.72 1.47 3.97 2.81.79 4.27-7.13 8.56-7.13 8.56l-9.09-6.03c3.88-2.14 7.95-5.04 12.25-5.34zm817.16 3.9c2.22-.17 3.84.88 4.5 3.53 3.1 12.65-10.94 36.1-23.91 39.91-7.57 2.22-9.76-1.34-7.28-11.81 3.48-14.72 18.75-31.01 26.69-31.63zm-469.94.97 23.59 17.13-141.56 223.74-24.5-14.56zm385.22 1.81c11.22 0 20.34 9.09 20.34 20.32 0 11.22-9.12 20.34-20.34 20.34-11.23 0-20.35-9.12-20.35-20.34 0-11.23 9.12-20.32 20.35-20.32zm0 7.38c-7.15 0-12.94 5.79-12.94 12.94 0 7.14 5.79 12.93 12.94 12.93 7.14 0 12.94-5.79 12.94-12.93 0-7.15-5.8-12.94-12.94-12.94zm0 5.68c4 0 7.25 3.25 7.25 7.26 0 4-3.25 7.24-7.25 7.24-4.01 0-7.25-3.24-7.25-7.24 0-4.01 3.24-7.26 7.25-7.26zm-325.28.76c15.35 17.31 32.62 56.05 92.87 37.78 20.53 16.72 48.88 26.24 83.81 7.68l.25 104.38-267.53.28zm-488.63 2.65 263.47 173.41-8.25 14.56-255.47-163.28zm739.66.16c.25 0 .47.01.65.06 13.47 3.3 14.99 16.76 2.47 21.91-6.7 2.75-8.07 2.07-14.47-7.35-2.55-3.75-3.99-6.87-3.62-7.81.9-2.3 11.2-6.86 14.97-6.81zm169.06 14.25c4.71.03 9.4 2.52 11.59 7.44 3.3 7.37 1.4 13.56-5.4 17.65-11.26 6.78-23.85-5.67-18-17.81 2.34-4.88 7.1-7.32 11.81-7.28zm-164.97 14.15c6.21.04 11.43 5.97 8.41 9.57-2.01 2.39-4.58 1.7-7.88-2.1-3.87-4.45-4.09-7.49-.53-7.47zm75.53 2.6c11.23 0 20.35 9.08 20.35 20.31s-9.12 20.34-20.35 20.34c-11.22 0-20.34-9.11-20.34-20.34s9.12-20.31 20.34-20.31zm57.31 1.12c15.34.09 36.58 25.7 32.97 39.75-1.17 4.59-9.77 2.11-20-5.75-13.81-10.62-22.75-34.05-12.97-34zm-57.31 6.25c-7.14 0-12.93 5.8-12.93 12.94s5.79 12.94 12.93 12.94c7.15 0 12.94-5.8 12.94-12.94s-5.79-12.94-12.94-12.94zm49.28 2.63c4.24 12.4 8.57 25.31 27.69 34.28-29.67 13.82-35.33 37.1-30.87 66.94l-6.94-4.25c6.36-26.74 11.17-57.19 10.12-96.97zm-49.28 3.06c4.01 0 7.25 3.25 7.25 7.25s-3.24 7.25-7.25 7.25c-4 0-7.25-3.25-7.25-7.25s3.25-7.25 7.25-7.25zm-3.78 32.66c11.23 0 20.35 9.08 20.35 20.31 0 7.1-3.64 13.36-9.16 17l-6.56-4.91c4.85-1.86 8.31-6.58 8.31-12.09 0-7.15-5.79-12.94-12.94-12.94-6.8 0-12.36 5.27-12.87 11.94l-6.6-4.94c2.55-8.32 10.31-14.37 19.47-14.37zm92.56 2.59c9.68.05-5.37 26.9-19.18 34.22-10.52 5.57-20.16 6.01-20.13.9.07-13.34 24.53-35.2 39.31-35.12zm-92.56 10.47c4 0 7.25 3.25 7.25 7.25s-3.25 7.25-7.25 7.25c-3.98-.43-7.2-3.56-7.25-7.25 0-4 3.25-7.25 7.25-7.25zm89.44 24.47c4.76.07 9.49 2.13 11.5 6.15 2.6 5.21 1.61 9.86-3.16 14.57-11.7 11.57-27.61-.31-19.97-14.91 2.08-3.96 6.86-5.88 11.63-5.81zm-37.41 10.9c16.3.51 28.63 20.78 25.69 32.25-2.59 3.04-20.53-10.57-22.47-11.97-2.29-4.06-2.43-10.63-3.22-20.28zm-22.22 12.57 51.07 30.68-50.94 32.72zm-454.68 15.18 274.28 1 .03 11.53-281.81.16zm-11.19 18.03h18.44v22.47h-25.32v-12.4zm263.56.54h22.19v22.46h-22.19zm-217.72.15h25.25v22.47h-25.25zm52.53.19h27.28v22.47h-27.28zm55.82 0h26.25v22.47h-26.25zm56.06.38h25v22.46h-25zm-228.38 27.68 304.22.72v13.47l-312.9-.72zm259.57 28.38c30.97-.34 49.02 34.22 24.81 58.5-22.25 22.31-59.38-6.19-40.84-31.28 10.34-14.02 35.78-2.72 29.43 12.22-4.18 9.83-17.89 5.24-17.47-5.41.03-4.28-3.13-1.35-3.5 3.19-.46 5.76 5.46 12.14 12.35 12.15 17.97.04 20.67-23.78 3.34-32.53-15.47-7.81-31.77 2.16-35.53 21.94-.41 2.16-2.96 7.56-4.91 11.37-5.72 11.49-7.57 18.13-10.43 31.25-1.32 1.64-5.34 4.26-8.13 5.66-8.83 4.41-8.46 2.55-5.15-11.81 9.51-41.38 25.07-68.02 44.09-73.44 4.14-1.18 8.13-1.77 11.94-1.81zm91.59 2.15c19.12-.41 33.53 15.35 36.04 27.52 10.99 37.03-38.17 59.71-55.31 26.16-9.57-19.18 10.26-42.06 28.43-33.15 14.87 7.3 13.91 29.99-1.28 29.91-8.25.39-13.28-7.02-8.72-12.97 2.36-2.34 5.19-.51 6.37-4.44.5-1.64-1.84-2.95-7.47-1.81-9.32 1.9-8.38 20.7 2.44 24.44 16.11 5.58 29.89-11.41 22.22-28.22-9.22-20.2-34.18-20.29-45.6.85-1.65 3.07-4.25 7.46-5.68 9.4-17.03 23.11-18.37 26.57-23.44 39.44-.5 1.28-1.4 2.23-2.94 2.06-4.69 0-9.29 1.02-12.44 2.25-2.12-.56.71-8.66.91-9.28 11.6-35.81 41.39-71.29 66.47-72.16zm-148.19 10.07c-4.03 7.03-16.18 29.89-24.59 63.65-2.22-1.38-8.19-3.87-12.5-5.37-1.63-.57-.31-2.46-.41-5.32 3.07-15.23 12.91-41.84 23.75-55.4 2.31-1.69 17.11-2.23 13.75 2.44zm17.35 6.75c-10.39 13.26-21.24 48.5-23.5 66.68-.35 2.75-.84 5.79-1.13 6.75-1.62 5.44-11.8-6.24-11.75-13.46.08-12.28 13.69-49.69 23.41-63.97 3.38-4.98 3.79-5.81 11.03-6.07 11.63-.29 6.52 4.22 1.94 10.07zm-507.97-8.75c-2.57.06-5.12.39-7.63 1-15.04 3.73-32.97 19.67-34.72 36.59-.82.51-2.87 12.34-1.56 18.34 4.97 22.71 18.22 38.11 34.44 60.63 0 0-20.37 31.57-34.34 46.16l33.06 47.84c-9.15 18.06-25.04 31.72-29.03 54-6.24 29.34 9.12 57.93 41.81 60.56 24.39.73 40.38-15.75 43.4-40.72 1.24-16.59-5.59-37.41-30.15-70.31-1.22-1.63-3.59-5-3.59-5s2.75-3.24 4.21-5.41c8.64-11.68 31.16-40.25 31.16-40.25l-33.66-47.59s1.46-3.2 4.07-6.75c27.47-37.46 32.58-56.51 27.72-75.13-1.92-7.33-6.48-12.97-12.66-19.24-9.99-10.14-21.42-14.99-32.53-14.72zm-.78 4.59c10.73-.16 21.8 4.14 30.78 13.53 20.64 21.6 18.81 39.87-8 79.81-5.89 8.77-11.66 18.41-11.66 18.41l33.85 46.75s-5.49 8.21-11.19 14.91c-15.48 18.18-24.13 31.25-24.13 31.25 5.86 9 15.39 18.62 21.38 29.43 7.22 12.26 11.53 24.48 12.81 35.66 2.7 23.52-12.59 48.58-38.75 49.19-25.38.17-44.71-20.98-44.16-47.53.25-11.84 5.14-22.78 11.1-33.44 6.08-10.85 20.34-31.94 20.34-31.94l-32.75-47.75 34.69-46.31s-25.23-30.89-32.97-53.16c-6.29-25.28 5.5-39.7 7.06-41.9 7.69-10.83 19.43-16.73 31.6-16.91zm730.18 2.63c19.48 22.2 30.02 53.95 34.53 81.24 1.83 11.21 2.16 30.34.57 32.41-3.07 3.99-10 1.84-9.57-2.97 3.52-38.49-37.91-66.05-73.78-49.37-27.66 12.86-42.44 42.77-35.53 79.97 13.04 70.14 71.88 121.55 111.69 191.9 14.1 23.83 17.44 37.25 17.34 36.78 0 0 5.22-13.92 17.07-33.72 28.37-52.1 66.9-85.71 95.56-137.84 13.45-24.47 22-48.67 23.44-70.53.27-50.87-49.4-89.22-88.19-62.5-15.36 9.44-28.33 27.66-30.38 42.69-.87 6.41-2 8.33-4.87 8.31-6.62-.04-6.71-2.54-1.38-32.72 8.1-29.97 17.77-58.41 35.35-83.65zm-751.64 64.46c5.03 13.11 13.22 22.88 22.5 32.2 8.59-10.05 18.19-23.27 23.45-35.88 25.35-60.73-72.56-65.68-45.95 3.68zm22.13 26.23c-12.43-14.45-21.2-26.47-22.05-45.53-1.36-37.75 47.99-33.51 45.54.24-2.75 18.38-12.41 30-23.49 45.29zm611.67-59.35c.95 5.31 6.13 14.31 5.69 16.44-2.4 5.57-5.91 8.35-10.78 17.53-1.03 1.95-.55 2.36-3.28 1.87-2.58-.36-7.09-1.77-9.5-2.47-1.38-.4-2.97-1.15-2.32-2.9 4.68-10.77 9.93-23.6 20.19-30.47zm-81.81 16.25-5.81 15.06c-.55 1.62-.61 1.88-2.31 1.53-3.31-.42-6.21-.68-9.51-.44-7.2-.88 6.36-27.79 8.4-31.86 2.95.49 7.3 11.99 9.23 15.71zm5.47 3.47c.12-.02.25-.01.37 0 2.96.38 7.36 1.98 10.63 3.4 1.8.75 1.85.8 1.06 3.04-1.67 3.31-3.71 12.87-5.91 16.21-.06.49-10.26-6.06-13.16-7.32-.11-1.82 3.23-14.82 7.01-15.33zm86.47 1.78c3.37.12 7.53 3.18 9.81 4.94 1.07 2.11.09 4.24-3.66 10.72-3.32 5.72-6.78 11.91-7.62 11.24-2.52-1.97-7.19-4.53-9.5-7.71-1.73-2.38 1.55-8.44 3.78-11.75 3.51-5.24 5.2-7.13 7.19-7.44zm-55-.76c3.12.69-1.83 16.75-2.76 18.76-2.94 4.41-7.53 10.22-11.18 12.56-1.87 1.2-7.6-2.23-7.47-6.25.09-2.85 5.55-17.24 7.37-21.06.26-.56 10.54-3.95 14.04-4.01zm-127.22 6.13c.7-.02 1.39-.01 2.09.03 12.25-.35 24.85 5.69 32.78 19.19 3.75 6.39 3.8 6.66 2.94 12.63-2.03 14.02-1.32 23.44 2.37 32.03 4.21 9.78 3.58 13.14-6.72 34.91-10.33 21.91-22.87 48.6-32.4 73.34-4.23 10.6-8.11 22.61-10.53 32.44-1.6 6.18-9.14 4.32-16.66 4.03-3.82.83 5.52-24.89 19.35-55.63 11.07-24.6 26.13-52.32 32.13-79.86 4.9-22.45 3.33-31.68.65-41.11-10.37-27.43-46.43-20.7-46.35 4.57.78 16.37 19.72 25.14 26.66 9.09 1.16-7.38-2.48-3.08-5.53.5-6.54 7.68-17.73-.86-15.97-12.19 2.31-14.88 21.52-19.77 30.81-8 10.17 12.89 7.94 26.19-6.75 36.16-15.13 11.12-28.91 4.8-36.47-6.75-16.13-25.93 5.93-54.7 27.6-55.38zm74.84 10.88c15.02.31 31.33 12.9 33.97 22.87 1.41 6.76-.76 14.72 1.65 21.25 2.02 5.24 3.95 8.26 2.5 12.91-12.36 39.78-41.54 82.21-55.96 129.31-1.67 3.28-3.19 3.69-6.91 4.75-5.76 1.64-8.02 1.47-8.63-1.53-.57-2.87 1.36-8.3 4.72-18.5 4.04-12.21 12.96-33.13 18.19-42.97 12.2-22.91 18.99-38.58 27.85-58.15 1.65-3.66 2.12-5.83 4.71-11.1 11.17-22.63-1.44-44.93-24.56-45.06-18.31-.1-26.5 28.58-10.47 36.97 15.68 8.2 27.38-13.34 13.44-20.97-3.37-1.84-4.23-.08-1.53 3.16 6.21 7.46.64 17.49-8 13.5-13.38-6.18-6.49-28.98 9.12-27.66 24.1 2.03 27.24 37.09 2.66 45.97-33.79 12.21-51.52-42.19-19.72-60.5 5.28-3.04 11.15-4.35 16.97-4.25zm71.19 1.09c8.89-.22 18.23 2.95 25.9 10.32 18.9 18.14 13.87 46.15-18.06 100.31-10.45 18.15-20.65 39.95-26.22 55.87-1.38 3.97-2.54 5.99-5.69 7.72-5.53 3.06-11.81 3.44-12.62 1.28-2.08-5.5 13.74-39.71 41.91-93.47 7.4-14.32 16.75-30.95 16.28-48-1.86-13.53-13.11-23.27-28.19-18.84-10.14 2.98-14.29 17.29-6.81 24.5 3.12 3.01 6.96 4.59 9.43 4.34 4.68.15 9.99-4.47.94-4.97-9.56-.05-12.83-12.07-4.75-17.5 11.61-7.79 24.94 1.4 24 16.57-1.94 30.5-46.47 25.95-47.65-5.47-.73-19.44 14.55-32.23 31.53-32.66zm441.53 13.19c11.04 7.82 18.98 22.08 20.84 35.72.59 4.22 1.14 8.51-.68 9.47-2.24 1.18-3.81-.56-8.41-6.63-10.72-14.14-31.92-8.11-39.03 11.28-6.77 18.47.23 39.21 28.68 80.47 10.24 15.27 19.23 27.92 27.69 42.88 6-14.89 16.17-30.9 24.85-44.13 32.5-49.22 38.46-74.8 20.78-91.28-11.37-10.35-29.35-10.67-35.44 2.56-4.14 5.45-6.61 8.07-8.34 4.79-.76-1.44-.68-5.79-.19-9 3.08-15.64 8.18-25.88 19.44-36.13zm-567.38 35.66c6.74-.52-4.85 35.74-25.09 76.43-11.04 22.54-19.41 46.75-28 70.32-2.33 3.15-16.28 3.73-16.25.46 24.75-79.29 42.23-92.95 50.69-123.15 1.47-5.22 2.55-12.76 2.75-13.41 6.25-1.79 11.52-9.28 15.9-10.65zm-458.12 5.34-26.22 34.19 25.59 36.31 26.6-34.72zm567.75 10.56c-.02 4.1-7.88 23.81-13.75 35.66-25.68 51.83-32.07 65.81-36.5 79.62-.8 2.5-2.1 4.15-3.72 4.75-3.2 1.2-12.1 2.91-12.84 1.69 5.43-30.29 47-99.21 55.06-129.41 3.23-.14 11.48 4.77 11.75 7.69zm20.56-3.15c1.74-.13 2.44.58 1.94 2.9-.81 3.76-5.29 12.6-13.09 27.94-21.64 42.52-32.98 67.71-36.6 80.66-.85 3.03-1.37 5.41-2.81 6.18-2.98 1.59-13.38 5.78-13.88 1.25 3.25-19.21 15.92-31.72 48.66-111.87 1.53-2.63 2.87-3.92 4.31-4.16 4.03-.66 7.52-2.57 11.47-2.9zm-88.75 13.16c-.82 4.95-6.5 15.31-15.87 34.46-15.6 31.86-25.7 55.6-31.82 76.66-.99 3.42-2.35 7.01-3.68 7.94-2.54 1.75-13.91 1.21-13.91 1.21-1.72-8.71 12-41.19 27.28-75.34 8.31-18.58 17.95-37.09 24.42-53.75 4.43.66 12.97 4.91 13.58 8.82zm23.15-8.21c4.62-.04 1.03 7.74-10.05 29.64-9 17.77-23.34 42.7-32.6 71.34-2.42 6.31-5.26 14.15-6.31 17.44-1.36 4.25-2.63 6.35-4.38 7.22-3.34 1.67-11.42 1.57-12.84-.16-2.26-2.75 9.71-34.99 21.37-59.75 10.3-20.8 17.55-37.51 26.44-56.75 2.44-3.82 2.54-4.08 5.01-4.57 5.15-.41 10.47-3.86 13.36-4.41zm-522.27 4.14 13.5 18.06-15.85 19.72-13.19-19.19zm-2.04 77.91s-5.73 6.6-11.62 17.06c-17.25 28.71-17.72 49.91 2.62 62.5 8.59 4.37 19.78 3.41 26.85-2.75 23.04-20.1 5.91-47.71-8.97-66.44-3.95-5.5-8.88-10.37-8.88-10.37zm.85 7.34c8.64 10.19 14.96 17.85 20.72 30.66 6.62 17.21 2.37 30.73-10.44 37.09-20.25 10.05-38.67-12.51-29.06-36.59 7.12-17.85 18.78-31.16 18.78-31.16zm567.09 34c1.9 3.62-192.75 48.64-336.34 10l-87.38 126.44 504.44-.88zm-7.37 8.97s46.89 81.16 69.9 120.91h-32.34l-46.09-98.69c-24.66 6.87-48.97 11.84-73.63 14.97l16.41 83.72h-24.22l-13.69-80c-35.33 2.72-71.31 3.76-108.06 2.71l-15.85 77.29h-25.34l16.25-76.76c-27.89-3.76-55.66-7.3-84-11.96l-47.53 88.72h-35.78l74.59-111.35c111.36 22.35 214.05 17.09 329.38-9.56zm503.87 18.59c-22.03.08-45.3 11.92-51.9 37.32-2.32 8.06-2.33 8.08-2.41 79.96-.06 59.43-.56 73.75-.56 73.75h-20.31v23.74h66.12v-23.74h-21.94s-.31-73.92-.31-120.53c-.91-12.08.19-22.72 3.41-30.12 11.69-26.95 52.85-21.05 57.81 1.94 2.96 13.7 1.3 17.29 1.5 29.12h22.91s.6-20.8-1.63-32.94c-3.01-27.09-26.38-39.14-50.56-38.47-.71-.02-1.42-.03-2.13-.03zm-521.5 24.97 36.56 77.35h-69.24l-12.76-69zm-296.47 5.63 60.53 7.84-15.62 63.88h-81.75zm197.63 9.53 8.31 62.19h-104.31l11.59-60.97z" transform="matrix(.156485 0 0 .156485 -176.6378 7.326)"/></g></svg>