<?xml version="1.0" encoding="UTF-8" standalone="no"?>
<!DOCTYPE svg PUBLIC "-//W3C//DTD SVG 1.1//EN" "http://www.w3.org/Graphics/SVG/1.1/DTD/svg11.dtd">
<svg width="100%" height="100%" viewBox="0 0 224 312" version="1.1" xmlns="http://www.w3.org/2000/svg" xmlns:xlink="http://www.w3.org/1999/xlink" xml:space="preserve" xmlns:serif="http://www.serif.com/" style="fill-rule:evenodd;clip-rule:evenodd;stroke-linejoin:round;stroke-miterlimit:2;">
    <g id="Layer1">
        <path d="M215.98,298.066L212.87,298.066L212.87,266.559L215.98,266.559L215.98,298.066ZM203.649,298.066C206.644,298.066 209.05,295.377 209.05,292.041L209.05,272.581C209.05,269.245 206.644,266.557 203.649,266.557L201.906,266.557C198.91,266.557 196.499,269.245 196.499,272.581L196.499,292.041C196.499,295.377 198.91,298.066 201.906,298.066L203.649,298.066ZM202.749,295.085C200.982,295.085 199.557,293.748 199.557,292.084L199.557,272.361C199.557,270.696 200.982,269.356 202.749,269.356C204.519,269.356 205.94,270.696 205.94,272.361L205.94,292.084C205.94,293.748 204.519,295.085 202.749,295.085Z" style="fill-rule:nonzero;"/>
        <path d="M8.014,13.936L11.125,13.936L11.125,45.443L8.014,45.443L8.014,13.936ZM20.344,13.936C17.35,13.936 14.943,16.624 14.943,19.959L14.943,39.421C14.943,42.758 17.35,45.444 20.344,45.444L22.089,45.444C25.083,45.444 27.494,42.758 27.494,39.421L27.494,19.959C27.494,16.624 25.083,13.936 22.089,13.936L20.344,13.936ZM21.245,16.915C23.013,16.915 24.437,18.252 24.437,19.916L24.437,39.639C24.437,41.304 23.013,42.646 21.245,42.646C19.476,42.646 18.054,41.304 18.054,39.639L18.054,19.916C18.054,18.252 19.476,16.915 21.245,16.915Z" style="fill-rule:nonzero;"/>
        <path d="M155.635,151.067C158.515,145.291 160.605,139.366 160.985,133.029C161.325,130.698 159.905,130.659 159.695,132.301C155.615,147.893 133.935,143.671 134.675,129.004C135.285,117.109 147.095,114.55 153.255,118.44C155.695,119.872 155.555,119.014 154.225,117.528C145.075,107.316 150.615,94.166 162.985,93.925C176.365,94.719 179.835,108.795 171.635,117.074C170.615,118.068 168.345,121.265 171.755,119.03C180.045,113.142 191.545,119.473 191.305,128.55C190.875,145.29 170.465,146.538 166.105,132.557C165.685,131.007 164.475,130.227 164.805,132.861C165.415,137.627 166.665,144.814 170.245,151.067L155.635,151.067ZM52.095,151.067C54.975,145.291 57.075,139.366 57.445,133.029C57.795,130.698 56.375,130.659 56.165,132.301C52.085,147.893 30.395,143.671 31.145,129.004C31.745,117.109 43.565,114.55 49.725,118.44C52.155,119.872 52.025,119.014 50.695,117.528C41.535,107.316 47.085,94.166 59.455,93.925C72.835,94.719 76.305,108.795 68.095,117.074C67.075,118.068 64.815,121.265 68.225,119.03C76.505,113.142 88.005,119.473 87.775,128.55C87.345,145.29 66.935,146.538 62.575,132.557C62.155,131.007 60.945,130.227 61.275,132.861C61.885,137.627 63.135,144.814 66.715,151.067L52.095,151.067ZM103.815,118.401C106.695,112.626 108.795,106.701 109.165,100.364C109.505,98.032 108.085,97.994 107.875,99.635C103.795,115.228 82.115,111.005 82.855,96.339C83.465,84.444 95.275,81.885 101.445,85.774C103.875,87.207 103.735,86.349 102.405,84.863C93.255,74.651 98.795,61.501 111.165,61.26C124.545,62.054 128.025,76.13 119.815,84.408C118.795,85.403 116.535,88.6 119.935,86.365C128.225,80.477 139.725,86.808 139.495,95.885C139.055,112.625 118.645,113.873 114.285,99.891C113.865,98.341 112.655,97.563 112.995,100.196C113.595,104.962 114.845,112.149 118.425,118.401L103.815,118.401ZM155.635,85.736C158.515,79.96 160.605,74.035 160.985,67.699C161.325,65.367 159.905,65.328 159.695,66.97C155.615,82.563 133.935,78.34 134.675,63.674C135.285,51.779 147.095,49.22 153.255,53.109C155.695,54.542 155.555,53.684 154.225,52.197C145.075,41.986 150.615,28.835 162.985,28.595C176.365,29.388 179.835,43.465 171.635,51.743C170.615,52.738 168.345,55.934 171.755,53.699C180.045,47.811 191.545,54.142 191.305,63.22C190.875,79.959 170.465,81.207 166.105,67.226C165.685,65.676 164.475,64.897 164.805,67.53C165.415,72.297 166.665,79.484 170.245,85.736L155.635,85.736ZM52.095,85.736C54.975,79.96 57.075,74.035 57.445,67.699C57.795,65.367 56.375,65.328 56.165,66.97C52.085,82.563 30.395,78.34 31.145,63.674C31.745,51.779 43.565,49.22 49.725,53.109C52.155,54.542 52.025,53.684 50.695,52.197C41.535,41.986 47.085,28.835 59.455,28.595C72.835,29.388 76.305,43.465 68.095,51.743C67.075,52.738 64.815,55.934 68.225,53.699C76.505,47.811 88.005,54.142 87.775,63.22C87.345,79.959 66.935,81.207 62.575,67.226C62.155,65.676 60.945,64.897 61.275,67.53C61.885,72.297 63.135,79.484 66.715,85.736L52.095,85.736ZM66.805,160.935C63.925,166.711 61.825,172.636 61.455,178.973C61.115,181.304 62.525,181.343 62.745,179.701C66.815,164.109 88.505,168.331 87.755,182.998C87.155,194.893 75.335,197.452 69.175,193.562C66.745,192.13 66.885,192.988 68.205,194.474C77.365,204.686 71.815,217.836 59.445,218.077C46.065,217.283 42.595,203.207 50.805,194.928C51.825,193.934 54.085,190.737 50.685,192.972C42.395,198.86 30.895,192.529 31.125,183.452C31.565,166.712 51.965,165.464 56.335,179.445C56.755,180.995 57.965,181.775 57.625,179.141C57.025,174.375 55.765,167.188 52.185,160.935L66.805,160.935ZM66.805,226.266C63.925,232.042 61.825,237.967 61.455,244.303C61.115,246.635 62.525,246.674 62.745,245.032C66.815,229.439 88.505,233.662 87.755,248.329C87.155,260.223 75.335,262.782 69.175,258.893C66.745,257.46 66.885,258.318 68.205,259.805C77.365,270.016 71.815,283.167 59.445,283.407C46.065,282.614 42.595,268.537 50.805,260.259C51.825,259.264 54.085,256.068 50.685,258.303C42.395,264.191 30.895,257.86 31.125,248.782C31.565,232.043 51.965,230.795 56.335,244.776C56.755,246.326 57.965,247.105 57.625,244.472C57.025,239.705 55.765,232.518 52.185,226.266L66.805,226.266ZM170.335,160.935C167.455,166.711 165.355,172.636 164.985,178.973C164.645,181.304 166.065,181.343 166.275,179.701C170.355,164.109 192.035,168.331 191.295,182.998C190.685,194.893 178.875,197.452 172.715,193.562C170.275,192.13 170.415,192.988 171.745,194.474C180.895,204.686 175.355,217.836 162.985,218.077C149.595,217.283 146.125,203.207 154.335,194.928C155.355,193.934 157.615,190.737 154.215,192.972C145.925,198.86 134.425,192.529 134.665,183.452C135.095,166.712 155.505,165.464 159.865,179.445C160.285,180.995 161.495,181.775 161.155,179.141C160.555,174.375 159.305,167.188 155.725,160.935L170.335,160.935ZM170.335,226.266C167.455,232.042 165.355,237.967 164.985,244.303C164.645,246.635 166.065,246.674 166.275,245.032C170.355,229.439 192.035,233.662 191.295,248.328C190.685,260.223 178.875,262.782 172.715,258.893C170.275,257.46 170.415,258.318 171.745,259.805C180.895,270.016 175.355,283.167 162.985,283.407C149.595,282.614 146.125,268.537 154.335,260.259C155.355,259.264 157.615,256.068 154.215,258.303C145.925,264.191 134.425,257.86 134.665,248.782C135.095,232.043 155.505,230.795 159.865,244.776C160.285,246.326 161.495,247.105 161.155,244.472C160.555,239.705 159.305,232.518 155.725,226.266L170.335,226.266ZM118.985,193.601C116.105,199.376 114.005,205.301 113.635,211.638C113.295,213.97 114.715,214.008 114.925,212.367C119.005,196.774 140.685,200.997 139.945,215.663C139.335,227.558 127.525,230.117 121.355,226.228C118.925,224.795 119.065,225.653 120.395,227.139C129.545,237.351 124.005,250.501 111.635,250.742C98.255,249.948 94.785,235.872 102.985,227.594C104.005,226.599 106.275,223.402 102.865,225.637C94.575,231.525 83.075,225.194 83.315,216.117C83.745,199.377 104.155,198.129 108.515,212.111C108.935,213.661 110.145,214.439 109.805,211.806C109.205,207.04 107.955,199.853 104.375,193.601L118.985,193.601ZM13.545,75.337C14.735,72.892 15.895,70.616 16.535,67.936C16.955,65.408 16.095,66.347 15.605,68.004C14.885,70.301 12.885,71.348 11.025,71.373C7.655,71.418 5.975,68.769 6.075,65.919C5.715,62.92 8.745,60.799 11.035,60.962C12.765,61.085 14.265,62.014 15.175,62.737C15.765,63.053 16.405,63.192 15.515,62.379C13.835,60.546 12.445,59.415 12.475,56.669C12.505,54.089 14.705,51.4 17.625,51.484C21.275,51.59 22.935,54.374 22.935,56.964C22.925,58.854 21.975,60.591 20.515,61.668C19.575,62.434 19.835,63.008 20.915,62.282C21.955,61.39 23.185,61 24.465,60.972C27.955,60.918 29.315,63.934 29.115,66.737C28.925,69.362 26.695,72.065 23.745,71.759C21.115,71.457 19.735,69.249 18.945,66.982C18.685,66.287 18.265,66.099 18.275,67.135C18.885,72.193 20.765,75.34 20.785,75.337L13.545,75.337ZM210.455,237.34C209.255,239.785 208.095,242.06 207.465,244.74C207.045,247.268 207.905,246.33 208.395,244.673C209.115,242.375 211.115,241.329 212.975,241.303C216.345,241.258 218.025,243.908 217.925,246.758C218.285,249.756 215.245,251.878 212.955,251.714C211.235,251.592 209.735,250.662 208.825,249.939C208.225,249.624 207.595,249.485 208.485,250.298C210.155,252.131 211.555,253.262 211.525,256.008C211.495,258.588 209.295,261.277 206.375,261.192C202.715,261.087 201.055,258.302 201.065,255.712C201.075,253.824 202.025,252.086 203.475,251.009C204.425,250.243 204.155,249.669 203.085,250.394C202.045,251.286 200.815,251.677 199.535,251.704C196.045,251.759 194.685,248.743 194.885,245.94C195.065,243.314 197.305,240.612 200.255,240.918C202.885,241.219 204.265,243.428 205.055,245.695C205.315,246.39 205.735,246.578 205.725,245.542C205.115,240.484 203.225,237.337 203.215,237.34L210.455,237.34Z" style="fill-rule:nonzero;"/>
    </g>
</svg>
