<svg clip-rule="evenodd" fill-rule="evenodd" viewBox="0 0 228 316" xmlns="http://www.w3.org/2000/svg"><path d="m7374.07-2424.37c0-5.87-4.76-10.63-10.63-10.63h-201.97c-5.86 0-10.63 4.76-10.63 10.63v290.55c0 5.87 4.77 10.63 10.63 10.63h201.97c5.87 0 10.63-4.76 10.63-10.63z" fill="#fff" stroke="#bfbfbf" transform="translate(-7148.788 2437.059)"/><g fill-rule="nonzero"><path d="m1830.22 94.626s163.65 236.547 219.16 278.53c4.08 1.915 72.5-11.155 72.5-11.155-35.07-83.963-57.63-170.83-34.87-268.219zm90.94 374.107c-112.83 31.844-225.44 61.79-347.75 9.882l-133.57 129.05c-1.11 3.327 173.09 78.368 175.83 70.154l-42.88 136.868 98.86 21.761 45.38-145.592s136.47-13.092 199.81-34.825c48.16-16.524 97.97-28.508 140.97-64.406-88.82-53.385-136.75-123.527-136.65-122.892zm-678.6 38.16c-42.76-26.24-76.18 27.765-44.87 54.732-3.68 15.753-4.93 39.199 10.31 49.5 14.01 8.853 40.13-.329 43.9-.232.27.007.68 28.356-1.5 28.283-4.05-.136-19.34-13.161-28.78-15.988-31.87-9.556-76.69-14.27-75.9-12.625 1.33 2.758-7.94 9.294 27.62 31.625 13.21 8.294 54.95-1.048 88.19 9.437 20.25 6.388 40.16 17.009 51.16 11.719 13.9-5.81 30.11-24.152 35.34-39.094 1.48-16.319-83.4 18.989-78.24 19.562l-.26-32.891c34.2 3.764 65.07-21.021 31.45-63.516 25.04-24.881-9.98-84.18-58.42-40.512zm142.49 150.433c-84.12 84.79-256.05 243.918-256.05 243.918l1.84 118.766 167.97 150.3c13.31-159.56 103.98-308.471 190.31-382.966 7.93-22.656-85.79-122.068-104.07-130.018zm599.29 29.332c-12.67 98.109-24.19 231.902-190.63 380.622 28.84 49.12 65.55 99.11 118.38 122.97 3.75 8.44 152.71-154.13 244.35-231l-.49-104.117zm-750.15 21.061c-.35 2.137-6.5 27.907-8.08 27.225.12 1.403 17.04-6.285 18.96-13.351 1.68-6.196 5.55-14.591 5.81-15.777-3.82-26.528-11.03-7.687-16.69 1.903zm-62.31 68.588c-6.05 14.602-11.71 41.423-9.62 58.881 29.8 14.915 37.9-47.131 29.88-53.062-4.8-2.028-16.17-5.962-20.26-5.819zm920.28 284.483c-2.76 12.37-2.17 16.04 3.33 18.46 9.65 4.23 13.98-.88 21.73-21.03 4.61-12 8.72-30.04 5-37.22-18.28-12.75-27.94 30.44-30.06 39.79zm-450.66-29.07c-5.85.05-11.48.53-16.69 1.72-49.19 11.25-45.46 97.19-53.81 131.47-154.51 22.04-195.38 32.54-237.72 49.93-65.83 27.05-86.67 43.55-104.09 57.16 10.94-1.28 129.06 108.86 135.15 124.41-7.51-21.32 228.51-73.21 354.22-21.1 15.42 5.53 132.87-113.97 129.16-127.31 15.24-26.69-148.04-56.67-168.63-73.34-16.89-90.94 114.07-140.75 23.38-138.1-16.51.48-40.09-5.01-60.97-4.84zm410.94 102.16c-2.91 3.43-5.84 5.25-9.63 9.28l-8.62 11.37 6.28 10.16 16.09-17.75zm-115.21 114.35c16.95-7.65 77.12-36.82 79.71-30.07l-1.28 29.2c-9.2-3.01-68.62 6.81-34.26 68.14-21.64 48.72 26.59 73.84 60.37 41.63 70.8 24.29 61.32-46.55 46.71-58 11.51-17.88-2.95-55.96-10.16-56.09 0 0 61.78 13.93 55.74 2.93-2.76-5.02-6.2-13.68-19.94-22.85-15.82-10.56-43.62-6.73-66.12-11.43-24.05-5.04-39.54-13.64-59.76-14.85-30.51 2.78-58.99 29.56-51.01 51.39zm-688.51 229.93-85.13 22.75s27.54 63.9 37.07 120.87c11.65 69.7 2.34 145.47 2.34 145.47l247.06 1.25z" fill="#e2cf00" transform="matrix(.154557 0 0 .154557 -140.558 13.851)"/><path d="m1604.33 1321.83c-32.52-11.29-33.18-31.76-34.3-57.85-1.92-39.57-1.58-81.21 4.1-113.44 2.18-9.8 3.34-14.82-6.44-18.28-5.4-1.87-10.8-1.12-16.19-1.94v-24.4c10.25-.55 19.77-.52 28.42 4.6 3.9 2.37 8.24 5 8.24 5 12.74-12.05 46.22-13.85 62.12 1.04 10.55 10.63 13.96 19.53 14.64 43.48.51 17.66 0 18.86 0 18.86l18.36-.1v23.73h-18.36s.41 11.8 0 37.37c-.31 19.9-.7 32.91-2.09 42.38-6.25 33.03-35.66 47-58.5 39.55zm35.21-40.86c6.39-17.04 3.72-82.88 3.72-82.88-27.39-10.53-39.01-27.02-50.16-38.76 0 0-4.65 73.09.9 112.45 5.05 32.65 34.52 37.52 45.54 9.19zm.15-110.73c1.5.22 3.2.32 3.43-.31 2.09-5.92-1.55-30.67-7.74-35.64-16.66-13.37-31.89 0-31.4.6 7.86 10.69 17.09 22.43 29 31.69 2.25 1.88 4.17 3.28 6.71 3.66zm-818.497 46.64c-108.403-154.72-208.848-301.898-342.207-464.107 0 0 .111-62.693.578-124.874l409.691 587.451zm379.497-202.15c53.71-58.292 94.39-120.41 130.5-183.871 41.16 73.091 88.8 132.636 141.4 181.801-51.57 52.13-98.36 111.78-135.4 186.75-30.11-57.29-69.16-117.06-136.5-184.68zm356.47-18.746c22.91-24.003 42.63-50.887 61.16-79.27 20.59 29.195 33 51.038 60.66 81.84-23.75 25.166-43.73 50.446-60 77.956-19.6-31.23-40.03-60.27-61.82-80.526zm-516.51-28.917c-3.49-29.386-9.48-64.551-18.08-94.819l74.8-70.529c-8.07 63.024-20.46 111.377-56.72 165.348zm357.51-222.297c16.74 22.235-11.51 34.579-22.18 24.683-21.63-20.062 10.05-40.79 22.18-24.683zm-741.705-140.028c-12.412 7.955 22.306-193.893 117.606-298.211 57.965 166.035-44.308 259.125-117.606 298.211zm470.155-.747-63.29-17.083 31.52-88.517s59.42 13.924 54.35 32.304c-16.5 59.836-22.58 73.296-22.58 73.296zm-293-34.026c17.139-28.176 30.151-59.241 42.13-91.029l89.997-12.473-52.162 101.163zm381.47-124.215c-48.99-97.535 8.72-251.913 115.3-294.405-3.84 98.911-34.52 199.1-115.3 294.405zm-329.241-27.713c2.156-34.643-1.813-70.947-6.604-103.12l222.785 29.695 7.79 93.381zm163.031-148.356c7.55-29.704 14.26-54.425 28.84-78.5 16.22.518 82.01-10.302 73.62 2.479-17.88 22.881-26.44 60.024-38.15 83.384-12.29-1.301-67.99 8.289-64.31-7.363zm-147.567-17.017c-22.531-7.951-53.339-10.172-65.32-27.597l23.437-74.267 69.414 21.294zm194.797-708.623 54.4-.519s261.38 334.444 359.35 464.593c-3.26 13.248 1.09 125.515 1.09 125.515-138.76-195.278-414.84-589.589-414.84-589.589zm-501.234 466.644c-14.616-15.69 8.628-29.593 18.293-15.573 8.512 12.348-10.586 23.848-18.293 15.573zm293.284-54.834c.844-77.503 55.803-169.482 55.233-167.132-.636-.151 7.834 75.766 18.396 99.656-2.85 4.209-71.03 72.333-73.629 67.476zm-234.111-25.72c-42.61-81.459-93.814-143.188-138.408-186.426 55.54-52.531 97.182-117.417 139.908-181.339 35.272 67.051 81.125 128.329 132.55 186.569-51.584 50.656-100.325 122.422-134.05 181.196zm-342.754-165.363c24.957-24.895 61.836-81.521 61.476-81.593 17.548 28.664 36.047 58.334 61.516 82.022-.269-.256-39.474 41.881-59.72 81.499-18.064-33.015-41.912-61.755-63.272-81.928zm-3.545-180.174v-24.001h17.952s-.205 1.953-.063-30.773c.199-45.779 2.487-59.841 11.638-71.53 24.652-31.491 69.881-21.833 81.761 17.459.904 2.987 2.944 10.557 3.148 20.578.532 26.048.575 69.277-.283 96.275.431 10.579-3.342 24.377-6.059 26.736 1.309 9.614 16.438 11.549 25.921 10.802v25.112c.047-.14-9.623.919-21.02 0-4.8-.387-15.887-9.527-15.887-9.527s-17.529 12.053-33.285 11.727c-51.551-1.066-45.827-65.406-45.676-72.76zm41.294 6.332s.041 9.038.591 15.082c1.818 19.946 14.833 30.284 27.809 26.735 6.475-2.013 10.274-5.914 10.274-5.914-11.035-16.38-24.158-30.143-38.674-35.903zm47.902-99.846c-5.509-30.086-33.843-34.698-44.52-9.24-1.924 4.587-3.53 40.851-3.53 40.851l.221 42.838c22.988 5.052 35.673 19.801 50.031 36.535 0 0 2.882-76.993-2.202-110.984z" fill="#d40000" transform="matrix(.154557 0 0 .154557 -40.193 98.973)"/><path d="m1118.19 80.604-2.05 1695.686 1055.06.2-.35-1693.14zm964.19 13.271c-8.58 93.824-10.08 167.35 38.61 264.656-8.8 9.222-75.04 11.837-95.92 22.756-.38 2.621 5.36 7.155 5.36 7.155 21.84-10.135 107-19.38 107-19.38-35.66-62.164-65-181.734-42.91-273.435l61.47.195-.39 451.802s4.83 87.21 6.65 136.345c-32.73-42.295-76.13-101.368-104.47-145.219-34.38-48.369-72.66-105.111-111.97-158.344-11.59-16.771-28.11-38.531-41.59-58.125-21.17-30.259-38.67-53.739-60.63-86.312-23.44-33.727-45.91-64.337-73.78-103.5-23.62-33.332-24.72-37.281-24.72-37.281zm-403.69 1.752c39.84 69.244 111.17 92.694 129.11 97.364l10.43 15.243c-84.09-16.479-129.12-70.463-150.26-103.845-1.65-2.597-1.46-8.567-1.46-8.567zm-39.44 0c-11.02 26.147-26.45 41.172-41.07 57.006l.51-16.817c.45 1.054 21.89-22.732 29.27-40.189zm19.29 0s.32 4.468-1.01 8.139c-8.44 27.262-60.87 79.01-59.36 71.256l-.53-13.349c-.23.574 39.38-37.717 49.75-66.046zm-38.12 0c-4.09 7.611-19.33 30.597-20.71 24.229l1.35-24.229zm119.77 0c6.61 9.562 12.61 16.555 19.56 26.334 1.29 1.864 2.07 4.068 1.75 4.906-1.06 2.716-4.2.699-12.88-6.992-14.23-12.616-23.91-24.248-23.91-24.248zm-53.02 0 12.88.032c26.67 44.289 74.51 67.854 91.07 73.007 4.42 4.869 9.18 13.776 11.03 15.746-44.65-12.095-94.68-49.852-114.98-88.785zm31.31-.187c14.21 20.494 36.46 34.862 49 44.669 6.74 5.284 15.64 16.075 14.81 18.217-27.92-8.823-60.57-39.769-75.56-62.699zm-54.73 12.681 7.76 12.352c-18.8 31-42.38 58.927-73.82 80.939l-.17-16.19c35.68-25.695 51.1-51.517 66.23-77.101zm12.59 17.902c22.41 30.195 70.72 76.926 148.19 90.891 0 0 4.4 3.974 10.81 12.711 8.15 11.084 8.27 11.522 9.35 29.688.72 33.245 11.52 78.363 22.25 106.75-1.33 7.057-2.57 10.652-15.88 28.625-55.45 74.894-173.58 145.733-231.78 49.048-19.41-30.976-21.3-90.361-22.53-127.392 0 0 .37-2.606.51-3.31 1.4-6.722 3.33-5.663 13.83-2.784 10.65 4.572 21.74.879 33.01-2.187 12.84-5.184 13.91-1.188 1.53 10.364-4.28 3.995-9.52 10.101-8.97 9.807s7.75-3.234 10.93-5.656c9.89-7.529 12.23-4.645 8.57 3.641-15.55 35.149-18.31 36.549 3.56 46.312 4.56 2.035 7.67 4.309 10.23 6.541 14.95 14.073 9.58 6.492 5.4.03-6.43-10.113-.62-15.458 10.24-9.196 7.26 4.185 16.79 7.562 21.98 5.961 10.06-3.276 13.13-14.299 10.15-26.429-2.39-6.709-16.14-18.559-12.97-6.157 8.26-.372 15.4 11.348 8.22 19.282-5.42 7.308-15.09 3.361-29.91-6.438-8.19-6.156-18.13-3.009-17.75 4.563.26 5.083-6.94 3.915-11.62-2.563-2.59-3.597-.83-13.953 4.05-23.764 30.73-61.78 4.82-121.686-48.4-104.798-5.85 1.857-11.13 3.363-11.13 3.363l-.28-23.634c30.55-21.293 62.96-55.247 78.41-83.269zm31.07 110.914c-8.03 9.686-5.18 18.308 12.43 9.625 14.35-7.069 16.34-7.903 31.97-8.468 22.19-.802 42.11 6.256 66.75 21.375 16.34 10.02 18.72 10.778 14.28 4.5-13.19-25.25-91.18-63.585-125.43-27.032zm-75.36 2.891c15.4 3.88 30.18 14.052 27.61 18.266-.93 1.516-1.82 1.804-3.78.781-11.27-5.565-29.23-14.665-55.19-3.562-2.86 1.223-4.45-.675-4.44-4.125.03-6.699 11.3-12.049 23.21-12.481 4.24-.005 8.87.213 12.59 1.121zm89.46 19.587c-9.18 4.77-12.33 7.311-16.23 5.179-9.32-5.093-7.35-1.097-1.56 9.156 4.08 7.235 4.04 8.723 3.44 13.156-.66 4.819-.56 5.005 4.12 10.157 8.76 11.513 17.48 22.619 30.6 31.353 4.09 2.723 9.55 5.821 9.96 5.834 1.31.04.81-1.002-1.53-3.281-16.8-16.16-30.05-30.642-12.94-24.49 19.92 6.494 38.87-1.598 54.4-6.88 6.33-1.953 12.99-3.6 14.64-3.599 14.34.015 17.73-5.957 8.56-15.062-31.04-34.803-56.79-42.995-93.46-21.523zm73.65 6.523c6.41 5.925 9.79 9.144 9.15 10.687-.69 1.656-5.63-1.149-13.9-5.562-16.66-8.879-35.54-10.968-59.13-4.157-18.31 5.289-12.91-3.105 7.5-11 16.34-7.535 38.89-5.284 56.38 10.032zm-171.03-11.988c13.99-.225 28.56 4.368 38.31 12.769 6.8 5.86 1.83 7.225-9.22 2.656-16.71-6.911-30.79-8.012-44.5-1.594-4.31 2.015-9.27 4.413-10.63 4.282-2.29-1.552-3.26-6.06-1.28-9.25 5.51-5.409 16.44-8.689 27.32-8.863zm230.59 4.8c1.03.044 2.57 1.677 4.87 4.906 4.19 5.875 4.35 8.777.88 19.063-4.24 12.559-5.94 10.522-7-7-.69-11.369-.71-17.054 1.25-16.969zm13.87 18.938c1.6-.227 3.46 2.588 6.44 8.406 2.08 4.06 1.59 5.275-4.91 24.281-2.71 7.954-5.27 14.289-5.34 14.344-2 1.574-1.74 1.435-2.59.344-4.63-5.916-4.3-17.454-.31-31.282 3.02-10.48 4.66-15.802 6.71-16.093zm-126.06 1.437c.51-.043 3.61.633 3.61.633-.32 28.151 21.45 22.488 24.33 2.492 0 0 5.37-.553 6.19.78 2.58 4.187-3.41 16.23-12.37 20.17-6.54 2.919-15.43 2.209-20.74-2.679-1.48-2.754-5.98-13.214-5.14-17.552 1.04-2.533 2.61-3.713 4.12-3.844zm-12.97 3.289c.22-.011.43-.011.66 0 2.13.109 3.69.686 4.53 3.274l4.66 14.3c-3.43 4.103-16.47-4.21-16.44-10.449.01-4.308 3.25-6.96 6.59-7.125zm-88.52-.029c3.29-.319 4.45.048 4.83 3.118 1.11 9.292-8.18 19.391-20.24 19.94-11.66 1.304-17.96-7.745-17.6-16.568.03-6.707 5.8-7.546 6.44-2.244 1.85 15.309 14.93 16.189 20.91 7.735 2.26-3.313 1.74-11.473 5.66-11.981zm143.24 3.115c.93-.038 2.17.312 4 .938 12.03 3.84 12.35 5.698 2.06 9.406-12.27 4.421-13.06 4.999-10.18-3.563 1.6-4.776 2.08-6.697 4.12-6.781zm-127.54 1.349c8.92.553 9.67 8.1 1.82 10.62-11.68 5.154-15.61 4.818-11.09-2.787 2.46-5.386 4.65-7.73 9.27-7.833zm-55.8 2.714c1.06-.011 2.28.399 3.59 1.375 1.34 4.046 3.61 7.159 5.41 11.343-1.83 1.818-6.2 1.789-8.99-.419-5.58-4.43-4.63-12.255-.01-12.299zm280.44 8.718c3.46.021 6.98 5.508 8.13 9.597-12.1 15.547-10.2 44.574-13.01 53.338-2.44 7.131-3.23.976-9.96-17.495-2.72-7.455 10.98-44.522 14.15-45.346.22-.058.45-.095.69-.094zm12.37 15.938c2.69 1.537 6.35 5.068 7 10.625.37 3.224-1.22 7.51-2.25 11.75-2.44 10.08-5.75 29.124-6.94 46.719-.5 7.488-.48 14.223-.81 14.875-3.64 7.135-11.32-12.063-10.66-27.347 2.39-12.203 3.72-54.946 13.66-56.622zm17.09 21.937c1.71 2.376 2.8 4.196 3.32 6.244.92 3.561.15 7.813-1.94 16.881-5.55 24.034-4.75 49.938-1.13 76.532.77 5.594-3.12 2.792-9-6.844-3.25-5.343-5.34-12.666-6.34-21.313-2.05-18.904 1.9-44.53 5.26-64.746 1.48-8.947 2.52-16.831 9.83-6.754zm9.22 14.625 9.72 11.719s-4.15 26.941-4.12 41.313c-.68 5.382 4.83 63.921 6.62 68.656-5.97-6.69-8.76-10.625-15.31-19.031-.75.121-6.41-57.675-2.5-79.782 2.37-13.37 5.59-22.875 5.59-22.875zm15.25 23.282c1.63-.06 3.71 1.778 6.31 5.437 2.36 3.301 3.5 6.013 3.63 10.125.09 2.997-1.39 5.311-1.44 10.656-.27 31.843 4.03 61.895 9.45 90.869 1.91 10.366-1.81 6.137-7.96-.421-5.63-6.005-5.74-8.289-8.74-16.825-.61-1.703-6.61-60.426-6.55-64.865.21-18.247.73-28.41 2.83-32.789.69-1.43 1.49-2.152 2.47-2.187zm-35.32 63.984s-11.31 5.822-14.28 3.779c-4.78-13.03-22.01-47.91-22.31-54.087.31-2.03 7.07-11.207 7.07-11.207 9.52 20.663 18.09 41.803 29.52 61.515zm-212.94-41.892c-3.41 4.007-7.48 2.335-15.7-1.279-4.22-1.294-3.57.441-10.54 4.062-5.4 2.808-7.3 2.881-10.88 2.85-4.72-.04-6.42-1.695-6.44 1.626-.01 1.837-.28 10.138-1.4 14.43-1.51 5.841-2.84 8.418-2.01 9.432 2.41 2.2 4.42.858 9.49-4.034 8.4-8.114 14.06-5.788 23.42-2.771 10.64 3.432 12.85 4.696 22.58 1.294 13.79-4.819 22.09-4.824 27.59-1.328 9.46 6.027 12.32 5.672 8.42-10.805-1.26-5.312-1.35-13.549-2.12-14.976-.88-1.616-3.29 2.994-5.8 4.688-4.82 3.239-7.31 3.179-18.16-.375-6.43-2.107-13.63-8.996-18.45-2.814zm174.55 2.15c4.2 9.896 20.92 42.966 20.41 46.661-3.26 2.924-7.61 5.055-10.2 2.44-8.36-15.249-10.86-23.471-17.65-40.586-2.03-4.091 4.03-14.517 7.44-8.515zm89.78-1.216c1.18-.165 3.66 2.294 5.5 4.755 5.72 7.657 6.06 8.607 6.24 16.812.66 29.754 4.4 64.776 12.79 91.781 1.65 5.316 4.77 11.779 4.43 12.657-2.81 4.097-15.84-6.875-19.78-23.563-5.42-21.19-8.6-43.301-10.32-57.693-2.19-25.313-2.18-43.429 1.14-44.749zm-100.29 16.411c4.82 9.286 10.89 25.31 14.97 34.924 1.86 4.174-7.66 7.464-9.85 6.045-3.8-2.84-5.6-10.834-8.1-15.625-7.95-17.376-9.38-17.74-4.97-23.153 2.71-3.762 5.95-8.372 7.95-2.191zm119.16 10.656c.7.001 1.6.681 2.75 2.156 5.02 5.938 8.44 10.475 9.75 14.875.95 3.194.19 5.589.53 11.375.9 15.158 4.88 35.847 16.16 78.188 1.1 4.129 2.59 9.015 2.4 10.344-1.09 7.773-12.49-4.828-15.81-17.844-3.85-14.775-10.87-33.646-12.94-51.094-4.26-27.695-6.62-48.002-2.84-48zm-129.2 11.195c9.48 22.125 10.23 22.085 4.26 23.836-6.31 1.851-6.69 1.245-14.1-13.82-5.41-10.994-6.48-12.373-1.93-16.336 6.95-8.183 8.77-.379 11.77 6.32zm-132.05-5.277c-1.08.022-4.25 2.429-7.45 3.693-7.83 3.101-21.74 3.314-30.22.759-15.02-6.031-10.79 1.801 2.5 6.568 10.31 3.469 30.74.779 33.91-5.648 1.94-2.056 2.65-5.4 1.26-5.372zm114.24 11.634c8.46 13.081 11 18.306 9.57 19.323-1.35 1.353-8.05 3.882-10.81 2.532-3.46-1.696-6.47-9.773-7.99-16.106 1.06-3.093 6.62-8.639 9.23-5.749zm-212.02 5.511c3.78.015 13.62 13.239 11.62 15.625-.55 1.226-4.24.058-12.86-2.329-2.87-1.059-9.38-1.911-7.32-6.083 1.02-1.895 7.05-7.219 8.56-7.213zm202.94 18.125c-.85 2.261-7.23 2.792-9.94 2.625-2.33-4.85-2.95-7.165-3.6-10.375.89-1.927 5.26-6.917 7.41-5.938 1.3 1.153 5.47 11.298 6.13 13.688zm176.09-12.75c1.35.047 3.69 2.413 7.16 7.375 6.56 9.377 5.67 8.695 10.37 31.094 5.34 25.401 11.73 43.491 18.19 69.437.09 4.306-1.66 3.162-6.44.25-7.81-4.758-10.38-10.043-12.84-23.812-4.2-22.745-13.07-43.788-16.47-70.657-1.8-8.886-1.94-13.756.03-13.687zm-196.85 9.075c4.61-.156 3.99 6.95 2.67 8.1-3.37 2.937-12.66 2.06-14.26 2.226-3.56-5.596 8.58-10.136 11.59-10.326zm220.29 24.175c1.36.187 5 5.329 11.81 14.906 6.55 9.202 5.11 7.699 9.03 22.844 5.55 20.928 14.72 36.021 20.09 55.281 0 2.202-2.67 1.918-5.21.875-4.97-2.079-9.4-5.591-13.6-9.031-2.87-3.104-2.85-7.049-11.34-36.25-3.07-10.536-3.86-13.275-7.69-29.281-3.2-13.386-4.63-19.556-3.09-19.344zm-709.89 62.523c22.27 40.967 14.02 59.134-33.86 64.808-3.46-.486-.2 20.988-.29 30.585 23.99-13.725 53-16.931 79.74-25.547-7.28 23.311-20.06 49.73-58.77 45.662-40.45-31.262-88.07-12.479-120.38-25.171-17.57-6.546-24.28-26.064-24.49-29.412 21.07 2.111 44.87 6.626 65.29 5.148-22.31-17.183-15.78-40.962-12.64-51.835-26.1-32.912-4.31-69.932 33.6-61.324 3.92.89 11.65 4.7 11.65 4.7 36.57-32.739 78.96-1.982 60.15 42.386zm739.92-19.929c1.51-.145 4.86 3.809 11.56 13.187 19.89 27.82 37.11 53.7 36.84 55.156-.85 4.792-21.58-3.605-26.81-10.468-5.95-7.819-22.71-48.073-22.69-54.469.01-2.135.31-3.331 1.1-3.406zm-809.88 119.156c10.35 1.519 13.24 2.394 13.13 6.437.88 3.434-25.1 3.891-28.63 1.344-2.81-2.034.82-6.493 3.6-7.562 4.02-1.214 8.01-.79 11.9-.219zm716.38 3.687c-145.19 68.574-204.59 250.962-131.3 390.739l-10.09 7.28c-71.85-147.777-18.4-306.133 98.34-386.106 4.73-3.36 15.18-5.955 20.04-9.176 0 0-47.62 10.864-63.74 17.169-3.27-.111-12.88 3.276-23.2 14.467-9.02 8.359-37.23 47.251-36.33 48.604l-74.95 3.019.06 2.77 73.57-1.7c-75.76 124.733-57.15 243.412-10.37 326.473l1.16.77c2.72 1.83 9.87-3.4 24.71-17.47 6.12-5.79 13.82-12.98 17.13-16 9.17-8.4 22.24-22.9 31.22-33.37-50.94-103.825-.69-240.57 118.51-302.192.21-3.28-1.27-13.297-1.27-13.297s-4.5-4.046-7.16-3.631c-132.8 58.499-186.01 203.766-132.02 335.87l-8.9 9.69c-67.85-136.801 4.98-307.785 131.96-356.224-.06-3.091-2.81-7.037-6.22-4.661-137.09 63.648-196.84 226.182-129.68 364.725l-8.46 7.47c-76.4-151.688 4.1-321.668 130.3-379.75 3.72-.863-3.31-5.469-3.31-5.469zm-738.95 1.414s-.97 8.078 1.89 10.836c1.31 5.764-.79 5.138-5.69 3.969-12.07-2.878-2.66 3.989 7.22 9.531 9.72 5.46 8.42 5.276-.07 10.657-5.7 3.616-5.1 4.973-4.34 7.718 1.14 4.075 1.92 1.362 4.28-.812 4.97-4.564 8.93-5.705 13.35-5.688 6.62.026 7.29 5.331 6.12 9.469-2.63 8.684-11.57 8.222-18.91 6.063-11.99-3.533-31.58-24.335-31.27-36.578-.84-10.97 14.17-15.666 27.42-15.165zm53.92 2.68c4.65 1.709 10.5 3.993 16.93 6.688 8.89 2.824 17.9 7.421 23.71 11.294 17.69 11.792 16.61 35.377 15.33 37.72l-91.39 86.612s-5.16-2.521-10.02-5.002c-15.37-7.84-19.06-11.97-10.53-16.312 4.14-2.106 5.47-6.634 6.06-11.063.79-5.933.48-4.921 4.03-7.625 6.18-4.704 6.47-6.647 6.5-14.468.02-5.177.56-7.562 2.44-10.813 1.5-2.581 3.07-7.969 4.13-14.156.17-1.016.22-3.557.42-4.449 1.08-4.84 2.61-6.265 3.64-7.364 1.02-1.095 2.67-4.827 3.81-8.062 2.55-7.213 2.07-6.143 6.19-5.344 5.98 1.161 5.12 4.65 4.47 10.188-.32 2.687-2.11 4.572-1.5 3.968.81-.81 4.49-2.545 5.25-2.718 1.91-.437 3.82.22 4.31 3.218.27 1.671-.45 4.747-.41 7.125.12 6.163.38 13.546 1.78 18.407 6.79 23.419 5.44 20.175 3.13.687-.55-4.665-1.2-11.516-.53-17.219.47-4.02 1.62-8.998 3.18-11.718 4.02-6.99 4.24-8.372-4.46-11.813-3.24-1.278-8.74-3.518-9.88-5.75-1.39-2.732-5.54-6.449-10.94-7.719-13.13-3.087-20.77-15.772-18.87-17.656 1.24-1.234 6.53.381 9.87.5 11.99.427 14.54-.19 19.85-4.75 2.83-2.428 4.1-4.588 6.35-4.747 2.37-.045 5.4 1.72 7.15 2.341zm622.07 14.032c-122.77 99.33-144.29 260.012-83.04 384.003l-10.6 8.33c-76.98-145.443-25.28-302.335 69.29-388.136zm-708.82 11.843c2.16-.203 4.53 2.975 13.15 12.188 5.81 6.205 11.86 11.595 15.03 13.406 7.22 3.453 5.64 2.015-.37 7.719-6.14 7.047-2.75 12.842-10.09 9.312-19.11-8.967-32.52-35.387-20.1-41.75.94-.48 1.65-.807 2.38-.875zm-9.5 27.781c.46-.035.97.035 1.47.157 2.35.575 5.21 5.004 8.28 8.093 8.49 8.55 12.43 12.342 19.22 15.344 6.67 2.95 6.85 3.667 2.15 8.875-1.7 1.894-2.72 4.17-3.12 5.438-.4 1.267-.51 2.881-1.94 3.156-7.44 1.427-32.15-13.564-33.12-23.906.79-9.674 3.24-16.864 7.06-17.157zm52.37 2.875c4.29-.11 6.81 3.711 6.78 9.907-.01 4.291-2.43 6.036-7.34 7.875-10.5 3.93-16.96-3.582-9.63-11.875 3.09-3.486 7.26-5.831 10.19-5.907zm-6.4 25.219c7.92.031 10.21 6.708 4.4 12.469-5.45 5.411-16.46 5.438-16.43-.5.01-4.658 6.99-11.989 12.03-11.969zm-49.1 7.989c5.36 1.583 18.4 10.977 24.13 12.081.3 3.168-3.51 4.034 1.9 9.993 2.46 2.704 2.67 4.549.54 5.687-6.55 3.485-29.21-7.532-30.72-18.875-.74-5.539 1.1-8.688 4.15-8.886zm29.57 13.574c7.79.325 16.61.556 15.68 4.281-.67 2.701-3.46 9.835-7.03 8.5-1.73-.649-3.42-2.375-4.62-3.531-4.16-3.991-5.27-9.302-4.03-9.25zm294.82 32.275c22.71 20.561 105.22 235.337-66.72 391.817l-36.48 10.93c165.08-129.62 137.61-313.636 93.07-393.022.01-2.331-.65-2.065-4.76 1.656-3.59 3.257-3.98 3.961-2.53 4.562 50.34 77.465 69.16 296.264-129.19 401.844-3.32 3.46 3.41 2.93 3.41 2.93.35-2.84 89.31-24.46 83.03-25 82.92-73.29 155.11-248.078 65.24-400.429-2.17-1.427-5.07 4.712-5.07 4.712zm-28.64 24.318-1.15 4.844c71.96 141.283 3.27 314.375-130.5 378.435 2.2 1.62 4.64 2.73 7.1 3.88 151.75-81.71 195.51-254.653 129.31-388.604zm-12.03 10.019-.84 5.127c59.58 120.242 12.28 287.103-129.91 354.793-1.35 7.28.03 5.15 6.68 4.8 164.52-88.22 179.98-256.004 128.51-364.962zm-10.22 14.419c-4.64 6.141-13.15 9.322-15.98 17.227 47.8 126.319-13.97 247.914-118.55 299.174-.08 6.36-4.64 22.09 6.43 19.57 129.19-58.52 185.41-214.085 128.92-336.536 0 0-.74.537-.82.565zm648.95 244.231c4.75.34 9.02 1.78 13.43 2.35 16.05 2.08 26.46 13.78 19.29 20.9-2.36 2.34-5.65.99-16.07-4.11-4.79-2.34-5.56-4.53-6.55-9.82-1.19-6.33-2.46-6.97-4.07-2.06-1.62 4.97-3.37 8.05-8.85 6.79-15.39-3.58-9.57-14.17 2.82-14.05zm-171.67 107.55c-38.53-21.87-86.12-61.3-113.32-106.11-13.53 25.38-29.42 71.56-29.42 71.56l-60.48-16.89-.72 1.26 59.78 17.23-5.82 19.94c-.63 2.16-9.89 24.86-9.89 24.86l93.38 43.58c-5.79 9.05-12.1 14.9-20.12 23.35-4.54 4.76-4.66 10.93-4.66 10.93l129.46-123.49s16.7 24.77 22.91 30.38c5.83 5.27 7.64 6.55.84 8.12-30.42 4.46-54.02 27.49-45.79 58.38 1.33 3.44 4.01 2.18 9.78-1.45 20.19-18.29 69.56-35.22 71.24-30.92l.2 19.67c-53.15.77-47.7 39.84-43.81 60.79 0 .45-15.37 13.89-15.37 13.89 5.44 2.85 10.76 5.8 15.78 9.31-4.67 26.06 17.54 63.84 61.16 44.5 3.77 3.87 7.33 7.76 11.49 12.62 4.46-5.17 9.61-17.35 9.61-17.35 21.67 9.81 66.63-12.14 43.63-62.41l12.68-12.09-12.18-7.68c-.31-12.78-2.29-24.2-9.92-35.33 0 0 20.45 5.21 35.59 6.09 9.35.84 17.23 1.08 16.44-4.57-.23-1.66-1.63-9.8-2.54-12.46-4.51-13.17-27.93-22.84-50.67-24.12-3.71-.2-7.71-.09-8.5-1.05-1.49-1.81 1.18-4.37 3.62-3.95 12.46 2.17 24.44-7.03 26.59-18.75.43-2.05 2.98-5.81 6.63-9.81 6.48-7.09 6.99-6.91 6.87-17.16-.09-7.11 1.16-8.69 4.44-13.46 4.24-6.8 6.2-15.68 4.07-24.86-.67-2.91-3.43-7.02-1.08-14.27 3.82-11.8-4.57-22.58-15.57-28.73-.88-.25-.62.62-1.35 1.49-9.98 3.11-22.14-4.05-22.14-4.05-2.5-1.23 8.5-65.2 31.31-59.48 3.8 2.3 5.4 13.41 5.11 13.61 1.05-.03 1.62-6.54.15-10.89-1.55-4.56-5.09-8.91-11.89-7.62-5.28.99-11.37 8-14.12 11.51-10.66 13.58-10.78 22.25-14.34 36.69-1.71 6.83-1.9 6.43-11.35-.95-6.78-5.3-10.07-6.99-7.71-10.1 1.06-1.4 5.46-5.81 5.46-5.81l82.57-79.458v795.668h-466.94l3.27-102.25c8.76-71.9-6.65-222.88-18.32-237.08 9-10.1 36.91-34.47 35.37-35.57l-3.7-2.19-14.76 13.58-36.44-11.04c-15.55-10.74-31.41-20.66-47.87-24.89-26.87-6.9-78.63 15.08-78.68 15.31-82.69 6.12-148.91 39.7-147.98 39.44-3.6-3.3-8.37-13.86-8.49-13.8-42.63-59.31-84.53-92.54-141.78-133.08l72.51-40.06-171.83-179.53-1.51-145.781 248.92-237.968c1.46-4.11 79.41 55.052 108.43 103.196 5.57-23.534 15.93-44.905 24.57-68.013.9-2.113 49.52 17.976 63.94 18.827 2.16.128 3.9-2.147 3.9-2.147l-64.17-20.867 13.13-37.583s4.57-10.212-.59-11.906c-29.25-9.461-56.7-26.138-84.68-40.347 0 0 13.07-14.526 13.27-15.169.18-.604 5.48-8.399 4.22-11.086-14.24 13.807-130.37 121.507-130.37 121.507-3.3-18.484-8.49-24.946-19.78-36.351 6.15-.296 15.77-6.376 21.34-10.43 17.02-12.398 26.28-34.523 24.05-47.449-16.33 5.197-31.09 11.292-51.55 15.007-11.5 2.087-22.41 7.28-29.02 12.851l-1.02-20.624c.04.235 27.53 4.819 40.27-13.631 10.97-15.9 6.47-34.1 3.95-43.38.29-2.06-.33-1.829 4.41-6.187 3.49-3.218 8.93-7.375 8.93-7.375.24-1.171-14.19-6.518-16.63-11.403 3.84-38.226-26.7-52.983-52.55-46.191-4.83 1.457-7.14 2.363-12.88-4.037-.86-.953-7.75-8.236-7.75-8.236s-3.05 7.019-4.61 10.093c-5.07 9.997-6.46 6.988-17.39 7.524-27.69 1.357-40.04 23.712-33.69 51.156 1.5 6.442.83 5.449-3.4 13.594-2.16 4.16-5.69 9.469-5.69 9.469s5.08 2.814 8.5 4.343c5.07 2.266 5.33 4.917 5.31 9.969.71 11.137 3.16 18.593 9.56 28.159-21.69.499-38.33-1.526-57.97-8.049 3.01 30.2 25.27 41.446 52.53 45.871 0 0-2.86 2.672-5.87 3.863-6.38 1.848-10.37 7.45-10.31 12.469-.92 4.792-4.02 9.603-6.87 12.164-4.25 3.674-7.74 8.852-6.07 18.867-.42 7.256-2.18 9.354-4.31 12.125-4.28 5.564-5.72 11.093-4.65 18.406.49 3.403 1.54 10.689.84 18.219-1.17 12.551 3.32 17.258 9.03 26.094 3.7 5.724 2.92 5.877 2.06 10.031-2.05 9.973-4.19 15.101-6.4 22.687-4.97 16.974-5.15 29.844-1.1 33.157 6.12 4.991 13.04 3.489 16.26 2.495 24.12-7.447 19.94-31.135 21.21-47.031.69-4.087 2.09-6.05 3.44-5.859 6.82 7.983 14.03 12.6 23.32 17.631-32.11 32.673-53.08 52.667-93.66 88.31l1.1-795.857h462.98s.49 5.888-.62 34.686c-2 58.527-4.46 119.835-.62 179.5.64 20.648.22 41.037 3.19 61.468 2.89 19.904 4.16 41.368 13.47 59.907 3.73 10.049 3.85 9.276-10.39 22.437-6.98 6.456-12.92 13.329-12.66 14.54.08.404-.31 1.917.76 1.06.71-.57 5.87-5.678 6.45-6.352 3.85-4.549 10.31 1.29 32.34 7.502 4.31 1.218 10.4 5.286 15.06 8.656 32.92 27.743 79.24 19.092 113.87 3.962 9.83-4.294 12.24-4.737 28.03-6.61 58.49-6.934 120.98-32.487 120.85-32.408l7.64 12.507s2.87-.531 4.92 2.615c33.64 63.535 143.46 136.133 141.51 132.769l-71.79 39.742c52.27 64.574 171.78 174.126 171.78 174.126l-2.75 157.454c-32.09 25.663-60.31 55.082-88.52 83.802-8.11 8.03-13.84 12.62-10.76 12.77 7.32-1.12 13.65 6.11 19.61 11.12 3.77 4.2 2.86 3.82-1.49 9.57-3.06 4.04-4.18 5.21-4.2 8.13.11 5.65.07 9.43-4.96 13.67-3.12 3.92-4.9 6.43-5.47 11.08-.56 4.63-.52 7.61-3.71 11.71-5.41 1.15-5.92 9.03-4.97 12.55 5.67 5.61 3.08 11.69 3.61 10.41-10.82 11.74-22.17 21.91-14.92 5.5 3.27-6.11 4.4-11.17 4.4-11.17s-5.2 5.39-7.93 7.94c-4.16 3.86-5.69 1.59-5.81-10.39-.54-9.07-4.36-21.72-5.88-24.14-.85-1.35-.99.99-.6 9.72.53 11.48 1.9 14.82-2.15 26.28-5.46 15.49-9.34 17.68-.47 17.15 8.4-.51 15.51-.6 19.18 4.42 1.24 1.69 2.84 4.58 6.23 6.29 6.92 3.78 12.42 7.97 16.26 12.15 12.43 13.52 8.87 25.6-15.17 17.41-12.65-4.32-4.37-9.75 9.24-8.49 8.35.78 9.76-2.31 2.53-4.52-13.45-2.49-15.62-4.01-24.49 6.54-37.25-3.68-58.16-24.51-68.22-41.47-4.2-7.1-5.49-8.45-2.56-12.47 1.15-1.58.46-1.1-1.53 1.09-1.98 2.2-7.39 4.03-9.18 5.61-12.52 12.48-25.2 25.9-36.48 36.05zm162.13-87.44c6.32.78 6.2 6.09.55 11.2-5.3 4.01-8.93 4.79-11.93 1.77-5.24-5.28 1.53-13.01 11.38-12.97zm18.41 3.68c5.1-.02 11.6 2.33 19.32 8.74 9.22 7.66 11.32 26.21 2.86 29.42-3.55 1.35-4.1.03-11.65-7.15-5.1-4.84-10.63-9.22-16.07-11.81-11.11-5.29-12.53-7.29-5.02-10.89 1.58-.81 3.62-2.72 4.56-4.22 1.93-3.09 2.51-4.07 6-4.09zm-12 24.7c1.47.04 3.45.94 6.53 2.59 18.73 10.23 27.88 26.26 21.54 35.31-4.15 5.94-10.92 3.67-16.08-4.75-2.9-4.74-10.61-10.81-19.37-15.25-10.03-5.08-10.24-5.81-3-9.28 2.97-1.42 5.2-3.44 6.66-6 1.68-2.97 1.82-2.68 3.72-2.62zm6 38.2c14.15 14.11 12.53 21.75 3.34 27.49-6.28 3.92-16.34 4.9-19.64 1.65-5.33-4.66-5.19-10 .7-11.72 5.5-1.17 3.44-3.38-1.7-4.68-18.34-5.21-29.62-14.94-9.68-12.83 5.72.6 11.26-3.84 14.26-7.39 4.32-5.26 10.17 4.94 12.72 7.48zm-964.81 5.44 412.91 591.12-333.82-.65s-1.25-4.34 1.47-39.77c4.01-48.07-2.16-89.76-13.54-136.69 1.44-.16-15.98-56.96-29.53-84.71-2.46-5.82-2.06-6.38 5.94-7.41 23.63-3.8 49.08-9.52 72.69-19.5 10.97-.97 27.08 3.31 26.21 1.97-.39-.64-14.27-13.37-14.27-13.37-38.55 15.4-74.12 21.03-107.6 24.86 44.45 75.64 60.31 178.6 46.98 271.09l-63.96-.19-.2-455.19zm73.79 87.55c5.83-.23 20.37 10.02 22.14 17.74.36 1.58 4.14 11.06 8.37 19.88.09 1.63 14.4 27.48 8.11 25.22-12.51-17-34.87-45.95-40.49-60.06.01-1.88.24-2.72 1.87-2.78zm44.61 25.85c.78 4.27 5.11 15.44 8.53 22.8 8.91 19.18 22.71 49.25 19.91 57.81-1.89 5.77.05 5.47-5-1.65-2.47-3.49-10.18-14.24-12.04-16.72-4.51-6.06-1.47-.5-4.05-10.36-6.15-27.9-16.08-42.55-22.53-58.85-2.3-7.65 12.22 3.89 15.18 6.97zm7.94 4.26c1.2.84 17.56 12.34 19.22 14 5.8 20.62 28.99 86.71 22.99 98.52-2.1-1.64-10.94-12.3-12.16-17.79-2.68-31.6-12.7-54.33-23.46-77.88-3.03-7.1-5.4-14.19-6.59-16.85zm30.78 23.2c5.18 2.53 10.54 8.32 13.58 13.49 2.03 3.5 3.07 7.63 4.98 16.32 5.93 26.96 17.25 54.29 12.16 83.06-3.18 4.31-10.08-5.45-11.07-15.06-3.27-31.86-6.07-47.12-17.28-84.59-2.17-7.27-3.82-12.97-2.37-13.22zm26.28 24.72c1.11.04 3.37 2.1 7.16 5.65 7.35 6.91 8.39 9.45 8.43 20.91.24 16.84 5.85 36.06 6.72 53.06.5 9.81 2.3 35.18.78 36.69-2.14 2.95-11.64-7.8-10.9-24.28 1.21-19.81.22-34.73-8.22-69-3.91-15.84-5.88-22.61-4.19-23 .06-.02.14-.04.22-.03zm762.34-100.07c29.51 18.93 19.1 53.89 12.79 58.18 40.74 51.48-22.59 77.83-42.69 59.33-29.75 29.56-80.8 4.78-61.14-43.94-.02 0-37.36-71.37 36.32-66.6 0 0 1.27-28.83-.81-30.15-26.3-1.77-62.06 23.55-72.19 30.56-5.61 3.4-6.84 1.77-6.84 1.77-1.41-14.96-1.44-21.82 4.64-30.16 10.61-14.57 28.16-19.49 51.21-24.55 28.53 8.78 55.69 22.57 82.12 20.42 14.55.09 29.44 2.44 43.55 10.01 9.52 4.49 14.47 21.34 14.47 21.34-14.93 7.81-61.43-6.21-61.43-6.21zm-14.03-105.84c.12-5.11 5.9-10.81 11.58-10.14 7.81.56 8.83 9.81 1.89 13.21-2.01 1.62-8.49-.77-8.84 1.03.47 3.15-2.7 1.82-3.31.68-1.08-1.34-1.32-3.25-1.32-4.78zm-4.73 20.15c2.86-2.01 5.26-2.18 8.14-2.56 4.43-.54 10.1.13 11.36 4.77 1.23 4.56-7.51 7.24-14.58 7.36-3.6.06-7.77.76-8.85-1.76-1.01-2.37 2.48-6.74 3.93-7.81zm-892.96-325.494c5.7-19.785 2.14-30.863 11.63-55.25l23.09 7.688s.98 23.92-3.67 37.247c-4.66 13.316-19.98 23.935-31.05 10.315zm172.04 535.094c2.72.33 9.41 9.86 12.43 18.56 2.77 8.08 1.86 18.33 3.88 27.03 4.53 29.82 4.26 59.69 3.06 68.72-.6 4.5-3.5 2.67-7.47-1.62-5.77-6.24-4.97-6.37-4.9-23.69.05-14.84-3.24-51.52-4.76-58.97-2.8-13.78-3.97-26.93-3.31-29.19.19-.63.56-.9 1.07-.84zm270.1 3.57c29.74 4.73 53.52 25.04 67.14 58.46 13.16 33.99 16.4 80.36 18.44 122.99-.15 10.2-4.35 7.63-15.37 1.29-12.03-5.88-14.59-4.18-32.16-.15-10.96 2.51-9.97-4.95 8.06-17.32 6.14-4 13.29-9.35 10.94-10.15-1.19-.41-6.68 1.07-10.65 4.28-17.7 14.3-22.5 17.78-17.39 3.87 1.28-3.51 5.38-13.26 7.1-17.93 6.41-17.47-.98-24.95-22.75-36-5.44-2.77-9.02-7.39-3.59 2.28 4.44 7.9-4.74 14.28-16.13 5.03-7.9-6.43-23.8-2.15-28.93 5.87-4.97 7.77-2.31 22.27 7.49 26.96 8.63 3.72 11.85 1.04 3.5-4.74-10.74-7.45-8.65-20.01 3.41-19.96 2.98.01 8.24 3.33 21.53 10.56 9.52 5.14 16.29 2.97 16.3-4.72.01-5.14 2.95-4.72 9.21-1.63 8.43 4.17 7.51 7.94 3.05 19.58-3 8.14-4.49 17.38-7.25 25.88-7.09 28.61-8.04 61.01-.19 71.11 20.88 26.87 43.06 24.02 62.04 6.27l-.81 29.41c-19.36 15.54-41.98 26.13-76.89 83.73-12.18-15.3-64.43-77.82-148.21-91.95l-18.85-25.79c.32-1.6-14.09-95.94-23.51-128.05 0 0 10.37-15.74 19.78-27.34 37.62-46.34 101.2-99.38 164.69-91.84zm-109.26 26.77c-3.22 1.03-4.27-5.4-2.52-6.62 3.88-.33 5.25-.21 9.13.08 2.93.18 2.86 3.54-6.61 6.54zm-141.38-4.81c4.19 2.98 9.29 11 14.28 18.31 2.77 4.05 1.2 10.76 1.63 17.38.61 9.39 1.65 24.86 2.31 34.37 1.29 18.55-.44 34.06-3.15 39.66-2.77 6.7-8.39 2.07-9.79-7.09-.33-2.21 1.5-24.95 1.5-37.44 0-21.48-5.49-48-6.78-65.19zm126.82-.13c1.47-.08 2.6-.03 3.58 1.22 4.51 5.78 6.34 9.28 2.23 12.44-5.45 4.55-10.4 3.4-13.43-5.23-1.94-6.16 2.65-8.1 7.62-8.43zm-16.8 5.09c4.86 3.26 9.69 11.84 10.19 18.03-.31 1.7-1.8 3.14-5.07 5.78-3.23 2.96-4.25 2.77-7.87-2.92-5.66-8.86-8.31-14.68-7.2-17.74 2.83-2.94 6.51-4.11 9.95-3.15zm198.04 1.12c8.12.69 16.13 4.4 24.03 6.27l-12.05 11.65c-3.58-5.97-7.67-11.94-11.98-17.92zm-216.06 6.08c4.46 5.79 12.22 20.95 11.8 26.58-1.13 1.92-2.89 3.63-4.76 4.7-1.48.41-2.81-2.19-7.83-11.07-8.74-15.45-11.3-19.81-6.76-21.66 2.38-.27 6.01-.15 7.55 1.45zm-17.61 3.59c4.86 4.32 16.52 27.34 16.85 33.82-.13 1.82-.67 3.4-1.75 4.63-7.33 7.88-5.48 6.61-16.39-15.85-9.21-18.47-11.64-20.29-5.55-22.37 1.35-.46 4.72-1.07 6.84-.23zm-17.51 6.01c3.2-.05 4.1 5.3 10.33 17.48 10.44 23.03 14.35 26.23 11.99 28.69-2.91 3.67-4.62 6.25-7.38 1.79-6.29-10.23-12.54-23.29-18.4-34.75-4.69-8.56-5.11-9.6-2.1-11.69 1.73-1.2 4.31-1.5 5.56-1.52zm186.28 6.54c-3.92 1.1-19.69 6.09-10.03 7 1.95.18 6.9-1.06 10.37-1.3 9.77-.67 30.07 1.17 29.35-.7-1.85-7.01-24.37-6.37-29.69-5zm-199.93 2.15c0 .39 2.53 4.88 5.05 9.28 14.83 28.65 23.08 39.09 20.44 43.62-2.17 2.73-5.52 6.18-7.5 5.36-3.19-1.32-7.44-10.69-18.05-31.93-10.97-21.94-12.12-23.58-6.48-26.43 2.31-1.07 5.11-1.87 6.54.1zm-14.82 10.11c6.82 11.08 5.92 9.63 5.84 45.69-.04 22.44-2.93 36.76-6.68 42.28-1.97 2.89-5.44 1.19-7.16-4.47-.79-2.58 1.45-6.43 1.87-10.53 2.66-27 .8-53.99.87-79.55 2.06-.21 4.16 4.78 5.26 6.58zm175.84 8.85c3.18 4.53 2.4 8.18 2.38 14.28-.04 8.62.59 9.26 6.54 4.9 5.28-3.86 5.7-4.1 15.11 2.28 5.59 3.79 12.63 4.22 17.19.03 3.21-2.94 4.32-1.62 8.63-.5 4.68 2.61 6.01 3.01 16.06-1.87 6.79-3 7.06-3.43 11.09-1.31 7.1 6.26 8.15 3.99 7.19-4.19.02-2.85.85-8.19 1.69-11.65 3.53-14.55-2.19-14.71-9.75-5.44-2.93 3.59-9.46 5.15-15.63 2.25-8.83-4.15-22.62-2.47-32.82-.76-12.06 2.03-17.64-1.3-22.49-5.43-2.74-2.34-9.02-4.43-9.71-2.64-.7 1.79.72 4.62 4.52 10.05zm-161.75 20.4c1.51-.32 3.83 4.15 7.22 13.63 4.38 12.23-3.27 54.75-7.87 61.72-2.44 3.65-4 5.89-9-.88-1.99-2.97-.44-3.92 1.53-12.28 3-12.72 5.53-33.3 5.69-42.87.04-12.43.72-18.95 2.43-19.32zm15.38 41.25c1.09.08 2.36 2.53 4.09 7.38 2.46 6.66 1.27 19.49-1.97 29.31-1.87 5.72-3.65 11.82-6.84 16.94-1.09 2.87-6.65 1.87-8.19-4.5-.97-4.03 2.38-9.03 4-15.44 1.63-6.44 3.49-14.63 4.41-18.75 1.7-10.06 2.91-15.05 4.5-14.94zm119 18.85c-.14-.02-.26 0-.34.03.02-.04-.07.06-.1.09-.25.26 11.6 13.17 14.78 16.78 1.67 1.41 15.95 18.77 7.06 14.78-22.41-9.28-48.63-4.72-64.78 10.85-2.02 1.95-3.69-.05-9.81-.5-12.54-.94-17.1 4.04-9.47 10.22 1.17.94 3.61 1.37 4.71 2.89 1.01 1.39.71 3.89 1.23 4.58 24.26 32.2 69.17 38.46 97.38 17.43 3.54-2.64 5.53-3.57 8.84-2.59 6.56 1.95 7.14-3.54 1.34-11.22-2.52-3.35-5.64-7.21-3.82-8.32 3.58-3.08 5.35-8.11-.88-10-4.29-1.3-9.1-6.08-11.52-12.74-2.81-7.79-30.44-31.71-34.62-32.28zm-110.1 14.09c5.27-.12 5.52 31.02-.31 40.47-2.99 3.58-9.84-3.08-8.81-9.91.78-5.19 6.38-28.6 7.66-29.81.51-.49 1.02-.74 1.46-.75zm107.47 19.44c4.43-.05 10.48 1.93 15.3 6.28 2.6 2.36 7.16 12.54 5.27 16.53-.53 2.03-6 1.91-6.5.42-3-20.55-19.66-23.53-24.95-4.34 0 0-3.43 2.91-3.87-2.71 1.19-10.89 6.31-16.1 14.75-16.18zm134.16 1.78c5.3-.1 10.34 2.56 12.94 8.22 1.81 3.94 2 7.26 1.29 8.99-.54 1.29-2.33.73-2.33.73-8.45-23.19-19.96-12.46-24.13.36 0 0-4.35 1.34-4.89-.04-.54-1.39-.2-3.99 1.53-7.6 3.3-6.9 9.59-10.55 15.59-10.66zm-113.13 1.44c3-.16 8.13 2.27 11.96 6.13 3.89 3.93 4.28 6.27 1.13 9.18-1.89 1.75-8.61 3.48-9.91.44l-5.66-13.22c-.54-1.25 1.12-2.46 2.48-2.53zm-40.74.62c3.35.01 4.06.77-1.21 13.02-1.12 2.62-14.63-1.19-12.06-6.23 3.87-4.02 9.91-6.79 13.27-6.79zm135.28.97c1.35-.06 2.44.13 2.9.75-1.2.44-6.31 13.35-6.31 13.35-4.82-.59-10.58.09-11.63-3.85-.98-3.72.97-5.99 7.76-8.59 2.05-.75 5.03-1.56 7.28-1.66zm39.52 3.31c5.12 1.88 6.31 6.21 5.66 8.44-.5 1.69-2.92 1.71-4.63.41-1.63-1.89-4.03-5.12-3.84-7.28.53-2.16 1.18-2.18 2.81-1.57zm-254.77 11.93c1.57 2.96 4.41 19.72 1.09 19.29-3.22-.83-4.72-5.89-5.28-10.43-.12-.94 2.75-8.75 4.19-8.86zm56.28 8.95c1.49-.21 5.24 1.1 10.81 4.25 18.34 8.86 37.14 10.11 57.1 5.65 11.52-2.99 14.46-4.74 16.08-2.76 2.77 3.36-1.59 6.71-17.85 12.18-17.84 5.99-36.34 4.98-60.67-12.18-6.54-4.62-7.39-6.87-5.47-7.14zm203.49 4.62c3.02 5.63-7.26 10.98-12.46 12.48-11.07 3.2-27.83 1.71-37.29-3.98-.8-.48-1.56-.99-2.28-1.53-7.7-5.73-4.52-9.82 4.06-5.4 9.22 4.75 27.98 5.62 37.93.83 4.99-2.41 8.42-5.43 10.04-2.4zm-227.71 10.5c-1.02.23.71 2.82 4.28 6.69 25.09 28.16 84.93 43.43 118.58 14.41 10.53-9.88 8.93-14.33-7.69-6.43-18.38 6.04-44.49 6.84-67.08 3.49-11.1-1.5-29.19-5.76-38.37-12.47-5.78-4.23-8.82-5.89-9.72-5.69zm172.97.85c1.53.12 4.21.69 10.04 3.72 8.5 4.42 27.8 2.9 34.12.57 13.31-4.91 16.05 1.33 3.43 8.3-14.05 8.51-33.46 5.18-44.78-5.78-3.51-3.14-5.4-7.05-3.86-7.37.15-.03.83.54 1.05.56zm-166.31 49.8c49.4 4.51 123.96 53.53 153.02 112.42h-16.73c-29.2-46.34-74.14-83.64-127.46-97.56-2.11-1.62-9.96-12.81-8.83-14.86zm219.28 10.79-2.29 16.28c-8.27 6.78-38.62 31.92-61.12 71.29-4.69-.22-6.96-5.87-6.18-9.72 18.02-35.53 39.56-55.15 69.59-77.85zm-199.66 12.74c11.34-.78 85.08 38.82 109.91 88.89h-13.6c-27.93-36.38-58.97-60.11-86.53-69.63-6.7-7.06-14.03-18.95-9.78-19.26zm197.37 11.32-.12 22.01c-17.64 17.17-30.54 34.45-40.63 55.56h-13.7s-3.05-6.04-1.99-9.8c15.57-28.02 30.49-48.42 56.44-67.77zm-112.01 77.57h-13.26c-11.19-15.82-27.81-31.04-43.07-40.1-6.25-7.75-13.26-17.31-10.44-18.86.17-5.72 58.84 33.93 66.77 58.96zm112.3-44.75-.29 12.71c-8.97 11.48-16.49 21.1-23.67 32.04h-11.3c10.3-22.24 36.18-50.77 35.26-44.75zm-152.15 24.63c4.09 1.07 19.03 15.34 18.55 20.12l-6.72-.2c-3.78-4.76-8.25-9.72-10.9-14.59-1.66-3.08-2.73-5.94-.93-5.33zm149.55 3.93c.05-.02.07-.01.1 0 .02.01-.13 16.19-.13 16.19h-11.34c-1.22-.23 5.49-12.23 11.37-16.19z" fill="#131f67" transform="matrix(.154557 0 0 .154557 -140.558 13.851)"/><path d="m1915.75 91.719c-55.58-.008-111.78.309-174.31.969l422.16 598.983.34-133.063-135.47-174.827c30.83-9.508 68.48-16.077 98.12-18.718-38.07-84.403-57.11-163.671-40.34-272.313-59.97-.689-114.92-1.023-170.5-1.031zm163.47 3.812c-3.31 38.354-7.65 81.125-.69 128.625-21.97-8.022-27.12 5.682-30.76 7.124-4.14-9.217-19.45-25.162-36.79-6.421-9.01 9.743-4.63 28.07 16.29 36.335-23.96 1.84-36.41-18.638-40.61-39.757-12.95-8.288-26.57-16.482-27.86-45.546l6.64 1.109c-2.21 20.278 18.86 30.605 31.19 20.927 7.97-6.108 8.83-15.534 5.68-30.177 6.41-1.311 21.41-7.59 17.44-26.859-5.47-26.602-32.8-23.479-45.28-5.985-10.38-12.844-29.4-15.227-37.03 4.719-4.25 11.111 5.43 23.587 16.44 26-24.44 4.686-36.76-29.008-38.13-51.812l-10.13-17.969c66.07-.384 94.96-.307 173.6-.313zm-330.91.657 49.03.031 357.85 463.062.75 115.282zm123.97.031 7.81.094c6.13 40.757 29.57 70.265 69.66 84.625 2.08 33.298 18.14 78.53 79.06 93.812-1.79 37.599 22.36 73.528 48.22 90.75 0-.001-6.98 1.728-12.44 2.25-34.76-27.567-43.33-68.156-46.78-84.906-1.17-2.419-4.49-3.005-7.12-3.594-29.76-10.51-54.8-34.95-65.03-64.781l-6.44-29.281c.01-3.762-.75-1.995-9.6-5.25-22.95-8.449-44.17-33.279-53.68-62.938-5.01-15.593-3.66-20.781-3.66-20.781zm-31.53.094 27.47.031s.16 4.845.56 8c3.7 29.199 29.92 65.843 56.66 78 3.78 1.719 9.05 4.135 10.28 5.281 7.47 47.866 29.17 76.694 74.97 96.438.73.755 2.79 1.235 3.4 2.187 6.25 29.6 19.89 63.914 45.85 82.781l-11.22 1.157zm134.18 50.237c6.21 0 11.25 5.039 11.25 11.25 0 6.21-5.04 11.218-11.25 11.218s-11.25-5.008-11.25-11.218c0-6.211 5.04-11.25 11.25-11.25zm-379.12 61.388c.65 1.624-153.64 132.133-138.62 377.687l-4.47 5 1.22 1.75c-5.1 5.783-10 10.424-15.56 16.063 31.99 20.39 87.76 42.646 87.93 42.062l-10.65 24.688 66.65 21.531-8.93 23.469s-46.38-15.375-65.6-21.782c-9.48 21.023-15.22 43.226-22.12 65.094-.65 1.763-2.17.915-4.54-2.5-34.62-59.05-105.74-101.66-103.34-97.437l-252.19 239.281-1.71 147.876 174.53 179.87s-50.51 24.86-74.41 41.16c18.59 15.17 39.62 26.85 58.09 41.19 38.22 26.95 64.01 66.57 88.79 93.4 116.81-57.91 234.45-54.69 336.06-19.53-11.84 12.46-25.05 23.25-37.25 36.75 29.53 77.49 20.08 231.38 18.59 235.56 61.49-62.8 152.95-197.49 140.75-387.12l25.88-25.94c-.48-1.33-64.73-35.72-91.5-43.21l7.4-23.57-64.12-20.03 7.15-18.72 63.88 18.5c12.09-29.69 24.9-71.28 24.9-71.28 25.51 38.16 53.63 72.87 111.5 108.19l250.76-239.909-1.63-154.25-170.72-170.718 71.06-37.032c-6.82-5.507-16.72-10.732-23.75-16.25-.5-.393 1.41-1.581.91-1.968-1.78-1.372-3.09-2.486-4.91-3.75-.4-.284-1.69 1.564-2.09 1.281-24.11-16.91-48.24-33.55-67.22-53.781-.47-.512.23-2.616-.25-3.125-9.86-10.54-19.68-20.346-29.72-30.719-4.65-4.697-12.34-15.844-12.34-15.844l-.44-3.687-10.78-13.563c-34.72 20.478-182.74 71.876-325.97 14.969l27.22-27.219c-7.25-17.482-11.94-36.991-13.81-52.969-7.49-64.078-4.63-179.468-4.63-179.468zm451.5 36.281c6.56 0 11.88 5.321 11.88 11.875 0 6.553-5.32 11.875-11.88 11.875-6.55 0-11.84-5.322-11.84-11.875 0-6.554 5.29-11.875 11.84-11.875zm37.14 14.125c6.05 29.513 19.34 72.369 32.58 101.257l-15.77 1.749c-12.85-8.345-26.42-20.52-27.85-37.791-34.73.267-44.88-54.208-32.2-47.669-1.62 18.609 11.73 25.943 24.83 24.117 11.28-1.572 21.03-17.145 7.61-34.334 5.96-2.321 8.88-4.074 10.8-7.329zm-492.2 87.281c2.3 37.743 9.71 65.269 16.63 93.781l-68.63 64.75c5.35-59.101 22.71-111.918 52-158.531zm329.13 124.313 8.71 12.5c-99.17 58.236-268.44 62.352-371.56 13.25l13.69-13.032c90.68 40.946 238.31 43.988 349.16-12.718zm-644.1 19.437c-9.99-.123-21.52 3.687-33.75 13-45.49-20.726-75.29 27.724-47.15 59.813-4.17 23.096-7.32 27.398 10.06 50.781-18.47 2.349-41.77-2.48-61.6-5.531 3.35 34.203 52.33 42.165 72.72 38.406 22.02-4.771 42.79 6.122 43.69 6.375 12.94 3.614 20.99 9.844 33.75 12.844 21.05 5.007 51.88-19.663 56.34-43.094.43-3.148 1.4-5.999-.34-6.469-14.39 3.68-30.2 8.868-44.22 11.938-13.73 3.368-24.08 6.691-34.53 14.875l-.87-28.25c71.27 3.391 40.25-64.372 36.21-67.282 13.25-26.736-2.68-57.066-30.31-57.406zm647.81 2.125 15.5 37.281-41.18 13.969-10.53-36.5zm-650.78 1.125c24.23.235 45.89 25.747 22.63 54.313 45.1 39.775-12.7 82.399-40.22 52.812-36.64 33.552-75.56-1.493-55.1-38.031-39.07-34.966 9.12-81.862 42.04-51.656 8.08-12.427 19.64-17.545 30.65-17.438zm281.25 13.656c5.8 0 10.5 4.701 10.5 10.5s-4.7 10.5-10.5 10.5-10.5-4.701-10.5-10.5 4.7-10.5 10.5-10.5zm-268.34.782c-.6.007-1.32.278-2.1.968-1.17.109-3.72 4.489-10.12 11.907-11.12 12.891-12.32 13.013-12.32 13.013-11.85-3.877-19.78-1.783-27.59 3.156 0 0-8.9-1.687-21.18-11.951-5.61-4.684-8.62-5.7-9.6-3.187-1.04 2.676 1.51 5.312 12.25 12.625 14.88 10.119 13.95 9.345 13.95 9.345-.92 8.894.53 16.122 3.89 22.854 0 0-2.62 6.316-13.18 20.145-2.99 3.908-5.43 8.158-5.44 9.437-.02 5.38 4.67 1.764 15.47-11.875 4.23-5.346 10.04-12.999 10.04-12.999 12.67 4.391 17.12 1.72 25.07-1.106 0 0 2.72 2.027 9.64 7.539 12.65 10.085 15.38 11.158 16.94 9.879 2.09-1.724 1.81-2.287-2.97-5.75-14.27-10.331-19.18-16.301-19.18-16.301 2.9-11.301-.27-20.65-3.38-26.546 0 0 .22-1.439 8.28-10.435 5.91-6.606 14.01-17.031 13.5-18.531.13-.933-.65-2.202-1.97-2.187zm292.03 2.281 37.09 11.531-8.18 38.563-39.54-12.75zm268.44 9.469 10.34 37.625-38.59 10.25-6.32-39.938zm27.09.625c5.8 0 10.5 4.701 10.5 10.5 0 5.798-4.7 10.5-10.5 10.5s-10.5-4.702-10.5-10.5c0-5.799 4.7-10.5 10.5-10.5zm87.72 1.343 32.44 28.875-36 18.188-17.35-37.625zm-305.88 8.344 37.69 4.438-1.53 40.5-43.25-5.782zm-130.74.438 41.93 18.406-15.12 42.25-42.94-18.438zm108.09 3.281c15.45 2.419 11.3 20.656 0 21-5.8 0-10.5-4.701-10.5-10.5s4.7-10.5 10.5-10.5zm135.59.031 5.16 40.531-39.13 2.375-.84-41.187zm26.91 4.625c5.8 0 10.5 4.701 10.5 10.5s-4.7 10.5-10.5 10.5-10.5-4.701-10.5-10.5 4.7-10.5 10.5-10.5zm-544.68 3.802c5.98 0 10.84 4.83 10.84 10.812s-4.86 10.844-10.84 10.844-10.82-4.862-10.82-10.844 4.84-10.812 10.82-10.812zm463.3-.396c5.8 0 10.5 4.701 10.5 10.5s-4.7 10.5-10.5 10.5-10.5-4.701-10.5-10.5 4.7-10.5 10.5-10.5zm184.29 2.594 15.24 41.656-42.74 13.781-12.1-42.781zm30 1.125c5.79 0 10.5 4.701 10.5 10.5s-4.71 10.5-10.5 10.5c-5.8 0-10.5-4.701-10.5-10.5s4.7-10.5 10.5-10.5zm73.9 11.812 27.63 19.532-13.69 7.625c-3.59-8.586-9.92-18.767-13.94-27.157zm-394.87 3.782 40.78 8.843-6.22 42.719-44.5-8.875zm-121.29 2.343 21.66 10.188-14.28 35.594-35.03-18.657zm96.82 2.313c5.8 0 10.5 4.701 10.5 10.5s-4.7 10.5-10.5 10.5-10.5-4.701-10.5-10.5 4.7-10.5 10.5-10.5zm235.53 2.344 7.28 42.718-46 6.469-2.84-43.562zm172.22.812c5.8 0 10.5 4.701 10.5 10.5s-4.7 10.5-10.5 10.5-10.5-4.701-10.5-10.5 4.7-10.5 10.5-10.5zm-32.63.313 15.22 37.656-45 18.812-13.31-37.687zm-114.75 2.718c5.8 0 10.5 4.701 10.5 10.5s-4.7 10.5-10.5 10.5-10.5-4.701-10.5-10.5 4.7-10.5 10.5-10.5zm-151.97 4.282 43.07.781-.5 43.187-47.16-1.312zm344.41 3 16.94 11.75c-174.32 112.09-419.19 125.986-610.28 15.656 0 0 7.8-7.782 12.25-12.344 172.26 103.096 423.76 88.628 581.09-15.062zm-367.75 4.875c5.8 0 10.5 4.701 10.5 10.5s-4.7 10.5-10.5 10.5-10.5-4.701-10.5-10.5 4.7-10.5 10.5-10.5zm88.41 2.375c5.79 0 10.5 4.701 10.5 10.5s-4.71 10.5-10.5 10.5c-5.8 0-10.5-4.701-10.5-10.5s4.7-10.5 10.5-10.5zm-205.1 5.781 44.97 13-7.66 35.5-49.31-14.188zm-29.75.25c5.8 0 10.5 4.701 10.5 10.5s-4.7 10.5-10.5 10.5-10.5-4.701-10.5-10.5 4.7-10.5 10.5-10.5zm349.28 7.562 10.75 39.844-49.71 10.625-6-39.187zm28.57 5.782c5.8 0 10.5 4.701 10.5 10.5s-4.7 10.5-10.5 10.5-10.5-4.701-10.5-10.5 4.7-10.5 10.5-10.5zm-649.53 6.187-.1 27.938c-8.24-6.797-17.56-14.032-27.09-21.344 9.72.516 18.76-2.167 27.19-6.594zm-102.41.688c2.27-.022 7.58 1.832 13.91 1.812 20.24-.064 58.06 6.252 69.24 15.438 3.73 3.05 9.31 5.76 12.35 10.687-.01 2.35-3.33 2.41-8.22-.625-9.37-5.822-24.97-11.012-45.84-13.906-3.78-.523-4.25-.37-4.25 1.406-.01 2.196 3.47 3.477 14.46 5.281 14.23 2.335 17.26 3.731 20.41 4.594 8.45 2.313 3.05 5.404-5.65 6.235-35.49 3.325-62.06-11.947-67.41-29.391-.43-1.145-.03-1.521 1-1.531zm494.47.625 44.65 5.781-2.03 37.375-48.87-5.594zm-379.75 3.25c7.8 6.124 2.43 24.691-1.81 30.156-2.76 3.069-9.2 1.442-9.16-2.875.97-3.877-.4-22.343.44-28.063 3.11-1.77 7.69-1.271 10.53.782zm517.5 1.656 2.31 38.531-48.72 2.219.38-37.844zm-164.38 2.594c5.8 0 10.5 4.701 10.5 10.5s-4.7 10.5-10.5 10.5-10.5-4.701-10.5-10.5 4.7-10.5 10.5-10.5zm-271.47.531c1.8 28.275-41.63 47.461-57.87 38.781-7.19-3.843-4.2-6.212 10.06-9.093 18.46-4.887 30.61-9.646 30.63-13.094.01-2.116-2.79-1.861-10.32.937-11.58 3.891-23.62 5.564-34.68 10.532-8.27 3.753-11.49 5.069-13.35 2.812-3.89-4.731 14.48-16.67 33.53-19.844 14.3-2.381 28.71-10.002 42-11.031zm462.72 3.531c5.8 0 10.5 4.701 10.5 10.5s-4.7 10.5-10.5 10.5-10.5-4.701-10.5-10.5 4.7-10.5 10.5-10.5zm-97.65 7.688c5.8 0 10.5 4.701 10.5 10.5s-4.7 10.5-10.5 10.5-10.5-4.701-10.5-10.5 4.7-10.5 10.5-10.5zm233.97 17.844c70.27 66.913 147.3 143.947 210.84 207.312-.09 33.155-.28 99.469-.28 99.469l-242.63 230.596c-43.93-26.82-81.13-60.35-115.37-119.91 3.86-3.33 7.26-5.45 10.18-9.09l-12.65 7.56c-44.76-71.582-63.74-214.201 12.28-328.531l-76.81 2.812 12.53-26.156 83.62-4.562 33.82-36.282s10.71-1.982 19.59-4.031c8.81-2.033 26.79-7.176 39.97-11.437 13.18-4.262 24.4-7.752 24.91-7.75zm-567.22 18.531s72.21 39.247 112.31 117.844c-129.62 111.495-178.48 241.332-189.5 376.472-70.55-65.99-106.2-102.49-169.94-166.566l2.31-95.625zm272.62 12.469c-18.68 39.944-34.76 83.704-49.16 130.593l-20.09-5.937s13-5.435 18.78-8.875l-10.43-16.813 19.78-8.125-11.69-14.25 20.06-11.625-10.03-12.593 18.38-9.188-11.41-13.125 19.28-10.75-10.06-12.562zm6.16.093s2.59.493 5.62 1.094c.73-.28-3.62 10.467-3.15 10.844 7.01 1.444 7.42 1.054 9.53 1.687l5.34-11.062 8.78 1.656c-17.71 39.977-36.65 83.716-47.53 131.062l-10.34-2.156s3.02-9.983 3.03-11.312c-1.22-.257-7.04-2.709-8.84-3.438-.63 1.562-4.32 13.125-4.32 13.125l-8.18-.219c13.4-51.695 36.76-109.02 50.06-131.281zm33.65 1.531 18.35 15.188-20.82 8.094 10.79 14.343-22.07 7.969 12.66 14.906-21.84 8.063 13.03 18.031-22.72 7.656 14.34 15.844-20.5 9.594 12.28 12.156s-12.79 4.217-13.53 4.406c-2.05.527-10.65-1.593-10.65-1.593 12.96-46.136 28.97-92.9 50.68-134.657zm-446.28 7.688c-5.06 3.287-2.17 10.446-8.53 16.562-1.01 1.096-1.1 3.614-1.5 5.813-.3 1.668-5.32 21.631-5.32 21.631s1.27-1.525 3.28-7.892c1.71-5.434 3.2-15.747 4.13-17.468 4.69-1.431 5.4-16.709 10.15-14.617 2.74 1.208 2.22 3.705.67 9.565-3.38 11.709-4.71 16.643 1.09 8.656 8.67-10.433 9.52-19.85-.25-21.844-1.03-.197-3.12-.386-3.72-.406zm131.07 4.344-226.72 212.875-.69 79.437 78.91 79.969 56 54.28c20.32-121.567 66.96-237.542 181.78-337.905-17.6-28.288-47.74-63.923-89.28-88.656zm611.12 2.187c-133.21 62.608-163.85 191.012-122.59 307.254 63.48-81.649 113.3-158.355 122.59-307.254zm-474.12 6.5 60.5 19.469-22.79 77.688-54.47-16.532-5.56-13.75zm467.43 2.032c-5.79 103.888-44.96 205.352-113.12 284.968-34.47-85.024-13.74-220.961 113.12-284.968zm-325.84.562-3.81 9.656 8.37 2.375 3.56-9.812zm-8.38 22.813-3.43 9.812 8.59 2.906 3.22-9.968zm356.88 1.781c-18.65 144.104-96.5 275.236-178.75 342.066 26.21 42.51 57.03 69.86 88.34 92.68l231.69-221.934-.91-74.031zm-612.25 38.25c-1.42 5.268-1.93 7.947-1.93 7.947s2.67-2.466 9.71-6.319c45.53-22.706 30.84 11.823 9.39 24.593-4.79 2.553-9.72 5.585-9.72 5.585s4.55 1.031 9.49 1.947c27.63 5.741 21.74 21.9-7.07 19.385-4.26-.372-9.26-1.178-9.27-.94 0 .239 1.73 6.307 3.72 11.331 9.72 24.466-8.4 26.369-20.32 10.814-1.66-2.165-5.42-8.142-5.42-8.142s-1.18 4.521-1.89 8.892c-10.3 38.347-35.7 37.374-26.22-1.531 1.18-4.021 2.63-11.216 2.63-11.216s-5.71 3.451-11.93 6.227c-32.9 14.69-38.24-.428-8.35-22.534 8.5-6.29 11.38-8.76 11.38-8.76-5.29-.405-10.17-1.216-14.48-2.298-23.84-5.984-30.2-20.236 8-19.567 5.65.114 11.39.487 11.39.487s-1.88-8.193-3.87-14.366c-9.22-28.584 9.36-31.985 25.02-6.379 3.34 5.446 4.29 5.481 4.29 5.481-.48.017.99-9.751 4.78-18.785 18.97-35.133 26.4-3.067 20.67 18.148zm409.75-28.438c-15.91 28.116-29.79 56.07-36.41 85.219l-61.9-1.062c4.28-25.846 15.21-52.729 28.28-81.157 25.2-.688 47.93-1.795 70.03-3zm-163.44 12.469-3.56 10.344 8.97 2.75 3.25-10.063zm-462.94 19.406c-6.63 17.234-8.85 36.428-12.53 51.813-1.55 8.917.03 12.631 5.38 14.625 7.6 2.837 18.58-1.029 24.72-9.813 3.46-4.954 5.97-15.184 6.5-33.25l.59-16.093c-9.41-1.749-15.83-4.27-24.66-7.282zm454.57 2.25-2.97 9.5 8.65 3.219 3.32-9.594zm400.93 3.563c10.54.259 12.49 1.203 22.03 6.844l18.41 18.937c-4.82 4.62-7.84 11.109-7.84 18.313 0 14.009 11.36 25.375 25.37 25.375 6.94 0 17.82-7.313 17.82-7.313l29.17 30.212c-17.01 7.449-33.66-9.69-39.92-16.471-1.47-1.59-1.85-2.682-1.85-2.682s.26.834-.35 4.186c-2.44 13.452-15.71 53.152-28.4 51.036-14.29-2.382.26-59.133.42-57.825-9.83 10.385-57.69 21.441-54.34 9.846 6.66-23.033 42.46-31.91 47.17-35.911-19.03-11.452-43.17-43.21-27.69-44.547zm-853.18.745c6.06.426 10.22 1.158 14.34 2.88 1.92.513 2.01 2.117 2.22 3.625.04 6.802 1.74 26.765-4.56 26.969-7.01-.147-13.58 1.354-18.19 4.875-3.71 2.83-4.94.785-3.94-6.469.97-7.029 4.47-21.801 5.97-27.781.24-2.467 2.2-4.21 4.16-4.099zm189.15.255c-14.01 0-25.37 11.365-25.37 25.375 0 14.009 11.36 25.375 25.37 25.375s25.38-11.366 25.38-25.375c0-14.01-11.37-25.375-25.38-25.375zm0 8.875c9.11 0 16.5 7.393 16.5 16.5 0 9.106-7.39 16.469-16.5 16.469-9.1 0-16.5-7.363-16.5-16.469 0-9.107 7.4-16.5 16.5-16.5zm130.93.308c58.16 100.396 51.42 238.193-17.15 338.443l73.72-5.16-9.68 18.88-78.6 7.65c-12.01 11-22.94 23.56-34.75 35.32l-.12 4.15c-26.95 6.26-53.91 13.46-81.38 23.36-14.5-14.24-41.76-42.69-41.58-43.41l1.75-9.21c186.91-95.36 132.23-286.611 119.07-302.337 20.06-24.075 43.99-46.732 68.72-67.686zm518.76 18.254c7.57 0 13.69 6.148 13.69 13.719s-6.12 13.719-13.69 13.719-13.72-6.148-13.72-13.719 6.15-13.719 13.72-13.719zm60.94 3.688 22.97 23.656c-2.98 2.942-7.08 4.781-11.6 4.781-9.1 0-16.5-7.362-16.5-16.468 0-4.698 1.97-8.963 5.13-11.969zm-788.91 2.937c7.57 0 13.69 6.117 13.69 13.688 0 7.57-6.12 13.719-13.69 13.719s-13.72-6.149-13.72-13.719c0-7.571 6.15-13.688 13.72-13.688zm-102 5.75c6.42 2.147 4.92 8.145-3.37 13.422-5.37 3.415-10.28 4.168-15 1.641-8.95-4.789 9.61-18.189 18.37-15.063zm105.97 33.563-82.59 79.906c5.19-13.277 5.39-26.518 5.78-39.781 24.85 2.561 35.26-10.047 31.62-36 16.06.958 32.69-.735 45.19-4.125zm132.34 9.125c38.3 109.198 5.04 224.766-114.75 291.686 4.94-104.64 48.85-204.678 114.75-291.686zm109.1 9.562c65.73 17.206 140.56 25.226 218.25 25.282.58 29.56 2 60.823 8.06 91-66.18-17.312-140.1-25.359-220.84-23.938 3.35-31.244-2.02-66.684-5.47-92.344zm487.43 16.157-70 81.843 2.94-44.687c23.58 3.002 31.98-9.434 28.5-34 12.86 1.591 25.71-.661 38.56-3.156zm-680.18 4.531-5.53 32.687c-13.97.379-27.69 5.339-27.5 36.532l-41.75-.5zm770.37 6.031c7.57 0 13.69 6.148 13.69 13.719 0 7.57-6.12 13.719-13.69 13.719s-13.72-6.149-13.72-13.719c0-7.571 6.15-13.719 13.72-13.719zm-833.87 4.156c7.57 0 13.72 6.148 13.72 13.719s-6.15 13.688-13.72 13.688-13.72-6.117-13.72-13.688 6.15-13.719 13.72-13.719zm803.28 14.063-7.31 49.5c-19.07-1.677-34.99 1.263-30.1 34.812-16.14-1.577-38.54 2.234-53.56 3.534zm-68.34 8.969c7.57 0 13.71 6.148 13.71 13.718 0 7.571-6.14 13.688-13.71 13.688-7.58 0-13.72-6.117-13.72-13.688 0-7.57 6.14-13.718 13.72-13.718zm-835.44 10.625c7.57 0 13.72 6.148 13.72 13.718 0 7.571-6.15 13.688-13.72 13.688s-13.69-6.117-13.69-13.688c0-7.57 6.12-13.718 13.69-13.718zm45.47 16.218c17.51 3.93 9.41 44.745 5.47 55.844-.3.3 48.85-25.75 51.78-14.25 1.92 23.05-40.69 39.12-40.69 39.12s28.72 24.95 29.53 40.63c.07 10.14-12.01 8.26-27.69-4.59-6.7-6.59-11.89-11.52-16.5-16.1 5.39-4.65 8.78-11.54 8.78-19.22 0-14.01-11.36-25.37-25.37-25.37-7.74 0-14.66 3.47-19.31 8.94-3.64-3.51-7.76-7.59-13.29-12.82-9.05-8.466-15.41-15.197-14.5-18.246 11.96-8.414 35.73 14.192 37.85 16.246-1.78-4.403 11.36-47.84 23.94-50.184zm-23.94 50.184c.09.24.22.38.41.38 0 0-.31-.28-.41-.38zm746.44-18.309c8.33-.115 7.81 18.839 4.84 28.689-2.03 7.51-4.03 13.65-4.03 13.65s7.02-5.48 10.12-6.93c22.67-10.62 31.12 1.4 19.69 15.34-5.49 7.17-12.98 8.76-19.06 14.78 8.66.4 18.61 2.32 26.09 6.72 5.82 3.48 10.39 7.7 10.38 10.31-.03 5.86-14.42 9.02-27.88 7.5-5.72.13-16.5-2.93-16.5-2.93s4.47 7.51 6.1 12c5.02 13.94 3.26 30.27-4 30.25-12.16-3.25-18.09-16.77-22.85-26.47-3.9 10.82-7.68 22.39-16.37 30.43-8.62 7.98-13.04 1.36-12.6-12.15.18-5.37 4.13-21.41 4.13-21.41-51.06 17.24-47.26-6.08-7.42-26.5-24.54-11.7-39.45-22.24 2.29-24.62-1.1-1-8.39-23.36-.59-28.6 7.25-4.862 22.7 11.85 23.44 12.66-.31-1.65 4.07-14.74 11.4-23.781 5.63-6.368 9.8-8.896 12.82-8.938zm-47.07 48.659c.06.05.11.05.13 0 0 0-.12 0-.13 0zm223.51-14.77c-8.89.81-14.42 8.7-18.54 15.58-.83 1.39-2.37 1.89-2.94 3.73-3.69 11.86-6.9 26.07-8.87 43.76 5.63 2.32 18.34 6.22 23.96 4.12 1.58-.66 1.09-4.75 1.62-6.09 8.87-22.32 13.25-39.01 13.25-49.26 0-8.27-2.84-12.35-8.48-11.84zm-913.57-1.01c9.11 0 16.5 7.39 16.5 16.5 0 5.23-2.44 9.89-6.25 12.9-10.63-10.59-16.07-16.15-23.19-23.12 3.03-3.83 7.69-6.28 12.94-6.28zm916.71 7.85c2.23 5.41-4.93 11.29-14.21 11.26-5.51-.03-7.31.75-4.85-4.03 2.92-5.82 14.8-17.59 19.06-7.23zm-124.4-3.82c7.57 0 13.72 6.15 13.72 13.72s-6.15 13.68-13.72 13.68-13.71-6.11-13.71-13.68 6.14-13.72 13.71-13.72zm-723.15.97c7.57 0 13.72 6.11 13.72 13.68s-6.15 13.72-13.72 13.72-13.69-6.15-13.69-13.72 6.12-13.68 13.69-13.68zm648.56 5.56c-14.01 0-25.38 11.36-25.38 25.37s11.37 25.38 25.38 25.38 25.38-11.37 25.38-25.38-11.37-25.37-25.38-25.37zm-339.12 3.4c-6.68 29.24-16.94 57.19-29.91 84.85-24.46 1.47-50.9 2.62-68.35 5.09 29.05-50.87 29.75-62.83 40.5-89.78zm42.03 4.13c6.87.81 14.4 1.85 21.18 3.16-12.48 43.95-28.99 89.07-50.31 132.5l-12.9-2-6.13-7.57 20.5-8.18-15.97-16.32 26.47-8-16.28-16.06 26.15-6.53-14-17 23.47-9.16-14.9-19.25 25-6.87zm297.09 1.34c9.11 0 16.5 7.4 16.5 16.5 0 9.11-7.39 16.47-16.5 16.47s-16.5-7.36-16.5-16.47c0-9.1 7.39-16.5 16.5-16.5zm-271.22 2.5 8.72 1.41-2.69 9.34 9.94 2.13 3.22-10.09s7.99.73 8.84 1.37c-10.41 42.43-47.21 131.22-47.69 130.75l-9.46-1.41 2.5-8.97-8.82-1.24v-.1l-4.25 9.75-9.4-.78c22.79-52 38.3-91.93 49.09-132.16zm463.19 3.38c6.99-.03 6.56 3.57 1.5 16.75-4.76 12.38-6.54 17.34-8.85 18.94-5.51 3.91-17.38.64-16.41-5.06 3.12-18.5 4.23-26.39 9-28.9 4.97-.98 9.82-1.71 14.76-1.73zm-428.13 1.53 22.75 4.41-19.03 11.31 12.1 14.12-23.38 9.97 14.19 14.69-22.56 9.22 13.71 16.16-23.4 9.87 15.94 13.81-26.32 8.32 9.97 15.31-9.9 5.53-12.22-1.91c20.28-47.31 33.31-86.23 48.15-130.81zm55.91 11.31 44.56 12.13 8.91 15.9-20.91 70.6-59.37-17.44zm-88.56 6.81-4.25 11.6 9.81 2.03 3.78-11.94zm-8.63 26.63-4.25 11.59 9.22 1.82 4.35-11.72zm-8.68 23.41-4.35 11.53 8.97 1.84 4.28-11.56zm418.67 21.22c.01 0-4.55 3.29-5.75 4.75 1 2.65 3.87 6.72 3.44 9.38-.39 2.01-2.63 3.63-5.99 7.21-8.39 9.76-11.34 8.7-6.47-1.72 1.6-3.27 2.31-6.31 2.31-6.31-1.94 2.71-3.4 5.93-4.71 8.48-2.77 5.33-5.35 10.37-5.35 10.37 5.34 1.84 8.89 5.82 12.34 8.39 0 0 1.76-4.72 2.97-9.24 1.7-6.3 5.03-8.9 9.13-11.07 2.58-1.36 5.05-3.85 5.05-3.85-4.51-4.6-5.03-11.17-6.97-16.39zm-427.96 2.84-4.59 12.28 8.94 2.19 4.97-12.53zm-504.18 30.87c-.82 48.91.8 81.11-.91 133.85l132.41 171.59-20.66 6.94s-.22 2.38-1.34 2.69c-28.3 7.78-74.19 15.53-74.19 15.53 34.13 77.93 56.27 175.4 41 272.75l342.69-.91zm724.75 82.88-11.82 11.84c-174.27-94.32-414.31-93.95-589.46 20.25l-14.29-10.47c191.18-122.48 426.38-121.71 615.57-21.62zm-718.35-65.72 403.35 579.41-47.38.68-355.62-465.22zm865.6 10.47s-11.65 3.02-21.44 6.16c-28.03 8.97-41.14 25.18-38.56 47.68.76 6.65 2.48 6.56 13.9-.65 26.73-16.87 28.4-17.62 61.69-27.38 2.58-.75 6.31-.19 6.31-.19l-1.47 26.28c-55.49-.2-52.46 43.87-36.5 66.79-5.58 10.59-17.81 47.58 22.44 61.65 20.08 4 41.34-12.31 40.69-13.15 37.03 17.51 80.01-11.85 46.5-62.72 12.6-22.19 3.72-38.65-8.31-52.81 0 0 2.03.17 19.56 3.4 26.59 4.91 36.75 4.03 36.75 4.03.03-23.93-19.79-34.62-61.13-37.87-29.27 4.13-80.43-21.43-80.43-21.22zm-446.5 2.78c2-.01 3.98-.01 5.97.03l-1.94 40.88-45.03 2.06-2.94-40.72c15.51-1.07 29.92-2.2 43.94-2.25zm53.97 1 48.31 5.88-7.31 38.21-44.5-4.78zm390.84.44c4.96-.11 3.88 5.04-1.94 6.18-8.68 1.71-30.96 14.67-30.97 18.04-.01 2.17 1.1 1.85 9.25-2.5 4.08-2.18 12.58-5.89 18.88-8.28 6.29-2.4 13.49-5.28 16-6.41 7.48-3.38 11.2-1.04 8.5 5.34-1.79 4.23-2.49 4.56-19.85 10.07-15.7 4.98-18.58 6.27-28.56 12.65-3.72 2.38-10.31 6.19-14.65 8.44-10.26 5.31-12.34 5.33-12.32-1.81-.56-21.18 22.86-37.06 54.6-41.63.38-.05.73-.08 1.06-.09zm-417.13 4.97c6.04 0 10.94 4.89 10.94 10.93s-4.9 10.94-10.94 10.94-10.93-4.9-10.93-10.94 4.89-10.93 10.93-10.93zm-119.53 2.9 3.6 37.1-44.28 11.37-10.13-38.31c16.94-4.15 33.87-7.07 50.81-10.16zm570.44 2.81c12.14 1.85 11.17 29.65 4.97 34.47-9.56 6.88-15.42-7.5-11.16-26.59 1.2-5.74 3.42-7.74 6.19-7.88zm-545.31 1.5c6.04 0 10.93 4.9 10.93 10.94 0 6.05-4.89 10.94-10.93 10.94s-10.94-4.89-10.94-10.94c0-6.04 4.9-10.94 10.94-10.94zm216.31 3.19 50.06 13.66-12.25 38.75-46.97-13.22zm-27.25.75c6.04 0 10.94 4.9 10.94 10.94s-4.9 10.94-10.94 10.94-10.94-4.9-10.94-10.94 4.9-10.94 10.94-10.94zm409.53 3.25c21.57.23 50.01 11.05 50.06 27.72-.43 4.74-45.18-1.55-65.84-9.87-7.33-2.96-16.26-11.94-16.25-15.69.01-2.23 4.37-2.07 6.16.09 2.9 3.54 13.21 7.23 36.87 13.19 18.18 4.58 19.99 4.76 20 2 .01-2.51-10.73-5.97-22.37-7.91-5.86-.95-11.32-2.72-20.32-3.5-4.19-.01-5.21-2.64-1.71-4.43 3.81-1.14 8.42-1.65 13.4-1.6zm-38.09 8.63c5.44 2.55 7.4 7.63 10.4 10.31-3.73 1.77-5.39 3.55-11.43 4 .11-3.99-.98-8.75 1.03-14.31zm-655.6 3c6.04 0 10.94 4.9 10.94 10.94s-4.9 10.93-10.94 10.93-10.93-4.89-10.93-10.93 4.89-10.94 10.93-10.94zm-29.43 3.09 11.81 37.88-42.31 18.4-15-37.53c14.62-7.69 30.62-13.27 45.5-18.75zm195.65 6.19s33.71.05 45.35.19l-2.72 42.75-42.06.31zm-45.03 2.34 2.34 42.69-40.5 5.44-8-42.94zm256.06.38c6.04 0 10.94 4.9 10.94 10.94s-4.9 10.93-10.94 10.93-10.93-4.89-10.93-10.93 4.89-10.94 10.93-10.94zm293.04 1c24.65.1 48.17 28.47 23.81 58.18 39.96 30.75-3.49 82.44-38.81 52.32-50.52 49.61-78.75-17.76-57.85-35.63-30.87-50.73 7.06-82.78 46.19-60.4 7.2-10.23 17.01-14.51 26.66-14.47zm-412.79 1.22 44.44 9.87-8.94 42.22-43.4-8.81zm147.07 1.03 40.62 20.19-31.5 30.31-23.4-11.66zm-260.47 4.78c6.04 0 10.93 4.9 10.93 10.94s-4.89 10.93-10.93 10.93-10.94-4.89-10.94-10.93 4.9-10.94 10.94-10.94zm87.78 1.37c6.04 0 10.94 4.9 10.94 10.94s-4.9 10.94-10.94 10.94c-16.1-2.52-11.77-21.52 0-21.88zm-202.35 6.16 9.91 42.22-41.15 13.9-14.72-41.12zm28.29 3c6.04 0 10.93 4.9 10.93 10.94s-4.89 10.94-10.93 10.94-10.94-4.9-10.94-10.94 4.9-10.94 10.94-10.94zm609.21 19.47c-3.09 3.85-7.16 8.38-7.16 8.38-10.24-4.22-20.16-2.54-26.8 2.02 0 0-7.06-5.63-13.5-10.84-11.17-9.02-14.9-11.09-14.91-7.31 0 .78 3.79 4.64 8.41 8.59 12.59 10.78 15.17 14.66 15.17 14.66-3.03 9.78-3 17.44 2.78 25.66 0 0 .24 1.07-4.18 5.74-8.02 8.46-16.3 21.53-14.39 23.45 2.36 2.39 9.07-3.33 17.48-14.7 6-8.1 7.8-8.28 7.8-8.28 10.23 2.76 15.9 5.26 26.12-3.18 0 0 3.86 1.17 11.57 7.53 12.01 9.91 16.32 12.04 17.62 8.68 1.07-2.74-.51-4.57-10.68-12.31-6.63-5.04-13.99-10.94-13.99-10.94 2.16-3.55 3.7-16.17-3.71-24.81 0 0 .29.57 11.24-13.62 7.29-9.44 8.55-10.64 6.13-12.66-3.21-4.21-13.91 12.59-15 13.94zm-317.4-12.09 40.09 16.84-14.34 41.9-38.72-15.81zm-441.16 2.81c6.04 0 10.94 4.9 10.94 10.93 0 6.05-4.9 10.94-10.94 10.94s-10.94-4.89-10.94-10.94c0-6.03 4.9-10.93 10.94-10.93zm410.16 1.12c6.04 0 10.94 4.9 10.94 10.94s-4.9 10.94-10.94 10.94-10.94-4.9-10.94-10.94 4.9-10.94 10.94-10.94zm-438.16 3 13.13 32.5-29.85-22.25zm329.03 8.38 39.94 4.72-6.31 38.06-34.44-3.13zm-43.59.09-.41 39.13-37.93 1.62-3.22-39.06zm-195.19 7.13c6.04 0 10.94 4.89 10.94 10.93s-4.9 10.94-10.94 10.94-10.93-4.9-10.93-10.94 4.89-10.93 10.93-10.93zm-30.25.78 15.44 39.31-23.94 11.56-32.09-30.37zm142.78.5 6.19 37.4-39.56 9.79-9.59-38.07zm565.47.37c8.61 0 15.6 6.99 15.6 15.6s-6.99 15.59-15.6 15.59-15.59-6.98-15.59-15.59 6.98-15.6 15.59-15.6zm-462.9 1.19c6.04 0 10.93 4.9 10.93 10.94s-4.89 10.93-10.93 10.93-10.94-4.89-10.94-10.93 4.9-10.94 10.94-10.94zm107.75 4.03 42.18 13.66-14.18 33.78-36.44-9.88zm-186.97 1.41c6.04 0 10.93 4.9 10.93 10.93 0 6.05-4.89 10.94-10.93 10.94s-10.94-4.89-10.94-10.94c0-6.03 4.9-10.93 10.94-10.93zm160.4 4.03c6.04 0 10.94 4.9 10.94 10.94s-4.9 10.93-10.94 10.93-10.93-4.89-10.93-10.93 4.89-10.94 10.93-10.94zm-267.87 12.81 14.53 33.44-39.69 17.15-17.28-34.09zm28.12 2c6.04 0 10.94 4.9 10.94 10.94s-4.9 10.94-10.94 10.94-10.93-4.9-10.93-10.94 4.89-10.94 10.93-10.94zm146.22 10.09c65.16-.13 123.97 13.49 171.19 33.04l-14.06 13.18c-153.15-52.62-253.3-28.91-356 16.13l-10.38-12.81c72.6-35.51 144.1-49.4 209.25-49.54zm173.25.41c6.04 0 10.94 4.9 10.94 10.94s-4.9 10.94-10.94 10.94-10.93-4.9-10.93-10.94 4.89-10.94 10.93-10.94zm-399.09 24c8.79.52 9.63 16.92 5.53 12.19l-9.78-11.31c1.59-.68 2.99-.95 4.25-.88zm409.4 6.78c-.32 12.44-12.1 95.77-51.84 153.07-2.41-28.98-9.4-63.63-17.22-86.76 0 0 42.77-39.51 69.06-66.31zm-508.4 126.28 206.81 278.88-21.72-.16c-4.54-20.47-11.1-41.43-24-57.09-10.47-12.72-19.84-22.3-38.62-30.84-11.3-5.14-12.76-4.05-13.47-12.72-3.41-48.78-42.91-79.45-73.16-91.13-2.92-29.48-16.23-58.48-49.59-82.91zm-20.14 6.68c18.9 12.99 39.61 24.25 50.77 75.45.83 10.71 1.49 9.57 9.9 12.72 32.96 9.66 61.63 49.27 64.19 83.9-.03 10.45 3.38 11.38 16.25 16.78 15.8 6.64 32.21 20.69 41.5 34.5 13.81 19.88 18.69 49.97 17.5 48.54l-11.38.06c-8.11-51.02-40.21-71.37-74.16-80.9 2.64-72.02-53.36-94.5-72.92-97.88 1.15-51.88-32.41-73.28-54.07-90.69 4.04-1.59 12.42-2.48 12.42-2.48zm-33.45 7.16c16.91 5.52 29.73 29.1 28.43 39.95 22.32 2.81 45.76 24.38 40.61 46.84-1.65.95-4.25 1.15-6.83-1.43 5.98-43.59-59.09-22.01-33.09 9.52l-11.63 7.6c-9.34-43.62-20.86-68.33-33.35-99.84 4.56-1.21 15.86-2.64 15.86-2.64zm53.87 91.38c5.78 0 10.44 4.69 10.44 10.47s-4.66 10.47-10.44 10.47-10.47-4.69-10.47-10.47 4.69-10.47 10.47-10.47zm55.86 47.05c24.84 7.03 32.89 32.18 32.07 41.33l-5.43-.12c-8.74-39.85-54.15-18.18-35.2 13.6-24.27 8.97-22.36 31.39-15.21 40.24 9.87 12.23 35.02 11.85 42.69-6.97 23.6 30.53 56.17-3.73 27.44-32.19 23.53 8.67 27.3 40.19 23.77 50.04 10.92 3.73 23.5 21.06 21.82 20.96l-176.31.03s8.54-71.14-.53-124.84c11.73 2.82 19.6 5.66 33.09-10.19 21.84 18.09 37.54 4.44 36.41-11.19-1.68-10.92-7.33-16.35-16.69-22.12 19.12-4.7 33.57 28.37 32.08 41.42zm19.67 50.12c5.96 0 10.78 4.83 10.78 10.78 0 5.96-4.82 10.79-10.78 10.79-5.95 0-10.78-4.83-10.78-10.79 0-5.95 4.83-10.78 10.78-10.78z" transform="matrix(.154557 0 0 .154557 -140.558 13.851)"/></g></svg>