<svg clip-rule="evenodd" fill-rule="evenodd" viewBox="0 0 228 316" xmlns="http://www.w3.org/2000/svg"><path d="m2690.2 494.567c0-5.867-4.77-10.63-10.63-10.63h-201.97c-5.87 0-10.63 4.763-10.63 10.63v290.551c0 5.867 4.76 10.63 10.63 10.63h201.97c5.86 0 10.63-4.763 10.63-10.63z" fill="#fff" stroke="#bfbfbf" transform="translate(-2464.908 -481.882)"/><g fill-rule="nonzero"><path d="m3628.41-18.625-1059 .531 6.37 1700.254 1062.78-2.22c-8.22-566.88-9-1132.694-10.15-1698.565zm-124.94 14.312 111.69.563v654.25s-6.96-.201-6.32-4.781c.87-6.133-.07-17.609-4.37-22.438-1.81-2.035-4.77-5.235-5.94-7.562-2.93-5.848-7.76-11.9-11.62-13.531-1.92-.811-4.15-1.265-4.44-2.594-.27-1.235-.9-5.313-1.72-9.063-2.05-9.389-3.88-9.094 2.09-18.437 20.71-32.373 28.67-62.153 26.06-91.68-.82-9.223-3.13-21.171-4.22-22.81-20.01 20.049-34.5 44.826-48.11 63.13-3.03-26.153-2.6-45.892-3.04-66.859 10.69-3.047 17.15-8.733 21.75-23.281 0 0 11.46 8.966 18.47 7.687l-4.62-16.897c30.64-9.401 34.83-49.381-1.36-57.831l3.26-21.053s-10.92 3.655-15.72 6c-2.39 1.007-2.98.209-4.65-3.25-16.88-26.25-43.08-20.662-54.63 5.219l-14.12-6c1.53 7.162 3.35 14.425 2.06 21.594-29.65 13.2-22.32 49.327 1.34 54.062l-2.06 16.875 17.81-5.75c2.6 7.929 1.27 12.513 15.5 21.438-.35 35.368-.92 57.482.19 88.906-18.55-18.998-36.46-32.192-67.84-41.875 0 0-.3 7.617 1.53 19.187.6 3.817.48 3.257-1.32 3.25-4.07-.093-22.46-29.656-22.46-29.656s-2.14.026-4 1.875c-2.19 2.173 2.81 6.187 9.84 16.625 8.23 12.218 7.43 11.702.97 17.188-36.75 31.181-89.83 149.865-80.91 161.406-23.23 1.39-113.78 45.784-130.22 137.312-.97 4.122-2.9 9.469-2.9 9.469l-26.19-6.5c15.8-74.966 51.44-227.406 51.44-227.406s25.06-7.12 39.72-8.688l-.16-5.906-34.5 8.031 1.66-13.062 32.56-6.406-.09-3.094-34.47 4.625 5.62-21.75s-77.38 11.365-105.09 10.531c1.75 84.577-4.92 154.838-1.33 245.987l-37.83-22.924c-3.36-63.46-4.37-223.75-4.37-223.75l-104.46-16.407 3.47 25.18c-86.59-34.319-173.46-65.898-237.42-132.992 39.38-30.219 105.09-60.188 105.09-60.188l-2.15-4.812c-161.59 83.299-221.6 141.17-302.78 212.969l-2.19-593.563 441-.219-1.47 108.25s-.57 2.804-1.41 3.782c-5.39 26.223 10.09 72.773 6.97 95.437 1.45 6.995.94 20 .94 20-26.33 36.063-40.28 70.299-52 112.219-4.53 1.799-11.22 5.508-15.94 6.781l-1.34 5.719c10.33-5.675 39.62-14.938 39.62-14.938 130.51 63.62 226.4 48.047 329.04.782-16.37 57.442 19.21 130.484 77.74 145.843 6.7 1.756 18.17 3.253 24.72 1.532 6.56-1.89-14.75-50.645-24.18-52.469-28.28-12.248-39.93-41.027-36.91-74.031l-4.69-7.875c-9.64 40.094 13.56 80.806 45.41 90.75l8.56 18.687c-57.73-17.315-82.31-71.367-63.09-124.812.33-33.352-21.28-48.097-31.19-62.469-50.2-19.151-59.53-65.643-50.75-103.219 23.37 9.94-15.75-33-15.75-33-17.21 37.283-24.4 84.418 14.97 132.188-25.47 33.749-58.32 60.447-95.03 83.25-53.66 28.001-93.92 9.133-119.85-52.875-15.56-37.231-21.14-74.346-21.06-113.219.09-24.067.36-24.797 9.38-20.719 8.47 3.832 26.84 4.376 37.81-1.281 14.95-7.709 14.24-3.017-2.03 13.719-4.43 4.552-9.16 8.659-9.16 9.531-.02 4.941 6.95.778 16.88-9.063 3.62-3.593 6.3-7.052 7.43-7 1.3.06 1.18 4.688-.31 9.688-.57 1.919-2.39 10.031-4.06 18-1.67 7.968-3.95 17.33-5.06 20.812-4.42 13.821-3.22 20.228 10.04 26.612 6.98 3.366 18.94 14.825 18.83 14.825 0 0-2.85-12.565-1.79-16.605 1.27-4.859 7.04-1.424 12.93 1.387 13 6.212 20.57 6.39 27.55.562 9.63-8.041 6.87-26.101-5.03-30.812-8.74-3.456-10.26-.258-1.55 5.821 13.08 9.121-1.66 23.22-12.77 14.479-8.69-6.836-23.78-7.602-25.46-1.908-1.59 5.383-3.24 4.404-9.25.889-9.35-5.463-9.43-6.418-1.6-36.562 14.83-57.078 13.38-78.034-6.28-95.375-14.55-12.836-38.59-18.796-63.53-4.532v-19.437c36.61-14.629 63.24-38.832 84.72-79.344h4.19c21.38 46.297 55.94 79.549 120.96 103.938 25.41 25.083-32.19-72.046-13.81-32.282-34.5-13.361-65.26-39.262-82.19-71.656h9.41c9.91 14.321 30 40.451 65.75 58.5 3.25 2.716 6.38-.094 6.38-.094s-30-46.999-34.91-58.187l299.71-2.121c-9.51 72.994-22.9 152.318 29.81 294.485-24.72-12.98-123.84 14.672-106.39 20.136 8.75-10.108 71.91-25.028 118.65-14-3.87-3.338-71.27-159.741-32.06-299.063zm32.06 299.063c.09.074.17.11.19.031-.06-.014-.13-.017-.19-.031zm-231.56 281.688.28 11.437 2.37-.562-1.37-11.125zm-270.59-580.407h13.15c-2.89 5.942-7.1 10.397-13.53 14.063zm22.62 0h14.16c-11.03 17.553-22.76 28.185-36.91 36.5l.25-13.75c8.18-7.167 15.99-14.579 22.5-22.75zm23.41 0h13.06c-17.73 27.235-35.92 45.519-59.22 57.094v-11.125c14.39-11.19 34.79-27.635 46.16-45.969zm19.93 0h10.57c-18.17 34.598-43.49 58.494-76.66 71.782v-8.313c36.33-19.358 52.22-40.966 66.09-63.469zm28.88 0h12.69c17.4 34.591 53.57 67.314 93.28 81.657l6.06 14.031c-52.35-18.793-87.02-46.211-112.03-95.688zm36.72 0h9.06c9.53 13.278 21.07 24.067 34.56 33.032l8.22 15.906c-18.21-12.249-38.53-27.124-51.84-48.938zm16.53 0 10.12.531 13.41 22.344c-8.93-5.019-15.7-15.223-23.53-22.875zm-11.63 89.813c-13.88-.064-26.51 3.764-35.65 11.219-9.66 7.874-2.56 16.452 11.34 10 23.67-10.991 50.86-6.037 80.22 10.031 24.72 13.528 16.06-.57-7-15.625-15.81-10.456-33.17-15.553-48.91-15.625zm-111.62 17.719c19.91.157 42.72 8.976 43.28 20.656-13.21-11.047-39.75-16.41-65.22-5.063-1.95-.413-2.22-7.34-1.06-9.875 5.48-4.047 13.95-5.79 23-5.718zm120.59 7.531c-12.59-.003-24.11 3.293-29.43 10.375-2.72 3.357-3.44 3.717-6.44 3.219-5.86-.974-5.53 2.412 1.15 11.687 3.25 4.499 2.71 9.618-1.62 15.719-4.98 7.004-4.01 7.271 10.81 14.375 11.33 5.516 20.43 13.34 30.72 19.781 7.35 4.148 8.82.5 2.03-4.969-2.33-1.877-9.23-6.806-15.44-10.843-10.51-6.844-18.23-13.76-9.87-10.688 3.83 1.211 4.82 1.716 9.03 2.438 10.83 2.34 21.53 3.646 30.63 1.812 6.52-1.303 15.01-5.619 22-11.656 1.78-.822 3.54.05 7.87.219 16.56.642 12.9-4.218-10.87-17.188-23.53-12.834-41.99-15.174-57.04-8.125-6.37 2.984-10.01 3.729-9.09 1.844.97-1.966 2.74-4.25 5.59-5.906 24.33-14.555 43.87-2.49 65.32 8.437 9.2 5.483 11.69 6.909 12.78 5.156 1.4-2.245-10.26-10.531-25.91-18.375-9.17-4.755-21.11-7.31-32.22-7.312zm-77.76 16.852c4.12 1.612 2.27 6.317-1.49 4.834-22.46-10.085-26.97-14.999-53.74-5.665-8.85 3.084-12.35.358-1.5-4.296 23.65-9.897 40.82-3.221 56.73 5.127zm-15.39 11.867c-6.09 30.901-36.85 21.374-33.38.156l5.66.031c.44 18.662 19.14 18.536 22.34.187zm178.9.062 8.28 17.719c-18.11 44.617 6.48 104.697 59.97 119.094 0 0 8.63 13.259 6.94 14.937-100.42-22.224-92.69-117.955-75.19-151.75zm-95.12 1.156 2.81.157c8.67 21.537 21.27 9.162 23.72.062l6.41.156c-1.96 22.308-35.8 26.095-32.94-.375zm-77.41.625c4.07-.474 5.45 5.626 4.31 6.75-.31.311-7.74 7.532-8.65 3.282-1.33-6.219 2.65-9.727 4.34-10.032zm-46.84.625c.34.002.69.019 1.06.063 2.52 1.921 3.48 7.665 2.16 10.625-1.5 1.548-7.52-.565-8.69-2.875-1.79-3.376.31-7.847 5.47-7.813zm162.87 2.063c1.99.079 7.44 2.435 6.91 5.062-.14.668-7.73 6.256-9.44 5.344-3.29-1.755 1.26-9.782 1.91-10.281.11-.088.34-.137.62-.125zm-44.37.969c.05-.016.11-.014.12 0 .59.434 5.44 3.452 1.31 9.031-.28.385-5.78-1.572-5.87-2.219-.45-3.245 3.68-6.583 4.44-6.812zm121.69 39.125c-1.23 25.646 5.46 50.544 33.46 66.531l-6.03-11c-7.18-5.72-22.22-22.04-20.34-41.469zm-251.5 45.843 3.15 16.875c-15.41 25.607-27.11 50.773-36.81 80.188l-14.56 5.312c11.56-37.097 22.25-66.49 48.22-102.375zm6.12 26.282 4.12 14.5c-7.56 13.944-15.65 29.697-20.53 48.031l-16.09 5.937c7.24-24.292 17.83-47.89 32.5-68.468zm51.03 6c-.24.002-.47.026-.72.093-.17 2.86-.14 10.76.47 23.781.12 2.47 2.54 1.43 9.38-2.062 5.96-3.045 5.34-3.527 11.12-1.594 16 5.479 23.28 3.101 29.53 1.49 9.54-2.456 13.43-1.461 18.97 1.854 3.05 1.823 7.21 3.169 8.03 3.469 4.39 1.597 2.72-.335-.28-12.188-3.37-13.33-1.92-14.792-7.27-11.32-1.17.762-4.56 2.64-6.41 2.855-4.66.543-12.43-5.164-17.07-3.35-11.23 4.392-11.13 3.236-21.55.681-5.21-1.278-10.2 1.897-14.73 2.79-2.59.324-5.87-6.526-9.47-6.499zm191 6.906c18.97 17.398 38.47 23.352 59.63 29.937-2.55 8.652-7.66 18.381-10.04 29.688-110.09 58.193-220.73 56.365-325.09 3.531l54.16-20.687c29.59 51.242 67.51 64.921 110.15 48.156 47.65-22.166 82.93-53.003 111.19-90.625zm-235.25 10.25 4.69 12.562-6.97 18.938-13.28 5.375c2.54-12.901 7.45-23.502 15.56-36.875zm99.5 14.562c-3.29.159-8.27 2.375-19.62 2.438-6.15.034-10.96-.514-13.35-.031-4.94 1.001.84 3.21 11.91 6.375 11.07 3.15 24.6-1.602 26.28-6.407.41-1.174-1.05-2.575-5.22-2.375zm-91.72 6.188 2.91 6.375-4.97 1.781zm292.72 3.594 8.22 18.718c-14.24 30.818-23.69 115.284 71.38 141.563l4.15 12.094c-64.7 1.263-129.55-80.98-83.75-172.375zm-217.69 6.375c-9.29-.093-19.01 2.214-25.28 7.187-5.66 4.479 1.26 7.303 8.63 3.719 9.54-4.642 25.46-4.259 34.81 1.594 7.15 4.872 10.88 4.015 6.09-3.407-3.75-5.825-13.72-8.989-24.25-9.093zm415.1 21.031c24.85-.41 27.43 35.16 22.59 38.219 1.4-.472 5.65-1.721 11.69-1.563 18.21.476 27.7 10.543 28.75 25.188 1.06 14.754-10.16 22.973-26.5 22.156-6.07-.304-10.25-.918-9.97.156 3.04 11.79-.63 29.562-16.25 34-1.8.51-4.35 3.011-4.41 3.906-1.16 18.701 4.16 82.938 4.16 82.938s29.28-49.219 35.87-56.688c12.9-17.596 15.23-16.024 15.26 13.219-2.14 40.563-8.65 49.867-32.54 83.906-10.22 14.662-34.44 6.964-32.25 16.875.49 2.189 4.42 6.12 8.35 9.844 2.51 2.385 5.12 3.883 11 3.688 10.33-.343 14.35-2.439 8.18 6.539-4.88 7.105-22.05 8.578-23.98 12.273-4.5 8.596-1.42 6.696-9.11 14.25-5.88 6.448-3.84 3.162-1.15 8.469 4.2 6.847 2.45 20.511-1.72 29.719-3.4 7.5-3.03 12.85-3.03 12.85.07.625 9.57-9.802 12.43-21.85 2.39-10.025 5.18-15.05 5.16-9.438-.03 7.081 1.21 16.704 7.59 20.375 5.05 2.904 5.78 5.804 4.94 9.375-.87 3.692 3.08 6.944 6.97 10.031.91.913 3.98 2.114 3.66 4.063-1.04 6.161 1.46 13.406 5.95 14.585 2 .992 14.75-.093 16.86-7.273-.21-2.288-.02-11.705-5.1-12.25-3.58-1.651-3.21-2.637 2.22-5.875 8.13-4.843 14.02-8.319 18.03-9.062 5.38-.729 10.54-6.563 10.54-6.563l1.03 387.189c-48.19 49.32-101.01 98.41-170.66 146.66-40.48-33.74-84.7-67.88-131.66-93.44l-16.21-9.6 5.81-7.43-28.16-37.13 31.69-25.5 8.03 10.16-15 14.56 22.5 24.88 50.56-49.32-33.31-31.87 17.34-32.471 11.1 5.437-8.38 20.594 25.35 16.03 31.71-62.999-40.21-18.312 10.18-42.313 12.41 1.313-4.12 30.469 31.34 6.218 12.75-71.843-46-8.219 3.91-40.969 12.84.156-1.88 22.657 32.5 4.625 6.13-62.625-45.09-7.469 5.81-48.344 10.31 1.469-2 29.812 33.09 5.657c3.64-20.218 6.61-45.607 12-65.438l-42.62-15.875 15.09-40.594 9.6 3.344-8.38 22 31.47 13.375 26.53-52.344-37.06-26.218c8.3-13.777 16.59-26.872 28.47-38.032l7.28 6.344s-2.67 2.409-6.78 8.094c-4.99 6.905-6.56 10.392-5.88 12.187.68 1.775 23.58 18.681 25.31 18.688 2.02.008 9.62-6.915 13.54-11.563 4.19-4.974 6.38-5.454 10.72-2.343.86.619 2.1 1.847 3 2.906 1.04 1.25 1.45 2.298 1.56 3.094.1.781-.12 1.304-.32 1.625.37-.348 1.17-.954 2.88-1.907 3.11-1.735-6.03-9.769-13.5-13.937-22.35-12.543-48.64-36.179-54.72-65.75-2.23-13.279 32.1 2.692 55.75 26.25 3.59 3.564 16.91 16.469 16.91 16.469-1.95-34.181-4.73-68.904-3.22-103.5l-5.22-3.625c-7.31-5.09-10.12-13.441-10.78-21.813-.46-5.772 4.49-8.723-6.81-8.344-23.53.209-37.15-21.94-22.88-40.875 5.1-7.085 26.81-10.546 26.78-10.375-5.54-22.644 11.11-34.794 23.38-35.937zm-8.57 263.344c-.44.421-.25.423 0 0zm31.16-225.125c-.31.103-.66.218-.66.218.23-.009.46-.091.66-.218zm-783.5 73.968c65.72 55.324 107.65 92.552 241.41 134.219l3.31 19.813c-76.91-17.757-160.82-53.703-260.56-143.063zm-19.78 12.782c41.61 38.845 84.27 68.432 127.44 93.25l15.15 9.125-7.81 8 25.41 36.625-32.69 26.656-7.78-7.75 17.06-16.719-24.28-23.875-49.47 50.063 33.91 30.062-19.66 30.219-7.12-3.219 10.43-21.062-31.5-17.188-35.21 64.719 44.84 20.406-10.13 39.719-10.47-.531 3.54-31.125-33.72-5.969-11.35 72.719 43.38 6.812-1.03 41.875-11.56-.187.81-23.657-34.25-1.593-3.06 61.031 42.15 5.469-4.19 49.531-10.37-2.656 1.15-32.157-32.12-3.156-11.06 68.375 43.34 12.375-15.31 42.625-9.41-5.16 6.16-22c-7.9-3.44-30.13-12.684-30.13-12.684l-28.31 53.094 36.72 25-22.59 39.69-8.72-5.85 15.59-23.15-30.5-19.16-17.37 23.72c-7.38-6.41-20.63-15.29-25.69-21.25-5.4-4.92-9.51-5.67-16.47-4.03-5.49 1.29-10.77 2.29-9.56.34.59-.95 11.02-7.96 26.93-18.06 4.46-2.82 7.97-5.29 7.91-7.81-.04-1.89 2.41-4.87 5.63-6.82 3.55-2.14 2.76-4.15 2.18-6.37-3.07-11.94-1.13-30.561 4.88-43.094 4.02-8.389 5.28-9.896 2.66-9.906-7.75.993-17.2 29.06-19 36.97-.61-.63-1.46-8.03-2-10.876-1-5.144-1.72-8.332-5.85-9.313-4.94-1.173-3.37-3.537-3.87-7.25-.82-6.022-3.67-9.837-8.82-11.968-4.95-2.052-5.49-2.878-5.28-7.813-.01-3.877-4.05-10.441-7.06-12.531l-17.19 6.062c-1.35 4.538.45 10.422 3.28 12.563 8.64 8.126-4 8.238-12.65 13.531-2.34 1.514-5.14 4.807-7.03 3.719-5.5-1.8-5.07 14.617-10.47 12.562l1.31-393.843c46.05-47.685 180.25-147.125 180.25-147.125zm696.06 69.656 6.63 7.344c-20.55 23.121-35.45 46.927-51.88 76-14.01 24.803-26.12 59.53-32.47 97.406-4.89 23.184-5.65 46.779-8.68 70.5-3.09 25.524-3.68 59.889-8.57 86.844-9.01 73.917-29.77 113.25-74.9 155.192-19.84 18.43-81.54 53.24-83.22 52.9l-14.63-3.62c126.53-64.77 158.16-109.44 171.85-262.754 2.68-192.351 90.16-266.857 95.87-279.812zm12.44 12.875 6.78 6.531-36.94 52.156 36.41 25.657-14.44 33.718-11.03-4.093 7.84-23-30.62-12.907-24.75 67 43.63 13.75-7.19 43.657-8.81-2.375.03-29.75-32.38-6.594-9.41 74.844 47.69 6.625-3.5 38.625-11.28-.782-.44-23-33.09-1.75-7.56 64.875 46.97 7.969-8.5 46.094-10-2.375 2.25-30.406-31.5-4.157-18.22 62.25 39.56 19.938-19.47 39.911-8.34-5.817 10.78-23.594-30.78-15.188-29.72 51.499 32.25 31.72-31.5 33-7.03-9 16.25-17.5-24.28-24.03-50.5 40.15 25.78 33.97-3.03 4.29-26.63-10.69-12.75-16.85-15.25 6.69-12.03-4.59c74.59-39.11 123.12-84.459 143.16-152.846 11-37.813 14.27-79.073 17.84-120.656 1.85-21.598 3.78-43.288 6.91-64.625 3.67-34.852 9.01-64.101 23.15-97.719 17.16-40.773 38-69.508 63.69-100.625zm-401.38 25.781 51.22 27-.75 17.938-47.34-23.719zm14.41.5 36.5 5 .16 14.719zm-164.53.469 21.31 9.594 18.07 20.843 13.53-8.875 14.68 5.5c-46.4 23.85-87.58 52.39-119.65 101.625-35.74 54.867-39.71 126.701-44.28 196.032-7.63 95.637-24.03 162.812-87.6 240.342l-9.37-5.9 34.31-54.5-38.69-25 17.63-32.22 8.9 3.06-6.9 19.22 32 16.87 24.53-68.685-45.13-14.062 7.57-42.969 11.34 1-3 30.781 32.25 5.094 9.25-72.625-43.47-6.656.97-38.375 10.66 1.031-.07 23.344 34.28 1.843 2.66-66.25-42.62-4.718 5.25-46.782 11.93 1.219-2.75 28.063 32.82 4.687 15.56-60.562-42.63-19.25 23-40.907 10.35 4.75-10.57 22.657 29.57 14.406 31-47.375-32.94-31.625 32.34-33.844 7.94 7.781-17.56 20.188 24.34 22.5 48.19-40.438-23.53-35.375zm306.53 2.25-1.5 16.969-51.34 29.156-.03-16.625zm275.56.594 11.35 7.031-8.22 9.75-9.91-6.25zm-297.15 2.406-30.75 17.75v-17.656zm362.62 16.562c1.61.037 3.08.382 4.22 1.125 3.1 2.019 2.65 6.992-.84 9.438-4.55 3.185-17.02 2.968-18.25-.313-1.78-4.731 7.92-10.409 14.87-10.25zm-490.78 7 44.13 23.813-.16 16.781-42.47-23.344zm143.75.532-2.59 21.875-45.44 24.093-.38-18.968zm-219.94.406 18.1 4.594c-66.99 29.882-133.19 73.225-158.94 148.843-8.04 22.631-13.46 47.817-16.99 80.062-1.66 34.009-6.05 67.478-7.66 95.837-3.27 57.747-22.28 135.955-87.94 219.035l-6.28-4.93c40.28-49.64 61.22-94.65 74.15-142.191 20.5-75.658 10.34-159.154 32.19-235.313 13.33-46.332 41-87.759 82.47-123.593 28.85-22.415 70.9-42.344 70.9-42.344zm30.41 6.344c.2-.01.29-.006.31.062 16.27 54.746 36.35 154.531 36.35 154.531-43.02-20.803-114.63-17-114.63-17s-40.29-51.971-48.09-56.25c32.22-43.46 119.91-81.04 126.06-81.343zm553.88 8.625c9.9-.317 9.19 14.733-3.35 24.968-6.4 5.228-9.37 4.493-14.09.313-1.39-1.867-5.42-3.197-8.38-2.844-7.02-.027 6.86-14.56 19.22-20.562 2.56-1.241 4.76-1.817 6.6-1.875zm-502.91 12.25 39.34 20.187.38 16.625-36.41-19.75zm133.37 2.25-2.12 18.281-40.97 21.312.22-16.843zm383.38 6.812c1.36-.126 2.42.4 3.4 1.5 5.59 6.22-5.02 25.066-17.06 30.719-4.62 2.17-7.46 1.814-11.31-1.5-1.87-1.611-4.63-3.726-6.22-3.563-6.89.709-3.09-7.017 2.47-7.468 1.53-.125 11.18-7.34 18.47-13.407 4.89-4.067 7.98-6.071 10.25-6.281zm-41.63 7.344c8.7-.21 11.86 7.028 1.57 10.187-7.34 2.25-11.43.65-11.41-4.281 1.54-5.065 5.98-5.654 9.84-5.906zm-469.71 9.781 34.9 17.5.16 17.938-32.06-16.719zm124.9 2.469-2.44 16.969-37.59 19.312.09-14.031zm394.03 7.125c2.38.147 3.08 2.797 3.07 7.5-.03 7.788-5.2 14.982-12.94 18.5-5.68 2.575-9.68 2.374-12.5-.656-1.29-1.38-3.08-2.495-4-2.532-12.15-.481-10.19-3.611 1.44-8.468 4.09-1.711 12.13-7.281 15.93-10 4.29-3.061 7.15-4.459 9-4.344zm-44.56 5.531c5.96.023 11.2 4.225 7.91 6.938-2.56 2.109-12.17 3.126-14.07 1.218-3.59-3.625-.39-8.181 6.16-8.156zm-468.59 12.063 29.75 16.031-.16 17.062-28.41-16.062zm114.12 1.312-.69 17.469-34.15 16.844-.22-16.657zm367.5 7.245c5.78.417 5.05 6.01.38 8.724-3.49 2.421-8.01 1.147-9.85-1.688-4.15-7.891 5.29-6.94 9.47-7.036zm11.59 17.928c.96 1.93.43 5.384-1.47 6.477-2.53 1.068-9.1-.047-10.12-1.963-.83-1.573-.64-2.399.97-4 2.69-2.138 8.73-3.727 10.62-.514zm-488.9.327 25.41 13.875-.16 16.75-23.34-13.562zm105.65.438-1.24 16.125-29.57 14.656.41-15.719zm-309.5 10.156c6.34.073 11.23 4.296 7.5 11.5-2.32 4.498-4.08 6.161-14.21 13.312-4.14 2.919-7.73 5.59-8 5.938-.28.347-2.92 2.17-4.66 3.375-9.08 6.287-5.93-6.84 5.41-26.188 3.25-5.545 9.04-7.995 13.96-7.937zm307.26 14.375-2.35 17.75-26.44 13.5v-17.094zm-99.41 1.656 21.37 10.594.32 17.281-19.41-10.187zm256.78 1.344c.69-.028 1.29.207 1.72.812 1.75 2.452 2.03 13.04.31 19.032-2.99 7.048-8.81-10.735-8.16-15.25 1.25-2.045 4.07-4.51 6.13-4.594zm-449.34 3.219c8.64-.16 14.89 5.746 11.97 14.5-3.38 8.45-22.89 13.768-31.69 19.593-5.76 2.856-7.15-.242-5.38-5.218.82-2.302 1.45-4.104-2.93-4.75-10.66-1.571-4.17-6.751 15.37-19.844 4.28-2.869 8.73-4.209 12.66-4.281zm428.68 5.531c3.07-.034 6.85 1.763 10.75 6 6.72 7.288 11.57 22.634 7.91 26.625-2.8-.312-4.2 3.825-4.34 5.5-.43 4.834-9.25-3.991-17.6-17.906-6.72-11.21-3.46-20.145 3.28-20.219zm-360.03 2.594c26.35-.181 76.67 5.265 146.32 48.843 8.88 5.566 17.76 11.701 27.81 16.657 26.42 14.247 48.22 23.905 82.28 30.25l-.97 17.625c-.31 5.561 8.86 37.765 4.66 55.875-6.25-.121 6.03 5.343 6.03 5.343l8 16.375s-41.81-.354-60.81-4.093c-30.62-4.979-86.5-30.931-113.5-51.344-28.06-20.578-70.43-37.684-106.76-44.313l-.5-15.156s-3.6-51.896-6.5-59l-6.68-16.406c1.64.659 8.65-.575 20.62-.656zm219.85 11.375-2.03 17.406-23.19 10.875v-14.906zm115.56.781c6.49.014 16.31 7.608 27.53 22.781 2.53 3.418 4.47 6.384 4.84 8.438.34 1.894-.83 2.982-2.68 2.75-4.42-.8-6.05-2.395-7.28 3.093-.31 1.359.48 3.82-1.04 3.375-7.87-2.31-30.38-25.02-29-32.281 1.04-5.453 3.74-8.165 7.63-8.156zm-206.5 1.156 16.91 9 .74 17.156-15.03-6.468zm-181.69 5.219c5.19-.169 8.41 1.879 10.06 5.906 3.98 9.707-3.06 15.553-23.96 19.938-18.17 4.316-17.79 4.585-15.26-2.157 1.69-4.472-3.92-4.97-7.06-6.156-5.3-2.004-.96-2.625 14.28-10.219 9.58-4.771 16.75-7.144 21.94-7.312zm-60.44 4.594c.52-.045 1.14.443 2.04 1.562 26.4 31.988 19.61 78.607-13.82 101.625-3.79 2.513-3.93.183-3.5-4.812l.66-9.5c.17-1.888 38.4-25.354 10.12-77.563l2.38-7.375c.75-2.349 1.26-3.864 2.12-3.937zm431.41 9.937c10.43.04 39.68 26.583 27.22 27.531-1.46.112-.96 2.011-.97 3.219 0 1.208-.07 3.506-.41 4.375-.9 2.317-4.31 1.86-9.56-1.25-13.31-7.882-16.33-10.394-20.94-14.75-9.06-8.571-6.48-19.168 4.66-19.125zm-103.03 4.563-.19 14.312-20.84 10.094.12-12.938zm-264.16 10.281c14.03-.485 21.92 13.494 7.91 20.844-5.6 2.938-24.05.878-32.63.125-9.68-.851-3.96-3.726-3.43-4.594 1.33-2.188 2.36-2.524-2.69-5.531-4.01-4.221-6.31-5.257 3.72-6.563 4.86-.634 16.68-1.786 20.78-3.125 2.21-.722 4.34-1.087 6.34-1.156zm427.03 3.406c1.04-.046.93 1.668.5 6.125l-.68 9.563c-6.39 1.019-38.13 40.48-12.35 86.375l-2.15 8.156c-1 4.032-1.32 4.621-4.66 2.125-19.33-13.356-25.6-81.349 14.44-109.469 2.6-1.726 4.1-2.839 4.9-2.875zm-75.37 7.969c3.73.067 8.29 1.118 13.53 3.5 12.2 5.549 20.3 10.036 22.19 13 1.16 1.83-.67 3.354-3.13 4.062-2.97.857-3.34 2.104-2.53 5.594-.01 2.028.51 4.27-2.03 4.406-4.7.252-15.21-3.061-25.84-8.781-17.95-9.657-15.52-22.02-2.19-21.781zm-91.19.219v17.406l-17.12-7.906zm-287.06 14.968c1.81.049 4.22.373 7.37.875 3.86.614 9.85 1.21 12.94 1.157 19.52-.339 27.6 13.249 11.5 20.156-4.4 1.889-6.23 1.684-18.28-1.813-5.77-1.674-12.83-3.432-15.72-4.25-5.8-1.646-7.81-3.473-3.97-4.781 3.58-1.218 3.89-3.691 1.66-6.969-.54-3.283.51-4.481 4.5-4.375zm453.53 0c-2.76 26.955-5.02 47.961-9.09 74.344-2.98-1.171-24.04-50.883 9.09-74.344zm-82.12 12.907c6.35.115 17.07 2.56 27.5 6.656 9.11 3.355 10.26 4.251 3.96 6.937-3.8 1.622-3.34 3.076-2.22 5.563 1.74 1.865 5.02 5.596-.15 4.844-6.13.46-22.24-.45-27.16-1.313-14.71-2.581-18.71-15.841-6.65-22 .97-.496 2.6-.726 4.72-.687zm-377.91 6.812c1.36-.003 3.85.729 8.37 2.156 26.42 8.333 37.13 18.428 24.19 28.219-3.75 2.84-9.57 1.634-20.56-4.5-11.24-6.273-16.88-9.71-18.97-11.937-2.08-2.211-.95-4.743 2.25-4.532 4.38.29 3.72-1.909 3.37-5.593-.24-2.581-.4-3.809 1.35-3.813zm71.25 2.438 20.25 4.593-50.56 221.124c-17.26 4.98-27.22 7.13-39.35 13.66l34.97-6.03-3.03 15.81-31.75 5.97-.72 4.72 36.38-6.57s-1.3 15.1-2.57 20.94c34.72-2.79 69-12.44 103.91-12.72 0 0 .85-174.508.72-193.529-.14-20.554.03-45.125.03-45.125l35 19.75 5.78 219.934 109.63 17.82c-.77-3.71-3.75-20.71-3.75-20.71 81.27 23.96 163.68 59.39 236.62 132.6-33.94 18.36-66.02 36.58-99 54.23l-4.78 6.88c83.62-39.07 210.74-120.28 302.53-210.04l2.03 581.57-439.34 1.75s-.02-28.01-.03-54.41l.25-48.62c-1.79-31.19 3.64-65.53-5.91-91.69l-1.87-27.41c27.08-31.49 41.71-71.2 54.62-111.78 0 0 13.03-5.04 19.38-7.28l2.18-7.97c-12.59 6.43-41.5 17.22-41.5 17.22 3.11-2.43-61.46-29.62-101.34-36-65.81-10.53-154.33.32-224.91 35.31-3.45 2.44-4.93 2.38-4.06-.78 16.39-59.59-18.13-119.41-78.72-136.75-12.85-3.68-23.37-3.66-23.37-3.66l1.09 5.22c99.01 11.16 122.23 115.78 84.12 164.38-9.99 16.03-11.52 20.71 9.46 20.18 84.77-.69 114.24 94.03 75.61 146.44.09-.41 3.12 6.1 3.12 6.1 24.1-31.8 30.51-92.23-12.18-134.69 31.56-35.19 92.15-91.51 144.56-88.22 19.07 1.2 37.9 24.29 50.44 42.72 26.54 39.03 33.37 93.52 35.25 124.59.46 8.15 1.54 14.06 1.56 18.35.04 12.44-2.34 10.95-10.38 8.87-10.08-2.6-23.93-2.71-34.15.41-16.43 5.01-13.78 2.15.84-15.97 8.63-10.69 9.79-13.99 6.22-14.69-1.09-.21-4.75 3.45-9.53 10.81-14.43 22.2-13.3 13.09-2.88-21.53 6.78-22.5 6.1-24.07-12.37-38.06-6.11-4.63-13.62-9.12-14.28-10.53-3.48-7.38-4.93 1.88-1.82 7.97 3.05 5.95-3.4 8.66-14.74 2.53-26.7-14.79-44.08 15.15-20.26 28.12 5.62 3.06 8.76.55 4.41-3.46-14.66-13.56-4.46-24.98 15.38-12.97 11.46 6.94 15.82 4.72 19.65-3.97 2.13-3.54 19.93 9.21 19.91 14.16-.01 3.24-2.08 13.63-4.09 20.59-5.71 19.64-7.26 25.74-9.72 38.47-4.48 23.09-4.36 34.91.43 45.06 10.75 22.74 37.79 33.46 61.25 24.31 3.41-1.33 9.94-2.43 9.94-2.43l.28 16.68c-46.25 17.52-79.67 72.2-78.15 74.06l-16.5.04c-21.9-43.48-60.44-76.22-109.41-94.32 0 0-5.89-9.8-.62 8.1.32 7.18 7.88 17.31 14 20.84 23.26 11.83 54.04 32.79 71.03 65.34l-11.69.19c-14.25-21.72-32.71-36.39-50.22-49.19-4.12-.86 3 39.4 19.81 51.82l-301.56 5.25c20.58-80.52 24.53-169.86-23.69-286.97 39.98 2.45 75.45-6.13 107.94-20.31l-2.94-8.35c-37.02 17.68-77.65 21.16-118.31 17 30.85 57.11 57.84 176.78 31.56 291.88l-110.69.59-1.53-627.44s4.33 3.95 5.69 5.32c3.48 3.48 5.83 8.69 6.81 12.47 1.27 4.82 2.61 5.11 9.5 10.28 3.31 2.47 5.23 4.65 5.22 5.93-.19 1.43-.23 5.83 2 8.53 6.08 7.35 5 12.07.44 16.82-21.22 22.07-34.51 68.46-23.78 117.4 25.17-16.94 51.08-61.24 51.91-61.31l2.43 60.5c-2.23-.5-17.59 8.6-17.78 20.5-6.96 2.07-15.45-1.39-22.5-3.47l5.09 17.82c-25.83 10.3-27.22 45.64 2.71 55.73 0 0-2.73 13.81-5.08 21.23l19.44-2.96c11.29 33.72 54.64 22.92 54.43-.6 0 0 13.19 4.95 18.19 7.16l-4.87-22.99c49.29-24.59 12.42-56.79 1.16-56.33.15-6.42 3.1-8.45 5.81-15.93l-19.91 1.25c-3.65-11.87-17.03-21.59-17.53-20.28l-2.75-86.6c15.05 13.13 29.86 26.59 49.81 37.03 18.42 9.64 20.29 7.49 17.56-9.15-1.23-7.51-1.12-12.44-1.12-12.44 6.91 1.62 24.34 24.27 23.5 35.44 6.36 8.3 12.14-14.04-4.28-33.06 43.71-45.78 77.02-121.64 84.12-173.349l58.13-23.125.65-7.562c39.6-26.496 60.26-63.35 71.13-105.032zm48.37 13.531 13.38 5.969-15.19 7.531zm-128.87 3.656c2.58 1.187 6.48 3.754 11.84 7.688 11.37 8.336 18 14.072 18.22 19.125.11 2.496-1.72 5.728-4.59 7.25-6.87 3.64-13.44.66-28.28-14.532-4.8-4.909-8.01-7.537-9.47-9.718-1.71-2.544-.45-4.942 2.37-3.907 12.05 5.44 1.62-9.667 9.91-5.906zm409.59 3.125c2.48.011 4.43.067 5.66.313 3.22.646 4.15 2.472 2.15 4.25-3.08 2.754-2.21 5.543.91 7.031 2.14 1.021 1.27 3.176-1.31 4.656-1.51.864-3.82 1.796-6.97 2.781-18.25 5.706-31.7 4.003-35.22-4.5-4.04-9.771 3.69-14.517 26-14.5 3.31.003 6.31-.042 8.78-.031zm-265.72 5.813-.15 13.093-18.94 9.094 2.06-13.281zm-160.97 4.093c1.67.1 4.39 2.652 8.35 7.5 18.27 22.374 20.73 26.689 14.75 32.625-7.09 7.036-17.04.234-27.75-19.375-1.44-2.636-3.2-6.021-4.25-7.25-3.93-4.599-2.2-6.04 2.78-5.656 2.73.21 4.02-.752 4.09-3.562.08-2.967.74-4.359 2.03-4.282zm437.76 11.313c3.32 0 3.07 1.134 1.59 5-1.14 3.425-3.01 4.531 1.81 6.687.8.389 2.58 2.583.97 3.532-3.81 2.575-20.84 10.33-27 12.375-11.97 3.973-19.34-5.781-12.31-15.469 2.94-4.06 23.19-11.411 33.28-12.063.63-.04 1.18-.062 1.66-.062zm-447.32 12.969c12.14 18.101 13.66 26.562 5.66 31.843-5.06 3.852-15.85-1.682-18.31-13.375-1.89-8.953-2.75-18.313.16-25.746 4.42-11.258 11.24 5.405 12.49 7.278zm170.44-7.5.09 14.156-23.03 11.562 2.13-15.593zm46.94.562 21.65 14.031 1.25 12.063-22.37-12.313zm241.59 13.938c.57.009.88.266.88.937-.01 1.665-.43 7.587 2.81 8.125 6.37 1.057 4.92 3.043-.66 7.844-6.04 5.346-11.56 11.693-18.84 15.594-18.78 6.942-24.68-12.904-6.91-23.219 6.14-3.562 11.7-6.018 15.85-7.188 3.12-.879 5.62-2.112 6.87-2.093zm-241 7.281 25.09 14.781.88 14.875-24.94-12.687zm-48.41 1.375.1 12.937-24.5 14.032 2.03-14.469zm101.41 10.562c6.94 3.236 95.99 27.974 125.47 19.532 0 0 25.24 36.376 43.91 49.406-28.91 42.411-126.79 84.001-126.79 84.001zm200.44.907c1.62-.057 2.01 1.555 2 4.593-.4 8.8-14.86 41.198-26.38 24.594-3.16-6.182.06-12.584 10.16-20.219 8.01-6.054 12.14-8.896 14.22-8.968zm-484.84 5.109c2.2 2.394 1.21 9.769-3.53 9.281-1.37-.141-1.55-7.628-.65-11.687 1.36-.666 3.42 1.615 4.18 2.406zm183.31 4.109-.16 16.438-29.06 15.812 3.12-18.281zm48.06 2.313 28.78 15.344 3.38 18.156-31.91-16.531zm-48.12 22.344v16.562l-32.66 16.75 2.22-16.344zm48.68 1.437 32.19 18.313 4.22 17.25-35.94-18.563zm-456.25.531c5.28-.071 7.18 5.547 3.19 9.125-2.63 2.448-10.09 1.952-10.75 0-3.37-3.251 1.25-9.04 7.56-9.125zm9.85 17.532c.78-.054 1.51-.007 2.15.156 3.81.97 6.17 6.463 3.85 9.594-4.3 5.78-15.63 1.773-13.97-5.532.43-1.933 4.59-3.987 7.97-4.218zm397.15 5.531v14.812l-35.53 18.754 2.25-16.566zm50.25 2.062 36.66 19.684 2.81 16.6-39.41-20.502zm-464.81.438c1.77-.098 3.18.395 3.94 1.719.68 1.182 1.48 4.209 4.03 5.687 4.75 2.756 5.24 3.332-3.78 7.281-3.8 1.664-11.27 6.749-13.88 8.499-7.98 5.37-11.22 3.57-11.81-2.78-.74-8.005 13.83-19.982 21.5-20.406zm27.5 12.125c1.85-.106 3.65.241 4.94 1.094 3.05 2.015 3.21 6.057.28 8.097-6.71 4.29-17.21-1.59-11.63-6.722 1.57-1.442 4.03-2.333 6.41-2.469zm387 8.031.19 19.22-39.63 20.9 2.63-19.5zm-406.59 2.25c2.59-.15 5.08.46 7.25 2.06 2.35 3 5.17 3.88 6.81 3.94 6.8.26 4.63 2.75-2.5 6-9.83 4.49-16.74 10.18-23.81 16.75-7.36 6.83-7.9 8.3-10.32 5.5-8.99-10.41 8.54-33.46 22.57-34.25zm457.5.22 41.53 22.72 3.56 19.19-45.09-25.1zm-430.22 13.53c1.68-.04 3.26.36 4.5 1.38 2.95 2.4 1.24 7.06-2.85 9.15-3.47 1.78-9.2 1.03-10.84-.62-3.92-3.96 3.19-9.77 9.19-9.91zm-20.06 9.66c2.52-.25 4.82 2.98 6.87 6.46.72.88 3.56.49 5.59.5 7.78.07 8.86 3.35 1.32 7.54-2.21 1.22-9.45 6.76-14.28 10.87-13.04 12.45-20.11 9.53-18.44-3.22 1.59-12.19 12.18-21.5 18.94-22.15zm450.28 1.18 45.81 25.13 4.47 20.65-50.28-27.09zm-50.57.38-.18 19.03-43.13 22.81 3.34-19.31zm51.25 24.22 51.32 31.06 1.87 20.22-53.19-30.63zm-51.28 3.37.1 18.66-47.69 24.19 2.41-17.63zm-387.12 12.35c1.22-.03 2.36.15 3.31.59 5.59 2.57 4.12 7.02-4.28 11.59-8.57 4.67-11.51 3.87-13.35-1.37-1.54-4.41 7.74-10.66 14.32-10.81zm535.78 2.53c89.22 20.42 176.57 64.58 261.37 141.69l-17.71 12.53s-74.32-84.76-239.47-134.44zm-96.84 8.87 24.74 14.6.07 3.72-24.81-2.04zm-421.66.16c1.88.1 3.52 1.19 12.37 5.4 35.52 25.65 49.75 41.11 58.57 69.22 5.28 16.85 5.18 16.16-12.19 7-16.34-8.67-38.73-23.07-53.19-41.68-2.39 43.8 2.72 98.25 2.72 98.25 22.19 10.93 15.01 39.4 14.95 39.22 57.09-15.58 44.58 59.77 2.03 43.52 10.15 56.53-54.58 51.93-47.95 3.47-51.52-1.99-42.41-58.14.36-50.37-4.45-17.33 1.68-29.06 17.45-36.5l-2.4-74s-41.99 60.26-49 59.31c-4.12-.55-10.32-7.47.12-60.31 5.44-27.51 34.61-61.01 50.94-62.09 2.89-.2 4.09-.5 5.22-.44zm41.06.56 7.53 5.16-7.09 12.65-7.84-5.68zm328.53 3.63-.25 11.09-23.12 1.38zm-253.56 125.25c-3.47.09 5.86 2.27 11.75 7.56 54.42 8.43 87.71 74.99 62.53 123.19-3.04 2.16 1.66 12.66 4.72 8.71 26.54-37.62 6.79-130.09-70.66-138.9-4.59-.39-7.18-.59-8.34-.56zm20.56 25.28c-4.37 11.99-5.52 14.86 5.69 9.97 19.81 7.33 41.18 39.57 34.34 71.97-2.2 3.77 1.65-2.47 4.25 8.18 9.78-23.71.03-74.84-44.28-90.12zm251.53 60.34c55.71-.16 110.84 12.01 154.69 37.22-14.9 8.29-62.47 19.84-62.47 19.84-26.73-29.99-40.35-59.98-88.68-44.65-50.62 13.07-96.21 56.88-121.86 85.94-25.72-15.31-39.65-19.05-62.46-20.32-1.32-.03-3.28 5.77-1.65-3.59 6.52-10.05 11.02-21.44 15.37-32.94 47.81-27.18 107.77-41.32 167.06-41.5zm173.16 38.5c-11.09 35.89-25.42 71.24-49.72 102.38l-3-15.57c22.85-35.08 33.68-66.98 38.56-80.97zm-21.56 9.31c1.42 2.29-22.15 58.47-33.78 68.69l-4.57-14.5c9.49-14.33 23.54-48.89 23.13-49.22zm-143.82.07c-.73.06-.99.71-1 2.12-.01 5.16 5.37 9.22 15.16 11.44 13.24 3 31.79-1.58 31.81-7.84.02-3.62-2.57-3.89-10.15-.38-9.51 4.4-17.9 3.54-30.32-3.03-2.84-1.51-4.55-2.4-5.5-2.31zm117.91 8.96c-3.68 13.62-9.15 23.64-16.12 34.04l-2.25-7.16c4.82-7.8 8.01-16.71 12.09-25.38zm-13.84 4.41c-1.79 4.74-3.76 10.22-7.85 14.44l-5.31-11.25zm-83.81 10.43c-8.97.17-17.85 3.06-18.62 7.83-.37 2.28 3.07 1.39 19.76-.64 8.81-1.07 13 4.15 21.07 3.6 4.11-.49.27-4.29-1.01-5.38-4.48-3.82-13.28-5.56-21.2-5.41zm-38.29 10.38c-.9.19.11 2.48 3.47 8.32 1.82 3.16 2.28 9.6 2.63 13.59-.44 9.93-.41 9.62 4.5 3.87 3.09-3.06 9.08-2.38 18.59.19 6.13 1.66 7.6 2.25 11.85-.41 4.93-3.09 6.09-1.53 10.34-.68 4.1.82 7.82-.82 12.31-2.06 5.49-1.52 6.54-1.17 11.31 0 7.3 3.45 6.24 3.14 6.85-9.22.61-12.18-.05-13.04-7.1-8.94-6.82 3.97-11.52 5.77-22 2.12-11.41-3.97-13.02-2.96-21.12-.53-9.79 2.95-14.24 3.95-22.03-.81-5.13-3.13-8.58-5.64-9.6-5.44zm-159.47 18.38 4.38 7.12c39.45 14.12 66.18 46.36 50.41 100.72l3.75 6c19.74-54.77-2.8-100.05-58.54-113.84zm12.22 23.19 5.38 11.03c29.69 14.34 27.91 53.83 26.25 52.28l4.65 10.28c7.43-25.56-6.1-63.29-36.28-73.59zm124 58.9c-1.16.01-1.93.41-2.25 1.22-.76 1.97 1.54 3.15 15.1 12.53 11.65 8.06 20.66 14.04 19.97 15.19-.46.77-7.71-.99-12.88-2.53-13.55-4.03-33.54.82-44.75 8.72-2.84 1.91-7.58-.18-11.69-1.25-1.64-.47-5.27-.91-7.06-.44-8.47 2.22-.27 10.31 20.47 20.81 25.45 12.89 39.23 14.06 54.69 6.25 10.26-5.31 13.94-1.37 2.72 4.69-19.61 10.58-38.4 7.31-69.38-14-14.35-9.87-20.09-8.22-7.75 1.19 21.65 16.92 63.33 37.57 88.91 12.34 1-.36 3.32-.19 4.44-.19 5.32.02 5.54-1.65 0-10.43-3.35-5.3-10.11-10.87-1.88-17.35 6.24-4.91 5.79-7.25-1.75-9.5-1.99-.55-1.79.76-4.78-1.65-18.11-14.6-35.82-25.63-42.13-25.6zm7.85 28.85c7.6.21 15.26 6.06 17.65 16.59.22.94.4 1.9.54 2.91l-6.48.24c-5.37-21.46-21.55-14.34-23.16-1.78l-5.83-.78c2.14-11.96 9.68-17.4 17.28-17.18zm134.15 18.31-4.31.64c-2.82-7.91-15.6-18.52-21.69.73l-5.43-.22c3.78-26.08 27.46-22.03 31.43-1.15zm-33.06-10.84c1.76 2.5-1.34 6.72-3.14 8.65-1.71 1.85-5.54.29-7.14-1.53-1.4-1.8-.36-5.37 1.97-6.56 2.42-1.24 6.53-2.35 8.31-.56zm-75.81.78c1.81 4.04-3.26 7.07-3.89 5.7-1.09-.38-2.43-7.06-1.81-7.5 1.68-.05 5.01.5 5.7 1.8zm113.97-.66c2.73.22 5.7 1.51 6.25 4.59.03 2.04-2.33 4.26-5.03 4.38-1.19.05-5.74-3.29-4.89-8.05.97-1.69 2.08-1.05 3.67-.92zm-158.44 1.28c.96 1.47-.84 5.85-1.25 6.44-.21.31-6.03.05-5.91-.38.13-.43-.54-3.73.88-6.12 1.61-1.03 5.12-1.57 6.28.06zm105.69 14.13c.75.01 1.71.32 2.84 1.03 16.27 10.59 37.21 15.31 52.28 7.75 3.37-1.69 5.57-1.6 5.57.03-.01 1.79-3.74 5.44-10.69 7.53-15.53 4.66-41.17-1.49-50.03-11-2.61-2.8-2.23-5.4.03-5.35zm-142.72 11.09c-1.56-.04-2.06.87-1.75 2.75 1.03 6.31 44.55 31.29 62.75 34.66 14.94 2.76 26.55 1.52 35.69-3.78 22.19-12.9 16.5-30.33-5.22-17.19-14.59 8.82-51.57 4.76-73.56-7.94-9.78-5.65-15.32-8.43-17.91-8.5zm196.09 9.13c5.49-2.3 7.86-3.11 9.06-2.1 5.6 4.68-3.57 11.98-20.28 14.83-13.37 2.19-21.41 2.62-36.68-8.67-11.81-8.74-6.25-12.97.54-9.01 18.05 10.55 31.46 10.89 47.36 4.95zm-192.22 27.31c38.51 13.79 82.31 47.04 101.75 87.43l-11.87-.09c-13.22-23.06-39.38-52.35-82.5-72.94-3.82-3.14-5.81-8.75-7.38-14.4zm202.22 18.9v12.63c-23.79 11.99-43.74 30.45-58.78 55.9l-13.47-.18c15.43-27.32 38.55-52.89 72.25-68.35zm0 19.25v15.5c-15.04 8.82-27.6 20.45-36.4 33.78h-15.94c12.77-21.59 30.29-38.8 52.34-49.28zm-176.28 11.91c11.46 6.59 30.45 24.16 37.34 37.69l-6.12.28c-6.24-7.95-16.22-17.09-24.34-24.28-5.2-6.1-6.88-13.69-6.88-13.69zm176.28 9.94c.19 0 .2.12 0 .37v12.32c0 .32-11.42 7.78-16.28 14.74h-12.94c8.89-16.07 27.37-27.47 29.22-27.43zm.03 20.47-.03 6.96-8.12.04c.54-.79 5.06-5.76 8.15-7zm-158.56 1.75c2.44 1.28 4.31 5.85 4.31 5.85l-2.18.23z" fill="#131f67" transform="matrix(.154104 0 0 .154104 -364.389 29.363)"/><path d="m1765.51 887.033c26.78.625 83.26-9.596 82.35-8.574 0 0 176.48 290.651 169.34 287.791-2.27 3.63-224.61 4.36-224.61 4.36-4.82.07 46.75-108.14-27.08-283.577zm78.71-205.552c85.16-71.127 174.66-71.999 270.73-82.11l1.27-240.604 34.87 20.683 1.59 220.441c126.9 9.016 236.53 55.051 330.87 136.009 1.19 1.761-135.75 75.662-195.77 95.308-46.79-34.064-169.97-55.177-251.49-28.531-22.4 7.318-49.88 19-76.63 27.655 18.95-116.221-71.82-133.016-103.74-138.254-4-.657-8.8-9.235-11.7-10.597zm-109.53 37.976c1.4-24.752-.31-49.516-2.26-74.813-.51-5.775-49.67 75.478-52.51 55.827-7.12-49.195 17.09-111.874 55.46-119.697 3.81-5.195 80.07 41.597 76.75 82.299-1.08 13.258-68.04-44.507-68.3-41.042-1.54 6.791 2.34 97.583 4.41 97.394 19.26 10.737 15.13 24.639 17.27 36.14 51.46-7.792 48.87 49.333.27 47.738 3.26 67.465-59.53 37.22-47.32 1.232-63.12-2.729-32.27-61.799-.8-48.965-1.95-14.871 1.67-30.4 17.03-36.113zm71.3-286.565c-3.64-1.423-134.67-7.624-134.67-7.624l5.61-319.004c66.29-153.802 318.26-82.974 278.35-50.146-119.97 79.249-137.72 222.992-149.29 376.774zm241.1-131.971-4.13-35.401c-10.37-21.969 268.24 105.369 271.39 108.102l8.23 37.762c1.67 16.597-177.15-66.591-275.49-110.463zm505.65-64.518c-3.54 143.151-25.24 240.165-107.96 357.453-2.29 3.852-25.76 13.679-27.58 16.992 11.96 18.747 79.93 46.054 111.33 60.752l162.69-97.726c1.89.128-6.9-340.126-6.9-340.126zm61.11-155.679c-21.92-3.257-73.1-55.911-62.6-71.933.28-12 63.56 33.673 70.17 46.02-3.25-3.665-4.12-112.145-5.13-107.827-2.4 1.283-19.31-10.732-15.01-33.357-48.33 10.877-45.92-51.969-3.63-49.564-5.69-57.149 64.25-36.425 45.81 1.935 59.73-11.241 49.68 55.889 4.46 45.147 3.93 25.428-6.54 32.5-21.2 37.639.98 10.66 5.26 81.785 5.26 81.785s43.94-67.877 47.13-62.054c8.92 20.502-6.77 129.15-65.26 112.209zm-205.78-248.887c-19.68 68.797 35.27 147.099 86.9 146.682 10.37-1.675 30.28 3.853 23.44 9.438-81.19 66.279-271.19 80.711-271.25 77.85 2.31 80.968-1 162.773-2.63 243.733l-34.91-20.833c-1.4-73.842-3.51-149.367-5.49-223.195-121.84-15.411-231.43-54.253-318.24-137.439 57.26-42.767 125.76-69.609 191.56-96.719 83.14 42.763 198.76 67.209 330.62.483zm-61.36-326.275c-3.83-1.667 13.07-14.312 13.07-14.312s141.49 1.306 211.67.09c-25.17 105.021-6.71 198.958 26.66 289.105-8.77-2.013-66.86 2.926-81.03 9.325-2.27 2.295-168.57-281.652-170.37-284.208z" fill="#e2cf00" transform="matrix(.154103 .00059787 -.00059787 .154103 -222.1767 105.39)"/><path d="m2764.47 1243.75c-2.3-6.42-2.33-7.21-3.08-66-.74-59.4-.52-65.91 2.65-78.25 6.09-15.39-11.89-15.39-23.28-17.19l-.09-24.3c13.34-1.91 29.45 1.91 35.38 9.7 13.83-9.64 22.8-11.29 32.4-10.94 32.25 0 46.51 19.86 45.78 58.32-.12 6.26 1.04 14.29 1.04 14.29l17.33-.07.1 24.58-18.24.07s3.21 60.94-.84 82.5c-12.35 48.03-71.91 51.39-89.15 7.29zm65.66-8.91c3.06-7.31 2.6-4.26 2.51-60.2l-.18-25.56c-25.59-5.8-48.32-36.35-48.16-36.35 0 0-.33-2.94-.33 55.1 0 65.79 2.34 69.6 16.31 80.19 13.56 7.59 24.66-1.13 29.85-13.18zm-36.29-147.78c7.83 10.89 17.55 22.04 29.07 31.02 4.31 3.36 10.34 4.67 10.34 4.67s-.35-7.4-.39-11.17c-.25-22.97-16.85-40.97-39.02-24.52zm-772.04 78.77-172.18-288.078 25.62-11.249 177.52 299.627zm446.77-41.77c-64.26-9.88-82.65-90.53-35.74-166.65 22.19-36.915 115.16-174.348 109.68-169.761-2.94-2.549 72.27 105.828 109.86 161.414 35.63 58.637 54.83 154.607-32.09 172.577-33.28 6.88-68-13.02-69.68-51.92-.24-5.44-2.5-9.88-5.69-9.88-2.66 0-4.51 3.83-4.51 7.6-.76 37.16-34 62.64-71.83 56.62zm300.73-96.18c-28.62-9.41-33.87-43.677-12.71-82.975 17.33-31.22 26.44-39.268 42.4-70.294 6.56-12.812 7.29-13.074 12.28-4.36 12.04 19.722 25.21 41.19 35.96 57.881 28.18 43.533 33.22 73.968 15.32 92.418-16.25 16.73-50.81 7.18-51.06-14.12-.02-.99-.51-2.71-1.1-3.81-1.32-2.48-3.92-.82-3.94 2.5-.07 15.49-20.75 28.16-37.15 22.76zm-1053.38-246.908 24.62-25.515 24.87 25.003-25.82 24.163zm548.19-164.059-3.56-20.624c98.65 23.744 179.51 74.076 237.73 129.007l-13.77 10.158c4.31-1.191-140.44-108.839-220.4-118.541zm-286.32-19.222 31.23-4.65-.82 17.357-29.67 6.863zm576.83-15.952-17.08-13.651 12.19-14.573 16.6 12.969zm-579.39-137.66c42.23-20.184 74.94-101.092 70.78-106.463l23.07 5.374-52.4 221.525-40.06 7.405c-.35-42.339-1.24-85.514-1.39-127.841zm278.91 124.145c-14.52-46.533-43.17-151.808-43.17-151.808 1.04 3.438 91.88 28.877 124.21 19.357 13.89 18.858 29.15 35.418 45.24 50.59-33.47 32.985-75.08 60.591-126.28 81.861zm379.68-171.083-16.04-13.782 14.27-17.608 17.61 13.299zm-208.85-8.448c-13.12-23.343-14.13-49.786 9.93-75.963zm-496.69-43.415c-1.04-2.407 5.26-57.874 6.78-60.335 2.67-4.326 8 11.206 10.53 23.08 3.17 14.885-13.49 46.086-17.31 37.255zm365.09-18.634s34.5-162.927 49.47-226.778l42.83-10.979-5.27 133.685c-35.1 31.633-64.11 106.784-64.11 106.784zm-564.84-24.879-17.03-15.775 14.3-15.758 15.02 15.248zm303.66-64.642-46.82-54.333c28.72-40.26 76.56-63.689 127.27-82.124l34.98 152.836c-38.91-11.56-80.87-24.083-115.43-16.379zm-238.72-135.419 11.89-14.907 15.7 12.26-11.83 16.484zm560.92-48.133 29.97-4.401-2.18 20.589-31.73 5.173zm-488.97-113.769 18.42-11.556c65.05 57.933 136.8 97.796 214.97 120.323l5.35 25.112c-88.15-26.797-171.5-67.601-238.74-133.879zm757.39-26.153-24.1-23.577 21.52-24.115 25.76 22.081c-8.43 12.816-23.18 25.611-23.18 25.611zm-805.92-40.656c-29.94-45.82-64.4-94.479-91.51-134.562-44.97-66.694-57.24-111.973-43.31-153.043 22.81-67.301 121.29-64.146 128.72 4.125 1.52 13.944 8.11 12.737 9.85-1.651 9.22-75.978 124.75-66.526 132 14.369 7.57 68.689-39.73 122.22-65.82 158.697-23.14 37.146-50.1 72.549-69.93 112.065zm-285.01-107.738c-19.61-32.506-73.17-105.897-22.19-128.77 18.1-8.123 41.34 6.152 41.34 21.491 0 6.936 3.83 7.312 4.7.117 3.63-30.122 45.83-32.451 59.45-3.387 11.68 34.596-9.04 66.268-38.08 110.88-6.67 10.239-22.04 38.083-22.04 38.083zm957.46 33.73-180.89-305.815 25.96-.316 177.98 294.559zm-981.93-263.79-18.36.071-.1-24.609 18.36-.071s.1-13.222.53-36.608c.93-49.826 2.2-57.584 16.8-71.337 28.91-27.219 77.6-5.323 77.16 35.435-.61 57.5.23 112.342-1.46 120.116-2.98 13.692-3.28 14.474-2.03 16.955 2.54 5.026 24.51 7.104 24.51 5.694l.09 24.219c-16.76 1.364-23.73-.155-37.18-9.523-8.34 7.983-33.8 16.02-54.1 6.747-15.44-7.055-27.22-25.425-24.22-67.089zm62.28 42.699c-9.17-12.91-24.55-30.477-39.02-36.654-.82 14.829.5 27.287 5.86 33.971 8.52 10.627 22.19 13.028 33.16 2.683zm7-142.091c-6.82-18.796-24.22-25.074-36.85-13.299-7.92 7.379-9.15 15.062-9.15 56.891 0 25.797.01 36.641.01 36.641 24.75 7.752 47.94 35.933 47.72 35.566l.31-78.016c.41-12.636-.26-25.315-2.04-37.783z" fill="#d40000" transform="matrix(.154103 .00059787 -.00059787 .154103 -222.1767 105.39)"/><path d="m3231.59-9.688-42.93.157 243.72 490.125s-6.61 1.11-19.54-2.281c-58.53-15.357-94.6-77.188-81.37-137.844 1.35-4.714 1.69-8.75 1.69-8.75-150.9 68.29-244.32 43.138-331.44-.344l-37.16 14.25c2.47-22.437 30.23-106.701 71.75-146.375l-.06-42.5-1-20.062-3.28-36.407c-61.77 58.16-133.85 149.708-142.88 279.719 0 0-56.24 28.887-104.25 60.844 2.67-.355 74.78 88.187 248.04 137.906l-7.63-28.25c25.76 7.23 62.39 12.947 98.81 17.563l4.88 221.906 41.37 24.5 1.41-245.688c1.27 1.014 65.99-2.282 100.84-10.593l-4.9 23.687 34.43-6.781v17.281l-37.75 8.906-53.75 229.657 31.32 6.968c9.16-46.258 32.3-83.673 65.84-106.625l-.34-8.812c21.51-15.431 66.21-27.695 66.5-27.406 15.25-74.479 50.74-126.093 88.47-175.188l-17.97-24.406 68.9-25.281-95.65-162.719c36.8-25.397 109.78-15.938 109.78-15.938-31.28-84.435-58.77-171.531-27.88-299.344l-266.06.219zm87.29 5.295c-.06 21.352-27.96 19.153-31.36-.107zm170.93-.67c-16.93 97.867-11.31 193.198 27.94 283.782 0 0-5.72.329-6.44.187-.54-.107.67-4.885.38-6.156-.78-3.403-6.43-1.809-11.16 1.375-2.06 1.387-4.44 2.97-5.94 3.719-4.86 2.426-29.52 2.242-29.52 2.242 8.05-5.446 19.36-20.776 12.8-29.719-1.49-1.906-2.39-1.065-3.84 1.508-7 12.446-10.48 14.398-19.84 14.281-14.69-.182-25.19-9.279-24-23 1.15-13.332 20.77-20.371 17.87-7.437-.79 11.522 10.64 13.76 12.75 2.281.79-4.299.16-2.304 1.1-7.344 22.86-12.129 10.24-36.826-11.1-31.656-5.01 1.326-5.64 1.792-9.19-.031-6.57-3.389-12.04-2.323-14.53 2.437-2.19 4.193 1.15 7.544 6.03 7.563 5.07.02 6.05 2.461 6.04 5.5-.03 7.066-12.23 10.468-20.32 6.344-21.34-10.888-13.43-39.19 11.35-39.094 7.53.029 10.68.5 11-1.125.9-4.571-10.6-12.476-17.1-11.313-5.5 1.075-8.84 2.513-5.93-4.812 1.78-7.552 1.73-10.977.22-16.656-3.97-8.111-3.87-3.953-6.32 2.625-8.16 13.535-20.46 16.529-31.06 9.125-9.83-6.87-9.54-19.917-.19-29.219 6.5-6.462 13.47-2.064 9.57 5.156-1.62 2.989-.35 6.697 2.56 7.438 5.86 1.496 9.5-1.956 9.53-9.063-.12-3.914-1.21-4.786 5.84-8.812 18.26-10.425 4.6-38.904-16-29.75-4.52 2.009-5.57 3.973-7.62 3.031-8.61-8.136-20.96 2.149-13.66 7.594 3.16 1.536 7.02 2.123 8.03 2.218 1.78 1.015 1.19 3.544-1.4 6.719-8.53 10.057-27.9 5.091-32.47-9.094-5.3-16.429 11.5-33.699 24.37-24.125 3.81 2.831 7.11 3.129 7.13-1.062.02-6.529-8.2-14.02-18.69-13.281-10.65.749-9.49 2.123-3.69-7.5 4.28-8.57 3.7-16.933-.03-21.969-2.87-3.882-5.83-4.7-5.53-.594 2.33 12.735-12.55 24.842-24.78 19.5-11.76-5.256-17.59-18.419-11.81-29.844 5.32-10.539 18.24-11.632 16.09-.375-1.01 7.177 4.45 10.953 9.72 6.719 1.92-1.54 2.37-2.9 2.5-7.531.15-5.157-1.95-6.667 1.37-9.688 8.72-1.156 9.26-19.672 7.94-20.437l140.03-.656zm-156.09.625c5.53 0 10.12 1.877 10.12 7.407s-4.47 10-10 10-10.03-4.47-10.03-10 4.38-7.407 9.91-7.407zm-98.13.719h22.25l175.8 292.965-20.82 10.125zm36.55 10.238c10.66 6.091 20.49 11.088 33.85 12.394-3.91 7.939-7.48 16.609-8.12 31.442zm35.81 58.998c10.84 3.885 20.26 9.771 38.13 3.824-9.53 8.431-14.92 18.515-18.96 29.143zm91.46 35.389c5.12 0 9.28 4.158 9.28 9.282 0 5.123-4.16 9.25-9.28 9.25-5.13 0-9.29-4.127-9.29-9.25 0-5.124 4.16-9.282 9.29-9.282zm-56.95 23.132c7.84 2.884 16.05 4.797 25.17 4.38-4.51 6.202-6.05 15.636-6.34 26.423zm26.91 46.175c7.26 3.537 15.85 8.692 31.08 7.04-10.09 17.119-7.93 21.842-8.96 29.332zm88.1 34.006c5.37 0 9.72 4.352 9.72 9.719 0 5.366-4.35 9.718-9.72 9.718s-9.72-4.352-9.72-9.718c0-5.367 4.35-9.719 9.72-9.719zm-54.6 21.824c6.64 3.755 19.76 5.898 19.91 4.881-.84-.631-3.78 12.653-4.29 21.003zm30.59 49.904c9.45 5.57 19.9 5.038 26.04 5.694-6.57 1.315-12.76 2.961-19.81 5.73zm111.4 54.785c-22.76 1.467-28.03 18.915-25.34 36.595-17.34-2.772-36.77 13.672-31.34 33.784 5.15 19.073 22.89 19.741 35.13 18.467-.94 4.633-3.52 20.214 15.3 33.393l2.51 99.015s-8.3-7.621-13.71-13.017c-23.65-23.558-59.23-40.623-57-27.344.33 1.952 1.08 6.905 1.65 11 3.77 22.418 33.88 46.648 54.41 58.844 7.33 4.091 11.87 8.469 11.87 8.469-38.4 41.056-59.04 84.864-64.18 128.343-4.78 40.397-8.64 76.783-12.44 113.875-15.67 186.064-95.52 232.864-99.31 241.964l-1.5 24.82-22.29-1.66-25.68 22.22c84.14 43.48 133.21 95.94 132.53 96.94 67.18-43.99 125.17-92.86 179.91-143.44l-1.07-414.281s-4.54 1.661-5.72 1.656c-4.15-.016-4.68 1.855-6.12 9.781-.77 4.243-3.3 8.15-5.28 10.938-3.76 5.294-2.42 2.616 2.31 4.531 10.78 4.361-3.22 24.12-18.53 26.531-11.03 1.737-17.19 3.765-19.06 6.313-23.22 20.311-46.35 23.528-63.85 16.062-8.6-3.672-17.96-9.042-21.12-18-7.19-20.337 7.78-49.638 16.56-66.562 16.1-31.036 42.84-54.344 42.84-54.344l-4.37-4.75s5.25.08 6.25-.281c23.08-8.392 24.51-8.512 28.75-14.625 4.24-6.118 14.95-23.566 17.15-29.313 11.87-30.851 13.46-32.855 13.44-53.093-.02-16.397-1.11-27.352-4.28-28.219-18.18 13.941-36.54 46.499-47.28 65.687-3.71-28.429-4.81-78.058-4.81-78.058 3.84-4.253 25.68-1.875 20.84-37.473 19.22 8.669 39.47-4.594 38.63-23.102-1.32-28.819-23.53-27.97-41.6-24.332 8.61-17.408-7.76-38.394-24.2-37.334zm-.35 2.424c23.74.734 28.45 26.978 13.9 41.835 0 0-9.43-7.259-14.43-11.389-4.75 3.732-6.12 6.963-11.35 10.804-6.18-4.571-9.91-12.66-9.97-20.45.29-12.169 12.57-21.087 21.85-20.8zm-542.57.813c96.1 53.705 216.6 57.546 326.9 2.812l-1.34 9.094-12.09 6.813 6.84 12.531 3.78-1.813.09 8.282c-90.92 49.113-243.23 59.276-362.46-22.282l10.37-4.812s2.34 1.636 4.59 3.031c4.35 2.691 11.52 7.006 16.26 9.125l7.21-10.406s-11.02-6.717-9.93-7.156zm8.47 16.469-5.5 12.5 13.78 7.343 5.25-12.593zm-52.29 1.406c147.99 92.89 285.75 65.238 368.47 27.25l1.07 9.906c-106.78 45.423-247.18 57.615-380.82-32.219zm348.35 5.969-13.16 5.25 5.22 12.062 13.53-5.781zm-366.03 2.25c120.26 77.542 249.24 92.722 388.25 35.906l5.31 14.844c-135.38 54.364-278.26 48.103-408.78-44.313zm92.4.437-5.37 13 14.91 5.656 4.34-12.75zm252.91 5.375-13.03 4.219 4.06 12.437 13.5-4.593zm-230.13 3.563-3.21 13.062 15.21 4.281 2.66-13.125zm550.77 21.503c2.04 22.216-30.9 32.936-43.22 12.202l10.86-13.19-9.71-9.059c13.18-20.847 40.14-10.813 42.07 10.047zm-684.48-20.785 35.87 24.657-26.06 40.5-38.63-25.938zm621.78 1.125 22.78 19.75-20.91 24.469-21.37-21.562zm-14.16 6.699-12.81 14.891 13.86 14.741c-16.44 17.474-40.98 6.688-40.73-14.703.18-16.327 25.18-32.221 39.68-14.929zm-265.59-5.73-13.69 4.094 3.13 12 14.15-3.688zm-184.63 3.781-2.53 12.907 15.72 3.375 2.66-12.844zm162.03 2.188-14.56 3.156 2.5 12.844 14.6-3.063zm303.88 3.031-12 11.781 12 12.438 12.09-12.438zm-440.69.375-1.84 13 16.47 2.219 1.28-13.156zm110.91 1.781-14.82 1.688 1.5 12.75 15.38-1.938zm-87.44 1.5-.19 13.344 14.44 1.156.03-13.218zm63.69 1.25-14.5.532.09 12.906 14.81-.938zm-264.57.125c-8.53 0-15.43 6.907-15.43 15.438s6.9 15.437 15.43 15.437c8.54 0 15.44-6.906 15.44-15.437s-6.9-15.438-15.44-15.438zm240.26.438-14.26.125.07 13.062 14.69.063zm377.84.062 6.25 6.25-6.25 6.157-6.41-6.157zm-618.13 4.938c5.6 0 10.13 4.528 10.13 10.125s-4.53 10.156-10.13 10.156c-5.59 0-10.15-4.559-10.15-10.156s4.56-10.125 10.15-10.125zm-54.9.75 20.53 16.719c-6.53 12.504-27.22 38.906-27.22 38.906l-37.94-30.406 19.85-11.219c-1.08 2.086-1.69 4.428-1.69 6.937 0 8.383 6.8 15.157 15.19 15.157 8.38 0 15.18-6.774 15.18-15.157 0-8.04-6.27-14.6-14.18-15.125zm-11.47 10.75c5.62 0 10.19 4.566 10.19 10.187 0 5.622-4.57 10.157-10.19 10.157s-10.19-4.535-10.19-10.157c0-5.621 4.57-10.187 10.19-10.187zm697.82 4.808s5.59 2.123 6.96 4.223c11.01 16.903-.46 37-18.92 36.607-21.56-.46-27.23-27.488-12.4-38.512l12.05 11.382zm-560.54 6.879 42.5 16.313-16.12 46.187-46.47-19.062zm-174.69 4.813c173.39 156.219 419.72 167.453 598.75 63.75l10.91-.219 5.78 5.938c-203.97 120.618-457.51 94.372-628.69-60.875zm477.44 9.312 13.69 45.657-47 12.375-10.5-46.25zm-495.22 1.657c52.63 50.709 127.03 95.144 214.41 120.343l2.15 18.719c-92.75-27.854-162.81-65.054-231.06-129.625zm203.72.718c-8.38 0-15.19 6.805-15.19 15.188s6.81 15.156 15.19 15.156 15.19-6.773 15.19-15.156-6.81-15.188-15.19-15.188zm-75.59 3.407 43.84 23.187-21.84 43.719-46.57-24.969zm75.4 1.593c5.62 0 10.19 4.566 10.19 10.188 0 5.621-4.57 10.156-10.19 10.156s-10.18-4.535-10.18-10.156c0-5.622 4.56-10.188 10.18-10.188zm72.6 6.219 42.12 6.125-1.94 46.688-49.15-5.907c1.88-16.433 8.97-46.906 8.97-46.906zm203.46 1.156c-8.38 0-15.18 6.805-15.18 15.188s6.8 15.156 15.18 15.156c8.39 0 15.19-6.773 15.19-15.156s-6.8-15.188-15.19-15.188zm-.18 5c5.62 0 10.18 4.566 10.18 10.188 0 5.621-4.56 10.156-10.18 10.156s-10.19-4.535-10.19-10.156c0-5.622 4.57-10.188 10.19-10.188zm-342.5.657c-8.39 0-15.19 6.804-15.19 15.187s6.8 15.156 15.19 15.156c8.38 0 15.18-6.773 15.18-15.156s-6.8-15.187-15.18-15.187zm269.31.062 6.03 46.906-46 2.282-2.72-46.782zm329.69 4.188h6.53c.6 40.367 3.8 87.097 8.47 121.656.7 5.147 1.02 6.666.5 7.594-4.52 7.999-9.77-2.07-11.82-25.032-.56-6.327-1.28-15.54-2.06-21.593-2.36-18.306-1.62-82.625-1.62-82.625zm-777.47.718c-69.17 43.15-184.22 146.224-183.53 148.625l.47 396.063 9 .437 7.43-14.562c-11.5-2.881-8.28-24.506 13.75-28.844 3.76-.74 15.25-4.604 18.07-6.75 16.72-12.751 43.9-20.281 62.96-15.25 27.81 7.11 33.51 27.549 20.13 63.094-10.55 28.021-31.44 63.841-51.06 74.061-1.6.84-5.07 2.53-5.07 2.53s4.57 4.15 6.22 5.22c54.05-31.23 81.34-143.263 79.88-212.968 2.18-71.397 14.49-143.046 43.31-195.156 47.63-86.121 110.63-120.745 110.31-121.062 0 0-84.93-51.559-131.87-95.438zm178.28.031c5.63 0 10.19 4.566 10.19 10.188 0 5.621-4.56 10.156-10.19 10.156-5.62 0-10.19-4.535-10.19-10.156 0-5.622 4.57-10.188 10.19-10.188zm420.16 1.625 16.4 43.594-45.59 18.656-16.44-45.812zm-262.25.219c-8.39 0-15.19 6.805-15.19 15.188s6.8 15.156 15.19 15.156c8.38 0 15.18-6.773 15.18-15.156s-6.8-15.188-15.18-15.188zm92.68 3.781c-8.38 0-15.18 6.805-15.18 15.188s6.8 15.156 15.18 15.156c8.39 0 15.19-6.773 15.19-15.156s-6.8-15.188-15.19-15.188zm-92.87 1.219c5.62 0 10.19 4.566 10.19 10.188 0 5.621-4.57 10.156-10.19 10.156s-10.19-4.535-10.19-10.156c0-5.622 4.57-10.188 10.19-10.188zm92.69 3.781c5.62 0 10.18 4.567 10.18 10.188 0 5.622-4.56 10.156-10.18 10.156-5.63 0-10.19-4.534-10.19-10.156s4.56-10.188 10.19-10.188zm155.06 5.188c-8.38 0-15.19 6.805-15.19 15.187 0 8.383 6.81 15.157 15.19 15.157 8.39 0 15.19-6.774 15.19-15.157 0-8.382-6.8-15.187-15.19-15.187zm-.19 5c5.62 0 10.19 4.566 10.19 10.187 0 5.622-4.57 10.157-10.19 10.157s-10.19-4.535-10.19-10.157c0-5.621 4.57-10.187 10.19-10.187zm-322.03.781 45.56 11.656-10.59 47.782-51.41-13.657zm576.38-1.233c7.45 23.341-6.22 53.277-6.91 55.233-8.28 23.48-18.25 42.666-21.88 43.781-3.08 1.17-4.45.421-4.43-2.468.02-4.433 10.18-34.5 18.18-53.844 1.96-4.737 6.5-19.058 6.51-21.463.01-3.621-3.5 2.278-7.29 11.307-7.33 18.059-18.02 37.396-20.34 54.906-1.66 14.309-4.38 12.288-6.38-4.75-2.76-23.65 2.41-35.813 29-68.75 6.36-7.88 12.9-15.973 13.54-13.952zm-334.72 12.139 13.18 46.782-53.78 9.187-8.37-47.437zm-225.19 4.719c-8.39 0-15.19 6.805-15.19 15.188s6.81 15.156 15.19 15.156 15.19-6.773 15.19-15.156-6.81-15.188-15.19-15.188zm80.41 3.031 48.71 2.782.44 48.625-52.87-2.282zm-80.6 1.969c5.62 0 10.19 4.566 10.19 10.188 0 5.621-4.57 10.156-10.19 10.156s-10.19-4.535-10.19-10.156c0-5.622 4.57-10.188 10.19-10.188zm204.47 4.313c-8.38 0-15.19 6.804-15.19 15.187s6.81 15.156 15.19 15.156c8.38.001 15.19-6.773 15.19-15.156s-6.81-15.187-15.19-15.187zm-101 3.906c-8.38 0-15.19 6.804-15.19 15.187s6.81 15.157 15.19 15.157 15.19-6.774 15.19-15.157-6.81-15.187-15.19-15.187zm100.81 1.094c5.62 0 10.19 4.566 10.19 10.187 0 5.622-4.56 10.156-10.19 10.156-5.62.001-10.18-4.534-10.18-10.156 0-5.621 4.56-10.187 10.18-10.187zm-101 3.906c5.62 0 10.19 4.566 10.19 10.187 0 5.622-4.56 10.157-10.19 10.157-5.62 0-10.18-4.535-10.18-10.157 0-5.621 4.56-10.187 10.18-10.187zm332.22 2.906c.8-.02 1.86.133 2.56.125 10.88-.124 47.58 26.23 56.97 42.188 7.8 14.09 3.76 19.684-5.22 7.093-12.38-13.794-35.27-34.269-38.18-34.281-3.13-.012 1.18 4.451 15.75 18.656 14.45 14.087 29.7 32.447 29.68 35.719 0 2.158-2.87 1.887-7-.656-9.01-5.555-16.84-11.171-20.84-14.938-2.41-2.269-7.02-6.45-10.28-9.312-13.48-11.813-28.83-39.052-24.5-44.281.19-.233.58-.301 1.06-.313zm-679.75 3.875c9.39-.273 19.98 5.696 20.41 16.625.3 7.721.83 8.312 7.81 8.438 6.66.12 25.91 2.406 25.91 2.406l.12 21.625s-9.29-.056-20-.563c-18.23-.863-18.15-.888-20.47 7.125-.93 3.24-2.24 4.832-5.87 7.219-16.38 10.756-32.16-8.756-22-27.187 3.49-6.327 3.69-8.489 1.28-12.282-4.9-11.001 1.62-22.855 12.81-23.406zm4 11.063c-2.02 0-4.23.868-6.25 2.875-2.7 2.676-2.72 10.31-.03 14.75 2.57 4.247 2.5 5.389-.5 8.187-5.29 4.932-5.44 14.712-.28 18.391 4.7 3.356 9.69-1.076 9.72-7.86.03-7.433 5.23-7.296 5.23-7.296l34.26.593.11-5.582-24.86-1.245c-3.45-.014-7.07-.343-9.74-2.148-2.83-1.955-6.05-5.349-2.97-9.478 4.31-5.783.47-11.226-4.69-11.187zm-74.25 12.781 16.25 27.625 18.94.687 1.65 16.813 23.02 14.824-23.58 13.797-1.16 16.914-17.87 2.246-16.59 20.781-15.91-20.75-17.53.094-.25-17.344-24.13-15.531 26.41-14.844-.28-19.812 18.72-1.25zm574 12.562.78 16.688-26.59 4.719 3.47-17zm-170.44 16.813 35.85 1.094-2.07 234.218s-7.06-.049-8.4-.062l-.16-9.125-11.47.375-11.65-7.063zm-403.56 5.937-21.03 26.625 25.47 22.25 22.44-26.031zm414.31 3.563v10.781h15.03v-10.781zm-413.84 9.219 14.81 10.843-11.28 14.907-14.28-12.375zm574.28 6.125-.47 128.187c-49.25 38.65-64.59 106.69-64.59 106.688l-20.03-1.188 50.9-225.812zm-266.97 2.843c-44.32 21.085-88.98 37.05-132.94 87.344 17.02 15.318 35.01 30.933 51 57.031 36.6-5.449 77.31 1.097 121.72 18.563zm106.53 2.875v11.157h15.03v-11.157zm-498.15 16.094c1.09 3.411 1.44 7.063 1.44 7.063 32.49-2.726 24.21 34.989 3.5 36.281-2.43.314 2 6.688 6.84 8.719 12.31 5.171 21.15 1.848 29.22-8.907 6.18-8.249 6.56-9.437 6.56-9.437l20.06 10.625s.58-.292-2.97 8.906c-6.44 16.74 2.96 37.279 10.22 22.313 3.87-7.976 15.25-12.518 23.13-9.219 9.21 3.856 12.39 20.296 5.94 30.656-1.96 3.132-2.02 3.787-.82 6.688 1.81 4.366 2.93 15.594 1.03 19.218-2.45 4.701-5.28 5.772-10.81 1.938-7.57-5.248-11.8-7.43-24.97-11.094-23.12-4.351-27.65-12.487-36.84-31.5-27.39 8.202-68.37-8.969-62.91-49.625 2.49-8.972 3.17-26.196-1.4-29.719-8.97-6.905.87-16.869 14.34-18.468 11.07-1.099 16.4 9.386 18.44 15.562zm387.44-11.781 35.62 149.188c-39.1-14.321-77.48-25.497-111.44-17.188-15.55-24.817-28.81-37.031-46.06-53.156 33.61-40.521 76.35-63.195 121.88-78.844zm-403.07 7.313c-2.3-.024-4.9.971-7.62 3.375 0 0 2.41 2.016 3.72 4.75 2.09 4.371 2.11 4.369-.25 14.062-10.87 38.862 14.9 64.574 51.56 53.344 9-2.785 8.65-2.479 11.25 8.094 4.27 17.399 16.58 26.386 41.03 29.687 1.5.203 4.01.694 6 1.906 10.76 6.863 6.35-2.266 3.41-5.812-2.1-2.774-5.94-5.531-5.94-5.531s3.28-2.125 4.81-2.938c6.9-3.659 9.48-17.986 3.78-21.062-5.19-2.806-14.04 1.43-14.06 6.75-.04 9.719-12.31 10.752-23.04 2.672-13.77-10.37-1.57-36.505-1.49-36.47l-7.77-3.415c1.04.916-16.35 25.618-37.75 17.004-14.94-6.017-25.47-23.321-18.54-28.26 5.04-1.352 11.1 1.42 14.93-1.532 7.64-5.993 1.48-16.509-9.43-16.125-2.29.081-7.5 1.094-7.5 1.094.57-4.897 1.83-8.34 1.21-13.062-.63-4.727-3.91-8.486-8.31-8.532zm513.94 11.343v9.188l14.87.093v-9.187zm-.16 18.938v9.469h15.03v-9.469zm0 20.406v9.688h15.03v-9.688zm0 19.031v10.25h15.03v-10.25zm0 19.094v9.563h15.03v-9.563zm0 19.469v9.656h15.03v-9.656zm-488.68 9.437 12.65 21.375 15.03.657.6 14.687 25.56 19.531-22.34 15.969-1.63 15.844-17.72.562-14.34 24.188-17.66-21.219-14.18-2.281-1.63-19.313-21.84-16.343 20.53-16.407 1.65-17.156 16.72 1.469zm831.78 10.219c1.37.028 2.85.405 4.47 1.219 5.31 2.678 6.98 2.991 20.78 3.687 16 .807 21.66 2.237 29.59 7.532 4.79 3.192 5.07 3.175 10.19-.219 22.47-14.89 48.13-1.353 50 26.375.49 7.29 1.22 10.226 4.09 16.344 1.96 4.239 3.99 7.579 2.81 10.281-3.6 8.257-20.91 8.787-30.34-3.469-1.69-1.849-3.4-2.647-5.75-2.656-4.68 1.741-16.66-7.689-16.53-8.094-1.11 6.562-1.67 11.777-2.84 21.313l-20.97-.313s-.47-3.842-1.44-17.25c-1.12-15.412-4.95-19.921-9.87-11.594-8.48 14.337-31.01 8.034-32.32-9.031-.44-5.785-.77-6.536-3.94-8.969-10.6-8.157-7.51-25.348 2.07-25.156zm-343.1.844v8.562h15.03v-8.562zm345.5 9.156c-4.16.298-1.79 7.688 5.1 11.594 3.91 2.216 3.92 2.199 3.4 9-.93 12.315 10.95 18.353 16.22 8.25.92-1.749 1.31-3.976.94-5.469-2.21-8.951 17.15-6.509 21.81 2.75 1.07 2.129 2.27 7.787 2.85 13.5.54 5.414.68 11.688.68 11.688h6.19s-.07-3.739.28-7.313c1.54-15.3 8.31-24.973 17.44-24.937 3.9.015 4.04.707 1.31 5.75-4.61 8.528-.17 14.708 10.6 14.781 6.82.046 6.8.056 9.34 4.906 2.79 5.327 4.9 7.016 7.5 6.031 1.84-.696 1.87.333-.53-17.843-3.58-27.083-19.34-34.38-41.1-19.032-6.15 4.344-7.5 4.213-12.96-1.062-8.19-7.906-13.37-9.716-29.38-10.313-7.62-.284-15.14-1.031-16.69-1.656-1.23-.498-2.22-.68-3-.625zm-516.4 7.75c-3.56.061-7.69.809-11.27 1.115 3.97 20.93 5.83 41.861 7.65 62.791 18.32-3.183 42.06-.215 73.37 14.375 19.21 8.955 42.68 24.26 67.28 41.532 26.63 18.696 57.84 29.737 84.43 35.508 32.37 7.026 58.38 6.425 57.67 4.898-1.44.239-11.68-51.342-10.33-62.37-44.79-4.113-88.03-20.696-121.08-43.161-43.76-29.739-94.34-55.598-147.72-54.688zm170.9 1.75v8.688h15.03v-8.688zm-493.25 1.719-23.78 24.781 25.88 24.5 21.97-24.969zm-.65 11.25 13.47 12.906-10.88 13.781-15.16-13.062zm335.31 2.031c3.17.027 6.27 2.252 16.75 8.125 8.79 6.065 15.81 9.85 13.25.344 2-2.739 11.74 6.169 23.22 11.781 13.84 11.086 13.89 8.413 15.69 2.906 1.85-4.026 4.41-1.302 15.47 8.938 14.52 13.454 13.22 13.472 16.12 10.125 3.31-6.285 4.41-6.219 16.25 7.375 12.3 13.725 14.91 16.655 17.53 10.781 4.05-3.041 6.15-.088 22.84 15.594 8.22 8.191 10.15 6.919 11.69 1.406 1.59-5.68 2.04-4.4 15.91 6.594 16.06 12.854 17.64 13.794 18.31 9.344 1.06-7.069 6.04-4.56 22.56 7.312 10.02 7.158 13.8 9.148 15.94 7.375 2.18-3.856-5.43-11.27 10.72-4.281l4.44 23.437-5.6-1.593c-3.43-.978-10.96-3.526-8.12 3.781 1.64 4.22-2.43 3.719-14.97-3.75-17.97-10.701-21.28-13.158-22.62-10.969-2.38 8.012-2.07 8.527-14.19-.969-14.1-10.692-16.94-13.647-18.91-10-.26 8.073-4.19 6.434-17.34-4.906-11.12-9.722-13.49-14.801-18.47-7.364-1.36 2.584-2.74 1.933-4.58.59-6.46-4.78-19.46-18.503-23.14-22.445-2.89-3.148-4.53-2.133-6.91.469-2.21 2.429-2.38 1.675-9.56-4.906-17.14-15.72-20.32-19.649-22.72-17.5-1.95 3.687-.08 8.697-13.25-1.688-16.51-11.892-23.68-17.17-22.56-9.375-2.83 3.489-.85 4.173-17.37-4.968-15.71-8.689-17.7-11.298-19.97-8.313-1.55 4.72-6.82 3.025-6.82 2.75l-3.18-23.844 5.65.063s5.44-2.217 7.94-2.219zm-126.03 2c-1.26 3.687-9.92 24.954-10.03 79.094 1.04 1.279 21.47-19.553 22.47-38.969.94-18.399-12.4-40.176-12.44-40.125zm284.59 1.5v9.875h15.03v-9.875zm-283.52 7.829c19.11 30.289-1.95 58.85-7.19 60.868 0-22.765 3.35-44.165 7.19-60.868zm501.43 25.444c-31.41 19.793-26.31 73.356-10.9 87.079 1.13 0 11.03-57.859 10.9-87.079zm-4.3 6.59-8.45 68.938c-10.99-12.162-12.93-48.417 8.45-68.938zm198.08 11.637 16.59 20.875 14.75 1.094 3.29 15.062 21.53 17.532-21.57 14.625-1.9 16.687-16.03 1.625-15.88 24.969-15.53-24.469-14.88-1.594-.46-16.062-23.38-17.25 22.31-13.406.44-18.157 17.47.063zm-587.66 6.531c-10.54 50.131-35.72 84.435-71.25 107.5l.19 5.063-59.84 24c-13.11 61.156-36.68 120.816-86.1 176.786l13.79 28-66.85 22.96 95.69 164.1c6.59 0-46.36 25.06-110.28 18.53 40.45 99.04 48.79 201.58 26.4 291.37l313.22-1.31-239.37-469.72-3.91-7.65c-3.32-6.14 127.25 18.36 99.53 139.46-.38 2.81.58 3.16 2.16 2 25.38-21.8 193.97-82.26 328.59-2.43l40-16.57c-19.03 66.64-40.67 112.49-77.15 152.66l6.18 94.84c64.55-52.86 134.6-149.9 144-278.87 29.07-14.16 54.36-30.25 81.44-45.41l3.59 1.16 17.54-10.53c-56.23-61.51-171.03-120.3-244.6-135.75l4.35 20.84c-40.6-10.9-70.96-13.27-102.53-16.65l-4.85-220.691-40.87-24.094-1.28 243.435c-30.57.38-100.85 12.44-100.85 12.44l3.16-20.81-32.19 6.62-.56-20.28 36.37-10.44 52.75-223.621zm4.41 4.969 16.81 3.406-52.22 219.254s-29.29 8.09-31.09 6.96c-2.33-41.11-3.22-124.901-3.22-124.901 51.54-42.961 59.61-73.378 69.72-104.719zm-358.41 16.094c7.87-.099 16.34 5.625 16.88 10.781 1.35 3.178 2.47 4.551 4.59 4.844 13.18 1.82 13.6 5.309 13.97 12.906-1.85 14.563 7.9 2.338 10.66-12.125.29-1.507.12-12.562.12-12.562l16.13-.157s.54 11.541.78 13.375c1.42 11.185 6.19 20.254 9.5 14.313 11.34-20.373 37.33-9.985 33.22 9.656-1.01 4.645-.95 4.941 2.22 8.469 5.16 5.757 7.08 11.849 5.37 17.156-1.66 5.182-5.29 5.97-13.09 2.844-3.67-1.469-8.11-1.994-20-2.344-16.82-.494-17.86-.813-24.41-7.156l-4.12-4-7.13 4.187c-11.86 6.972-22.65 7.238-35.19.813-8.16-4.184-12.91-14.209-14.18-29.844-.25-8.307-2.58-14.322-7.72-16.312-2.78-2.616.31-7.817 5.06-12.563 2.18-1.562 4.72-2.248 7.34-2.281zm940.29 2.375-22.16 27.625 26.34 23.562 24.53-28.843zm-513.22 3.969 30.68 17.562 3.94 217.56-34.69-.97zm-426.22 3.031c-2.34.228-.87 3.972.84 9.687 1.54 5.114 1.92 8.292 1.44 11.844-3.26 23.841 24.08 35.964 43.81 19.438 5.25-6.011 6.11-5.621 10.5.812 5.42 6.785 13.29 8.991 29.81 8 7.55-.452 12.54 3.573 15.82.906 2.36-1.715.07-6.26-4.5-8.906-2.8-1.619-2.9-1.872-2.35-7.469 1.4-14.112-10.23-17.847-18.5-5.937-6.82 9.838-17.12 3.336-20.43-12.906-1.98-12.499-3.55-12.303-5.04-1.407-1.61 13.251-19.06 27.616-26.03 21.094-1.9-1.922-1.88-1.442.07-8.094 2.51-8.538.5-11.72-8.82-13.937-1.52-.363-3.28-1.636-3.87-2.813-4.93-7.634-4.72-10.312-12.75-10.312zm941.65 5.062 14.07 12.125-12.25 14.469-14.97-11.5zm-505.81 7.75v10.282h13.13v-10.282zm0 20.719v10.813h13.13v-10.813zm79.06 12.438c14.72 54.626 29.54 109.202 44.32 163.812 13.99-5.59 94.82-41.46 132.93-87.375-1.45.115-34.65-32.348-46.28-53.406-38.12 6.282-81.91-1.711-130.97-23.031zm-79.06 6.5v10.093h13.13v-10.093zm87.34 2.75c34.75 10.36 79.25 24.651 120.22 17.375 10.57 18.988 25.87 34.615 43.13 49.031-31.01 33.736-75.86 59.466-122.25 79.286zm329.76 3.937c1.74.01 3.51.676 5.21 2.188 5.5 4.887 9.74 6.576 20.97 8.406 18.1 2.947 31.9 14.246 35.82 29.312 1.64 6.329 2.55 6.674 11.56 4.407 34.14-8.592 60.47 19.717 52.34 57.502-2.84 13.19-3.71 14.77.25 20 8.68 9.35 10.57 9.47 1.06 17.72-8.65 7.77-25.82 4.01-29.47-8.6-3.48-6.91-3.43-7.43-9.15-8.34-22.28-3.55-21.36-34.37-.38-37.94 1.76-.3 3.05.06 3.94-.34 5.96-2.7-6.49-16.789-16.78-14.627-12.62 2.65-18.91 10.747-23.87 23.437l-19.88-11.34c4.99-10.314 8.65-23.599 4.31-31.816-3.5-6.93-7.92-7.195-9.28-.563-3.18 15.605-22.58 20.265-35.31 7.563-7.12-7.099-7.95-14.718-2.72-25 3.39-6.653 3.47-7.13 2.03-9.938-5-9.77 1.77-22.076 9.35-22.031zm-417.1 12.688v10.531l13.16-.063-.03-10.468zm419.53.875c-4.04.029-4.01 3.967-.28 8.75 3.32 3.366 3.97 4.911-.62 7.812-5.76 5.331-7.01 13.354-3.03 19.469 5.96 9.18 19.73 4.064 18.15-6.75-1.11-7.589 4.86-10.982 14.35-8.125 13.79 4.153 20.36 19.565 14.93 35.094-1.02 2.927-3.05 9.752-3.05 9.752l4.07 2.47s4.83-7.718 6.72-10.057c15.67-19.257 52.7-9.501 48.57 14.587-.63 7.56-.6 8.59-8.84 6.22-5.47-2.82-10.76 3.03-10.59 10.34.27 6.59 5.99 11.87 13.9 10.81 6.28-1.18 7.86-.96 7.41 7.5.64 5.89 2.84 9.79 6.69 11.78 9.35 3.86 14.16-1.46 6.69-9.28-4.53-4.74-4.26-12.06-1.41-18.94 3.4-8.21 1.63-26.27-3.59-36.464-7.53-14.68-28.57-20.831-46.19-13.5-8.06 4.306-8.94 5.3-9.72-2.25-4.42-18.723-18.5-32.87-36.06-34.125-6.75-.482-13.79-4.167-18.1-5.093zm-419.53 19.125v9.718h13.16v-9.718zm0 19v10.718h13.13v-10.718zm0 20.906v10.721s7.18-.2 13.13 0v-10.721zm428.63 17.191 14.37 21.25 15.91 1.06 1.87 17.16 24.13 15.03-20.91 13.09-.16 16.59-19.93 1.69-17.63 23.38-15-20.63-15 .06-3.53-18.4-26.56-13.47 27.25-15.53-.75-19.35 18.53-.12zm-428.63 2.53v11h13.13v-11zm0 20.15v10.88h13.13v-10.88zm420.56 8.1-20.59 27.4 27.75 22.94 22.06-27.72zm-420.56 10.97v11.9h13.13v-11.9zm422.69 1.43 14.31 11.07-10.22 12.96-14.22-10.84zm-422.69 20.57v9.96h13.13v-9.96zm-390.62 1.28c-25.3.11-49.24 41.09-54.97 60.5-6.78 24.86-7.79 69.83-1.35 71.09 22.68-16.32 33.43-43.98 50.47-64.69 2.65 23.95 2.23 70.14 2.23 70.14s-10.09 5.3-15.52 13.68c-3.92 6.97-5.18 15.3-1.83 23.06-12.61-4.1-35.45.53-36.75 23.81.82 32.79 36.61 28.17 36.75 27.72-.76-.2-7.05 34.87 24.72 38.59 11.4 1.34 31.45-6.97 25.5-38.87 20.05 3.31 37.34-7.73 37.56-27.03.25-13.22-9.79-24.59-27.09-24.66-3.61-.01-11.22 1.63-11.22 1.63.24-1.91 6.93-22.43-16.35-37.32l-3.65-94.9s8.03 8.75 11.62 12.06c15.47 14.24 25.56 21.41 43.41 30.81 17.37 9.16 15.22 6.9 12.22-10.5-8.21-26.13-25.37-45.87-61.66-70.56-4.67-3.18-9.41-4.58-14.09-4.56zm2.5 2.03 5.09 134.23-7.53-.01-6.47-134.1zm744.62 4.44c.67-.03 1.36-.01 2.06.06 16.38 1.38 20.58 19.68 13.22 27.81-2.91 3.22-3.91 3.91-2.4 5.88 7.02 8.9 3.1 22.96-3.85 25.12-22.09 6.87-25.44-5.21-25.37-19.44l-34.13-1.28.22-19.87 37.63.75c-2.84-9.03 2.59-18.65 12.62-19.03zm-760.44.21c.15-.01.29-.01.41 0 3.54.31-.1 9.76-9.97 24.16-6.67 9.74-15.94 26.91-18.72 33.84-6.07 15.17-10.16 42.38-6.09 37.38 3.67-11.37 4.03-16.11 7.19-24.28 4.15-10.66 23.56-45.71 27.4-49.16 3.29-2.95 4.14-1.14 4.06 8.72-.17 22.2-10.69 45.56-35.78 72.91-4.18 4.56-9.75 9.53-10.15 9.53-2.42-.01-2.36-5.04-2.31-15.6.16-41.94 15.73-79.39 39.68-95.5 1.88-1.25 3.29-1.91 4.28-2zm25.41 1.94c11.01 3.22 30.76 20.89 38.91 29.97 9.43 10.18 22.06 38.36 19.84 42.69-.74 1.9-2.33 1.6-7.84-1.5-35.03-19.72-60.11-44.02-53.54-51.88 1.84-2.19 9.37 2.33 19.44 11.69 6.85 6.08 13.86 12.24 20.13 18.41 9.84 9.69 12.05 11.11 6.12.34-5.32-9.67-20.42-25.9-38.69-39.69-7.42-5.6-9.11-10.12-4.37-10.03zm737.19 5.66c-.47.01-.89.08-1.22.22-6.89 2.9-4.09 11.83-4.75 18.68l-37.88-1.31-.21 5.25 35.53 1.94c.62 5.36-2.17 16.92 2.4 18.88 9.95 4.13 15.38-8.68 6.94-16.38-3.01-2.67-6.26-3.85 2.09-7.62 5.51-4.71 6.37-13.89 1.66-17.97-1.3-1.13-3.16-1.71-4.56-1.69zm-479.19 1.56-1.91 14.03-21.96 5.53-.57-15zm259.09 4.97c81.11 21.85 171.27 71.45 229.82 127.47l-11.72 7.69c-60.84-56.19-141.08-98.85-214.82-120.03zm-139.75 2.16c133.56-.37 255.32 51.55 353.57 135.4l-16.07 10.13c-89.62-74.08-188.91-123.49-322.5-129.38-87.31-3.85-186.95 18.54-285.15 72.56l-7.32-13.28c95.38-52 189.01-75.19 277.47-75.43zm-10.5 20.12 52.53 1.53-3.24 48.78-47.76-1.56zm-56.5 3.47 7.41 47.06-45.72 8.53-12.97-47.18zm166.29 6.22 52.18 13.9-17.22 47.97-45.81-13.06zm-83.6.69c-8.29 0-15 6.71-15 15 0 8.28 6.71 15 15 15s15-6.72 15-15c0-8.29-6.71-15-15-15zm0 5.18c5.53 0 10 4.39 10 9.82s-4.47 9.84-10 9.84c-5.52 0-10-4.41-10-9.84s4.48-9.82 10-9.82zm-103.62.1c-8.29 0-15 6.71-15 15 0 8.28 6.71 15 15 15 8.28 0 15-6.72 15-15 0-8.29-6.72-15-15-15zm0 5.19c5.52 0 10 4.38 10 9.81s-4.48 9.84-10 9.84c-5.53 0-10-4.41-10-9.84s4.47-9.81 10-9.81zm206.59 6.03c-8.28 0-15 6.71-15 15 0 8.28 6.72 15 15 15 8.29 0 15-6.72 15-15 0-8.29-6.71-15-15-15zm-290.81 1.75 15.47 45.9-44.29 17.94-16.59-45.34zm290.81 3.43c5.53 0 10 4.39 10 9.82s-4.47 9.84-10 9.84c-5.52 0-10-4.41-10-9.84s4.48-9.82 10-9.82zm86.75 11 46.97 24.82-24.28 43.87-43.78-22.81zm-393.25 3.97c-8.28 0-15 6.72-15 15 0 8.29 6.72 15 15 15s15-6.71 15-15c0-8.28-6.72-15-15-15zm177.44 1.44 2.19 46.34-41.6 2.94-7.56-46.06zm49.9 2.44 47.41 6.56-11.16 44.62-42.9-6.9zm-227.34 1.31c5.52 0 10 4.38 10 9.81s-4.48 9.85-10 9.85-10-4.42-10-9.85 4.48-9.81 10-9.81zm155.31 6c-8.28 0-15 6.72-15 15s6.72 15 15 15c8.29 0 15-6.72 15-15s-6.71-15-15-15zm-75.75 1.87 12.28 45.1-45.71 13.09-14.04-43.37zm165.97.72c-8.28 0-15 6.72-15 15 0 8.29 6.72 15 15 15 8.29 0 15-6.71 15-15 0-8.28-6.71-15-15-15zm-90.22 2.6c5.53 0 10 4.38 10 9.81s-4.47 9.84-10 9.84c-5.52 0-10-4.41-10-9.84s4.48-9.81 10-9.81zm90.22 2.59c5.53 0 10 4.38 10 9.81 0 5.44-4.47 9.85-10 9.85-5.52 0-10-4.41-10-9.85 0-5.43 4.48-9.81 10-9.81zm160.44.09c-8.29 0-15 6.72-15 15 0 8.29 6.71 15 15 15 8.28 0 15-6.71 15-15 0-8.28-6.72-15-15-15zm-81.16 4.38 45.82 15.66-18.29 42.81-43.84-16.69zm81.16.81c5.52 0 10 4.38 10 9.81 0 5.44-4.48 9.85-10 9.85s-10-4.41-10-9.85c0-5.43 4.48-9.81 10-9.81zm-344.63 1.6c-8.28 0-14.99 6.71-15 15 0 8.28 6.72 15 15 15 8.29 0 15-6.72 15-15 0-8.29-6.71-15-15-15zm0 5.18c5.53 0 10.01 4.39 10 9.82 0 5.43-4.47 9.84-10 9.84-5.52 0-10-4.41-10-9.84s4.48-9.82 10-9.82zm277.57 8.75c-8.29 0-15 6.72-15 15 0 8.29 6.71 15 15 15 8.28 0 15-6.71 15-15 0-8.28-6.72-15-15-15zm0 5.19c5.52 0 10 4.38 10 9.81 0 5.44-4.48 9.85-10 9.85-5.53 0-10-4.41-10-9.85 0-5.43 4.47-9.81 10-9.81zm-536.63 5.22c11.99.51 20.98 11.27 21.53 22.48.41 8.51-10.45 19.66-10.45 19.66l-12.64-11.71-12.14 11.19c-2.05.68-11.48-15.35-8.6-23.65 3.75-10.8 11.47-18.43 22.3-17.97zm681.13 0 36.28 29.69s-15.93 9.68-18.88 11.4c.36-1.29.53-2.65.53-4.06 0-8.28-6.71-15-15-15-8.28 0-15 6.72-15 15 0 7.1 4.97 13.08 11.6 14.63-3.73 2.14-8.69 4.9-8.69 4.9l-19.16-16.06zm-57.44 79.34-16.06 6.59c-98.79-64.89-233.94-100.4-388.44-35.06l-5.31-12.81c114.69-47.76 259.4-62.63 409.81 41.28zm-8.78-64.84 38.87 23.84-24.69 37.91-37.96-24.28zm-11.75 73.5-16.31 6.13c-120.6-77.49-249.13-73.36-363.97-26.91l-1.78-10.88c135.23-58.55 270.95-39.92 382.06 31.66zm80.9-60.78c5.53 0 10 4.38 10 9.81s-4.47 9.84-10 9.84c-5.52 0-10-4.41-10-9.84s4.48-9.81 10-9.81zm-701.66 17.77-13.41 13.53 12.24 13.76s-3.88 3.28-6.7 4.81c-16.05 8.74-33.6-5.06-32.76-19.96 1.22-21.7 27.38-32.05 40.63-12.14zm638.1-10.36c-8.28 0-15 6.71-15 15 0 8.28 6.72 15 15 15 8.29 0 15-6.72 15-15 0-8.29-6.71-15-15-15zm-583.82.61c11.94.09 21.21 9.25 22.35 19.79.92 8.41-3.46 16.48-12.88 22.2-12.79 7.75-27.64-4.8-27.39-5.58l10.79-10.65-12.97-13.26c-.37-.25 8.55-12.59 20.1-12.5zm-37.33 2.57 22.09 22.03-23.38 21.79-21.65-21.76zm582.65 58.63-12.41 5.69-16.9-10.19-5 9.59 9.4 5.97-9.77 3.67c-112.68-63.3-239.99-44.97-324.62-2.96 0 0 .73-6.51.78-6.51l9.21-4.7-3.44-11.66-4.94 1.44-.37-12.91c120.83-54.4 257.94-41.94 358.06 22.57zm38.5-56.63c5.53 0 10 4.38 10 9.82 0 5.43-4.47 9.84-10 9.84-5.52 0-10-4.41-10-9.84 0-5.44 4.48-9.82 10-9.82zm-621.62 7.88-11.79 11.72 11.72 12.5 11.44-12.1zm368.81 2.59-15.44.69.81 12.59 15.07-.37zm10.53.06.28 12.6 14-.06-.06-12.44-14.22-.09zm24.84.22-.68 12.53 13.9.63 1-12.47zm-60 1.6-15.81 1.72 1.75 12.65 14.97-1.75zm85.91.18-1.12 12.94 14.28 1.63 1.93-12.38zm-430.03.07 6.87 7.31-6.84 6.81-7.28-7.12zm317.47 3.84-15.25 2.41 1.62 13.03 14.88-2.94zm138.34 0-2.53 12.06 14.19 3.41 2.31-12.31zm-163.34 5.28-12.82 3.41 2.79 12.69 13.53-3.32zm187.68.5-2.68 12.25 14.47 3.94 2.9-11.75zm-208.84 6.1-13.4 4.74 3.46 11.76 13.63-4.6zm233.75 1.34-4.47 11.78 12.53 5.03 5.53-10.69zm-255.87 6.9-12.72 5.22 5.25 11.66 12.06-5.5zm-262.16.37 12.88 12.85 15.29-13.8c13.35 11.8 13.14 39.41-10.49 44.02-20.64 4.02-39.51-26.87-17.68-43.07zm541 2.48-4.91 10.81 13.85 6.1 4.78-10.41zm-394.88 69.37 174.69 296.91-27.62-.53-169.07-286.91zm-28.67 11.31 9.66 15.01c-18.92-15.06-46.72-2.39-45.55 16.59.93 8.48 8.1 13.63 8.13 5.47-.86-8.53 11.23-15.96 20-15.56 16.19.21 26.08 21.01 14.9 31.37-7.35 6.77-17.29 6.47-13.93-2.81.52-3.2.26-4.37-1.25-5.75-4.65-4.24-13.22 1.28-11.13 7.34 1.37 3.99 1.78 4.97-3 8.25-18.52 13.01-5.61 38.65 16.81 26.97 4.59-1.65 6.45-1.89 8.53-1.09 9.34 3.59 15.7-4.51 6.85-8.72-5.14-2.45-5.27-6.62-.31-9.94 10.59-7.07 27.08 3.98 27.03 18.13-.04 10-13.25 17.4-25.91 14.5-7.52-1.73-8.42 3.37-1.53 8.65 13.36 10.25 33.37 1.76 39.34-16.68 1.88-5.8 1.61-7.02 1.61-7.02l17.83 29.43s-5.53-2.61-8.87-3.63c-16.78-5.12-35.6 5.76-35.66 20.62-.03 7.01 4.12 9.72 6.44 4.22 5.4-12.79 17.15-17.77 29.22-12.38 11.16 4.99 16.26 16.3 11.9 26.38-4.56 10.56-19.88 13.67-18.15 3.69.82-4.76-2.08-7.66-7.19-7.19-1.94.18-4.42 5.8-3.75 8.5.62 2.53.18 3.14-6.38 8.25-15.57 12.14-3.59 31.96 15.85 26.22 3.26-.97 4.48-.88 7.4.53 7.04 3.39 14.42 1.28 14.44-4.12.01-3.72-1.66-5.14-6.06-5.16-6.67-.03-5.22-7.56 2.16-11.25 18.49-9.24 37.38 14.09 26.12 32.28-4.84 7.81-7.9 8.62-25.19 6.72-2.79-.31-4.05 1.6-2.39 3.87 5.12 7.25 20.34 9.55 29.2 5.54 9.57-4.34 15.4-15.26 16.07-26.92l19.55 34.13c-15.21-15.9-41.43-9.82-45.65 12.94-.02 5.77 5.24 8.78 7.07 4.03 7.9-20.54 37.96-14.24 37.87 7.94-.01 3.57-.71 5.59-3 8.72-5.52 10.64-19.62 13.27-17.06 3.72 1.14-2.96-1.12-6.17-5-7.1-3.82-.91-6.25 2.29-6.16 8.1.07 4.35.1 5.68.1 5.68-7.03 2.96-11.52 8.76-13.08 17.35l-136.83.31c16.27-94.84 12.45-180.48-18.66-261.47-2.68-7.02-6.54-17.23-6.54-17.23l24.15.64c5.82 5.05 27.84 3.09 36.44-4.72zm23.23 37.24 14.13 25.39c-5.85-3.35-11.8-5.57-20.9-6.34 4.75-7.05 5.12-13.37 6.77-19.05zm-37.15 26.99c5.15 0 9.31 4.16 9.31 9.31s-4.16 9.31-9.31 9.31-9.34-4.16-9.34-9.31 4.19-9.31 9.34-9.31zm97.44 75.83 13.61 24.23c-6.62-2.82-12.22-5.58-22.57-5.85 3.77-4.4 7.03-11.78 8.96-18.38zm-39.25 25.95c4.88 0 8.84 3.96 8.84 8.84s-3.96 8.81-8.84 8.81-8.81-3.93-8.81-8.81 3.93-8.84 8.81-8.84zm98.61 75.5 20.1 35.65c-7.9-4.52-16.41-10.26-27.09-9.16 5.08-10.85 7.85-16.77 6.99-26.49zm-26.73 44.48-21.56.07c4.31-18.84 21.74-13.94 21.56-.07zm20.39-9.09c7.33.38 13.66 2.88 17.62 9.27l-27.13.07s.19-9.37 9.51-9.34z" transform="matrix(.154104 0 0 .154104 -364.389 29.363)"/></g></svg>