<svg clip-rule="evenodd" fill-rule="evenodd" viewBox="0 0 228 316" xmlns="http://www.w3.org/2000/svg"><path d="m2314.12 600.582c0-5.867-4.77-10.63-10.63-10.63h-201.97c-5.87 0-10.63 4.763-10.63 10.63v290.551c0 5.867 4.76 10.63 10.63 10.63h201.97c5.86 0 10.63-4.763 10.63-10.63z" fill="#fff" stroke="#bfbfbf" transform="translate(-2088.828 -587.897)"/><g fill-rule="nonzero"><path d="m-1108.57 1129.14 147.786-277.021c-.017.065 36.668 13.59 79.507 24.201-39.809 107.274 2.454 247.73 2.454 247.73s-229.857 4.86-229.747 5.09zm-419.76-465.959c-9.88-116.928-11.41-229.981 6.82-323.853.34-1.504-54.25-32.23-48.67-35.889 8.53-5.6 114.77-62.491 114.77-62.491s7.26 4.025 13.48 3.322c4.86-.548 9.37-5.016 7.43-9.717-4.59-11.114-12.87-38.802-8.4-66.816 2.57-16.094 11.08-33.874 20-44.798 19.87-24.354 65.98-12.113 79.34-12.664 8.49-.349 33.14-90.33-7.89-106.52-11.31-4.46-36.46 57.055-18.36 70.599 2.73 2.037-36.32-20.027-66.19-33.117-2.77-1.213-15.01-10.421-17.88-22.722-3.57-15.345 45.05-45.491 35.25-62.726-14.29-25.106-50.87-62.484-66.24-51.943-14.48 13.378-49.09 40.77-48.65 59.246 11.27 33.008 39.01 35.006 53.92 66.187 3.71 6.734 30.81 34.906 30.81 34.906-9.89 15.482 6.68 42.165 7.4 38.049l-127.5-53.864s31.51 218.483 1.16 251.208c-3.22 3.462 27.07-8.886 27.61-7.021 9.38 11.596 112.58 75.602 142.17 98.69 51.29-73.214 69.95-105.381 136.37-170.569 14.6-12.339 47.21-34.945 65.7-61.875 14.85-21.638 20.84-45.888 17.92-64.628-3.77-24.233-6.12-40.82-21.32-59.996-35.11-44.302-90.64-86.316-89.68-87.104l18.64-15.51s68.54 55.384 97.75 96.355c19.69 27.603 11.35 59.599 28.12 65.122 4.03 1.329 31.44-1.264 40.47.364 1.09.197 201.327 138.179 165.396 146.665-49.743 11.748-129.346 5.327-129.346 5.327-57.39-54.771-84.99-72.686-118.63-54.95 0 0-84.91 75.935-133.75 135.193-27.82 33.771-50.9 75.903-69.47 103.046-7.15 10.457-99.17-75.995-98.13-65.517 14.58 95.055 23.56 209.661 13.96 287.532-6.45 66.131-15.5 137.177-19.22 198.14 0 0 15.24-4.606 26.93-.598 6.32 2.166 10.97 7.951 11.59 14.43 3.72 28.962-33.71 22.647-34.61 20.145.05-.026 21.35 44.505 21.35 44.505s-31.73 56.146-30.87 53.71c.54-1.509-29.95-49.197-29.95-49.197s22.28-40.387 25.05-48.775c1.66-5.032-32.61 16.967-35.63-14.315-3.03-31.537 37.42-23.526 35.65-19.623-5.58-64.676-17.19-131.482-24.67-185.943zm488.05 140.223c.89-.681-86.24-33.848-165.89-29.746-28.2-10.615-74.12-21.542-104.46-.834-34.62-22.882-64.58-48.163-95.01-73.202 8.44-.203 37.81-203.911 57.71-274.986-10.21-87.897 74.6-88.774 82.75-18.371 92.42 93.418 205.37 189.852 321.749 284.675-17.923 38.233-83.819 67.967-96.849 112.464zm192.852-624.73c-105.344-104.998-325.452-292.352-325.452-292.352l100.95-100.692c53.74 15.362 108.934 28.086 171.171 28.024.246.241 68.54 30.146 104.402-1.241l95.027 73.564s-36.789 205.839-58.934 277.785c.803 28.392-9.563 63.097-37.565 68.546-23.913 4.654-42.717-29.1-49.599-53.634zm207.805-248.244c10.125-66.895 11.824-115.526 18.5-193.512-46.831 14.277-46.898-49.029-.562-32.893l-21.917-46.885 31.089-53.429 29.641 50.083-24.545 44.962c52.079 1.981 40.056 50.412-4.895 39.252 9.28 74.535 28.726 149.718 28.643 223.507 17.421 118.15-16.677 283.198-10.685 287.036l51.144 34.329-5.814 257.536-80.543-34.221-23.677 16.348c7.826 15.065 17.727 29.483 21.2 45.907 0 0 55.705 44.767 48.201 58.996 3.58 2.045-38.63 59.19-51.219 57.917-24.034-2.43-52.448-33.071-60.374-55.037-7.017-22.1 49.074-44.46 41.788-60.604-8.716-19.311-30.276-28.405-49.362-33.899-26.31-7.574-38.539-28.19-39.742-28.177 0 0-9.276 82.396-19.162 75.926-39.765-26.025-13.703-110.285-6.354-108.028 0 0 17.282 3.768 37.667 5.456 71.834 6.716 65.996-81.398 51.617-123.92-3.6-10.088 1.851-10.225 1.466-10.352-3.344-1.108 11.602-.44 24.232-4.314 34.727-10.65 87.712-46.668 87.712-46.668-56.423-30.464-106.32-65.386-151.103-98.526 0 0-40.446 70.77-88.768 120.083-35.177 35.899-40.83 48.051-99.857 94.43-1.145.9-44.522 53.917-22.909 115.019 18.495 52.288 105.221 108.153 104.631 111.952l-16.77 16.371c.694.933-122.718-74.632-120.782-157.404-.171-3.124-55.748-3.585-55.748-3.585l-163.15-147.793 136.79-2.105 70.882 56.553 43.914 1.791c2.896 2.489 4.331-11.639 42.664-40.884 73.241-55.875 163.178-198.267 163.178-198.267s97.517 66.938 97.614 66.949c-5.974-102.091-23.671-211.75-14.635-299.9zm-357.652-478.804s-98.445 189.863-152.595 279.387l-78.35-21.518c31.76-87.167-1.41-252.264-9.69-256.339z" fill="#e2cf00" transform="matrix(.153866 .00170829 -.00170829 .153866 276.688 114.822)"/><path d="m5852.81-282.688 5.94 1699.818 1055.45-.68-3.03-1699.138zm733.57 1231.813c50.06-46.507 99.59-84.896 145.9-112.799 17.96-10.821 23.41-12.405 30.46-5.987 11.51 10.466 18.67 19.57 14.92 26.898-.85 1.652-3.56 4.395-3.56 4.395l-27.66-10.519 8.96 31.373c-24.89 10.13-24.44 37.048-.42 51.315l-16.53 38.022 38.42-16.905c1.47 8.289 28.87 28.326 45.92.007l34.7 16.928-11.96-42.471c11.39-10.852 18.03-28.195.12-44.177l8.25-33.271-31.34 10.195c-7.85-10.73-12.41-9.993-14.22-12.919-.53-3.997-.63-13.313-5.84-21.898-4.31-7.1-9.24-14.638-13.84-19.919-2.45-4.131-.5-4.48 12.02-11.246 5.88-3.178 10.73-6.393 10.73-6.393s61.67 30.926 86.83 42.703l1.43 569.543-338.27-.99c-38.04-113.52-10.71-211.64-.63-252.94-17.74-1.48-109.22-31.1-111.96-41.3 36.24-57.56 85.43-109.857 137.57-157.645zm-658.22 165.705c-44.12-14.24-44.57 38.87-22.03 42.99 5.85 1.07 11.95 1.94 21.09-1.01 2.27.47-26.43 44.53-26.43 44.53s22.98 41.73 33.99 59.46l34.74-61.63-22.72-42.64c35.57 18.12 53.98-35.85 16.64-42.91-9.03-1.22-18.99 3.29-18.99 3.29l19.63-184.593c15.83 10.755 44.71 32.322 44.71 32.322 6.57 101.701 1.76 186.451 58.63 334.411l.58 102.95h-195.25l-.75-537.494 34.16 24.445c.73 3.036-5.44 1.006-2.11 38.411 3.01 33.79 13.3 92.388 24.11 187.468zm701.04-1381.733c1.56 2.207 1.44 5.583 2.79 10.059 7.9 26.328 35.37 57.942 57.27 66.246 7.66 2.907 10.64 7.325 6.21 11.754-5.59 5.593-28.67-9.702-45.71-29.535-15.47-18.012-25.79-32.916-28.07-44.226-1.36-6.713-2.04-11.028-1.03-14.52 2.83-3.918 6.34-2.83 8.54.222zm27.3-2.847c2.9-.013 6.79 3.395 9.12 9.594 5.63 14.906 14.44 26.049 28.22 35.687 3.66 2.556 5.11 6.386 3.25 8.625-.68.829-1.58 1.237-2.6 1.52-10.74 3.001-39.04-29.738-41.3-50.062-.49-4.414 1.06-5.354 3.31-5.364zm35.22.406c5.72-.025 8.46 11.901 5.14 18.147-2.15 1.97-6.89-1.068-11.1-8.899-3.62-6.729-2.17-9.212 5.96-9.248zm-19.16.188c1.28-.04 3.93-.718 5.27 1.142 2.21 12.324 11.5 21.247 18.92 28.386 1.24 2.337 1.82 7.229-.9 8.501-6.5 2.877-26.06-19.355-26.19-32.217-.05-3.871 1.14-5.757 2.9-5.812zm-24.82 7.812c6.86 22.499 23.46 40.85 38.33 50.374 10.63 6.766 14.74 10.61 9.81 14.064-1.23.856-2.47 1.512-2.76 1.468-24.89-9.502-55.48-45.542-56.51-71.051 5.42-6.943 10.2.833 11.13 5.145zm-86.15 97.656c-13.09.018-29.12 2.998-42.14 8.905-18.11 8.221-22.66 13.684-20.01 15.664 1.9 1.393 13.56-3.608 19.41-4.368 31.54-7.807 53.25-9.724 73.81-.763 15.89 6.928 15.99 3.748 5.32-7.788-7.74-8.363-21.55-11.669-36.39-11.65zm111.2 17.291c10.44-.106 21.1 2.335 24.88 7.2 2.95 15.749-4.92 8.548-11.25 5.41-9.16-4.224-19.65-7.873-29.44-6.371-6.29.966-6.46.65-2.9-1.369 5.38-3.27 13-4.79 18.71-4.87zm-123.65 6.133c-29.84 2.316-40.17 17.402-59.44 32.963-7.91 6.017-6.11 10.673 3.54 9.094 11.9-1.95 16.7-1.483 32.94 4.061 17.72 6.052 30.43 8.56 40.17 4.817 18.42-7.077 16.84-5.899-9.5 19.601-14.1 11.318-8.41 10.725 5.87.926 10.55-8.426 17.8-13.797 20-18.415 1.07-2.244 1.17-10.284 3.16-10.283 6.69.002 3.24-8.358-2.85-11.906-4-2.849-3.11-5.831 2.07-11.31 8.13-8.552 5.37-12.42-3.46-7.091-1.55.843-2.32-1.77-7.71-5.021-8.52-5.142-15.71-7.536-24.79-7.436zm21.5 11.197c7.21 6.068 4.13 7.748-11.61 7.598-13.3-.126-24.62 1.271-40.42 6.509-17.94 5.948-19.04 6.1-8.5-2.879 14.5-12.352 43.95-24.743 60.53-11.228zm93.2-5.239c7.24-.156 13.35.871 18.86 3.909 15.03 8.284 18.38 15.466 1.64 9.611-10.49-3.674-24.67-3.156-34.46-.442-10.12 2.804-11.87 3.788-10.5-1.669 1.68-6.687 12.4-11.15 24.46-11.409zm-118.19 24.442c3.56 17.853 17.1 12.02 18.44 1.24l4.95.021c-2.1 14.335-21.63 26.333-29.21-1.259 1.6-.042 8.69.448 5.82-.002zm108.01.302 3.67-.117c2.43 13.687 15.15 18.164 20.68 1.042l4.44.093c-3.4 28.553-33.62 14.645-28.79-1.018zm-118.38 1.334c2.45.863 3.56 7.557 3.15 9.322-.85 3.659-12.81-.236-15.34-3.813 2.5-2.654 8.4-6.847 12.19-5.509zm162.63 3.041-.03 5c-5.52 1.322-7.82 4.421-12.97 3.406.29-3.195-.25-7.585 2.75-11.313 3.75-1.985 8.23.449 10.25 2.907zm-120.44 5.781c-2.51 1.971-5.94 2.187-5.94 2.187-.54-4.787-1.35-10.17 4.62-10.214 3.92 1.143 3.64 5.996 1.32 8.027zm68.87-7.938c2.1.148 4.56 5.368 4.85 8.407-.62 4.995-12.91 3.002-12.91-1.964 0-2.099 5.14-6.437 8.06-6.443zm-112.5 189.063c-9.49-4.745-81.45-48.474-99.89-125.804l-3.66 7.91c7.82 18.516 19.34 48.586 19.34 48.586-.48-2.591 2.94 20.145 10.28 58.745-3.89.045-8.19-1.061-12.42-2.19-9.49-35.34-11.74-63.042-19.71-97.622l-3.47 9.656s10.03 62.053 16.81 86.313c-3.88-.369-11.03-1.969-11.03-1.969-5.65-26.174-10.02-43.727-15.35-69.97l-4.9 6.345c7.04 21.541 9.77 40.801 13.32 61.437-4.83-.727-9.69-1.191-14.29-3.75 0 0-7.26-37.641-8.22-38.191-2.77 2.787-3.91 6.375-3.91 6.375-.29-.338 6.3 20.866 5.83 29.598-4.62-.761-12.64-3.071-18.29-4.969-2.96 1.967-4.5 5.242-6.77 8.186 2.78 11.978 167.89 37.905 157.99 28.001-.06 1.035 72.8 31.888 113.47 5.673 0 0 70.72 52.44 98.34 73.39 0 2.383 9.57 13.495 19.53 20.562l28 21.563c8.14 6.318 11.39 1.743 12.63-10.156 1.38-13.254 11.01-102.584 13.26-121.625 8.4-64.165 8.39-63.484-1.35-60.532-14.91 4.514-28.32-1.35-28.32-16.593 0-9.326 4.32-17.05 14.25-20.657 2.82-.964 6.5-1.05 10.72-.968 1.93.347 5.5.583 5.88.656 4.74-.267-18.38-42.125-18.38-42.125s22.09-39.366 32.72-54.031l28.59 51.812-23.41 45.703c45.6-3.423 41.14 53.899-3.5 34.705 0 0-.27 17.028-.18 15.78.43-4.875.36-9.037 1.91-9.952 43.24 16.388 52.06-46.679 5.45-43.772 7.67-13.369 16.22-27.191 24.19-41.926l-33.7-61.422-38.07 63.322 19.16 39.531c-4.31-1.118-7.77-.439-12.38.031-28.21 5.779-22.15 51.179 10.1 44.938 3.68-.714 9.22-3.5 9.22-3.5l-20.82 185.447s-2.05 1.664-10.4-4.354c-9.65-6.95-29.86-22.048-31.15-23.601 7.23-118.56-22.43-243.299-56.29-321.399-2.15-5.991-.88-123.615-.88-123.615l192.01.505.71 546.267c-10.04-6.356-20.9-14.719-31.22-22-3.09-2.504-5.01-5.474-3.68-10.25-3.4 7.262-1.35 10.377-1.35 10.377l42.4 33.873-1.68 537.604s-68.45-35.272-110.59-52.292c-19.01-7.757-19.86-5.522-19.86-5.522.06-.035 13.43 30.148 9.61 35.595 9.06 8.706 24.29 26.932 25.03 44.771 8.11 7.02 10.39 7.895 16.47 18.004l25.43-9.192-5.77 26.494c27.04 18.938 1 44.406-4.01 42.06 0 0 11.94 25.604 14.66 37.259-4.27-.291-25.69-11.906-31.66-14.656-15.52 30.544-41.72 4.91-41.93.406l-29.08 12.945 10.3-33.089c-18.72-11.387-31.37-28.601-1.1-47.135l-6.99-25.814 24.9 9.778s4.64-7.459 8.17-12.9c-9.31-40.545-70.54-32.876-90.2-69.343 0 0-4.84 45.523-9.78 61.995-1.94 43.54-32.44-.504-32.44-46.562 0-10.402 13.07-45.395 17.5-47.094 4.6-.639 48.3 20.487 77.65-.5 13.37-13.899 36.41-52.994 14.27-114.201-7.33-14.144 13.93-15.933 20.83-11.16 0 0 63.87-33.405 92.71-49.499-48.37-26.576-148.95-97.287-148.88-100.643-13.42 21.301-28.79 39.164-50.4 69.284-35.02 41.235-62.39 80.425-106.84 113.375-62.5 45.508-77.18 91.314-59.75 145.094 7.06 23.24 21.26 46.813 44.52 54.969 11.84 11.964 59.38 56.976 59.38 56.976-79.37 72.263-133.86 131.7-172.08 197.37 32.26 16.97 110.06 41.53 110.06 41.53-28.9 96.04-15.74 172.32 3.29 248.89 0 0-225.82.29-343-3.4-1.01.99-13.69.32-13.86-.49-.46-8.56 21.11-32.1 27.57-28.81 3.24-3.2 10.11-4.83 8.87-8.75-16.17-1.93-40.7 26-41.67 37.56h-9.64c-1.98-1.73 17.5-47.19 56.53-50.81-.41 1.63 5.24-3.54 1-5.75-45.5 5.39-66.69 55.87-65.34 56.56h-7.04c15.48-49.65 55.76-65.31 79.07-67.47.22-.1 7.56-2.65 5.59-7-51.52 8.95-77.2 31.24-89.59 74.47h-9.28c6.7-43.85 51.8-82.25 102.78-81 1.59-1.01 3.55-2.2 2.72-7.19-56.58 6.38-84.79 25.25-108.03 73.84-20.79-53.96-78.57-79.56-79.26-79.79 0 0-1.4-15.1 1.83-14.48 49.29 17.84 68.11-24.95 66.05-49.82-1.15-13.84-.37-21.46-5-41.41-4.13-17.78-7.18-29.76-6.85-37.49.32-7.64 2.72-9.18 8.36-11.74 10.57-4.79 17.18-22.13 14.83-24.26-5.43 12.62-19.78 14.79-26.39 23.27-5.28 6.98-2.95 18.1 6.45 56.7 5.73 23.52-1.06 12.7-14.43 5.34l-8.93-5.05c5.99 6.15 12.32 11.95 18.42 17.99 5.46 4.99 2.4 8.07-5.43 5.18-11.28-5.63-33.01-3.27-41.34 3.82-3.24 2.31-4.39 2.07-5.21-.06-3.65-59.95 2.66-96.82 22.51-141.87 12.84-30.62 31.95-53.55 57.44-55.18 25.69-2.13 62.62 6.87 96.16 29.65 39.39 26.75 77.78 67.44 81.86 117.35.16.58 3.03-4.27 4.33-6.83 1.81-5.93-4.77-23.75-15.03-44.41-1.9-15.54-7.24-42.78-11.44-61.22 3.19-1.45 10-.64 11.91 1.69 7.21 30.47 12.35 54.2 18.53 95.03.09 3.98 5.2-5.91 5.22-8.53-.89-6.09-17.9-85.98-17.56-84.16.1-2.71 16.14.86 13.93 3.38 0 0 12.2 67.01 13.07 64.94l4.12-5.69s-11.64-48.94-10.19-58.38c1-1.44 10.02 1.48 12.88 3.03 3.59 4.82 5.89 22.28 7.4 34.19 4.15 3.17 4.98-5.98 4.66-8.4-2.99-4.75-6.15-22.44-3.78-23.35 1.86-.71 12.2 3.39 14.19 5.16 2.33 2.08 11.34-10.4 9.05-12.56-48.77-18.68-110.31-29.58-156.61-30.32-10.76.04-15.03-1.47-31.54-7.43-42.02-15.18-76.77-.06-81.87 4.73-51.31-35.65-108.6-85.451-154.2-117.225-2.14-1.42-7.26-2.263-7.82-2.263-7.24 55.317-12.29 119.318-18.46 170.368-2.51 20.22-2.8 21.79-1.88 22.36.8.5 2.39-.31 3.02-.63 15-5.53 28.56-1.93 35.74 11.63 3.62 19.38-13.34 32.14-31.21 22.93-6.64-3.42-7.59-2.74-4.57 3.72 5.23 11.64 20.32 42.28 20.32 42.28.03.01-20.38 41.59-30.69 52.91-10.05-16.23-22.88-32.65-28.44-50.38 7.9-15.45 22.82-35.35 27.53-50.59-.67-.49-4.73-.07-7.56 1.41-26.08 12.34-30.27-10.9-29.93-19.25.71-16.98 15.5-20.59 36.98-12.67-23.22-154.234-28.17-242.113-22.24-232.602 0 0-28.04-20.044-41.98-33.642l-1.26-1123.21 335.5.505c34.2 91.69 24.79 201.952 4.34 259.366 36.31 6.638 72.99 15.212 114.43 39-70 102.627-179.9 213.548-298.93 284.562-6.75 3.045-28.92-10.779-31.52-24.436-.6-3.173 1.16-9.426 4.72-9.31 8.75 2.838 17.22 6.736 25.76 10.217 0 0-11.89-29.846-6.15-34.379 3.73-2.453 6.79-4.5 9.18-7.025 8.55-11.035 7.86-23.562-1.18-33.178-3.65-3.817-7.9-6.451-10.02-7.422 0 0 8.39-23.285 12.6-34.262l-33.03 10.925c-10.7-14.825-30.36-26.358-44.89-4.286-2.78 5.884-2.2 4.98-22.65-4.066-11.59-5.127-18.73-7.754-18.73-7.754 4.34 12.941 10.03 25.095 15 40.074-22.76 14.506-17.57 38.972 1.58 46.27l-10.09 33.047s21.52-8.019 33.18-11.134c0 0 10.23 10.279 13.26 20.041 5.2 16.747 17.01 28.888 24.48 35.803-12.44 9.12-18.59 12.192-32.6 18.928l48.38 19.544c-3.01-10.226-9.42-17.818-10.07-30.753-.57-11.082-1.2-11.286-8.36-18.786-11.72-10.107-13.49-23.631-20.07-34.672-4.59-2.772-8.25-8.327-11.67-14.606-7.37.697-24 8.963-27.14 6.001-3.86-4.119 6.69-25.223 5.52-27.329-8.49-.727-32.28-19.266-3.95-39.919l-9.04-33.589s21.57 9.426 31.91 14.703c7.18-33.562 39.93-17.467 45.22-2.999 0 0 25.96-8.533 24.35-1.609-.72 6.217-4.94 21.727-4.94 21.727 23.34 20.663 18.51 30.808-.45 44.359-.29 10.954 4.31 27.982 4.31 27.982s-13.2-5.863-21.9-8.326c-3.48 3.481-7.44 9.77-6.78 13.009 5.9 26.118 38.11 33.39 85.83 60.085 1.64-16.875 13.28-39.94 14.6-60.188.82-14.766 1.33-14.999 11.72-10.281 27.35 19.748 19 74.018 9.03 96.281-5.9 12.605-6.87 12.28-18.34 8.625-15.89-5.061-43.98-3.022-59.44 2.219-21.37 8.752-31.45 56.422-31.69 70.906-.37 13.759.69 27.407 7.91 44.407 2.99 10.875-2.51 19.258-12.31 16.343-2.2-.653-7.44-2.656-7.44-2.656l-92.25 47.719 17.38 10.223s-12.81-7.646-4.87-11.79l79.09-41.274c14.74 5.749 12.76 6.922 22.32-3.033 5.72-5.888 8.52-6.005 16.18-5.27 46.63 4.475 67.29-2.315 75.35-21.856 1.21-2.933.75-2.831 5.51-5.235 8.82-3.429 12.97-9.635 13.42-17.424.29-5.105 2.51-5.802 6.4-9.37 7.25-6.661 8.72-15.012 4.15-23.594-2.15-4.038-3.79-5.311-2.9-9.502 1.5-7.019-1.1-14.329-7.84-22.063-7.77-8.902-7.71-7.396 6.9-21.013 28.72-27.297 54.03-48.192 81.96-72.89 19.1-16.897 17.04-15.688 24.48-7.957 27.37 28.461 38.11 72.837 25.78 111.86-.58 1.833-.84 1.624.6 0 7.74-8.777 7.96-52.947 1.34-72.531-8.06-24.068-15.88-36.6-42.56-60.165-16.65-15.04-61.98-58.451-61.98-58.451 65.94-57.181 136.97-128.258 176.79-193.603-20.44-21.915-115.18-42.124-115.18-42.124 11.79-24.465 35.12-134.372-4.82-256.239l340.38 3.932 12.11.82s1.82-.697 2.79-.951c3.26-.853 4.89 1.445 4.1 5.093-2.5 9.301-16.15 31.077-25.79 29.278-4.29-1.666-3.08 6.587-5 10.022 15.18-1.968 32.98-21.203 37.44-40.268 2.45-4.004 4.03-4.68 6.47-3.907 2.81.891 2.1 3.562-.93 12.782-9.51 23.062-28.79 44.492-51.2 42.351l-2.9 7.867c30.23-.488 53.61-28.831 60.51-50.031 4.83-12.603 5.01-14.311 9.86-13.094 4.01 3.71 1.53 9.038.17 13.423-15.2 48.555-56.94 61.532-77.73 59.421-2.5-.312-2.94 2.035-2.19 6.031 44.66 2.948 80.23-35.52 85.25-68.531 2.45-9.167 6.7-12.296 9.14-8.108 1.38 3.696.92 7.467.25 10.987-12.21 52.109-67.75 81.697-101.7 73.246-1.57-1.466-4.13 5.736-.43 8.307 68.52-2.585 89.68-37.943 105.31-69.182 18.64 28.119 33.88 57.117 78.56 74.154 0 0 4.45 9.813.94 12.013-1.85 1.16-4.68.621-8.78-.042-54.46-8.794-72.46 42.098-49.29 118.125 6.35 20.817 3.51 17.63-10.06 30.656-6.46 6.209-9.54 17.216-7.84 17.469 2.32-1.308 3.09-4.873 8.75-9.562 2.46-2.042 7.52-3.991 11.25-6.563 10.07-5.841 9.98-9.838 6.36-23.647-2.69-10.268-9.53-41.497-9.54-44.665-.02-5.984 1.4-5.353 8.89.009 10.45 7.748 16.37 7.193 3.73-2.732-4.9-3.847-8.08-6.842-9.56-8.999-2.01-2.933-.77-4.829 3.31-3.55 18.76 5.881 34.87 5.453 53.08-5.63 2.09 50.152-4.81 126.244-46.84 180.652-32.23 36.199-93.95 8.808-116.78-2.625zm49.38-115.25c-1.25.057-5.75.987-8.53 2.58-12.38 7.087-9.43 32.228 4.08 35.576 5.43 1.346 10.37 2.085 19.5-2.272 5.44-2.595 13.05-4.625 15.18-3.732 4.49 1.874 5.91-2.091 6.87-6.558 2.14-9.995-14.25-10.233-27.3.098-16.46 13.035-29.07-6.202-13.57-20.688 5.18-3.338 5.02-5.062 3.77-5.004zm-127.85 53.796 13.82 15.975 8.69 38.073c-5.27.895-11.66-2.032-11.66-2.032-4.31-17.223-8.52-34.463-10.85-52.016zm188.25 9.579c-.14.017-.3.053-.46.125-.59.256-3.16 1.416-6.72 1.812-2.06.229-5.16-1.231-7.38-1.093-6.05.375-11.7 2.156-13.22 2.781-1.86.769-3.69 1.092-5.28.156-4.51-2.66-17.66-1.908-21.65.438-4.74 2.012-10.06 2.039-13.94.031-1.67-.866-3.39-3.051-3.69-2.75-.62.618-3.14 11.395-3.9 15.562.02 1.467-1.02 3.909-.41 4.157.77.314 3.25-1.938 6.31-3.5 6.28-3.203 13.3-2.956 25.63.062 15.21 3.725 21.14 2.645 30.12-1.937 7.15-3.648 11.5-4.524 16.25-3.219 1.17.322 4.29 1.942 4.72 1.531.84-.808-1.46-5.318-3.44-9.781-1.43-3.229-1.95-4.496-2.94-4.375zm-164.16 17.181c13.36 12.661 12.36 11.576 20.79 17.839l-.41 12.199s-10.33.231-15.4-1.344c-1.6-4.747-8.56-28.571-4.98-28.694zm109.93 8.197c.91.622 2.22 1.276 4.03 1.894 21.28 7.978-.97 5.967-3.09 13.567 0 .684.97.791 2.01.38 7.3-2.87 25.14-4.726 33.25-3.157 10.53 3.553 11.19 1.098 1.07-4.187-7.41-2.917 1.57-4.903 4.6-7.456 6.27-4.039 1.95-5.704-6.04-1.87-8.01 3.838-22.26 3.777-28.75.138-2.88-1.459-5.67-2.818-7-2.902-2.72-.109-1.28 2.736-.08 3.593zm-83.75 13.668 12.45 9.735-12.74-1.224zm-282.05 244.613c-2.51 0-4.56 2.047-4.56 4.562s2.05 4.563 4.56 4.563c2.52 0 4.56-2.048 4.56-4.563s-2.04-4.562-4.56-4.562zm16.62 4.604-57.11 27.116 15.09 5.054-.12 15.625 13.9-4.433 5.9 14.594zm2.54 12.769c-2.52 0-4.57 2.048-4.57 4.563s2.05 4.562 4.57 4.562c2.51 0 4.56-2.047 4.56-4.562s-2.05-4.563-4.56-4.563zm-72.42 27.749c-2.51 0-4.56 2.016-4.56 4.531s2.05 4.563 4.56 4.563c2.52 0 4.57-2.048 4.57-4.563s-2.05-4.531-4.57-4.531zm17.56 8.487-64.12 29.451 19.01 5.776-5.02 19.567 15.48-6.5 8.64 13.134zm1.89 14.017c-2.52 0-4.57 2.047-4.57 4.562s2.05 4.563 4.57 4.563c2.51 0 4.53-2.048 4.53-4.563s-2.02-4.562-4.53-4.562zm-127.22 2.934c24.11-.032 51.15 9.142 60.38 29.781 2.45 10.318-7.69 16.462-29.35 10.523-35.8-9.817-42.48-10.921-36.53-4.836.79.802 2.36 2.768 7.72 4.594 13.49 4.596 39.59 9.913 46.63 9.188 9.62-1.277 16.27 3.201 13.87 11.218-2.73 9.107-15.22 12.833-34 10.188-19.45-2.74-30.16-4.982-36.62-6.938-8.3-2.509-8.59-2.294-4.66 3.532 2.05 3.033 2.25 5.462 5.28 6.031 12.84-.725 26.52 1.733 38.31 2.844 21.17 1.894 24.49 7.895 8.94 17.062-7.37 4.346-29.41 3.155-41.94-1.354-8.95-3.223-29.47-7.829-21.56-1.583 1.9 1.5 1.25 5.184 4.56 6.343 10.86 1.497 41.55 3.648 46.34 7.989 3.09 2.797-3.86 9.896-18.19 13.602-21.57 4.087-53.81 2.381-62.33-3.434-15.77-32.115-7.29-84.674 17.4-105.219 7.88-6.163 21.29-9.513 35.75-9.531zm141.38 16.748c-2.52 0-4.54 2.048-4.54 4.563s2.02 4.531 4.54 4.531c2.51 0 4.56-2.016 4.56-4.531s-2.05-4.563-4.56-4.563zm19.04 4.868-66.2 32.968 16.74 4.974-3.97 19.263 15.52-6.393 9.39 12.96zm.51 16.134c-2.51 0-4.56 2.047-4.56 4.562s2.05 4.563 4.56 4.563c2.52 0 4.56-2.048 4.56-4.563s-2.04-4.562-4.56-4.562zm38.5 38.875c-29.36 28.568-62.44 51.201-92.66 78.945l6.54-.264 16.47-14.85 463.75-1.456-10.83 15.815 4.56 1.957s13.91-20.562 12.96-21.506c-101.89.291-180.54.056-292.31.827-20.37-20.176-41.89-39.082-63.19-58.25zm-140.96 18.32c-2.52 0-4.57 2.047-4.57 4.562s2.05 4.563 4.57 4.563c2.51 0 4.53-2.048 4.53-4.563s-2.02-4.562-4.53-4.562zm605.43 3.487c40.06 29.73 87.53 66.191 126.92 87.835 15.77 6.853 14.24 9.189-1.79 16.764-15.75 9.794-41.97 22.412-63.84 33.437-9.48 3.581-13.62-1.085-20.34.157-4.85 1.235-6.24 2.147-9.13 5.968-4.74 6.266-3.44 6.05-28.78 4.907-25.56-1.154-36.1-.584-41.59 2.218-5.29 2.695-14.35 11.901-14.35 15.719 0 3.675-2.89 8.388-8.15 9.969-6.13 1.489-13.21 6.343-12.91 13.875-1.64 5.671-5.11 8.183-8.19 11.29-7.28 7.35-6.55 13.131-4.45 19.955.98 3.06 2.46 2.347 1.7 11.389-1.73 20.713-3.15 18.966 19.01 34.295l-113.22 98.652c-2.62 2.065-3.4 1.86-5.78.217-13.81-10.25-23.42-27.193-28.96-44.142-19.12-52.69 4.23-95.975 35.27-122.462 10.76-9.178 25.21-20.121 29.22-22.872 58.46-49.85 109.3-120.448 149.36-177.171zm-588.53 3.857-64.73 30.56 20.85 3.512-3.99 18.01 15.1-5.722 7.99 15.18zm3.95 14.283c-2.51 0-4.56 2.047-4.56 4.562s2.05 4.531 4.56 4.531c2.52 0 4.53-2.016 4.53-4.531s-2.01-4.562-4.53-4.562zm593.07 20.038-7.35-17.376s-20.45 50.356-24.77 67.421c17.32-8.927 68.06-34.757 68.06-34.757l-21.71-4.028 2.45-19.721zm-739.33 3.108c-2.51 0-4.56 2.048-4.56 4.563s2.05 4.562 4.56 4.562c2.52 0 4.57-2.047 4.57-4.562s-2.05-4.563-4.57-4.563zm19.83 4.157s-48.16 22.6-69.9 32.351l20.3 4.252-3.57 19.736 18.32-7.145 7.39 19.505zm2.58 14.907c-2.52 0-4.57 2.048-4.57 4.563 0 2.514 2.05 4.531 4.57 4.531 2.51 0 4.56-2.017 4.56-4.531 0-2.515-2.05-4.563-4.56-4.563zm681.53 3.28c-2.51 0-4.56 2.016-4.56 4.531s2.05 4.563 4.56 4.563c2.52 0 4.53-2.048 4.53-4.563s-2.01-4.531-4.53-4.531zm78.75 4.123-22.93 63.704 62-31.21-16.83-4.596.09-15.758-13.85 4.031zm-732.66 15.315c-2.51 0-4.56 2.047-4.56 4.562s2.05 4.563 4.56 4.563c2.52 0 4.56-2.048 4.56-4.563s-2.04-4.562-4.56-4.562zm678.06 1.158c-2.52 0-4.53 2.048-4.53 4.563s2.01 4.531 4.53 4.531c2.51 0 4.56-2.016 4.56-4.531s-2.05-4.563-4.56-4.563zm-659.05 4.67-65.69 32.045 20.39 4.777-2.24 20.509 16.58-9.412 9 18.703zm4.11 13.549c-2.52 0-4.31 2.048-4.31 4.563 0 2.514 2.04 4.531 4.56 4.531 2.51 0 4.53-2.017 4.53-4.531 0-2.515-2.27-4.563-4.78-4.563zm683.11 4.029c-2.52 0-4.57 2.047-4.57 4.562s2.05 4.532 4.57 4.532c2.51 0 4.56-2.017 4.56-4.532s-2.05-4.562-4.56-4.562zm-90.52 20.953-6.11-17.149-24.3 62.888 65.36-29.939-20.74-4.866.36-16.422zm-66.41-13.539c-.75-.04-1.41.167-1.41.656 0 1.453-16.7 17.774-16.7 17.774l-192.9 1.781c.39.028 16.05 4.361 16.05 4.361 25.31 20.218 64.96 56.079 64.96 56.079l47.89-1.909c26.52-26.035 66.37-45.833 84.14-77.992-.43-.434-1.28-.71-2.03-.75zm180.82 12.965c-2.51 0-4.56 2.047-4.56 4.562s2.05 4.531 4.56 4.531c2.52 0 4.54-2.016 4.54-4.531s-2.02-4.562-4.54-4.562zm-148.91 21.956c-2.51 0-4.53 2.016-4.53 4.531s2.02 4.562 4.53 4.562c2.52 0 4.56-2.047 4.56-4.562s-2.04-4.531-4.56-4.531zm97.93 6.584c13.83-.07 27.15.406 30.59 3.036 21.38 17.994 11.25 102.112-15.69 112.732-29.56 6.654-50.01 7.887-75.67-9.037-7.28-3.545-21.71-14.269-18.9-23.119 3.85-10.879 14.42-10.087 44.72-.656 11.06 3.442 17.15 2.748 19.97.594 2.64-2.012-.81-4.261-6.47-4.282-2.27-.008-12.07-2.424-20.25-4.937-11.53-3.548-14.85-4.59-22.31-5.031-12.54-.743-16.19-1.235-16.19-8.907 0-14.326 19.93-16.222 56.6-7.812 4.38 1.005 12.33 2.12 14.28 2.062 1.41.539-2.79-4.746-3.5-7.906-1.32-1.128-3.69-1.664-9.94-1.875-23.58-2.313-43.15-3.912-43.58-7-2.08-15.165 28.42-19.292 60.05-7.125 8.12 3.124 8.28 1.831 8.22-.531-.12-4.37-13.71-11.999-33.77-11.79-19.5.203-16.78-9.709-.75-17.157 5.49-2.545 18.76-1.188 32.59-1.259zm-75.43 16.255c-2.51 0-4.53 2.047-4.53 4.562s2.02 4.563 4.53 4.563c2.52 0 4.56-2.048 4.56-4.563s-2.04-4.562-4.56-4.562zm-70.28 31.473-4.13-16.995-26.54 66.129 67.04-34.134-22.11-4.152 1.94-13.915zm-34.16 26.554c-2.51 0-4.56 2.047-4.56 4.562s2.05 4.563 4.56 4.563c2.52 0 4.53-2.048 4.53-4.563s-2.01-4.562-4.53-4.562zm66.78 18.759-5.64-16.067-22.54 57.562 57.2-25.549-16.89-4.612 2.4-17.442zm-45.53.169c-2.51 0-4.56 2.048-4.56 4.563s2.05 4.562 4.56 4.562c2.52 0 4.53-2.047 4.53-4.562s-2.01-4.563-4.53-4.563zm14.65 21.987c-2.52 0-4.57 2.016-4.56 4.531 0 2.515 2.04 4.563 4.56 4.563 2.51 0 4.53-2.048 4.53-4.563s-2.02-4.531-4.53-4.531zm-28.75 13.478-19.3 54.522 53.74-26.018-15.7-5.174s.86-12.26-.62-11.692c-.94.36-11.05 3.183-11.05 3.183zm47.84 6.522c-2.51 0-4.56 2.016-4.56 4.531s2.05 4.563 4.56 4.563c2.52 0 4.56-2.048 4.56-4.563s-2.04-4.531-4.56-4.531zm-71.25 26.228c-2.52 0-4.57 2.047-4.57 4.562s2.05 4.563 4.57 4.563c2.51 0 4.56-2.048 4.56-4.563s-2.05-4.562-4.56-4.562zm20.54 21.093c-2.51 0-4.56 2.017-4.56 4.532 0 2.514 2.05 4.562 4.56 4.562 2.52 0 4.56-2.048 4.56-4.562 0-2.515-2.04-4.532-4.56-4.532zm-283.48 251.094c-2.46.37-8.86-5.48-10.1-8.22 3.65-.93 7.41-.25 9.45 1.46 1.69 1.6 2.88 5.71.65 6.76zm19.46-3.94c-.86 6.66 3.26 18.71 2.48 21.56-2.12 1.04-12.81-10.43-15.44-13.21-.55-3.81.04-8.64.25-10.83 3.68-.65 10.19-.4 12.71 2.48zm19.26 3.32c2.28 14.76 8.78 38.49 7.76 46.49-.96-.77-9.21-8.89-15.29-17.51-2.14-5.17-5.48-23.13-5.19-31.74 4.1-.56 9.61.1 12.72 2.76zm-128.99-1.67c-6.57 3.36-14.05 5.77-23.43 5.73-7.52-.03-20.48-3.93-19.17-2.97 3.43 6.13 12.37 2.91 12.55 6.91-2.23 3.96-8.18 3.59-11.14 7.38-.62 1 .88 1.85 5.07 1.41 12.71-5.77 29.32-5.66 44.51-.67 3.2.67 1.1-2.39.02-3.2-1.98-1.45-5.24-2.97-7.98-3.3-13.28-2.36-7.45-3.7 1.43-7.66 6.52-2.39 8.16-8.25-1.86-3.63zm28.77 18.76c-1.77.14-6.19 2.38-11.03 4.34-8.18 3.31-15.75 2.54-26.75-.53-9.56-2.66-13.04-1.92-22.56 2.87-6.31 4.05-13.22 5.18-18.22 2.35-6.48-3.68-6.44-2.42-3.23 6.69.8 2.27-.78 9.16 2.04 10.75 2.14 1.21 4.62-2.82 6.28-3.38s12.09 4.12 17.91-1.03c10.38-3.76 13.49 2.34 20.68 1.75 11.68-4.11 18.98-8.4 29-.46.6-2.97 2.93-19.22 6.66-23.07-.1-.22-.37-.31-.78-.28zm-21.26 46.78c-8.4.1-12.95 5.26-23.78 4.27-8.65-.6-11.61 7.07-7.94 12.66 2.58 3.94 6.03 4.66 17.82-.74 4.85-2.23 11.59-7.11 15.53-6.72 11.54 1.15 14.33 12.3 4.72 21.72-4.67 2.75-4.71 5.73-3.29 5.78 3.8.15 11.49-4.39 13.23-9.67 4.78-14.48-3.81-27.56-16.29-27.3zm37.68 66.71c-10.93 2.31-26.68 14.85-32.03 22.97-5.01 7.91-9.81 16.86-6.31 21.27 2.87 3.63 6.89 7.15 7.23 9.11.3 1.72-2.04 3.42-4.23 5.87-9.6 10.73-7.32 11.32 6.14 4.36 6.81-3.53 9.99-4.95 14.44-3.79 12.96 3.38 29.11.97 40.09-3.06 4.96-1.82 9.81-4.29 10.19-3.03-20.04 22.04-45.02 16.49-53.94 15.15-1.55-.4-2.75-.31-2.75.22 0 1.07 2.58 3.4 8.09 5.85 9.21 4.08 31.33-.26 45.16-10.35 27.35-17.89 42.42-34.98 20.87-27.84-9.88 3.27-13.59 2.7-25.59-2.72-17.99-8.13-31.78-10.51-46.69-5.31-18.88 6.58-4.4-8.98 16.85-22.47 4.6-2.93 5.17-6.28 2.48-6.23zm-101.85 46.51-6.3.09c-4.5-15.16-15.38-15.13-20.09.1l-5.26-.37c5.15-18.91 24.61-22.8 31.65.18zm112 1.25-4.73.22c-2.86-9.19-12.98-17.27-20.1-2.22l-3.28-.67c5.82-24.05 29.04-10.67 28.11 2.67zm-31.54-13.81c2.95 0 3.69 3.34.34 8.78-2.35 3.83-5.15 3.48-7.97.59-2.53-2.54-2.38-2.99.38-5.5 2.94-2.68 5.48-3.88 7.25-3.87zm34.84.09c1.28-.04 3.72 1.02 6.45 1.94 7.18 2.42 8.81 4.43 5.87 7.37-2.89 2.89-8.38 3.77-10.91 2.12-.12-3.61-3.69-6.39-3.82-10.02.01-.97 1.13-1.37 2.41-1.41zm-112.47.12c4.98-.22 11.66 2.72 11.17 5.6-.53 3.14-5.44 5.19-9.49 5.53-2.71.36-2.6-.74-3.31-2.67-.63-1.71-1.45-3.91-1.92-5.62-1.11-3.3 1.01-2.74 3.55-2.84zm-34.03 1.1s-2.79 8.29-4.04 11.12c-10.42-.55-9.43-5.15-4.51-8.47 2.64-2.01 5.32-2.05 8.55-2.65zm-8.09 19.72c1.88.03 4.23 1.66 7.5 2.72 9.22 2.97 24.55 2.63 36.5-.13 5.72-1.32 8.43-3.09 9.69-2.19 2.24 1.62-.08 7.28-8.35 10.91-10.76 3.97-27.18 6.13-39.62-.22-10.64-5.42-11.82-11.2-5.72-11.09zm-2.84 11.87c9.75 6.45 19.52 8.48 31.59 7.36 18.07-.66 21.29-2.89 6.06 5.17-14.07 7.46-35.76 6.08-39.93-2-2.4-4.63-.85-10.14 2.28-10.53zm87.56 10.81c-.07 0-.11.02-.16.04 1.46 9.75 17.83 18.67 25.69 20.78 16.67 7.39 43.18.07 63.13-8.53 14.56-6.29 19.82-15.77 2.46-10.38-27.92 8.67-62.97 9.33-80.52 2.59-5.71-2.7-9.62-4.54-10.6-4.5zm-91.88 36.52c34.94 7.88 77.17 61.77 77.01 85.33h-11.28c-17.18-59.94-61.8-72.91-66.16-76.49-2-7.35.51-9.02.43-8.84zm-.56 15.18c41.53 18.19 56.3 50.64 62.52 70.15h-12.14c-9.05-26.84-25.31-45.99-50.47-57.91-1.71-3.73.09-12.24.09-12.24zm-.06 18.37c21.28 6.27 40.04 34.28 45.37 51.78l-10.62-.06c-7.53-19.53-18.2-32.04-35.16-39.25-.7-3.68-.56-7.84.41-12.47zm-.34 19.03c9.99 2.01 26.91 17.54 29.34 32.75h-9.75c-3.44-10.25-14.07-19.62-19.52-23.44-.01-1.86-.07-9.31-.07-9.31zm1.02 16.24c1.08-.67 15.99 12.76 13.48 16.51h-13.44c-.16-4.18-.25-16.56-.04-16.51z" fill="#131f67" transform="matrix(.153876 0 0 .153876 -868.733 70.55)"/><path d="m6452.94-269.094c-25.33 49.053-155.27 269.973-156.59 277.661l33.28 14.718 161.56-291.254s-33.48-1.089-38.25-1.125zm381.47 184.5-15.1 21.219 12.85 23.281 13.03-23.031zm-593.58 221.657s-46.6 46.294-64.81 67.887c39.14 39.054 113.96 88.093 114.51 163.551l51.58.197 166.97 149.337s151.2 1.101 154.02.446c3.04-.707 56.76-77.606 56.76-77.606l95.81 69.852s-4.59-75.231-8.21-121.328c-1.19-30.834-2.21-49.797 20.33-63.443-30.97-14.762-29.01-41.897-6.24-61.826-7.51-10.385-18.74-12.305-20.43-49.13-4.73-5.082-9.22-8.062-15.15-12.375l-6.19 5.531c-19.88 17.848-33.42 36.054-35.66 47.907-4.24 22.559 18.67 38.012 31.91 21.531 3.73-4.645 7.06-3.344 7.06 2.719 0 12.3-15.47 19.247-28.56 12.843-3.06-1.496-5.76-2.491-6.03-2.218-.47.473 12.99 33.446 16.62 40.718 6.06 12.1 9.23 24.251 9.69 36.969.5 13.58.23 15.318-6.12 38.781-5.99 22.105-3.17 35.25 7.53 35.25 6.02 0 5.83 5.786-.25 7.907-12.93 4.506-20.95-5.022-21.41-25.375-.27-12.371-.49-12.675-6.84-9.688-22.11 10.392-46.12-8.185-35.72-27.625 2.19-4.084 4.77-2.796 6.12 3.031 2.55 10.936 8.28 15.758 18.63 15.719 23.86-.089 33.86-33.803 20.09-67.75-2.76-6.814-4.15-6.426-7.78 2.188-5.69 13.512-15.23 17.49-23.09 9.625-2.64-2.637-3.91-6.915-2.13-7.125.42-.049 3.04-.162 5.82-.25 13.9-.446 18.7-13.933 12.18-34.219-5.72-17.825-6.6-21.056-8.31-30.719-2.63-14.93-.79-26.264 6.59-40.75 1.31-2.559 9.46-11.669 19.6-21.906 10.35-10.452 19.25-18.469 19.25-18.469s-5.23-4.512-12.33-9.844c-14.95-11.231-17.6-13.165-17.6-13.165s-71.05 195.094-66.01 271.103c-9.02 100.148-82.64 72.442-88.06 3.083zm-3.17 29.25c24.28-.404 40.29 31.71 49.43 98.343 3.03 22.081 16.49 53.005 26.25 60.313 24.64 18.44 63.19 4.229 63.22-23.313.04-34.287-48.1-39.369-48.84-5.156-.18 8.064-4.32 8.484-8.28.813-3.54-6.844-.35-19.635 6.53-26.094 4.41-4.14 4.06-4.921-4.35-9.563-29.28-16.167-41.74-40.276-26.09-50.531 6.85-4.484 16.2 1.185 11.91 7.219-6.71 9.428-6.8 10.921-1.19 18.75 6.37 8.898 13.93 13.339 31.84 18.625 15.05 4.438 17.52 5.27 24.47 8.437 20.34 9.27 29.63 29.681 22.53 49.5-1.67 4.675-3.3 9.288-3.62 10.25-.73 2.175.46 2.187 14.78.282 22.78-3.033 48.09 5.105 60.56 19.468 6.71 7.721 12.08 25.078 12.25 39.563.04 2.789.89 9.089 1.94 14s2.43 13.212 3.06 18.437c5.96 49.57 47.23 74.923 65.06 39.969 11.23-21.997-14.72-44.001-27.93-23.687-4.64 7.134-9.42 3.854-6.75-4.625 5.19-16.477 25.77-19.28 39.78-5.407 7.58 7.502 11.21 24.517 7.53 35.313-1.93 5.665-1.73 6.025 2.47 4.562 9.42-3.282 25.69-.123 31.53 6.125 13.76 14.722 11 32.396-5.94 38.125-7.7 2.58-16.42-.101-19.28-9.125-1.25-6.432 3.18-8.283 6.59-2.75 6.41 10.364 20.36 2.01 17.07-10.218-3.75-13.914-15.64-16.868-37.6-9.313-34.9 12.009-46.16 11.007-62.87-5.594-11.93-11.85-16.41-22.089-19.63-44.687-3.54-24.953-3.88-25.6-10.06-20.344-29.53 25.129-68.55-12.846-43.53-37.812 7.74-7.737 13.43-.996 6.47 7.656-10.17 12.63 3.09 30.221 19.69 26.125 30.23-7.46 24.06-51.698-8.66-62.031-9.97-3.151-37.37-1.844-58.44 2.781-58.83 12.915-84.83-12.198-96.94-93.563-1.41-9.506-3.06-16.532-8.65-37-6.63-24.281-29.17-37.463-41.47-24.25-9.81 10.535-4.65 24.716 9 24.75 13.61.034 9.44 9.364-4.75 10.625-24.62 2.189-28.9-38.79-5.28-50.531 5.76-2.866 11.15-4.354 16.19-4.437zm-321.3 15.125 7.63 29.16 30.43 8.595-9.65-27.749zm78.05 8.705-8.17 26.388 23.06-5.656 7.52-27.522zm250.25 43.201c4.83 0 8.75 3.917 8.75 8.75 0 4.832-3.92 8.75-8.75 8.75-4.84 0-8.75-3.918-8.75-8.75 0-4.833 3.91-8.75 8.75-8.75zm-293.27 15.745-23.99 8.393-4.61 20.92 25.1-6.468zm57.23 6.612-19.59-3.38 5.51 21.599 20.75 8.482zm850.75-1.654-12.6 9.805c36.73 31.93-2.92 62.702-4.15 60.617 26.56 17.577 21.82 45.305 18.38 70.687-6.29 45.288-8.74 88.122-15.59 134.532 0 0 31.99 22.078 53.28 30.624.4.05.12-272.31.12-272.31zm-453.34 41.016c4.83 0 8.75 3.917 8.75 8.75 0 4.832-3.92 8.75-8.75 8.75s-8.75-3.918-8.75-8.75c0-4.833 3.92-8.75 8.75-8.75zm-537.13 22.394 1.09 254.15 52.61-94.071-36.19-41.753 31.28-33.404zm512.26 38.731c4.83 0 8.75 3.917 8.75 8.75 0 4.832-3.92 8.75-8.75 8.75-4.84 0-8.75-3.918-8.75-8.75 0-4.833 3.91-8.75 8.75-8.75zm119.43 26c4.84 0 8.75 3.917 8.75 8.75 0 4.832-3.91 8.75-8.75 8.75-4.83 0-8.75-3.918-8.75-8.75 0-4.833 3.92-8.75 8.75-8.75zm342.13 283.123 38.64 39.662-30.18 37.584 47.52 80.649-.76-249.53zm-974.31-83.467 1.84 273.352 41.32 30.143 10.48-9.895c-26.67-28.476-10.74-49.659 9.36-61.916-35.46-8.257-24.7-55.29-22.58-77.086-.87-40.465 13.96-86.636 9.4-125.54zm237.99 37.995-59.23 82.514s-65.07-49.292-97.88-71.53c3.51 35.608 6.71 81.032 11.06 119.333 10.64 55.924-17.06 56.889-17.31 62.244 44.03 33.415 7.07 64.666.45 63.096 23.45 12.767 21.52 51.558 21.52 51.558l11.11 6.29s3.63-2.205 5.16-3.031c11.89-6.399 31.28-29.204 35.72-44.25 7.53-25.514-14.63-46.708-28.56-27.313-6.85 9.527-12.33 3.156-6.72-7.812 5.12-10.011 18.49-15.037 27.37-10.282 5.17 2.766 4.02-4.41-3.97-24.5-2.67-6.74-4.85-14.091-8.62-29-3.65-14.42-2.23-31.806 4.09-49.5 9.12-25.509 5.89-41.509-8.71-42.906-7.79-.745-8.64-3.184-2.29-6.781 14.19-8.032 27.94 3.403 27.38 22.781-.3 10.48-.19 10.656 5.34 8.438 27.99-11.225 50.1 17.812 30.53 40.093-5.98 6.809-9.74 2.489-5.81-6.656 6.08-14.132.29-24.205-13.94-24.312-20.64-.157-32.06 28.359-23.93 59.718 2.53 9.788 2.93 9.912 9.78 3.375 6.08-5.802 10.63-7.66 15.34-6.25 9.77 2.923 12.33 13.319 2.97 12.032-16.09-2.214-20.32 14.643-11.22 44.625 12.08 39.778-.15 72.192-35.87 95.25-1.81 1.166-4.69 3.406-4.69 3.406 13.78 12.278 22.6 19.254 40.8 30.344l65.02-262.707s-1.1-14.919-2.7-21.95c-.05-70.516 65.74-77.267 86.34-13.242 1.97 6.148 12.44 21.845 12.44 21.845l342.52 303.948s63.94-61.795 63.06-63.431c-48.57-48.961-114.18-83.577-116.57-161.263-11.64-.335-50.56.383-50.56.383l-166.55-152.755c-52.27.334-98.63-3.405-152.87-1.802zm93.32 5.724c9.15-.288 18.37 4.465 18.37 12.093 0 6.583-4.41 8.089-8.06 2.75-5.1-7.462-11.03-8.058-17.06-1.718-16.72 17.571 9.26 33.631 39.12 24.187 18.29-5.783 27.15-7.343 33.85-6 28.21 5.661 41.84 24.699 44.25 61.781 1.22 18.855 1.19 18.786 9.34 11.313 19.85-18.189 48.54-8.066 53 18.719 1.92 11.494-10.46 25.968-22.22 25.968-4.61 0-3.88-4.815 1.1-7.187 11.96-5.705 12.43-24.567.81-31.938-15.43-9.783-35.75 5.476-35.5 26.657.3 25.459 19.32 37.187 56.87 35.031 5.5-.316 19.31-.965 30.66-1.438 17.94-.764 37.22-4.144 55.5 9.657 19.14 15.224 31.85 45.488 37.28 89.218 8.56 53.823 15.18 68.246 33.25 69.539 10.72.767 19.81-8.366 19.81-18.976 0-7.48-9.89-14.073-17.4-11.594-9.07 2.993-10.9-6.831-1.97-10.562 12.37-5.17 27.48 4.792 30.84 20.343 1.96 9.065-8.27 26.451-18.99 30.789-27.99 11.316-47.89-11.802-54.45-63.539-4.01-23.726-6.22-39.722-13.62-60-13.58-37.324-35.89-52.727-60.19-41.562-27.51 12.642-22.05 53.835 7.1 53.531 16.01 1.267 19.36-10.5 19.7-23.099.37-9.292 10.9-.569 11.81 5.828.86 7.76-6.1 17.361-12.24 21.904-9.92 6.642-6.39 6.226 3.76 8.898 27.28 5.027 47.56 41.133 31.25 53.393-8.48 5.169-17.48-2.44-11.61-9.911 9.35-11.878-6.47-30.645-35.25-36.95-37.7-8.259-52.71-36.319-39.11-65.157 4.5-9.54 4.89-9.319-13.5-8.281-40.46 2.284-54.83-3.308-68.41-26.75-4.1-7.074-5.91-16.541-6.78-35.344-1.56-33.664-4.63-54.505-8.87-60.375-21.01-29.058-64.72-20.362-59.25 11.782 2.87 16.879 20.31 22.29 32.21 10 9-9.283 13.19-.658 4.41 9.062-21.13 23.384-57.89-3.913-46.97-34.875 2.5-7.087 2.84-6.86-10.72-7.25-30.15-.868-44.49-26.667-25.06-45.031 3.41-3.216 8.15-4.756 12.94-4.906zm72.75 110.75c4.83 0 8.75 3.917 8.75 8.75 0 4.832-3.92 8.75-8.75 8.75s-8.75-3.918-8.75-8.75c0-4.833 3.92-8.75 8.75-8.75zm121.22 31.062c4.83 0 8.75 3.918 8.75 8.75s-3.92 8.75-8.75 8.75-8.75-3.918-8.75-8.75 3.92-8.75 8.75-8.75zm-26.03 57.094c4.83 0 8.75 3.917 8.75 8.75 0 4.832-3.92 8.75-8.75 8.75-4.84 0-8.75-3.918-8.75-8.75 0-4.833 3.91-8.75 8.75-8.75zm385.22 34.031 5.54 25.88 20.09 5.285-3.14-22.175zm70.25 8.958-.44 15.347 17.87 2.102 6.32-26.457zm-299.91 23.167c4.83 0 8.75 3.918 8.75 8.75s-3.92 8.75-8.75 8.75-8.75-3.918-8.75-8.75 3.92-8.75 8.75-8.75zm256.55 35.647-21 5.826-10.09 29.161 26.88-9.732zm41.07 2.625 2.57 21.607 25.88 11.692-8.75-30.799zm-381.32 184.193-160.61 290.35 43.89-.61 151.59-273.78zm-505.14 70.29-14.19 19.09 13.47 22.15 15.46-22.24z" fill="#d40000" transform="matrix(.153876 0 0 .153876 -868.733 70.55)"/><path d="m1362-139.906c-19.78.088-39.64 13.403-45.22 39.312-1.24 5.786-1.73 15.787-2.16 43.781-.62 41.48-1.03 38.125-1.03 38.125l-17.78-.437.94 23.094 18.97.156c-.09.108-.41 1.358.19 14.406 1.49 32.52 6.57 44.073 25 52.813 12.46 5.91 35.5 5.878 45.93-2.313 6.32-4.003 6.95-3.971 14.44.657 15.94 9.843 29.06 4.5 29.06 4.5l-.43-23.625c-25.12-.384-28.46-6.332-21.88-22.657.46-1.141.52-3.271.72-6.062 1.85-26.304 1.11-114.969-1.81-125.532-6.58-23.807-26.36-36.301-44.94-36.218zm-2.16 23.25c9.04.048 18.26 6.153 22.44 17.531 4.43 12.035 4.37 10.99 5.66 85.094.63 36.478-.9 36.331-.9 36.331-14.01-18.557-31.72-32.236-51.11-38.671 0 0 .36 1.721 0-34.232-.38-37.129.07-45.115 5.6-54.803 4.38-7.675 11.29-11.288 18.31-11.25zm449.69 72.052c29.57 89.66 32.32 178.018 6.66 262.917 14.62.742 78.41 17.101 113.52 38.772-6.49 16.712-106.04 139.137-173.62 194.321 19.21 19.02 40.35 38.037 62.57 59 33.6 31.882 45.46 53.835 47.68 95.219-.3 19.982-7.46 44.64-20.18 62.094-9.62 13.196-19.83 23.339-40.32 36.906-18.89 12.516-46.51 39.448-81.25 79.156-13.24 15.142-35.58 42.708-54.09 69-7 9.557-27.62 39.383-27.62 39.383-68.78-56.124-142.43-99.415-144.32-99.084 0 0 74.31-39.602 89.94-47.674 12.01 7.704 28.31 1.114 20.49-15.841-15.05-38.588-4.56-78.305 13.92-106.034 4.42-6.682 15.08-10.579 32.31-11.781 7.48-.488 15.39-.245 23.31-.344 2.86 0 10.56 1.101 14.78 3.406 14.05 7.671 16.87-2.193 25.63-35.406 8.71-33.043-5.31-74.832-25.32-74.969-4.7-.032-7.34 1.703-6.37 13.459.73 8.875-1.4 13.475-3.69 19.073-4.99 12.211-7.64 24.163-9.22 40.093 2.92.592-18.57-21.383-52.43-30.093-22.01-2.604-33.18-30.005-32.25-30.063 0 0 3.29-7.42 6.18-10.312 7.52 3.595 14.9 7.821 23.82 10.437 0 0-2.06-11.007-2.85-13.969-4.08-15.306-3.87-17.635 2.03-20.812 14.63-7.876 16.17-21.965 4.75-34.781-2.88-3.279-5.31-5.381-9.18-7.032l7.21-28.75s-6.61 1.424-11.9 3.032c-15.31 4.649-14.16 4.805-20.69-2.625-14.2-16.173-35.88-13.098-39.12 5.562-.36 2.063-1.32 5.344-1.32 5.344l-32.64-15.841c.95 7.656 9.43 33.591 9.43 33.591-28.56 22.186-4.42 41.836 3.37 43.91 0 0-6.67 21.234-8.97 30.059l32.22-9.207c2.7 6.137 6.04 10.797 12.74 15.094 1.75 18.123 15.71 32.734 25.33 41.526 0-.001 1.39 6.629.55 10.868-2.07 10.537 8.64 27.223 10.45 28.22-44.21-18.085-90.3-39.785-134.79-61.095l2.78 546.845s10.36 9.28 30.91 24c9.87 7.07 9.87 7.1 7.81 15.25-2.71 10.74-2.04 18.95 7.13 89.69 4.85 37.41 10.14 76.2 14.87 111 1.88 12.67 2.14 20.8 2.14 20.8-9.82-4.55-24.12-5.01-31.51 3.29-12.76 14.52-2.55 37.91 16.34 37.41 4.29-.27 7.21-1.51 10.91-4.03 2.56-1.38 5.2-.18 5.2-.18l-28.2 49.54 32.46 54.64 32.37-58.44-23.54-46.22s2.3-.26 5.49 1.34c3.16 1.59 7.42 2.8 10.37 2.97 16.43.13 19.8-7.36 21.53-20.84 0-17.35-13.81-25.2-32.81-18.66-2.98 1.03-6.28 1.31-6.28 1.31l19.94-190.72 10.69 7.85 3.5-1.91-9.35-7.97c2.03-30.56-8.05-41.38-18.94-48.78 36.41-20.71 20.63-53.45-3.58-63.53 0 0 15.73-9.19 18.88-18.84 2.69-8.62 1.69-22.29-1.36-46.534-2.27-37.384-10.31-114.625-10.31-114.625 31.81 23.985 64.47 49.654 95.19 73.906l61.56-85.562 148.37 1.031s112.78 102.388 169.54 154.594l49 .44s.53 5.24 1.03 8.72c4.64 50.55 38.55 85.27 69.43 109.62 12.59 11.31 43.69 41 43.69 41l-57.65 58.13-353.07-315.348s-1.69-4.6-2.37-7.406c-8.16-33.399-30.29-47.386-50.41-45.031-21.11 2.471-39.12 23.266-38.22 58.656.14 5.475 2.13 15.125 2.13 15.125l-64.5 268.654s-25.8-19.69-39.72-29.15l-3.06 1.78 37.75 28.37 2.81-1.22 10.72 8.38.81 5.72c33.03 22.47 89.03 64.4 89.03 64.4 26.44-19.64 54.23-13.07 82.06-5.68 0 0 20.24 6.76 31 6.71 54.7 1.23 103.14 11.86 153.97 30.22l-185.31 328.5 353 .72c-17.4-68.75-35.89-138.6-2.84-255.87-34.82-7.03-112.22-38-112.22-38s-.37-1.76 2.9-5.78c14.31-20.47 50.5-75.93 84.41-108 4.13-2.96 63.24-60.31 63.81-62.13.33-1.02 1.74-4.89 4.06-6.4 5.45-3.64 19.93-17.33 19.93-17.33l-73.96-64.14s-3.26-.32-4.31-.91c-10.33-5.77-28.97-37.99-33.56-59.56-10.56-49.621 8.94-88.853 63.97-129.127 53.72-36.789 155.6-179.586 155.93-182.75 54.94 45.476 97.83 69.024 146.16 98.852-29.2 16.747-53 27.947-73.44 39.023-13.25 7.562-15.08 9.141-26.28 5.968-12.69.103-17.03 4.996-13.81 15.938 19.21 30.354 10.96 101.025-15.01 114.646-22.55 11.824-44.47 8.622-62.58 1.916-13.98-4.478-13.8-4.526-20.04 8.157-13.71 29.207-14.59 53.807-1.93 81.817 10.38 22.48 25.82 32.73 27.72 2.42 1.12-17.81 8.96-38.61 8.71-57.74 15.75 17.39 26.19 25.33 52.04 32.41 17.33 2.7 35.74 24.44 35.17 33.3-4.76 4.81-6.21 10.95-6.98 10.51-8.44-2.75-26.73-10.53-26.73-10.53l7.79 27.5s-1.29 1.25-5.03 3.16c-17.21 8.77-16.1 32.51 1.96 42 3.68 1.93 3.94 2.84 2.38 7.9-2.25 11.28-7.18 18.85-9.84 30.03 0 0 2.45.09 23.06-9.43l8.09-3.75 4.88 5.22c10.67 11.41 23.49 11.34 34.68-.19l5.13-5.28 14.31 7.25c13.49 6.83 17.03 8.25 17.03 8.25s-7.77-30.18-9.22-33.63c-.78-1.86-2.37-3.76-3.53-4.19-1.92-.71-1.62-1.16 3.5-5.21 12.98-10.29 14.28-24.47 3.22-35.26-4.21-4.11-4.75-4.96-4.75-4.96l6.72-27.97-27.86 9.23c-4.4-9.36-11.38-13.61-15.8-15.52-.47-12.62-2.05-25.59-23.74-45.32 7.31-6.67-1.38-22.76-8.54-32.41 12.2 4.1 42.71 17.01 42.71 17.01l4.61-.19 14.57 6.98 1.71 2.59s45.83 21.63 66.87 31.75c-.05-1.13-.22-23.77-.28-272.967-.04-148.576.21-270.779-.09-271.562s-5.34-4.647-10.57-8.594c-9.64-7.283-11.62-8.703-23.87-16.875-9.83-6.557-9.17-6.505-7.13-14.062 2.35-8.681 2.3-20.615-.81-42.969-2.29-16.503-10.61-74.537-16.4-121.375-4.07-32.858-5.03-40.151-6.04-45.438-1.61-13.308.12-19.105-.17-19.299 46.02 19.933 49.66-46.171 3.52-37.245 8.82-17.803 16.26-26.066 23.83-45.083-9.63-20.717-30.93-55.748-30.93-55.748l-33.71 58.719 19.84 40.625c-22.83-4.112-34.94 12.505-30.72 27.407 4.59 13.179 17.23 16.874 28.38 11.562 8.58-3.385 8.57-4.245.96 60.156-2.25 19.042-12.24 108.091-13.62 121.344-.93 8.901-1.5 11.371-5.13 9.406-4.91-2.112-7.72-5.194-12.65-8.437l-2.75 2.562c4.38 3.552 9.57 8.147 14.87 13.021-1.22 23.584-.74 37.246 18.89 48.755-35.58 22.305-14.77 56.619 6.13 61.579-12.46 3.218-24.74 19.242-21.77 51.083l10.1 131.219-96.47-71.625-56.63 81.031-149.19.187-168.28-151.843s-36.89-.504-52.03-.875c1.72-.8-3.17-46.938-27.53-77.063-26.47-31.473-86.73-83.421-86.69-83.437l63.29-64.25 355.28 319.781s1.72 9.056 2.62 12.906c11.88 50.486 69.32 53.546 81.53 2.125 1.98-8.308 4.35-27.638 3.47-29.937-.28-.74 1.5-9.171 3.97-18.75 19.1-74.905 35.37-139.523 54.16-211.438 2.59-9.9 5.33-20.925 6.09-24.5 3.1-14.592 2.63-14.5 17.91-3 9.35 7.041 13.21 9.563 13.21 9.563l2.97-3.094c-10.48-8.118-28.43-21.062-28.43-21.062l.18-5.5c-57.68-41.308-69.56-52.274-103.72-79.344-26.46 23.305-64.31 13.866-88.03 5.625-6.11-2.404-21.12-6.313-21.12-6.313-59.08.077-110.98-11.327-160-27.343l189-336.564-73 .004-2.55 2.863h-37.98l-.13-2.86zm697 1106.914c.01.21.03 0 .03 0zm-481.56-1099.31 25.84.5-152.93 272.875-16.26-6.344s1.49-.781 1.47-12.281c-.02-12.343-2.69-17.618-8.25-24.906-4.65-6.308-6.64-6.656 7-4.781 27.89 3.833 47.71-26.486 36.63-50.157-4.28-9.132-3.67-9.686 7.62-10.812 31.1-3.1 43.2-42.557 21.19-62.219-4.55-4.118-2.52-6.738 5.97-4.906 26.91 5.806 47.75-24.03 37.06-47.406-3.48-6.522-.35-7.604 4.57-8.25 23.03-5.402 30.87-23.493 30.09-41.313zm-206.13.031 119.72.031c-16.11 24.64 12.34 39.228 15.94 37.501-25.81 14.096-18.72 33.964-5.34 40.791 12.99 6.623 32.47.663 27.28-28.01l6.4-2.781c6.23 7.043 12.41 50.7-35.09 44.625-8.46-1.082-13.04 6.814-5.97 11.187 37.54 43.156-21.22 62.224-23.78 55.063l-.2-7.304c15.89 2.924 36.23-17.554 18.4-35.756-10.14-10.347-39.54-5.304-34.51 26.098-17.36-25.94-36.32-18.114-41.43-4.41-3.96 10.626 1.08 25.17 18.4 27.643-19.35 16.205-9.95 34.287 3.35 38.279 14.67 4.408 29.66-1.573 25.61-28.238.24-2.526 5.36-1.703 5.79-1.844 15.17 37.871-21.1 51.783-40.69 43.969-7.26-2.824-11.05 8.364-3.34 14.063 11.69 8.646 8.08 33.534 6.71 33.783-21.75-8.25-52.92-14.351-51.75-13.887 20.78-82.188 19.44-165.758-5.5-250.803zm190.88.031 10.81.032c.14 15.478-6.58 34.531-33 37.469.12-4.15-.18-8.083-1.25-12.469 9.91-2.244 23.06.507 23.44-25.032zm47.22.844 34.53.156-162.47 288.376-25.97-13.344zm-85.19 21.875c6.1 0 11.06 4.93 11.06 11.031 0 6.102-4.96 11.063-11.06 11.063s-11.03-4.961-11.03-11.063c0-6.101 4.93-11.031 11.03-11.031zm-338.69 5.063c-26.03 67.43-76.08 108.29-112.5 176.125-38.03 68.962-20.62 128.355 33.1 139.375 28.32 5.81 61.42-21.771 65.65-51.75 1.01-7.156 2.26-9.188 5.63-9.188 4.92 0 4.36 12.487 1.25 29.407-7.49 44.869-22.9 72.166-34.63 88.906l93.28-.781c-18.95-22.784-33.5-53.498-36.62-91.438-2.29-20.627-.61-29.691 6-26.156 2.17 1.162 2.72 3.213 3.69 13.875 3.38 36.985 42.12 57.144 73.4 40.875 43.19-22.856 42.03-65.584 32.1-96.719-29.86-81.475-95.78-135.071-130.35-212.531zm-285.06 25.526c11.21 9.497 22.32 20.231 29.96 29.738-10.74 7.69-22.04 8.156-28.97 4.326-7.8-4.309-11.18-14.307-11.92-31.115-.41-9.326 2.88-9.756 10.93-2.949zm13.47 89.161c.32-.08-16.88 35.123-29.5 54.063-9 16.641-31.2 45.639-25.25 68.844 6.88 24.134 32.66 30.285 46.37 11.718 6.43-8.704 7.81-7.666 7.63 2.063-.16 18.602-10.03 29.174-17.25 38.312l47.12.344c-9.98-11.998-18.97-21.965-20-38.25.03-6.13 1.85-10.585 6.16-3.969 4.86 4.732 8.99 13.437 22.25 11 13.76-2.455 25.76-20.309 23-37.625-3.69-20.116-16.27-39.887-28.91-56.843-10.54-14.153-32.01-48.949-31.62-49.657zm541.03 6c5.65 0 10.22 4.57 10.22 10.219s-4.57 10.25-10.22 10.25-10.22-4.601-10.22-10.25 4.57-10.219 10.22-10.219zm534.84 8.157 27.5 47.875-31.37 55.562-26.19-53.25zm-.5 16.312-19.34 31.938 17.56 32.718 19.97-31.093zm.38 13.688 10 19.312-12.16 19.594-10.09-20.719zm-26.66 64.875c2.08.006 4.31.449 6.6 1.406 18.52 7.74 12.62 35.902-7.16 34.156-2.61-.273-6.05-1.601-8.53-3.281-13.72-11.254-5.46-32.323 9.09-32.281zm45.28.531c16.21.293 25.97 22.832 8.91 33.375-8.23 4.581-20.53 1.802-25.37-6.344-4.16-6.99-2.36-18.643 6.93-24.687 3.32-1.691 6.53-2.399 9.53-2.344zm-22.5 32.156c1.62.136 3.38 8.001 5 21.656.59 4.95 2.17 17.325 3.5 27.5 2.55 21.76 5.18 42.024 7.44 63 .45 4.125 1.56 12.9 2.47 19.5 9.37 68.13 11.5 89.892 9.28 95.688-5.91 20.315-33.63 21.867-45.22 10.062-8.75-8.921-10.04-18.719-6.59-44.25 1.99-14.741 2.81-22.158 8.66-78.5 1.36-13.2 3.34-30.75 4.4-39 2.32-22.044 5.06-42.703 8.06-64.437.87-7.775 1.9-11.312 3-11.219zm-454.03 50.625s88.8 29.264 156.35 27.938c9.91-.008 11.52-.095 23.87 3.937 7.32 2.39 18.84 5.631 25.59 7.188 20.83 4.034 39.14 2.893 55.35-3.719 2.55-1.039 6.29-4.171 10.06-3.031 2.3.695 5.66 5.281 5.66 5.281-59.15 15.704-197.52 12.807-283.66-23.5zm456.19 9.313c-.37.061-.75.565-1.19 1.25-1.44 2.284-.25 17.278 5.13 64.968 10.27 91.1 10.22 93.048-2.22 102.625-6.12 4.707-7.07 6.6-4.13 8.313 2.19 1.275 2.02 1.269 6.47.031 10.47-2.908 14.81-11.218 14.72-28.188-.06-12.935-.22-14.495-4.25-46.281-1.39-11-3.3-26.525-4.25-34.5-6.74-56.75-8.29-68.55-10.28-68.218zm-465.12 9.531c88.39 31.654 180.76 40.619 292.09 23.531 0 0 10.7 6.936 16.09 10.344l-3.75.875 1.69 15.375 18.91-3.031s10.22 8.132 17.84 13.125c-99.27 30.311-259.6 25.086-358.5-18.875-3.76-2.171-5.97-3.907-5.97-3.907 2.13-5.241 4.72-8.356 7.34-11.281l18.07 5.156 5.22-16.468-13.82-5.032zm23.15 19.719-5.78 16.218 25.25 7.5 4.31-16.562zm38.63 10.031-3.35 18.469 25.35 4.687 3.15-17.969zm41.93 8.656-2 17.813 26.88 2.843 1.65-18.031zm184.72.281-22.87 2.5 1.44 15.688 23.12-2.719zm-40.34 4.532-22.69 1.5.78 16.437 22.82-1.437zm-102.22.343-.03 17.469 23.25.875.28-17.844zm63.94 2.188-21.44.093-.09 16.625 21.65.094zm-248.57 2.937c2.32-.068 7.6 5.08 9.79 10.844 4.29 11.336 2.32 23.902-4.41 28.063-9.16 5.662-19.93-3.206-13.62-11.219 1.11-1.417 2.9-2.841 4-3.188 4.71-1.495 5.81-8.913 3.24-21.75-.37-1.898.1-2.723 1-2.75zm34.29 4.344c95.68 31.326 204.26 41.848 316.12 18.938 0 0-53.01 216.49-54.15 216.593zm-46.91.656c5.04 0 5.95 8.55 1.41 13.094-5.81 5.802-16.87 1.147-14.57-6.125.68-2.113 9.83-6.969 13.16-6.969zm27.5 5.032c1.04-.077 3.02 1.996 6.16 6.218 10.74 14.469 11.59 30.635 1.96 38-11.27 8.635-19.52-4.765-10.12-16.468 2.43-3.032 2.79-8.632 1.34-21.032-.51-4.415-.38-6.642.66-6.718zm371.03 5.218c1.24-.04 3.43.914 7.81 3.063 6.86 3.359 9.24 8.272 5.94 12.25-4.8 5.78-17.94-5.667-15.47-13.469.38-1.187.76-1.812 1.72-1.844zm-10.31 7.532c1.72.17 4.47 3.319 7.66 9.718 2.04 4.11 3.23 5.286 6.68 6.532 8.18 2.954 9.7 11.427 2.5 13.937-7.82 2.725-13.64-2.894-17.22-16.625-2.35-9.055-1.83-13.782.38-13.562zm-342.28 6.062c1.18-.072 3.46 2.589 7.06 7.906 10.69 15.784 7.01 46.084-6.47 53.157-5.94 3.117-10.08 2.453-14.84-2.313-6.97-6.966-5.25-12.476 5.09-16.281 8.81-3.239 11.65-13.261 8.94-31.5-1.09-7.288-1.13-10.887.22-10.969zm50.94 5c65.34 53.885 124.33 111.654 200.37 179.094 18.06-55.556 44.38-170.9 44.47-171.281-2.87 2.37-127.73 20.084-244.84-7.813zm244.84 7.813c.06-.05.08-.09.03-.125 0 0-.03.124-.03.125zm40.53-7.657c1.09 0 4.24 8.105 6.03 15.5 1.63 6.7 8.1 17.921 10.6 18.344 12.87 2.179 18.36 9.358 12 15.719-4.68 4.671-14.79 2.023-19.66-5.125-9.16-13.435-15.41-44.438-8.97-44.438zm-729.13 7.438c7.78.063 15.24 4.961 17.13 15.062 2.2 11.755-4.45 20.302-10.07 18.933-6.11-2.284-8.19-11.962-8.19-11.962s-1.45 7.891-3.96 11.873c-5.48 8.362-17-4.054-14.94-16.094 2.02-11.756 11.23-17.883 20.03-17.812zm465.1 3.094c71.16 10.691 132.39 13.463 217.28 4.25l-40 155.312zm-53.75.25c1.05.068 3.22 1.961 6.59 5.531 11.06 11.693 14.25 27.918 7.06 35.969-4.37 4.899-7.31 5.464-11.96 2.281-5.94-4.067-6.39-10.183-.94-13 5.01-2.591 5.46-8.28 1.5-19.063-2.96-8.04-3.79-11.819-2.25-11.718zm-464.25 4 26 10.781 9.31 21.969-25.94-6.688zm98.31 2.906-7.72 21.875-20 7.469 7.78-23.657zm678.22 4.594c.96-.015 2.39 2.753 4.13 8.468 4.29 14.15 6.11 17.726 10.03 19.594 6.38 3.043 6.84 10.782.81 13.531-3.83 1.744-5.09 1.386-7.81-2.187-4.25-5.566-7.67-16.221-8.29-25.781-.58-8.962-.11-13.606 1.13-13.625zm-289.44 9.875c.76-.053 1.86 1.053 3.5 3 10.1 12.005 11.2 30.422 2.16 35.937-8.76 5.341-21.01-5.679-13.38-12.031.69-.572 2.27-1.85 3.53-2.813 2.13-1.622 2.31-2.569 2.5-13 .15-7.746.44-11.006 1.69-11.093zm76.74 1.279 124.48 113.118 28.57-111.9c-49.16 4.414-100.52 3.103-153.05-1.218zm-305.77 5.689c39.33 41.524 90.78 75.09 103 116.375 21.91 56.836 5.84 122.775-45.44 160.5-28.3 21.419-56.04 43.965-79.12 71.188-37.87 40.31-63.14 84.357-88.44 116.312-4.29 5.373-15.59 22.282-15.59 22.282s-5.54 6.326-24.03-9.188c-49.08-43.635-100.58-75.286-153-105.437l22.18-12.407c43.77 24.955 98.19 60.476 147.13 101.872 0 0 38.92-56.836 51.34-73.122 18.01-23.373 30.67-38.426 47.44-56.5 42.84-52.885 87.07-70.377 105.47-97.156 26.96-39.231 28.11-85.738 5.94-125.437-21.87-37.882-64.39-63.856-92.63-95.219zm373.25 3.063h48.66s-7.15 5.961-12.63 9.625c-3.43 2.298-7.45 1.982-15.03-1.188-7.36-3.079-21-8.437-21-8.437zm55.72 0 11.34.344c-8.48 10.653-17.17 17.525-28.56 27-1.47.633-2.29.892-5.72-.219-23.25-7.694-44.6-17.471-67.25-26.719l20.19-.094s9.72 3.103 24.31 9.157c16.74 6.94 21.08 9.077 27.53 4.843 6.23-4.14 11.38-10.371 18.16-14.312zm22.97 0-4.06 14.906c-6.79 8.475-20.51 18.244-31.97 27.875-2.69 1.402-2.6 1.656-14.35-2.906-43.24-16.796-64.15-27.719-64.15-27.719l-8.78-7.844s11.27 3.226 18.71 6.157c5.08 1.998 13.72 5.279 19.22 7.312s17.67 7.202 25.78 10.406c18.73 7.389 17.69 7.615 35.63-8.218 19.43-17.146 23.97-19.969 23.97-19.969zm-655.22 1.375 18.88 21.625-25.16 21.156-19-22.375zm716.17.022c4.34 8.123 7.25 17.731 14.3 24.571 5.31 5.06 6.63 8.962 3.48 11.813-8.21 5.076-9.63-3.121-12.17-8.476-4.48-9.434-9.94-22.186-5.61-27.908zm-682.55 2.165c.49-.015.97-.008 1.47 0 20.13.304 24.88 30.047 5.94 37.188-6.79 2.559-14.6 1.396-18.81-2.813-4.09-4.084-4.66-7.536-1.86-9.677 4.37-3.105 14.76-3.317 14.76-3.317s-9.43-3.199-13.64-5.555c-8.27-4.715-1.1-15.298 12.14-15.826zm414.41.031c1.14.063 3.1 2.379 5.88 6.969 10.15 16.769 9.62 48.674-.97 56.75-5.51 4.199-12.37 3.598-16.97-1.5-6.07-6.72-4.21-13.512 4.81-17.5 8.71-3.85 10.48-12.452 6.94-33.719-1.24-7.412-1.15-11.08.31-11zm-488.41.532c6.01-.213 11.81 2.135 14.69 6.875 2.13 3.501 1.1 6.075-2.92 7.823-4.89 1.934-14.17 3.685-14.17 3.685s9 1.481 14.43 3.688c6.82 3.005 6.28 8.521-3.69 13.259-19.19 9.122-37.33-15.804-21.49-30.112 3.69-3.332 8.48-5.053 13.15-5.218zm504.82 12.031c.14-.023.3-.021.47 0 1.76.216 5.01 2.767 8.28 7.094 11.44 15.158 13.43 37.935 3.69 42.375-10.3 4.689-17.7-4.982-10.29-13.438 5.25-5.987 4.6-14.748-2.37-32.094-1.02-2.522-.78-3.776.22-3.937zm247.15.719c.91-.069 2.55 3.576 5.19 10.937 5.82 16.204 10.8 23 16.78 23 7.53 0 11.47 10.311 5.53 14.469-11.72 8.214-27.09-11.912-28.21-37-.34-7.538-.19-11.337.71-11.406zm-62 8.093-3.47 13.219s-7.99 7.775-13.71 12.719c-9.09 7.852-11.33 9.413-18.5 6.969-11.04-3.812-21.97-7.265-33.47-10.75l-26.6-22 60.69 23.687s5.26 1.55 7.09-.281c7.95-7.941 16.68-14.099 27.97-23.563zm57.25 12.375c.77-.173 1.53.798 2.07 3.219 2.75 12.45 6.73 21.472 10.09 22.875 4.25 1.778 5.88 5.464 4.09 9.219-5.16 10.831-18.75-8.298-18.75-26.406 0-5.139 1.23-8.618 2.5-8.907zm-219.03.875c.74-.045 1.94 1.062 3.81 2.938 8.4 8.39 10.93 31.573 4.19 38.312-9.74 9.74-20.14-4.736-10.69-14.875 2.5-2.68 2.51-2.87 1.91-14.75-.41-8.27-.45-11.549.78-11.625zm-508.37 2.313-6.56 21.75-20.97 5.406 4.9-17.906zm25.12 2.219c1.67-.068 3.55.564 5.53 2 8.55 6.188 9.25 16.761 5.25 24.562-3.82 7.618-11.63 9.802-19.18 9.031-9.81-1.09-17.21-7.92-16.69-18.375.17-5.24 2.45-11.049 6-13.531 2.49-1.747 4.54-1.029 6.7 2.555 2.02 3.508 5.46 11.446 5.46 11.446s.11-8.147 1.26-12.338c.95-3.336 3.02-5.243 5.67-5.35zm16 1.906 15.19 5.187 6 20.625-17-6.593zm865.94 3.848s4.36 1.843 25.09 18.308c5.19 4.119 13.94 12 13.94 12l-.5 269.156s-40.89-22.101-46.19-27.343c-2.82-3.016-1.46-11.467-.46-26.813 4.8-40.307 6.76-71.196 11.93-108.5 3.62-41.577 11.61-53.516-16.22-71.147 29.96-18.81 21.5-48.075 2.7-60.263zm-244.25 1.027-2.75 12.312c-9.86 16.877-18.69 16.012-33.78 8.188l-18.13-15.406c11.73 2.444 18.04 6.201 29.5 9.812 5.69 1.573 7.78.562 11.79-3.031 4.6-4.191 8.06-7.322 13.37-11.875zm-134.37 6.469c6.14 6.704 7.74 13.308 7.21 29.625-1.18 11.604-.66 20.244-10.18 26.75-4.65 3.048-12.69 3.053-16.29.031-8.61-5.771-3.86-17.313 7.43-17.878 7.13-.126 10.06-23.416 6.01-37.966-.63-2.258-.46-3.74.66-3.846s3.2 1.151 5.16 3.284zm192.59-.875c1.38-.015 3.83 3.53 5.28 9.312 2.1 8.376 5.06 13.077 9.69 15.438 5.93 3.029 7.85 8.848 4.06 12.281-7.55 6.836-15.27-1.362-17.75-18.844-.12-1.986-3.58-18.001-1.28-18.187zm162.12 2.875c16.85.262 26.38 12.052 26.35 26.336-.18 10.3-5.81 20.773-16.17 25.119-24.74 7.282-38.24-9.278-38-25.387.18-12.999 10.98-26.33 27.82-26.068zm-340 9.343c14.17 14.168 14.81 44.469.94 44.469-16.63-5.506-3.66-15.323-3.34-17.875 1.3-10.437-1.09-17.127-3.53-26.875-1.08-5.763 4.37-1.407 5.93.281zm340.91-1.375c-2.97-.089-2.76 2.902 2.69 7.594 9.87 8.509 5.04 24.215-7.47 24.281-5.77.031-7.19 3.918-2.16 5.938 19.43 7.803 32.7-21.731 15.28-34.031-3.63-2.569-6.56-3.728-8.34-3.782zm-742.99 3.968c15.63 5.329 21.02 35.116 21.61 45.626.71 18.285-7.81 48.182-15.4 54.156-19.67 15.468-28.88-39.214-12.06-74.406 1.47-2.886 3.31-6.782 2.62-13.969-.68-7.13.52-11.354 3.23-11.407zm516.65 2.876s-1.97 8.93-4.07 13.813c-2.42 5.649-4.2 5.827-9.84 1-3.14-2.688-8.34-8.25-8.34-8.25 4.91.767 9.29 3.312 13.47 1.25 4.44-2.201 8.03-6.329 8.78-7.813zm59.34.469c1.11.038 2.53 3.149 4.41 9.313 5.14 16.871 9.64 23.218 16.47 23.218 11.17 0 13.6 13.454 3.06 16.907-3.91 1.279-5.23 1.269-10.22-.063-7.53-2.006-17.82-27.392-16.34-40.312.69-6.076 1.51-9.101 2.62-9.063zm-688.12 9.813c4.1-.1 5.71 1.921 8.12 6.906 2.74 5.674 9.94 12.889 16.03 16.031 14.68 7.216 30.15 12.854 44.66 20.094 18.81 9.45 35.67 38.387 24.12 41.406-4.18.965-9 1.016-13.28.625-1.4-.733-4.13-3.895-6.06-7.062-8.58-14.042-24.63-27.789-49.38-34.219-17.44-4.533-33.07-26.025-36.43-36.125-.87-2.616-.91-4.669 1.43-5.344 4.97-1.428 8.32-2.253 10.79-2.312zm530.5 1.75c.77-.128 1.92.868 3.65 2.718 10.39 11.1 11.68 31.483 2.35 37.25-10.12 6.252-18.98-4.087-11.04-12.875 3.5-3.874 3.5-3.871 3.5-15.5 0-8.013.24-11.381 1.54-11.593zm151.18 12.937c1.25.05 3.12 3.497 5.38 10.281 3.2 9.629 3.64 10.386 7.31 12.282 6.2 3.205 7.21 8.009 2.66 12.562-8.49 8.488-17.04-5.173-17.07-27.25-.01-5.308.62-7.919 1.72-7.875zm-135.76 1.526c.77.074 2.93 1.767 4.61 3.755 12.72 15.088 10.16 50.418-4.03 55.719-4.74 1.77-6.19 1.867-9.13.594-10.58-4.578-9.29-15.75 3.75-22.844 9.75-5.304 2.8-37.085 4.8-37.224zm-650.52 11.13 52.53 26.063s14.4 30.318 21.03 41.687c4.55 7.883 13.66 15.492 4.25 20.75-15.8 10.713-24.76 16.815-24.62 23.469.11 5.383 6.81 10.87 15.81 21.469 12.94 15.223 12.81 11.717 1.06 34.937-9 16.285-16.65 53.157-16.65 53.157l-53.07 27.343c15.79-37.713 34.39-69.808 55.22-92.75-15.47-11.495-28.49-23.459-42.06-39.343 10.02-13.412 23.24-24.246 35.44-35.907-24.78-28.012-40.31-54.882-48.94-80.875zm664.38.469c.08-.013.18-.006.28 0 2.2.144 7.23 5.62 11.65 14.406 5.72 11.349 6.27 25.643 1.19 30.719-8.75 8.751-20.15-2.497-11.97-11.812 5.77-4.193 4.2-14.62-.34-25.469-2.1-5.202-2.07-7.642-.81-7.844zm-670.19 5.094c13.67 29.041 28.95 52.662 44.62 75.031l-34.18 35.875c10.52 12.213 23.28 25.33 41.18 40.563-21.98 24.447-36.4 58.678-50.84 91zm786.25.625c1.18.088 2.87 3.608 4.59 10.687 2.18 8.926 3.68 11.208 8.88 13.438 8.27 3.545 8.46 11.534.34 14.406-2.98 1.053-8.54-1.935-10.84-5.844-3.04-5.582-4.6-13.094-4.57-19.968-.48-8.509.26-12.819 1.6-12.719zm189.55 5.379c12.92 3.621 17.59 16.572 15.07 40.558-3.37 32.083-7.34 67.777-10.56 97.25-3.71 34.001-5.86 51.663-6.69 53-2.62 4.241-3.05-11.733-1.15-29.5 2.89-25.391 4.48-47.628 6.94-73 5.49-56.449 4.14-74.291-6.07-79.5-7.9-4.03-11.29-1.653-5.47 3.844 11.12 8.568 10.77 12.153-1.12 151.156-1.22 14.381-1.72 24.563-1.72 24.563l-15.09-9.375s-1.12-11.915-2.53-29.906c-3.41-33.888-5.4-70.018-7.66-102.5-2.42-34.653 4.06-46.781 25.56-47.625 3.44-.132 7.25.144 10.49 1.035zm-277.33 20.139c1.65 4.589 9.14 38.772-10.04 28.956-5.11-2.884-5.39-7.399-1.62-11.787 4.22-4.907 5.21-11.962 3.1-22.031-1.29-6.128-2.85-11.208-2.85-11.208 3.7 1.351 10.98 14.872 11.41 16.07zm-570.28-10.719c16.22 3.08 34.04 12.544 45.53 24.379 7.12 7.574 6.76 13.673-4.38 14.384-10.72 1.578-10.95 3.322-16.08-1.113-2.3-1.801-6.78-6.222-11.89-7.012-16.18-2.504-24.45-32.776-13.18-30.638zm654.87 8.951c1.71 2.752 1.89 8.157 3.31 12.031 2.43 10.831 9.86 18.845 16.54 17.844 4.48-.54 10.67.816 11.34 6.187 1.3 4.544-1.08 8.844-6 10.813-5.56 2.222-11.82.858-16.56-3.594-9.99-9.382-16.09-40.007-8.63-43.281zm-78.04.424c5.82 2.233 13.25 20.862 14.04 35.638-.02 10.583-1.65 23.896-10.78 28.938-5.8 2.997-11.79 1.501-14.41-3.563-3.21-6.212-.82-12.63 5.82-15.625 8.12-3.663 10.76-20.135 5.81-36.219-.28-2.68-4.34-10.279-.48-9.169zm-619.74 7.732 42.81 21.687c-6.23 8.506-11.12 16.394-14.5 25.375-13.6-15.433-20.74-31.164-28.31-47.062zm635.83 7.424c.74-.017 3.2 2.333 5.36 4.42 10.68 10.347 15.29 29.133 8.84 36-5.16 5.489-14.18 5.11-15.69-.657-.54-2.826 2.46-8.117 3.79-10.656 1.97-3.781 2.32-14.577-.66-22.469-1.34-3.537-2.58-6.615-1.64-6.638zm-297.42 4.263 48.37 1.657 162.06 145.968-15.21-.343-148.91-135.688-46.35.125zm-278.71 26.296c-18.47 29.35-23.51 66.352-12.17 99.236 8.61 23.32-10.19 24.715-17.9 9.348-5.93-11.49-9.34-31.49-7.54-52.786 2.53-34.437 18.43-69.006 31.15-73.158 12.92-4.215 10.09 12.674 6.46 17.36zm664.05 70.642c-4.92 22.958-14.02 34.385-26.94 39.156-52.91 19.54-75.96-87.169-26.87-112.687 46.78-15.551 60.3 43.209 53.81 73.531zm-388.28-69.719 45.62.938c41.6 37.828 86.31 73.127 130.82 119.125h-21.54s-6.29-5.984-7.78-7.406c-40.23-35.934-70.03-65.267-108.81-98.657l-40.72-1.125zm348.09 7.037c-24.67.998-26.67 34.421-25.94 47.081 1.8 18.242 9.07 45.196 32.22 43.07 16.99-1.696 24.86-21.815 23.3-45.977-1.46-22.736-10.73-44.196-29.58-44.174zm-352.25 11.088 40.03.907c35.27 30.755 72.57 64.164 109.63 101.031h-17.47s-4.57-4.352-5.94-5.75c-30-27.123-60.5-57.347-89.59-81.719l-41.53-1.625zm352.91 1.313c7 2.595 8.17 19.654 2.06 26.723-4.19 4.844-13.82-4.327-14.69-15.879-.52-7.043 6.33-13.179 12.63-10.844zm-661.63 2.125c-3.22 11.032-5.33 23.432-6.65 36.844l-16.75-21.282zm674.35 20.531c4.09 0 7.4 3.313 7.4 7.406s-3.31 7.407-7.4 7.407-7.41-3.314-7.41-7.407 3.32-7.406 7.41-7.406zm-336.35 3.719 79.78 75-22.71.25-65.44-59.313-41.53-1.562 8.12-14.156zm310.28 1.281c4.1 0 7.41 3.313 7.41 7.406s-3.31 7.407-7.41 7.407c-4.09 0-7.4-3.314-7.4-7.407s3.31-7.406 7.4-7.406zm94.97.156c44.98 34.955 108.46 81.33 174.41 118.938 0-.129-10.87 8.54-20.88 11.281-51.32-28.294-112.39-68.204-150.21-100.562-35.71 52.565-104.31 148.196-165.29 192.343-38.48 27.528-57.86 61.461-57.74 101.125.11 41.034 14.6 67.734 54.96 101.344 26.04 21.68 54.5 49.34 54.5 49.34l-14.96 12.91c-2.49-.3-43.68-35.79-85.35-77.62-22.9-23-33.08-73.46-29.19-100.692 5.3-37.03 17.65-63.57 52.75-92.157 13.48-10.433 27.1-18.538 38.97-30.406 109.08-116.671 148.03-185.844 148.03-185.844zm-73 19.063c4.13 8.477 6.4 19.597-6.53 20.344-7.65.442-12.04-12.303-5.4-23.657 5.02-8.938 9.49-1.33 11.93 3.313zm-384.37-2.25 43.06 1.281s42.47 37.017 63.91 57.531h144.25c79.33 0 144.53.318 144.9.688.99.986-10.25 16.062-10.25 16.062l-475.75.282c.1-.074 29.39-26.154 39.88-33.469 18.57-12.954 35.6-25.014 50-42.375zm-291.53 17.906c3.11 11.487 5.71 23.2 11.09 33.781l-33.03 17.532c6.07-17.486 13.02-34.302 21.94-51.313zm917.25 95.5c-6.56 17.876-23.73 54.354-44.47 82-4.12 5.299-6.94 9.438-6.94 9.438l40.47 38.75-35.12 37.343c19.72 20.527 36.41 51.969 45.18 76.999-15.93-6.29-24.88-10.1-44.53-21.03-5.56-13.94-11.22-28.71-17.47-41.437-14.33-29.045-14.14-26.204-2.44-34.75 17.14-12.512 22.24-15.413 17.79-21.719-3.13-4.434-23.35-28.434-24.57-29.188-1.85-1.148-1.03-4.699 2.41-10.375 11.71-21.033 21.31-44.212 27.28-64.812zm7.65 1.469 1.07 244.191c-14.5-29.18-29.58-58.977-46.38-77.598-.63-1.266 36.66-37.687 36.66-37.687-13.67-12.662-21.66-20.23-40.75-37.813 18.59-26.793 33.31-61.823 49.4-91.093zm-1026.28 8.469 46.4 26.933c-2.46 34.444-5.55 79.661-10.3 125.535-3.99 35.794-5.63 52.284.71 62.214 5.38 7.27 19.87 15.13 19.87 15.13-24.4 9.88-33.81 39.02-6.46 60.81 0 0-6.64 5.23-9.59 8.38l-38.06-28.47zm726.22 12.343c-11.57 12.962-29.71 32.182-43.62 41.375-18.57 12.263-44.63 35.799-43.38 36.157 0 0-27.31-.138-45.81-.875l-63.81-56.938s2.28-.839-84.57-.125c-112.23.923-203.18-.312-203.18-.312l12.75-17.907zm227.47 11.188c-6.29 20.188-16.03 38.848-28.38 56.344-2.86-12.412-4.43-25.584-10.4-36.125zm-901.41 6.469 5.57 3.968s-3.32 42.136-4.41 54.469c-1.96 22.784-2.92 43.318-4.91 66.531-3.99 46.094-3.32 52.884 5.72 60.004 6.96 5.2 11.71 2.84 5.53-3.75-4.06-5.23-4.04-5.13-5.28-12.82-.86-5.34-.72-13.31.5-34.934 6.89-121.772 8.32-125.869 8.47-125.906l13.87 8.969c-.77 1.87 12.71 122.735 11.34 152.781-1.6 35.13-48.89 27.37-51.13 1.3-.93-5.99 8.05-104.644 8.05-104.644zm385.72 7.093 18.57.532 114.5 105.25 39.03.843-3.41 13.282-37.72-.094zm71 0h17.97l65.53 59.407 40.35.625-7.69 11.437-40.13-1.156zm-22.37.063 96.87 87.344 33.03 1.718-5.09 11.938-39.16-1.094-108.84-99.687zm-93.41.312h20.13l151.43 136.344 39.69.719-.59 12.281-47.78-.22zm509.63 3.875c7.98 2.005 11.93 9.749 17.56 38.469 6.57 33.491-7.67 87.862-25.5 98.063-9.23 7.257-19.27-.439-12.75-9.907 21.28-30.906 24.08-81.472 11.5-109.75-3.99-9.089.12-18.511 9.19-16.875zm-642.5 5.032c48.39.578 60.89 99.956 13.29 113.892-30.92 4.566-46.84-23.422-51.33-48.679-5.29-31.379 8.54-65.566 38.04-65.213zm-26.6 59.617c2.89 19.916 15.24 42.725 33.2 40.775 23.61-2.564 26.58-34.091 24.24-49.96-2.83-19.15-13.38-36.508-30.25-37.464-25.15-1.424-29.42 31.284-27.19 46.649zm25.94-38.68c6.75-.11 11.72 8.906 9.88 20.094-1.2 7.243-3.96 16.159-12.1 10.102-3.79-3.46-7.19-13.612-6.28-21.196.6-4.986 3.06-8.862 8.5-9zm667.25 22.969 22.72 26.281-25.81 18.094c3.62-13.83 4.82-28.536 3.09-44.375zm-650.78 2.375c4.09 0 7.41 3.344 7.41 7.437s-3.32 7.407-7.41 7.407-7.41-3.314-7.41-7.407 3.32-7.437 7.41-7.437zm-26.5 4.562c4.09 0 7.41 3.314 7.41 7.407 0 4.092-3.32 7.406-7.41 7.406s-7.44-3.314-7.44-7.406c0-4.093 3.35-7.407 7.44-7.407zm15 9.563c3.72 1.129 6.1 4.549 8.09 7.518 4.96 7.373 5.61 16.627 2.08 20.5-7.11 8.455-18.23-.586-16.89-13.643.98-9.574 3.52-15.345 6.72-14.375zm63.44 29c10.62 0 13.62 12.529 4.47 18.656-5.96 3.983-7.28 16.938-3.6 34.875 2.98 12.96 1.42 14.96-6.31 3.28-13.21-21.167-9.8-56.811 5.44-56.811zm-24.85 6.812c9.32-.355 12.32 6.765 6.88 12.219-3.19 3.534-2.87 12.862.68 20.531 5.03 11.109 3.85 14.459-5.56 3.782-13-13.903-12.8-36.12-2-36.532zm616.06 5.407c10.58 14.058 19.95 32.4 28.5 53.182l-45.84-21.057zm-669.92 56.522c-3.25-3.76-4.82-15.92-7.48-21.116-2.07-6.237-3.86-9.871-7.23-9.661-19.37 1.642-18.55-16.881-7.43-20.379 23.01-7.241 31.4 48.316 22.14 51.156zm96.1-18.7c-3.28 9.71-.89 15.52-.21 25.89.58 4.71.82 5.95-3.05 2.34-9.19-8.02-14.07-35.379-5.8-40.449 11.13-6.816 14.5 4.694 9.06 12.219zm459.29-12.979c4.5-.207 9.6 3.289 12.13 9.719 3.64 9.25 3.3 31.93 1.47 44-2.81 18.48-7.27 35.45-9.1 48.16-6.48 7.71-22.46-19.57-23.97-41.1-2.51-17.07 3.37-52.539 16.5-60.029.94-.449 1.94-.702 2.97-.75zm61.9 2.908c4.02-.185 3.1 1.171 6.07 4.28 4.52 4.721 6.35 5.871 12.72 7.871 13.15 4.14 27.61 22.47 22.04 28.04-4.4 3.49-16.38-3.1-20.48-4.5-4.4-1.52-9.89-3.41-12.22-4.19-11.01-3.72-26.86-24.036-21.93-28.127 2.63-2.189 10.67-3.231 13.8-3.374zm-32.05 3.374c8.14.081 10.37 2.111 15.03 10.877 6.91 12.99 19.74 22.15 38.37 27.44 23.79 7.26 44.32 21.05 43.32 46.59-5.68.06-11.35.44-17.03 2.16-6.59-18.53-22.97-29.15-37.07-32.35-32.52-7.38-62.71-40.37-54.12-53.467 3.75-1.917 7.78-1.296 11.5-1.25zm-561.03 1.625 280.97 244.692c-118.58-44-227.35-43.05-332.54-26.79zm119.82 16.202c-.53 7.62-10.98 9.24-13.14 11.12-5.25 4.57-4.55 17.76-2.31 33.15 1.72 9.23-.58 8.83-5.44 1.59-8.59-12.81-8.42-35.03-2.72-48.12 7.35-16.858 24.35-8.41 23.61 2.26zm-161.57-11.98c10.77 1.12 13.74 15.78 14.18 25.5 0 13.39-3.8 12.89-5.93 0-1.02-5.72-2.8-7.93-7.41-9.32-10.48-3.14-11.16-16.18-.84-16.18zm130.56 14.97c-2.76 3.03-2.83 17.23-.31 26.78 1.39 5.27-1.18 5.68-4.75 1.5-11.63-13.64-12.7-36.76-1.91-41.22 8.78-2.29 11.06 8.43 6.97 12.94zm-121.56 27.34c.26 13.61-2.85 14.86-6.94 1.81-1.05-3.03-2.91-6.08-4.25-7-7.65-5.23-9-9.32-4.56-13.75 10.88-8.89 15.6 14.89 15.75 18.94zm41.06-12-38.1 162.47c93.76-7.86 136.36-9.51 236.54 10.06zm113.59 2.69c5.74 1.43 7.72 8.92 1.03 16-2.19 2.8-4.23 7.13-1.56 18.62 3.66 15.71-2.5 10.68-10-4.15-4.8-9.51-2.6-33.77 10.53-30.47zm-179.34.5c10.19 0 19.63 16.53 19.78 34.62.11 14.62-1.98 13.57-7.41-.41-3.82-9.24-6.9-12.58-13.84-15-12.86-4.47-11.74-19.21 1.47-19.21zm68.84 4.68 176.44 154.19c-72.25-11.54-143.18-12.43-212.06-3.78zm146.85 5.82c13.84 0 19.28 17.09 2.31 23.08-10.11 3.56-5.8 24.01-3.94 36.17.7 4.58-.74 4.9-3.65.81-10.66-15.74-16.63-55.41 5.28-60.06zm-18.69 19.21c-2.51 3.96-2.79 8.21-1.06 15.88 4.48 16.49 5.65 19.54-3.72 11.16-9.86-10.43-14.17-31.08-5.91-37.19 9.28-6.87 17.64.75 10.69 10.15zm-348.66-12.72c16.38-.12 28.28 10.48 27.65 25.27-.69 16.28-10.89 26.55-25.87 27.4-16.72.85-27.05-12.49-27.42-26.31-.33-12.21 7.45-26.23 25.64-26.36zm-.28 6.54c-18.74-.06-25.76 24.65-10.25 36.06 6.65 4.89 11.91 3.51 6.44-1.69-10.31-9.79-6.16-25.99 7.4-28.97 6.71-1.47 4.11-5.38-3.59-5.4zm228.22 4.18-22.56 109.44c46.16-7.17 101.99-4.98 145.09-.94zm-76 4.16c11.22-.57 14.51 16.32 14.59 23.03.01 8.69-1.01 13.22-2.62 8.57-3.77-10.96-7.5-16.97-11.56-16.97-2.2-.57-4.08-1.45-5.85-3.44-3.99-5.28-.12-10.97 5.44-11.19zm78.09 4.38 14.88 12.62c-9.57-4.19-17.72 6.66-17.72 6.66zm153.1 20.65c-4.32 5.43-4.29 16.89-.94 30.22.94 3.73-2.55.97-6.06-3.47-6.66-8.39-9.79-18.22-8.58-26.28 1.34-20.38 27.2-16.41 15.58-.47zm-235.32-9.75c9.63 1.09 13.26 21.19 13.04 27.28-.32 6.37-1.77 10.67-3.03 6.8-2.48-8.4-7.6-20.47-12.04-23.23-7.6-4.75-5.45-10.18 2.03-10.85zm737.08 22.52c.34 7.09-2.6 14.35-6.97 16.69-4.47 2.39-7.19-.85-9.85-9.02-1.96-6.01-2.66-8.32-2.66-8.32s-1.65 7.52-2.17 9.09c-3.48 10.43-14.82 10.53-19.56-1.12-5.06-13.59 9.06-27.52 19.9-27.02 12.03.55 20.68 8.31 21.31 19.7zm-642.98-15.17c3.38 0 16.5 5.87 16.5 5.87l13.06 11.56s-12.01-5.22-16.25-6.72c-10.11-3.57-9.9-3.6-18.06 3.07-8.41 6.87-15.31 11.9-15.31 11.9l2.59-14.84s12.3-10.84 17.47-10.84zm-85.72 36.47c1.93 15.68-2.46 17.01-6.72 2.03-3.65-12.83-7.24-17.5-13.44-17.5-11.41 1.7-15.25-15.23-5-18.63 19.35-5.43 24.33 27.91 25.16 34.1zm663.12-34.41 17.85 8.28 3.78 18.47-16.44-4.06zm-399.93 1.7c17.18-4.76 19.3 16.62 6.14 19.77-8.04 1.93-7.99 14.38-5.71 32.47.53 4.12 1.64 9.12 1.38 9.81-1.22 3.27-5.31-1.73-10.81-13.31-8.22-21.14-5.65-44.67 9-48.74zm490.9-.26-4.97 21.37-15.09-1.03-.56-13.09zm-508.52 13.9c-8.27 11.97-.84 23.02 1 32.39.32 5.44-6.71.11-10.76-7.82-8.44-16.55-8.93-29.91-1.34-35.88 10.63-6.23 15.52 4.91 11.1 11.31zm-154.85-2.93c2.92.02 6.88 1.61 15.19 4.81 6.29 2.42 20.87 8.34 20.87 8.34l19.28 17.03s-16.93-6.24-28.72-11.22c-26.54-11.21-22.73-11.57-43.72 4.41-6.05 4.61-12.37 9.87-12.37 9.87l2.56-13.68s7.93-7.88 17.81-15c4.26-3.07 6.18-4.59 9.1-4.56zm-246.94 6.46c13.59-.37 22.52 10.43 25.78 22.5 1.89 7 .26 13.45-.12 20.16-9.38 71.85-13.51 138.53-22.13 205.06-1.06 3.18-2.21 2-3.59-3.72-9.98-60.32-16.48-126.53-24.88-186.31-1.92-22.32-7.68-51.51 20.57-57.22 1.5-.29 2.97-.43 4.37-.47zm-.81 7.97c-5.99.24-13.08 4.36-15.59 9.66-5.14 10.83-3.8 32.87 5.96 98.94.82 5.5 1.94 14.68 2.5 20.4 1.72 17.55 4.04 31.48 5.72 34.07 3.2 4.92 3.61-.37 1.32-17.54-1.18-8.75-2.76-22.15-3.54-29.75-4.39-31.33-5.34-53.62-8.06-82.21-1.36-14.06 4.3-24.42 14.91-27.22 5.74-1.52 6.05-4.11.69-5.85-1.2-.39-2.53-.55-3.91-.5zm898.44.88c19.84.05 27.14 27.83 7.71 37.62-7.2 3.64-19.29 1.93-22.29-3.88-1.45-4.52.18-7.15 3.78-9.06 4.38-2.34 10.8-4.34 10.8-4.34s-10.51-2.03-13.47-7.01c-6.38-10.72 5.34-13.13 13.47-13.33zm-746.57 29.97c-.22 5.23-2.89 3.07-3.56 0-2.14-6.97-6.6-14.53-10.34-17.54-4.52-3.63-5.6-8.55-2.53-11.62 11.52-10.18 16.37 25.89 16.43 29.16zm673.21-30.04c5.08-.15 11.99 1.57 16.36 5.94 5.64 5.64 5.33 7.76-4.12 11.2-4.59 1.71-7.75 3.04-7.75 3.04s4.26 1.67 7.43 2.55c9.06 3.03 8.58 8.28.26 14.5-11.33 8.46-29.54-2.77-29.32-17.66.17-11.81 7.44-19.29 17.14-19.57zm41.89-.09 18.12 19.97-21.18 21.94-19.94-21.88zm-615.94 1.88c.26-.02.51 0 .78 0 5.62.1 14.58 3.89 36.56 12.75 12.08 4.86 26.04 10.4 26.04 10.4l19.78 17.5s-27.1-8.5-36.54-13.28c-2.04-1.03-6.54-2.95-10-4.25-3.45-1.29-12.01-4.64-19.03-7.47-15.08-6.07-15.25-6.11-20.31-1.84-2.16 1.82-7.47 5.98-11.78 9.25-4.31 3.26-10.61 8.05-14 10.62-3.99 3.04-9.03 7.63-9.03 7.63l3.19-16.88s2.84-2.79 7.93-6.68c4.13-3.16 11.16-8.55 15.63-11.97 4.54-3.48 6.9-5.6 10.78-5.78zm194.53 14.81c.56 3.51.23 4.19-3.81 8.31-5.1 5.21-5.8 13.75-2.06 24.81 1.03 3.06 2.28 6.67 2 6.95-5.39 5.39-19.58-28.65-16.19-38.79 4.05-12.13 17.37-12.31 20.06-1.28zm-311.09 1.47c3.71-.18 8.02 2.64 10.18 8.5 5.87 16.38 2.28 36.47-3.71 17.75-1.56-3.96-4.24-8.22-6.29-10.38-2.1-2.23-6.82-4.83-6.71-8.47.45-4.77 3.25-7.25 6.53-7.4zm121.28.47c2.38.07 5.55 1.26 11.25 3.59 5.15 2.11 19.65 6.94 27.91 10.13 12.81 4.94 26.18 11.46 26.18 11.46l-29-1.62s-9.85-3.28-15.72-5.69c-21.23-8.72-20.05-8.68-30.62-.65-3.78 2.86-8.53 7.5-8.53 7.5l-14.75.81s6.93-7.4 16.94-14.81c3.27-2.43 7.74-5.89 9.9-7.69 2.49-2.08 4.06-3.11 6.44-3.03zm226.88 5.72c8.07-1.53 12.49 6.16 11.98 10.96-.55 5.26-5.44 10.51-12.96 11.97-1.59 5.88-6.09 19.31-3.46 39.35 2.12 9.38-1.86 9.59-5.91.59-6.57-14.59-16.14-57.86 10.35-62.87zm-23.04 16.06c-3.42 7.31-4.61 13.21-2.72 22.44 2.1 10.25 2.55 12.78-3.28 6.37-11.28-15.05-12.93-39-2.53-41.75 10.04-2.65 12.24 8.24 8.53 12.94zm-338.31-11.22c17.62 2.79 22.8 32.79 20.34 45.62-4.66 15.54-4.43 5.04-6.06-1.43-4.34-15.63-9.35-24.14-14.72-25.03-14.44-2.41-12.42-21.19.44-19.16zm135 5.9c.3-.02.57.02.84.07 5.8.97 21.32 5.76 14.63 7.37l-22.91.13c-4.44.16 2.89-7.24 7.44-7.57zm616.81 4.91c2.22-.2 5.26 2.4 8.82 6.03 8.14 8.31 4.57 21.39-6.44 27.85-17.29 10.13-36.96-8.97-27.47-26.5 5.21-9.63 11.47-7.91 16.81 5.67.97 1.65-.01-1.7 1.81-5.83 1.82-4.12 4.25-7.02 6.47-7.22zm-29 .97-5.18 20.88-21.07 10.12 7.69-25.72zm43.82 3.56 16.78 1.35 9.31 27.12-24.19-10.31zm-396.54 15.33c12.21.51 13.45 12.03 6.44 17.08-3.93 3.76-5.28 9.2-4.47 17.91.36 3.86 1.13 8.6 1.1 9.15-.12 1.86-1.66 1.57-3.75-.72-12.89-14.05-11.18-43.91.68-43.42zm-369.22 4.52c7.74 0 16.51 22.16 12.2 30.64-2.72 4.97-5.35 3.74-6.34-2.03-.74-4.21-3.15-9.96-9.39-10.99-9.06-2.89-6.11-17.62 3.53-17.62zm391.54 13.4c5.91 3.06 6.46 9.85 1.12 13.66-4.14 2.95-5.23 5.44-5.87 13.44 1.35 18.19-8.87 6.64-9.83-9.91-.53-9.01 4.35-22.38 14.58-17.19zm-398.04 5.6c5.56 0 12.15 9.96 10.69 15.78-.78 4.62-3.2 3.8-6.59.37-1.31-1.02-4.26-2.08-5.63-2.5-8.31-2.51-6.92-13.65 1.53-13.65zm157.79 7.65c75.03-.35 153.09 11.56 217.97 37.47l-5.35 9.59-17.03-5.84-5.84 15.44 14.03 5.34-6.6 14.25c-76.57-25.18-159.14-43.93-296.37-23.62-6.81-4.74-19.13-14.1-19.13-14.1l10.97-2.4-1.44-15.25-27.71 4.94-8.1-8.47c43.33-11.12 93.25-17.11 144.6-17.35zm251.68 3.35c7.19.01 11.65 8.08 6.38 11.53-3.69 2.42-11.89 3.08-13.53 1.09-3.41-4.1 1.42-12.63 7.15-12.62zm-262.28 9.43-.31 15.82 22.62-.72.47-15zm39.53.35.1 15.53 21.97.72 1.03-15.22zm-57.46 1.06-22.22 1.47.68 14.5 22.04-.97zm99.34 2.41-.56 14.96 22.34 2.47 1.62-15.21zm-140.69.72-22.34 2.84 1.9 14.9 21.72-2.4zm183.88 4.84-2.19 15.62 20.84 3.1 2.69-14.85zm365.71 4.53c10.07 14.08 19.69 26.08 26.38 41.81 8.59 20.22 14.35 46.63 14.34 68.41-.01 13.01-9.08 10.39-10.93-3.16-7.81-57.04-76.46-65.63-103.44-12.93-7.01 15.09-8.35 33.73-4.66 54.53 13.05 73.57 105.77 144.62 134.85 221.81 54.58-111.87 102.5-129.25 127.34-220.31 20.01-70.01-48.12-122.07-97.53-76.72-9.02 8.31-17.35 23.77-18.31 33.97-2.05 16.4-9.34 13.95-10.04.43-.25-14.23 5.85-41.56 14.47-65.9 4.59-12.84 11.42-28.65 20.66-41.94zm-324.4 4.22-2.06 15.78 21.18 4.5 2.85-14.66zm-149.97 18.19c70.35-.09 134.47 12.03 188.47 32.56 0 0-7 15.09-9.47 16.72-38.75-15.47-104.78-29.85-149.41-30.63-16.35-.6-19.97-1.04-26-3.12-34-11.19-64.03-16.02-91.72.5l-11.31-8c34.2-5.44 67.46-8 99.44-8.03zm769.31 58.84s3.99 5.36 6.44 8.31c10.89 13.12 17.55 36.6 10.38 36.6-1.78 0-2.65-1.65-5.29-4.19-9.75-14.42-29.26-9.38-36.81 1.28-7.76 10.96-8.6 28.69-2.59 41.69 19.53 40.28 56.98 86.26 56.31 91.53 20.02-44.69 36.44-57.29 51.28-90 5.32-16.21 5.38-25.68 1.25-38.13-5.64-16.99-33.02-24.74-42.72-7.03-3.2 5.4-5.73 6.96-7.9 4.78-4.44-4.43 3.25-28.69 12.25-38.65 1.59-1.76 4.56-6.19 4.56-6.19zm-1066.44 31.34c16.09.19 23.75 24.86 6.76 35.22-4.57 2.58-10.56 2.24-15.38.06-13.77-6.55-14.8-27.04 1.25-33.75 2.59-1.08 5.08-1.55 7.37-1.53zm525.82.82c5.76 3.52 27.03 12.93 27.03 12.93l-149.41 270.1-36.15.28zm-481.9.63c8.95-.99 15.31 6.69 17.62 13.12 3.15 8.76-2.51 24.33-18.28 23.43-18.11-1.02-26.22-33.55.66-36.55zm513.8 14.05c4.01 2.21 18.53 4.61 19.78 7.41.55 1.4-.55 4.15-.87 7.72-.78 8.58 1.37 18.1 6.56 25.72 8.52 11.83-.7 6.39-9.22 6.31-19.2-4.91-43.67 21.26-34.37 48.19 2.15 5.96 1.73 6.43-8.56 9.56-23.37 7.11-33.55 31.9-22.33 54.04 5.85 11.54 6.02 10.95-4.27 11.8-28.58 2.38-45.18 27.74-33.18 53.66 1.85 4.01.67 5.12-5.57 6.28-19.51 3.58-28.25 19.9-30.72 37.81l-25.81.25zm24.75 9.54 49.6 13.53c-20.6 70.02-23.44 151.37 1.34 245.47l-114.03.09c15.84-14.22 9.58-33.86-8.93-38.18 17.96-10.31 17.97-37.75-3.55-41.05-18.93-2.9-28.7 15.09-20.3 33.12l-8.08 2.2s-3.62-4.54-4.45-6.97c-7.14-20.81 7.8-41.47 33.28-41.4 15.71.04 18.96-4.41 10.28-14.07-15.52-17.26-10.64-41.53 9.63-51.07 9.33-4.4 14.83-1.49 14.83-1.49l.49 11.45s-3.79.36-6.73.83c-22.39 3.58-18.24 39.26 4.52 38.96 12.52-.18 21.48-9.67 21.48-23.31 0-3.84.02-9.49.02-9.49 11.5 19.68 31.25 21.08 39.67 5.08 9.9-18.84-8.07-30.69-26.08-28.74 0 0 3.78-2.46 6.17-3.69 19.18-9.86 12.57-38.05-8.64-38.05-14.56 0-23.05 13.53-18.36 27.87.75 2.3 2.54 5.99 2.54 5.99l-8.67 2.2s-1.96-1.5-2.84-2.88c-14.86-23.22 9-48.8 39.06-43 11.01 3.45 10.65-4.16 4.47-11.03-6.64-9.91-11.6-21.13-6.72-32.37zm-560.47 10.12 26.04 45.88-29.16 52.84-28.91-49.5zm-2.56 23.88-18.06 24.87 17.69 28.56 16.78-28.9zm-.78 9.34 11.75 15.75-11.84 19.34-11.6-18.15zm537.94 49.56c5.47 0 9.94 4.43 9.94 9.91 0 5.47-4.47 9.9-9.94 9.9-5.48 0-9.91-4.43-9.91-9.9 0-5.48 4.43-9.91 9.91-9.91zm540.97 54.56c-7.62.19-15.87 2.42-24.44 6.85-9.23 4.77-9.23 4.76-12.84 2.37-8.79-5.81-11.5-7.18-21.41-7.18-6.15 0-10.41.34-10.41.34l.85 23.75c21.34-.58 27.2 6.67 22.72 19.53-4.65 5.83-3.6 89.64-2.13 121.97-.35 15.88 6.71 30.98 16.47 40.15 15.24 13.51 42.23 12.5 57.91 1.22 10.46-7.53 15.44-20.14 17.67-32.94 1.06-26.29.46-52.65.46-78.96l16.9.18-.19-23.81-16.5-.97s.17.68-.53-16.96c1.16-36.93-17.8-54.53-43.03-55.54-.51-.01-.99-.01-1.5 0zm-1.35 23.95c13.93 1.06 19.59 6.58 22.8 18.46 2.29 8.48 3.16 18.48 1.24 21.63-3.13 5.12-15.17-3.8-30.94-23.04-5.32-6.48-7.68-9.81-7.68-9.81 3.05-5.44 9.52-7.63 14.58-7.24zm-25.31 31.97c14.47 12.44 16.52 25.08 50.67 37.08 0 0 .97-1.33.39 40.32-.63 45.94-3.38 55.34-17.25 59.15-12.01 3.3-23.32-2.27-28.31-13.93-5.1-11.93-6.34-40.02-6.15-93.44.06-19.4.65-29.18.65-29.18zm-584.39 13.9c5.67 0 10.28 4.58 10.28 10.25s-4.61 10.28-10.28 10.28-10.25-4.61-10.25-10.28 4.58-10.25 10.25-10.25zm-15.54 6.98c-.94.4.02 9.32 2.27 13.01-14.81.9-18.73 12.23-20.17 21.79l-13.26-.03c2.21-32.34 30.22-33.06 31.16-34.77z" transform="matrix(.153876 0 0 .153876 -192.0239 34.889)"/></g></svg>