<svg xmlns="http://www.w3.org/2000/svg" version="1.1" viewBox="0 0 84 84" width="84" height="84" fill-rule="evenodd" stroke-linejoin="round" stroke-miterlimit="1.414" clip-rule="evenodd">
<path d="M51.89 58.967c.787 3.257 1.624 10.792 3.89 12.874 1.268 1.167 5.893 2.723 10.798 4.245A41.794 41.794 0 0142.047 84a41.794 41.794 0 01-24.849-8.146c4.518-1.351 8.721-2.733 9.993-3.884 1.947-1.763 4.167-7.364 4.7-10.816-.06 4.293.908 13.475 10.054 13.475 11.699 0 10.014-15.081 9.945-15.662z"></path>
<path d="M31.998 59.026c-7.055-8.327-11.683-22.372-11.683-32.733 0-13.574 5.335-26.079 21.257-26.29l.203-.002.241-.001C58.231.017 63.61 12.673 63.61 26.355c0 10.499-3.938 24.154-11.72 32.611v-.001s-3.561 6.423-9.921 6.423c-6.36 0-9.971-6.362-9.971-6.362v-.001.001z"></path>
<path fill="#d3d9dc" d="M31.998 59.026c.096.509.06 1.242-.107 2.128l.107-2.128zM51.89 58.966v.001-.001z"></path>
<path fill-opacity=".706" d="M51.89 58.966v.001c.069.581 1.754 15.662-9.945 15.662-9.146 0-10.114-9.182-10.054-13.475.167-.886.203-1.619.107-2.128v-.001.001s3.611 6.362 9.971 6.362c6.36 0 9.921-6.423 9.921-6.423v.001z"></path>
</svg>
